<svg width="16" height="16" viewBox="0 0 16 16" fill="none" xmlns="http://www.w3.org/2000/svg">
<g clip-path="url(#clip0)">
<path d="M4.29431 10.05C4.29431 10.4386 4.51115 11.2372 4.61957 11.588L5.3514 10.2119L5.10746 9.32153C4.97193 9.42946 4.61957 9.72626 4.29431 10.05Z" fill="#F09020"/>
<path d="M5.92064 7.70279C5.92064 9.13334 4.75565 10.293 3.31856 10.293C1.88148 10.293 0.716492 9.13334 0.716492 7.70279C0.716492 6.27224 1.88148 5.11255 3.31856 5.11255C4.75565 5.11255 5.92064 6.27224 5.92064 7.70279Z" fill="#FCBF1E"/>
<path d="M5.27011 7.70269C5.27011 8.7756 4.39637 9.64537 3.31856 9.64537C2.24075 9.64537 1.367 8.7756 1.367 7.70269C1.367 6.62978 2.24075 5.76001 3.31856 5.76001C4.39637 5.76001 5.27011 6.62978 5.27011 7.70269Z" fill="#E3AC1B"/>
<path d="M7.22163 11.9119H10.5555C10.7507 12.6242 9.49845 13.0721 8.84793 13.207H7.22163C5.46522 13.2718 4.75509 12.1547 4.61957 11.5881L4.82285 10.9406L5.02614 10.293L5.02613 9.64545C5.18876 8.91695 4.21299 8.43127 5.02613 8.43127C5.83928 8.43127 5.67665 9.80734 5.35139 10.2121C5.35139 11.6367 6.59822 11.9389 7.22163 11.9119Z" fill="#F09020"/>
<path fill-rule="evenodd" clip-rule="evenodd" d="M8.84794 13.2069H7.22164C5.46523 13.2716 4.75509 12.1546 4.61957 11.588C4.55072 11.3652 4.43812 10.9618 4.36513 10.5975C4.32828 10.4136 4.30153 10.2397 4.29557 10.1041C4.14267 10.1658 3.98254 10.2134 3.8168 10.2454C3.65553 10.2766 3.48895 10.2929 3.31854 10.2929C1.88145 10.2929 0.716465 9.13317 0.716465 7.70262C0.716465 6.27207 1.88145 5.11238 3.31854 5.11238C4.75562 5.11238 5.92061 6.27207 5.92061 7.70262C5.92061 8.16128 5.80085 8.5921 5.59077 8.96577C5.67807 9.39842 5.54293 9.97358 5.3514 10.2119C5.3514 11.6366 6.59822 11.9387 7.22164 11.9118H10.5555C10.5838 12.0148 10.5817 12.1124 10.5555 12.2042C10.5363 12.2717 10.5041 12.3361 10.4613 12.3974C10.1599 12.8292 9.33516 13.1058 8.84794 13.2069ZM5.84426 10.348C5.87854 10.803 6.08543 11.0492 6.31725 11.1981C6.60103 11.3804 6.96156 11.4369 7.20044 11.4266C7.2075 11.4262 7.21457 11.4261 7.22164 11.4261H10.5555C10.7756 11.4261 10.9684 11.5727 11.0262 11.784C11.1194 12.1239 11.0308 12.4313 10.864 12.6717C10.7075 12.8971 10.4824 13.0672 10.2673 13.1939C9.835 13.4484 9.30293 13.6086 8.94745 13.6823C8.91472 13.6891 8.88137 13.6926 8.84794 13.6926H7.23041C5.22764 13.7623 4.33839 12.4744 4.14896 11.7168C4.09452 11.5395 4.01732 11.2661 3.95046 10.9832C3.9308 10.9001 3.91131 10.8131 3.8933 10.7253C3.70686 10.7603 3.5147 10.7785 3.31854 10.7785C1.612 10.7785 0.228577 9.4014 0.228577 7.70262C0.228577 6.00384 1.612 4.62671 3.31854 4.62671C5.02508 4.62671 6.4085 6.00384 6.4085 7.70262C6.4085 8.18582 6.29624 8.64407 6.09601 9.05187C6.11964 9.29355 6.09842 9.54125 6.05362 9.75911C6.01298 9.95678 5.94495 10.1684 5.84426 10.348Z" fill="#501D00"/>
<path d="M7.66017 0.49865C9.30498 0.49865 10.6748 0.430221 10.8849 1.5517C10.9178 1.72749 11.0584 1.87472 11.238 1.87472H11.8072C11.9868 1.87472 12.1268 1.72682 12.1679 1.55272C12.4654 0.289577 14.561 0.49865 15.4664 0.49865C15.4664 1.55094 14.1653 2.36039 13.2709 2.36039C13.9214 2.36039 14.328 3.6555 14.328 5.59819V19.7636C14.3009 21.6793 14.8321 25.5107 17.174 25.5107C20.1013 25.5107 22.7034 22.3538 24.6549 20.573C23.1913 24.4584 20.1013 28.3437 16.8487 28.3437C14.2467 28.3437 12.0783 27.1026 11.3193 26.482V27.5343C11.3193 27.9813 10.9566 28.3437 10.5075 28.3437H3.02522C1.78924 28.3437 2.51023 27.5883 3.02522 27.2105C4.16363 24.7012 6.73377 27.2105 8.68533 27.2105V26.482C7.30297 26.3201 4.5702 24.7498 4.5702 19.7636C4.5702 14.749 7.99153 12.0922 10.3029 11.2452C11.0615 10.9673 11.7259 10.2882 11.7259 9.48355C11.7259 8.67886 11.0706 8.02654 10.2622 8.02654H9.77435C8.87617 8.02654 8.14805 7.30173 8.14805 6.40764V6.24575H7.98543C7.80579 6.24575 7.66017 6.10079 7.66017 5.92197C7.66017 5.74315 7.80579 5.59819 7.98543 5.59819H8.63594C8.99521 5.59819 9.28371 5.30827 9.26918 4.95092C9.22963 3.97866 9.17771 2.95432 9.77435 2.36039C8.9612 2.36039 7.66017 1.63188 7.66017 0.49865Z" fill="#F09020"/>
<path fill-rule="evenodd" clip-rule="evenodd" d="M7.17228 0.498622C7.17228 0.230394 7.39071 0.0129521 7.66017 0.0129521C7.74979 0.0129521 7.83984 0.0126933 7.93001 0.0124342C8.6349 0.0104086 9.34658 0.00836348 9.91324 0.1298C10.2423 0.200316 10.5683 0.320381 10.8347 0.539842C11.0943 0.753637 11.2688 1.03844 11.3492 1.38902H11.7062C11.9491 0.484636 12.8203 0.180774 13.5133 0.0722131C14.0846 -0.0172795 14.7191 -0.00248669 15.1592 0.00777383C15.2772 0.010526 15.3813 0.0129521 15.4664 0.0129521C15.7358 0.0129521 15.9543 0.230394 15.9543 0.498622C15.9543 1.23212 15.505 1.82443 15.0011 2.20938C14.7897 2.37086 14.5527 2.50875 14.3065 2.61449C14.3858 2.76441 14.4521 2.92937 14.5078 3.10213C14.7125 3.73583 14.8159 4.60131 14.8159 5.59816V19.7635L14.8158 19.7704C14.8027 20.6939 14.9261 22.0691 15.323 23.1946C15.7313 24.3528 16.3375 25.025 17.174 25.025C18.4655 25.025 19.7369 24.3247 20.9741 23.3316C21.7771 22.6869 22.5069 21.9718 23.198 21.2948C23.5838 20.9167 23.9576 20.5505 24.3253 20.215C24.4916 20.0632 24.7409 20.0448 24.9279 20.1705C25.115 20.2962 25.191 20.5332 25.1118 20.7435C24.3614 22.7355 23.1921 24.7355 21.7798 26.2462C20.3767 27.7472 18.6708 28.8294 16.8487 28.8294C14.7448 28.8294 12.9161 28.0644 11.8072 27.4043V27.5343C11.8072 28.2485 11.2272 28.8294 10.5075 28.8294H3.02523C2.7 28.8294 2.36631 28.7864 2.13008 28.6018C1.99364 28.4951 1.89735 28.3465 1.86586 28.1694C1.8366 28.0049 1.87035 27.8567 1.91254 27.7462C1.99339 27.5344 2.14913 27.3472 2.28384 27.2089C2.39491 27.0948 2.51774 26.9879 2.63493 26.896C2.96122 26.2384 3.41554 25.8391 3.98659 25.6834C4.55552 25.5284 5.15522 25.6411 5.69322 25.8051C6.02797 25.9072 6.38833 26.0467 6.73253 26.1813C5.37797 25.208 4.08232 23.247 4.08232 19.7635C4.08232 14.4894 7.68992 11.6852 10.1344 10.7894C10.7775 10.5538 11.238 10.0141 11.238 9.48352C11.238 8.94707 10.8011 8.51218 10.2622 8.51218H9.77435C8.69631 8.51218 7.80673 7.70898 7.67656 6.67095C7.38064 6.54991 7.17228 6.26015 7.17228 5.92194C7.17228 5.47489 7.53634 5.11249 7.98543 5.11249H8.63594C8.72711 5.11249 8.78464 5.04321 8.78169 4.97054C8.78086 4.95016 8.78002 4.92965 8.77917 4.90903C8.76033 4.44976 8.73909 3.93194 8.79906 3.4536C8.83045 3.20322 8.88581 2.94692 8.98351 2.7027C8.68047 2.59836 8.38003 2.44053 8.11665 2.24077C7.61342 1.8591 7.17228 1.26523 7.17228 0.498622ZM9.21748 2.26803C9.41352 2.3286 9.60457 2.36036 9.77435 2.36036C9.63994 2.49416 9.53844 2.64981 9.4623 2.82179C9.20588 3.40098 9.2371 4.16537 9.26727 4.90422C9.26791 4.91979 9.26854 4.93535 9.26918 4.95089C9.28371 5.30824 8.99521 5.59816 8.63594 5.59816H7.98543C7.80579 5.59816 7.66017 5.74312 7.66017 5.92194C7.66017 6.10076 7.80579 6.24572 7.98543 6.24572H8.14805V6.40761C8.14805 7.3017 8.87617 8.02651 9.77435 8.02651H10.2622C11.0706 8.02651 11.7259 8.67884 11.7259 9.48352C11.7259 10.2882 11.0615 10.9672 10.3029 11.2452C7.99153 12.0922 4.57021 14.7489 4.57021 19.7635C4.57021 24.7498 7.30297 26.3201 8.68532 26.482V27.2105C8.52643 27.2105 8.36343 27.1938 8.19744 27.1646C7.67617 27.0729 7.12537 26.8572 6.57932 26.6434C5.16364 26.089 3.77986 25.5471 3.02523 27.2105C2.51023 27.5882 1.78924 28.3437 3.02523 28.3437H10.5075C10.9566 28.3437 11.3193 27.9813 11.3193 27.5343V26.482C11.4449 26.5846 11.609 26.7043 11.8072 26.8324C12.8075 27.4792 14.6771 28.3437 16.8487 28.3437C19.7894 28.3437 22.5971 25.1678 24.1903 21.6874C24.3592 21.3182 24.5146 20.9456 24.6549 20.573C24.3775 20.8262 24.0869 21.1072 23.784 21.4029C23.7133 21.4721 23.6418 21.542 23.5697 21.6126C21.7805 23.3641 19.5878 25.5106 17.174 25.5106C14.8321 25.5106 14.3009 21.6792 14.328 19.7635V5.59816C14.328 4.30716 14.1484 3.30215 13.837 2.77314C13.6799 2.5061 13.4891 2.36036 13.2709 2.36036C13.5023 2.36036 13.761 2.30616 14.0173 2.20758C14.5927 1.98628 15.1562 1.54133 15.373 0.983782C15.4329 0.829864 15.4664 0.667366 15.4664 0.498622C15.3642 0.498622 15.2469 0.49596 15.1187 0.493052C14.1109 0.470184 12.4318 0.432084 12.1679 1.55269C12.1268 1.72679 11.9868 1.87469 11.8072 1.87469H11.238C11.0584 1.87469 10.9178 1.72746 10.8849 1.55167C10.6864 0.491846 9.45209 0.494695 7.92879 0.498211C7.84018 0.498416 7.75059 0.498622 7.66017 0.498622C7.66017 0.670145 7.68997 0.832396 7.74338 0.984252C7.96916 1.62621 8.61673 2.08241 9.21748 2.26803Z" fill="#501D00"/>
<path d="M11.2874 4.77572C11.2874 5.08865 11.0326 5.34234 10.7182 5.34234C10.4038 5.34234 10.149 5.08865 10.149 4.77572C10.149 4.46279 10.4038 4.20911 10.7182 4.20911C11.0326 4.20911 11.2874 4.46279 11.2874 4.77572Z" fill="white"/>
<path fill-rule="evenodd" clip-rule="evenodd" d="M12.1005 11.6691C12.2352 11.6691 12.3444 11.7778 12.3444 11.9119V13.288C12.3444 13.8691 11.8712 14.3403 11.2874 14.3403H8.84791C8.64495 14.3403 8.40992 14.5006 8.27329 14.7726C8.14334 15.0313 8.13648 15.3269 8.30143 15.5573C8.41661 15.6695 8.4781 15.6959 8.49778 15.702C8.50531 15.6957 8.51864 15.6822 8.53835 15.6551C8.57503 15.6045 8.60571 15.5477 8.64526 15.4744C8.66563 15.4366 8.68836 15.3945 8.71547 15.3466C8.78518 15.2236 8.88031 15.072 9.02079 14.9601C9.28363 14.7508 9.61189 14.6831 9.93405 14.6945C10.2564 14.706 10.5913 14.7967 10.8956 14.9265C10.9574 14.9529 11.0186 14.9802 11.0793 15.0073C11.3259 15.1174 11.565 15.2242 11.8131 15.2525C11.958 15.2689 12.094 15.2556 12.2236 15.1999C12.3533 15.1442 12.4934 15.0389 12.6351 14.845C12.7143 14.7365 12.8669 14.7125 12.9758 14.7914C13.0848 14.8703 13.1089 15.0222 13.0296 15.1306C12.8461 15.3819 12.6406 15.5498 12.417 15.6458C12.1934 15.7419 11.9686 15.759 11.7577 15.735C11.4258 15.6972 11.0983 15.5497 10.85 15.4379C10.7973 15.4141 10.7482 15.392 10.7034 15.3729C10.4385 15.2599 10.1635 15.1887 9.91663 15.1799C9.66958 15.1711 9.46929 15.2249 9.32557 15.3393C9.26276 15.3893 9.20543 15.4705 9.14046 15.5852C9.126 15.6107 9.11014 15.64 9.09323 15.6713C9.04589 15.7588 8.99028 15.8617 8.93387 15.9394C8.85355 16.0502 8.71393 16.195 8.49218 16.1893C8.29461 16.1841 8.11408 16.0577 7.94359 15.888C7.93542 15.8799 7.92785 15.8712 7.92092 15.862C7.608 15.4467 7.64411 14.9393 7.83691 14.5554C8.02554 14.1799 8.40037 13.8546 8.84791 13.8546H11.2874C11.6017 13.8546 11.8566 13.6009 11.8566 13.288V11.9119C11.8566 11.7778 11.9658 11.6691 12.1005 11.6691ZM8.49032 15.7069C8.49034 15.7067 8.49141 15.7059 8.49348 15.7052C8.49134 15.7067 8.4903 15.707 8.49032 15.7069Z" fill="#501D00"/>
</g>
<defs>
<clipPath id="clip0">
<rect width="16" height="16" fill="white"/>
</clipPath>
</defs>
</svg>
