<svg width="560" height="130" viewBox="0 0 560 130" fill="none" xmlns="http://www.w3.org/2000/svg">
<path d="M46.6 50.021C46.6 51.401 47.3666 54.2376 47.75 55.4835L50.3375 50.596L49.475 47.4335C48.9958 47.8168 47.75 48.871 46.6 50.021Z" fill="#F09020"/>
<path d="M52.3499 41.6834C52.3499 46.7644 48.231 50.8834 43.15 50.8834C38.0689 50.8834 33.95 46.7644 33.95 41.6834C33.95 36.6024 38.0689 32.4834 43.15 32.4834C48.231 32.4834 52.3499 36.6024 52.3499 41.6834Z" fill="#FCBF1E"/>
<path d="M50.05 41.6834C50.05 45.4942 46.9608 48.5834 43.15 48.5834C39.3392 48.5834 36.25 45.4942 36.25 41.6834C36.25 37.8727 39.3392 34.7834 43.15 34.7834C46.9608 34.7834 50.05 37.8727 50.05 41.6834Z" fill="#E3AC1B"/>
<path d="M56.95 56.6334H68.7375C69.4274 59.1634 65 60.7542 62.7 61.2334H56.95C50.7399 61.4634 48.2291 57.4959 47.75 55.4834L48.4688 53.1834L49.1875 50.8834L49.1875 48.5834C49.7625 45.9959 46.3125 44.2709 49.1875 44.2709C52.0625 44.2709 51.4875 49.1584 50.3375 50.5959C50.3375 55.6559 54.7458 56.7292 56.95 56.6334Z" fill="#F09020"/>
<path fill-rule="evenodd" clip-rule="evenodd" d="M62.7 61.2334H56.9499C50.7399 61.4634 48.2291 57.4959 47.75 55.4834C47.5065 54.6922 47.1084 53.2592 46.8503 51.9653C46.7201 51.3123 46.6255 50.6947 46.6044 50.2129C46.0638 50.432 45.4977 50.6013 44.9117 50.7149C44.3415 50.8255 43.7525 50.8834 43.15 50.8834C38.069 50.8834 33.95 46.7644 33.95 41.6834C33.95 36.6024 38.069 32.4834 43.15 32.4834C48.231 32.4834 52.35 36.6024 52.35 41.6834C52.35 43.3125 51.9266 44.8427 51.1838 46.1699C51.4925 47.7065 51.0146 49.7494 50.3374 50.5959C50.3374 55.6559 54.7458 56.7293 56.9499 56.6334H68.7374C68.8373 56.9995 68.83 57.346 68.7374 57.6723C68.6695 57.9119 68.5555 58.1407 68.4043 58.3584C67.3387 59.8921 64.4226 60.8745 62.7 61.2334ZM52.08 51.0791C52.2012 52.6952 52.9327 53.5698 53.7524 54.0986C54.7557 54.746 56.0304 54.9468 56.875 54.9101C56.9 54.909 56.925 54.9084 56.9499 54.9084H68.7374C69.5153 54.9084 70.197 55.4291 70.4017 56.1796C70.7309 57.3868 70.4177 58.4788 69.8279 59.3326C69.2749 60.1331 68.4789 60.7372 67.7182 61.1872C66.1899 62.0913 64.3087 62.6603 63.0518 62.9222C62.9361 62.9463 62.8182 62.9584 62.7 62.9584H56.981C49.8999 63.2062 46.7558 58.6317 46.086 55.9411C45.8936 55.3114 45.6206 54.3402 45.3842 53.3355C45.3147 53.0401 45.2458 52.7312 45.1821 52.4195C44.523 52.5436 43.8436 52.6084 43.15 52.6084C37.1163 52.6084 32.225 47.7171 32.225 41.6834C32.225 35.6497 37.1163 30.7584 43.15 30.7584C49.1837 30.7584 54.075 35.6497 54.075 41.6834C54.075 43.3996 53.6781 45.0273 52.9701 46.4757C53.0537 47.3341 52.9787 48.2138 52.8203 48.9876C52.6766 49.6897 52.436 50.4412 52.08 51.0791Z" fill="#501D00"/>
<path d="M58.5004 16.096C64.3158 16.096 69.1591 15.8529 69.9017 19.8362C70.0181 20.4606 70.5152 20.9835 71.1503 20.9835H73.1628C73.7979 20.9835 74.2929 20.4582 74.4379 19.8398C75.49 15.3534 82.8991 16.096 86.1003 16.096C86.1003 19.8335 81.5003 22.7085 78.3378 22.7085C80.6378 22.7085 82.0753 27.3085 82.0753 34.2085V84.521C81.9795 91.3251 83.8578 104.933 92.1378 104.933C102.488 104.933 111.688 93.721 118.588 87.396C113.413 101.196 102.488 114.996 90.9878 114.996C81.7878 114.996 74.1212 110.588 71.4378 108.383V112.121C71.4378 113.709 70.1555 114.996 68.5677 114.996H42.1129C37.7429 114.996 40.292 112.313 42.1129 110.971C46.1379 102.058 55.225 110.971 62.125 110.971V108.383C57.2375 107.808 47.5754 102.231 47.5754 84.521C47.5754 66.7101 59.6719 57.2739 67.8441 54.2657C70.5263 53.2784 72.8754 50.8666 72.8754 48.0085C72.8754 45.1504 70.5584 42.8335 67.7004 42.8335H65.9754C62.7997 42.8335 60.2254 40.2591 60.2254 37.0835V36.5085H59.6504C59.0152 36.5085 58.5004 35.9936 58.5004 35.3585C58.5004 34.7234 59.0152 34.2085 59.6504 34.2085H61.9504C63.2206 34.2085 64.2406 33.1787 64.1892 31.9095C64.0494 28.4562 63.8658 24.818 65.9754 22.7085C63.1004 22.7085 58.5004 20.121 58.5004 16.096Z" fill="#F09020"/>
<path fill-rule="evenodd" clip-rule="evenodd" d="M56.7754 16.096C56.7754 15.1433 57.5477 14.371 58.5004 14.371C58.8172 14.371 59.1356 14.37 59.4544 14.3691C61.9467 14.3619 64.4629 14.3547 66.4664 14.786C67.6298 15.0364 68.7826 15.4629 69.7246 16.2424C70.6422 17.0017 71.2591 18.0133 71.5433 19.2585H72.8055C73.6645 16.0463 76.7448 14.967 79.195 14.5814C81.2149 14.2636 83.4582 14.3161 85.0142 14.3526C85.4315 14.3623 85.7994 14.371 86.1003 14.371C87.053 14.371 87.8253 15.1433 87.8253 16.096C87.8253 18.7012 86.2369 20.8049 84.4552 22.1722C83.7079 22.7457 82.8701 23.2355 81.9993 23.6111C82.2798 24.1436 82.5141 24.7295 82.7113 25.3431C83.4348 27.5939 83.8003 30.6678 83.8003 34.2085V84.521L83.8002 84.5452C83.754 87.8252 84.1901 92.7098 85.5933 96.7075C87.0371 100.821 89.1802 103.208 92.1378 103.208C96.704 103.208 101.2 100.721 105.574 97.1938C108.413 94.9041 110.993 92.3644 113.436 89.9596C114.801 88.6168 116.122 87.316 117.422 86.1244C118.01 85.5852 118.892 85.5198 119.553 85.9662C120.214 86.4127 120.483 87.2545 120.203 88.0016C117.55 95.0767 113.416 102.18 108.423 107.546C103.462 112.877 97.43 116.721 90.9878 116.721C83.5491 116.721 77.0834 114.004 73.1628 111.659V112.121C73.1628 114.658 71.112 116.721 68.5677 116.721H42.1129C40.963 116.721 39.7832 116.568 38.9479 115.912C38.4655 115.534 38.1251 115.006 38.0138 114.377C37.9103 113.793 38.0296 113.266 38.1788 112.874C38.4646 112.122 39.0153 111.457 39.4916 110.965C39.8843 110.56 40.3186 110.18 40.7329 109.854C41.8866 107.518 43.4929 106.1 45.5119 105.547C47.5234 104.996 49.6438 105.397 51.5459 105.979C52.7295 106.342 54.0036 106.838 55.2206 107.315C50.4313 103.859 45.8504 96.8935 45.8504 84.521C45.8504 65.7883 58.6055 55.8282 67.2482 52.6468C69.5223 51.8097 71.1504 49.8928 71.1504 48.0085C71.1504 46.1031 69.6057 44.5585 67.7004 44.5585H65.9754C62.1638 44.5585 59.0185 41.7057 58.5583 38.0188C57.5121 37.5889 56.7754 36.5597 56.7754 35.3585C56.7754 33.7706 58.0625 32.4835 59.6504 32.4835H61.9504C62.2727 32.4835 62.4761 32.2374 62.4657 31.9793C62.4627 31.9069 62.4598 31.8341 62.4568 31.7608C62.3901 30.1296 62.315 28.2904 62.5271 26.5914C62.6381 25.7021 62.8338 24.7918 63.1792 23.9244C62.1078 23.5538 61.0456 22.9932 60.1143 22.2837C58.3351 20.9281 56.7754 18.8188 56.7754 16.096ZM64.0065 22.3805C64.6996 22.5957 65.3751 22.7085 65.9754 22.7085C65.5001 23.1837 65.1413 23.7365 64.8721 24.3473C63.9655 26.4045 64.0758 29.1195 64.1825 31.7437C64.1848 31.799 64.187 31.8543 64.1892 31.9095C64.2406 33.1787 63.2206 34.2085 61.9504 34.2085H59.6504C59.0152 34.2085 58.5004 34.7233 58.5004 35.3585C58.5004 35.9936 59.0152 36.5085 59.6504 36.5085H60.2254V37.0835C60.2254 40.2591 62.7997 42.8335 65.9754 42.8335H67.7004C70.5584 42.8335 72.8754 45.1504 72.8754 48.0085C72.8754 50.8665 70.5263 53.2783 67.8441 54.2656C59.6719 57.2738 47.5754 66.7101 47.5754 84.521C47.5754 102.231 57.2375 107.808 62.125 108.383V110.971C61.5632 110.971 60.9868 110.912 60.4 110.808C58.5569 110.482 56.6095 109.716 54.6789 108.957C49.6735 106.988 44.781 105.063 42.1129 110.971C40.292 112.313 37.7429 114.996 42.1129 114.996H68.5677C70.1555 114.996 71.4378 113.709 71.4378 112.121V108.383C71.8817 108.748 72.4619 109.173 73.1628 109.628C76.6994 111.925 83.3096 114.996 90.9878 114.996C101.385 114.996 111.312 103.716 116.945 91.3541C117.542 90.0428 118.092 88.7194 118.588 87.396C117.607 88.2952 116.579 89.2932 115.509 90.3438C115.258 90.5893 115.006 90.8378 114.751 91.0885C108.425 97.3094 100.672 104.933 92.1378 104.933C83.8578 104.933 81.9795 91.3251 82.0753 84.521V34.2085C82.0753 29.6231 81.4405 26.0535 80.3396 24.1746C79.7839 23.2261 79.1094 22.7085 78.3378 22.7085C79.1562 22.7085 80.0708 22.5159 80.977 22.1658C83.0113 21.3798 85.0036 19.7994 85.7704 17.8191C85.982 17.2725 86.1003 16.6953 86.1003 16.096C85.7391 16.096 85.3243 16.0865 84.8711 16.0762C81.308 15.9949 75.3713 15.8596 74.438 19.8398C74.293 20.4582 73.7979 20.9835 73.1628 20.9835H71.1503C70.5152 20.9835 70.0181 20.4605 69.9017 19.8362C69.2 16.0719 64.836 16.082 59.4501 16.0945C59.1368 16.0952 58.8201 16.096 58.5004 16.096C58.5004 16.7052 58.6057 17.2814 58.7946 17.8208C59.5928 20.1009 61.8824 21.7212 64.0065 22.3805Z" fill="#501D00"/>
<path d="M71.325 31.2875C71.325 32.399 70.424 33.3 69.3125 33.3C68.201 33.3 67.3 32.399 67.3 31.2875C67.3 30.1761 68.201 29.275 69.3125 29.275C70.424 29.275 71.325 30.1761 71.325 31.2875Z" fill="white"/>
<path fill-rule="evenodd" clip-rule="evenodd" d="M57.5781 87.2843C63.7339 82.6059 70.7686 84.9403 73.5096 86.6661C73.9127 86.9199 74.0337 87.4525 73.7799 87.8556C73.5261 88.2587 72.9935 88.3797 72.5905 88.1259C70.1564 86.5933 63.9661 84.5961 58.6219 88.6577C57.3685 89.6103 56.7883 90.7449 56.6332 91.9712C56.4742 93.2292 56.7568 94.6441 57.3537 96.1132C58.5505 99.0584 60.9058 101.966 62.7269 103.741C62.8935 103.903 62.9875 104.126 62.9875 104.358V110.108C62.9875 110.585 62.6013 110.971 62.125 110.971C61.6487 110.971 61.2625 110.585 61.2625 110.108V104.718C59.3827 102.831 57.0155 99.8631 55.7556 96.7626C55.0948 95.1362 54.7126 93.4102 54.9219 91.7548C55.1352 90.0679 55.9565 88.5167 57.5781 87.2843Z" fill="#501D00"/>
<path d="M60.9749 73.8834C56.4835 73.8834 52.7438 77.1019 51.9364 81.3584H70.0135C69.2061 77.1019 65.4664 73.8834 60.9749 73.8834Z" fill="#FCBF1E"/>
<path d="M67.6575 81.3585C66.8916 78.3825 64.19 76.1835 60.9749 76.1835C57.7598 76.1835 55.0583 78.3825 54.2923 81.3585H67.6575Z" fill="#E3AC1B"/>
<path fill-rule="evenodd" clip-rule="evenodd" d="M49.7625 81.3585C49.7625 80.8821 50.1486 80.496 50.625 80.496H71.325C71.8013 80.496 72.1875 80.8821 72.1875 81.3585C72.1875 81.8348 71.8013 82.221 71.325 82.221H50.625C50.1486 82.221 49.7625 81.8348 49.7625 81.3585Z" fill="#501D00"/>
<path fill-rule="evenodd" clip-rule="evenodd" d="M74.1999 55.7709C74.6763 55.7709 75.0624 56.157 75.0624 56.6334V61.5209C75.0624 63.585 73.3891 65.2584 71.3249 65.2584H62.6999C61.9823 65.2584 61.1513 65.828 60.6683 66.7941C60.2088 67.7129 60.1846 68.7627 60.7678 69.581C61.175 69.9795 61.3924 70.0732 61.462 70.0949C61.4886 70.0726 61.5357 70.0249 61.6054 69.9284C61.7351 69.7488 61.8436 69.5469 61.9834 69.2866C62.0554 69.1524 62.1358 69.0028 62.2317 68.8328C62.4781 68.3957 62.8145 67.8572 63.3111 67.4599C64.2405 66.7164 65.4011 66.4761 66.5401 66.5167C67.6797 66.5574 68.8639 66.8796 69.9397 67.3406C70.1585 67.4344 70.3748 67.5314 70.5895 67.6277C71.4611 68.0187 72.3067 68.3981 73.1838 68.4983C73.6961 68.5569 74.1769 68.5097 74.6353 68.3118C75.0936 68.114 75.589 67.7399 76.0899 67.0511C76.3701 66.6658 76.9095 66.5807 77.2948 66.8608C77.68 67.141 77.7652 67.6804 77.485 68.0657C76.836 68.9581 76.1095 69.5543 75.3189 69.8956C74.5285 70.2368 73.7335 70.2974 72.988 70.2122C71.8145 70.0781 70.6566 69.5541 69.7786 69.1569C69.5924 69.0726 69.4187 68.9941 69.2602 68.9261C68.3235 68.5247 67.3515 68.2718 66.4785 68.2406C65.6051 68.2094 64.8969 68.4004 64.3888 68.8069C64.1667 68.9845 63.964 69.2726 63.7343 69.68C63.6831 69.7707 63.6271 69.8749 63.5673 69.986C63.3999 70.2969 63.2033 70.6622 63.0038 70.9384C62.7198 71.3316 62.2262 71.846 61.4422 71.8257C60.7436 71.8075 60.1054 71.3586 59.5025 70.7558C59.4737 70.7269 59.4469 70.696 59.4224 70.6634C58.316 69.1882 58.4437 67.386 59.1254 66.0226C59.7923 64.6888 61.1176 63.5334 62.6999 63.5334H71.3249C72.4364 63.5334 73.3374 62.6323 73.3374 61.5209V56.6334C73.3374 56.157 73.7236 55.7709 74.1999 55.7709ZM61.4356 70.1123C61.4357 70.1116 61.4394 70.109 61.4468 70.1065C61.4392 70.1117 61.4355 70.1129 61.4356 70.1123Z" fill="#501D00"/>
<path d="M107.11 82.4401C103.81 82.4401 101.151 81.4684 99.1346 79.5251C97.1546 77.5451 96.1646 74.9051 96.1646 71.6051V53.7851C96.1646 50.5217 97.1546 47.9184 99.1346 45.9751C101.151 44.0317 103.81 43.0601 107.11 43.0601C110.446 43.0601 113.105 44.0317 115.085 45.9751C117.101 47.9184 118.11 50.5217 118.11 53.7851V54.3901C118.11 54.5734 118.036 54.7384 117.89 54.8851C117.78 54.9951 117.633 55.0501 117.45 55.0501L111.015 55.3251C110.575 55.3251 110.355 55.1234 110.355 54.7201V53.2901C110.355 52.2267 110.061 51.3651 109.475 50.7051C108.888 50.0451 108.1 49.7151 107.11 49.7151C106.156 49.7151 105.386 50.0451 104.8 50.7051C104.213 51.3651 103.92 52.2267 103.92 53.2901V72.2651C103.92 73.3284 104.213 74.1901 104.8 74.8501C105.386 75.4734 106.156 75.7851 107.11 75.7851C108.1 75.7851 108.888 75.4734 109.475 74.8501C110.061 74.1901 110.355 73.3284 110.355 72.2651V70.7801C110.355 70.5967 110.41 70.4501 110.52 70.3401C110.666 70.1934 110.831 70.1201 111.015 70.1201L117.45 70.3951C117.633 70.3951 117.78 70.4684 117.89 70.6151C118.036 70.7251 118.11 70.8717 118.11 71.0551V71.6051C118.11 74.9051 117.101 77.5451 115.085 79.5251C113.068 81.4684 110.41 82.4401 107.11 82.4401Z" fill="#120136"/>
<path d="M134.987 82.4401C131.614 82.4401 128.919 81.4501 126.902 79.4701C124.886 77.4901 123.877 74.8501 123.877 71.5501V53.9501C123.877 50.6501 124.886 48.0101 126.902 46.0301C128.919 44.0501 131.614 43.0601 134.987 43.0601C138.361 43.0601 141.056 44.0501 143.072 46.0301C145.126 48.0101 146.152 50.6501 146.152 53.9501V71.5501C146.152 74.8501 145.126 77.4901 143.072 79.4701C141.056 81.4501 138.361 82.4401 134.987 82.4401ZM134.987 75.7851C136.014 75.7851 136.839 75.4367 137.462 74.7401C138.086 74.0067 138.397 73.0534 138.397 71.8801V53.6201C138.397 52.4467 138.086 51.5117 137.462 50.8151C136.839 50.0817 136.014 49.7151 134.987 49.7151C133.961 49.7151 133.136 50.0817 132.512 50.8151C131.926 51.5117 131.632 52.4467 131.632 53.6201V71.8801C131.632 73.0534 131.926 74.0067 132.512 74.7401C133.136 75.4367 133.961 75.7851 134.987 75.7851Z" fill="#120136"/>
<path d="M163.403 82.4401C160.103 82.4401 157.445 81.4134 155.428 79.3601C153.448 77.2701 152.458 74.5017 152.458 71.0551V44.1601C152.458 43.9767 152.513 43.8301 152.623 43.7201C152.77 43.5734 152.935 43.5001 153.118 43.5001H159.553C159.737 43.5001 159.883 43.5734 159.993 43.7201C160.14 43.8301 160.213 43.9767 160.213 44.1601V71.8251C160.213 72.9984 160.507 73.9517 161.093 74.6851C161.68 75.4184 162.45 75.7851 163.403 75.7851C164.357 75.7851 165.108 75.4184 165.658 74.6851C166.245 73.9517 166.538 72.9984 166.538 71.8251V44.1601C166.538 43.9767 166.593 43.8301 166.703 43.7201C166.85 43.5734 167.015 43.5001 167.198 43.5001H173.633C173.817 43.5001 173.963 43.5734 174.073 43.7201C174.22 43.8301 174.293 43.9767 174.293 44.1601V71.0551C174.293 74.5017 173.285 77.2701 171.268 79.3601C169.288 81.4134 166.667 82.4401 163.403 82.4401Z" fill="#120136"/>
<path d="M196.549 44.1601C196.549 43.9767 196.604 43.8301 196.714 43.7201C196.861 43.5734 197.026 43.5001 197.209 43.5001H203.589C203.773 43.5001 203.919 43.5734 204.029 43.7201C204.176 43.8301 204.249 43.9767 204.249 44.1601V81.3401C204.249 81.5234 204.176 81.6884 204.029 81.8351C203.919 81.9451 203.773 82.0001 203.589 82.0001H196.329C195.963 82.0001 195.724 81.8167 195.614 81.4501L188.794 60.1651C188.758 60.0551 188.684 60.0184 188.574 60.0551C188.501 60.0551 188.464 60.1101 188.464 60.2201L188.519 81.3401C188.519 81.5234 188.446 81.6884 188.299 81.8351C188.189 81.9451 188.043 82.0001 187.859 82.0001H181.479C181.296 82.0001 181.131 81.9451 180.984 81.8351C180.874 81.6884 180.819 81.5234 180.819 81.3401V44.1601C180.819 43.9767 180.874 43.8301 180.984 43.7201C181.131 43.5734 181.296 43.5001 181.479 43.5001H188.684C189.051 43.5001 189.289 43.6834 189.399 44.0501L196.274 65.3351C196.311 65.4451 196.366 65.5001 196.439 65.5001C196.549 65.4634 196.604 65.3901 196.604 65.2801L196.549 44.1601Z" fill="#120136"/>
<path d="M232.611 43.5001C232.795 43.5001 232.941 43.5734 233.051 43.7201C233.198 43.8301 233.271 43.9767 233.271 44.1601V49.4951C233.271 49.6784 233.198 49.8434 233.051 49.9901C232.941 50.1001 232.795 50.1551 232.611 50.1551H225.736C225.553 50.1551 225.461 50.2467 225.461 50.4301V81.3401C225.461 81.5234 225.388 81.6884 225.241 81.8351C225.131 81.9451 224.985 82.0001 224.801 82.0001H218.366C218.183 82.0001 218.018 81.9451 217.871 81.8351C217.761 81.6884 217.706 81.5234 217.706 81.3401V50.4301C217.706 50.2467 217.615 50.1551 217.431 50.1551H210.831C210.648 50.1551 210.483 50.1001 210.336 49.9901C210.226 49.8434 210.171 49.6784 210.171 49.4951V44.1601C210.171 43.9767 210.226 43.8301 210.336 43.7201C210.483 43.5734 210.648 43.5001 210.831 43.5001H232.611Z" fill="#120136"/>
<path d="M272.595 49.4951C272.595 49.6784 272.521 49.8434 272.375 49.9901C272.265 50.1001 272.118 50.1551 271.935 50.1551H260.44C260.256 50.1551 260.165 50.2467 260.165 50.4301V59.1201C260.165 59.3034 260.256 59.3951 260.44 59.3951H267.04C267.223 59.3951 267.37 59.4684 267.48 59.6151C267.626 59.7251 267.7 59.8717 267.7 60.0551V65.3901C267.7 65.5734 267.626 65.7384 267.48 65.8851C267.37 65.9951 267.223 66.0501 267.04 66.0501H260.44C260.256 66.0501 260.165 66.1417 260.165 66.3251V75.0701C260.165 75.2534 260.256 75.3451 260.44 75.3451H271.935C272.118 75.3451 272.265 75.4184 272.375 75.5651C272.521 75.6751 272.595 75.8217 272.595 76.0051V81.3401C272.595 81.5234 272.521 81.6884 272.375 81.8351C272.265 81.9451 272.118 82.0001 271.935 82.0001H253.07C252.886 82.0001 252.721 81.9451 252.575 81.8351C252.465 81.6884 252.41 81.5234 252.41 81.3401V44.1601C252.41 43.9767 252.465 43.8301 252.575 43.7201C252.721 43.5734 252.886 43.5001 253.07 43.5001H271.935C272.118 43.5001 272.265 43.5734 272.375 43.7201C272.521 43.8301 272.595 43.9767 272.595 44.1601V49.4951Z" fill="#120136"/>
<path d="M286.151 82.0001C285.748 82.0001 285.509 81.7984 285.436 81.3951L277.571 44.2151L277.516 43.9951C277.516 43.6651 277.718 43.5001 278.121 43.5001H285.216C285.656 43.5001 285.894 43.7017 285.931 44.1051L289.726 68.3051C289.763 68.4517 289.818 68.5251 289.891 68.5251C289.964 68.5251 290.019 68.4517 290.056 68.3051L293.741 44.1051C293.778 43.7017 294.016 43.5001 294.456 43.5001H301.331C301.808 43.5001 301.991 43.7384 301.881 44.2151L293.961 81.3951C293.888 81.7984 293.649 82.0001 293.246 82.0001H286.151Z" fill="#120136"/>
<path d="M327.966 49.4951C327.966 49.6784 327.893 49.8434 327.746 49.9901C327.636 50.1001 327.49 50.1551 327.306 50.1551H315.811C315.628 50.1551 315.536 50.2467 315.536 50.4301V59.1201C315.536 59.3034 315.628 59.3951 315.811 59.3951H322.411C322.595 59.3951 322.741 59.4684 322.851 59.6151C322.998 59.7251 323.071 59.8717 323.071 60.0551V65.3901C323.071 65.5734 322.998 65.7384 322.851 65.8851C322.741 65.9951 322.595 66.0501 322.411 66.0501H315.811C315.628 66.0501 315.536 66.1417 315.536 66.3251V75.0701C315.536 75.2534 315.628 75.3451 315.811 75.3451H327.306C327.49 75.3451 327.636 75.4184 327.746 75.5651C327.893 75.6751 327.966 75.8217 327.966 76.0051V81.3401C327.966 81.5234 327.893 81.6884 327.746 81.8351C327.636 81.9451 327.49 82.0001 327.306 82.0001H308.441C308.258 82.0001 308.093 81.9451 307.946 81.8351C307.836 81.6884 307.781 81.5234 307.781 81.3401V44.1601C307.781 43.9767 307.836 43.8301 307.946 43.7201C308.093 43.5734 308.258 43.5001 308.441 43.5001H327.306C327.49 43.5001 327.636 43.5734 327.746 43.7201C327.893 43.8301 327.966 43.9767 327.966 44.1601V49.4951Z" fill="#120136"/>
<path d="M349.278 82.0001C348.874 82.0001 348.618 81.8167 348.508 81.4501L344.273 66.2701C344.199 66.1234 344.108 66.0501 343.998 66.0501H342.128C341.944 66.0501 341.853 66.1417 341.853 66.3251V81.3401C341.853 81.5234 341.779 81.6884 341.633 81.8351C341.523 81.9451 341.376 82.0001 341.193 82.0001H334.758C334.574 82.0001 334.409 81.9451 334.263 81.8351C334.153 81.6884 334.098 81.5234 334.098 81.3401V44.1601C334.098 43.9767 334.153 43.8301 334.263 43.7201C334.409 43.5734 334.574 43.5001 334.758 43.5001H345.868C347.884 43.5001 349.681 43.9951 351.258 44.9851C352.834 45.9384 354.044 47.2951 354.888 49.0551C355.768 50.8151 356.208 52.8317 356.208 55.1051C356.208 57.2684 355.786 59.1751 354.943 60.8251C354.136 62.4751 352.999 63.7584 351.533 64.6751C351.459 64.7117 351.404 64.7667 351.368 64.8401C351.331 64.8767 351.331 64.9317 351.368 65.0051L356.428 81.2301L356.483 81.4501C356.483 81.8167 356.281 82.0001 355.878 82.0001H349.278ZM342.128 50.1551C341.944 50.1551 341.853 50.2467 341.853 50.4301V59.8351C341.853 60.0184 341.944 60.1101 342.128 60.1101H344.603C345.739 60.1101 346.656 59.6701 347.353 58.7901C348.086 57.8734 348.453 56.6634 348.453 55.1601C348.453 53.6201 348.086 52.4101 347.353 51.5301C346.656 50.6134 345.739 50.1551 344.603 50.1551H342.128Z" fill="#120136"/>
<path d="M367.999 81.9451C367.815 81.9451 367.65 81.8901 367.504 81.7801C367.394 81.6334 367.339 81.4684 367.339 81.2851V66.9851L367.284 66.6551L359.584 44.2701C359.547 44.1967 359.529 44.1051 359.529 43.9951C359.529 43.6651 359.73 43.5001 360.134 43.5001H366.899C367.302 43.5001 367.559 43.6834 367.669 44.0501L371.079 57.1951C371.115 57.3051 371.17 57.3601 371.244 57.3601C371.317 57.3601 371.372 57.3051 371.409 57.1951L374.819 44.0501C374.929 43.6834 375.185 43.5001 375.589 43.5001H382.354C382.574 43.5001 382.739 43.5734 382.849 43.7201C382.959 43.8301 382.977 44.0134 382.904 44.2701L375.149 66.6551L375.094 66.9851V81.2851C375.094 81.4684 375.02 81.6334 374.874 81.7801C374.764 81.8901 374.617 81.9451 374.434 81.9451H367.999Z" fill="#120136"/>
<path d="M413.804 43.4451C415.821 43.4451 417.617 43.9401 419.194 44.9301C420.771 45.9201 421.981 47.3134 422.824 49.1101C423.704 50.8701 424.144 52.8867 424.144 55.1601C424.144 58.5701 423.228 61.3017 421.394 63.3551C419.561 65.4084 417.159 66.4351 414.189 66.4351H410.064C409.881 66.4351 409.789 66.5267 409.789 66.7101V81.3401C409.789 81.5234 409.716 81.6884 409.569 81.8351C409.459 81.9451 409.312 82.0001 409.129 82.0001H402.694C402.511 82.0001 402.346 81.9451 402.199 81.8351C402.089 81.6884 402.034 81.5234 402.034 81.3401V44.1051C402.034 43.9217 402.089 43.7751 402.199 43.6651C402.346 43.5184 402.511 43.4451 402.694 43.4451H413.804ZM412.484 60.3851C413.658 60.3851 414.592 59.9451 415.289 59.0651C416.022 58.1484 416.389 56.9017 416.389 55.3251C416.389 53.7117 416.022 52.4467 415.289 51.5301C414.592 50.6134 413.658 50.1551 412.484 50.1551H410.064C409.881 50.1551 409.789 50.2467 409.789 50.4301V60.1101C409.789 60.2934 409.881 60.3851 410.064 60.3851H412.484Z" fill="#120136"/>
<path d="M450.041 49.4951C450.041 49.6784 449.967 49.8434 449.821 49.9901C449.711 50.1001 449.564 50.1551 449.381 50.1551H437.886C437.702 50.1551 437.611 50.2467 437.611 50.4301V59.1201C437.611 59.3034 437.702 59.3951 437.886 59.3951H444.486C444.669 59.3951 444.816 59.4684 444.926 59.6151C445.072 59.7251 445.146 59.8717 445.146 60.0551V65.3901C445.146 65.5734 445.072 65.7384 444.926 65.8851C444.816 65.9951 444.669 66.0501 444.486 66.0501H437.886C437.702 66.0501 437.611 66.1417 437.611 66.3251V75.0701C437.611 75.2534 437.702 75.3451 437.886 75.3451H449.381C449.564 75.3451 449.711 75.4184 449.821 75.5651C449.967 75.6751 450.041 75.8217 450.041 76.0051V81.3401C450.041 81.5234 449.967 81.6884 449.821 81.8351C449.711 81.9451 449.564 82.0001 449.381 82.0001H430.516C430.332 82.0001 430.167 81.9451 430.021 81.8351C429.911 81.6884 429.856 81.5234 429.856 81.3401V44.1601C429.856 43.9767 429.911 43.8301 430.021 43.7201C430.167 43.5734 430.332 43.5001 430.516 43.5001H449.381C449.564 43.5001 449.711 43.5734 449.821 43.7201C449.967 43.8301 450.041 43.9767 450.041 44.1601V49.4951Z" fill="#120136"/>
<path d="M471.902 44.1601C471.902 43.9767 471.957 43.8301 472.067 43.7201C472.213 43.5734 472.378 43.5001 472.562 43.5001H478.942C479.125 43.5001 479.272 43.5734 479.382 43.7201C479.528 43.8301 479.602 43.9767 479.602 44.1601V81.3401C479.602 81.5234 479.528 81.6884 479.382 81.8351C479.272 81.9451 479.125 82.0001 478.942 82.0001H471.682C471.315 82.0001 471.077 81.8167 470.967 81.4501L464.147 60.1651C464.11 60.0551 464.037 60.0184 463.927 60.0551C463.853 60.0551 463.817 60.1101 463.817 60.2201L463.872 81.3401C463.872 81.5234 463.798 81.6884 463.652 81.8351C463.542 81.9451 463.395 82.0001 463.212 82.0001H456.832C456.648 82.0001 456.483 81.9451 456.337 81.8351C456.227 81.6884 456.172 81.5234 456.172 81.3401V44.1601C456.172 43.9767 456.227 43.8301 456.337 43.7201C456.483 43.5734 456.648 43.5001 456.832 43.5001H464.037C464.403 43.5001 464.642 43.6834 464.752 44.0501L471.627 65.3351C471.663 65.4451 471.718 65.5001 471.792 65.5001C471.902 65.4634 471.957 65.3901 471.957 65.2801L471.902 44.1601Z" fill="#120136"/>
<path d="M502.354 44.1601C502.354 43.9767 502.409 43.8301 502.519 43.7201C502.665 43.5734 502.83 43.5001 503.014 43.5001H509.394C509.577 43.5001 509.724 43.5734 509.834 43.7201C509.98 43.8301 510.054 43.9767 510.054 44.1601V81.3401C510.054 81.5234 509.98 81.6884 509.834 81.8351C509.724 81.9451 509.577 82.0001 509.394 82.0001H502.134C501.767 82.0001 501.529 81.8167 501.419 81.4501L494.599 60.1651C494.562 60.0551 494.489 60.0184 494.379 60.0551C494.305 60.0551 494.269 60.1101 494.269 60.2201L494.324 81.3401C494.324 81.5234 494.25 81.6884 494.104 81.8351C493.994 81.9451 493.847 82.0001 493.664 82.0001H487.284C487.1 82.0001 486.935 81.9451 486.789 81.8351C486.679 81.6884 486.624 81.5234 486.624 81.3401V44.1601C486.624 43.9767 486.679 43.8301 486.789 43.7201C486.935 43.5734 487.1 43.5001 487.284 43.5001H494.489C494.855 43.5001 495.094 43.6834 495.204 44.0501L502.079 65.3351C502.115 65.4451 502.17 65.5001 502.244 65.5001C502.354 65.4634 502.409 65.3901 502.409 65.2801L502.354 44.1601Z" fill="#120136"/>
<path d="M524.446 81.9451C524.262 81.9451 524.097 81.8901 523.951 81.7801C523.841 81.6334 523.786 81.4684 523.786 81.2851V66.9851L523.731 66.6551L516.031 44.2701C515.994 44.1967 515.976 44.1051 515.976 43.9951C515.976 43.6651 516.177 43.5001 516.581 43.5001H523.346C523.749 43.5001 524.006 43.6834 524.116 44.0501L527.526 57.1951C527.562 57.3051 527.617 57.3601 527.691 57.3601C527.764 57.3601 527.819 57.3051 527.856 57.1951L531.266 44.0501C531.376 43.6834 531.632 43.5001 532.036 43.5001H538.801C539.021 43.5001 539.186 43.5734 539.296 43.7201C539.406 43.8301 539.424 44.0134 539.351 44.2701L531.596 66.6551L531.541 66.9851V81.2851C531.541 81.4684 531.467 81.6334 531.321 81.7801C531.211 81.8901 531.064 81.9451 530.881 81.9451H524.446Z" fill="#120136"/>
</svg>
