<svg width="70" height="70" viewBox="0 0 70 70" fill="none" xmlns="http://www.w3.org/2000/svg">
<path fill-rule="evenodd" clip-rule="evenodd" d="M23.75 17.5C24.0815 17.5 24.3995 17.6317 24.6339 17.8661C24.8683 18.1005 25 18.4185 25 18.75V51.25C25 51.5815 24.8683 51.8995 24.6339 52.1339C24.3995 52.3683 24.0815 52.5 23.75 52.5C23.4185 52.5 23.1005 52.3683 22.8661 52.1339C22.6317 51.8995 22.5 51.5815 22.5 51.25V18.75C22.5 18.4185 22.6317 18.1005 22.8661 17.8661C23.1005 17.6317 23.4185 17.5 23.75 17.5Z" fill="#564E66"/>
<path fill-rule="evenodd" clip-rule="evenodd" d="M24.405 21.395C26.8375 19.7725 28.37 18.75 31.25 18.75C32.8825 18.75 34.0975 19.5625 34.9875 20.155L35.0675 20.21C36.045 20.86 36.6825 21.25 37.5 21.25C37.92 21.25 38.39 21.145 38.9675 20.935C39.469 20.7446 39.9635 20.5362 40.45 20.31C40.595 20.2425 40.7425 20.1775 40.9 20.11C42.325 19.4725 44.095 18.75 46.25 18.75C46.5815 18.75 46.8995 18.8817 47.1339 19.1161C47.3683 19.3505 47.5 19.6685 47.5 20V35C47.5 35.3315 47.3683 35.6495 47.1339 35.8839C46.8995 36.1183 46.5815 36.25 46.25 36.25C44.655 36.25 43.3 36.775 41.915 37.3925L41.5175 37.5675C40.9675 37.8175 40.385 38.08 39.8225 38.285C39.0815 38.5747 38.2954 38.7321 37.5 38.75C35.8675 38.75 34.6525 37.9375 33.7625 37.345L33.6825 37.29C32.705 36.64 32.0675 36.25 31.25 36.25C29.1675 36.25 28.205 36.865 25.6925 38.54C25.5043 38.6653 25.2856 38.7371 25.0597 38.7479C24.8339 38.7587 24.6093 38.7081 24.41 38.6014C24.2107 38.4946 24.044 38.3358 23.9278 38.1419C23.8116 37.9479 23.7501 37.7261 23.75 37.5V22.5C23.7501 22.2941 23.8011 22.0915 23.8983 21.9101C23.9956 21.7286 24.1361 21.574 24.3075 21.46L24.4075 21.395H24.405Z" fill="#F09020"/>
</svg>
