<svg width="28" height="28" viewBox="0 0 28 28" fill="none" xmlns="http://www.w3.org/2000/svg">
<path d="M3.1123 22.175V8.67501H24.4873V22.175C24.4873 23.4125 23.4748 24.425 22.2373 24.425H5.3623C4.1248 24.425 3.1123 23.4125 3.1123 22.175Z" fill="#CFD8DC"/>
<path d="M24.4873 6.425V9.8H3.1123V6.425C3.1123 5.1875 4.1248 4.175 5.3623 4.175H22.2373C23.4748 4.175 24.4873 5.1875 24.4873 6.425Z" fill="#F44336"/>
<path d="M18.8623 8.1125C19.7943 8.1125 20.5498 7.35698 20.5498 6.425C20.5498 5.49302 19.7943 4.7375 18.8623 4.7375C17.9303 4.7375 17.1748 5.49302 17.1748 6.425C17.1748 7.35698 17.9303 8.1125 18.8623 8.1125Z" fill="#B71C1C"/>
<path d="M8.7373 8.1125C9.66929 8.1125 10.4248 7.35698 10.4248 6.425C10.4248 5.49302 9.66929 4.7375 8.7373 4.7375C7.80532 4.7375 7.0498 5.49302 7.0498 6.425C7.0498 7.35698 7.80532 8.1125 8.7373 8.1125Z" fill="#B71C1C"/>
<path d="M18.8623 2.4875C18.2436 2.4875 17.7373 2.99375 17.7373 3.6125V6.425C17.7373 7.04375 18.2436 7.55 18.8623 7.55C19.4811 7.55 19.9873 7.04375 19.9873 6.425V3.6125C19.9873 2.99375 19.4811 2.4875 18.8623 2.4875Z" fill="#B0BEC5"/>
<path d="M8.7373 2.4875C8.11855 2.4875 7.6123 2.99375 7.6123 3.6125V6.425C7.6123 7.04375 8.11855 7.55 8.7373 7.55C9.35605 7.55 9.8623 7.04375 9.8623 6.425V3.6125C9.8623 2.99375 9.35605 2.4875 8.7373 2.4875Z" fill="#B0BEC5"/>
<path d="M7.6123 12.05H9.8623V14.3H7.6123V12.05Z" fill="#90A4AE"/>
<path d="M10.9873 12.05H13.2373V14.3H10.9873V12.05Z" fill="#90A4AE"/>
<path d="M14.3623 12.05H16.6123V14.3H14.3623V12.05Z" fill="#90A4AE"/>
<path d="M17.7373 12.05H19.9873V14.3H17.7373V12.05Z" fill="#90A4AE"/>
<path d="M7.6123 15.425H9.8623V17.675H7.6123V15.425Z" fill="#90A4AE"/>
<path d="M10.9873 15.425H13.2373V17.675H10.9873V15.425Z" fill="#90A4AE"/>
<path d="M14.3623 15.425H16.6123V17.675H14.3623V15.425Z" fill="#90A4AE"/>
<path d="M17.7373 15.425H19.9873V17.675H17.7373V15.425Z" fill="#90A4AE"/>
<path d="M7.6123 18.8H9.8623V21.05H7.6123V18.8Z" fill="#90A4AE"/>
<path d="M10.9873 18.8H13.2373V21.05H10.9873V18.8Z" fill="#90A4AE"/>
<path d="M14.3623 18.8H16.6123V21.05H14.3623V18.8Z" fill="#90A4AE"/>
<path d="M17.7373 18.8H19.9873V21.05H17.7373V18.8Z" fill="#90A4AE"/>
</svg>
