<svg width="26" height="26" viewBox="0 0 26 26" fill="none" xmlns="http://www.w3.org/2000/svg">
<circle cx="13" cy="13" r="13" fill="#0C345A"/>
<path fill-rule="evenodd" clip-rule="evenodd" d="M17.6515 7.40144C17.9087 7.14521 18.2559 7.00101 18.618 7.00001C18.9801 6.999 19.3281 7.14128 19.5866 7.39608C19.8452 7.65088 19.9936 7.99773 19.9998 8.36164C20.006 8.72555 19.8694 9.07728 19.6196 9.34078L12.2838 18.5573C12.1577 18.6938 12.0056 18.8033 11.8364 18.8793C11.6672 18.9553 11.4846 18.9963 11.2993 18.9998C11.114 19.0032 10.93 18.9691 10.7581 18.8994C10.5863 18.8297 10.4302 18.7259 10.2992 18.5942L5.43866 13.7071C5.30325 13.5803 5.19464 13.4273 5.11931 13.2574C5.04398 13.0875 5.00348 12.904 5.00021 12.718C4.99695 12.5321 5.03099 12.3473 5.10031 12.1748C5.16963 12.0023 5.2728 11.8456 5.40367 11.7141C5.53454 11.5826 5.69044 11.4789 5.86205 11.4092C6.03366 11.3395 6.21748 11.3053 6.40253 11.3086C6.58759 11.3119 6.77009 11.3526 6.93915 11.4283C7.10821 11.504 7.26036 11.6132 7.38654 11.7493L11.2345 15.615L17.6166 7.44208C17.628 7.42777 17.6403 7.4142 17.6534 7.40144H17.6515Z" fill="#FCBF1E"/>
</svg>
