<svg width="73" height="71" viewBox="0 0 73 71" fill="none" xmlns="http://www.w3.org/2000/svg">
<ellipse cx="36.5726" cy="35.5" rx="35.6052" ry="35.5" fill="black" fill-opacity="0.02"/>
<path d="M36.8663 40.51L41.5213 39.32C41.2413 39.04 40.9963 38.515 40.9963 37.92C40.9963 35.295 46.4213 34.91 46.4213 29.905C46.4213 26.545 43.5513 24.305 38.9313 24.305C36.0613 24.305 33.1563 25.425 31.2313 27.595L34.5913 31.445C35.5713 30.325 36.9363 29.625 38.2663 29.625C39.7713 29.625 40.3313 30.22 40.3313 30.99C40.3313 32.74 35.8163 33.335 35.8163 37.29C35.8163 38.62 36.2013 39.705 36.8663 40.51ZM39.0013 48.385C40.7863 48.385 42.2913 46.88 42.2913 45.095C42.2913 43.345 40.7863 41.84 39.0013 41.84C37.2163 41.84 35.7113 43.345 35.7113 45.095C35.7113 46.88 37.2163 48.385 39.0013 48.385Z" fill="#EEEEEE"/>
</svg>
