<svg width="71" height="70" viewBox="0 0 71 70" fill="none" xmlns="http://www.w3.org/2000/svg">
<path d="M46.75 31.1818C46.75 30.6648 46.5645 30.2173 46.1934 29.8395C45.8223 29.4616 45.3828 29.2727 44.875 29.2727C41.5156 29.2727 38.4102 29.7649 35.5586 30.7493C32.707 31.7337 30.1729 33.0661 27.9561 34.7464C25.7393 36.4268 23.4395 38.6094 21.0566 41.294C20.6855 41.7116 20.5 42.1591 20.5 42.6364C20.5 43.1534 20.6855 43.6009 21.0566 43.9787C21.4277 44.3565 21.8672 44.5455 22.375 44.5455C22.8438 44.5455 23.2832 44.3565 23.6934 43.9787C24.2207 43.5014 24.9434 42.7955 25.8613 41.8608C26.7793 40.9261 27.4336 40.2699 27.8242 39.892C30.5 37.4261 33.1221 35.6761 35.6904 34.642C38.2588 33.608 41.3203 33.0909 44.875 33.0909C45.3828 33.0909 45.8223 32.902 46.1934 32.5241C46.5645 32.1463 46.75 31.6989 46.75 31.1818ZM61.75 25.2756C61.75 27.1648 61.5547 29.0838 61.1641 31.0327C60.2656 35.4872 58.4639 39.2955 55.7588 42.4574C53.0537 45.6193 49.5625 48.2841 45.2852 50.4517C41.1055 52.5994 36.8281 53.6733 32.4531 53.6733C29.5625 53.6733 26.7695 53.206 24.0742 52.2713C23.7812 52.1719 22.9219 51.7543 21.4961 51.0185C20.0703 50.2827 19.1328 49.9148 18.6836 49.9148C18.3711 49.9148 17.9854 50.233 17.5264 50.8693C17.0674 51.5057 16.6279 52.2017 16.208 52.9574C15.7881 53.7131 15.2754 54.4091 14.6699 55.0455C14.0645 55.6818 13.4785 56 12.9121 56C12.0723 56 11.4521 55.826 11.0518 55.478C10.6514 55.13 10.207 54.5384 9.71875 53.7031C9.67969 53.6236 9.62109 53.5142 9.54297 53.375C9.46484 53.2358 9.41113 53.1364 9.38184 53.0767C9.35254 53.017 9.32324 52.9226 9.29395 52.7933C9.26465 52.6641 9.25 52.5298 9.25 52.3906C9.25 51.6946 9.55273 50.9638 10.1582 50.1982C10.7637 49.4325 11.4277 48.7812 12.1504 48.2443C12.873 47.7074 13.5371 47.1506 14.1426 46.5739C14.748 45.9972 15.0508 45.5199 15.0508 45.142C15.0508 45.0625 14.9141 44.6847 14.6406 44.0085C14.3672 43.3324 14.2109 42.8949 14.1719 42.696C13.9961 41.6818 13.9082 40.6477 13.9082 39.5938C13.9082 37.3068 14.333 35.1193 15.1826 33.0312C16.0322 30.9432 17.1943 29.1087 18.6689 27.5277C20.1436 25.9467 21.8086 24.5646 23.6641 23.3814C25.5195 22.1982 27.5117 21.2486 29.6406 20.5327C30.7148 20.1747 32.1309 19.9212 33.8887 19.772C35.6465 19.6229 37.3994 19.5334 39.1475 19.5036C40.8955 19.4737 42.6387 19.4141 44.377 19.3246C46.1152 19.2351 47.7119 18.9964 49.167 18.6087C50.6221 18.2209 51.7305 17.6591 52.4922 16.9233L53.3564 16.0433L54.2207 15.2081L55.0117 14.6115L56.0811 14.1342L57.3555 14C58.1172 14 58.8057 14.4574 59.4209 15.3722C60.0361 16.2869 60.5 17.4006 60.8125 18.7131C61.125 20.0256 61.3594 21.2585 61.5156 22.4119C61.6719 23.5653 61.75 24.5199 61.75 25.2756Z" fill="#06A603"/>
</svg>
