<svg width="700" height="148" viewBox="0 0 700 148" fill="none" xmlns="http://www.w3.org/2000/svg">
<g filter="url(#filter0_d)">
<path d="M10 6H690V130C690 132.209 688.209 134 686 134H14C11.7909 134 10 132.209 10 130V6Z" fill="white"/>
<path d="M10.5 6.5H689.5V130C689.5 131.933 687.933 133.5 686 133.5H14C12.067 133.5 10.5 131.933 10.5 130V6.5Z" stroke="#F0F0F0"/>
</g>
<path d="M212.387 43.24C215.967 43.24 217.727 41.4 217.727 38.96C217.727 33.98 210.067 35.4 210.067 33.3C210.067 32.5 210.747 31.98 211.947 31.98C213.307 31.98 214.747 32.44 215.827 33.44L217.407 31.32C216.087 30.1 214.327 29.46 212.207 29.46C209.067 29.46 207.147 31.3 207.147 33.52C207.147 38.54 214.827 36.92 214.827 39.24C214.827 40.02 214.087 40.72 212.507 40.72C210.667 40.72 209.207 39.88 208.267 38.9L206.707 41.12C207.967 42.38 209.807 43.24 212.387 43.24ZM224.039 43.24C227.239 43.24 229.159 40.9 229.159 38.16C229.159 35.42 227.239 33.1 224.039 33.1C220.859 33.1 218.939 35.42 218.939 38.16C218.939 40.9 220.859 43.24 224.039 43.24ZM224.039 40.98C222.459 40.98 221.579 39.68 221.579 38.16C221.579 36.66 222.459 35.36 224.039 35.36C225.639 35.36 226.519 36.66 226.519 38.16C226.519 39.68 225.639 40.98 224.039 40.98ZM245.603 43V36.02C245.603 34.04 244.543 33.1 242.763 33.1C241.283 33.1 240.003 33.98 239.443 34.84C239.103 33.76 238.183 33.1 236.763 33.1C235.283 33.1 234.023 34.02 233.603 34.58V33.34H231.063V43H233.603V36.48C233.983 35.96 234.723 35.36 235.603 35.36C236.643 35.36 237.043 36 237.043 36.9V43H239.603V36.48C239.963 35.96 240.703 35.36 241.603 35.36C242.643 35.36 243.043 36 243.043 36.9V43H245.603ZM252.654 43.24C254.154 43.24 255.674 42.78 256.634 41.9L255.494 40.22C254.874 40.82 253.754 41.16 252.934 41.16C251.294 41.16 250.334 40.18 250.154 39H257.334V38.4C257.334 35.26 255.394 33.1 252.494 33.1C249.574 33.1 247.494 35.36 247.494 38.16C247.494 41.26 249.714 43.24 252.654 43.24ZM254.894 37.24H250.134C250.234 36.28 250.914 35.18 252.494 35.18C254.174 35.18 254.814 36.32 254.894 37.24ZM268.785 43.24C271.985 43.24 273.905 40.9 273.905 38.16C273.905 35.42 271.985 33.1 268.785 33.1C265.605 33.1 263.685 35.42 263.685 38.16C263.685 40.9 265.605 43.24 268.785 43.24ZM268.785 40.98C267.205 40.98 266.325 39.68 266.325 38.16C266.325 36.66 267.205 35.36 268.785 35.36C270.385 35.36 271.265 36.66 271.265 38.16C271.265 39.68 270.385 40.98 268.785 40.98ZM278.929 43V35.56H280.889V33.34H278.929V32.94C278.929 32 279.409 31.54 280.129 31.54C280.589 31.54 280.929 31.68 281.189 31.92L282.149 30.38C281.569 29.72 280.569 29.46 279.629 29.46C277.689 29.46 276.389 30.76 276.389 32.94V33.34H274.789V35.56H276.389V43H278.929ZM290.729 43.24C291.789 43.24 292.469 42.96 292.849 42.62L292.309 40.68C292.169 40.84 291.809 40.98 291.429 40.98C290.869 40.98 290.549 40.52 290.549 39.9V35.56H292.509V33.34H290.549V30.7H288.009V33.34H286.409V35.56H288.009V40.58C288.009 42.32 288.949 43.24 290.729 43.24ZM303.326 43V36.14C303.326 34.26 302.306 33.1 300.186 33.1C298.606 33.1 297.426 33.86 296.806 34.58V29.66H294.246V43H296.806V36.48C297.226 35.92 298.006 35.36 299.006 35.36C300.086 35.36 300.786 35.78 300.786 37.12V43H303.326ZM310.388 43.24C311.888 43.24 313.408 42.78 314.368 41.9L313.228 40.22C312.608 40.82 311.488 41.16 310.668 41.16C309.028 41.16 308.068 40.18 307.888 39H315.068V38.4C315.068 35.26 313.128 33.1 310.228 33.1C307.308 33.1 305.228 35.36 305.228 38.16C305.228 41.26 307.448 43.24 310.388 43.24ZM312.628 37.24H307.868C307.968 36.28 308.648 35.18 310.228 35.18C311.908 35.18 312.548 36.32 312.628 37.24ZM325.159 43V35.56H327.119V33.34H325.159V32.94C325.159 32 325.639 31.54 326.359 31.54C326.819 31.54 327.159 31.68 327.419 31.92L328.379 30.38C327.799 29.72 326.799 29.46 325.859 29.46C323.919 29.46 322.619 30.76 322.619 32.94V33.34H321.019V35.56H322.619V43H325.159ZM337.642 43V33.34H335.102V39.88C334.662 40.44 333.882 40.98 332.902 40.98C331.822 40.98 331.122 40.54 331.122 39.2V33.34H328.582V40.2C328.582 42.08 329.582 43.24 331.702 43.24C333.282 43.24 334.442 42.5 335.102 41.78V43H337.642ZM349.244 43V36.18C349.244 34.3 348.224 33.1 346.084 33.1C344.524 33.1 343.324 33.86 342.704 34.58V33.34H340.164V43H342.704V36.48C343.144 35.92 343.904 35.36 344.904 35.36C345.984 35.36 346.684 35.82 346.684 37.16V43H349.244ZM360.946 43V29.66H358.386V34.58C357.626 33.58 356.546 33.1 355.406 33.1C352.946 33.1 351.126 35.02 351.126 38.16C351.126 41.4 352.986 43.24 355.406 43.24C356.586 43.24 357.626 42.72 358.386 41.76V43H360.946ZM356.206 40.98C354.746 40.98 353.746 39.84 353.746 38.16C353.746 36.5 354.746 35.36 356.206 35.36C357.046 35.36 357.966 35.82 358.386 36.46V39.88C357.966 40.52 357.046 40.98 356.206 40.98ZM366.945 43.24C369.625 43.24 371.145 41.94 371.145 40.16C371.145 36.26 365.405 37.46 365.405 36.04C365.405 35.5 366.005 35.1 366.925 35.1C368.105 35.1 369.205 35.62 369.785 36.22L370.805 34.42C369.845 33.66 368.545 33.1 366.925 33.1C364.365 33.1 362.965 34.52 362.965 36.14C362.965 39.94 368.685 38.64 368.685 40.22C368.685 40.82 368.165 41.24 367.065 41.24C365.865 41.24 364.445 40.58 363.725 39.9L362.625 41.74C363.645 42.68 365.265 43.24 366.945 43.24ZM389.333 43L392.273 33.34H389.613L387.813 39.84L385.693 33.34H383.433L381.313 39.84L379.513 33.34H376.873L379.813 43H382.533L384.573 36.42L386.613 43H389.333ZM398.064 43.24C399.564 43.24 401.084 42.78 402.044 41.9L400.904 40.22C400.284 40.82 399.164 41.16 398.344 41.16C396.704 41.16 395.744 40.18 395.564 39H402.744V38.4C402.744 35.26 400.804 33.1 397.904 33.1C394.984 33.1 392.904 35.36 392.904 38.16C392.904 41.26 395.124 43.24 398.064 43.24ZM400.304 37.24H395.544C395.644 36.28 396.324 35.18 397.904 35.18C399.584 35.18 400.224 36.32 400.304 37.24ZM414.215 43.24C416.195 43.24 417.395 42.36 418.035 41.48L416.375 39.92C415.915 40.58 415.215 40.98 414.335 40.98C412.795 40.98 411.715 39.84 411.715 38.16C411.715 36.48 412.795 35.36 414.335 35.36C415.215 35.36 415.915 35.72 416.375 36.4L418.035 34.84C417.395 33.96 416.195 33.1 414.215 33.1C411.255 33.1 409.095 35.2 409.095 38.16C409.095 41.14 411.255 43.24 414.215 43.24ZM424.176 43.24C427.376 43.24 429.296 40.9 429.296 38.16C429.296 35.42 427.376 33.1 424.176 33.1C420.996 33.1 419.076 35.42 419.076 38.16C419.076 40.9 420.996 43.24 424.176 43.24ZM424.176 40.98C422.596 40.98 421.716 39.68 421.716 38.16C421.716 36.66 422.596 35.36 424.176 35.36C425.776 35.36 426.656 36.66 426.656 38.16C426.656 39.68 425.776 40.98 424.176 40.98ZM445.739 43V36.02C445.739 34.04 444.679 33.1 442.899 33.1C441.419 33.1 440.139 33.98 439.579 34.84C439.239 33.76 438.319 33.1 436.899 33.1C435.419 33.1 434.159 34.02 433.739 34.58V33.34H431.199V43H433.739V36.48C434.119 35.96 434.859 35.36 435.739 35.36C436.779 35.36 437.179 36 437.179 36.9V43H439.739V36.48C440.099 35.96 440.839 35.36 441.739 35.36C442.779 35.36 443.179 36 443.179 36.9V43H445.739ZM453.77 43.24C456.25 43.24 458.05 41.38 458.05 38.16C458.05 34.94 456.25 33.1 453.77 33.1C452.59 33.1 451.53 33.62 450.79 34.56V33.34H448.25V46.68H450.79V41.76C451.59 42.76 452.63 43.24 453.77 43.24ZM452.97 40.98C452.15 40.98 451.21 40.48 450.79 39.86V36.46C451.23 35.82 452.15 35.36 452.97 35.36C454.43 35.36 455.43 36.5 455.43 38.16C455.43 39.84 454.43 40.98 452.97 40.98ZM468.27 43V36.76C468.27 33.98 466.25 33.1 464.03 33.1C462.51 33.1 460.99 33.56 459.81 34.62L460.81 36.4C461.61 35.66 462.57 35.26 463.59 35.26C464.87 35.26 465.71 35.9 465.71 36.88V38.1C465.07 37.34 463.95 36.92 462.65 36.92C461.11 36.92 459.31 37.76 459.31 40.04C459.31 42.2 461.11 43.24 462.65 43.24C463.91 43.24 465.05 42.78 465.71 41.98V43H468.27ZM463.67 41.52C462.67 41.52 461.85 41 461.85 40.08C461.85 39.16 462.67 38.62 463.67 38.62C464.49 38.62 465.29 38.92 465.71 39.48V40.68C465.29 41.24 464.49 41.52 463.67 41.52ZM473.31 43V36.62C473.73 36 474.85 35.52 475.69 35.52C475.99 35.52 476.21 35.54 476.39 35.58V33.1C475.19 33.1 474.01 33.8 473.31 34.64V33.34H470.77V43H473.31ZM482.517 43.24C484.017 43.24 485.537 42.78 486.497 41.9L485.357 40.22C484.737 40.82 483.617 41.16 482.797 41.16C481.157 41.16 480.197 40.18 480.017 39H487.197V38.4C487.197 35.26 485.257 33.1 482.357 33.1C479.437 33.1 477.357 35.36 477.357 38.16C477.357 41.26 479.577 43.24 482.517 43.24ZM484.757 37.24H479.997C480.097 36.28 480.777 35.18 482.357 35.18C484.037 35.18 484.677 36.32 484.757 37.24ZM490.331 36.44C491.211 36.44 491.951 35.7 491.951 34.82C491.951 33.94 491.211 33.2 490.331 33.2C489.451 33.2 488.711 33.94 488.711 34.82C488.711 35.7 489.451 36.44 490.331 36.44ZM490.331 43.22C491.211 43.22 491.951 42.48 491.951 41.6C491.951 40.72 491.211 39.98 490.331 39.98C489.451 39.98 488.711 40.72 488.711 41.6C488.711 42.48 489.451 43.22 490.331 43.22Z" fill="black"/>
<path d="M315.583 87.8244V92.8094H318.375V86.7116C318.375 85.1538 317.489 84.0411 315.539 84.0411C314.386 83.9966 313.323 84.4862 312.569 85.3319V81.0145H309.866V92.8094H312.569V87.2903C312.88 86.8897 313.456 86.4891 314.209 86.4891C315.096 86.4891 315.627 86.8007 315.583 87.8244ZM304.548 84.0411C303.218 84.0411 301.756 84.4862 300.648 85.3764L301.667 87.2903C302.376 86.7116 303.218 86.4001 304.06 86.4001C305.168 86.4001 305.789 86.8452 305.789 87.6018V88.492C305.257 87.8244 304.282 87.4683 303.13 87.4683C301.8 87.4683 300.205 88.1359 300.205 90.2279C300.205 92.1417 301.844 93.0319 303.13 93.0319C303.622 93.0494 304.113 92.9634 304.571 92.7795C305.029 92.5955 305.444 92.3177 305.789 91.9637V92.8539H308.492V87.4683C308.492 84.7978 306.586 83.9966 304.503 83.9966L304.548 84.0411ZM305.789 90.6284C305.523 91.029 304.902 91.2516 304.282 91.2516C303.573 91.2516 302.908 90.94 302.908 90.2724C302.908 89.5602 303.573 89.2487 304.238 89.2487C304.858 89.2487 305.523 89.4712 305.789 89.8718V90.6284ZM330.607 84.0411C329.277 84.0411 328.169 84.8423 327.638 85.5989C327.283 84.5752 326.485 84.0411 325.244 84.0411C323.915 84.0411 322.807 84.8423 322.452 85.3319V84.2637H319.705V92.8094H322.452V87.2903C322.718 86.9342 323.206 86.4891 323.959 86.4891C324.801 86.4891 325.067 86.9342 325.067 87.6018V92.8094H327.815V87.2903C328.081 86.9342 328.613 86.4891 329.322 86.4891C330.164 86.4891 330.474 86.9342 330.474 87.6018V92.8094H333.133V86.6226C333.133 84.8423 332.158 84.0411 330.607 84.0411ZM345.188 101.133C344.789 101.756 343.947 101.889 343.326 101.489L343.282 101.444C342.662 100.999 342.529 100.153 342.928 99.5302C343.326 98.9071 344.213 98.7736 344.833 99.1741C344.983 99.2691 345.113 99.3932 345.215 99.5392C345.316 99.6852 345.388 99.8502 345.425 100.024C345.462 100.199 345.464 100.379 345.431 100.554C345.398 100.729 345.33 100.895 345.232 101.044L345.188 101.133ZM345.365 98.5065C344.933 98.197 344.404 98.0538 343.875 98.1028C343.347 98.1518 342.853 98.3898 342.484 98.7736C342.351 98.9071 342.13 98.9516 342.041 98.7736C341.687 97.7054 341.155 96.5481 339.825 95.0793L344.346 88.8481C344.878 88.0914 345.055 86.5336 344.257 85.9995L338.584 93.8331V96.3256C340.135 97.1267 341.243 98.373 341.953 100.865C342.034 101.146 342.17 101.408 342.352 101.636C342.534 101.864 342.759 102.053 343.014 102.194C343.269 102.334 343.55 102.423 343.839 102.455C344.128 102.486 344.421 102.461 344.7 102.379C345.143 102.245 345.587 101.978 345.853 101.578C346.187 101.103 346.323 100.516 346.232 99.9424C346.14 99.3685 345.829 98.8531 345.365 98.5065ZM337.964 99.9308V101.978H335.925V103.313H339.293V99.9753L337.964 99.9308ZM328.568 103.313H334.108V101.978H328.568V103.313ZM321.256 103.313H326.751V101.978H321.256V103.313ZM313.899 103.313H319.394V101.978H313.943L313.899 103.313ZM306.542 103.313H312.038V101.978H306.542V103.313ZM299.185 103.313H304.681V101.978H299.185V103.313ZM294 99.9308V103.313H297.368V101.978H295.33V99.9753L294 99.9308ZM294 82.2608H295.33V76.3411H294V82.2608ZM294 90.1388H295.33V84.2192H294V90.1388ZM294 98.0169H295.33V92.0972H294V98.0169ZM294 71V74.3827H295.33V72.3353H297.368V71H294ZM328.568 72.3353H334.108V71H328.568V72.3353ZM321.256 72.3353H326.751V71H321.256V72.3353ZM313.899 72.3353H319.394V71H313.943L313.899 72.3353ZM306.542 72.3353H312.038V71H306.542V72.3353ZM299.185 72.3353H304.681V71H299.185V72.3353ZM335.925 71V72.3353H337.964V74.3827H339.293V71H335.925Z" fill="black"/>
<path d="M339.293 98.0169H337.964V92.0972H339.293V98.0169ZM339.293 90.1388H337.964V84.2191H339.293V90.1388ZM339.293 82.2608H337.964V76.3411H339.293V82.2608Z" fill="black"/>
<path d="M102.381 91.1458C100.115 93.8003 101.935 93.9171 101.029 94.9758C100.294 95.8166 97.8173 95.8944 97.8173 95.8944C97.2469 95.8944 97.7704 95.5908 97.7704 95.5908C98.8644 94.8123 99.2629 93.9327 98.6222 94.2908C96.5749 95.3417 96.1529 95.3339 96.1529 95.3339C95.5747 95.4818 96.0435 95.1782 96.0435 95.1782C98.006 93.9334 99.8247 92.4766 101.467 90.8344C100.83 90.9043 100.19 90.738 99.6693 90.3673C99.5599 90.2817 99.5755 90.1727 99.6693 90.1805C100.062 90.1327 100.423 89.9379 100.677 89.6356C100.771 89.5188 100.599 89.5421 100.599 89.5421C99.3411 90.0404 98.3487 89.184 97.7314 88.5846C97.5829 88.4445 97.7314 88.4211 97.7939 88.4289C100.318 88.5613 101.396 87.6505 101.537 87.5259C101.678 87.4014 101.607 87.3702 101.467 87.4403C101.081 87.5553 100.69 87.6489 100.294 87.7205C98.9348 88.0086 97.0437 87.5181 96.5827 86.7007C96.4811 86.5217 96.5827 86.4594 96.6921 86.4672C97.692 86.6291 98.7151 86.576 99.6927 86.3115C99.8646 86.2648 99.849 86.1247 99.6927 86.148C96.9187 86.3349 95.6606 85.751 95.0902 84.015C95.0355 83.8593 94.9964 83.6492 95.1605 83.7581C95.7401 84.1039 96.425 84.231 97.0906 84.1162C97.2156 84.1162 97.2156 84.0462 97.0906 84.015C94.3166 83.3066 94.1838 80.1227 94.1759 79.7179C94.1681 79.3131 94.2932 79.5544 94.2932 79.5544C95.0199 80.7844 96.6374 81.7186 97.8564 82.3102C98.083 82.4192 98.1846 82.2557 97.9424 82.1467C97.5944 81.9763 97.2577 81.7839 96.9343 81.5707C96.3527 81.2245 95.856 80.7535 95.4802 80.192C95.1044 79.6304 94.859 78.9924 94.762 78.3245C94.6951 77.5383 94.7746 76.7465 94.9964 75.9891C95.1371 75.5376 95.2699 75.5998 95.3715 75.9268C96.4811 78.8305 99.6537 81.3216 102.084 82.2791C104.514 83.2366 106.092 84.2252 106.257 85.86C106.421 87.4948 104.623 88.4289 102.35 91.0835L102.381 91.1458ZM110.453 81.1503C110.562 81.1865 110.68 81.1865 110.789 81.1503C110.866 81.1068 110.928 81.0419 110.969 80.9635C110.993 80.9043 111.006 80.8408 111.006 80.7766C111.006 80.7125 110.993 80.649 110.969 80.5898C110.944 80.5345 110.909 80.4846 110.865 80.4434C110.82 80.4022 110.768 80.3704 110.711 80.35C110.654 80.3296 110.593 80.321 110.533 80.3247C110.472 80.3285 110.413 80.3445 110.359 80.3718C110.302 80.39 110.249 80.4197 110.204 80.4591C110.159 80.4985 110.122 80.5467 110.097 80.6007C110.071 80.6547 110.057 80.7134 110.055 80.7731C110.053 80.8329 110.063 80.8923 110.086 80.9479C110.116 81.0135 110.163 81.0702 110.222 81.1125C110.281 81.1547 110.349 81.1812 110.422 81.1892L110.453 81.1503ZM119.611 85.6965C118.796 86.2236 117.874 86.5664 116.912 86.7009C115.949 86.8353 114.969 86.7582 114.039 86.475C111.695 85.7432 111.476 86.475 111.422 86.654C111.367 86.8331 111.297 86.763 111.297 86.654C111.297 86.545 111.234 85.5798 111.234 85.2139C111.234 84.848 111.508 84.4354 111.703 83.945C111.897 83.2036 112.172 82.4856 112.524 81.8042C113.167 81.2981 113.78 80.7548 114.36 80.1772C114.652 79.8153 114.891 79.4144 115.071 78.9862C113.907 78.6903 112.359 79.5934 112.07 79.7646C111.086 79.338 109.991 79.237 108.945 79.4766C108.437 79.6219 107.977 79.8987 107.612 80.2789C107.247 80.6591 106.989 81.129 106.866 81.6407C106.624 82.7617 106.303 83.1977 105.905 83.4156C105.506 83.6336 105.389 83.4156 105.514 83.5791C105.585 83.6941 105.681 83.7922 105.794 83.8666C105.907 83.9411 106.034 83.99 106.168 84.01C106.302 84.0301 106.439 84.0207 106.569 83.9826C106.699 83.9444 106.819 83.8785 106.921 83.7893C108.163 82.6605 107.898 81.8042 108.616 80.8934C108.838 80.572 109.139 80.3138 109.492 80.1445C109.844 79.9752 110.235 79.9006 110.625 79.9281C111.406 79.8503 111.68 80.0527 111.633 80.2006C111.558 80.4278 111.45 80.6428 111.312 80.8389C111.224 80.9529 111.119 81.0527 111 81.1347C110.823 81.24 110.634 81.3236 110.437 81.3838C110.122 81.456 109.811 81.547 109.507 81.6563C108.234 82.2401 108.218 82.715 108.194 83.0108C108.647 83.0428 109.098 82.9398 109.492 82.715C110.007 82.3725 109.976 82.1234 110.273 81.8509C110.67 81.5529 111.094 81.2923 111.539 81.0724C112.188 80.6832 113.242 80.294 114.368 79.6634C114.016 80.2628 112.023 81.5317 111.687 81.7108C111.351 81.8898 111.625 82.0377 111.953 81.9677C111.862 82.079 111.766 82.1855 111.664 82.2869C111.408 83.0867 111.095 83.8672 110.726 84.6222C110.726 84.7001 110.633 84.7001 110.679 85.5175C110.679 85.8678 110.679 86.3582 110.679 86.3582C110.734 88.3744 109.679 89.4721 107.999 90.6008C106.319 91.7296 105.006 91.7763 102.826 94.4932C102.826 94.4932 102.217 95.2716 103.709 93.9716C104.344 93.433 105.033 92.9608 105.764 92.5626C107.476 91.7296 107.327 92.4769 107.429 92.6716C107.53 92.8662 107.921 91.5194 108.21 91.8931C108.32 92.076 108.47 92.2319 108.648 92.3491C108.827 92.4664 109.03 92.542 109.242 92.5704C109.367 92.5704 109.413 92.5704 109.382 92.5003C109.313 92.2851 109.313 92.0538 109.382 91.8386C109.453 91.6362 109.531 91.535 109.632 91.7685C109.741 92.0409 109.928 92.2751 110.17 92.4414C110.412 92.6077 110.698 92.6986 110.992 92.7027C111.117 92.7027 111.14 92.7027 111.062 92.5781C110.871 92.3728 110.713 92.1391 110.593 91.8853C110.5 91.6362 110.593 91.5739 110.718 91.7685C111.298 92.2578 112.047 92.5034 112.805 92.4536C112.945 92.4536 112.985 92.368 112.875 92.3057C112.428 92.057 112.013 91.7536 111.641 91.4027C111.523 91.2859 111.57 91.1536 111.641 91.247C112.067 91.5685 112.573 91.7681 113.104 91.8243C113.636 91.8805 114.172 91.7913 114.657 91.5661C114.883 91.4727 114.837 91.3871 114.618 91.356C113.935 91.281 113.279 91.0549 112.695 90.6943C112.531 90.5775 112.625 90.5074 112.774 90.5619C114.86 91.3949 115.813 90.7254 116.821 89.5888C117.032 89.3553 116.954 89.2852 116.704 89.3864C116.187 89.4735 115.659 89.4735 115.141 89.3864C114.93 89.3864 114.954 89.2619 115.141 89.2463C117.532 89.0751 119.541 86.1947 119.752 85.7822C119.838 85.6109 119.673 85.6109 119.556 85.7121" fill="#FC5400"/>
<path d="M82.0094 94.392V95.8166C81.7556 95.8897 81.4921 95.9239 81.228 95.9178C80.2356 95.9178 79.712 95.3962 79.712 94.2674V89.9936H81.5405V93.886C81.5405 94.2129 81.6499 94.3764 82.025 94.3764L82.0094 94.392ZM80.6185 89.2463C80.8063 89.2372 80.9873 89.1734 81.1391 89.0627C81.2908 88.9521 81.4067 88.7996 81.4723 88.624C81.5379 88.4485 81.5504 88.2576 81.5082 88.075C81.466 87.8925 81.3709 87.7262 81.2348 87.597C81.0987 87.4677 80.9276 87.381 80.7425 87.3477C80.5575 87.3144 80.3667 87.3359 80.1937 87.4095C80.0208 87.4832 79.8734 87.6057 79.7697 87.762C79.666 87.9183 79.6107 88.1015 79.6104 88.2888C79.6124 88.4179 79.6402 88.5454 79.6922 88.6637C79.7441 88.782 79.8192 88.8889 79.913 88.978C80.0069 89.0671 80.1176 89.1367 80.2387 89.1828C80.3598 89.2289 80.4889 89.2505 80.6185 89.2463ZM91.2847 93.1386C91.2953 93.2782 91.2777 93.4184 91.2327 93.551C91.1878 93.6836 91.1166 93.8058 91.0232 93.9104C90.9299 94.015 90.8164 94.0998 90.6895 94.1598C90.5626 94.2198 90.4249 94.2538 90.2845 94.2596C89.8704 94.2596 89.5891 93.9716 89.5891 93.341V91.6362C89.5891 90.5074 89.0733 89.9936 88.081 89.9936H84.9162V88.1643H83.1034V89.9936H82.2438V91.4338H83.1034V93.1853C83.1034 94.9135 83.791 95.8944 85.5961 95.8944C86.1694 95.8871 86.7221 95.6806 87.1589 95.3106L86.6275 93.9872C86.3826 94.1711 86.0824 94.2671 85.7758 94.2596C85.1819 94.2596 84.9084 93.9015 84.9084 93.0997V91.4338H87.2527C87.6121 91.4338 87.7215 91.5973 87.7215 91.9242V93.8003C87.7215 94.9992 88.1825 95.8944 89.5813 95.8944C89.916 95.9302 90.2543 95.877 90.5618 95.7402C90.8692 95.6035 91.1348 95.3881 91.3316 95.1159V95.9722C91.334 96.1487 91.2985 96.3236 91.2275 96.4852C91.1565 96.6468 91.0516 96.7915 90.9199 96.9094C90.7882 97.0274 90.6326 97.1159 90.4638 97.1691C90.2949 97.2223 90.1166 97.2389 89.9407 97.2178C89.673 97.2246 89.4073 97.1706 89.1636 97.0601C88.9199 96.9495 88.7047 96.7851 88.5342 96.5794L87.6277 97.5292C87.9123 97.9536 88.3041 98.2958 88.7636 98.5213C89.2232 98.7468 89.7343 98.8476 90.2455 98.8136C90.6277 98.8378 91.0106 98.7804 91.3687 98.6452C91.7268 98.5099 92.0518 98.3 92.3219 98.0295C92.5919 97.759 92.8008 97.4341 92.9346 97.0766C93.0684 96.7191 93.124 96.3373 93.0976 95.9567V89.9936H91.2691L91.2847 93.1386ZM70.0225 92.4147C70.0225 93.3333 69.7178 94.0961 68.655 94.0961C67.5923 94.0961 67.2485 93.3177 67.2485 92.4147V87.3547H65.2715V92.3135C65.2715 95.0147 66.8343 95.8944 68.655 95.8944C70.4757 95.8944 71.9917 95.0147 71.9917 92.3135V87.3547H70.0069L70.0225 92.4147ZM78.5712 93.8548V92.2434C78.5712 90.9667 77.9851 89.908 76.4926 89.908C75.4299 89.908 74.9845 90.3829 74.8204 90.8344V90.7176C74.7407 90.4582 74.5694 90.2363 74.338 90.0931C74.1067 89.95 73.8311 89.8953 73.5623 89.9392C73.2988 89.9347 73.0359 89.9661 72.7809 90.0326V91.426C73.156 91.426 73.2654 91.6051 73.2654 91.9087V95.801H75.0939V92.4847C75.0907 92.3662 75.1115 92.2483 75.1548 92.1379C75.1982 92.0276 75.2633 91.927 75.3463 91.8421C75.4294 91.7572 75.5286 91.6897 75.6383 91.6436C75.7479 91.5976 75.8657 91.5739 75.9847 91.5739C76.0995 91.5723 76.2133 91.5958 76.3179 91.6429C76.4225 91.6901 76.5155 91.7596 76.5901 91.8465C76.6647 91.9335 76.7191 92.0358 76.7496 92.1461C76.78 92.2564 76.7856 92.372 76.7661 92.4847V94.2596C76.7661 95.3884 77.2896 95.91 78.282 95.91C78.5462 95.9161 78.8097 95.8819 79.0634 95.8088V94.392C78.6962 94.392 78.579 94.2285 78.579 93.9015L78.5712 93.8548ZM42.1573 77.8496L45.283 86.3115H43.2513L42.5793 84.3109H39.7115L39.0629 86.3115H37L40.1257 77.8496H42.1573ZM42.087 82.8551L41.1415 80.0371L40.196 82.8551H42.087ZM78.5008 79.7413C78.6887 79.7321 78.8697 79.6683 79.0214 79.5577C79.1732 79.4471 79.2891 79.2945 79.3547 79.119C79.4203 78.9434 79.4328 78.7525 79.3906 78.57C79.3483 78.3874 79.2533 78.2212 79.1172 78.0919C78.9811 77.9626 78.8099 77.876 78.6249 77.8427C78.4398 77.8093 78.249 77.8308 78.0761 77.9045C77.9032 77.9781 77.7558 78.1007 77.6521 78.257C77.5484 78.4133 77.493 78.5964 77.4928 78.7838C77.4927 78.9135 77.519 79.042 77.5702 79.1613C77.6214 79.2806 77.6964 79.3883 77.7907 79.4779C77.885 79.5674 77.9965 79.637 78.1186 79.6822C78.2407 79.7275 78.3707 79.7476 78.5008 79.7413ZM80.5638 83.4001C80.5638 81.2204 81.7515 80.403 83.0252 80.403C83.6325 80.3909 84.2208 80.6142 84.6662 81.0257V80.4886H86.229V84.3809C86.229 84.7079 86.3384 84.8714 86.7135 84.8714V86.2648C86.4586 86.3321 86.1956 86.3635 85.9321 86.3582C85.652 86.3899 85.3699 86.3199 85.1374 86.1612C84.905 86.0025 84.7377 85.7657 84.6662 85.4941V85.4318C84.5091 85.7449 84.2612 86.0036 83.9546 86.1743C83.648 86.3451 83.297 86.42 82.9471 86.3894C81.8218 86.3894 80.6028 85.4708 80.6028 83.4156L80.5638 83.4001ZM82.4235 83.4156C82.4235 84.4043 82.9783 84.7935 83.4784 84.7935C83.7141 84.7846 83.9395 84.6955 84.1173 84.5411C84.295 84.3867 84.4143 84.1763 84.4552 83.945V82.933C84.4333 82.6797 84.3134 82.4448 84.121 82.2778C83.9286 82.1107 83.6786 82.0247 83.4237 82.0377C82.822 82.0377 82.3845 82.4815 82.3845 83.3923L82.4235 83.4156ZM75.9456 86.3738C76.2093 86.3809 76.4725 86.3494 76.727 86.2804V84.9181C76.3676 84.9181 76.2582 84.7546 76.2582 84.4276V77.8496H74.4297V84.7312C74.4297 85.8522 74.9532 86.3738 75.9456 86.3738ZM67.4751 83.4156C67.4751 81.2359 68.6628 80.4185 69.9365 80.4185C70.5331 80.4145 71.1088 80.6372 71.5463 81.0413V80.4886H73.1794V84.3809C73.1794 84.7079 73.2888 84.8714 73.6639 84.8714V86.2648C73.4091 86.3321 73.146 86.3635 72.8825 86.3582C72.5954 86.3973 72.3039 86.329 72.0643 86.1665C71.8248 86.0041 71.6541 85.759 71.5853 85.4786V85.4163C71.4269 85.7395 71.1724 86.0063 70.8564 86.1804C70.5405 86.3545 70.1784 86.4274 69.8193 86.3894C68.6941 86.3894 67.4751 85.4708 67.4751 83.4156ZM69.2958 83.4156C69.2958 84.4043 69.8506 84.7935 70.3429 84.7935C71.2024 84.7935 71.3118 83.8983 71.3275 83.945V82.933C71.3045 82.6913 71.193 82.4664 71.0143 82.3013C70.8356 82.1362 70.6022 82.0424 70.3585 82.0377C69.749 82.0377 69.3192 82.4815 69.3192 83.3923L69.2958 83.4156ZM61.1769 84.7546C60.583 84.7546 60.3017 84.3965 60.3017 83.5947V81.9288H62.2318V80.4886H60.3017V78.6903H58.4732V80.4886H57.6137V81.9288H58.4732V83.6803C58.4732 85.4085 59.1687 86.3894 60.9737 86.3894C61.547 86.382 62.0998 86.1755 62.5366 85.8055L62.0052 84.4821C61.7627 84.6649 61.4653 84.7609 61.1613 84.7546H61.1769ZM50.8623 84.3965V80.5042H49.0494V83.6803C49.0494 83.8282 48.9556 84.7468 48.057 84.7468C47.6507 84.7468 47.3772 84.4588 47.3772 83.8282V80.4886H45.5408V84.2953C45.5408 85.4941 46.0019 86.3894 47.3928 86.3894C47.7693 86.4284 48.1489 86.3534 48.4821 86.1743C48.8152 85.9951 49.0865 85.7201 49.2604 85.3851V85.4708C49.3243 85.757 49.494 86.0089 49.7358 86.1762C49.9776 86.3435 50.2737 86.414 50.5653 86.3738C50.8289 86.3791 51.0919 86.3476 51.3467 86.2804V84.9181C50.9717 84.9181 50.8623 84.7546 50.8623 84.4276V84.3965ZM93.0585 84.4276V82.7384C93.0585 81.4695 92.4725 80.403 90.9878 80.403C89.9173 80.403 89.4719 80.87 89.3156 81.3216V81.2281C89.2329 80.969 89.0598 80.7479 88.8275 80.6051C88.5953 80.4623 88.3193 80.4071 88.0497 80.4497C87.7856 80.4445 87.5223 80.4786 87.2683 80.5509V81.9132C87.6434 81.9132 87.7528 82.0922 87.7528 82.3958V86.2882H89.5813V82.9797C89.5771 82.8616 89.5968 82.7438 89.6393 82.6335C89.6818 82.5231 89.7462 82.4225 89.8286 82.3374C89.911 82.2524 90.0098 82.1848 90.119 82.1387C90.2282 82.0925 90.3456 82.0688 90.4643 82.0689C90.5791 82.0672 90.6928 82.0908 90.7975 82.1379C90.9021 82.185 90.995 82.2545 91.0697 82.3415C91.1443 82.4284 91.1987 82.5307 91.2291 82.641C91.2596 82.7513 91.2652 82.867 91.2457 82.9797V84.7312C91.2457 85.8522 91.7614 86.3738 92.7538 86.3738C93.0174 86.3795 93.2805 86.348 93.5352 86.2804V84.9181C93.1679 84.9181 93.0507 84.7546 93.0507 84.4276H93.0585ZM65.9982 82.0922C66.2749 82.074 66.5498 82.148 66.7796 82.3024L67.5611 80.691C67.2652 80.5044 66.9182 80.4146 66.5687 80.4341C66.2183 80.3817 65.8604 80.4494 65.5537 80.6262C65.247 80.803 65.0097 81.0784 64.8808 81.4072V81.2826C64.8018 81.0129 64.6302 80.7794 64.396 80.6229C64.1617 80.4664 63.8798 80.3968 63.5993 80.4263C63.3348 80.4125 63.07 80.4468 62.8179 80.5275V81.9132C63.193 81.9132 63.3024 82.0922 63.3024 82.3958V86.2882H65.1309V82.9797C65.1277 82.8625 65.148 82.7458 65.1904 82.6365C65.2328 82.5271 65.2965 82.4272 65.3779 82.3425C65.4592 82.2578 65.5566 82.1901 65.6645 82.1431C65.7723 82.0961 65.8884 82.0709 66.006 82.0689L65.9982 82.0922ZM79.8996 84.9181C79.5245 84.9181 79.4151 84.7546 79.4151 84.4276V80.5353H77.5866V84.7779C77.5866 85.8989 78.1101 86.4205 79.1025 86.4205C79.3662 86.4276 79.6294 86.3961 79.8839 86.3271L79.8996 84.9181ZM53.9723 82.1545C53.9723 81.9677 54.1442 81.7964 54.699 81.7964C55.2151 81.8106 55.7066 82.0193 56.0743 82.3803L57.1136 81.3994C56.7881 81.051 56.3856 80.783 55.9379 80.6168C55.4903 80.4506 55.0099 80.3907 54.5349 80.4419C52.7455 80.4886 52.1047 81.3916 52.1047 82.2012C52.1047 84.4276 55.2304 83.836 55.2304 84.6222C55.2304 84.8636 55.0663 85.1438 54.5271 85.1438C54.2018 85.1333 53.8828 85.0518 53.5926 84.9052C53.3023 84.7586 53.0478 84.5504 52.8471 84.2953L51.839 85.2528C52.0229 85.5787 52.2933 85.848 52.6204 86.0313C53.1078 86.2851 53.6425 86.4362 54.1911 86.475H54.5896C56.4181 86.475 57.2777 85.6965 57.2777 84.4821C57.2777 82.4815 53.9879 83.1354 53.9879 82.1078" fill="#2A2A2A"/>
<path d="M179.518 71H148V102.729H179.518V71Z" fill="#1C79BE"/>
<path d="M164.27 79.6302C165.02 79.6302 165.417 79.2875 165.663 78.894L165.651 78.9512C165.581 79.3192 165.878 79.5477 166.155 79.5477H166.395L167.063 75.5943H166.237L166.124 76.1971C165.972 75.8862 165.55 75.5118 164.869 75.5118C163.664 75.5118 162.952 76.5398 162.826 77.6376C162.693 78.894 163.475 79.6302 164.27 79.6302ZM164.989 76.159C166.376 76.2415 165.928 78.9956 164.516 78.9131C163.236 78.8369 163.633 76.0829 164.989 76.159ZM153.562 75.3277C153.562 74.433 153.013 74.0205 152.036 74.0205C151.437 74.0205 150.497 74.0205 150.157 74.0205L149.211 79.5477C149.331 79.5477 150.352 79.5477 150.932 79.5477C151.323 79.5477 151.702 79.535 151.91 79.4905C152.875 79.2811 153.266 78.5514 153.348 78.0183C153.455 77.2759 153.007 76.7873 152.49 76.6667C152.875 76.5778 153.562 76.1654 153.562 75.3277ZM151.544 78.8687C151.437 78.894 151.267 78.9131 150.907 78.9131H150.277L150.592 77.0601H151.519C152.749 77.0601 152.635 78.5894 151.544 78.8687ZM151.91 76.3494C151.79 76.3875 151.632 76.4002 151.349 76.4002H150.705L151.008 74.6297H151.847C152.849 74.6297 152.774 76.0511 151.91 76.3494ZM157.22 75.6006H156.967C156.967 75.6006 156.602 77.7708 156.564 78.0183C156.475 78.5514 156.23 78.9131 155.536 78.9131C155.145 78.9131 154.76 78.6656 154.848 78.1135C154.886 77.8978 155.145 76.324 155.17 76.1971C155.246 75.7719 154.893 75.6006 154.603 75.6006H154.382C154.331 75.9306 154.085 77.3203 153.997 77.866C153.959 78.0818 153.947 78.3039 153.959 78.4498C154.041 79.186 154.666 79.6365 155.435 79.6365C156.766 79.6365 157.27 78.9131 157.428 78.0564C157.478 77.7772 157.73 76.3431 157.749 76.1971C157.812 75.7656 157.478 75.6006 157.22 75.6006ZM158.594 81.1087L158.979 78.9258C159.13 79.2367 159.559 79.6302 160.24 79.6302C161.47 79.6302 162.233 78.6339 162.309 77.4663C162.391 76.2288 161.691 75.5118 160.877 75.5118C160.171 75.5118 159.692 75.8671 159.446 76.2352L159.458 76.1844C159.534 75.8037 159.219 75.5879 158.954 75.5879H158.689C158.689 75.5879 157.97 79.8396 157.875 80.3536C157.762 80.9564 158.229 81.096 158.38 81.096H158.594V81.1087ZM160.6 76.2288C161.873 76.2986 161.476 79.0654 160.12 78.9892C158.733 78.9067 159.181 76.1463 160.6 76.2288ZM177.595 81.6291C177.235 81.6291 176.756 81.61 176.466 81.5085C176.125 81.3879 175.823 81.1468 175.507 80.893C175.35 80.766 175.179 80.6328 175.003 80.5122C174.782 80.3599 174.605 80.2901 174.429 80.2901C174.196 80.2901 173.969 80.4234 173.697 80.7153C173.325 81.1087 173.035 81.591 172.802 81.959C172.789 81.9781 172.764 82.0098 172.733 82.0098C172.676 82.0098 172.67 81.9273 172.67 81.9083C172.657 80.8739 172.506 75.2516 172.392 73.57C172.342 72.8275 172.121 72.3643 171.812 72.3643C171.56 72.3643 171.188 72.7069 170.954 73.6778C170.361 76.1463 169.088 81.6354 168.545 84.4212C168.533 84.4974 168.444 84.4974 168.432 84.4212C168.369 84.1356 168.318 83.812 168.268 83.5391C168.104 82.6761 167.965 81.94 167.688 81.5275C167.372 81.0643 166.899 81.0326 166.332 81.426C166.206 81.5148 166.086 81.6164 165.96 81.7369C165.594 82.0606 165.184 82.435 164.497 82.435H158.355L158.191 83.3551H164.68C165.399 83.3551 166.067 82.9236 166.464 82.6254C166.666 82.4731 166.811 82.3906 166.918 82.3906C167.076 82.3906 167.145 82.5556 167.202 82.7967C167.234 82.9173 167.265 83.0822 167.303 83.2726C167.435 83.9072 167.637 84.9098 167.889 85.5761C168.009 85.8871 168.186 86.0584 168.388 86.0584C168.697 86.0584 169.012 85.684 169.189 85.0939C169.428 84.3133 170.853 77.9105 171.452 75.2262C171.478 75.1183 171.49 75.0549 171.49 75.0485C171.503 75.0041 171.528 74.9724 171.566 74.9724C171.597 74.9724 171.635 74.9977 171.635 75.0612V75.0739C171.679 77.7899 171.812 82.5556 172.007 83.0442C172.115 83.317 172.279 83.4566 172.487 83.4566C172.726 83.4566 173.01 83.2599 173.212 82.949C173.313 82.7967 173.445 82.5936 173.584 82.3779C173.924 81.8512 174.006 81.6798 174.12 81.5529C174.29 81.3689 174.486 81.3625 174.763 81.5593C174.801 81.591 174.851 81.6227 174.908 81.6671C175.205 81.8892 175.696 82.1938 176.251 82.3525C176.617 82.4604 177.09 82.4794 177.424 82.4794C177.639 82.4794 177.866 82.4731 177.935 82.4667L178.086 81.6164C178.011 81.6227 177.796 81.6291 177.595 81.6291Z" fill="white"/>
<path d="M535.383 89.4423H534.02C533.461 89.4423 532.991 89.5634 532.608 89.8054C532.225 90.0461 532.034 90.3851 532.034 90.8196C532.034 91.1414 532.106 91.3952 532.249 91.5808C532.394 91.7658 532.573 91.9061 532.788 92.003C533.003 92.0993 533.234 92.1639 533.481 92.1963C533.729 92.2286 533.956 92.2444 534.163 92.2444C534.307 92.2444 534.514 92.2286 534.785 92.1963C534.986 92.1757 535.186 92.1436 535.383 92.1V89.4423ZM539.092 87.3664V94.442C538.486 94.6194 537.752 94.7962 536.89 94.9729C535.993 95.1536 535.079 95.2428 534.163 95.239C533.334 95.239 532.573 95.1627 531.878 95.0093C531.185 94.8567 530.59 94.6105 530.096 94.2736C529.6 93.9333 529.2 93.4715 528.936 92.9327C528.657 92.3771 528.517 91.697 528.517 90.8918C528.517 90.1031 528.684 89.4513 529.02 88.9362C529.346 88.4294 529.789 88.0069 530.312 87.704C530.838 87.3994 531.42 87.1849 532.058 87.0645C532.673 86.9459 533.298 86.8851 533.924 86.883H535.383C535.368 86.5942 535.288 86.3522 535.145 86.1589C535.002 85.9664 534.813 85.8126 534.595 85.712C534.359 85.6041 534.109 85.5309 533.853 85.4947C533.575 85.4542 533.295 85.434 533.015 85.4342C532.632 85.4342 532.186 85.4789 531.675 85.5676C531.164 85.6556 530.638 85.7966 530.097 85.9898C529.966 85.7433 529.843 85.4934 529.726 85.2403C529.623 85.0195 529.543 84.7892 529.487 84.5527C529.43 84.3143 529.39 84.0724 529.366 83.8286C529.341 83.5435 529.33 83.2573 529.332 82.9711C530.077 82.7191 530.84 82.5256 531.616 82.3922C532.373 82.2629 533.054 82.1982 533.661 82.1982C534.49 82.1982 535.239 82.2986 535.91 82.5008C536.58 82.7016 537.149 83.0117 537.621 83.4298C538.091 83.8492 538.454 84.3835 538.709 85.0361C538.964 85.6879 539.092 86.4649 539.092 87.3664ZM523.374 91.061C523.374 90.9001 523.346 90.7433 523.29 90.59C523.23 90.4318 523.126 90.2937 522.99 90.1918C522.848 90.0791 522.648 89.9856 522.393 89.914C522.137 89.8418 521.802 89.8054 521.388 89.8054H520.287V92.2925C520.335 92.2925 520.463 92.3008 520.671 92.3166C520.877 92.3331 521.156 92.3407 521.508 92.3407C522.177 92.3407 522.656 92.2286 522.943 92.0037C523.23 91.7775 523.374 91.4639 523.374 91.061ZM520.288 87.2694H521.459C522.066 87.2694 522.472 87.1374 522.68 86.8706C522.888 86.6059 522.99 86.3274 522.99 86.0386C522.99 85.7649 522.883 85.5112 522.668 85.2774C522.452 85.0436 522.058 84.9267 521.484 84.9267C521.308 84.9267 521.105 84.9315 520.874 84.9391C520.642 84.948 520.447 84.9597 520.288 84.9755V87.2694ZM527.034 89.419C527.465 89.8693 527.679 90.5054 527.679 91.3264C527.679 92.8082 527.138 93.8342 526.053 94.4063C524.969 94.977 523.366 95.263 521.245 95.263C520.686 95.263 519.957 95.2424 519.055 95.2025C518.131 95.1602 517.209 95.0758 516.292 94.9495V82.5352C516.611 82.487 516.978 82.443 517.393 82.4032C517.807 82.3626 518.23 82.3268 518.66 82.2931C519.078 82.2625 519.497 82.2386 519.917 82.2216C520.323 82.2065 520.678 82.1982 520.982 82.1982C522.975 82.1982 524.467 82.4843 525.455 83.0557C526.444 83.6264 526.938 84.5162 526.938 85.7237C526.938 86.3357 526.798 86.8555 526.52 87.2818C526.24 87.7082 525.862 88.0747 525.383 88.38C526.053 88.622 526.603 88.9686 527.034 89.419ZM512.32 82.2711C512.001 82.2711 511.67 82.2869 511.328 82.3193C510.977 82.3526 510.63 82.4087 510.287 82.487V86.7372H506.746V82.4884C506.408 82.4078 506.064 82.3512 505.717 82.3193C505.366 82.2869 505.039 82.2711 504.736 82.2711C504.417 82.2711 504.086 82.2869 503.743 82.3193C503.393 82.3529 503.045 82.4092 502.703 82.4877V94.9495C503.101 95.0128 503.468 95.0616 503.804 95.0939C504.139 95.1262 504.441 95.142 504.712 95.142C504.984 95.142 505.287 95.1262 505.622 95.0939C505.998 95.0563 506.373 95.0081 506.746 94.9495V90.3603H510.287V94.9488C510.685 95.0121 511.052 95.0609 511.387 95.0932C511.722 95.1255 512.025 95.1413 512.297 95.1413C512.567 95.1413 512.87 95.1255 513.205 95.0932C513.582 95.0556 513.957 95.0075 514.33 94.9488V82.487C513.995 82.4073 513.651 82.3509 513.301 82.3186C512.975 82.2877 512.648 82.2716 512.321 82.2704L512.32 82.2711ZM499.103 83.1884C498.571 82.803 497.957 82.5429 497.309 82.4279C496.674 82.3094 496.029 82.2487 495.383 82.2464C494.681 82.2464 494.051 82.3268 493.493 82.4877C492.934 82.6493 492.447 82.8343 492.033 83.044C491.489 82.7209 490.888 82.5035 490.262 82.4032C489.621 82.2984 488.974 82.246 488.325 82.2464C487.128 82.2464 486.14 82.3392 485.358 82.5242C484.576 82.7098 483.906 82.8982 483.348 83.0915V94.9495C483.763 95.0293 484.138 95.0815 484.473 95.1063C484.808 95.1303 485.11 95.1427 485.382 95.1427C485.637 95.1427 485.932 95.1303 486.267 95.1063C486.645 95.0756 487.02 95.0233 487.392 94.9495V85.9176C487.44 85.8853 487.563 85.8529 487.763 85.8206C487.948 85.7897 488.137 85.7736 488.325 85.7725C488.979 85.7725 489.441 85.9582 489.713 86.3274C489.983 86.6987 490.119 87.3107 490.119 88.1634V94.9495C490.533 95.0293 490.908 95.0815 491.244 95.1063C491.578 95.1303 491.881 95.1427 492.153 95.1427C492.408 95.1427 492.703 95.1303 493.038 95.1063C493.415 95.0756 493.791 95.0233 494.162 94.9495V87.8972C494.162 87.1732 494.09 86.5289 493.947 85.965C494.026 85.9334 494.174 85.8935 494.39 85.8447C494.605 85.7966 494.824 85.7725 495.048 85.7725C495.701 85.7725 496.172 85.9582 496.459 86.3274C496.746 86.6987 496.89 87.3107 496.89 88.1634V94.9495C497.304 95.0293 497.679 95.0815 498.014 95.1063C498.349 95.1303 498.651 95.1427 498.923 95.1427C499.177 95.1427 499.474 95.1303 499.808 95.1063C500.186 95.0756 500.561 95.0233 500.933 94.9495V87.7288C500.933 86.5371 500.762 85.5793 500.418 84.8545C500.076 84.1305 499.637 83.5749 499.103 83.1884H499.103ZM479.737 88.0183C480.295 88.0183 480.957 88.0905 481.722 88.2356V94.3691C481.259 94.5472 480.613 94.7405 479.784 94.9495C478.955 95.1585 477.99 95.263 476.89 95.263C475.741 95.263 474.764 95.0898 473.959 94.7439C473.153 94.398 472.495 93.927 471.986 93.3315C471.475 92.736 471.103 92.0354 470.872 91.2301C470.636 90.389 470.52 89.5192 470.526 88.6461C470.526 87.7611 470.665 86.9243 470.944 86.1342C471.208 85.3704 471.632 84.6709 472.188 84.0816C472.739 83.502 473.421 83.0433 474.234 82.7057C475.047 82.3674 475.988 82.1982 477.056 82.1982C477.614 82.1982 478.229 82.2629 478.898 82.3922C479.568 82.5207 480.302 82.7463 481.1 83.0681C481.083 83.3418 481.052 83.5989 481.004 83.8403C480.956 84.0816 480.896 84.3278 480.824 84.5767C480.752 84.827 480.665 85.0924 480.561 85.3744C480.457 85.6563 480.334 85.9733 480.19 86.3274C479.703 86.1203 479.199 85.9546 478.683 85.8323C478.22 85.7278 477.822 85.6755 477.487 85.6755C476.961 85.6755 476.514 85.7567 476.147 85.9176C475.78 86.0785 475.485 86.2958 475.262 86.5695C475.038 86.8431 474.875 87.1608 474.772 87.5232C474.668 87.8885 474.615 88.2664 474.616 88.6461C474.616 89.7256 474.847 90.5178 475.31 91.0252C475.772 91.532 476.45 91.7857 477.344 91.7857H477.774V88.2356C478.126 88.1627 478.482 88.1062 478.839 88.0664C479.137 88.0351 479.436 88.019 479.736 88.0183H479.737ZM466.913 88.6866C466.913 88.413 466.898 88.107 466.866 87.7694C466.828 87.3899 466.78 87.0116 466.722 86.6348H464.435V84.3526C464.101 84.2721 463.757 84.215 463.407 84.1827C463.056 84.1511 462.728 84.1346 462.426 84.1346C462.107 84.1346 461.776 84.1511 461.434 84.1827C461.09 84.215 460.743 84.2721 460.393 84.3526V86.6334H458.13C458.051 86.9717 457.995 87.3176 457.962 87.6717C457.931 88.0265 457.915 88.3559 457.915 88.6619C457.915 88.9844 457.931 89.3179 457.962 89.6637C457.995 90.011 458.051 90.3603 458.13 90.7144H460.392V93.0207C460.79 93.0847 461.157 93.1335 461.492 93.1651C461.828 93.1981 462.129 93.2139 462.402 93.2139C462.672 93.2139 462.976 93.1981 463.311 93.1658C463.687 93.1281 464.061 93.08 464.435 93.0214V90.7144H466.721C466.78 90.3458 466.828 89.9755 466.865 89.6039C466.897 89.2656 466.912 88.9596 466.912 88.6859L466.913 88.6866ZM468.598 82.432C468.683 82.8082 468.827 86.7235 468.827 88.6743C468.827 90.6285 468.683 94.5569 468.598 94.9172C468.226 95.0024 464.347 95.1482 462.414 95.1482C460.477 95.1482 456.586 95.0024 456.229 94.9172C456.145 94.541 456 90.6257 456 88.6756C456 86.7207 456.145 82.7917 456.229 82.432C456.602 82.3468 460.481 82.2017 462.413 82.2017C464.35 82.2017 468.242 82.3468 468.598 82.4327V82.432Z" fill="#00A6E2"/>
<path d="M374 80.0923H380.964V83.1242C382.678 80.8094 384.564 79.5476 387.45 79.5476C392.511 79.5476 394.892 82.5342 394.892 87.8446V99.4277H387.27V89.2063C387.27 87.2909 386.747 85.5843 384.591 85.5843C382.245 85.5843 381.623 87.1002 381.623 89.5694V99.4186H374V80.0923ZM396.877 99.4186H404.509V80.0923H396.877V99.4186ZM396.877 78.2858H404.509V72.8665H396.877V78.2858ZM417.3 94.4532C414.811 94.4532 414.08 91.8388 414.08 89.7782C414.08 87.7811 415 85.5026 417.3 85.5026C419.754 85.5026 420.521 87.8628 420.521 89.9234C420.521 92.0113 419.79 94.4532 417.3 94.4532ZM414.251 72.8665H406.629V99.4186H413.476V96.6863H413.539C414.495 98.5381 416.254 99.9724 419.438 99.9724C425.717 99.9724 428.126 95.3609 428.126 89.6329C428.126 83.805 424.68 79.5295 419.772 79.5295C417.49 79.5295 415.74 80.2648 414.233 82.0349V72.8665H414.251Z" fill="#009623"/>
<path d="M567.948 83.2735C565.325 88.986 568.33 96.2099 574.669 95.1116C578.165 94.4505 583.41 86.7616 579.914 83.6869C576.854 80.8289 577.3 88.0799 574.45 88.0799C570.106 88.0799 570.8 77.0888 567.96 83.2415" fill="url(#paint0_linear)"/>
<path d="M575.182 80.11C572.466 80.4141 570.656 84.9668 573.673 85.8764C577.594 87.0897 578.35 79.6515 575.233 80.1127" fill="url(#paint1_linear)"/>
<path d="M621.267 79.6024L625.077 79.3989L624.857 95.0061H621.346L621.267 79.6024Z" fill="#371F61"/>
<path d="M633.803 90.0313C633.418 86.3997 636.297 82.951 640.892 83.7959L638.22 89.1654L641.104 95.0723C636.832 95.6083 634.134 93.3046 633.803 90.0313Z" fill="url(#paint2_radial)"/>
<path d="M648.618 95.0441L648.59 83.6575H651.068C654.326 83.6273 654.534 86.3016 654.412 87.6299L651.337 87.5936L652.054 95.0572L648.618 95.0441Z" fill="url(#paint3_radial)"/>
<path d="M585.958 95.0631L586.105 80.1367L591.555 80.4977C594.126 80.7878 595.709 84.2886 594.658 86.4986C594.253 87.3817 593.594 88.1229 592.767 88.6267C591.94 89.1306 590.981 89.3741 590.015 89.326L589.989 95.0631H585.958ZM589.962 83.8038L589.99 85.9622C589.99 85.9622 591.104 85.8558 591.13 84.8959C591.153 84.0046 589.962 83.802 589.962 83.802L589.962 83.8038Z" fill="url(#paint4_radial)"/>
<path d="M616.552 95.3076L616.585 99.9188L613.239 99.9293L613.196 83.8964L616.738 83.8623C619.262 83.8623 620.76 86.2574 621.117 88.8157C621.497 91.5416 619.494 94.9225 616.552 95.3076ZM616.567 88.4018L616.573 90.7602C616.854 90.7549 617.121 90.6376 617.316 90.4342C617.511 90.2308 617.617 89.9579 617.612 89.6755C617.612 89.6444 617.61 89.6134 617.607 89.5827C617.612 89.2911 617.508 89.0082 617.316 88.7896C617.124 88.571 616.857 88.4325 616.569 88.4014L616.567 88.4018Z" fill="url(#paint5_radial)"/>
<path d="M633.815 94.8003C630.443 96.3719 625.756 94.0805 625.121 90.396C624.584 87.2776 626.367 83.25 629.519 83.52C630.13 83.5934 630.721 83.7871 631.258 84.0901C631.794 84.3931 632.266 84.7994 632.647 85.2859C633.027 85.7723 633.309 86.3293 633.475 86.9251C633.642 87.5209 633.69 88.1438 633.616 88.7582C633.6 88.8961 633.578 89.033 633.549 89.1686L629.387 91.3721C630.66 91.9037 632.069 92.011 633.407 91.6784C633.669 93.7502 633.815 94.8003 633.815 94.8003ZM628.6 88.8497L630.272 88.0092C630.272 88.0092 629.731 87.1695 629.084 87.4242C628.301 87.7309 628.6 88.8497 628.6 88.8497Z" fill="url(#paint6_radial)"/>
<path d="M663.209 94.8003C659.838 96.3719 655.152 94.0805 654.517 90.396C653.979 87.2776 655.763 83.25 658.913 83.52C659.524 83.5934 660.115 83.7871 660.651 84.0901C661.188 84.3931 661.66 84.7994 662.041 85.2858C662.421 85.7722 662.703 86.3293 662.869 86.9251C663.036 87.5208 663.084 88.1438 663.011 88.7582C662.994 88.8956 662.972 89.033 662.944 89.1686L658.783 91.3734C660.056 91.905 661.465 92.0123 662.803 91.6797C663.064 93.7502 663.209 94.8003 663.209 94.8003ZM657.995 88.8497L659.667 88.0092C659.667 88.0092 659.126 87.1695 658.479 87.4242C657.695 87.7309 657.995 88.8497 657.995 88.8497Z" fill="url(#paint7_radial)"/>
<path d="M640.58 84.8289C641.377 84.158 642.366 83.7597 643.404 83.6914C644.442 83.6232 645.474 83.8885 646.352 84.4491C646.947 84.8022 647.439 85.3049 647.782 85.9076C648.125 86.5104 648.306 87.1925 648.306 87.8868L648.202 95.0092H643.42C641.295 95.0092 640.172 92.6027 640.367 90.4662C640.395 89.7321 640.627 89.0206 641.038 88.4128C641.448 87.8049 642.02 87.3251 642.688 87.0279L640.58 84.8289ZM644.806 91.5272L644.85 89.7923C644.651 89.8469 644.471 89.9584 644.334 90.1132C644.197 90.2681 644.107 90.4597 644.075 90.6648C644.058 90.7712 644.064 90.8802 644.093 90.9841C644.121 91.088 644.172 91.1844 644.242 91.2665C644.311 91.3486 644.398 91.4145 644.495 91.4595C644.593 91.5045 644.699 91.5276 644.806 91.5272Z" fill="url(#paint8_radial)"/>
<path d="M603.107 94.8004C599.735 96.3756 595.049 94.082 594.414 90.3974C593.877 87.2791 595.66 83.2515 598.813 83.5214C599.424 83.595 600.015 83.7889 600.552 84.0921C601.089 84.3954 601.561 84.8019 601.941 85.2886C602.322 85.7752 602.603 86.3325 602.77 86.9285C602.936 87.5246 602.984 88.1477 602.911 88.7623C602.894 88.8993 602.872 89.0358 602.844 89.171L598.682 91.3736C599.955 91.9051 601.364 92.0125 602.702 91.6799C602.961 93.7503 603.107 94.8004 603.107 94.8004ZM597.892 88.8498L599.564 88.0093C599.564 88.0093 599.023 87.1697 598.378 87.4243C597.594 87.731 597.892 88.8498 597.892 88.8498Z" fill="url(#paint9_radial)"/>
<path d="M608.01 83.5337C610.787 83.5337 613.037 86.162 613.037 89.4029C613.037 92.6438 610.787 95.2734 608.01 95.2734C605.234 95.2734 602.983 92.6455 602.983 89.4029C602.983 86.1603 605.234 83.5337 608.01 83.5337ZM607.481 89.4536C607.459 89.6521 607.515 89.8512 607.637 90.009C607.759 90.1667 607.937 90.2707 608.134 90.299C608.495 90.299 608.786 90.1196 608.786 89.4536C608.786 88.7877 608.494 88.2469 608.134 88.2469C607.773 88.2469 607.519 88.7881 607.481 89.4536Z" fill="url(#paint10_radial)"/>
<g clip-path="url(#clip0)">
<path d="M207 88.1832C207 91.7443 209.612 94.5933 212.777 94.5933C215.309 94.5933 217.367 93.0897 217.921 91.1112C217.921 91.0321 217.921 91.0321 217.842 91.0321C217.446 91.1904 216.971 91.2695 216.417 91.2695C213.806 91.2695 212.144 89.0537 212.144 86.363C212.144 84.7012 212.54 83.435 213.014 82.1688C213.014 82.0896 213.014 82.0896 212.935 82.0896C212.698 82.0896 212.381 82.0105 212.065 82.0105C209.216 82.0105 207 84.7803 207 88.1832Z" fill="url(#paint11_linear)"/>
<path d="M213.094 85.5716C213.094 85.6507 213.094 85.6507 213.173 85.6507C213.727 85.4133 214.281 85.2551 214.914 85.2551C217.209 85.2551 219.029 87.2335 219.029 89.6076C219.029 93.0105 216.338 95.4637 212.935 95.4637C212.777 95.4637 212.619 95.4637 212.54 95.4637C212.46 95.4637 212.381 95.4637 212.381 95.4637C212.381 95.4637 212.381 95.5429 212.46 95.5429C213.568 95.9385 214.676 96.176 215.942 96.176C221.007 96.176 224.806 92.0608 224.806 86.9961C224.806 82.8018 222.036 79.3989 218.633 79.3989C215.784 79.3989 213.41 81.773 213.094 85.5716Z" fill="url(#paint12_linear)"/>
<path d="M249.971 83.8306C251.238 83.8306 252.345 84.622 252.583 85.7299H254.086V82.9601C253.058 82.4853 251.633 82.0896 250.05 82.0896C245.065 82.0896 242.691 84.7803 242.691 88.2623C242.691 91.9026 245.302 94.5141 249.655 94.5141C252.029 94.5141 253.453 93.7227 254.72 92.4565L253.77 91.2695C252.899 91.9817 251.791 92.5357 250.446 92.5357C248.389 92.5357 246.41 91.0321 246.41 87.8666C246.331 85.1759 247.755 83.8306 249.971 83.8306Z" fill="#EE255C"/>
<path d="M229.633 85.5715V94.1974H233.115V89.1327H237.863V94.1974H241.266V82.3269H237.072V83.514C237.626 83.9096 237.863 84.4636 237.863 85.5715V87.3125H233.115V82.3269H228.842V83.514C229.396 83.9096 229.633 84.4636 229.633 85.5715Z" fill="#EE255C"/>
<path d="M264.928 85.255H266.353V82.3269H255.511V83.514C256.065 83.9888 256.381 84.5427 256.381 85.5715V94.1974H259.784V89.0535H264.137V87.3917H259.784V83.9888H263.029C263.979 83.9888 264.691 84.5427 264.928 85.255Z" fill="#EE255C"/>
</g>
<defs>
<filter id="filter0_d" x="0" y="0" width="700" height="148" filterUnits="userSpaceOnUse" color-interpolation-filters="sRGB">
<feFlood flood-opacity="0" result="BackgroundImageFix"/>
<feColorMatrix in="SourceAlpha" type="matrix" values="0 0 0 0 0 0 0 0 0 0 0 0 0 0 0 0 0 0 127 0"/>
<feOffset dy="4"/>
<feGaussianBlur stdDeviation="5"/>
<feColorMatrix type="matrix" values="0 0 0 0 0 0 0 0 0 0 0 0 0 0 0 0 0 0 0.1616 0"/>
<feBlend mode="normal" in2="BackgroundImageFix" result="effect1_dropShadow"/>
<feBlend mode="normal" in="SourceGraphic" in2="effect1_dropShadow" result="shape"/>
</filter>
<linearGradient id="paint0_linear" x1="567" y1="88.2969" x2="581.067" y2="88.2969" gradientUnits="userSpaceOnUse">
<stop stop-color="#FDBA12"/>
<stop offset="1" stop-color="#F7901E"/>
</linearGradient>
<linearGradient id="paint1_linear" x1="631.448" y1="314.773" x2="690.181" y2="314.773" gradientUnits="userSpaceOnUse">
<stop stop-color="#FDBA12"/>
<stop offset="1" stop-color="#F7901E"/>
</linearGradient>
<radialGradient id="paint2_radial" cx="0" cy="0" r="1" gradientUnits="userSpaceOnUse" gradientTransform="translate(1455.77 470.947) scale(1176.78 1842.2)">
<stop stop-color="#6A2C88"/>
<stop offset="0.238" stop-color="#5D297E"/>
<stop offset="0.677" stop-color="#3B2064"/>
<stop offset="1" stop-color="#1E184E"/>
</radialGradient>
<radialGradient id="paint3_radial" cx="0" cy="0" r="1" gradientUnits="userSpaceOnUse" gradientTransform="translate(1303.88 468.145) scale(938.108 1828.91)">
<stop stop-color="#6A2C88"/>
<stop offset="0.238" stop-color="#5D297E"/>
<stop offset="0.677" stop-color="#3B2064"/>
<stop offset="1" stop-color="#1E184E"/>
</radialGradient>
<radialGradient id="paint4_radial" cx="0" cy="0" r="1" gradientUnits="userSpaceOnUse" gradientTransform="translate(1597.65 583.558) scale(1448.39 2394.62)">
<stop stop-color="#6A2C88"/>
<stop offset="0.238" stop-color="#5D297E"/>
<stop offset="0.677" stop-color="#3B2064"/>
<stop offset="1" stop-color="#1E184E"/>
</radialGradient>
<radialGradient id="paint5_radial" cx="0" cy="0" r="1" gradientUnits="userSpaceOnUse" gradientTransform="translate(1506.02 625.755) scale(1278.18 2577.62)">
<stop stop-color="#6A2C88"/>
<stop offset="0.238" stop-color="#5D297E"/>
<stop offset="0.677" stop-color="#3B2064"/>
<stop offset="1" stop-color="#1E184E"/>
</radialGradient>
<radialGradient id="paint6_radial" cx="0" cy="0" r="1" gradientUnits="userSpaceOnUse" gradientTransform="translate(1609.84 481.347) scale(1410.03 1892.59)">
<stop stop-color="#6A2C88"/>
<stop offset="0.238" stop-color="#5D297E"/>
<stop offset="0.677" stop-color="#3B2064"/>
<stop offset="1" stop-color="#1E184E"/>
</radialGradient>
<radialGradient id="paint7_radial" cx="0" cy="0" r="1" gradientUnits="userSpaceOnUse" gradientTransform="translate(1639.15 481.347) scale(1409.75 1892.45)">
<stop stop-color="#6A2C88"/>
<stop offset="0.238" stop-color="#5D297E"/>
<stop offset="0.677" stop-color="#3B2064"/>
<stop offset="1" stop-color="#1E184E"/>
</radialGradient>
<radialGradient id="paint8_radial" cx="0" cy="0" r="1" gradientUnits="userSpaceOnUse" gradientTransform="translate(1532.49 465.749) scale(1277.26 1817.47)">
<stop stop-color="#6A2C88"/>
<stop offset="0.238" stop-color="#5D297E"/>
<stop offset="0.677" stop-color="#3B2064"/>
<stop offset="1" stop-color="#1E184E"/>
</radialGradient>
<radialGradient id="paint9_radial" cx="0" cy="0" r="1" gradientUnits="userSpaceOnUse" gradientTransform="translate(1579.01 481.357) scale(1409.75 1892.5)">
<stop stop-color="#6A2C88"/>
<stop offset="0.238" stop-color="#5D297E"/>
<stop offset="0.677" stop-color="#3B2064"/>
<stop offset="1" stop-color="#1E184E"/>
</radialGradient>
<radialGradient id="paint10_radial" cx="0" cy="0" r="1" gradientUnits="userSpaceOnUse" gradientTransform="translate(1729.67 479.491) scale(1613.06 1883.45)">
<stop stop-color="#6A2C88"/>
<stop offset="0.238" stop-color="#5D297E"/>
<stop offset="0.677" stop-color="#3B2064"/>
<stop offset="1" stop-color="#1E184E"/>
</radialGradient>
<linearGradient id="paint11_linear" x1="215.138" y1="93.4532" x2="207.513" y2="82.7629" gradientUnits="userSpaceOnUse">
<stop stop-color="#A21C49"/>
<stop offset="0.33" stop-color="#8F183F"/>
<stop offset="0.67" stop-color="#7F1335"/>
<stop offset="0.9182" stop-color="#6D0B2A"/>
</linearGradient>
<linearGradient id="paint12_linear" x1="213.721" y1="84.4623" x2="222.348" y2="93.4284" gradientUnits="userSpaceOnUse">
<stop stop-color="#EE255C"/>
<stop offset="0.2447" stop-color="#D72158"/>
<stop offset="0.45" stop-color="#C81E55"/>
<stop offset="0.65" stop-color="#B31E4F"/>
<stop offset="0.8415" stop-color="#A31C49"/>
<stop offset="0.85" stop-color="#A21C49"/>
<stop offset="1" stop-color="#A21C49"/>
</linearGradient>
<clipPath id="clip0">
<rect width="59.2736" height="16.8562" fill="white" transform="translate(207 79.3989)"/>
</clipPath>
</defs>
</svg>
