<svg width="71" height="70" viewBox="0 0 71 70" fill="none" xmlns="http://www.w3.org/2000/svg">
<path d="M45.4173 38.8875H37.6395V46.6652H29.8618V38.8875H22.084V31.1097H29.8618V23.3319H37.6395V31.1097H45.4173V38.8875Z" fill="#F09020"/>
<path d="M17.4173 14.5819H50.084C52.3298 14.5819 54.1673 16.4194 54.1673 18.6652V41.8519L52.1256 42.0711L50.084 42.2902V18.6652H17.4173V51.3319H38.1257C37.5125 52.7319 37.6147 54.6375 38.1257 55.4152H17.4173C15.1715 55.4152 13.334 53.5777 13.334 51.3319V18.6652C13.334 16.4194 15.1715 14.5819 17.4173 14.5819Z" fill="#035AA6"/>
<path d="M53.3327 49.1842C53.3327 48.9328 53.2502 48.7153 53.0853 48.5317C52.9204 48.348 52.725 48.2562 52.4994 48.2562C51.0063 48.2562 49.6261 48.4954 48.3587 48.9739C47.0914 49.4524 45.9651 50.1001 44.9798 50.917C43.9946 51.7338 42.9724 52.7948 41.9134 54.0998C41.7485 54.3028 41.666 54.5204 41.666 54.7524C41.666 55.0037 41.7485 55.2212 41.9134 55.4049C42.0783 55.5886 42.2737 55.6804 42.4993 55.6804C42.7077 55.6804 42.903 55.5886 43.0853 55.4049C43.3197 55.1729 43.6408 54.8297 44.0488 54.3753C44.4568 53.921 44.7476 53.602 44.9212 53.4183C46.1105 52.2196 47.2758 51.3689 48.4173 50.8662C49.5588 50.3636 50.9195 50.1122 52.4994 50.1122C52.725 50.1122 52.9204 50.0204 53.0853 49.8367C53.2502 49.653 53.3327 49.4355 53.3327 49.1842ZM59.9994 46.3131C59.9994 47.2315 59.9125 48.1643 59.7389 49.1117C59.3396 51.2771 58.5388 53.1283 57.3366 54.6654C56.1343 56.2024 54.5827 57.4978 52.6816 58.5515C50.824 59.5955 48.923 60.1175 46.9785 60.1175C45.6938 60.1175 44.4525 59.8904 43.2546 59.436C43.1243 59.3877 42.7424 59.1847 42.1087 58.827C41.475 58.4693 41.0584 58.2905 40.8587 58.2905C40.7198 58.2905 40.5484 58.4451 40.3444 58.7545C40.1404 59.0638 39.9451 59.4022 39.7585 59.7695C39.5718 60.1369 39.344 60.4752 39.0749 60.7846C38.8058 61.0939 38.5454 61.2486 38.2936 61.2486C37.9204 61.2486 37.6447 61.164 37.4668 60.9948C37.2888 60.8256 37.0914 60.538 36.8743 60.132C36.857 60.0934 36.8309 60.0402 36.7962 59.9725C36.7615 59.9049 36.7376 59.8565 36.7246 59.8275C36.7116 59.7985 36.6986 59.7526 36.6855 59.6898C36.6725 59.6269 36.666 59.5617 36.666 59.494C36.666 59.1557 36.8006 58.8004 37.0697 58.4282C37.3388 58.0561 37.6339 57.7395 37.9551 57.4785C38.2763 57.2174 38.5714 56.9468 38.8405 56.6664C39.1096 56.3861 39.2441 56.1541 39.2441 55.9704C39.2441 55.9317 39.1834 55.7481 39.0618 55.4194C38.9403 55.0907 38.8709 54.878 38.8535 54.7814C38.7754 54.2883 38.7363 53.7857 38.7363 53.2733C38.7363 52.1616 38.9251 51.0982 39.3027 50.0832C39.6803 49.0682 40.1968 48.1764 40.8522 47.4079C41.5076 46.6393 42.2476 45.9675 43.0723 45.3923C43.8969 44.8171 44.7823 44.3555 45.7285 44.0075C46.2059 43.8335 46.8353 43.7103 47.6165 43.6378C48.3978 43.5652 49.1769 43.5217 49.9538 43.5072C50.7307 43.4927 51.5054 43.4637 52.278 43.4202C53.0506 43.3767 53.7602 43.2607 54.4069 43.0722C55.0536 42.8837 55.5462 42.6106 55.8848 42.253L56.2689 41.8252L56.653 41.4192L57.0046 41.1292L57.4798 40.8972L58.0462 40.8319C58.3848 40.8319 58.6908 41.0542 58.9642 41.4989C59.2376 41.9436 59.4438 42.485 59.5827 43.123C59.7216 43.761 59.8257 44.3604 59.8952 44.921C59.9646 45.4817 59.9994 45.9457 59.9994 46.3131Z" fill="#06A603"/>
</svg>
