<svg width="276" height="322" viewBox="0 0 276 322" fill="none" xmlns="http://www.w3.org/2000/svg">
<path d="M89.639 175.46C89.639 175.46 89.6514 175.45 89.6752 175.442C89.6507 175.458 89.639 175.46 89.639 175.46Z" fill="white"/>
<path fill-rule="evenodd" clip-rule="evenodd" d="M80.1187 0.259209C81.1557 0.259209 82.1831 0.256826 83.1993 0.25447C100.668 0.213962 114.823 0.18114 117.099 12.3905C117.476 14.4156 119.088 16.1117 121.148 16.1117H127.676C129.736 16.1117 131.342 14.4079 131.812 12.4023C134.839 -0.507326 154.095 -0.0684023 165.652 0.195033C167.122 0.22854 168.467 0.259209 169.639 0.259209C169.639 12.3817 154.719 21.7067 144.461 21.7067C151.921 21.7067 156.584 36.6266 156.584 59.0067V222.194C156.273 244.263 162.365 288.402 189.221 288.402C216.903 288.402 242.048 263.673 262.566 243.496C266.93 239.204 271.086 235.118 275.011 231.519C258.226 276.279 222.791 321.039 185.491 321.039C155.651 321.039 130.784 306.741 122.081 299.592V311.714C122.081 316.864 117.922 321.039 112.772 321.039H26.9662C12.7922 321.039 21.0604 312.336 26.9662 307.984C35.6202 288.822 51.4891 295.064 67.7238 301.451C75.975 304.697 84.3207 307.98 91.8617 307.984H91.875C93.4202 307.984 94.6727 306.732 94.6727 305.187V286.537C94.6727 285.782 94.3679 285.06 93.8275 284.533C87.9208 278.778 80.2814 269.346 76.3997 259.793C74.4636 255.028 73.5469 250.439 74.0628 246.359C74.5657 242.381 76.4475 238.701 80.5129 235.611C97.8468 222.438 117.925 228.916 125.82 233.887C127.127 234.71 128.854 234.317 129.678 233.01C130.501 231.702 130.108 229.975 128.801 229.152C119.911 223.554 97.0937 215.983 77.1275 231.157C71.868 235.154 69.2038 240.185 68.512 245.657C67.8331 251.026 69.0728 256.624 71.2163 261.899C75.3027 271.956 82.9806 281.584 89.0777 287.704V299.122C72.6147 295.58 44.6837 276.423 44.6837 222.194C44.6837 164.425 83.9187 133.819 110.425 124.062C119.124 120.859 126.744 113.037 126.744 103.767C126.744 94.4966 119.229 86.9817 109.959 86.9817H104.364C94.0636 86.9817 85.7137 78.6318 85.7137 68.3317V66.4667H83.8487C81.7887 66.4667 80.1187 64.7967 80.1187 62.7367C80.1187 60.6767 81.7887 59.0067 83.8487 59.0067H91.3087C95.4288 59.0067 98.7372 55.6668 98.5705 51.5501L98.5487 51.0124C98.0999 39.9734 97.631 28.4395 104.364 21.7067C95.0387 21.7067 80.1187 13.3142 80.1187 0.259209ZM131.04 128.944C132.585 128.944 133.837 130.197 133.837 131.742V147.594C133.837 154.289 128.41 159.717 121.715 159.717H93.7397C91.4122 159.717 88.7169 161.564 87.1501 164.698C85.6599 167.678 85.5812 171.083 87.4728 173.737C88.7936 175.03 89.4989 175.333 89.7246 175.404C89.8108 175.332 89.9638 175.177 90.1898 174.864C90.6104 174.281 90.9622 173.626 91.4158 172.782C91.6494 172.347 91.91 171.862 92.2209 171.31C93.0204 169.892 94.1113 168.146 95.7222 166.857C98.7365 164.446 102.501 163.666 106.195 163.798C109.892 163.93 113.733 164.975 117.222 166.47C117.929 166.773 118.629 167.088 119.324 167.399L119.325 167.4L119.329 167.402C122.156 168.67 124.899 169.9 127.744 170.225C129.406 170.415 130.965 170.262 132.452 169.62C133.938 168.979 135.545 167.765 137.17 165.531C138.079 164.282 139.828 164.005 141.078 164.914C142.327 165.823 142.604 167.573 141.695 168.822C139.59 171.717 137.233 173.65 134.669 174.757C132.105 175.864 129.527 176.061 127.109 175.784C123.303 175.349 119.547 173.65 116.699 172.361C116.095 172.088 115.532 171.833 115.018 171.613C111.98 170.311 108.827 169.491 105.996 169.39C103.162 169.288 100.866 169.908 99.2174 171.226C98.4971 171.802 97.8397 172.737 97.0946 174.058C96.9288 174.352 96.7469 174.69 96.5529 175.051C96.0101 176.059 95.3724 177.244 94.7255 178.14C93.8044 179.415 92.2032 181.084 89.6603 181.017C87.3946 180.959 85.3243 179.502 83.3691 177.547C83.2755 177.454 83.1887 177.354 83.1092 177.248C79.5207 172.463 79.9348 166.617 82.1458 162.196C84.309 157.869 88.6074 154.122 93.7397 154.122H121.715C125.32 154.122 128.242 151.199 128.242 147.594V131.742C128.242 130.197 129.495 128.944 131.04 128.944ZM54.575 209.139C53.03 209.139 51.7775 210.392 51.7775 211.937C51.7775 213.482 53.03 214.734 54.575 214.734H121.715C123.26 214.734 124.513 213.482 124.513 211.937C124.513 210.392 123.26 209.139 121.715 209.139H54.575ZM115.188 56.0602C118.793 56.0602 121.715 53.1378 121.715 49.5327C121.715 45.9277 118.793 43.0052 115.188 43.0052C111.582 43.0052 108.66 45.9277 108.66 49.5327C108.66 53.1378 111.582 56.0602 115.188 56.0602Z" fill="white"/>
<path d="M41.52 110.294C41.52 114.77 44.0067 123.971 45.25 128.012L53.6425 112.159L50.845 101.902C49.2909 103.145 45.25 106.564 41.52 110.294Z" fill="white"/>
<path d="M60.17 83.2516C60.17 99.7318 46.8102 113.092 30.33 113.092C13.8498 113.092 0.48999 99.7318 0.48999 83.2516C0.48999 66.7714 13.8498 53.4116 30.33 53.4116C46.8102 53.4116 60.17 66.7714 60.17 83.2516Z" fill="#FCBF1E"/>
<path d="M52.71 83.2516C52.71 95.6117 42.6902 105.632 30.33 105.632C17.9699 105.632 7.95001 95.6117 7.95001 83.2516C7.95001 70.8914 17.9699 60.8716 30.33 60.8716C42.6902 60.8716 52.71 70.8914 52.71 83.2516Z" fill="#E3AC1B"/>
<path fill-rule="evenodd" clip-rule="evenodd" d="M84.4498 131.742H75.0899C67.9407 132.052 53.6424 128.571 53.6424 112.159C57.3724 107.497 59.2374 91.6442 49.9124 91.6442C44.874 91.6442 45.8247 93.2776 47.4692 96.1031C48.8683 98.507 50.7697 101.774 49.9124 105.632L49.9125 113.092L47.5812 120.552L45.25 128.012C46.6035 133.697 52.9551 144.191 67.8777 146.313C73.1466 140.65 78.7794 135.806 84.4498 131.742ZM94.5964 131.742H113.322C115.56 139.948 101.2 145.107 93.74 146.662H75.3406C81.54 140.585 88.1411 135.634 94.5964 131.742Z" fill="white"/>
<path d="M88.1449 187.692C73.5771 187.692 61.4475 198.131 58.8286 211.937H117.461C114.842 198.131 102.713 187.692 88.1449 187.692Z" fill="#FCBF1E"/>
<path d="M109.82 211.937C107.335 202.284 98.573 195.152 88.1448 195.152C77.7166 195.152 68.9543 202.284 66.4698 211.937H109.82Z" fill="#E3AC1B"/>
</svg>
