<svg width="115" height="124" viewBox="0 0 115 124" fill="none" xmlns="http://www.w3.org/2000/svg">
<g clip-path="url(#clip0)">
<path opacity="0.14" d="M57.4705 114.215C24.7641 114.215 0.5 119.315 0.5 119.315C0.5 119.315 17.6207 124.059 57.4705 124.059C96.1396 124.059 114.441 119.315 114.441 119.315C114.441 119.315 90.1769 114.215 57.4705 114.215Z" fill="#260F00"/>
<path d="M9.29639 62.3855C9.29639 62.3855 11.7759 63.8087 11.7759 64.6983C11.7759 65.1134 9.53253 63.275 9.53253 63.275L9.29639 62.3855Z" fill="#D78C74"/>
<path d="M9.47383 62.8598C9.47383 62.8598 11.363 62.2075 11.7763 62.8005C11.9534 63.097 9.65095 63.3935 9.65095 63.3935L9.47383 62.8598Z" fill="#D78C74"/>
<path d="M66.9754 31.0741C61.0717 44.0019 55.2271 59.0052 52.8656 59.3611C52.7475 59.8355 52.5704 60.3099 52.4523 60.7843C52.7475 61.2587 53.2789 62.2075 53.3969 62.2075C55.6994 62.2075 59.7139 60.6657 65.4404 47.9158C68.6284 40.7403 70.6357 36.0555 70.9899 33.7427L66.9754 31.0741Z" fill="#E5A185"/>
<path d="M59.0053 59.0053C60.8354 56.9297 63.0198 53.4902 65.4993 47.9752C68.6873 40.7996 70.6946 36.1148 71.0488 33.802L67.0343 30.8369C64.968 31.7858 58.1198 51.2368 55.345 55.9809C56.4077 56.8704 57.8836 58.0565 59.0053 59.0053Z" fill="#4C2518"/>
<path d="M91.5935 33.0311C91.5935 33.0311 99.0322 29.9474 101.217 38.6054C103.46 47.2635 101.63 66.0028 99.0912 68.3749C96.5526 70.747 79.8452 66.9517 79.8452 66.9517L91.5935 33.0311Z" fill="#6C2E3F"/>
<path d="M96.1983 34.0392C95.785 33.6834 95.726 33.0904 95.9621 32.616C96.3163 32.0822 96.4934 31.4892 96.3754 31.1334C96.2573 30.7776 95.5489 30.3625 93.9549 30.2439C90.1175 29.9474 88.1693 31.4892 87.3428 32.4974C86.9885 32.9125 86.4572 33.0311 85.9849 32.7939C85.3355 32.4974 85.0994 31.6078 85.6307 31.0148C86.8114 29.6509 89.35 27.5753 94.191 27.9904C96.5525 28.1683 98.0284 28.9392 98.5597 30.3032C99.032 31.5485 98.5007 32.9125 97.9694 33.8613C97.5561 34.395 96.7296 34.5136 96.1983 34.0392Z" fill="#7A364B"/>
<path d="M93.1287 31.5486C93.1287 31.5486 100.567 46.2554 99.6228 52.3635L92.3022 52.6007C92.3022 52.6007 89.5865 43.2903 90.4721 40.7403C91.2986 38.1311 93.1287 31.5486 93.1287 31.5486Z" fill="#401F16"/>
<path d="M88.819 111.487L88.4648 115.935C88.4648 115.935 93.601 116.172 93.66 116.113C93.719 115.994 93.9552 111.487 93.9552 111.487H88.819Z" fill="#2D231E"/>
<path d="M71.58 111.487L71.2258 115.935C71.2258 115.935 76.362 116.172 76.421 116.113C76.4801 115.994 76.7162 111.487 76.7162 111.487H71.58Z" fill="#2D231E"/>
<path d="M35.6269 5.04064C35.4498 5.09994 29.8413 -0.711633 24.587 5.27785C17.9749 12.8092 18.7424 23.5428 19.0375 29.7695C19.3918 29.3544 34.21 32.0822 39.1691 24.8474C44.1872 17.494 40.4088 3.55809 35.6269 5.04064Z" fill="#2B150F"/>
<path d="M74.355 27.4567C74.355 27.4567 77.0116 26.2707 80.3767 26.3893C83.7418 26.5079 85.69 27.4567 86.0442 28.109C86.3394 28.8207 85.8671 32.6753 85.8671 32.6753L73.7056 34.0985L74.355 27.4567Z" fill="#5D3E34"/>
<path d="M76.7757 107.573C77.6612 90.2573 75.1226 91.9771 75.2997 89.6643C75.4178 87.3515 76.4805 76.7958 76.8937 74.483C77.1299 73.297 77.8383 73.0598 78.1335 74.0086C78.5468 75.3133 79.9046 84.6236 82.3841 91.6212C82.7384 92.6887 83.0336 93.7561 83.4468 94.8235C84.4504 97.3735 86.1625 103.126 87.4613 107.573H93.5421C93.4831 105.616 93.365 103.541 93.2469 102.296C92.4794 95.6538 89.9408 90.7317 89.2914 88.7155C88.8782 87.5887 89.1734 79.2865 89.0553 74.3051C88.9963 70.0947 88.8191 65.825 88.1107 61.6738C87.5203 58.3529 93.1879 31.5486 93.1879 31.5486C92.1842 30.8369 91.1216 30.2439 89.8818 29.8881C87.9926 29.3544 75.5949 28.4056 69.3961 29.8881C68.5695 30.066 68.3924 30.3032 67.625 30.7183C67.625 30.7183 67.5659 57.5227 67.743 60.5471C67.9201 63.0378 67.9792 65.5285 67.743 68.0191C67.5659 70.0947 66.9165 72.0517 66.7394 74.1272C65.8538 85.5132 68.9238 96.5433 70.7539 107.633H76.7757V107.573Z" fill="#E79D84"/>
<path d="M76.7756 107.218C77.6021 90.3166 75.1226 91.977 75.2406 89.7236C75.3587 87.4108 76.4214 76.8551 76.8346 74.5423C77.0708 73.3563 77.7792 73.1191 78.0744 74.0679C78.4877 75.3725 79.8455 84.6829 82.325 91.6805C82.6793 92.748 82.9744 93.8154 83.3877 94.8828C84.3323 97.3735 86.0444 102.889 87.2841 107.277H93.424C93.3649 105.439 93.2468 103.541 93.1288 102.355C92.3613 95.7131 89.8227 90.791 89.1733 88.7747C88.76 87.648 89.0552 79.3458 88.9372 74.3644C88.8781 70.154 88.701 65.8843 87.9926 61.7331C87.4022 58.4122 93.0697 31.6078 93.0697 31.6078C92.0661 30.8962 91.0034 30.3032 89.7637 29.9474C89.0552 29.7695 86.8118 29.473 83.9781 29.2951C83.2696 30.8369 82.0889 32.0229 80.1997 32.3194C78.7828 32.4973 77.0708 32.2008 75.89 31.3113C75.1816 30.7776 74.7683 30.066 74.4141 29.2951C72.5249 29.4137 70.6948 29.6509 69.2779 29.9474C68.4514 30.1253 67.6839 30.4811 66.9165 30.8369C66.9165 30.8369 67.4478 57.582 67.6249 60.6064C67.802 63.0971 67.861 65.5877 67.6249 68.0784C67.4478 70.154 66.7984 72.1109 66.6213 74.1865C65.7948 85.4538 68.6876 96.3061 70.5767 107.277H76.7756V107.218Z" fill="#EFEBE3"/>
<path d="M71.049 110.123H76.5985C77.8973 90.1387 75.1226 92.1549 75.2406 89.7236C75.3587 87.4108 76.4214 76.8551 76.8346 74.5423C77.0708 73.3563 77.7792 73.1191 78.0744 74.0679C78.4877 75.3725 79.8455 84.6829 82.3251 91.6805C82.6793 92.748 82.9745 93.8154 83.3877 94.8828C84.5685 97.9665 86.8709 105.676 88.1107 110.123H93.542C93.483 107.573 93.3649 104.193 93.1878 102.296C92.4203 95.6537 89.8818 90.7317 89.2324 88.7154C88.8191 87.5887 89.1143 79.2865 88.9962 74.3051C88.9372 70.0947 88.7601 65.825 88.0516 61.6738C87.4613 58.3529 93.1288 31.5485 93.1288 31.5485C92.1252 30.8369 91.0625 30.2439 89.8227 29.8881C89.1143 29.7102 86.8709 29.4137 84.0371 29.2358C83.3287 30.7776 82.148 31.9637 80.2588 32.2602C78.8419 32.4381 77.1298 32.1416 75.9491 31.252C75.2407 30.7183 74.8274 30.0067 74.4732 29.2358C73.1153 29.2951 71.8165 29.473 70.6358 29.6509C70.5767 29.6509 70.5767 29.7102 70.5177 29.7102C69.5731 30.3625 68.8056 31.252 67.9791 32.0823C67.9201 32.7939 67.743 33.5648 67.6839 34.2764C67.5659 35.4625 67.5659 36.7078 67.5068 37.8938C67.5068 38.2496 67.3297 38.5461 67.1526 38.7834C67.3297 46.9077 67.5659 58.5901 67.6839 60.4878C67.8611 62.9785 67.9201 65.4692 67.6839 67.9598C67.5068 70.0354 66.8574 71.9923 66.6803 74.0679C65.7948 85.6911 68.9828 96.8991 70.8129 108.226C70.931 108.7 70.99 109.352 71.049 110.123Z" fill="#EFEBE3"/>
<path d="M89.2323 88.7155C88.819 87.5887 89.1142 79.2865 88.9961 74.3051C88.9371 70.6877 88.76 67.0703 88.2877 63.4529C86.3985 63.8087 84.5684 64.4017 82.7382 64.5203C79.137 64.7575 75.4767 64.461 71.8755 64.0459C70.5176 63.868 69.1598 63.6901 67.8019 63.4529C67.861 64.9354 67.8019 66.4773 67.6839 67.9598C67.5067 70.0354 66.8573 71.9924 66.6802 74.0679C65.7947 85.6911 70.5176 106.565 70.6357 111.547L77.3659 112.199C77.7201 90.9096 75.1225 92.2143 75.2406 89.6643C75.3586 87.3515 76.5984 76.4993 77.0117 74.2458C77.2478 73.0598 77.484 73.3563 77.7791 74.3051C78.1924 75.6098 79.8454 84.6236 82.325 91.6212C82.6792 92.6887 82.9744 93.7561 83.3876 94.8235C85.0407 99.034 87.9925 111.428 88.2287 112.851L94.7227 112.555C94.6046 112.258 94.2504 105.794 93.8962 102.651C93.1877 96.0689 89.8817 90.7317 89.2323 88.7155Z" fill="#2B2B2B"/>
<path d="M76.4214 36.6485C76.3034 36.4706 76.2443 36.352 76.1263 36.1741C76.0672 36.0555 76.0082 35.9368 76.0082 35.7589C75.2407 34.5136 74.4142 33.3869 73.2334 32.2601C72.584 31.6078 72.8792 30.7776 73.4696 30.3625C73.3515 30.0067 73.2925 29.6509 73.2334 29.2951C71.8166 29.4137 70.4587 29.5916 69.337 29.8881C68.5105 30.066 67.743 30.4218 66.9756 30.7776C66.9756 30.7776 67.2117 53.1344 66.5033 59.8948C66.3262 61.7924 65.8539 63.4529 65.7358 66.418C67.0346 68.0784 73.5286 67.9598 74.7684 67.6633C74.8274 58.8866 75.4768 49.4577 76.5985 40.7403C76.7166 39.7322 76.8347 38.9612 77.0118 37.9531C77.0118 37.8938 76.5985 36.945 76.4214 36.6485Z" fill="#8E6651"/>
<path d="M89.4683 58.2936C90.4719 51.296 93.1285 31.5485 93.1285 31.5485C92.1249 30.8369 91.0623 30.2439 89.8225 29.8881C89.2912 29.7102 87.8743 29.5322 85.9851 29.4136C86.0441 29.8881 85.9851 30.3625 85.808 30.7776C85.6899 31.0148 85.5718 31.3113 85.4538 31.5485C85.3947 31.6078 85.2176 32.0822 85.3357 31.845C85.2766 32.0229 85.1586 32.2008 85.0405 32.3194C84.9815 32.438 84.9224 32.4973 84.8634 32.6159C84.7453 32.7938 84.6272 32.9124 84.5092 32.9717C84.0369 33.5648 83.5646 34.0985 83.0333 34.6322C82.1477 35.5217 80.8489 36.352 80.1404 37.4194C80.0224 37.6566 79.8453 37.8345 79.6091 37.9531C79.5501 38.3089 79.491 38.6647 79.432 39.0205C78.1332 48.3309 77.4838 58.4715 77.4838 67.9005C84.0369 68.9086 87.402 68.6121 90.4719 67.3075C90.3538 65.4098 89.2321 60.132 89.4683 58.2936Z" fill="#8E6651"/>
<path d="M77.0707 37.8939C77.0707 37.8939 74.8273 34.6916 71.2851 35.9962C71.2851 35.9962 69.573 29.7102 74.414 27.3974C74.355 27.4567 74.0008 31.5486 77.0707 37.8939Z" fill="#6C493B"/>
<path d="M79.6685 37.8938C81.9119 34.0985 86.1625 32.0822 86.0444 28.0497C86.0444 28.0497 88.4059 32.3788 85.8083 37.2415C85.8083 37.3008 84.9228 35.2252 79.6685 37.8938Z" fill="#6C493B"/>
<path d="M67.6249 39.4949V40.5031L74.7093 40.681V39.8508L67.6249 39.4949Z" fill="#BF9C8C"/>
<path d="M88.3469 40.1473L88.2288 41.1554L81.4396 40.7403L81.4986 39.9101L88.3469 40.1473Z" fill="#BF9C8C"/>
<path d="M66.8571 54.7356C66.8571 55.1507 66.8571 55.5658 66.7981 55.9216L69.6318 54.1425L69.3957 52.8972L66.8571 54.7356Z" fill="#BF9C8C"/>
<path d="M86.3394 56.0995C86.3394 56.0995 88.3466 57.8192 89.4683 58.768C89.4683 58.5901 89.4683 58.4122 89.5274 58.2936C89.5864 57.9971 89.6454 57.6413 89.6454 57.2855L87.0478 55.032L86.3394 56.0995Z" fill="#BF9C8C"/>
<path d="M80.3768 22.4161L79.8454 22.3568C78.7828 22.2382 77.7792 23.0684 77.6611 24.1358L76.7165 29.8288C76.5984 30.8962 77.7792 31.9044 78.9009 32.023L79.4322 32.0823C80.4949 32.2009 81.8527 31.0741 81.9708 29.9474L82.1479 24.5509C82.266 23.5428 81.4394 22.5347 80.3768 22.4161Z" fill="#E79D84"/>
<path d="M80.3765 22.4161L79.8452 22.3568C78.7825 22.2382 77.7789 23.0684 77.6608 24.1358L77.1295 27.3381C77.956 27.6939 78.7235 27.9312 79.6681 27.9905C80.6127 28.0498 81.3211 27.8719 82.0296 27.516L82.0886 24.5509C82.2657 23.5428 81.4392 22.5347 80.3765 22.4161Z" fill="#E09178"/>
<path d="M70.0454 15.1219C69.1599 15.2998 68.5695 16.4266 68.8057 17.6719C69.0418 18.9172 69.9274 19.7475 70.8719 19.5696C71.7575 19.3917 72.3479 18.2649 72.1117 17.0196C71.8756 15.7743 70.931 14.944 70.0454 15.1219Z" fill="#E09178"/>
<path d="M80.3768 4.92203L77.3069 4.98134C73.2334 5.09994 70.0454 9.66618 70.1635 13.758L70.2815 19.3324C70.3996 23.4242 73.7647 26.6858 77.8382 26.5672L80.9081 26.5079C84.9817 26.3893 88.2287 23.0091 88.1106 18.9173L87.9926 13.3429C87.8745 9.31036 84.4504 4.86273 80.3768 4.92203Z" fill="#E79D84"/>
<path d="M89.1145 4.56623C89.1145 4.56623 89.7048 3.97321 89.5868 3.7953C89.1735 3.6767 88.8783 3.8546 88.6422 3.97321C88.9374 3.32089 89.1145 2.54997 88.9964 1.83834C88.406 1.83834 87.8747 2.37206 87.8156 2.96508C87.9337 2.49066 87.8156 1.95695 87.5205 1.54184C87.4614 1.48253 87.4614 1.42323 87.4024 1.42323C87.2843 1.42323 87.2253 1.48253 87.1072 1.60114C86.9301 1.83834 86.8711 2.60927 86.8711 2.72787C86.9301 2.78717 86.9301 2.78717 86.8711 2.78717C86.8711 2.78717 86.8711 2.78717 86.8711 2.72787C86.5759 2.49066 85.1 1.60114 83.6831 1.06742C81.0855 0.0592917 78.2517 0.237197 78.3107 0.296499C78.4878 0.889517 78.724 1.48253 79.0192 2.01625C77.4252 0.593008 75.2408 -0.118614 73.1155 0.118594C73.1745 0.652309 73.2336 1.18603 73.4697 1.66044C73.6468 2.13485 73.942 2.54997 74.4143 2.78717C72.7613 1.89765 70.9902 1.18603 69.16 1.42323C69.042 1.42323 68.9829 1.48253 68.9239 1.54184C68.8648 1.60114 68.8648 1.66044 68.8648 1.77904C68.8648 2.90578 69.16 4.09181 69.8094 5.04064C69.6323 4.86274 69.3962 4.68483 69.101 4.62553C68.6877 5.45575 68.6877 6.40458 68.8058 7.35341C69.101 9.60688 69.5143 11.1487 69.9275 12.0976C69.8685 14.0545 70.2227 15.5964 70.2227 15.6557C70.2227 15.6557 70.2227 15.5371 70.2227 15.2998V15.6557C70.2817 15.6557 71.1082 10.4964 72.9384 9.19176C75.2999 7.53131 75.1227 9.78478 78.3107 9.25107C80.4361 8.89526 83.3879 7.1755 85.218 10.615C85.7494 11.6231 85.5723 13.6987 85.9855 14.6475C86.3397 15.4778 87.2253 15.8336 88.2289 16.0115L88.1108 14.7661C88.1108 14.7661 88.1108 13.758 88.1108 12.572C89.6458 10.4371 89.6458 6.52318 89.1145 4.68483C88.9964 4.56623 89.1145 4.56623 89.1145 4.56623Z" fill="#4C2518"/>
<path d="M89.055 14.6475C88.1694 14.4103 87.1658 15.1813 86.8706 16.3673C86.5754 17.5533 86.9887 18.7394 87.8742 18.9766C88.7598 19.2138 89.7634 18.4429 90.0586 17.2568C90.4128 16.0708 89.9405 14.8847 89.055 14.6475Z" fill="#E79D84"/>
<path d="M32.6157 29.1172L32.8518 24.551C32.9109 23.4242 32.1434 22.4754 31.1398 22.4754C30.1361 22.4161 29.3096 23.3056 29.2506 24.373L29.0144 29.0579V29.1172H32.6157Z" fill="#E5A185"/>
<path d="M30.6679 25.5591C29.5462 25.6184 28.3064 25.3812 27.1257 24.8474C21.9895 22.4754 20.8087 15.1812 22.9341 10.4371C22.9341 10.4371 22.9341 10.3778 22.9931 10.3778C23.2292 9.84409 23.5244 9.31037 23.8786 8.83596C25.0594 7.11621 26.6534 5.75227 28.6016 5.09995C29.4871 4.80344 30.4317 4.62553 31.3763 4.68484C36.9848 4.68484 40.0547 10.7336 39.8186 15.7743C39.5234 20.5184 35.4499 25.3812 30.6679 25.5591Z" fill="#E5A185"/>
<path d="M35.6269 5.04064C35.4498 5.09994 29.8413 -0.711634 24.587 5.27785C17.9749 12.8092 18.7424 23.5428 19.0375 29.7695C19.0375 29.7695 20.7496 16.6045 27.6569 11.208C29.6642 9.66618 33.3835 7.76852 33.3835 7.76852C33.3835 7.76852 33.7377 9.42897 35.0365 11.1487C36.9847 14.4103 40.2317 16.3673 40.8811 20.2812C40.8811 20.5777 40.9402 20.8149 40.9402 21.1114C43.0065 13.5801 39.6414 3.7953 35.6269 5.04064Z" fill="#3F1B14"/>
<path d="M40.9404 17.9684C40.5272 19.2138 39.5236 19.9847 38.638 19.6882C37.7525 19.3917 37.3982 18.1463 37.8115 16.9603C38.2248 15.715 39.2284 14.944 40.1139 15.2406C40.9995 15.5371 41.3537 16.7824 40.9404 17.9684Z" fill="#E5A185"/>
<path d="M25.8859 28.1684C25.8859 28.1684 20.8087 39.1392 17.8569 42.9938C14.2556 47.7379 10.3002 57.1669 10.3002 57.1669L11.4219 57.8192C11.4219 57.8192 18.8605 48.924 20.1003 46.4926C21.3401 44.0612 26.122 30.8962 26.122 30.8962L25.8859 28.1684Z" fill="#D78C74"/>
<path d="M11.0678 55.7437L7.70274 62.4448L8.88347 66.7738C9.4148 66.6552 8.70636 63.0971 8.70636 63.0971C8.70636 63.0971 9.76902 66.4773 10.0052 66.4773C10.6546 66.2994 9.70999 63.1564 9.70999 63.1564L11.6582 60.1913C11.6582 60.1913 12.0715 61.7331 12.8389 62.682C13.3112 63.2157 14.0197 62.8006 14.0197 62.8006C14.0197 62.8006 12.957 61.0808 12.7799 59.8355C12.6028 58.8867 11.8943 56.5146 11.8943 56.5146L11.0678 55.7437Z" fill="#D78C74"/>
<path d="M26.0041 52.3041C26.0041 52.3041 13.2522 50.2286 12.4257 53.4902C11.5992 56.6925 10.1823 68.2563 11.7763 69.1458C13.3112 69.9761 25.5909 69.6796 25.5909 69.6796L26.0041 52.3041Z" fill="#4C2518"/>
<path d="M23.5243 39.495C26.5352 39.7915 29.6051 40.1473 32.5569 40.6217C32.9112 39.3764 33.4425 38.1903 33.7967 36.945C34.328 35.2845 34.8003 33.5648 35.2726 31.9043C35.6269 30.7183 36.1582 29.4137 36.3943 28.1683C32.0256 27.6939 27.775 27.9904 26.3581 28.1683C25.9448 30.8962 24.8231 33.6241 23.5834 36.2334C23.6424 37.3008 23.6424 38.4275 23.5243 39.495Z" fill="#E5A185"/>
<path d="M24.8822 35.5811C26.5942 31.4893 28.0702 27.8719 28.0702 27.8719H26.4762C25.9448 27.8719 25.4135 28.1091 25.1774 28.5835C24.4689 29.7695 22.993 32.1416 21.7532 34.7509C22.5207 34.9881 24.0557 35.3439 24.8822 35.5811Z" fill="#F2293A"/>
<path d="M19.0376 56.7518C19.0376 56.7518 16.499 74.5423 18.9195 86.1062C18.9195 86.1062 18.2111 106.565 18.3292 112.851C18.3292 113.563 20.3954 112.851 20.3954 112.851C20.3954 112.851 28.3064 92.2736 25.1774 82.133L30.1955 60.3099L19.0376 56.7518Z" fill="#D78C74"/>
<path d="M15.0819 54.5576H13.665C13.3108 54.5576 13.1336 54.2018 13.2517 53.9053C14.1373 51.9483 16.912 45.9589 19.4506 40.5031C26.0627 26.5079 25.8856 27.7532 26.7711 27.7532L28.3651 27.8125C27.1254 28.9392 21.1626 42.638 15.9674 54.0832C15.7903 54.3204 15.4951 54.5576 15.0819 54.5576Z" fill="#4C2518"/>
<path d="M28.3064 57.2855C28.3064 57.2855 28.6607 78.6934 30.1366 83.3783C30.1366 83.3783 33.6788 98.6188 37.162 113.207L39.5234 110.954C39.5234 110.954 41.2355 92.1549 36.7487 81.955C36.7487 81.955 42.5343 61.1994 40.7632 55.6251C38.9921 50.0507 28.3064 57.2855 28.3064 57.2855Z" fill="#E5A185"/>
<path d="M18.3291 105.201C19.687 105.676 21.1039 106.032 22.5207 106.269C24.587 99.3305 27.0666 88.5969 25.0593 82.133L30.0775 60.3099L18.9785 56.7518C18.9785 56.7518 16.44 74.5423 18.8605 86.1062C18.8605 86.1062 18.5062 96.8991 18.3291 105.201Z" fill="#2C393D"/>
<path d="M35.686 106.98C36.2763 106.921 36.8667 106.802 37.4571 106.684C38.2245 106.506 38.992 106.328 39.8185 106.091C39.9956 99.8049 39.8185 88.8934 36.8077 81.8957C36.8077 81.8957 42.5933 61.1401 40.8222 55.5658C39.0511 49.9914 28.3654 57.2262 28.3654 57.2262C28.3654 57.2262 28.7196 78.6341 30.1955 83.319C30.1365 83.319 32.7341 94.527 35.686 106.98Z" fill="#2C393D"/>
<path d="M18.565 109.53L14.4915 118.011L12.1891 118.07L13.0746 119.197H18.6241L21.2807 114.749L19.9229 119.197H21.2217L23.9964 112.199L21.9892 106.862L18.565 109.53Z" fill="#D78C74"/>
<path d="M22.5798 108.522C18.9196 118.07 14.4918 118.011 14.4918 118.011L12.1303 118.07L13.0749 119.137H18.6244L21.281 114.69L19.9232 119.137H21.222L23.9967 112.14L22.5798 108.522Z" fill="#F2293A"/>
<path d="M36.1582 108.522L33.8558 119.79H40.645L39.5823 107.929L36.1582 108.522Z" fill="#E5A185"/>
<path d="M36.1582 108.522L33.8558 119.79H40.645L39.7004 108.404L39.3462 117.595L36.0401 117.655L36.1582 108.522Z" fill="#F2293A"/>
<path d="M41.7667 56.7518C38.8739 48.5681 34.9775 46.2554 34.6823 43.9426C34.3871 41.6298 37.8703 28.2869 37.8703 28.2869C36.9257 28.1683 35.922 28.0497 34.9775 27.9904C34.0329 29.2951 31.4353 30.066 29.7822 30.066C28.3063 30.066 28.4244 28.6427 28.6015 27.8718C28.1882 27.8125 27.775 27.8125 27.775 27.8125C27.775 27.8125 21.458 34.4543 21.6942 36.2334C21.9303 37.9531 23.4063 39.0205 23.4063 39.0205C23.4063 39.0205 17.9749 53.9646 18.152 59.1831C18.3291 64.4017 43.892 62.8005 41.7667 56.7518Z" fill="#F2293A"/>
<path d="M77.3661 120.145L78.0155 116.765L77.5432 113.385C77.5432 113.385 76.0673 113.089 75.9492 113.741C75.595 115.757 72.9974 114.037 72.9974 114.037C72.9974 114.037 72.407 111.665 70.5769 112.377C68.7467 113.089 66.4443 115.461 66.4443 115.461C66.4443 115.461 63.0202 116.825 62.4888 117.773C62.0165 118.663 62.1346 120.086 62.1346 120.086L77.3661 120.145Z" fill="#CFCFCF"/>
<path d="M61.544 119.137L61.7211 120.027L78.2514 120.323L78.3694 118.604L61.544 119.137Z" fill="#666666"/>
<path d="M70.3408 115.223C70.695 114.927 69.6914 113.622 69.2191 113.088C68.8649 113.326 68.5106 113.563 68.2154 113.859C68.6877 114.334 69.9865 115.52 70.3408 115.223Z" fill="#666666"/>
<path d="M66.2083 115.52C66.6216 115.994 67.5662 117.062 67.9794 116.884C68.3927 116.647 67.4481 115.342 67.0939 114.808C66.6806 115.223 66.3854 115.461 66.3854 115.461C66.3854 115.461 66.3264 115.461 66.2083 115.52Z" fill="#666666"/>
<path d="M66.4444 117.773C66.7396 117.595 66.3263 116.172 66.0902 115.579C65.854 115.698 65.4408 115.876 64.9685 116.054C65.2637 116.528 66.1492 118.011 66.4444 117.773Z" fill="#666666"/>
<path d="M69.3373 116.054C69.6915 115.816 68.6288 114.393 68.1565 113.859C67.7433 114.156 67.389 114.452 67.0939 114.749C67.6842 115.164 69.0421 116.291 69.3373 116.054Z" fill="#666666"/>
<path d="M61.957 119.493C61.957 119.493 60.5992 116.706 64.4956 116.231C64.4956 116.231 65.6763 117.299 65.6173 119.315L61.957 119.493Z" fill="#666666"/>
<path d="M75.1224 119.137C75.1224 119.137 76.6573 114.571 77.661 114.63C77.779 114.63 78.6646 117.299 77.9561 119.019L75.1224 119.137Z" fill="#666666"/>
<path d="M94.6046 120.145L95.254 116.765L94.7817 113.385C94.7817 113.385 93.3058 113.089 93.1877 113.741C92.8335 115.757 90.2359 114.037 90.2359 114.037C90.2359 114.037 89.6455 111.665 87.8154 112.377C85.9852 113.089 83.6828 115.461 83.6828 115.461C83.6828 115.461 80.2586 116.825 79.7273 117.773C79.255 118.663 79.3731 120.086 79.3731 120.086L94.6046 120.145Z" fill="#CFCFCF"/>
<path d="M78.7829 119.137L78.96 120.027L95.3723 120.383L95.6084 118.604L78.7829 119.137Z" fill="#666666"/>
<path d="M87.5792 115.223C87.9334 114.927 86.9298 113.622 86.4575 113.088C86.1032 113.326 85.749 113.563 85.4538 113.859C85.9261 114.334 87.1659 115.52 87.5792 115.223Z" fill="#666666"/>
<path d="M83.4467 115.52C83.86 115.994 84.8046 117.062 85.2178 116.884C85.6311 116.647 84.6865 115.342 84.3323 114.808C83.919 115.223 83.6238 115.461 83.6238 115.461C83.6238 115.461 83.5648 115.461 83.4467 115.52Z" fill="#666666"/>
<path d="M83.6828 117.773C83.978 117.595 83.5647 116.172 83.3286 115.579C83.0924 115.698 82.6792 115.876 82.2069 116.054C82.502 116.528 83.3876 118.011 83.6828 117.773Z" fill="#666666"/>
<path d="M86.5757 116.054C86.9299 115.816 85.8672 114.393 85.3949 113.859C84.9817 114.156 84.6274 114.452 84.3323 114.749C84.8636 115.164 86.2805 116.291 86.5757 116.054Z" fill="#666666"/>
<path d="M79.1959 119.493C79.1959 119.493 77.838 116.706 81.7345 116.231C81.7345 116.231 82.9152 117.299 82.8562 119.315L79.1959 119.493Z" fill="#666666"/>
<path d="M92.3614 119.137C92.3614 119.137 93.8963 114.571 94.8999 114.63C95.018 114.63 95.9035 117.299 95.1951 119.019L92.3614 119.137Z" fill="#666666"/>
<path d="M88.3464 29.1171C88.3464 29.1171 86.2801 31.6671 83.9777 40.9182C81.6753 50.1693 89.9404 61.4366 89.9404 61.4366L91.0031 55.5657C91.0031 55.5657 86.9295 46.9077 88.2283 41.2147C89.5271 35.5217 92.2428 30.7183 92.2428 30.7183L88.3464 29.1171Z" fill="#6C2E3F"/>
<path d="M89.1144 44.0019C89.1144 44.0019 95.0771 44.1798 97.7338 48.3902C100.213 52.3042 99.5049 52.66 99.5049 52.66C99.5049 52.66 91.4169 57.9378 86.9891 47.6193C84.6867 42.2229 89.1144 44.0019 89.1144 44.0019Z" fill="#4C2518"/>
<path d="M88.3468 51.2367C88.3468 51.2367 90.295 50.9402 91.1215 49.517C92.007 48.0344 91.7709 45.1879 90.7082 43.7054C90.0588 43.5868 88.3468 43.3496 88.3468 43.3496C88.3468 43.3496 84.7455 42.2228 87.048 47.6193C87.5793 48.9239 87.6383 50.4065 88.3468 51.2367Z" fill="#BF9C8C"/>
<path d="M89.1145 44.0019C89.1145 44.0019 89.4097 42.0449 87.9338 41.9263C86.5169 41.867 85.4543 41.2147 84.3916 41.0368C83.3289 40.8589 83.6241 41.8077 82.4434 41.8077C81.2627 41.7484 80.7904 41.7484 80.7904 41.7484C80.7904 41.7484 80.0819 42.9345 81.0855 43.5275C82.0892 44.1205 82.4434 43.824 82.4434 43.824C82.4434 43.824 82.1482 44.3577 82.6205 44.5949C83.0928 44.8321 83.0928 44.8321 83.0928 44.8321C83.0928 44.8321 82.6205 44.8914 82.7976 45.7216C82.9747 46.5519 83.5061 46.7891 83.5061 46.7891C83.5061 46.7891 83.2699 47.3228 83.388 47.7379C83.5651 48.153 83.8603 48.2716 83.8603 48.2716C83.8603 48.2716 83.7422 48.6867 83.8012 48.9239C83.8603 49.1611 84.8049 49.8135 84.8049 49.8135H88.3471C88.3471 49.8135 88.9374 49.0425 88.7603 48.5681C88.7603 48.5681 89.7639 47.1449 89.7639 46.967C89.7639 46.8484 89.5868 46.8484 89.5278 46.4926C89.4688 46.1368 90.1772 45.6623 90.0591 45.3065C90.0001 44.9507 89.1145 44.0019 89.1145 44.0019Z" fill="#D78C74"/>
<path d="M89.1145 44.0019C89.1145 44.0019 89.4097 42.0449 87.9338 41.9263C86.5169 41.867 85.4543 41.2147 84.3916 41.0368C83.3289 40.8589 83.6241 41.8077 82.4434 41.8077C81.2627 41.7484 80.7904 41.7484 80.7904 41.7484C80.7904 41.7484 80.0819 42.9345 81.0855 43.5275C82.0892 44.1205 82.4434 43.824 82.4434 43.824C82.4434 43.824 82.1482 44.3577 82.6205 44.5949C83.0928 44.8321 83.0928 44.8321 83.0928 44.8321C83.0928 44.8321 82.6205 44.8914 82.7976 45.7216C82.9747 46.5519 83.5061 46.7891 83.5061 46.7891C83.5061 46.7891 83.2699 47.3228 83.388 47.7379C83.5651 48.153 83.8603 48.2716 83.8603 48.2716C83.8603 48.2716 83.388 49.0425 83.447 49.2797C83.506 49.517 84.4506 49.9321 84.4506 49.9321L88.8784 49.6949C88.8784 49.6949 89.5278 48.9239 89.3507 48.4495C89.3507 48.4495 89.7639 47.1449 89.7639 46.967C89.7639 46.8484 89.5868 46.8484 89.5278 46.4926C89.4688 46.1368 90.1772 45.6623 90.0591 45.3065C90.0001 44.8914 89.1145 44.0019 89.1145 44.0019Z" fill="#E5A185"/>
<path d="M98.1469 56.3367C98.1469 56.3367 93.3649 67.0703 99.0915 67.011C104.818 66.9517 106.53 57.6413 104.7 56.3367C102.929 55.032 98.1469 56.3367 98.1469 56.3367Z" fill="#6C2E3F"/>
<path d="M50.0908 59.4204C50.6221 58.9459 51.1534 59.4797 51.6848 59.0053C49.6185 56.7518 43.8329 44.7728 43.8329 44.7728C43.8329 44.7728 40.2907 35.1066 38.4605 31.3706L35.922 30.1253C36.2762 31.0148 40.4087 46.3147 40.4087 46.3147C40.4678 46.5519 48.0245 58.3529 50.0908 59.4204Z" fill="#E5A185"/>
<path d="M41.5303 36.5299C40.6448 34.0392 39.2869 28.3462 37.87 28.3462L34.3278 30.1253C34.564 30.7183 36.0399 33.802 37.6339 38.0124C38.5785 37.5973 40.5857 36.8857 41.5303 36.5299Z" fill="#F2293A"/>
<path d="M55.4045 54.7355L53.7515 58.3529L57.0575 61.5552L60.7178 57.582L55.4045 54.7355Z" fill="#BF9C8C"/>
<path d="M54.046 59.0052C54.046 59.0052 51.8026 57.8192 51.2713 57.9378C50.6809 58.1157 48.5556 59.1238 48.5556 59.1832C48.5556 59.2425 47.3158 64.2238 47.6701 64.2238C48.0243 64.2831 48.6737 62.2668 48.6737 62.2668C48.6737 62.2668 49.205 64.3424 49.6183 64.2238C50.0315 64.1052 49.9134 63.3936 49.9134 63.3936C49.9134 63.3936 50.858 63.868 51.0351 63.7494C51.2123 63.6308 50.799 62.9192 50.799 62.9192C50.799 62.9192 53.1014 63.275 53.2785 63.1564C53.5147 63.0378 55.6991 61.4366 55.6991 61.4366L54.046 59.0052Z" fill="#E5A185"/>
<path d="M54.1057 61.1401C54.2828 61.3773 54.5189 62.8006 54.4599 63.2157C54.4008 63.6308 53.9285 63.2157 53.9285 63.2157C53.9285 63.2157 53.7514 63.7494 53.5743 63.8087C53.3972 63.868 53.043 63.5122 53.043 63.5122C53.043 63.5122 52.2755 64.461 52.1574 64.1645C52.0394 63.9273 51.8032 63.6308 51.8032 63.6308C51.8032 63.6308 51.3309 64.1645 51.2128 64.1645C51.0357 64.1645 50.5044 62.6227 50.5044 62.6227L54.1057 61.1401Z" fill="#E5A185"/>
<path d="M32.8523 18.7987L27.0667 18.858C26.7125 18.858 26.4763 19.2138 26.6534 19.5696C27.3028 21.1114 28.5426 22.1196 30.0185 22.1196C31.4354 22.1196 32.6752 21.0521 33.3246 19.5103C33.3836 19.1545 33.1475 18.7987 32.8523 18.7987Z" fill="white"/>
<path d="M25.5316 14.1731C24.8822 14.1731 24.3508 14.8254 24.2918 15.6556C24.2328 16.4859 24.7641 17.1975 25.4135 17.2568C26.0629 17.2568 26.5942 16.6045 26.6533 15.7742C26.6533 14.944 26.181 14.2324 25.5316 14.1731Z" fill="#381911"/>
<path d="M34.5639 14.2917C33.9145 14.2917 33.3831 14.944 33.3241 15.7743C33.2651 16.6045 33.7964 17.3161 34.4458 17.3754C35.0952 17.3754 35.6265 16.7231 35.6856 15.8929C35.7446 15.0033 35.2133 14.2917 34.5639 14.2917Z" fill="#381911"/>
<path d="M80.7311 20.1033H74.7094C74.3551 20.1033 74.119 20.5184 74.2371 20.8742C74.9455 22.5939 76.2443 23.78 77.7793 23.78C79.2552 23.78 80.554 22.5939 81.2034 20.8742C81.3215 20.5184 81.0853 20.1033 80.7311 20.1033Z" fill="white"/>
<path d="M73.2924 14.4696C72.702 14.4103 72.2298 15.122 72.1707 16.0708C72.1117 17.0196 72.5249 17.8498 73.1153 17.9091C73.7057 17.9684 74.178 17.2568 74.237 16.308C74.296 15.3592 73.8828 14.5289 73.2924 14.4696Z" fill="#4C2518"/>
<path d="M82.0887 14.351C81.4984 14.2917 81.0261 15.0033 80.908 15.9522C80.7899 16.901 81.2622 17.7905 81.8526 17.8498C82.443 17.9091 82.9153 17.1975 83.0333 16.2487C83.0924 15.2998 82.6791 14.4696 82.0887 14.351Z" fill="#4C2518"/>
<path d="M47.7886 108.7L49.3825 109.945L47.8476 112.436L45.9584 110.242L47.7886 108.7Z" fill="#3A3C41"/>
<path d="M31.0811 110.598L29.7823 112.911L31.9667 114.512L33.7378 111.902L31.0811 110.598Z" fill="#3A3C41"/>
<path d="M48.7334 109.471C48.6153 111.606 47.2574 111.725 47.2574 111.725C47.6117 112.673 49.0285 115.401 47.7297 118.011C47.4346 118.604 46.9032 119.908 48.084 120.62L48.6153 120.916C48.7924 121.035 48.9695 121.094 49.0876 121.094C50.3274 119.73 51.5081 118.307 52.8069 117.002C53.1021 116.054 53.4563 115.579 53.6925 115.342C53.8105 115.223 53.9286 115.045 54.0467 114.927L55.1093 112.733C55.2274 112.555 55.1093 112.318 54.8732 112.14C53.6334 111.309 49.796 109.056 48.7334 109.471Z" fill="#392F2B"/>
<path d="M48.9102 111.843C49.5596 111.191 49.7367 110.361 49.5596 109.471C49.5006 109.234 48.7922 109.175 48.7331 109.471C48.615 111.606 47.2572 111.725 47.2572 111.725C47.0211 111.902 47.3162 112.673 47.6114 112.555C48.0837 112.495 48.497 112.258 48.9102 111.843Z" fill="#7F7571"/>
<path d="M49.0874 112.97C48.8512 112.911 48.0247 112.97 47.7295 113.029C47.6705 114.097 47.8476 115.461 48.0247 117.18C49.0283 117.358 50.2091 117.536 50.4452 116.647C50.6223 115.994 50.5043 115.223 50.2681 114.393C50.091 113.978 49.7958 113.207 49.0874 112.97Z" fill="#7F7571"/>
<path d="M49.3827 121.391C52.0983 119.552 55.0502 114.275 55.1683 112.495C55.1683 112.377 54.9321 112.14 54.8731 112.08C54.696 111.962 54.4598 111.784 54.2237 111.725C54.1646 111.843 54.1056 112.021 54.0466 112.14C53.8104 113.207 53.3972 114.215 52.9839 115.223C52.4526 116.647 49.914 119.968 48.379 120.857L48.5561 120.976C48.8513 121.154 49.1465 121.272 49.3827 121.391Z" fill="#7F7571"/>
<path d="M41.8256 101.169C41.8256 101.169 47.257 106.98 48.2016 108.759C48.2016 108.759 47.6112 110.657 46.1353 111.309L38.5786 107.87L41.8256 101.169Z" fill="#202326"/>
<path d="M36.3947 91.7399C36.5718 92.8666 36.9851 93.934 37.3984 95.0015C37.3984 95.0608 37.4574 95.0608 37.4574 95.1201C37.5164 95.2387 37.5755 95.3573 37.5755 95.4759C37.8706 96.3061 38.1658 97.077 38.3429 97.9665C41.59 99.3305 45.9587 100.754 47.2575 99.8049C50.4455 97.3142 50.3274 94.9422 50.3274 94.9422L36.3947 91.7399Z" fill="#272C31"/>
<path d="M35.7453 91.6806C35.7453 91.6806 35.1549 95.1201 34.9778 96.4247C34.7417 98.3224 35.0368 105.379 37.1622 106.921C39.2875 108.463 39.7598 108.404 39.7598 108.404C39.7598 108.404 43.0658 99.5084 40.5863 98.0259C38.3429 96.6619 35.7453 91.6806 35.7453 91.6806Z" fill="#202326"/>
<path d="M32.4979 113.622C30.3726 113.563 30.1955 112.199 30.1955 112.199C29.3099 112.555 26.5942 114.037 23.9376 112.851C23.3472 112.614 22.0484 112.08 21.34 113.266L21.0448 113.8C20.9267 113.978 20.8677 114.156 20.8677 114.275C22.2255 115.52 23.7014 116.647 25.0593 117.892C26.0039 118.188 26.5352 118.544 26.7123 118.722C26.8304 118.841 27.0075 118.959 27.1846 119.019L29.369 120.027C29.5461 120.086 29.7822 120.027 29.9593 119.79C30.7859 118.604 32.9112 114.63 32.4979 113.622Z" fill="#392F2B"/>
<path d="M30.0774 113.859C30.7858 114.512 31.6123 114.63 32.4388 114.452C32.675 114.393 32.675 113.682 32.4388 113.622C30.3135 113.563 30.1364 112.199 30.1364 112.199C29.9593 111.962 29.1918 112.318 29.3099 112.555C29.4279 113.029 29.6641 113.444 30.0774 113.859Z" fill="#7F7571"/>
<path d="M28.9559 114.097C29.0149 113.859 28.8968 113.029 28.8968 112.733C27.8342 112.733 26.4763 112.911 24.7643 113.148C24.5871 114.156 24.4691 115.342 25.3546 115.52C26.0631 115.698 26.7715 115.579 27.539 115.283C28.0703 115.105 28.7788 114.808 28.9559 114.097Z" fill="#7F7571"/>
<path d="M20.6316 114.571C22.5208 117.24 27.8341 120.086 29.6052 120.145C29.7233 120.145 29.9594 119.908 30.0185 119.849C30.1366 119.671 30.3137 119.434 30.3727 119.197C30.2546 119.137 30.0775 119.078 29.9594 119.078C28.8968 118.841 27.8932 118.485 26.8305 118.129C25.4136 117.655 21.9895 115.164 21.1039 113.682L20.9859 113.859C20.8678 114.037 20.7497 114.334 20.6316 114.571Z" fill="#7F7571"/>
<path d="M47.3163 99.7456C47.3163 99.7456 43.1838 102.711 38.697 106.091C38.697 106.091 35.9222 110.657 33.7379 113.326C33.0294 112.911 31.3764 112.199 30.3728 111.132C30.3728 111.132 32.4391 105.794 33.7379 103.185C35.0367 100.576 41.1765 96.3061 43.3609 95.5945C45.4862 94.8829 47.3163 99.7456 47.3163 99.7456Z" fill="#272C31"/>
<path d="M36.6306 81.1249L40.1728 78.6935C32.2028 68.7308 33.0884 59.5983 32.439 59.4797L30.0185 59.0646C30.4317 59.7169 27.4799 69.2052 36.6306 81.1249Z" fill="#E7A387"/>
<path d="M37.2802 72.704C37.8116 73.8901 38.6381 76.6179 40.9405 78.0412L36.3947 82.4295C34.5645 79.8795 32.8525 77.1517 32.4983 74.6017C33.9151 73.7122 35.0368 73.1191 37.2802 72.704Z" fill="#7A344A"/>
<path d="M42.18 87.8852C42.1209 88.3003 42.298 88.6562 42.5342 88.6562C42.7703 88.6562 43.0065 88.3597 43.0655 87.9445C43.1246 87.5294 42.9474 87.1736 42.7113 87.1736C42.4161 87.1736 42.239 87.4701 42.18 87.8852Z" fill="#582C1A"/>
<path d="M43.7743 86.3434C43.6562 87.5295 44.3646 88.5969 45.4273 88.7155C46.49 88.8341 47.4936 88.0039 47.6117 86.8178C47.7297 85.6318 47.0213 84.5644 45.9586 84.4458C44.896 84.3272 43.8923 85.1574 43.7743 86.3434Z" fill="#E5A928"/>
<path d="M43.9512 86.3434C43.8331 87.4108 44.4825 88.3597 45.4271 88.4783C46.3717 88.5969 47.2573 87.8259 47.3753 86.7585C47.4934 85.6911 46.844 84.7422 45.8994 84.6236C44.9548 84.505 44.0693 85.276 43.9512 86.3434Z" fill="#EEC140"/>
<path opacity="0.22" d="M46.2535 87.5887C45.8992 87.4108 45.8402 86.2841 45.6041 85.869C45.3679 85.4539 45.1318 85.1573 44.7775 84.9201C45.0727 84.6829 45.486 84.5643 45.8992 84.6236C46.8438 84.7422 47.5523 85.6911 47.3752 86.7585C47.3752 87.4108 46.8438 87.9445 46.2535 87.5887Z" fill="white"/>
<path d="M46.7258 78.99L40.1727 77.9819C38.2245 77.9226 37.457 80.2353 37.457 82.1923C37.457 82.1923 37.8112 82.6074 37.8112 83.0818C40.5269 82.9039 48.1427 82.5481 49.7957 82.3702C49.9728 82.3109 50.209 82.3109 50.3861 82.2516C50.3861 80.4725 48.5559 79.0493 46.7258 78.99Z" fill="#E5A185"/>
<path d="M45.0726 74.8982L44.7775 74.8389C44.128 74.661 43.4196 75.0168 43.2425 75.7284L42.416 78.6935C42.2389 79.3458 42.5931 80.0574 43.3015 80.2353L43.5967 80.2946C44.2461 80.4725 44.9546 80.1167 45.1317 79.4051L45.9582 76.44C46.1353 75.7877 45.7811 75.0761 45.0726 74.8982Z" fill="#E5A185"/>
<path d="M36.1584 82.7853C36.2175 82.4295 36.2765 82.0737 36.3356 81.6585C36.5717 80.8876 36.5127 79.8795 37.8705 78.5749C38.9922 77.5074 40.9995 78.0411 40.9995 78.0411C41.6489 80.4132 45.1911 81.0062 46.0176 78.8714C47.1983 78.99 48.3791 78.99 49.5598 79.5237C51.2128 80.2946 51.3899 83.912 51.3899 83.8527C51.3899 88.4782 51.508 97.4328 51.508 97.4328C47.3164 99.7456 36.985 98.263 33.4428 95.4166C33.5018 95.4759 35.6862 86.9957 36.1584 82.7853Z" fill="#7A344A"/>
<path d="M36.8076 66.6552C36.5715 67.8413 37.1028 68.9087 37.9293 69.0866C38.7559 69.2645 39.7004 68.4343 39.9366 67.3075C40.1727 66.1215 39.6414 65.0541 38.8149 64.8762C37.9293 64.6983 37.0438 65.4692 36.8076 66.6552Z" fill="#E09178"/>
<path d="M42.4162 77.033L43.8922 77.626C47.8476 79.2272 52.3935 77.2702 53.9875 73.297L55.0501 70.6877C56.6441 66.7145 54.6959 62.1483 50.7404 60.5471L49.2645 59.9541C46.9621 59.0053 44.4235 59.3018 42.4162 60.4878C40.9994 61.3181 39.8186 62.6227 39.1692 64.2831L38.1066 66.8924C36.5126 70.8656 38.4608 75.4319 42.4162 77.033Z" fill="#E7A387"/>
<path d="M47.7296 72.3482C48.0248 72.4668 48.0839 72.9412 47.8477 73.2377C46.667 74.6017 45.014 75.1947 43.7151 74.661C42.3573 74.1273 41.6489 72.5854 41.7079 70.7471C41.7079 70.3319 42.0621 70.0947 42.4163 70.2133L47.7296 72.3482Z" fill="white"/>
<path d="M53.2199 72.5261C52.5705 73.5342 52.5705 74.7203 53.338 75.1947C54.0464 75.6691 55.1681 75.3133 55.8766 74.3052C56.526 73.297 56.526 72.111 55.7585 71.6366C54.991 71.1622 53.8693 71.518 53.2199 72.5261Z" fill="#E7A387"/>
<path d="M50.9762 68.6715C51.5075 68.8494 51.7437 69.6203 51.3894 70.4505C51.0943 71.2807 50.3858 71.8145 49.8545 71.6365C49.3232 71.4586 49.087 70.6877 49.4412 69.8575C49.7364 69.0273 50.4449 68.4936 50.9762 68.6715Z" fill="#422115"/>
<path d="M42.7112 65.825C43.2425 66.0029 43.4786 66.7738 43.1244 67.6041C42.8292 68.4343 42.1208 68.968 41.5895 68.7901C41.0581 68.6122 40.822 67.8413 41.1762 67.011C41.4714 66.1808 42.1798 65.6471 42.7112 65.825Z" fill="#422115"/>
<path d="M39.5824 62.682C38.4607 60.0727 41.8258 55.6251 43.5379 54.0832C43.715 54.3204 44.0692 54.4984 43.9511 54.7949C44.0692 54.4391 44.1282 53.4309 44.3644 53.1937C44.4825 53.0751 44.8367 53.6088 44.8957 53.7867C44.7776 52.9565 44.8957 52.4228 45.1319 51.4147C51.4488 52.6007 56.0537 57.8786 57.2344 60.5471C57.2934 60.1913 57.4115 59.8355 57.6477 59.5983C59.6549 61.9111 58.8284 64.9948 58.7103 65.4692C58.7103 65.4692 59.773 64.1052 60.0091 64.461C60.2453 64.8169 59.0645 65.825 59.0645 65.825C59.0645 65.825 59.9501 65.6471 60.0682 66.1215C60.1862 66.5959 58.8284 66.5959 58.8284 66.5959C58.8284 66.5959 57.6477 68.4343 56.1127 69.2052C56.1127 69.2052 55.1681 70.8656 54.5777 71.6366C53.2789 73.4749 54.2235 70.6877 54.4597 69.2645C55.5223 63.0971 46.4307 57.2262 42.2391 60.8436C39.6414 63.0971 38.7559 65.1727 38.6968 65.1727L39.5824 62.682Z" fill="#4C2518"/>
<path opacity="0.24" d="M58.179 66.8924C56.2898 66.6552 55.1681 64.4611 54.0464 63.275C52.0982 61.1995 49.2054 59.3611 46.3716 59.0053C44.8957 58.8274 43.4788 59.1239 42.18 59.9541C40.9402 60.7843 40.2908 61.6739 39.5824 62.8599L38.8739 65.232C38.8739 65.1727 39.8185 63.1564 42.4161 60.9029C46.6077 57.2855 55.6994 63.1564 54.6367 69.3238C54.4006 70.6877 53.397 73.5342 54.7548 71.6959C55.3452 70.8656 56.2898 69.2645 56.2898 69.2645C57.3524 68.6715 58.297 67.6041 58.7103 67.011C58.4741 66.9517 58.297 66.9517 58.179 66.8924Z" fill="#422115"/>
<path opacity="0.47" d="M44.0103 54.7355C44.0103 54.7948 44.0103 54.7948 44.0103 54.8541C43.9512 54.7948 44.0103 54.7355 44.0103 54.7355Z" fill="white"/>
<path opacity="0.1" d="M56.2309 67.5447C56.1718 67.604 56.1128 67.6634 56.1128 67.782C56.1718 67.6634 56.2309 67.604 56.2309 67.5447Z" fill="#3D2405"/>
<path opacity="0.1" d="M44.0103 54.7355C44.0103 54.7948 44.0103 54.7948 44.0103 54.8541C43.9512 54.7948 44.0103 54.7355 44.0103 54.7355Z" fill="#3D2405"/>
<path d="M67.6839 67.9598L67.5068 67.011L66.149 67.1296C65.3815 67.1889 65.5586 67.7819 65.3815 68.5529C64.9092 70.6284 62.961 75.254 59.1236 77.9225C56.2898 79.9388 52.4524 80.1167 48.1428 79.5237C48.3199 80.769 48.4379 82.0144 48.615 83.2597C48.615 83.319 48.615 83.3783 48.6741 83.4376C53.6332 84.0899 57.8838 83.4376 61.426 80.9469C68.2153 76.1435 68.5695 67.7819 68.6285 67.4261L67.6839 67.9598Z" fill="#E5A185"/>
<path d="M56.2897 78.397C56.6439 79.5237 56.762 82.133 56.7029 83.6748C54.1053 84.0899 49.3233 84.6237 46.2534 84.0306L47.3751 78.99C51.2715 78.5749 54.4005 78.5749 56.2897 78.397Z" fill="#7A344A"/>
<path d="M32.5572 61.0809C32.5572 61.0809 34.3873 59.0053 34.5054 57.6414C34.5644 56.2774 35.0957 55.9809 34.8596 55.4472C34.6234 54.9135 33.856 55.6251 33.856 55.803C33.856 55.9809 33.974 54.4984 32.9704 54.7356C31.9668 54.9728 31.6126 54.5577 31.0222 54.7356C30.4909 54.9135 30.2547 54.2612 29.7234 54.6763C29.1921 55.0914 27.9523 56.1588 27.9523 57.1077C27.8933 59.3611 28.6607 59.0053 28.6607 59.0053C28.8378 61.1402 30.1957 61.496 30.1957 61.496L32.5572 61.0809Z" fill="#E5A185"/>
<path d="M65.6767 68.6715C65.6767 68.6715 63.8465 66.5959 63.7285 65.232C63.6694 63.868 63.1381 63.5715 63.3742 63.0378C63.6104 62.5041 64.3779 63.2157 64.3779 63.3936C64.3779 63.5715 64.2598 62.089 65.2634 62.3262C66.267 62.5634 66.6213 62.1483 67.2116 62.3262C67.743 62.5041 67.9791 61.8518 68.5104 62.2669C69.0418 62.682 70.2815 63.7494 70.2815 64.6983C70.3406 66.9517 69.5731 66.5959 69.5731 66.5959C69.396 68.7308 68.0381 69.0866 68.0381 69.0866L65.6767 68.6715Z" fill="#E5A185"/>
</g>
<defs>
<clipPath id="clip0">
<rect width="114" height="124" fill="white" transform="translate(0.5)"/>
</clipPath>
</defs>
</svg>
