<svg width="30" height="24" viewBox="0 0 30 24" fill="none" xmlns="http://www.w3.org/2000/svg">
<path d="M29.4852 7.83291L29.4871 7.8348C29.4949 7.84262 29.5001 7.8532 29.5 7.86913C29.4999 7.88524 29.4939 7.90267 29.48 7.91757L22.8628 14.4833C22.8626 14.4835 22.8623 14.4837 22.8621 14.4839C22.8348 14.5101 22.8003 14.5046 22.7823 14.4862L22.7798 14.4837L18.9526 10.6284C18.9524 10.6282 18.9522 10.6279 18.952 10.6277C18.9259 10.6004 18.9314 10.5659 18.9497 10.548L18.9523 10.5454L20.2669 9.24015C20.2672 9.23991 20.2674 9.23968 20.2676 9.23946C20.295 9.21338 20.3294 9.21889 20.3473 9.23724L20.35 9.23989L22.4828 11.3868L22.835 11.7413L23.1897 11.3893L28.0997 6.51671C28.1 6.51649 28.1002 6.51628 28.1004 6.51607C28.1277 6.48993 28.1622 6.49544 28.1802 6.5138L28.1821 6.51571L29.4852 7.83291ZM16 6C16 9.03792 13.5379 11.5 10.5 11.5C7.46208 11.5 5 9.03792 5 6C5 2.96208 7.46208 0.5 10.5 0.5C13.5379 0.5 16 2.96208 16 6ZM10.5 14.75C11.7544 14.75 12.9478 14.4786 14.0249 14H14.7C17.902 14 20.5 16.598 20.5 19.8V21.75C20.5 22.716 19.716 23.5 18.75 23.5H2.25C1.28395 23.5 0.5 22.716 0.5 21.75V19.8C0.5 16.598 3.09802 14 6.3 14H6.97552C8.056 14.4783 9.24489 14.75 10.5 14.75Z" fill="#E4E4E4" stroke="#A9A9A9"></path>
</svg>