<svg width="28" height="28" viewBox="0 0 28 28" fill="none" xmlns="http://www.w3.org/2000/svg">
<g clip-path="url(#clip0)">
<path fill-rule="evenodd" clip-rule="evenodd" d="M1.88745 24.425C1.88745 24.425 0.199951 24.425 0.199951 22.7375C0.199951 21.05 1.88745 15.9875 10.325 15.9875C18.7625 15.9875 20.45 21.05 20.45 22.7375C20.45 24.425 18.7625 24.425 18.7625 24.425H1.88745ZM10.325 14.3C11.6676 14.3 12.9553 13.7667 13.9047 12.8173C14.8541 11.8679 15.3875 10.5802 15.3875 9.23755C15.3875 7.89489 14.8541 6.60722 13.9047 5.65782C12.9553 4.70842 11.6676 4.17505 10.325 4.17505C8.98229 4.17505 7.69463 4.70842 6.74522 5.65782C5.79582 6.60722 5.26245 7.89489 5.26245 9.23755C5.26245 10.5802 5.79582 11.8679 6.74522 12.8173C7.69463 13.7667 8.98229 14.3 10.325 14.3Z" fill="#564E66"/>
<path fill-rule="evenodd" clip-rule="evenodd" d="M26.9535 9.48384C27.0321 9.56222 27.0945 9.65533 27.137 9.75784C27.1795 9.86035 27.2014 9.97024 27.2014 10.0812C27.2014 10.1922 27.1795 10.3021 27.137 10.4046C27.0945 10.5071 27.0321 10.6002 26.9535 10.6786L21.891 15.7411C21.8127 15.8197 21.7196 15.882 21.617 15.9245C21.5145 15.9671 21.4046 15.989 21.2937 15.989C21.1827 15.989 21.0728 15.9671 20.9703 15.9245C20.8678 15.882 20.7747 15.8197 20.6963 15.7411L18.165 13.2098C18.0066 13.0514 17.9176 12.8365 17.9176 12.6125C17.9176 12.3884 18.0066 12.1735 18.165 12.0151C18.3235 11.8567 18.5384 11.7677 18.7624 11.7677C18.9865 11.7677 19.2014 11.8567 19.3598 12.0151L21.2937 13.9507L25.7588 9.48384C25.8372 9.40527 25.9303 9.34293 26.0328 9.30039C26.1353 9.25786 26.2452 9.23596 26.3562 9.23596C26.4671 9.23596 26.577 9.25786 26.6795 9.30039C26.7821 9.34293 26.8752 9.40527 26.9535 9.48384Z" fill="#F09020"/>
</g>
<defs>
<clipPath id="clip0">
<rect width="27" height="27" fill="white" transform="translate(0.199951 0.800049)"/>
</clipPath>
</defs>
</svg>
