<svg width="32" height="32" viewBox="0 0 32 32" fill="none" xmlns="http://www.w3.org/2000/svg">
<ellipse cx="16" cy="15.5789" rx="16" ry="15.5789" fill="#035AA6"></ellipse>
<path d="M21.2735 23.7501C20.511 23.7501 19.4399 23.4743 17.836 22.5783C15.8856 21.4845 14.377 20.4747 12.4372 18.54C10.5669 16.6708 9.65671 15.4607 8.38288 13.1427C6.94382 10.5255 7.18913 9.15364 7.46335 8.56731C7.78991 7.86653 8.27195 7.44739 8.89499 7.03138C9.24888 6.79951 9.62338 6.60076 10.0137 6.43763C10.0528 6.42083 10.0891 6.40481 10.1216 6.39036C10.3149 6.30325 10.6079 6.17161 10.979 6.31224C11.2266 6.4052 11.4477 6.59544 11.7938 6.93724C12.5036 7.63724 13.4735 9.19622 13.8313 9.96184C14.0716 10.4779 14.2305 10.8185 14.2309 11.2005C14.2309 11.6478 14.0059 11.9927 13.7329 12.365C13.6817 12.4349 13.6309 12.5017 13.5817 12.5665C13.2844 12.9572 13.2192 13.07 13.2622 13.2716C13.3493 13.6767 13.9989 14.8825 15.0665 15.9478C16.1341 17.013 17.3051 17.6216 17.7118 17.7083C17.9219 17.7533 18.0372 17.6853 18.4403 17.3775C18.4981 17.3333 18.5575 17.2876 18.6196 17.2419C19.036 16.9322 19.3649 16.713 19.8016 16.713H19.804C20.1841 16.713 20.5094 16.8779 21.0485 17.1497C21.7516 17.5044 23.3575 18.4618 24.0618 19.1724C24.4044 19.5177 24.5954 19.738 24.6887 19.9853C24.8294 20.3575 24.6969 20.6493 24.6106 20.8447C24.5962 20.8771 24.5801 20.9126 24.5634 20.9521C24.3989 21.3417 24.199 21.7155 23.9661 22.0685C23.5509 22.6896 23.1301 23.1704 22.4278 23.4974C22.0671 23.668 21.6725 23.7544 21.2735 23.7501Z" fill="white"></path>
</svg>