<svg width="40" height="122" viewBox="0 0 40 122" fill="none" xmlns="http://www.w3.org/2000/svg">
<g clip-path="url(#clip0)">
<path d="M23.547 121.869C32.453 121.869 39.717 121.103 39.717 120.163C39.717 119.223 32.453 118.456 23.547 118.456C14.641 118.456 7.37695 119.223 7.37695 120.163C7.37695 121.103 14.641 121.869 23.547 121.869Z" fill="#848988"/>
<path d="M19.235 33.0932C14.264 33.7062 7.96002 45.7422 5.91102 49.2232C4.17502 52.1752 4.09402 52.2932 4.30902 54.9932C4.66502 59.4662 5.40902 66.7572 5.91902 67.3272C6.42902 67.8972 8.16702 67.4942 7.70602 66.1992C7.24502 64.9042 6.94802 58.4092 7.10602 53.8802C7.25202 53.6422 6.16302 55.1202 7.55002 53.2162C8.93702 51.3122 14.457 44.3962 14.457 44.3962C13.787 42.4572 20.952 32.8852 19.235 33.0932Z" fill="#16334A"/>
<path d="M28.284 33.27C32.79 34.341 35.664 44.154 38.518 52.182C39.663 55.402 40.083 55.134 39.356 57.751C38.156 62.079 36.169 68.723 35.565 69.188C35.3951 69.2908 35.1996 69.3434 35.001 69.3398C34.8025 69.3361 34.609 69.2763 34.443 69.1674C34.277 69.0584 34.1452 68.9046 34.0629 68.7239C33.9807 68.5431 33.9512 68.3428 33.978 68.146C34.153 67.218 36.6 60.935 37.302 56.457C37.202 56.196 37.102 55.95 36.991 55.722C35.098 51.694 31.4 45.462 31.4 45.462C31.4 45.462 26.184 33.318 28.284 33.27Z" fill="#16334A"/>
<path d="M29.098 114.561C29.2843 114.901 29.546 115.194 29.863 115.417C31.3299 116.13 32.8363 116.758 34.375 117.299C35.475 117.809 36.486 119.261 35.39 120.017C34.294 120.773 29.346 120.754 27.293 119.446C25.24 118.138 26.386 115.766 26.613 114.417C26.9482 114.722 27.3778 114.902 27.8301 114.929C28.2823 114.955 28.7299 114.825 29.098 114.561Z" fill="#562A1F"/>
<path d="M35.781 118.745C35.8803 118.968 35.8957 119.22 35.8244 119.453C35.7531 119.687 35.6 119.887 35.393 120.017C34.293 120.772 29.346 120.754 27.293 119.445C26.8638 119.181 26.5221 118.796 26.3109 118.338C26.0997 117.88 26.0285 117.37 26.106 116.872C26.106 116.872 28.64 121.414 35.781 118.745Z" fill="#FFFFFE"/>
<path d="M18.274 114.666C18.0886 115.006 17.8275 115.299 17.511 115.522C16.0439 116.234 14.537 116.862 12.998 117.402C11.9 117.915 10.886 119.367 11.983 120.122C13.08 120.877 18.027 120.858 20.076 119.55C22.125 118.242 20.988 115.871 20.76 114.522C20.4248 114.827 19.995 115.008 19.5425 115.034C19.09 115.06 18.6422 114.93 18.274 114.666Z" fill="#562A1F"/>
<path d="M11.592 118.85C11.493 119.074 11.4781 119.325 11.5499 119.559C11.6218 119.793 11.7755 119.993 11.983 120.122C13.083 120.879 18.027 120.859 20.076 119.55C20.5058 119.286 20.8481 118.901 21.06 118.443C21.2719 117.986 21.3439 117.476 21.267 116.977C21.267 116.977 18.733 121.519 11.592 118.85Z" fill="#FFFFFE"/>
<path d="M23.841 66.0591L14.132 66.8851C12.354 67.0361 15.787 87.2401 16.139 89.2471C16.297 90.1531 17.639 114.299 18.246 114.847C18.853 115.395 19.946 115.959 20.696 115.075C21.446 114.191 20.99 83.2251 21.578 80.8221C22.494 77.0781 24.852 77.0781 25.768 80.8221C26.355 83.2221 25.896 114.189 26.651 115.075C27.406 115.961 28.492 115.392 29.101 114.847C29.71 114.302 31.049 90.1561 31.208 89.2471C31.559 87.2411 34.015 67.3801 32.243 67.1471L23.841 66.0591Z" fill="#16334A"/>
<path d="M20.212 30.2581L20.233 31.1351C20.2449 32.4994 20.1331 33.862 19.899 35.2061C19.537 36.8961 21.419 37.5781 22.842 37.5781C24.265 37.5781 25.954 36.8961 26.054 36.5061C26.154 36.1161 26.463 34.4901 26.463 34.4901C26.1005 32.9047 25.882 31.2898 25.81 29.6651C25.882 28.1241 20.21 30.2571 20.21 30.2571" fill="#FFDDB8"/>
<path d="M26.184 32.7861C25.059 36.2121 21.811 35.9061 20.317 32.9711C13.648 33.0401 13.983 44.8501 13.983 44.8501C13.983 44.8501 13.589 62.2651 13.158 65.1861C12.727 68.1071 13.636 68.4861 14.448 68.9411C17.971 70.2201 29.569 72.2961 32.448 69.2411C33.0067 68.6804 33.417 67.9895 33.642 67.2306C33.867 66.4717 33.8997 65.6688 33.737 64.8941C33.307 61.9711 32.515 44.6601 32.515 44.6601C32.515 44.6601 32.855 32.8541 26.184 32.7861Z" fill="#1A4A6F"/>
<path d="M26.184 32.7861C25.058 36.2121 21.81 35.9061 20.316 32.9711C19.5857 32.9709 18.8651 33.1386 18.21 33.4611H18.21C18.21 33.4611 22.82 52.4731 22.966 52.6061C23.112 52.7391 23.175 52.6161 23.175 52.6161C24.316 50.3171 28.263 33.3481 28.28 33.2721C27.6276 32.952 26.9106 32.7858 26.184 32.7861Z" fill="#F0E8E2"/>
<path d="M23.173 3.06012C26.3329 3.04995 29.3685 4.29054 31.6169 6.51097C33.8652 8.73141 35.1437 11.7513 35.173 14.9111V19.1711C35.173 22.3537 33.9087 25.406 31.6583 27.6564C29.4078 29.9068 26.3556 31.1711 23.173 31.1711C19.9904 31.1711 16.9381 29.9068 14.6877 27.6564C12.4373 25.406 11.173 22.3537 11.173 19.1711V14.9111C11.2023 11.7513 12.4807 8.73141 14.7291 6.51097C16.9774 4.29054 20.013 3.04995 23.173 3.06012Z" fill="#FFDDB8"/>
<path d="M16.121 14.8101C16.2054 14.854 16.2978 14.8804 16.3926 14.888C16.4874 14.8956 16.5827 14.884 16.673 14.8541C17.044 14.7276 17.4355 14.672 17.827 14.6901C18.008 14.7064 18.1866 14.7437 18.359 14.8011C18.5398 14.8398 18.7122 14.9106 18.868 15.0101C19.01 15.1521 19.393 15.0511 19.347 14.8591C19.3416 14.7628 19.3279 14.6671 19.306 14.5731C19.255 14.4589 19.1775 14.3585 19.08 14.2801C18.813 14.0739 18.4957 13.9427 18.161 13.9001C17.4836 13.7621 16.7794 13.8551 16.161 14.1641C15.961 14.2941 15.874 14.4641 15.961 14.6481C15.9992 14.7152 16.0544 14.7711 16.121 14.8101Z" fill="#41231B"/>
<path d="M26.804 14.9738C27.0645 14.8237 27.3383 14.6982 27.622 14.5988C27.8828 14.5154 28.1505 14.4554 28.422 14.4198C28.6765 14.3879 28.9337 14.3839 29.189 14.4078C29.2956 14.4191 29.4007 14.4409 29.503 14.4728C29.669 14.5258 29.618 14.5428 29.795 14.6398C30.225 14.8748 30.911 14.6148 30.635 14.1998C30.222 13.5798 29.079 13.5178 28.332 13.6208C27.9497 13.6664 27.5797 13.7849 27.242 13.9698C26.885 14.1798 26.496 14.4328 26.422 14.7898C26.392 14.9438 26.643 15.0528 26.801 14.9738" fill="#41231B"/>
<path d="M22.3631 21.448C22.3724 21.4639 22.3865 21.4763 22.4035 21.4836C22.4204 21.4908 22.4392 21.4924 22.4571 21.4881C22.475 21.4839 22.4911 21.474 22.503 21.4599C22.5148 21.4459 22.5219 21.4283 22.5231 21.41C22.5231 21.324 22.5551 21.229 22.5611 21.139C22.5701 21.024 22.5751 20.92 22.6771 20.848C22.9141 20.683 23.2331 20.663 23.4571 20.484C23.6811 20.305 23.4461 20.024 23.2201 20.054C23.045 20.0974 22.8781 20.169 22.7261 20.266C22.5657 20.3498 22.4283 20.4717 22.3261 20.621C22.2447 20.7476 22.2026 20.8955 22.2051 21.046C22.2042 21.1293 22.2202 21.212 22.2521 21.289C22.2817 21.3464 22.319 21.3996 22.3631 21.447" fill="#41231B"/>
<path d="M17.098 16.6291C17.4034 16.4781 17.7501 16.4328 18.084 16.5001C18.113 16.5071 18.14 16.5141 18.168 16.5231C19.007 16.3471 19.384 17.5431 19.398 18.1671C19.4712 18.5686 19.4087 18.983 19.2204 19.3451C19.0321 19.7072 18.7287 19.9964 18.358 20.1671C17.9367 20.252 17.4989 20.1742 17.1326 19.9493C16.7664 19.7244 16.4989 19.3692 16.384 18.9551C16.3163 18.7472 16.2826 18.5297 16.284 18.3111C16.2356 17.9814 16.2873 17.6448 16.4324 17.3449C16.5776 17.045 16.8095 16.7956 17.098 16.6291Z" fill="#41231B"/>
<path d="M17.9461 17.9781C18.0415 18.0714 18.1696 18.1235 18.3031 18.1235C18.4365 18.1235 18.5646 18.0714 18.6601 17.9781C18.7069 17.9322 18.7441 17.8773 18.7695 17.8168C18.7949 17.7563 18.808 17.6913 18.808 17.6256C18.808 17.56 18.7949 17.495 18.7695 17.4345C18.7441 17.374 18.7069 17.3191 18.6601 17.2731C18.5648 17.1795 18.4366 17.127 18.3031 17.127C18.1695 17.127 18.0413 17.1795 17.9461 17.2731C17.8529 17.3668 17.8007 17.4935 17.8007 17.6256C17.8007 17.7577 17.8529 17.8845 17.9461 17.9781Z" fill="#FFFFFE"/>
<path d="M29.323 16.6661C29.0027 16.4824 28.626 16.4233 28.265 16.5001C28.237 16.5071 28.209 16.5141 28.181 16.5231C27.342 16.3471 26.966 17.5431 26.95 18.1721C26.8783 18.5728 26.9417 18.9859 27.1301 19.3468C27.3184 19.7076 27.6212 19.9958 27.991 20.1661C28.4117 20.2505 28.8488 20.1727 29.2146 19.9483C29.5803 19.7238 29.8477 19.3694 29.963 18.9561C30.0314 18.7322 30.0651 18.4991 30.063 18.2651C30.093 17.1731 29.703 16.8771 29.323 16.6661Z" fill="#41231B"/>
<path d="M29.264 18.0708C29.1689 18.1642 29.0408 18.2165 28.9075 18.2165C28.7742 18.2165 28.6462 18.1642 28.551 18.0708C28.5049 18.0249 28.4684 17.9704 28.4434 17.9103C28.4185 17.8502 28.4056 17.7858 28.4056 17.7208C28.4056 17.6558 28.4185 17.5914 28.4434 17.5313C28.4684 17.4712 28.5049 17.4167 28.551 17.3708C28.6462 17.2774 28.7742 17.2251 28.9075 17.2251C29.0408 17.2251 29.1689 17.2774 29.264 17.3708C29.3105 17.4165 29.3473 17.471 29.3725 17.5311C29.3977 17.5911 29.4107 17.6556 29.4107 17.7208C29.4107 17.7859 29.3977 17.8504 29.3725 17.9105C29.3473 17.9706 29.3105 18.0251 29.264 18.0708Z" fill="#FFFFFE"/>
<path d="M16.805 22.9431C18.05 22.9431 19.067 22.5851 19.067 22.1431C19.067 21.7011 18.05 21.3491 16.805 21.3491C15.56 21.3491 14.543 21.7071 14.543 22.1491C14.543 22.5911 15.559 22.9491 16.805 22.9491" fill="#D66051"/>
<path d="M29.545 22.9431C30.79 22.9431 31.807 22.5851 31.807 22.1431C31.807 21.7011 30.79 21.3491 29.545 21.3491C28.3 21.3491 27.283 21.7071 27.283 22.1491C27.283 22.5911 28.299 22.9491 29.545 22.9491" fill="#D66051"/>
<path d="M19.719 23.8721C19.719 23.8721 26.232 23.5721 27.412 24.0181C28.592 24.4641 26.783 28.1991 22.812 27.9181C18.841 27.6371 17.587 23.9721 19.719 23.8721Z" fill="#FFFFFE"/>
<path d="M35.1989 16.0331C35.1989 16.0331 37.2289 15.3661 37.9749 16.6991C38.7209 18.0321 37.0149 22.2431 34.9549 20.3491C32.8949 18.4551 35.1989 16.0331 35.1989 16.0331Z" fill="#FFDDB8"/>
<path d="M11.863 15.8612C11.445 15.6272 8.97396 15.0302 8.79096 16.4992C8.60796 17.9682 8.96196 20.0482 9.94496 20.4652C10.928 20.8822 13.814 19.6272 11.863 15.8612Z" fill="#FFDDB8"/>
<path d="M23.132 9.33415C19.298 9.41215 15.47 8.64015 13.895 11.2711C12.3636 13.6358 11.6278 16.4279 11.795 19.2401C11.795 19.2401 11.495 19.3121 11.377 18.8861C11.259 18.4601 10.709 15.6331 10.108 15.5451C9.68396 5.50515 12.23 2.61415 16.262 1.66115C20.294 0.708147 17.706 1.34315 18.378 1.22515C19.942 2.71715 22.455 7.43615 23.132 9.33415Z" fill="#41231B"/>
<path d="M18.881 8.49093C23.634 10.9109 30.509 7.54693 32.739 11.2709C34.271 13.6353 35.0068 16.4276 34.839 19.2399C34.839 19.2399 35.144 19.3119 35.257 18.8859C35.37 18.4599 35.927 15.9619 36.528 15.8739C36.528 15.8739 38.079 2.29293 30.741 0.559926C24.951 -0.807074 3.33098 -0.100074 17.277 7.64193C17.7723 7.91726 18.3056 8.20026 18.877 8.49093" fill="#562A1F"/>
<path d="M34.178 68.0881C33.866 68.4231 33.569 68.6421 33.209 68.9981C32.6805 69.4784 32.2253 70.0337 31.858 70.6461C31.9229 71.8546 32.2289 73.0378 32.758 74.1261C33.3027 73.6254 33.6836 72.9719 33.851 72.2511C34.151 71.3451 34.679 70.0021 35.041 69.0991C35.55 67.8321 34.489 67.7541 34.178 68.0881Z" fill="#FFDDB8"/>
<path d="M35.204 16.0332L34.837 17.3162C34.475 23.9152 30.375 29.3702 23.175 29.3702V32.4702C23.175 32.4702 30.039 32.7092 32.492 31.0012C34.945 29.2932 35.469 24.9242 35.429 22.3822C35.4108 20.7464 35.4793 19.1108 35.634 17.4822L35.204 16.0332Z" fill="#562A1F"/>
<path d="M11.1439 16.0332L11.5159 17.3162C11.8839 23.9162 15.9759 29.3702 23.1779 29.3702V32.4702C23.1779 32.4702 16.3139 32.7092 13.8609 31.0012C11.4079 29.2932 10.8809 24.9222 10.9159 22.3792C10.9357 20.7435 10.8689 19.1079 10.7159 17.4792L11.1439 16.0332Z" fill="#562A1F"/>
<path d="M23.1751 35.252C23.1751 35.252 24.1171 35.774 24.1751 36.142C24.2331 36.51 23.8831 37.214 23.6621 37.242C23.4411 37.27 22.7801 37.552 22.5781 37.104C22.3761 36.656 21.8151 35.952 21.9951 35.652C22.1751 35.352 23.1751 35.252 23.1751 35.252Z" fill="#BF3634"/>
<path d="M20.2489 32.6128C20.2489 32.6128 21.0699 34.8708 23.1749 34.9308C25.2799 34.8708 26.1009 32.6128 26.1009 32.6128C26.1009 32.6128 26.6559 32.8128 26.6219 33.1628C26.5879 33.5128 25.4749 36.6778 24.9319 36.6628C24.3889 36.6478 23.1749 35.6258 23.1749 35.6258C23.1749 35.6258 21.9619 36.6578 21.4189 36.6678C20.8759 36.6778 19.7649 33.5128 19.7269 33.1628C19.6889 32.8128 20.2489 32.6128 20.2489 32.6128Z" fill="#FFFFFE"/>
<path d="M29.295 33.9511C29.595 35.0671 30.51 38.7021 30.253 40.1391C29.947 41.8471 27.879 41.4891 27.759 42.3241C27.639 43.1591 28.523 43.2371 28.804 44.1111C29.085 44.9851 23.179 54.1621 23.179 54.1621C23.1334 54.1893 23.0826 54.2068 23.0299 54.2135C22.9773 54.2202 22.9238 54.2159 22.8728 54.201C22.8218 54.1861 22.7745 54.1608 22.7337 54.1267C22.693 54.0927 22.6597 54.0506 22.636 54.0031C22.436 53.6451 18.01 45.2841 17.81 44.6091C17.61 43.9341 19.414 43.0201 19.414 42.1461C19.414 41.2721 17.079 42.0271 16.84 41.6671C16.624 41.3491 17.045 35.4151 17.134 34.2011C17.4591 33.9053 17.8231 33.6553 18.216 33.4581H18.21C18.21 33.4581 22.821 52.4721 22.967 52.6071C23.113 52.7421 23.176 52.6171 23.176 52.6171C24.317 50.3181 28.263 33.3471 28.279 33.2671H28.272C28.6404 33.45 28.9836 33.6799 29.293 33.9511" fill="#196597"/>
<path d="M23.634 36.8569C23.634 36.8569 24.008 42.9049 24.463 48.5939C24.1231 49.9617 23.6925 51.3054 23.174 52.6159C23.174 52.6159 23.111 52.7409 22.965 52.6069C22.92 52.5649 22.436 50.6679 21.793 48.0829C22.203 42.8069 22.83 37.0259 22.83 37.0259L23.634 36.8569Z" fill="#BF3634"/>
<path d="M4.39197 71.9691C4.42305 71.4877 4.57097 71.0211 4.82292 70.6097C5.07487 70.1984 5.42327 69.8546 5.83797 69.6081C6.92197 69.1831 10.844 68.2491 11.583 68.7921C11.9928 69.0587 12.3393 69.4116 12.5984 69.8262C12.8575 70.2408 13.0229 70.7069 13.083 71.1921C13.014 72.0081 11.208 72.3131 10.95 72.1601C10.692 72.0071 10.35 71.9901 10.365 71.8211C10.38 71.6521 10.451 70.0541 9.41897 70.0541C8.38697 70.0541 5.94397 70.4271 5.63497 70.7851C5.39361 71.2362 5.24598 71.7315 5.20097 72.2411C5.20097 72.2411 4.46097 72.5631 4.39197 71.9691Z" fill="#1E1510"/>
<path d="M1.571 72.4622C1.571 72.4622 0.109003 73.2942 0.144003 74.4622C0.179003 75.6302 -0.255997 81.4942 0.230003 82.3792C0.716003 83.2642 0.815003 83.9072 3.808 84.5192C6.801 85.1312 11.79 85.9122 13.308 86.0142C14.826 86.1162 18.331 85.8792 19.191 84.6892C20.051 83.4992 19.226 72.4892 18.469 71.7112C17.712 70.9332 15.471 70.1852 11.273 70.7972C7.075 71.4092 2.4 72.0882 1.571 72.4622Z" fill="#562A1F"/>
<path d="M13.303 86.0168C14.817 86.1168 18.326 85.8818 19.186 84.6918C20.046 83.5018 19.221 72.4918 18.464 71.7138C17.875 71.1058 16.391 70.5178 13.785 70.5718C14.1871 70.7169 14.5415 70.9699 14.8093 71.3031C15.0771 71.6363 15.2479 72.0369 15.303 72.4608C15.441 73.8878 15.785 81.2938 15.785 82.7208C15.785 84.1478 15.165 85.8128 13.308 86.0208" fill="#41231B"/>
<path d="M7.58897 66.2988C7.73946 66.6594 7.94157 66.9963 8.18897 67.2988C8.47397 67.7158 9.40097 68.6358 9.13797 68.7838C7.90797 69.4838 9.96597 69.9328 9.21097 70.7008C9.21097 70.7008 6.71997 71.7208 6.51897 70.1778C6.38197 69.1408 6.50197 67.7328 6.31797 66.7938C6.27997 66.5938 7.26397 65.6028 7.58797 66.2938" fill="#FFDDB8"/>
</g>
<defs>
<clipPath id="clip0">
<rect width="39.716" height="121.869" fill="white"/>
</clipPath>
</defs>
</svg>
