<svg width="106" height="165" viewBox="0 0 106 165" fill="none" xmlns="http://www.w3.org/2000/svg">
<g clip-path="url(#clip0)">
<path opacity="0.14" d="M53 155.971C22.8285 155.971 0.5 160.605 0.5 160.605C0.5 160.605 16.266 164.92 53 164.92C88.6136 164.92 105.5 160.605 105.5 160.605C105.5 160.605 83.0915 155.971 53 155.971Z" fill="#260F00"/>
<path d="M41.0756 41.8692C33.0725 59.2881 25.1495 79.5036 21.9483 79.983C21.7882 80.6223 21.5481 81.2615 21.3881 81.9007C21.7882 82.5399 22.5085 83.8184 22.6685 83.8184C25.7897 83.8184 31.2318 81.7409 38.9948 64.5617C43.3164 54.8934 46.0375 48.5811 46.5176 45.4649L41.0756 41.8692Z" fill="#E5A185"/>
<path d="M30.1913 79.5036C32.6722 76.707 35.6333 72.0726 38.9946 64.6416C43.3163 54.9734 46.0373 48.661 46.5175 45.5448L41.0754 41.5496C38.2743 42.8281 28.9908 69.0363 25.2294 75.4286C26.7499 76.6271 28.7507 78.2252 30.1913 79.5036Z" fill="#4C2518"/>
<path d="M74.4482 44.506C74.4482 44.506 84.532 40.3511 87.4931 52.0169C90.5343 63.6828 88.0533 88.9322 84.612 92.1283C81.1707 95.3244 58.5221 90.2106 58.5221 90.2106L74.4482 44.506Z" fill="#6C2E3F"/>
<path d="M80.6905 45.8644C80.1303 45.385 80.0502 44.586 80.3704 43.9467C80.8505 43.2276 81.0906 42.4286 80.9306 41.9492C80.7705 41.4697 79.8101 40.9104 77.6493 40.7506C72.4473 40.3511 69.8063 42.4286 68.6859 43.7869C68.2057 44.3462 67.4855 44.5061 66.8452 44.1864C65.9649 43.7869 65.6448 42.5884 66.365 41.7893C67.9656 39.9516 71.4069 37.155 77.9694 37.7143C81.1707 37.954 83.1714 38.9927 83.8917 40.8305C84.5319 42.5085 83.8117 44.3462 83.0914 45.6247C82.5312 46.3438 81.4107 46.5036 80.6905 45.8644Z" fill="#7A364B"/>
<path d="M76.529 42.5085C76.529 42.5085 86.6129 62.3245 85.3324 70.5545L75.4086 70.8741C75.4086 70.8741 71.7272 58.3293 72.9276 54.8935C74.0481 51.3777 76.529 42.5085 76.529 42.5085Z" fill="#401F16"/>
<path d="M70.6868 150.218L70.2067 156.211C70.2067 156.211 77.1693 156.53 77.2494 156.45C77.3294 156.291 77.6495 150.218 77.6495 150.218H70.6868Z" fill="#2D231E"/>
<path d="M47.3177 150.218L46.8375 156.211C46.8375 156.211 53.8002 156.53 53.8802 156.45C53.9602 156.291 54.2804 150.218 54.2804 150.218H47.3177Z" fill="#2D231E"/>
<path d="M51.0795 36.9951C51.0795 36.9951 54.6809 35.3971 59.2426 35.5569C63.8043 35.7167 66.4453 36.9951 66.9255 37.8741C67.3257 38.8329 66.6854 44.0266 66.6854 44.0266L50.2792 45.9443L51.0795 36.9951Z" fill="#5D3E34"/>
<path d="M54.3603 144.944C55.5607 121.613 52.1194 123.93 52.3595 120.814C52.5196 117.697 53.9601 103.475 54.5203 100.358C54.8405 98.7603 55.8008 98.4407 56.201 99.7191C56.7612 101.477 58.6019 114.022 61.9632 123.45C62.4434 124.889 62.8435 126.327 63.4037 127.765C64.7642 131.201 67.0851 138.952 68.8458 144.944H77.0889C77.0089 142.308 76.8488 139.511 76.6888 137.833C75.6484 128.884 72.2071 122.252 71.3267 119.535C70.7665 118.017 71.1667 106.831 71.0066 100.119C70.9266 94.4455 70.6865 88.6925 69.7261 83.0993C68.9258 78.6247 76.6087 42.5085 76.6087 42.5085C75.2482 41.5496 73.8077 40.7506 72.127 40.2712C69.5661 39.5521 52.7597 38.2736 44.3565 40.2712C43.236 40.5109 42.9959 40.8305 41.9555 41.3898C41.9555 41.3898 41.8755 77.506 42.1156 81.5811C42.3557 84.937 42.4357 88.293 42.1156 91.6489C41.8755 94.4455 40.9952 97.0823 40.7551 99.8789C39.5546 115.22 43.7162 130.082 46.1972 145.024H54.3603V144.944Z" fill="#E79D84"/>
<path d="M54.3607 144.465C55.4811 121.692 52.1198 123.93 52.2799 120.893C52.4399 117.777 53.8805 103.554 54.4407 100.438C54.7608 98.8402 55.7212 98.5206 56.1213 99.799C56.6815 101.557 58.5222 114.102 61.8835 123.53C62.3637 124.969 62.7639 126.407 63.3241 127.845C64.6046 131.201 66.9254 138.632 68.6061 144.545H76.9293C76.8492 142.068 76.6892 139.511 76.5291 137.913C75.4887 128.964 72.0474 122.332 71.1671 119.615C70.6069 118.097 71.007 106.91 70.8469 100.199C70.7669 94.5254 70.5268 88.7724 69.5665 83.1792C68.7661 78.7046 76.4491 42.5884 76.4491 42.5884C75.0886 41.6295 73.648 40.8305 71.9674 40.3511C71.007 40.1114 67.9658 39.7118 64.1244 39.4721C63.164 41.5496 61.5634 43.1477 59.0024 43.5472C57.0817 43.7869 54.7608 43.3874 53.1602 42.1888C52.1998 41.4697 51.6396 40.5109 51.1594 39.4721C48.5985 39.6319 46.1175 39.9516 44.1968 40.3511C43.0764 40.5908 42.036 41.0702 40.9956 41.5496C40.9956 41.5496 41.7158 77.5859 41.9559 81.661C42.196 85.0169 42.2761 88.3729 41.9559 91.7288C41.7158 94.5254 40.8355 97.1622 40.5954 99.9588C39.475 115.14 43.3965 129.763 45.9575 144.545H54.3607V144.465Z" fill="#EFEBE3"/>
<path d="M46.5978 148.38H54.1206C55.8813 121.453 52.1199 124.169 52.2799 120.893C52.44 117.777 53.8805 103.554 54.4408 100.438C54.7609 98.8402 55.7212 98.5206 56.1214 99.799C56.6816 101.557 58.5223 114.102 61.8836 123.53C62.3638 124.969 62.7639 126.407 63.3241 127.845C64.9247 132 68.0459 142.387 69.7266 148.38H77.0894C77.0093 144.944 76.8493 140.39 76.6092 137.833C75.5688 128.884 72.1275 122.252 71.2472 119.535C70.6869 118.017 71.0871 106.83 70.927 100.119C70.847 94.4455 70.6069 88.6925 69.6465 83.0993C68.8462 78.6247 76.5292 42.5085 76.5292 42.5085C75.1686 41.5496 73.7281 40.7506 72.0475 40.2712C71.0871 40.0315 68.0459 39.632 64.2045 39.3922C63.2441 41.4697 61.6435 43.0678 59.0825 43.4673C57.1618 43.707 54.8409 43.3075 53.2403 42.109C52.2799 41.3898 51.7197 40.431 51.2395 39.3922C49.3988 39.4721 47.6382 39.7119 46.0375 39.9516C45.9575 39.9516 45.9575 40.0315 45.8775 40.0315C44.597 40.9104 43.5566 42.1089 42.4362 43.2276C42.3561 44.1864 42.1161 45.2252 42.036 46.184C41.876 47.7821 41.876 49.46 41.7959 51.0581C41.7959 51.5375 41.5558 51.937 41.3157 52.2566C41.5558 63.2034 41.876 78.9443 42.036 81.5012C42.2761 84.8571 42.3561 88.2131 42.036 91.569C41.7959 94.3656 40.9156 97.0024 40.6755 99.799C39.475 115.46 43.7967 130.562 46.2776 145.823C46.4377 146.462 46.5177 147.341 46.5978 148.38Z" fill="#EFEBE3"/>
<path d="M71.2467 119.535C70.6865 118.017 71.0867 106.831 70.9266 100.119C70.8466 95.2446 70.6065 90.3705 69.9663 85.4964C67.4053 85.9758 64.9243 86.7748 62.4434 86.9346C57.5615 87.2542 52.5996 86.8547 47.7178 86.2954C45.8771 86.0557 44.0364 85.816 42.1957 85.4964C42.2757 87.4939 42.1957 89.5714 42.0356 91.569C41.7955 94.3656 40.9152 97.0024 40.6751 99.799C39.4746 115.46 45.8771 143.586 46.0371 150.298L55.1606 151.177C55.6408 122.492 52.1195 124.249 52.2795 120.814C52.4396 117.697 54.1202 103.075 54.6804 100.039C55.0006 98.4407 55.3207 98.8402 55.7208 100.119C56.281 101.877 58.5219 114.022 61.8832 123.45C62.3634 124.889 62.7635 126.327 63.3237 127.765C65.5646 133.438 69.5661 150.138 69.8862 152.056L78.6896 151.656C78.5295 151.257 78.0493 142.547 77.5692 138.312C76.5288 129.443 72.1271 122.252 71.2467 119.535Z" fill="#2B2B2B"/>
<path d="M53.8804 49.3801C53.7204 49.1404 53.6403 48.9806 53.4803 48.7409C53.4002 48.5811 53.3202 48.4213 53.3202 48.1816C52.2798 46.5036 51.1594 44.9855 49.5588 43.4673C48.6784 42.5884 49.0786 41.4697 49.8789 40.9104C49.7188 40.431 49.6388 39.9516 49.5588 39.4721C47.638 39.6319 45.7973 39.8717 44.2768 40.2712C43.1563 40.5109 42.1159 40.9903 41.0755 41.4697C41.0755 41.4697 41.3957 71.5932 40.4353 80.7022C40.1952 83.2591 39.555 85.4964 39.3949 89.4915C41.1556 91.7288 49.9589 91.569 51.6396 91.1695C51.7196 79.3438 52.5999 66.6392 54.1205 54.8934C54.2806 53.5351 54.4406 52.4964 54.6807 51.138C54.6807 51.0581 54.1205 49.7796 53.8804 49.3801Z" fill="#8E6651"/>
<path d="M71.5671 78.5448C73.0077 69.1162 76.529 42.5085 76.529 42.5085C75.1685 41.5496 73.7279 40.7506 72.0473 40.2712C71.327 40.0315 69.4063 39.7917 66.8453 39.6319C66.9253 40.2712 66.8453 40.9104 66.6052 41.4697C66.4452 41.7893 66.2851 42.1888 66.125 42.5085C66.045 42.5884 65.8049 43.2276 65.965 42.908C65.885 43.1477 65.7249 43.3874 65.5648 43.5472C65.4848 43.707 65.4048 43.7869 65.3247 43.9467C65.1647 44.1864 65.0046 44.3462 64.8446 44.4261C64.2043 45.2252 63.5641 45.9443 62.8438 46.6634C61.6433 47.862 59.8827 48.9806 58.9223 50.4189C58.7622 50.7385 58.5221 50.9782 58.202 51.138C58.122 51.6174 58.042 52.0968 57.9619 52.5763C56.2013 65.1211 55.3209 78.7845 55.3209 91.4891C64.2043 92.8474 68.766 92.4479 72.9276 90.6901C72.7676 88.1332 71.247 81.0218 71.5671 78.5448Z" fill="#8E6651"/>
<path d="M54.7607 51.0581C54.7607 51.0581 51.7196 46.7434 46.9177 48.5012C46.9177 48.5012 44.5969 40.0315 51.1594 36.9153C51.0793 36.9952 50.5992 42.5085 54.7607 51.0581Z" fill="#6C493B"/>
<path d="M58.202 51.0581C61.2432 45.9443 67.0054 43.2276 66.8453 37.7942C66.8453 37.7942 70.0465 43.6271 66.5252 50.1792C66.6052 50.2591 65.4048 47.4625 58.202 51.0581Z" fill="#6C493B"/>
<path d="M41.9557 53.2155V54.5738L51.5593 54.8135V53.6949L41.9557 53.2155Z" fill="#BF9C8C"/>
<path d="M70.0467 54.0944L69.8866 55.4528L60.6831 54.8935L60.7631 53.7748L70.0467 54.0944Z" fill="#BF9C8C"/>
<path d="M40.9154 73.7506C40.9154 74.3099 40.9154 74.8693 40.8353 75.3487L44.6768 72.9516L44.3567 71.2736L40.9154 73.7506Z" fill="#BF9C8C"/>
<path d="M67.3254 75.5884C67.3254 75.5884 70.0465 77.9056 71.567 79.184C71.567 78.9443 71.567 78.7046 71.6471 78.5448C71.7271 78.1453 71.8071 77.6659 71.8071 77.1864L68.2858 74.1501L67.3254 75.5884Z" fill="#BF9C8C"/>
<path d="M59.2425 30.2034L58.5222 30.1235C57.0817 29.9637 55.7212 31.0823 55.5611 32.5206L54.2806 40.1913C54.1206 41.6296 55.7212 42.9879 57.2418 43.1477L57.962 43.2276C59.4026 43.3874 61.2433 41.8693 61.4033 40.3511L61.6434 33.0799C61.8035 31.7216 60.6831 30.3632 59.2425 30.2034Z" fill="#E79D84"/>
<path d="M59.2424 30.2034L58.5221 30.1235C57.0816 29.9637 55.7211 31.0823 55.561 32.5206L54.9208 36.9153C56.0412 37.3947 57.0816 37.7143 58.3621 37.7942C59.6426 37.8741 60.6029 37.6344 61.5633 37.155L61.6433 33.1598C61.8034 31.7216 60.683 30.3632 59.2424 30.2034Z" fill="#E09178"/>
<path d="M45.2371 20.3753C44.0366 20.615 43.2363 22.1331 43.5565 23.8111C43.8766 25.4891 45.077 26.6077 46.3575 26.368C47.558 26.1283 48.3583 24.6101 48.0382 22.9322C47.718 21.2542 46.4376 20.1356 45.2371 20.3753Z" fill="#E09178"/>
<path d="M59.2424 6.63195L55.0809 6.71186C49.5587 6.87166 45.2371 13.1041 45.3171 18.5375L45.4772 26.0484C45.6373 31.5617 50.279 35.9564 55.7211 35.8765L59.8827 35.7966C65.4048 35.6368 69.8065 31.0823 69.6464 25.569L69.4863 18.0581C69.4063 12.5448 64.7645 6.55205 59.2424 6.63195Z" fill="#E79D84"/>
<path d="M71.0871 6.15253C71.0871 6.15253 71.8874 5.3535 71.7274 5.11379C71.1672 4.95398 70.767 5.19369 70.4469 5.3535C70.847 4.47456 71.0871 3.43582 70.9271 2.47699C70.1268 2.47699 69.4065 3.19611 69.3265 3.99515C69.4865 3.35592 69.3265 2.63679 68.9263 2.07747C68.8463 1.99757 68.8463 1.91766 68.7663 1.91766C68.6062 1.91766 68.5262 1.99757 68.3661 2.15737C68.126 2.47699 68.046 3.51573 68.046 3.67553C68.126 3.75544 68.126 3.75544 68.046 3.75544C68.046 3.75544 68.046 3.75544 68.046 3.67553C67.6458 3.35592 65.6451 2.15737 63.7243 1.43824C60.203 0.0798914 56.3615 0.319601 56.4416 0.399504C56.6816 1.19854 57.0018 1.99757 57.4019 2.7167C55.2411 0.79902 52.28 -0.159818 49.3989 0.159795C49.4789 0.878923 49.5589 1.59805 49.879 2.23728C50.1191 2.8765 50.5193 3.43582 51.1595 3.75544C48.9187 2.55689 46.5178 1.59805 44.0368 1.91766C43.8768 1.91766 43.7967 1.99757 43.7167 2.07747C43.6367 2.15737 43.6367 2.23728 43.6367 2.39708C43.6367 3.91524 44.0368 5.51331 44.9172 6.79176C44.517 6.39224 44.1969 6.23243 43.8768 6.15253C43.3165 7.27117 43.3165 8.54962 43.4766 9.82808C43.8768 12.8644 44.437 14.9419 44.9972 16.2203C44.9172 18.8571 45.3973 20.9346 45.3973 21.0145C45.3973 21.0145 45.3973 20.8547 45.3973 20.5351V21.0145C45.4774 21.0145 46.5978 14.0629 49.0787 12.3051C52.28 10.0678 52.0399 13.1041 56.3615 12.385C59.2426 11.9056 63.2441 9.58837 65.7251 14.2227C66.4454 15.5811 66.2053 18.3777 66.7655 19.6562C67.2457 20.7748 68.4461 21.2542 69.8066 21.4939L69.6466 19.816C69.6466 19.816 69.6466 18.4576 69.6466 16.8596C71.7274 13.983 71.7274 8.70943 71.0071 6.23243C70.847 6.15253 71.0871 6.15253 71.0871 6.15253Z" fill="#4C2518"/>
<path d="M71.0068 19.7361C69.8064 19.4165 68.4459 20.4552 68.0457 22.0533C67.6456 23.6513 68.2058 25.2494 69.4062 25.569C70.6067 25.8886 71.9672 24.8499 72.3673 23.2518C72.8475 21.6538 72.2073 20.0557 71.0068 19.7361Z" fill="#E79D84"/>
<path d="M55.1607 161.884L56.041 157.329L55.4007 152.775C55.4007 152.775 53.4 152.375 53.2399 153.254C52.7597 155.971 49.2384 153.654 49.2384 153.654C49.2384 153.654 48.4381 150.458 45.9571 151.416C43.4762 152.375 40.355 155.571 40.355 155.571C40.355 155.571 35.7132 157.409 34.993 158.688C34.3527 159.886 34.5128 161.804 34.5128 161.804L55.1607 161.884Z" fill="#CFCFCF"/>
<path d="M33.7126 160.525L33.9527 161.724L56.3613 162.123L56.5213 159.806L33.7126 160.525Z" fill="#666666"/>
<path d="M45.6371 155.252C46.1173 154.852 44.7567 153.094 44.1165 152.375C43.6363 152.695 43.1561 153.015 42.756 153.414C43.3962 154.053 45.0769 155.651 45.6371 155.252Z" fill="#666666"/>
<path d="M40.0349 155.651C40.5951 156.291 41.8756 157.729 42.4358 157.489C42.996 157.17 41.7156 155.412 41.2354 154.693C40.6752 155.252 40.275 155.571 40.275 155.571C40.275 155.571 40.195 155.571 40.0349 155.651Z" fill="#666666"/>
<path d="M40.355 158.688C40.7552 158.448 40.1949 156.53 39.8748 155.731C39.5547 155.891 38.9945 156.131 38.3542 156.37C38.7544 157.01 39.9549 159.007 40.355 158.688Z" fill="#666666"/>
<path d="M44.2766 156.37C44.7568 156.051 43.3163 154.133 42.676 153.414C42.1158 153.814 41.6356 154.213 41.2355 154.613C42.0358 155.172 43.8765 156.69 44.2766 156.37Z" fill="#666666"/>
<path d="M34.2728 161.005C34.2728 161.005 32.4321 157.249 37.7141 156.61C37.7141 156.61 39.3147 158.048 39.2347 160.765L34.2728 161.005Z" fill="#666666"/>
<path d="M52.1196 160.525C52.1196 160.525 54.2004 154.373 55.5609 154.453C55.721 154.453 56.9215 158.048 55.9611 160.366L52.1196 160.525Z" fill="#666666"/>
<path d="M78.5298 161.884L79.4101 157.329L78.7699 152.775C78.7699 152.775 76.7691 152.375 76.6091 153.254C76.1289 155.971 72.6075 153.654 72.6075 153.654C72.6075 153.654 71.8072 150.458 69.3263 151.416C66.8453 152.375 63.7241 155.571 63.7241 155.571C63.7241 155.571 59.0824 157.409 58.3621 158.688C57.7219 159.886 57.8819 161.804 57.8819 161.804L78.5298 161.884Z" fill="#CFCFCF"/>
<path d="M57.0817 160.525L57.3218 161.724L79.5702 162.203L79.8904 159.806L57.0817 160.525Z" fill="#666666"/>
<path d="M69.0061 155.252C69.4863 154.852 68.1258 153.094 67.4855 152.375C67.0053 152.695 66.5252 153.015 66.125 153.414C66.7652 154.053 68.4459 155.651 69.0061 155.252Z" fill="#666666"/>
<path d="M63.4039 155.651C63.9641 156.291 65.2446 157.729 65.8048 157.489C66.3651 157.17 65.0846 155.412 64.6044 154.693C64.0442 155.252 63.644 155.571 63.644 155.571C63.644 155.571 63.564 155.571 63.4039 155.651Z" fill="#666666"/>
<path d="M63.724 158.688C64.1242 158.448 63.564 156.53 63.2438 155.731C62.9237 155.891 62.3635 156.131 61.7233 156.37C62.1234 157.01 63.2438 159.007 63.724 158.688Z" fill="#666666"/>
<path d="M67.6457 156.37C68.1258 156.051 66.6853 154.133 66.045 153.414C65.4848 153.814 65.0046 154.213 64.6045 154.613C65.3248 155.172 67.1655 156.69 67.6457 156.37Z" fill="#666666"/>
<path d="M57.6418 161.005C57.6418 161.005 55.8011 157.249 61.0831 156.61C61.0831 156.61 62.6837 158.048 62.6037 160.765L57.6418 161.005Z" fill="#666666"/>
<path d="M75.4888 160.525C75.4888 160.525 77.5696 154.373 78.9301 154.453C79.0901 154.453 80.2906 158.048 79.3302 160.366L75.4888 160.525Z" fill="#666666"/>
<path d="M70.0464 39.2324C70.0464 39.2324 67.2453 42.6683 64.1241 55.1331C61.0029 67.598 72.2072 82.7796 72.2072 82.7796L73.6478 74.8692C73.6478 74.8692 68.1257 63.2034 69.8863 55.5327C71.647 47.862 75.3284 41.3898 75.3284 41.3898L70.0464 39.2324Z" fill="#6C2E3F"/>
<path d="M71.0868 59.2881C71.0868 59.2881 79.1698 59.5278 82.7712 65.201C86.1325 70.4746 85.1721 70.954 85.1721 70.954C85.1721 70.954 74.2079 78.0654 68.2057 64.1622C65.0845 56.891 71.0868 59.2881 71.0868 59.2881Z" fill="#4C2518"/>
<path d="M70.0466 69.0363C70.0466 69.0363 72.6876 68.6368 73.808 66.7191C75.0085 64.7215 74.6884 60.8862 73.2478 58.8886C72.3675 58.7288 70.0466 58.4092 70.0466 58.4092C70.0466 58.4092 65.1647 56.891 68.2859 64.1622C69.0062 65.9201 69.0862 67.9176 70.0466 69.0363Z" fill="#BF9C8C"/>
<path d="M71.0868 59.2881C71.0868 59.2881 71.4869 56.6513 69.4862 56.4915C67.5654 56.4116 66.1249 55.5327 64.6843 55.293C63.2438 55.0533 63.6439 56.3317 62.0433 56.3317C60.4427 56.2518 59.8025 56.2518 59.8025 56.2518C59.8025 56.2518 58.8421 57.8499 60.2026 58.6489C61.5631 59.4479 62.0433 59.0484 62.0433 59.0484C62.0433 59.0484 61.6432 59.7675 62.2834 60.0872C62.9237 60.4068 62.9237 60.4068 62.9237 60.4068C62.9237 60.4068 62.2834 60.4867 62.5235 61.6053C62.7636 62.724 63.4839 63.0436 63.4839 63.0436C63.4839 63.0436 63.1637 63.7627 63.3238 64.322C63.5639 64.8813 63.9641 65.0412 63.9641 65.0412C63.9641 65.0412 63.804 65.6005 63.884 65.9201C64.0441 66.1598 65.3246 67.1186 65.3246 67.1186H70.1264C70.1264 67.1186 70.9267 66.0799 70.6866 65.4407C70.6866 65.4407 72.0471 63.523 72.0471 63.2833C72.0471 63.1235 71.807 63.1235 71.727 62.6441C71.647 62.1646 72.6073 61.5254 72.4473 61.046C72.2872 60.5666 71.0868 59.2881 71.0868 59.2881Z" fill="#D78C74"/>
<path d="M71.0868 59.2881C71.0868 59.2881 71.4869 56.6513 69.4862 56.4915C67.5654 56.4116 66.1249 55.5327 64.6843 55.293C63.2438 55.0533 63.6439 56.3317 62.0433 56.3317C60.4427 56.2518 59.8025 56.2518 59.8025 56.2518C59.8025 56.2518 58.8421 57.8499 60.2026 58.6489C61.5631 59.4479 62.0433 59.0484 62.0433 59.0484C62.0433 59.0484 61.6432 59.7675 62.2834 60.0872C62.9237 60.4068 62.9237 60.4068 62.9237 60.4068C62.9237 60.4068 62.2834 60.4867 62.5235 61.6053C62.7636 62.724 63.4839 63.0436 63.4839 63.0436C63.4839 63.0436 63.1637 63.7627 63.3238 64.322C63.5639 64.8813 63.9641 65.0412 63.9641 65.0412C63.9641 65.0412 63.3238 66.0799 63.4038 66.3995C63.4839 66.7191 64.7644 67.2784 64.7644 67.2784L70.7667 66.9588C70.7667 66.9588 71.647 65.9201 71.4069 65.2809C71.4069 65.2809 71.9671 63.523 71.9671 63.2833C71.9671 63.1235 71.727 63.1235 71.647 62.6441C71.567 62.1646 72.5273 61.5254 72.3673 61.046C72.2872 60.4867 71.0868 59.2881 71.0868 59.2881Z" fill="#E5A185"/>
<path d="M83.3318 75.908C83.3318 75.908 76.8493 90.3705 84.6123 90.2906C92.3752 90.2107 94.6961 77.6659 92.2152 75.908C89.8143 74.1501 83.3318 75.908 83.3318 75.908Z" fill="#6C2E3F"/>
<path d="M23.6289 79.0242C23.6289 79.0242 20.3477 79.983 19.9475 80.7021C19.5474 81.4213 18.507 84.3777 18.587 84.4576C18.667 84.5375 22.1884 90.4503 22.5085 90.1307C22.9087 89.8111 21.6282 87.2542 21.6282 87.2542C21.6282 87.2542 24.1891 88.7724 24.4292 88.213C24.7494 87.7336 23.869 87.1743 23.869 87.1743C23.869 87.1743 25.2295 86.6949 25.3096 86.4552C25.3896 86.2155 24.3492 85.8959 24.3492 85.8959C24.3492 85.8959 26.8302 84.0581 26.9102 83.7385C26.9902 83.4189 27.6305 79.8232 27.6305 79.8232L23.6289 79.0242Z" fill="#E5A185"/>
<path d="M25.3893 73.7506L23.1484 78.6247L27.6301 82.9395L32.592 77.5859L25.3893 73.7506Z" fill="#BF9C8C"/>
<path d="M59.7227 27.0871H51.5596C51.0794 27.0871 50.7593 27.6465 50.9193 28.1259C51.8797 30.4431 53.6404 32.0411 55.7212 32.0411C57.7219 32.0411 59.4826 30.4431 60.3629 28.1259C60.523 27.6465 60.2029 27.0871 59.7227 27.0871Z" fill="white"/>
<path d="M49.6388 19.4964C48.8385 19.4164 48.1982 20.3753 48.1182 21.6537C48.0382 22.9322 48.5984 24.0508 49.3987 24.1307C50.199 24.2106 50.8392 23.2518 50.9193 21.9733C50.9993 20.6949 50.4391 19.5763 49.6388 19.4964Z" fill="#4C2518"/>
<path d="M61.5632 19.3365C60.7629 19.2566 60.1226 20.2155 59.9626 21.4939C59.8025 22.7724 60.4427 23.9709 61.243 24.0508C62.0433 24.1307 62.6836 23.1719 62.8437 21.8934C62.9237 20.615 62.3635 19.4963 61.5632 19.3365Z" fill="#4C2518"/>
</g>
<defs>
<clipPath id="clip0">
<rect width="105" height="165" fill="white" transform="translate(0.5)"/>
</clipPath>
</defs>
</svg>
