<svg width="88" height="122" viewBox="0 0 88 122" fill="none" xmlns="http://www.w3.org/2000/svg">
<g clip-path="url(#clip0)">
<path d="M74.116 121.657C81.216 121.657 86.999 120.696 86.999 119.519C86.999 118.342 81.212 117.381 74.116 117.381C67.02 117.381 61.234 118.341 61.234 119.519C61.234 120.697 67.021 121.657 74.116 121.657Z" fill="#A8ACA9"/>
<path d="M87.676 20.7579V33.6059C87.6699 35.3849 86.9601 37.0893 85.7016 38.3467C84.443 39.6041 82.738 40.3124 80.959 40.3169H67.492C62.242 40.3169 60.776 36.1569 60.776 31.7999V24.8999C60.776 16.3729 60.898 8.02188 71.702 6.20988C79.153 4.95888 87.676 9.29988 87.676 19.2459V20.7579Z" fill="#562B20"/>
<path d="M77.246 115.273L76.407 113.385C76.407 113.385 76.546 109.925 76.376 107.685C76.206 105.445 75.585 80.7021 75.619 79.2341C75.653 77.7661 81.441 77.3101 81.441 77.3101L80.747 78.5601C80.747 78.5601 78.339 111.225 78.491 113.441C78.643 115.657 77.246 115.272 77.246 115.272" fill="#FFDDB8"/>
<path d="M78.494 113.441C78.6067 113.919 78.8915 114.339 79.294 114.621C80.624 115.315 81.9929 115.932 83.394 116.469C84.394 116.969 85.289 118.34 84.264 119.018C83.239 119.696 78.695 119.567 76.843 118.306C74.991 117.045 76.094 114.866 76.336 113.617C76.578 112.368 78.47 112.7 78.494 113.441Z" fill="#FFDDB8"/>
<path d="M82.767 116.183C83.01 116.283 83.226 116.383 83.402 116.469C84.402 116.969 85.297 118.34 84.272 119.018C83.247 119.696 78.703 119.567 76.851 118.306C75.594 117.454 75.694 116.176 75.964 115.054C76.056 116.179 79.226 117.603 81.476 117.411C83.726 117.219 82.77 116.187 82.767 116.183Z" fill="#BF3733"/>
<path d="M71.059 115.273L71.898 113.386C71.898 113.386 71.76 109.926 71.929 107.686C72.098 105.446 72.721 80.7021 72.685 79.2341C72.649 77.7661 66.864 77.3101 66.864 77.3101L67.558 78.5601C67.558 78.5601 69.964 111.225 69.815 113.441C69.666 115.657 71.059 115.272 71.059 115.272" fill="#FFDDB8"/>
<path d="M69.814 113.441C69.6988 113.92 69.4107 114.34 69.005 114.62C67.6751 115.314 66.3061 115.931 64.905 116.468C63.905 116.968 63.01 118.339 64.035 119.017C65.06 119.695 69.603 119.566 71.456 118.305C73.309 117.044 72.21 114.865 71.97 113.616C71.73 112.367 69.833 112.7 69.814 113.441Z" fill="#FFDDB8"/>
<path d="M65.537 116.183C65.294 116.283 65.077 116.383 64.902 116.469C63.902 116.969 63.007 118.34 64.032 119.018C65.057 119.696 69.6 119.567 71.453 118.306C72.709 117.454 72.609 116.176 72.34 115.054C72.248 116.179 69.08 117.603 66.828 117.411C64.576 117.219 65.534 116.187 65.537 116.183Z" fill="#BF3733"/>
<path d="M71.025 36.834C71.025 36.834 66.389 36.824 65.686 38.004C65.1347 39.1282 64.9813 40.4063 65.251 41.629C65.251 41.629 67.587 41.912 68.208 42.729C68.116 43.3771 68.2168 44.0379 68.498 44.629C68.498 44.629 66.947 55.479 66.12 57.009C64.0564 61.3009 63.1112 66.0449 63.372 70.8C63.894 77.044 64.259 84.542 64.589 85.606C64.919 86.67 73.771 86.537 74.227 86.537C74.683 86.537 83.533 86.671 83.864 85.606C84.195 84.541 83.926 79.351 84.764 72.006C85.3369 66.8782 84.4977 61.6914 82.337 57.006C81.509 55.476 79.959 44.619 79.959 44.619C80.2395 44.0277 80.34 43.367 80.248 42.719C80.869 41.904 83.205 41.619 83.205 41.619C83.4744 40.3963 83.3214 39.1185 82.771 37.994C82.064 36.824 77.887 36.957 77.887 36.957L74.227 38.957L71.025 36.834Z" fill="#FFFFFE"/>
<path d="M66.12 57.0088C64.0564 61.3007 63.1112 66.0447 63.372 70.7998C63.894 77.0438 64.259 84.5418 64.589 85.6088C64.919 86.6758 73.771 86.5398 74.227 86.5398C74.683 86.5398 83.533 86.6738 83.864 85.6088C84.195 84.5438 83.926 79.3538 84.764 72.0088C85.336 66.8808 84.4957 61.694 82.334 57.0088H66.12Z" fill="#562B20"/>
<path d="M68.208 42.7261C68.116 43.3741 68.2169 44.035 68.498 44.6261H79.956C80.2365 44.0347 80.337 43.374 80.245 42.7261H68.208Z" fill="#EFE7E0"/>
<path d="M71.6139 34.2428L71.6339 34.9228C71.6451 35.9857 71.5377 37.0466 71.3139 38.0858C70.9709 39.3988 72.7659 39.9278 74.1249 39.9278C75.4839 39.9278 77.0969 39.3978 77.1889 39.0988C77.2809 38.7998 77.5809 37.5328 77.5809 37.5328C77.2365 36.309 77.0276 35.0512 76.9579 33.7818C77.0269 32.5848 71.6139 34.2428 71.6139 34.2428Z" fill="#FFDDB8"/>
<path d="M74.227 9.22607C76.8035 9.2324 79.2727 10.2581 81.0952 12.0792C82.9178 13.9003 83.9456 16.3686 83.954 18.9451V25.5331C83.954 28.113 82.9292 30.5872 81.1049 32.4115C79.2806 34.2357 76.8064 35.2606 74.2265 35.2606C71.6466 35.2606 69.1724 34.2357 67.3481 32.4115C65.5239 30.5872 64.499 28.113 64.499 25.5331V18.9451C64.5077 16.3686 65.5357 13.9002 67.3585 12.0791C69.1812 10.2581 71.6505 9.2324 74.227 9.22607" fill="#FFDDB8"/>
<path d="M68.106 21.0158C68.1791 21.0543 68.2592 21.0776 68.3415 21.0843C68.4239 21.091 68.5067 21.081 68.585 21.0548C68.9063 20.9441 69.2456 20.8956 69.585 20.9118C69.7425 20.9266 69.8976 20.9601 70.047 21.0118C70.204 21.0454 70.3534 21.1075 70.488 21.1948C70.611 21.3198 70.944 21.2308 70.903 21.0618C70.8978 20.9776 70.8854 20.894 70.866 20.8118C70.8211 20.711 70.7525 20.6225 70.666 20.5538C70.4341 20.3728 70.1578 20.2575 69.866 20.2198C69.2803 20.0996 68.6712 20.1803 68.137 20.4488C67.967 20.5628 67.892 20.7158 67.964 20.8698C67.9974 20.9304 68.0464 20.9808 68.106 21.0158Z" fill="#41231B"/>
<path d="M77.376 21.1611C77.6034 21.0296 77.8424 20.9195 78.09 20.8321C78.3181 20.7588 78.5524 20.7063 78.79 20.6751C79.0073 20.648 79.2269 20.6444 79.445 20.6641C79.5376 20.6747 79.6291 20.6941 79.718 20.7221C79.862 20.7701 79.818 20.7831 79.971 20.8691C80.344 21.0751 80.939 20.8471 80.699 20.4821C80.339 19.9331 79.349 19.8821 78.699 19.9731C78.3682 20.0138 78.0483 20.1181 77.757 20.2801C77.445 20.4621 77.109 20.6861 77.045 21.0001C77.018 21.1351 77.237 21.2311 77.374 21.1611" fill="#41231B"/>
<path d="M73.521 26.8437C73.5292 26.8573 73.5416 26.868 73.5562 26.8741C73.5709 26.8803 73.5871 26.8816 73.6026 26.8779C73.618 26.8743 73.6319 26.8658 73.6423 26.8537C73.6526 26.8416 73.6588 26.8266 73.66 26.8107C73.66 26.7357 73.688 26.6507 73.694 26.5727C73.702 26.4727 73.706 26.3807 73.795 26.3207C74.001 26.1717 74.277 26.1557 74.471 25.9977C74.665 25.8397 74.462 25.5937 74.265 25.6207C74.1133 25.6594 73.9688 25.7222 73.837 25.8067C73.6985 25.8818 73.5804 25.9896 73.493 26.1207C73.4221 26.2314 73.3846 26.3602 73.385 26.4917C73.3845 26.565 73.3985 26.6377 73.426 26.7057C73.4528 26.7561 73.4865 26.8025 73.526 26.8437" fill="#41231B"/>
<path d="M67.737 23.36C67.792 23.338 67.804 23.351 67.858 23.35C67.922 23.3519 67.9859 23.3582 68.049 23.369C68.1418 23.3871 68.2357 23.3991 68.33 23.405C68.3584 23.2895 68.4004 23.1777 68.455 23.072C68.43 23.064 68.406 23.055 68.381 23.045C68.2662 22.9981 68.161 22.9303 68.071 22.845C68.002 22.775 67.887 22.635 67.922 22.53C68.006 22.277 68.238 22.537 68.342 22.63C68.4396 22.715 68.5605 22.7687 68.689 22.784H68.695C68.8475 22.6562 69.0268 22.5643 69.2197 22.5151C69.4125 22.466 69.6139 22.4608 69.809 22.5C69.833 22.505 69.858 22.513 69.882 22.52C70.61 22.366 70.936 23.42 70.949 23.968C71.0121 24.3181 70.9581 24.6791 70.7954 24.9954C70.6327 25.3118 70.3704 25.5657 70.049 25.718C69.6812 25.792 69.299 25.7235 68.9799 25.5263C68.6607 25.3291 68.4284 25.018 68.33 24.656C68.2473 24.3794 68.2238 24.0884 68.261 23.802C68.1608 23.8105 68.06 23.8058 67.961 23.788C67.8909 23.782 67.8243 23.7548 67.77 23.71L67.678 23.622C67.6588 23.6032 67.6448 23.5797 67.6372 23.5539C67.6296 23.5281 67.6287 23.5008 67.6346 23.4746C67.6405 23.4484 67.653 23.4241 67.6709 23.404C67.6889 23.384 67.7116 23.3688 67.737 23.36Z" fill="#41231B"/>
<path d="M69.689 23.7978C69.7605 23.8693 69.8546 23.9137 69.9552 23.9237C70.0558 23.9336 70.1568 23.9083 70.2408 23.8521C70.3249 23.7959 70.3869 23.7124 70.4162 23.6156C70.4456 23.5189 70.4405 23.4149 70.4018 23.3215C70.3631 23.2281 70.2932 23.151 70.204 23.1034C70.1149 23.0557 70.0119 23.0404 69.9128 23.0602C69.8136 23.0799 69.7244 23.1334 69.6602 23.2115C69.5961 23.2897 69.561 23.3877 69.561 23.4888C69.5614 23.6046 69.6074 23.7156 69.689 23.7978Z" fill="#FFFFFE"/>
<path d="M80.716 23.3599C80.66 23.3379 80.649 23.3509 80.595 23.3499C80.5303 23.3516 80.4658 23.358 80.402 23.3689C80.3092 23.3869 80.2154 23.399 80.121 23.4049C80.0947 23.2896 80.0548 23.1778 80.002 23.0719C80.027 23.0639 80.051 23.0549 80.075 23.0449C80.19 22.9983 80.2951 22.9305 80.385 22.8449C80.455 22.7779 80.569 22.6389 80.534 22.5329C80.45 22.2799 80.219 22.5399 80.114 22.6329C80.0162 22.7182 79.8949 22.7718 79.766 22.7869H79.761C79.6083 22.6579 79.4285 22.5651 79.2349 22.5154C79.0413 22.4657 78.839 22.4604 78.643 22.4999C78.619 22.5049 78.595 22.5129 78.571 22.5199C77.842 22.3659 77.517 23.4159 77.502 23.9679C77.4384 24.3186 77.492 24.6804 77.6547 24.9975C77.8174 25.3145 78.0801 25.5692 78.402 25.7219C78.7699 25.7952 79.1519 25.7258 79.4706 25.5279C79.7892 25.3299 80.0207 25.0182 80.118 24.6559C80.2027 24.3793 80.2276 24.0879 80.191 23.8009C80.2912 23.8097 80.3921 23.805 80.491 23.7869C80.5603 23.7809 80.6262 23.7541 80.68 23.7099L80.775 23.6219C80.7945 23.6032 80.8088 23.5798 80.8165 23.5539C80.8243 23.5281 80.8253 23.5007 80.8193 23.4743C80.8134 23.448 80.8008 23.4236 80.7827 23.4036C80.7646 23.3835 80.7416 23.3685 80.716 23.3599Z" fill="#41231B"/>
<path d="M79.511 23.8799C79.428 23.957 79.3182 23.9989 79.2049 23.9968C79.0916 23.9947 78.9835 23.9488 78.9033 23.8686C78.8232 23.7885 78.7772 23.6804 78.7751 23.567C78.773 23.4537 78.8149 23.3439 78.892 23.2609C78.9741 23.1787 79.0855 23.1324 79.2017 23.1323C79.3179 23.1322 79.4293 23.1783 79.5115 23.2604C79.5938 23.3425 79.64 23.4538 79.6401 23.57C79.6402 23.6862 79.5941 23.7977 79.512 23.8799" fill="#FFFFFE"/>
<path d="M68.6991 28.1588C69.7801 28.1588 70.6611 27.8448 70.6611 27.4588C70.6611 27.0728 69.7801 26.7588 68.6991 26.7588C67.6181 26.7588 66.7371 27.0728 66.7371 27.4588C66.7371 27.8448 67.6181 28.1588 68.6991 28.1588Z" fill="#D76051"/>
<path d="M79.753 28.1588C80.834 28.1588 81.716 27.8448 81.716 27.4588C81.716 27.0728 80.835 26.7588 79.753 26.7588C78.671 26.7588 77.791 27.0728 77.791 27.4588C77.791 27.8448 78.673 28.1588 79.753 28.1588Z" fill="#D76051"/>
<path d="M68.269 19.7207L63.924 17.5957L63.252 23.4867H64.499C64.5024 22.4883 64.9008 21.5318 65.6072 20.8261C66.3136 20.1205 67.2705 19.7231 68.269 19.7207Z" fill="#562B20"/>
<path d="M71.517 29.334C71.517 29.334 76.63 29.094 77.557 29.455C78.484 29.816 77.062 32.775 73.943 32.555C70.824 32.335 69.842 29.416 71.517 29.334Z" fill="#FFFFFE"/>
<path d="M72.119 36.5018C72.119 36.5018 72.536 38.5818 74.236 38.4508C74.7914 38.3636 75.3145 38.1333 75.7538 37.7827C76.1932 37.432 76.5338 36.973 76.742 36.4508C76.992 36.0998 78.233 36.9158 78.274 37.3978C78.315 37.8798 77.059 41.0348 76.143 41.0128C75.227 40.9908 74.81 40.2028 74.393 40.0488C73.976 39.8948 73.479 40.7068 72.748 41.0588C72.017 41.4108 70.525 37.7748 70.692 37.3808C70.859 36.9868 71.764 35.7368 72.119 36.5018Z" fill="#DBD2C9"/>
<path d="M63.875 19.1359L67.581 19.7249H74.507C75.864 19.7249 81.007 19.6819 81.007 14.0919V10.2319L72.459 7.0249C70.9759 7.97632 69.5426 9.00334 68.165 10.1019C67.991 10.4489 63.654 13.7419 63.48 14.5649C63.306 15.3879 62.68 16.8219 62.96 17.2089C63.303 17.8323 63.6082 18.4758 63.874 19.1359" fill="#562B20"/>
<path d="M87.077 20.0288C84.79 19.8718 80.614 18.9508 80.614 13.5208V9.04379L81.587 8.88379C82.561 9.82279 84.44 11.6758 84.44 12.0118C84.44 12.4648 86.865 17.9168 86.756 18.9538C86.7649 19.3339 86.8753 19.7048 87.076 20.0278" fill="#562B20"/>
<path d="M69.377 64.5021C70.0608 63.1677 71.1126 62.0572 72.408 61.3021C73.866 60.7021 75.766 60.3881 76.688 61.0601C77.663 61.9407 78.2605 63.1637 78.356 64.4741C78.299 65.3601 77.556 64.9021 77.412 64.3891C77.268 63.8761 76.658 61.9541 75.835 61.6571C75.012 61.3601 72.373 61.6421 71.894 62.4241C71.5085 63.179 71.046 63.8921 70.514 64.5521C70.199 64.7661 69.255 65.0231 69.377 64.5021Z" fill="#8F2429"/>
<path d="M83.202 41.6289C83.22 41.6419 84.215 44.7909 85.002 48.0559C85.672 50.8249 86.125 50.6859 85.031 52.6389C83.222 55.8709 79.901 60.2759 79.237 60.5389C78.573 60.8019 77.908 60.6619 78.215 59.9549C78.522 59.2479 81.845 54.6819 83.183 51.2429C83.123 51.0176 83.0564 50.8042 82.983 50.6029C82.262 48.6249 81.083 46.0029 80.183 44.0659C80.2761 43.6265 80.2953 43.1746 80.24 42.7289C80.865 41.9119 83.202 41.6289 83.202 41.6289Z" fill="#FFDDB8"/>
<path d="M71.324 61.1278L71.318 61.1188L71.309 61.1098L71.295 61.0948C71.3798 61.3561 71.4223 61.6292 71.421 61.9038C72.0002 62.0856 72.5597 62.3252 73.091 62.6188C73.226 62.8088 73.104 62.9668 72.817 62.9738C72.53 62.9808 72.3 62.9738 72.3 62.9738C72.2269 63.0681 72.1309 63.1421 72.0211 63.1888C71.9114 63.2355 71.7916 63.2534 71.673 63.2408C70.673 63.2128 70.612 63.6798 69.753 63.0608H69.771C69.5818 62.9322 69.4396 62.7454 69.366 62.5288C69.0842 61.5667 68.7398 60.624 68.335 59.7068L69.903 59.3188L70.286 59.9258C70.755 59.9947 71.199 60.1808 71.577 60.4668C71.7749 60.7273 71.9907 60.9735 72.223 61.2038C72.423 61.3868 72.637 61.7688 72.148 61.6928C71.8223 61.5925 71.5349 61.3955 71.324 61.1278Z" fill="#FFDDB8"/>
<path d="M65.252 41.6289C65.234 41.6419 64.239 44.7909 63.449 48.0559C62.78 50.8289 62.327 50.6859 63.421 52.6389C65.23 55.8709 68.55 60.2759 69.215 60.5389C69.88 60.8019 70.543 60.6619 70.237 59.9549C69.931 59.2479 66.607 54.6819 65.269 51.2429C65.3297 51.0176 65.3963 50.8042 65.469 50.6029C66.191 48.6249 67.369 46.0029 68.269 44.0659C68.1748 43.6267 68.1546 43.1748 68.209 42.7289C67.588 41.9119 65.252 41.6289 65.252 41.6289Z" fill="#FFDDB8"/>
<path d="M77.13 61.1278L77.136 61.1188L77.145 61.1098L77.16 61.0938C77.0752 61.3551 77.0326 61.6282 77.034 61.9028C76.4544 62.0848 75.8946 62.3247 75.363 62.6188C75.228 62.8088 75.349 62.9668 75.636 62.9738C75.923 62.9808 76.153 62.9738 76.153 62.9738C76.2261 63.0681 76.3221 63.1421 76.4318 63.1888C76.5416 63.2355 76.6614 63.2534 76.78 63.2408C77.78 63.2128 77.842 63.6798 78.702 63.0608H78.684C78.871 62.931 79.0112 62.7445 79.084 62.5288C79.3674 61.5667 79.7131 60.624 80.119 59.7068L78.552 59.3188L78.168 59.9258C77.6987 59.9946 77.2543 60.1807 76.876 60.4668C76.6787 60.7274 76.4631 60.9737 76.231 61.2038C76.031 61.3868 75.816 61.7688 76.306 61.6928C76.6314 61.5925 76.9185 61.3955 77.129 61.1278" fill="#FFDDB8"/>
<path d="M71.671 61.7358V61.8598H72.679V61.1958C72.588 61.2308 72.496 61.2658 72.408 61.3028C72.1453 61.4159 71.8977 61.5614 71.671 61.7358" fill="#8F2429"/>
<path d="M77.0261 61.3611V61.7751H76.0541C75.9869 61.7258 75.9132 61.6861 75.8351 61.6571C75.7759 61.6359 75.7154 61.6185 75.6541 61.6051V60.7051C76.0235 60.7324 76.3797 60.8547 76.6881 61.0601C76.8098 61.1494 76.9229 61.2498 77.0261 61.3601" fill="#8F2429"/>
<path d="M66.769 73.774C65.955 73.358 66.254 71.88 66.259 71.011C66.1873 68.9105 66.225 66.8077 66.372 64.711C67.061 63.823 68.924 64.168 70.124 64.146C71.624 64.119 81.424 63.873 82.006 64.197C82.828 64.653 82.484 66.76 82.506 67.703C82.528 68.646 82.901 73.131 82.181 73.61C81.523 74.043 75.49 73.9 74.451 73.91C71.8899 74.0196 69.3246 73.9741 66.769 73.774Z" fill="#BF3733"/>
<path d="M19.3231 121.869C28.2291 121.869 35.4931 121.103 35.4931 120.163C35.4931 119.223 28.2291 118.456 19.3231 118.456C10.4171 118.456 3.15308 119.223 3.15308 120.163C3.15308 121.103 10.4171 121.869 19.3231 121.869Z" fill="#848988"/>
<path d="M15.011 33.0927C10.04 33.7057 3.73602 45.7417 1.68702 49.2227C-0.0489787 52.1747 -0.129979 52.2927 0.0850212 54.9927C0.441021 59.4657 1.18502 66.7567 1.69502 67.3267C2.20502 67.8967 3.94302 67.4937 3.48202 66.1987C3.02102 64.9037 2.72402 58.4087 2.88202 53.8797C3.02802 53.6417 1.93902 55.1197 3.32602 53.2157C4.71302 51.3117 10.233 44.3957 10.233 44.3957C9.56302 42.4567 16.728 32.8847 15.011 33.0927Z" fill="#16334A"/>
<path d="M24.06 33.27C28.566 34.341 31.44 44.154 34.294 52.182C35.439 55.402 35.859 55.134 35.132 57.751C33.932 62.079 31.945 68.723 31.341 69.188C31.1711 69.2908 30.9756 69.3434 30.777 69.3398C30.5785 69.3361 30.385 69.2763 30.219 69.1674C30.053 69.0584 29.9212 68.9046 29.8389 68.7239C29.7567 68.5431 29.7272 68.3428 29.754 68.146C29.929 67.218 32.376 60.935 33.078 56.457C32.978 56.196 32.878 55.95 32.767 55.722C30.874 51.694 27.176 45.462 27.176 45.462C27.176 45.462 21.96 33.318 24.06 33.27Z" fill="#16334A"/>
<path d="M24.874 114.561C25.0603 114.901 25.322 115.194 25.639 115.417C27.1059 116.13 28.6123 116.758 30.151 117.299C31.251 117.809 32.262 119.261 31.166 120.017C30.07 120.773 25.122 120.754 23.069 119.446C21.016 118.138 22.162 115.766 22.389 114.417C22.7242 114.722 23.1538 114.902 23.6061 114.929C24.0583 114.955 24.5059 114.825 24.874 114.561Z" fill="#562A1F"/>
<path d="M31.557 118.745C31.6563 118.968 31.6717 119.22 31.6004 119.453C31.5291 119.687 31.376 119.887 31.1691 120.017C30.069 120.772 25.122 120.754 23.069 119.445C22.6398 119.181 22.2981 118.796 22.0869 118.338C21.8757 117.88 21.8045 117.37 21.882 116.872C21.882 116.872 24.416 121.414 31.557 118.745Z" fill="#FFFFFE"/>
<path d="M14.05 114.666C13.8646 115.006 13.6035 115.299 13.287 115.522C11.8199 116.234 10.313 116.862 8.77401 117.402C7.67601 117.915 6.66201 119.367 7.75901 120.122C8.85601 120.877 13.803 120.858 15.852 119.55C17.901 118.242 16.764 115.871 16.536 114.522C16.2008 114.827 15.771 115.008 15.3185 115.034C14.866 115.06 14.4182 114.93 14.05 114.666Z" fill="#562A1F"/>
<path d="M7.36797 118.85C7.26902 119.074 7.2541 119.325 7.32593 119.559C7.39776 119.793 7.55153 119.993 7.75897 120.122C8.85897 120.879 13.803 120.859 15.852 119.55C16.2818 119.286 16.6241 118.901 16.836 118.443C17.0479 117.986 17.1199 117.476 17.043 116.977C17.043 116.977 14.509 121.519 7.36797 118.85Z" fill="#FFFFFE"/>
<path d="M19.617 66.0591L9.90798 66.8851C8.12998 67.0361 11.563 87.2401 11.915 89.2471C12.073 90.1531 13.415 114.299 14.022 114.847C14.629 115.395 15.722 115.959 16.472 115.075C17.222 114.191 16.766 83.2251 17.354 80.8221C18.27 77.0781 20.628 77.0781 21.544 80.8221C22.131 83.2221 21.672 114.189 22.427 115.075C23.182 115.961 24.268 115.392 24.877 114.847C25.486 114.302 26.825 90.1561 26.984 89.2471C27.335 87.2411 29.791 67.3801 28.019 67.1471L19.617 66.0591Z" fill="#16334A"/>
<path d="M15.988 30.2581L16.009 31.1351C16.0209 32.4994 15.9091 33.862 15.675 35.2061C15.313 36.8961 17.195 37.5781 18.618 37.5781C20.041 37.5781 21.73 36.8961 21.83 36.5061C21.93 36.1161 22.239 34.4901 22.239 34.4901C21.8765 32.9047 21.658 31.2898 21.586 29.6651C21.658 28.1241 15.986 30.2571 15.986 30.2571" fill="#FFDDB8"/>
<path d="M21.96 32.7861C20.835 36.2121 17.587 35.9061 16.093 32.9711C9.42401 33.0401 9.75901 44.8501 9.75901 44.8501C9.75901 44.8501 9.36501 62.2651 8.93401 65.1861C8.50301 68.1071 9.41201 68.4861 10.224 68.9411C13.747 70.2201 25.345 72.2961 28.224 69.2411C28.7827 68.6804 29.193 67.9895 29.418 67.2306C29.643 66.4717 29.6757 65.6688 29.513 64.8941C29.083 61.9711 28.291 44.6601 28.291 44.6601C28.291 44.6601 28.631 32.8541 21.96 32.7861Z" fill="#1A4A6F"/>
<path d="M21.96 32.7861C20.834 36.2121 17.586 35.9061 16.092 32.9711C15.3617 32.9709 14.6411 33.1386 13.986 33.4611H13.986C13.986 33.4611 18.596 52.4731 18.742 52.6061C18.888 52.7391 18.951 52.6161 18.951 52.6161C20.092 50.3171 24.039 33.3481 24.056 33.2721C23.4036 32.952 22.6866 32.7858 21.96 32.7861Z" fill="#F0E8E2"/>
<path d="M18.949 3.06012C22.1089 3.04995 25.1445 4.29054 27.3929 6.51097C29.6412 8.73141 30.9197 11.7513 30.949 14.9111V19.1711C30.949 22.3537 29.6847 25.406 27.4343 27.6564C25.1838 29.9068 22.1316 31.1711 18.949 31.1711C15.7664 31.1711 12.7141 29.9068 10.4637 27.6564C8.21326 25.406 6.94897 22.3537 6.94897 19.1711L6.94897 14.9111C6.97828 11.7513 8.2567 8.73141 10.5051 6.51097C12.7534 4.29054 15.789 3.04995 18.949 3.06012Z" fill="#FFDDB8"/>
<path d="M11.897 14.8101C11.9814 14.854 12.0738 14.8804 12.1686 14.888C12.2634 14.8956 12.3587 14.884 12.449 14.8541C12.82 14.7276 13.2115 14.672 13.603 14.6901C13.784 14.7064 13.9626 14.7437 14.135 14.8011C14.3158 14.8398 14.4882 14.9106 14.644 15.0101C14.786 15.1521 15.169 15.0511 15.123 14.8591C15.1176 14.7628 15.1039 14.6671 15.082 14.5731C15.031 14.4589 14.9535 14.3585 14.856 14.2801C14.589 14.0739 14.2717 13.9427 13.937 13.9001C13.2596 13.7621 12.5554 13.8551 11.937 14.1641C11.737 14.2941 11.65 14.4641 11.737 14.6481C11.7752 14.7152 11.8304 14.7711 11.897 14.8101Z" fill="#41231B"/>
<path d="M22.58 14.9738C22.8405 14.8237 23.1143 14.6982 23.398 14.5988C23.6588 14.5154 23.9265 14.4554 24.198 14.4198C24.4525 14.3879 24.7097 14.3839 24.965 14.4078C25.0716 14.4191 25.1767 14.4409 25.279 14.4728C25.445 14.5258 25.394 14.5428 25.571 14.6398C26.001 14.8748 26.687 14.6148 26.411 14.1998C25.998 13.5798 24.855 13.5178 24.108 13.6208C23.7257 13.6664 23.3557 13.7849 23.018 13.9698C22.661 14.1798 22.272 14.4328 22.198 14.7898C22.168 14.9438 22.419 15.0528 22.577 14.9738" fill="#41231B"/>
<path d="M18.1391 21.448C18.1484 21.4639 18.1625 21.4763 18.1795 21.4836C18.1964 21.4908 18.2152 21.4924 18.2331 21.4881C18.251 21.4839 18.2671 21.474 18.279 21.4599C18.2908 21.4459 18.2979 21.4283 18.2991 21.41C18.2991 21.324 18.3311 21.229 18.3371 21.139C18.3461 21.024 18.3511 20.92 18.4531 20.848C18.6901 20.683 19.0091 20.663 19.2331 20.484C19.4571 20.305 19.2221 20.024 18.9961 20.054C18.821 20.0974 18.6541 20.169 18.5021 20.266C18.3417 20.3498 18.2043 20.4717 18.1021 20.621C18.0207 20.7476 17.9786 20.8955 17.9811 21.046C17.9802 21.1293 17.9962 21.212 18.0281 21.289C18.0577 21.3464 18.095 21.3996 18.1391 21.447" fill="#41231B"/>
<path d="M12.874 16.6291C13.1794 16.4781 13.5261 16.4328 13.86 16.5001C13.889 16.5071 13.916 16.5141 13.944 16.5231C14.783 16.3471 15.16 17.5431 15.174 18.1671C15.2472 18.5686 15.1847 18.983 14.9964 19.3451C14.8081 19.7072 14.5047 19.9964 14.134 20.1671C13.7127 20.252 13.2749 20.1742 12.9086 19.9493C12.5424 19.7244 12.2749 19.3692 12.16 18.9551C12.0923 18.7472 12.0586 18.5297 12.06 18.3111C12.0116 17.9814 12.0633 17.6448 12.2084 17.3449C12.3536 17.045 12.5855 16.7956 12.874 16.6291Z" fill="#41231B"/>
<path d="M13.7221 17.9781C13.8175 18.0714 13.9456 18.1235 14.0791 18.1235C14.2125 18.1235 14.3406 18.0714 14.4361 17.9781C14.4829 17.9322 14.5201 17.8773 14.5455 17.8168C14.5709 17.7563 14.584 17.6913 14.584 17.6256C14.584 17.56 14.5709 17.495 14.5455 17.4345C14.5201 17.374 14.4829 17.3191 14.4361 17.2731C14.3408 17.1795 14.2126 17.127 14.0791 17.127C13.9455 17.127 13.8173 17.1795 13.7221 17.2731C13.6289 17.3668 13.5767 17.4935 13.5767 17.6256C13.5767 17.7577 13.6289 17.8845 13.7221 17.9781Z" fill="#FFFFFE"/>
<path d="M25.099 16.6661C24.7787 16.4824 24.402 16.4233 24.041 16.5001C24.013 16.5071 23.985 16.5141 23.957 16.5231C23.118 16.3471 22.742 17.5431 22.726 18.1721C22.6543 18.5728 22.7177 18.9859 22.9061 19.3468C23.0944 19.7076 23.3972 19.9958 23.767 20.1661C24.1877 20.2505 24.6248 20.1727 24.9906 19.9483C25.3563 19.7238 25.6237 19.3694 25.739 18.9561C25.8074 18.7322 25.8411 18.4991 25.839 18.2651C25.869 17.1731 25.479 16.8771 25.099 16.6661Z" fill="#41231B"/>
<path d="M25.04 18.0708C24.9449 18.1642 24.8168 18.2165 24.6835 18.2165C24.5502 18.2165 24.4222 18.1642 24.327 18.0708C24.2809 18.0249 24.2444 17.9704 24.2194 17.9103C24.1945 17.8502 24.1816 17.7858 24.1816 17.7208C24.1816 17.6558 24.1945 17.5914 24.2194 17.5313C24.2444 17.4712 24.2809 17.4167 24.327 17.3708C24.4222 17.2774 24.5502 17.2251 24.6835 17.2251C24.8168 17.2251 24.9449 17.2774 25.04 17.3708C25.0865 17.4165 25.1233 17.471 25.1485 17.5311C25.1737 17.5911 25.1867 17.6556 25.1867 17.7208C25.1867 17.7859 25.1737 17.8504 25.1485 17.9105C25.1233 17.9706 25.0865 18.0251 25.04 18.0708Z" fill="#FFFFFE"/>
<path d="M12.581 22.9431C13.826 22.9431 14.843 22.5851 14.843 22.1431C14.843 21.7011 13.826 21.3491 12.581 21.3491C11.336 21.3491 10.319 21.7071 10.319 22.1491C10.319 22.5911 11.335 22.9491 12.581 22.9491" fill="#D66051"/>
<path d="M25.3211 22.9431C26.5661 22.9431 27.5831 22.5851 27.5831 22.1431C27.5831 21.7011 26.5661 21.3491 25.3211 21.3491C24.0761 21.3491 23.0591 21.7071 23.0591 22.1491C23.0591 22.5911 24.0751 22.9491 25.3211 22.9491" fill="#D66051"/>
<path d="M15.495 23.8721C15.495 23.8721 22.008 23.5721 23.188 24.0181C24.368 24.4641 22.559 28.1991 18.588 27.9181C14.617 27.6371 13.363 23.9721 15.495 23.8721Z" fill="#FFFFFE"/>
<path d="M30.9751 16.0331C30.9751 16.0331 33.0051 15.3661 33.7511 16.6991C34.4971 18.0321 32.7911 22.2431 30.7311 20.3491C28.6711 18.4551 30.9751 16.0331 30.9751 16.0331Z" fill="#FFDDB8"/>
<path d="M7.63908 15.8607C7.22108 15.6267 4.75008 15.0297 4.56708 16.4987C4.38408 17.9677 4.73808 20.0477 5.72108 20.4647C6.70408 20.8817 9.59008 19.6267 7.63908 15.8607Z" fill="#FFDDB8"/>
<path d="M18.908 9.33415C15.074 9.41215 11.246 8.64015 9.67097 11.2711C8.13955 13.6358 7.40377 16.4279 7.57097 19.2401C7.57097 19.2401 7.27097 19.3121 7.15297 18.8861C7.03497 18.4601 6.48497 15.6331 5.88397 15.5451C5.45997 5.50515 8.00597 2.61415 12.038 1.66115C16.07 0.708147 13.482 1.34315 14.154 1.22515C15.718 2.71715 18.231 7.43615 18.908 9.33415Z" fill="#41231B"/>
<path d="M14.657 8.49093C19.41 10.9109 26.285 7.54693 28.515 11.2709C30.047 13.6353 30.7828 16.4276 30.615 19.2399C30.615 19.2399 30.92 19.3119 31.033 18.8859C31.146 18.4599 31.703 15.9619 32.304 15.8739C32.304 15.8739 33.855 2.29293 26.517 0.559926C20.727 -0.807074 -0.893018 -0.100074 13.053 7.64193C13.5483 7.91726 14.0816 8.20026 14.653 8.49093" fill="#562A1F"/>
<path d="M29.954 68.0881C29.642 68.4231 29.345 68.6421 28.985 68.9981C28.4565 69.4784 28.0013 70.0337 27.634 70.6461C27.6989 71.8546 28.0049 73.0378 28.534 74.1261C29.0787 73.6254 29.4597 72.9719 29.627 72.2511C29.927 71.3451 30.455 70.0021 30.817 69.0991C31.326 67.8321 30.265 67.7541 29.954 68.0881Z" fill="#FFDDB8"/>
<path d="M30.9801 16.0327L30.613 17.3157C30.251 23.9147 26.151 29.3697 18.951 29.3697V32.4697C18.951 32.4697 25.8151 32.7087 28.2681 31.0007C30.7211 29.2927 31.245 24.9237 31.205 22.3817C31.1868 20.7459 31.2553 19.1103 31.41 17.4817L30.9801 16.0327Z" fill="#562A1F"/>
<path d="M6.92007 16.0327L7.29207 17.3157C7.66007 23.9157 11.7521 29.3697 18.9541 29.3697V32.4697C18.9541 32.4697 12.0901 32.7087 9.63707 31.0007C7.18407 29.2927 6.65707 24.9217 6.69207 22.3787C6.71178 20.743 6.64502 19.1074 6.49207 17.4787L6.92007 16.0327Z" fill="#562A1F"/>
<path d="M18.9511 35.252C18.9511 35.252 19.8931 35.774 19.9511 36.142C20.0091 36.51 19.6591 37.214 19.4381 37.242C19.2171 37.27 18.5561 37.552 18.3541 37.104C18.1521 36.656 17.5911 35.952 17.7711 35.652C17.9511 35.352 18.9511 35.252 18.9511 35.252Z" fill="#BF3634"/>
<path d="M16.0251 32.6128C16.0251 32.6128 16.8461 34.8708 18.9511 34.9308C21.0561 34.8708 21.8771 32.6128 21.8771 32.6128C21.8771 32.6128 22.4321 32.8128 22.3981 33.1628C22.3641 33.5128 21.2511 36.6778 20.7081 36.6628C20.1651 36.6478 18.9511 35.6258 18.9511 35.6258C18.9511 35.6258 17.7381 36.6578 17.1951 36.6678C16.6521 36.6778 15.5411 33.5128 15.5031 33.1628C15.4651 32.8128 16.0251 32.6128 16.0251 32.6128Z" fill="#FFFFFE"/>
<path d="M25.071 33.9511C25.371 35.0671 26.286 38.7021 26.029 40.1391C25.723 41.8471 23.655 41.4891 23.535 42.3241C23.415 43.1591 24.299 43.2371 24.58 44.1111C24.861 44.9851 18.955 54.1621 18.955 54.1621C18.9094 54.1893 18.8586 54.2068 18.8059 54.2135C18.7533 54.2202 18.6998 54.2159 18.6488 54.201C18.5978 54.1861 18.5505 54.1608 18.5097 54.1267C18.469 54.0927 18.4357 54.0506 18.412 54.0031C18.212 53.6451 13.786 45.2841 13.586 44.6091C13.386 43.9341 15.19 43.0201 15.19 42.1461C15.19 41.2721 12.855 42.0271 12.616 41.6671C12.4 41.3491 12.821 35.4151 12.91 34.2011C13.2351 33.9053 13.5991 33.6553 13.992 33.4581H13.986C13.986 33.4581 18.597 52.4721 18.743 52.6071C18.889 52.7421 18.952 52.6171 18.952 52.6171C20.093 50.3181 24.039 33.3471 24.055 33.2671H24.048C24.4164 33.45 24.7596 33.6799 25.069 33.9511" fill="#196597"/>
<path d="M19.41 36.8569C19.41 36.8569 19.784 42.9049 20.239 48.5939C19.8991 49.9617 19.4685 51.3054 18.95 52.6159C18.95 52.6159 18.887 52.7409 18.741 52.6069C18.696 52.5649 18.212 50.6679 17.569 48.0829C17.979 42.8069 18.606 37.0259 18.606 37.0259L19.41 36.8569Z" fill="#BF3634"/>
<path d="M3.96497 67.3008C4.24997 67.7178 4.87097 68.3688 4.91397 68.7858C4.98697 69.5008 5.74197 69.9348 4.98697 70.7028C4.98697 70.7028 2.49597 71.7228 2.29497 70.1798C2.15797 69.1408 2.27797 67.7328 2.09397 66.7938C2.05597 66.5938 3.03997 65.6028 3.36397 66.2938C3.51417 66.6569 3.71664 66.9962 3.96497 67.3008Z" fill="#FFDDB8"/>
<path d="M48.101 121.791C54.89 121.791 60.426 121.019 60.426 120.073C60.426 119.127 54.889 118.354 48.101 118.354C41.313 118.354 35.776 119.127 35.776 120.073C35.776 121.019 41.312 121.791 48.101 121.791Z" fill="#848988"/>
<path d="M45.543 117.168C45.543 117.168 45.509 114.998 45.648 113.599C45.787 112.2 46.148 105.799 46.148 104.88C46.148 103.961 43.881 104.12 43.881 104.12L43.093 105.009C43.093 105.009 44.375 115.785 44.247 117.172C44.1673 117.469 43.9821 117.727 43.726 117.897C42.8887 118.313 42.0279 118.68 41.148 118.997C40.521 119.297 39.942 120.139 40.568 120.58C42.0964 121.057 43.7489 120.938 45.193 120.247C46.363 119.485 45.713 118.104 45.583 117.317C45.575 117.267 45.5616 117.218 45.543 117.171" fill="#FFDDB8"/>
<path d="M44.164 117.398C44.0587 117.596 43.9092 117.767 43.727 117.898C42.8893 118.313 42.0282 118.679 41.148 118.994C40.521 119.294 39.942 120.136 40.568 120.577C42.0964 121.054 43.7489 120.935 45.193 120.244C46.363 119.482 45.713 118.101 45.583 117.314C45.3933 117.491 45.1475 117.597 44.8882 117.612C44.6289 117.627 44.3724 117.552 44.163 117.398" fill="#196597"/>
<path d="M40.3451 119.836C40.2889 119.966 40.2806 120.112 40.3216 120.248C40.3626 120.383 40.4502 120.5 40.5691 120.577C42.097 121.055 43.749 120.936 45.1931 120.245C45.4404 120.089 45.6365 119.863 45.7573 119.597C45.8782 119.33 45.9184 119.034 45.8731 118.745C45.8731 118.745 44.4261 121.391 40.3451 119.836Z" fill="#FFFFFE"/>
<path d="M44.303 78.8469L44.786 77.8589C38.586 79.9189 36.195 88.0649 38.192 96.6279C38.2315 96.84 38.3244 97.0386 38.462 97.2049C38.899 97.6449 39.494 97.2799 39.415 96.6839C38.815 92.1839 38.226 86.5519 43.983 82.5659L44.303 78.8469Z" fill="#FFDDB8"/>
<path d="M50.343 117.168C50.343 117.168 50.379 114.997 50.243 113.599C50.107 112.201 49.743 105.8 49.743 104.88C49.743 103.96 52.007 104.12 52.007 104.12L52.795 105.009C52.795 105.009 51.513 115.785 51.643 117.172C51.7218 117.469 51.9068 117.727 52.163 117.897C53.0012 118.312 53.8626 118.678 54.743 118.994C55.37 119.294 55.95 120.136 55.323 120.577C53.795 121.055 52.1429 120.936 50.699 120.244C49.528 119.482 50.179 118.101 50.308 117.314C50.3164 117.264 50.3298 117.215 50.348 117.168" fill="#FFDDB8"/>
<path d="M51.724 117.398C51.8295 117.596 51.9786 117.767 52.16 117.898C52.9978 118.314 53.8589 118.681 54.739 118.998C55.366 119.298 55.946 120.14 55.319 120.581C53.7905 121.057 52.1383 120.937 50.695 120.244C49.523 119.481 50.174 118.1 50.307 117.314C50.4969 117.491 50.7427 117.596 51.0019 117.612C51.2611 117.627 51.5176 117.552 51.727 117.398" fill="#196597"/>
<path d="M55.5421 119.836C55.5983 119.966 55.6068 120.112 55.566 120.247C55.5252 120.383 55.4377 120.5 55.3191 120.577C53.7912 121.055 52.139 120.936 50.6951 120.245C50.4477 120.089 50.2516 119.863 50.1308 119.597C50.01 119.33 49.9697 119.034 50.0151 118.745C50.0151 118.745 51.4631 121.391 55.5421 119.836Z" fill="#FFFFFE"/>
<path d="M47.895 95.124L54.002 95.438C54.1999 96.0321 54.2771 96.6597 54.229 97.284C54.148 98.324 53.672 104.324 53.553 104.924C53.434 105.524 53.153 105.534 52.808 105.634C51.6802 105.816 50.538 105.893 49.396 105.864C48.617 105.784 48.518 102.924 48.36 102.344C48.202 101.764 47.894 101.824 47.894 101.824C47.894 101.824 47.588 101.764 47.429 102.344C47.27 102.924 47.171 105.784 46.392 105.864C45.2504 105.893 44.1085 105.816 42.981 105.634C42.634 105.534 42.355 105.523 42.236 104.924C42.117 104.325 41.64 98.324 41.561 97.284C41.5133 96.6596 41.5908 96.032 41.789 95.438L47.895 95.124Z" fill="#562A1F"/>
<path d="M51.488 78.8469L51.002 77.8589C57.202 79.9189 59.593 88.0649 57.597 96.6279C57.5575 96.8401 57.4646 97.0387 57.327 97.2049C56.89 97.6449 56.295 97.2799 56.373 96.6839C56.973 92.1839 57.563 86.5519 51.805 82.5659L51.488 78.8469Z" fill="#FFDDB8"/>
<path d="M46.121 75.4329L46.134 75.9089C46.1418 76.6481 46.0681 77.3859 45.914 78.1089C45.675 79.0239 46.914 79.3939 47.859 79.3939C48.6103 79.4326 49.3544 79.2316 49.984 78.8199C50.048 78.6109 50.255 77.7279 50.255 77.7279C50.0148 76.8734 49.869 75.9952 49.82 75.1089C49.867 74.2739 46.12 75.4309 46.12 75.4309" fill="#FFDDB8"/>
<path d="M47.895 55.0098C50.2821 55.0251 52.5662 55.9844 54.2484 57.6782C55.9305 59.372 56.8741 61.6626 56.873 64.0498V67.2988C56.8741 69.6859 55.9305 71.9766 54.2484 73.6703C52.5662 75.3641 50.2821 76.3234 47.895 76.3388C45.5079 76.3234 43.2238 75.3641 41.5416 73.6703C39.8595 71.9766 38.9159 69.6859 38.917 67.2988V64.0498C38.9159 61.6626 39.8595 59.372 41.5416 57.6782C43.2238 55.9844 45.5079 55.0251 47.895 55.0098" fill="#FFDDB8"/>
<path d="M42.619 63.9719C42.6821 64.0053 42.7514 64.0255 42.8226 64.0312C42.8938 64.0369 42.9654 64.0279 43.033 64.0049C43.3101 63.9089 43.603 63.8668 43.896 63.8809C44.0322 63.8931 44.1665 63.9216 44.296 63.9659C44.4306 63.9956 44.5586 64.0494 44.674 64.1249C44.779 64.2329 45.067 64.1559 45.032 64.0099C45.0276 63.9365 45.0176 63.8636 45.002 63.7919C44.9641 63.7049 44.9062 63.6281 44.833 63.5679C44.6338 63.4112 44.3962 63.311 44.145 63.2779C43.6368 63.1721 43.1077 63.2427 42.645 63.4779C42.495 63.5779 42.43 63.7099 42.492 63.8479C42.5222 63.9 42.5661 63.9429 42.619 63.9719Z" fill="#41231B"/>
<path d="M50.611 64.0991C50.8062 63.9844 51.0118 63.8887 51.225 63.8131C51.4205 63.7494 51.6213 63.7036 51.825 63.6761C52.0141 63.6521 52.2052 63.6487 52.395 63.6661C52.4751 63.6751 52.5542 63.6919 52.631 63.7161C52.755 63.7571 52.717 63.7691 52.849 63.8431C53.17 64.0221 53.684 63.8241 53.477 63.5071C53.166 63.0351 52.313 62.9881 51.754 63.0661C51.4675 63.102 51.1907 63.1934 50.939 63.3351C50.672 63.4911 50.38 63.6861 50.325 63.9591C50.302 64.0761 50.49 64.1591 50.609 64.0991" fill="#41231B"/>
<path d="M47.287 69.0351C47.2937 69.0473 47.3044 69.0571 47.3172 69.0627C47.33 69.0684 47.3444 69.0696 47.358 69.0663C47.3717 69.063 47.3838 69.0554 47.3927 69.0445C47.4015 69.0336 47.4065 69.0201 47.407 69.0061C47.41 68.9411 47.431 68.8721 47.436 68.8001C47.443 68.7121 47.446 68.6331 47.523 68.5781C47.7 68.4511 47.939 68.4371 48.106 68.3001C48.273 68.1631 48.098 67.9481 47.928 67.9721C47.7968 68.0051 47.6719 68.0592 47.558 68.1321C47.4374 68.1966 47.3344 68.2897 47.258 68.4031C47.197 68.5006 47.1664 68.6141 47.17 68.7291C47.1691 68.7928 47.181 68.856 47.205 68.9151C47.2264 68.9591 47.254 68.9998 47.287 69.0361" fill="#41231B"/>
<path d="M43.349 65.3591C43.5765 65.2441 43.8361 65.2089 44.086 65.2591L44.15 65.2791C44.778 65.1451 45.058 66.0571 45.07 66.5361C45.1246 66.8396 45.078 67.1528 44.9375 67.4273C44.7969 67.7019 44.5702 67.9228 44.292 68.0561C43.9752 68.1183 43.6466 68.0579 43.3726 67.8871C43.0986 67.7163 42.8997 67.4479 42.816 67.1361C42.7645 66.9765 42.7388 66.8097 42.74 66.6421C42.7031 66.3919 42.7413 66.1365 42.8497 65.9081C42.9581 65.6797 43.1319 65.4886 43.349 65.3591Z" fill="#41231B"/>
<path d="M43.985 66.3892C44.0199 66.4245 44.0614 66.4524 44.1071 66.4715C44.1529 66.4906 44.2019 66.5004 44.2515 66.5004C44.3011 66.5004 44.3501 66.4906 44.3959 66.4715C44.4416 66.4524 44.4831 66.4245 44.518 66.3892C44.5711 66.3363 44.6073 66.2688 44.6221 66.1953C44.6369 66.1218 44.6297 66.0455 44.6012 65.9761C44.5728 65.9067 44.5245 65.8473 44.4623 65.8053C44.4002 65.7634 44.327 65.7407 44.252 65.7402C44.1518 65.7405 44.0558 65.7804 43.985 65.8512C43.9496 65.8865 43.9216 65.9285 43.9024 65.9746C43.8833 66.0208 43.8734 66.0703 43.8734 66.1202C43.8734 66.1702 43.8833 66.2197 43.9024 66.2658C43.9216 66.312 43.9496 66.3539 43.985 66.3892Z" fill="#FFFFFE"/>
<path d="M52.4951 65.3879C52.2562 65.2483 51.9737 65.203 51.7031 65.2609C51.6821 65.2659 51.6611 65.2719 51.6411 65.2789C51.0131 65.1449 50.7321 66.0569 50.7191 66.5349C50.6649 66.8386 50.7118 67.1517 50.8524 67.4262C50.9931 67.7007 51.2199 67.9216 51.4981 68.0549C51.8149 68.1172 52.1435 68.0568 52.4175 67.886C52.6915 67.7152 52.8904 67.4468 52.9741 67.1349C53.0257 66.9641 53.0513 66.7864 53.0501 66.6079C53.0711 65.7749 52.7791 65.5489 52.4951 65.3879Z" fill="#41231B"/>
<path d="M52.452 66.46C52.3988 66.5131 52.3311 66.5492 52.2574 66.5638C52.1837 66.5784 52.1074 66.5708 52.038 66.542C51.9686 66.5132 51.9093 66.4645 51.8676 66.4021C51.8259 66.3396 51.8036 66.2662 51.8036 66.191C51.8036 66.1159 51.8259 66.0425 51.8676 65.98C51.9093 65.9175 51.9686 65.8688 52.038 65.84C52.1074 65.8113 52.1837 65.8037 52.2574 65.8183C52.3311 65.8329 52.3988 65.869 52.452 65.922C52.5225 65.9938 52.562 66.0904 52.562 66.191C52.562 66.2916 52.5225 66.3882 52.452 66.46Z" fill="#FFFFFE"/>
<path d="M43.13 70.1759C44.062 70.1759 44.822 69.9029 44.822 69.5679C44.822 69.2329 44.062 68.9609 43.13 68.9609C42.198 68.9609 41.438 69.2339 41.438 69.5679C41.438 69.9019 42.198 70.1759 43.13 70.1759Z" fill="#D66051"/>
<path d="M52.661 70.1759C53.593 70.1759 54.353 69.9029 54.353 69.5679C54.353 69.2329 53.593 68.9609 52.661 68.9609C51.729 68.9609 50.969 69.2339 50.969 69.5679C50.969 69.9019 51.73 70.1759 52.661 70.1759Z" fill="#D66051"/>
<path d="M45.309 70.8852C45.309 70.8852 50.183 70.6542 51.065 70.9972C51.947 71.3402 50.595 74.1862 47.621 73.9742C44.647 73.7622 43.712 70.9632 45.309 70.8852Z" fill="#FFFFFE"/>
<path d="M56.175 97.061C56.175 97.061 55.806 97.627 55.674 97.85C55.674 98.115 55.558 98.644 55.664 98.583C55.715 98.553 55.931 98.536 56.019 98.026C56.0639 98.2091 56.1375 98.3839 56.237 98.544C55.9696 98.864 55.7351 99.2101 55.537 99.577C55.529 99.737 55.656 99.784 55.825 99.683C55.994 99.582 56.125 99.495 56.125 99.495C56.2019 99.5232 56.2847 99.5312 56.3656 99.5183C56.4465 99.5053 56.5227 99.4718 56.587 99.421C57.001 99.084 57.737 99.106 57.661 98.161C57.637 97.877 57.401 97.507 57.406 97.369L56.175 97.061Z" fill="#FFDDB8"/>
<path d="M56.175 97.061C55.9194 97.2272 55.726 97.4734 55.625 97.761C55.6074 97.9858 55.5739 98.209 55.525 98.429C55.477 98.608 55.492 98.911 55.747 98.687C55.9031 98.4997 55.9981 98.269 56.019 98.026C56.0652 98.2097 56.1401 98.3848 56.241 98.545C55.9737 98.865 55.7392 99.2111 55.541 99.578C55.533 99.738 55.66 99.785 55.829 99.684C55.998 99.583 56.129 99.496 56.129 99.496C56.2067 99.5183 56.2882 99.5231 56.3679 99.5101C56.4476 99.4971 56.5235 99.4667 56.59 99.421C57.159 99.037 57.365 99.287 57.635 98.61C57.546 98.647 57.36 98.851 57.094 98.634C56.96 98.6318 56.8263 98.6197 56.694 98.598C56.363 98.493 56.238 97.872 56.231 97.605C56.2505 97.4246 56.3347 97.2572 56.468 97.134L56.175 97.061Z" fill="#FFDDB8"/>
<path d="M56.1551 97.138C56.5644 97.217 56.9682 97.3222 57.3641 97.453C57.3641 97.453 57.4801 97.508 57.5571 97.359C57.6341 97.21 57.7821 96.895 57.6831 96.8C57.2334 96.6061 56.761 96.47 56.2771 96.395C56.1551 96.424 56.0521 96.867 56.0461 96.955C56.0401 96.9934 56.0477 97.0327 56.0676 97.0662C56.0875 97.0996 56.1184 97.125 56.1551 97.138Z" fill="#BF3634"/>
<path d="M56.894 64.951C56.894 64.951 58.409 64.442 58.968 65.46C59.527 66.478 58.25 69.688 56.708 68.243C55.166 66.798 56.894 64.951 56.894 64.951Z" fill="#FFDDB8"/>
<path d="M39.433 64.8199C39.118 64.6419 37.271 64.1859 37.135 65.3069C36.999 66.4279 37.262 68.0139 38 68.3309C38.738 68.6479 40.9 67.6929 39.437 64.8189" fill="#FFDDB8"/>
<path d="M47.864 59.8412C44.995 59.9002 42.132 59.3122 40.953 61.3182C39.8072 63.1305 39.2591 65.2568 39.386 67.3972C39.386 67.3972 39.159 67.4522 39.074 67.1272C38.989 66.8022 38.57 64.6462 38.121 64.5792C37.802 56.9202 39.707 54.7152 42.728 53.9872C45.749 53.2592 43.805 53.7452 44.307 53.6532C45.8018 55.5221 47.0014 57.609 47.864 59.8412Z" fill="#41231B"/>
<path d="M43.332 49C43.332 49 38.208 55.839 44.683 59.2C48.239 61.045 53.383 58.48 55.051 61.32C56.1975 63.1324 56.7459 65.2591 56.619 67.4C56.619 67.4 56.847 67.455 56.932 67.13C57.017 66.805 57.432 64.9 57.882 64.83C57.882 64.83 59.042 54.47 53.553 53.148C48.064 51.826 44.818 51.875 43.332 49Z" fill="#562A1F"/>
<path d="M50.0821 77.728C49.8451 78.0941 49.5212 78.3957 49.1392 78.606C48.7572 78.8163 48.3291 78.9287 47.8931 78.933C47.4579 78.9277 47.0308 78.815 46.6498 78.6047C46.2687 78.3945 45.9456 78.0933 45.7091 77.728C41.7031 77.764 41.9051 83.915 41.9051 83.915C41.9051 83.915 41.5931 91.976 41.3351 93.498C41.2457 93.9102 41.2706 94.339 41.4072 94.738C41.5438 95.137 41.7868 95.4911 42.1101 95.762C43.8391 97.352 51.9521 97.352 53.6821 95.762C54.0051 95.491 54.248 95.1369 54.3846 94.7379C54.5212 94.3389 54.5462 93.9102 54.4571 93.498C54.1981 91.976 53.8861 83.916 53.8861 83.916C53.8861 83.916 54.0881 77.764 50.0821 77.728Z" fill="#196597"/>
<path d="M49.644 78.588C50.6023 78.846 51.4735 79.3572 52.166 80.068C53.866 81.484 53.928 84.963 53.928 84.963C54.4912 85.574 54.9643 86.2623 55.333 87.007C55.3676 87.0369 55.4118 87.0534 55.4575 87.0534C55.5033 87.0534 55.5475 87.0369 55.582 87.007C56.008 86.437 57.713 85.973 57.782 85.787C57.8255 85.6753 57.829 85.552 57.792 85.438C57.113 81.995 53.856 77.901 50.234 77.668C50.0536 77.9847 49.8566 78.2918 49.644 78.588" fill="#FFFFFE"/>
<path d="M50.141 77.5491C49.8905 77.9201 49.5572 78.2278 49.1674 78.448C48.7777 78.6682 48.3421 78.7949 47.895 78.8181C47.4725 78.811 47.0591 78.694 46.6956 78.4785C46.3321 78.2629 46.031 77.9564 45.822 77.5891C45.5758 77.564 45.3272 77.5983 45.097 77.6891C44.897 77.8291 45.732 79.1591 47.043 79.4091C47.7724 79.5853 48.5393 79.518 49.2269 79.2176C49.9144 78.9172 50.4848 78.4 50.851 77.7451C50.851 77.7451 50.268 77.3141 50.141 77.5491Z" fill="#FFFFFE"/>
<path d="M39.6129 97.061C39.6129 97.061 39.9829 97.627 40.1129 97.85C40.1129 98.115 40.2289 98.644 40.1229 98.583C40.0719 98.553 39.8549 98.536 39.7669 98.026C39.7208 98.2097 39.6459 98.3848 39.5449 98.545C39.8123 98.865 40.0468 99.2111 40.2449 99.578C40.2529 99.738 40.1259 99.785 39.9569 99.684C39.7879 99.583 39.6569 99.496 39.6569 99.496C39.5809 99.5228 39.4994 99.53 39.4198 99.5169C39.3403 99.5038 39.2653 99.4708 39.2019 99.421C38.7879 99.084 38.0479 99.106 38.1279 98.161C38.1509 97.877 38.3879 97.507 38.3819 97.369L39.6129 97.061Z" fill="#FFDDB8"/>
<path d="M39.614 97.061C39.8696 97.2272 40.063 97.4734 40.164 97.761C40.1819 97.9857 40.2153 98.2089 40.264 98.429C40.311 98.608 40.298 98.911 40.042 98.687C39.8859 98.4997 39.791 98.269 39.77 98.026C39.7239 98.2097 39.6489 98.3848 39.548 98.545C39.8154 98.865 40.0499 99.2111 40.248 99.578C40.256 99.738 40.129 99.785 39.96 99.684C39.791 99.583 39.66 99.496 39.66 99.496C39.5824 99.5183 39.5008 99.5231 39.4211 99.5101C39.3414 99.4971 39.2656 99.4667 39.199 99.421C38.634 99.037 38.428 99.286 38.157 98.61C38.246 98.647 38.432 98.851 38.698 98.634C38.832 98.6317 38.9657 98.6197 39.098 98.598C39.43 98.493 39.556 97.872 39.562 97.605C39.5414 97.4238 39.4553 97.2563 39.32 97.134L39.614 97.061Z" fill="#FFDDB8"/>
<path d="M39.633 97.138C39.224 97.2171 38.8205 97.3223 38.425 97.453C38.425 97.453 38.308 97.508 38.231 97.359C38.154 97.21 38.006 96.895 38.105 96.8C38.5547 96.6061 39.0271 96.47 39.511 96.395C39.633 96.423 39.736 96.865 39.741 96.953C39.747 96.9914 39.7394 97.0307 39.7195 97.0642C39.6996 97.0976 39.6687 97.123 39.632 97.136" fill="#BF3634"/>
<path d="M46.144 78.588C45.1857 78.846 44.3146 79.3572 43.622 80.068C41.922 81.484 41.861 84.963 41.861 84.963C41.2972 85.5739 40.8235 86.2622 40.454 87.007C40.4195 87.0369 40.3753 87.0534 40.3295 87.0534C40.2838 87.0534 40.2396 87.0369 40.205 87.007C39.779 86.437 38.074 85.968 38.001 85.787C37.9576 85.6753 37.9537 85.5521 37.99 85.438C38.675 81.995 41.932 77.901 45.554 77.668C45.7345 77.9847 45.9314 78.2918 46.144 78.588Z" fill="#FFFFFE"/>
</g>
<defs>
<clipPath id="clip0">
<rect width="87.678" height="121.869" fill="white"/>
</clipPath>
</defs>
</svg>
