<svg width="133" height="159" viewBox="0 0 133 159" fill="none" xmlns="http://www.w3.org/2000/svg">
<path opacity="0.14" d="M66.6928 147.613C28.692 147.613 0.5 153.512 0.5 153.512C0.5 153.512 20.3921 159 66.6928 159C111.622 159 132.886 153.512 132.886 153.512C132.886 153.512 104.694 147.613 66.6928 147.613Z" fill="#260F00"/>
<path d="M10.7207 87.6627C10.7207 87.6627 13.6016 89.3089 13.6016 90.3378C13.6016 90.818 10.9951 88.6916 10.9951 88.6916L10.7207 87.6627Z" fill="#D78C74"/>
<path d="M10.9257 88.2114C10.9257 88.2114 13.1207 87.4569 13.6008 88.1428C13.8066 88.4858 11.1314 88.8287 11.1314 88.8287L10.9257 88.2114Z" fill="#D78C74"/>
<path d="M41.3136 21.4012C41.1078 21.4698 34.5915 14.7476 28.4866 21.6756C20.8041 30.387 21.6959 42.8024 22.0388 50.0048C22.4504 49.5246 39.6674 52.6799 45.4292 44.3115C51.2597 35.7373 46.8697 19.6178 41.3136 21.4012Z" fill="#827C7C"/>
<path d="M37.8154 49.1817L38.0898 43.9C38.1584 42.5967 37.2667 41.4992 36.1006 41.4992C34.9345 41.4306 33.9742 42.4595 33.9056 43.6942L33.6312 49.1131V49.1817H37.8154Z" fill="#E5A185"/>
<path d="M35.5511 45.0661C34.2478 45.1347 32.8073 44.8603 31.4355 44.243C25.4678 41.4992 24.096 33.0622 26.5653 27.5747C26.5653 27.5747 26.5653 27.5061 26.6339 27.5061C26.9083 26.8888 27.2513 26.2714 27.6628 25.7227C29.0347 23.7335 30.8867 22.1558 33.1503 21.4013C34.1792 21.0583 35.2767 20.8525 36.3742 20.9211C42.8906 20.9211 46.4575 27.9177 46.1831 33.7481C45.8401 39.2356 41.1072 44.8603 35.5511 45.0661Z" fill="#E5A185"/>
<path d="M41.3136 21.4012C41.1078 21.4698 34.5915 14.7476 28.4866 21.6756C20.8041 30.387 21.6959 42.8024 22.0388 50.0048C22.0388 50.0048 24.028 34.777 32.0535 28.535C34.3857 26.7515 38.7071 24.5565 38.7071 24.5565C38.7071 24.5565 39.1186 26.4772 40.6277 28.4664C42.8913 32.239 46.6639 34.5026 47.4185 39.0298C47.4185 39.3728 47.4871 39.6471 47.4871 39.9901C49.8878 31.2101 45.978 19.8922 41.3136 21.4012Z" fill="#AFA7A7"/>
<path d="M47.4861 36.2859C47.0059 37.7264 45.8398 38.6181 44.8109 38.2752C43.782 37.9322 43.3705 36.4917 43.8506 35.1199C44.3308 33.6794 45.4969 32.7877 46.5258 33.1306C47.5547 33.4736 47.9662 34.9141 47.4861 36.2859Z" fill="#E5A185"/>
<path d="M29.9949 48.0842C29.9949 48.0842 24.0959 60.774 20.6662 65.2326C16.482 70.7201 11.8862 81.6265 11.8862 81.6265L13.1895 82.381C13.1895 82.381 21.8323 72.092 23.2728 69.2796C24.7132 66.4673 30.2693 51.2395 30.2693 51.2395L29.9949 48.0842Z" fill="#D78C74"/>
<path d="M12.7778 79.9802L8.86792 87.7313L10.2398 92.7386C10.8571 92.6014 10.034 88.4858 10.034 88.4858C10.034 88.4858 11.2687 92.3957 11.5431 92.3957C12.2976 92.1899 11.2001 88.5544 11.2001 88.5544L13.4637 85.1247C13.4637 85.1247 13.9438 86.9082 14.8356 88.0057C15.3843 88.623 16.2074 88.1429 16.2074 88.1429C16.2074 88.1429 14.9728 86.1537 14.767 84.7132C14.5612 83.6157 13.7381 80.8719 13.7381 80.8719L12.7778 79.9802Z" fill="#D78C74"/>
<path d="M27.2515 61.1856C30.7497 61.5285 34.3166 61.9401 37.7463 62.4888C38.2264 61.0484 38.7752 59.6765 39.2553 58.3046C39.8727 56.384 40.4214 54.3948 40.9702 52.4742C41.3817 51.1023 41.9991 49.5932 42.2735 48.1528C37.1975 47.604 32.2588 47.947 30.6126 48.1528C30.1324 51.3081 28.8291 54.4634 27.3887 57.4815C27.3887 58.6476 27.3887 59.9509 27.2515 61.1856Z" fill="#E5A185"/>
<path d="M28.8292 56.6584C30.8184 51.9254 32.5332 47.7412 32.5332 47.7412H30.6812C30.0639 47.7412 29.4465 48.0156 29.1722 48.5644C28.349 49.9362 26.6342 52.68 25.1937 55.6981C26.0854 55.9725 27.8689 56.384 28.8292 56.6584Z" fill="#F2CF7B"/>
<path d="M22.0381 81.1463C22.0381 81.1463 19.0885 101.724 21.9009 115.1C21.9009 115.1 21.0777 138.765 21.2149 146.036C21.2149 146.859 23.6157 146.036 23.6157 146.036C23.6157 146.036 32.8073 122.234 29.1718 110.504L35.0023 85.2619L22.0381 81.1463Z" fill="#D78C74"/>
<path d="M32.8074 81.7636C32.8074 81.7636 33.2189 106.526 34.9338 111.945C34.9338 111.945 39.0494 129.573 43.0964 146.447L45.8402 143.841C45.8402 143.841 47.8294 122.097 42.6163 110.299C42.6163 110.299 49.3384 86.2908 47.2806 79.843C45.2228 73.3952 32.8074 81.7636 32.8074 81.7636Z" fill="#E5A185"/>
<path d="M21.4901 142.195L16.7572 152.072L14.082 152.141L15.1109 153.375H21.5587L24.6454 148.231L23.0678 153.375H24.5769L27.8008 145.281L25.4686 139.176L21.4901 142.195Z" fill="#D78C74"/>
<path d="M26.1535 141.097C21.9007 152.141 16.7562 152.072 16.7562 152.072L14.0125 152.141L15.1099 153.375H21.5577L24.6445 148.231L23.0668 153.375H24.5759L27.7998 145.281L26.1535 141.097Z" fill="#F2CF7B"/>
<path d="M41.9305 141.029L39.2554 154.061H47.1436L45.9089 140.343L41.9305 141.029Z" fill="#E5A185"/>
<path d="M41.9305 141.028L39.2554 154.061H47.1436L46.0461 140.891L45.6346 151.523L41.7933 151.66L41.9305 141.028Z" fill="#F2CF7B"/>
<path d="M60.9312 102.136C57.5702 92.67 40.6275 69.0053 40.216 66.3987C39.873 63.7235 43.92 48.29 43.92 48.29C42.8225 48.1528 41.6564 48.0156 40.5589 47.947C39.4614 49.4561 36.4433 50.3478 34.5227 50.3478C32.8079 50.3478 32.945 48.7015 33.1508 47.8098C32.6707 47.7412 32.1905 47.7412 32.1905 47.7412C32.1905 47.7412 24.851 55.3551 25.1254 57.4129C25.3998 59.4021 27.1146 60.6368 27.1146 60.6368C27.1146 60.6368 14.219 101.381 17.923 117.501C19.2949 123.4 63.4006 109.064 60.9312 102.136Z" fill="#F2CF7B"/>
<path d="M58.1186 84.2329C58.7359 83.6841 59.3533 84.3015 59.9706 83.7527C57.5698 81.1462 50.8477 67.2903 50.8477 67.2903C50.8477 67.2903 46.7321 56.1095 44.6057 51.7881L41.6561 50.3476C42.0677 51.3765 46.8692 69.0737 46.8692 69.0737C46.9378 69.3481 55.7178 82.9982 58.1186 84.2329Z" fill="#E5A185"/>
<path d="M48.1731 57.7558C47.1442 54.8748 45.5666 48.2898 43.9203 48.2898L39.8047 50.3476C40.0791 51.0336 41.7939 54.6004 43.6459 59.4706C44.7434 58.9904 47.0756 58.1673 48.1731 57.7558Z" fill="#F2CF7B"/>
<path d="M63.9493 84.8503C63.9493 84.8503 61.5485 83.1355 60.8626 83.2041C60.1766 83.2727 57.5701 84.1644 57.5701 84.233C57.5701 84.3016 55.3751 89.7891 55.7866 89.8577C56.1982 89.9263 57.2271 87.7313 57.2271 87.7313C57.2271 87.7313 57.5015 90.2006 58.0502 90.132C58.599 90.0634 58.4618 89.2403 58.4618 89.2403C58.4618 89.2403 59.4907 89.9263 59.6965 89.8577C59.9023 89.7891 59.5593 88.8974 59.5593 88.8974C59.5593 88.8974 62.0972 89.6519 62.3716 89.5147C62.646 89.3775 65.3897 87.937 65.3897 87.937L63.9493 84.8503Z" fill="#E5A185"/>
<path d="M62.7825 86.2221C62.9883 86.4965 63.2626 88.1428 63.194 88.6229C63.1254 89.1031 62.5767 88.6229 62.5767 88.6229C62.5767 88.6229 62.3709 89.2403 62.1651 89.3089C61.9594 89.3774 61.5478 88.9659 61.5478 88.9659C61.5478 88.9659 60.6561 90.0634 60.5189 89.7204C60.3817 89.446 60.1073 89.1031 60.1073 89.1031C60.1073 89.1031 59.5586 89.7204 59.4214 89.7204C59.2156 89.7204 58.5983 87.937 58.5983 87.937L62.7825 86.2221Z" fill="#E5A185"/>
<path d="M38.0888 37.2464L31.3667 37.315C30.9551 37.315 30.6807 37.7265 30.8865 38.1381C31.641 39.9215 33.0815 41.0876 34.7963 41.0876C36.4426 41.0876 37.8831 39.8529 38.6376 38.0695C38.7062 37.6579 38.4318 37.2464 38.0888 37.2464Z" fill="white"/>
<path d="M29.5841 31.896C28.8296 31.896 28.2122 32.6506 28.1436 33.6109C28.075 34.5712 28.6924 35.3943 29.4469 35.4629C30.2015 35.4629 30.8188 34.7084 30.8874 33.7481C30.8874 32.7877 30.3386 31.9646 29.5841 31.896Z" fill="#381911"/>
<path d="M40.0792 32.0332C39.3247 32.0332 38.7074 32.7877 38.6388 33.7481C38.5702 34.7084 39.1875 35.5315 39.942 35.6001C40.6966 35.6001 41.3139 34.8456 41.3825 33.8852C41.4511 32.9249 40.8338 32.1018 40.0792 32.0332Z" fill="#381911"/>
<path d="M95.1589 27.2316H95.7762C97.0795 27.2316 98.177 28.2605 98.177 29.5638L98.7258 36.4232C98.7258 37.7264 97.2167 38.8239 95.9134 38.8239H95.2961C93.9928 38.8239 92.4838 37.3835 92.4838 36.0802L92.8267 29.701C92.7581 28.3291 93.8556 27.3002 95.1589 27.2316Z" fill="#E79D84"/>
<path d="M105.585 17.7657C106.683 17.8343 107.506 19.069 107.437 20.5781C107.369 22.0871 106.34 23.1846 105.242 23.116C104.145 23.0474 103.322 21.8127 103.39 20.3037C103.528 18.8632 104.488 17.6971 105.585 17.7657Z" fill="#E09178"/>
<path d="M91.867 6.85938L95.5025 6.51641C100.304 6.03625 104.763 11.0436 105.243 15.8451L105.86 22.4987C106.34 27.3003 102.773 31.6217 97.9033 32.1018L94.2678 32.4448C89.4663 32.925 85.1449 29.3581 84.6647 24.4879L84.0474 17.8344C83.5672 13.0328 87.0655 7.27094 91.867 6.85938Z" fill="#E7A387"/>
<path d="M80.8235 6.72217C81.3037 6.51639 81.7152 6.65358 81.9896 6.79077C81.5781 6.03624 81.1665 5.21311 81.2351 4.2528C81.921 4.18421 82.607 4.73296 82.7442 5.4189C82.5384 4.87015 82.607 4.18421 82.9499 3.70406C83.0185 3.63546 83.0185 3.56687 83.0871 3.56687C83.2243 3.49827 83.3615 3.63546 83.4301 3.70406C83.6359 3.97843 83.8416 4.87015 83.9102 5.00733C83.8416 5.07593 83.8416 5.07593 83.9102 5.07593C83.9102 5.07593 83.9102 5.07593 83.9102 5.00733C84.2532 4.73296 85.8995 3.42968 87.4771 2.60656C90.358 1.0289 93.7877 0.823123 93.7877 0.960311C93.7191 1.71484 93.4448 2.40078 93.1704 3.08671C94.8852 1.23469 97.3546 0.0685936 99.8926 0C99.8926 0.617343 99.8926 1.23469 99.7554 1.85203C99.6182 2.46937 99.3438 2.94953 98.7951 3.29249C100.647 2.05781 102.568 0.960311 104.831 0.960311C104.968 0.960311 105.037 0.960311 105.106 1.0289C105.174 1.0975 105.174 1.16609 105.174 1.30328C105.38 2.67515 105.174 4.04702 104.557 5.28171C104.763 5.00733 105.037 4.80155 105.311 4.73296C105.86 5.69327 106.066 6.79077 106.066 7.88827C106.066 10.632 105.723 12.484 105.449 13.6501C105.792 15.9823 105.586 17.8343 105.586 17.9029C105.586 17.9029 105.586 17.7657 105.517 17.4914L105.586 17.9029C105.517 17.9029 103.871 11.9353 101.47 10.632C98.4521 9.05436 99.0008 11.6609 95.1596 11.4551C92.6216 11.3179 88.849 9.74029 87.1341 13.9931C86.654 15.2964 87.2027 17.6286 86.7912 18.8632C86.5168 19.8921 85.5565 20.4409 84.459 20.7839L84.3218 19.3434C84.3218 19.3434 84.0474 18.3831 83.8416 17.0112C82.1268 14.6104 81.1665 9.80889 81.5095 7.61389C81.5095 7.4767 81.5095 7.4767 81.5095 7.4767C81.5095 7.4767 80.6863 6.99655 80.8235 6.72217Z" fill="#AFA7A7"/>
<path d="M82.9498 19.5492C83.9787 19.1376 85.2134 19.9607 85.7621 21.3326C86.3109 22.7045 85.8993 24.1449 84.8704 24.5565C83.8415 24.968 82.6068 24.1449 82.0581 22.7731C81.5093 21.3326 81.9209 19.8921 82.9498 19.5492Z" fill="#E7A387"/>
<path d="M92.4846 24.5566L99.7555 23.8707C100.167 23.8021 100.51 24.2822 100.373 24.7624C99.7555 26.8888 98.2464 28.4664 96.463 28.6722C94.6796 28.8094 92.9647 27.5747 92.0044 25.5855C91.7986 25.1053 92.073 24.5566 92.4846 24.5566Z" fill="white"/>
<path d="M100.852 17.0112C101.538 16.874 102.224 17.6286 102.361 18.7947C102.498 19.8922 102.087 20.9897 101.401 21.1268C100.715 21.264 100.029 20.5095 99.8919 19.3434C99.7547 18.1773 100.166 17.1484 100.852 17.0112Z" fill="#4C2518"/>
<path d="M90.22 17.8343C90.906 17.6971 91.5919 18.4517 91.7977 19.6178C92.0035 20.7838 91.5919 21.8128 90.906 22.0185C90.22 22.1557 89.5341 21.4012 89.3283 20.2351C89.1225 19.069 89.5341 17.9715 90.22 17.8343Z" fill="#4C2518"/>
<path d="M76.5022 146.516L81.4409 146.31L82.3327 140.274L77.3253 139.519L76.5022 146.516Z" fill="#474950"/>
<path d="M81.646 145.213C81.646 145.213 83.841 147.888 84.1153 153.375H72.9346C72.9346 153.375 73.4833 147.888 76.7072 145.007C76.7072 145.007 77.1188 145.899 79.0394 145.899C80.96 145.899 81.646 145.213 81.646 145.213Z" fill="#261F1F"/>
<path opacity="0.05" d="M77.1876 149.465C79.1082 149.465 81.0974 149.465 83.0181 149.74C83.2238 149.74 83.361 149.808 83.5668 149.808C83.8412 150.837 83.9784 151.935 84.047 153.238H72.8662C72.8662 153.238 73.072 151.523 73.7579 149.465C74.924 149.465 76.0901 149.397 77.1876 149.465Z" fill="white"/>
<path d="M84.5963 152.484C84.5277 152.689 84.3905 154.13 84.3905 154.13H72.5238L72.3866 152.346L84.5963 152.484Z" fill="#261F1F"/>
<path d="M84.8699 139.519C90.769 107.829 92.6896 88.7601 92.6896 88.6229L84.5269 87.0452C84.5269 87.251 80.6857 107.692 74.7181 139.245C74.5809 140.068 75.1982 140.891 76.0899 140.891L82.9493 141.097C83.9096 141.097 84.7327 140.411 84.8699 139.519Z" fill="#2E2B2B"/>
<path d="M64.1549 80.8033L67.5846 83.4099C67.5846 83.1355 66.9673 85.8106 65.5268 88.0056L62.5773 87.1139L64.1549 80.8033Z" fill="#E5A185"/>
<path d="M61.4116 82.9983L66.8305 86.4966L69.0255 83.3413L64.0868 80.1174" fill="#EDEDED"/>
<path d="M62.9885 79.6373C68.476 70.0341 76.8444 47.2611 81.0972 40.1959L84.3897 41.8422C83.9782 43.1454 76.0213 72.092 69.7793 83.4785C69.3677 84.233 68.4074 84.4388 67.6529 83.9587L63.2629 81.0091" fill="#8E6651"/>
<path d="M97.8346 146.242L102.842 146.036L103.734 140L98.6577 139.245L97.8346 146.242Z" fill="#474950"/>
<path d="M112.787 149.534C110.181 150.357 104.282 144.732 103.184 143.635C103.184 143.635 101.744 145.075 98.1768 143.635C95.7074 144.87 95.8446 150.494 95.9818 152.552C95.9818 152.964 96.3247 153.307 96.8049 153.375L101.401 153.718C101.744 153.718 102.018 153.512 102.018 153.169L102.087 152.689C102.087 152.689 102.087 152.689 106.682 154.267C111.278 155.845 116.628 153.718 116.628 153.718C116.628 153.718 116.628 153.718 116.697 151.866C116.697 149.946 115.394 148.711 112.787 149.534Z" fill="#261F1F"/>
<path opacity="0.05" d="M112.788 149.534C110.661 150.22 106.203 146.447 104.145 144.527C99.7549 147.545 103.87 151.729 108.055 152.278C110.798 152.621 113.954 152.552 116.697 151.592C116.56 149.877 115.326 148.711 112.788 149.534Z" fill="white"/>
<path d="M84.1842 79.7057L84.3214 88.8973C84.3214 88.8973 107.986 91.4353 109.221 88.5543C110.181 86.3593 109.701 80.6661 109.701 80.6661L84.1842 79.7057Z" fill="#2E2B2B"/>
<path d="M100.784 88.9658C100.784 89.103 101.538 104.811 96.4624 139.039C96.3938 139.588 96.6682 140.137 97.2169 140.205L104.488 140.891C105.105 140.96 105.791 140.548 105.928 139.931C111.279 105.84 109.77 88.2799 109.701 86.0163L100.784 88.9658Z" fill="#2E2B2B"/>
<path d="M90.7687 36.3547C91.043 36.3547 91.2488 36.2861 91.4546 36.2861C93.8554 36.1489 102.292 35.3258 106.477 36.4919C106.271 39.7844 106.339 43.1454 106.202 46.2322C106.134 47.1925 106.065 48.1528 106.065 49.1131C101.538 49.3875 97.0107 49.7304 92.4835 49.8676C90.7001 49.9362 88.9166 50.0048 87.1332 50.0734C86.3787 45.9578 85.3498 41.7736 84.6638 37.658C86.653 36.9034 88.9166 36.4919 90.7687 36.3547Z" fill="#E5A185"/>
<path d="M90.426 36.4231C90.5632 36.6975 101.538 36.1488 101.607 35.943C105.174 36.0802 108.26 36.5603 108.74 38.138C108.74 38.138 110.25 45.7519 111.073 61.8028C111.416 68.5936 110.935 82.7238 109.426 82.7924C100.715 83.2726 92.621 83.8213 84.184 82.1065C82.4691 81.7635 79.9312 43.8999 79.9312 43.8313C79.6568 38.4124 86.036 36.7661 90.426 36.4231Z" fill="#EDEDED"/>
<path d="M111.142 61.8028C110.319 45.7519 108.81 38.138 108.81 38.138C108.467 36.9034 106.34 36.286 103.734 36.0116C103.185 39.2355 101.882 42.2537 100.235 45.066C99.8925 45.6833 99.2066 46.0263 98.5892 46.0263C98.9322 46.4379 99.2751 46.8494 99.6867 47.261C101.402 49.3188 98.452 52.2683 96.7372 50.2105C96.6686 50.1419 96.6 50.0733 96.6 50.0047C95.7769 50.6907 94.405 50.6907 93.7191 49.9361C92.553 48.7701 91.7299 47.1238 91.1125 45.3404C90.7009 45.1346 90.358 44.8602 90.2208 44.5173C89.8778 43.6941 89.672 42.871 89.5349 41.9107C88.3002 40.4016 87.2713 38.824 86.3795 37.1091C83.0185 38.0694 79.8632 39.9901 80.1375 43.8313C80.1375 43.8313 82.6069 81.695 84.3903 82.1065C92.8273 83.8214 100.921 83.204 109.633 82.7925C110.936 82.7239 111.485 68.525 111.142 61.8028Z" fill="#8E6651"/>
<path d="M82.127 47.3296C82.4014 45.6147 82.5385 43.7627 82.6071 42.0478C82.6071 41.0875 82.3328 39.9214 82.3328 38.8925C84.5278 37.2463 87.8203 36.629 90.4268 36.3546C90.4268 36.4232 90.9756 36.4232 91.7301 36.4232C93.0334 38.481 95.5713 42.9396 95.5713 42.9396C95.5713 42.9396 98.7266 38.0008 100.922 35.943C101.333 35.8744 101.608 35.8744 101.608 35.8058C103.048 35.8744 104.42 35.943 105.586 36.2174C104.214 40.8818 106.066 46.7122 110.182 49.113C110.525 52.4741 110.868 56.6583 111.073 61.7342C111.416 68.525 110.936 82.6553 109.427 82.7239C100.716 83.204 92.6218 83.7528 84.1848 82.0379C83.0187 81.8321 81.5096 64.7523 80.6179 53.503C81.3039 51.5138 81.8526 49.5246 82.127 47.3296Z" fill="#8E6651"/>
<path d="M105.38 72.7778C105.38 72.7778 108.878 74.6984 109.221 73.7381C109.564 72.7778 106.066 71.2001 106.066 71.2001L105.38 72.7778Z" fill="#CD8D7A"/>
<path d="M105.037 76.0017C105.037 76.0017 107.575 77.7165 108.398 76.7562C109.221 75.8645 105.86 74.6298 105.86 74.6298L105.037 76.0017Z" fill="#CD8D7A"/>
<path d="M105.791 78.6081C105.791 78.6081 107.918 79.2255 108.809 78.7453C109.701 78.1966 108.878 76.4817 107.437 76.8247C105.997 77.2362 105.791 78.6081 105.791 78.6081Z" fill="#CD8D7A"/>
<path d="M116.148 69.691C116.011 69.4166 115.805 69.2108 115.531 69.0051C115.051 68.6621 114.434 68.3877 113.885 68.1134C112.17 67.2902 110.249 66.9473 110.181 67.0845L109.563 68.0448L108.26 78.0594C108.672 78.0594 109.358 77.9908 109.701 77.9222C109.701 77.9222 112.101 77.6479 113.748 76.6876C114.914 75.933 115.943 74.9041 116.354 73.5322C116.766 72.3662 116.903 70.7885 116.148 69.691Z" fill="#E5A185"/>
<path d="M108.397 78.471C108.397 78.471 111.69 77.7164 111.758 78.7453C111.827 79.7742 108.054 80.6659 107.574 80.2544C107.3 79.9114 108.397 78.471 108.397 78.471Z" fill="#CD8D7A"/>
<path d="M110.661 67.7018C110.661 67.7018 104.282 70.7885 104.899 72.2976C105.517 73.8066 107.643 71.8174 107.643 71.8174C107.643 71.8174 104.008 74.9727 104.968 76.0016C105.997 76.9619 108.946 73.1893 108.946 73.1893C108.946 73.1893 104.008 77.7165 105.791 78.6082C107.574 79.4999 109.289 75.7273 109.289 75.7273C109.289 75.7273 106.271 79.5685 107.643 80.2544C109.015 80.9404 111.073 76.6876 111.073 76.6876L110.661 67.7018Z" fill="#E5A185"/>
<path d="M115.395 72.5035L112.034 68.7308C111.622 68.5936 120.196 61.4599 123.283 55.5609C123.694 54.8063 122.254 52.4055 115.943 47.5354C111.348 43.9685 106.82 42.5281 106.752 42.5281L108.878 37.5893C109.084 37.7265 114.503 39.6471 119.373 43.4198C122.117 45.5462 130.485 52.0626 127.467 57.7558C123.969 64.478 115.738 72.1605 115.395 72.5035Z" fill="#E7A387"/>
<path d="M119.647 68.868L118.001 70.6514C117.726 70.9258 117.246 70.9944 116.903 70.6514L113.474 67.0846C113.199 66.8102 113.268 66.3986 113.542 66.1928L116.08 64.135L119.647 68.868Z" fill="#EDEDED"/>
<path d="M119.235 69.8283C117.932 68.5936 115.874 66.673 114.639 65.4383C114.228 65.0267 114.228 64.4094 114.639 63.9978C117.177 61.5284 119.99 58.6475 121.705 55.4236C122.116 54.6691 121.499 53.2286 115.188 48.3585C110.592 44.7916 106.614 43.0082 106.545 43.0082L107.506 36.8347C107.711 36.9719 115.051 39.3041 119.921 43.0767C122.665 45.2032 132.131 51.7881 128.701 58.1673C126.712 61.94 123.488 66.673 120.813 69.6911C120.333 70.1712 119.647 70.1712 119.235 69.8283Z" fill="#8E6651"/>
<path d="M110.25 81.1462L109.702 83.0668C100.03 85.2618 83.9789 82.5181 83.9789 82.5181L83.3616 79.7057C83.3616 79.7057 98.1778 82.5867 110.25 81.1462Z" fill="#7A5544"/>
<path d="M101.607 36.6977L95.8449 45.9578L90.083 36.6977L92.8953 36.2861L95.8449 41.9794L99.8919 36.0803L101.607 36.6977Z" fill="#7A5544"/>
<path d="M98.4511 33.4737C98.4511 33.4737 102.224 34.9828 102.43 37.1778C102.635 39.3728 95.5702 37.5893 95.5702 37.5893C95.5702 37.5893 89.6712 40.2645 88.7108 38.5497C87.7505 36.8348 92.5521 33.5423 92.5521 33.5423C92.5521 33.5423 93.7868 35.6687 95.5702 35.6687C97.3536 35.6687 98.4511 33.4737 98.4511 33.4737Z" fill="#F2F2F2"/>
<path d="M103.116 58.7161L95.8449 47.6726L90.083 59.1277L96.9424 69.5539L103.116 58.7161Z" fill="#7A5544"/>
<path d="M101.126 58.5789L105.379 50.0733L110.044 59.0591L105.791 67.5647L101.126 58.5789Z" fill="#7A5544"/>
<path d="M91.5237 58.0988L86.3792 50.0733L82.4694 58.8533L87.9568 67.5647L91.5237 58.0988Z" fill="#7A5544"/>
</svg>
