<svg width="76" height="116" viewBox="0 0 76 116" fill="none" xmlns="http://www.w3.org/2000/svg">
<g clip-path="url(#clip0)">
<path d="M38.34 115.657C45.44 115.657 51.223 114.696 51.223 113.519C51.223 112.342 45.436 111.381 38.34 111.381C31.244 111.381 25.458 112.341 25.458 113.519C25.458 114.697 31.245 115.657 38.34 115.657Z" fill="#A8ACA9"/>
<path d="M51.9 14.7579V27.6059C51.8939 29.3849 51.1841 31.0893 49.9256 32.3467C48.667 33.6041 46.962 34.3124 45.183 34.3169H31.716C26.466 34.3169 25 30.1569 25 25.7999V18.8999C25 10.3729 25.122 2.02188 35.926 0.20988C43.377 -1.04112 51.9 3.29988 51.9 13.2459V14.7579Z" fill="#562B20"/>
<path d="M41.47 109.273L40.631 107.385C40.631 107.385 40.77 103.925 40.6 101.685C40.43 99.4451 39.809 74.7021 39.843 73.2341C39.877 71.7661 45.665 71.3101 45.665 71.3101L44.971 72.5601C44.971 72.5601 42.563 105.225 42.715 107.441C42.867 109.657 41.47 109.272 41.47 109.272" fill="#FFDDB8"/>
<path d="M42.718 107.441C42.8307 107.919 43.1155 108.339 43.518 108.621C44.848 109.315 46.2169 109.932 47.618 110.469C48.618 110.969 49.513 112.34 48.488 113.018C47.463 113.696 42.919 113.567 41.067 112.306C39.215 111.045 40.318 108.866 40.56 107.617C40.802 106.368 42.694 106.7 42.718 107.441Z" fill="#FFDDB8"/>
<path d="M46.991 110.183C47.234 110.283 47.45 110.383 47.626 110.469C48.626 110.969 49.521 112.34 48.496 113.018C47.471 113.696 42.927 113.567 41.075 112.306C39.818 111.454 39.918 110.176 40.188 109.054C40.28 110.179 43.45 111.603 45.7 111.411C47.95 111.219 46.994 110.187 46.991 110.183Z" fill="#BF3733"/>
<path d="M35.283 109.273L36.122 107.386C36.122 107.386 35.984 103.926 36.153 101.686C36.322 99.4461 36.945 74.7021 36.909 73.2341C36.873 71.7661 31.088 71.3101 31.088 71.3101L31.782 72.5601C31.782 72.5601 34.188 105.225 34.039 107.441C33.89 109.657 35.283 109.272 35.283 109.272" fill="#FFDDB8"/>
<path d="M34.038 107.441C33.9228 107.92 33.6347 108.34 33.229 108.62C31.8991 109.314 30.5301 109.931 29.129 110.468C28.129 110.968 27.234 112.339 28.259 113.017C29.284 113.695 33.827 113.566 35.68 112.305C37.533 111.044 36.434 108.865 36.194 107.616C35.954 106.367 34.057 106.7 34.038 107.441Z" fill="#FFDDB8"/>
<path d="M29.761 110.183C29.518 110.283 29.301 110.383 29.126 110.469C28.126 110.969 27.231 112.34 28.256 113.018C29.281 113.696 33.824 113.567 35.677 112.306C36.933 111.454 36.833 110.176 36.564 109.054C36.472 110.179 33.304 111.603 31.052 111.411C28.8 111.219 29.758 110.187 29.761 110.183Z" fill="#BF3733"/>
<path d="M35.249 30.834C35.249 30.834 30.613 30.824 29.91 32.004C29.3587 33.1282 29.2053 34.4063 29.475 35.629C29.475 35.629 31.811 35.912 32.432 36.729C32.34 37.3771 32.4408 38.0379 32.722 38.629C32.722 38.629 31.171 49.479 30.344 51.009C28.2804 55.3009 27.3352 60.0449 27.596 64.8C28.118 71.044 28.483 78.542 28.813 79.606C29.143 80.67 37.995 80.537 38.451 80.537C38.907 80.537 47.757 80.671 48.088 79.606C48.419 78.541 48.15 73.351 48.988 66.006C49.5609 60.8782 48.7217 55.6914 46.561 51.006C45.733 49.476 44.183 38.619 44.183 38.619C44.4635 38.0277 44.564 37.367 44.472 36.719C45.093 35.904 47.429 35.619 47.429 35.619C47.6984 34.3963 47.5454 33.1185 46.995 31.994C46.288 30.824 42.111 30.957 42.111 30.957L38.451 32.957L35.249 30.834Z" fill="#FFFFFE"/>
<path d="M30.344 51.0088C28.2804 55.3007 27.3352 60.0447 27.596 64.7998C28.118 71.0438 28.483 78.5418 28.813 79.6088C29.143 80.6758 37.995 80.5398 38.451 80.5398C38.907 80.5398 47.757 80.6738 48.088 79.6088C48.419 78.5438 48.15 73.3538 48.988 66.0088C49.56 60.8808 48.7197 55.694 46.558 51.0088H30.344Z" fill="#562B20"/>
<path d="M32.432 36.7261C32.34 37.3741 32.4408 38.035 32.722 38.6261H44.18C44.4605 38.0347 44.561 37.374 44.469 36.7261H32.432Z" fill="#EFE7E0"/>
<path d="M35.8379 28.2428L35.8579 28.9228C35.8691 29.9857 35.7617 31.0466 35.5379 32.0858C35.1949 33.3988 36.9899 33.9278 38.3489 33.9278C39.7079 33.9278 41.3209 33.3978 41.4129 33.0988C41.5049 32.7998 41.8049 31.5328 41.8049 31.5328C41.4605 30.309 41.2516 29.0512 41.1819 27.7818C41.2509 26.5848 35.8379 28.2428 35.8379 28.2428Z" fill="#FFDDB8"/>
<path d="M38.451 3.22607C41.0275 3.2324 43.4967 4.25814 45.3192 6.07921C47.1418 7.90028 48.1696 10.3686 48.178 12.9451V19.5331C48.178 22.113 47.1532 24.5872 45.3289 26.4115C43.5046 28.2357 41.0304 29.2606 38.4505 29.2606C35.8706 29.2606 33.3964 28.2357 31.5721 26.4115C29.7479 24.5872 28.723 22.113 28.723 19.5331V12.9451C28.7317 10.3686 29.7597 7.90019 31.5825 6.07915C33.4052 4.25811 35.8745 3.2324 38.451 3.22607" fill="#FFDDB8"/>
<path d="M32.33 15.0158C32.4031 15.0543 32.4832 15.0776 32.5655 15.0843C32.6479 15.091 32.7307 15.081 32.809 15.0548C33.1303 14.9441 33.4696 14.8956 33.809 14.9118C33.9665 14.9266 34.1216 14.9601 34.271 15.0118C34.428 15.0454 34.5774 15.1075 34.712 15.1948C34.835 15.3198 35.168 15.2308 35.127 15.0618C35.1218 14.9776 35.1094 14.894 35.09 14.8118C35.0451 14.711 34.9765 14.6225 34.89 14.5538C34.6581 14.3728 34.3818 14.2575 34.09 14.2198C33.5043 14.0996 32.8952 14.1803 32.361 14.4488C32.191 14.5628 32.116 14.7158 32.188 14.8698C32.2214 14.9304 32.2704 14.9808 32.33 15.0158Z" fill="#41231B"/>
<path d="M41.6 15.1611C41.8274 15.0296 42.0664 14.9195 42.314 14.8321C42.5421 14.7588 42.7764 14.7063 43.014 14.6751C43.2313 14.648 43.4509 14.6444 43.669 14.6641C43.7616 14.6747 43.8531 14.6941 43.942 14.7221C44.086 14.7701 44.042 14.7831 44.195 14.8691C44.568 15.0751 45.163 14.8471 44.923 14.4821C44.563 13.9331 43.573 13.8821 42.923 13.9731C42.5922 14.0138 42.2723 14.1181 41.981 14.2801C41.669 14.4621 41.333 14.6861 41.269 15.0001C41.242 15.1351 41.461 15.2311 41.598 15.1611" fill="#41231B"/>
<path d="M37.745 20.8437C37.7532 20.8573 37.7656 20.868 37.7802 20.8741C37.7949 20.8803 37.8111 20.8816 37.8266 20.8779C37.842 20.8743 37.8559 20.8658 37.8663 20.8537C37.8766 20.8416 37.8828 20.8266 37.884 20.8107C37.884 20.7357 37.912 20.6507 37.918 20.5727C37.926 20.4727 37.93 20.3807 38.019 20.3207C38.225 20.1717 38.501 20.1557 38.695 19.9977C38.889 19.8397 38.686 19.5937 38.489 19.6207C38.3373 19.6594 38.1928 19.7222 38.061 19.8067C37.9225 19.8818 37.8044 19.9896 37.717 20.1207C37.6461 20.2314 37.6086 20.3602 37.609 20.4917C37.6085 20.565 37.6225 20.6377 37.65 20.7057C37.6768 20.7561 37.7105 20.8025 37.75 20.8437" fill="#41231B"/>
<path d="M31.961 17.36C32.016 17.338 32.028 17.351 32.082 17.35C32.146 17.3519 32.2099 17.3582 32.273 17.369C32.3658 17.3871 32.4597 17.3991 32.554 17.405C32.5824 17.2895 32.6244 17.1777 32.679 17.072C32.654 17.064 32.63 17.055 32.605 17.045C32.4902 16.9981 32.385 16.9303 32.295 16.845C32.226 16.775 32.111 16.635 32.146 16.53C32.23 16.277 32.462 16.537 32.566 16.63C32.6636 16.715 32.7845 16.7687 32.913 16.784H32.919C33.0715 16.6562 33.2508 16.5643 33.4437 16.5151C33.6365 16.466 33.8379 16.4608 34.033 16.5C34.057 16.505 34.082 16.513 34.106 16.52C34.834 16.366 35.16 17.42 35.173 17.968C35.2361 18.3181 35.1821 18.6791 35.0194 18.9954C34.8567 19.3118 34.5944 19.5657 34.273 19.718C33.9052 19.792 33.523 19.7235 33.2039 19.5263C32.8847 19.3291 32.6524 19.018 32.554 18.656C32.4713 18.3794 32.4478 18.0884 32.485 17.802C32.3848 17.8105 32.284 17.8058 32.185 17.788C32.1149 17.782 32.0483 17.7548 31.994 17.71L31.902 17.622C31.8828 17.6032 31.8688 17.5797 31.8612 17.5539C31.8536 17.5281 31.8527 17.5008 31.8586 17.4746C31.8645 17.4484 31.877 17.4241 31.8949 17.404C31.9129 17.384 31.9356 17.3688 31.961 17.36Z" fill="#41231B"/>
<path d="M33.913 17.7978C33.9845 17.8693 34.0786 17.9137 34.1792 17.9237C34.2798 17.9336 34.3808 17.9083 34.4648 17.8521C34.5489 17.7959 34.6109 17.7124 34.6402 17.6156C34.6696 17.5189 34.6645 17.4149 34.6258 17.3215C34.5871 17.2281 34.5172 17.151 34.428 17.1034C34.3389 17.0557 34.2359 17.0404 34.1368 17.0602C34.0376 17.0799 33.9484 17.1334 33.8842 17.2115C33.8201 17.2897 33.785 17.3877 33.785 17.4888C33.7854 17.6046 33.8314 17.7156 33.913 17.7978Z" fill="#FFFFFE"/>
<path d="M44.94 17.3599C44.884 17.3379 44.873 17.3509 44.819 17.3499C44.7543 17.3516 44.6898 17.358 44.626 17.3689C44.5332 17.3869 44.4394 17.399 44.345 17.4049C44.3187 17.2896 44.2788 17.1778 44.226 17.0719C44.251 17.0639 44.275 17.0549 44.299 17.0449C44.414 16.9983 44.5191 16.9305 44.609 16.8449C44.679 16.7779 44.793 16.6389 44.758 16.5329C44.674 16.2799 44.443 16.5399 44.338 16.6329C44.2402 16.7182 44.1189 16.7718 43.99 16.7869H43.985C43.8323 16.6579 43.6525 16.5651 43.4589 16.5154C43.2653 16.4657 43.063 16.4604 42.867 16.4999C42.843 16.5049 42.819 16.5129 42.795 16.5199C42.066 16.3659 41.741 17.4159 41.726 17.9679C41.6624 18.3186 41.716 18.6804 41.8787 18.9975C42.0414 19.3145 42.3041 19.5692 42.626 19.7219C42.9939 19.7952 43.3759 19.7258 43.6946 19.5279C44.0132 19.3299 44.2447 19.0182 44.342 18.6559C44.4267 18.3793 44.4516 18.0879 44.415 17.8009C44.5152 17.8097 44.6161 17.805 44.715 17.7869C44.7843 17.7809 44.8502 17.7541 44.904 17.7099L44.999 17.6219C45.0185 17.6032 45.0328 17.5798 45.0405 17.5539C45.0483 17.5281 45.0493 17.5007 45.0433 17.4743C45.0374 17.448 45.0248 17.4236 45.0067 17.4036C44.9886 17.3835 44.9656 17.3685 44.94 17.3599Z" fill="#41231B"/>
<path d="M43.735 17.8799C43.652 17.957 43.5422 17.9989 43.4289 17.9968C43.3156 17.9947 43.2075 17.9488 43.1273 17.8686C43.0472 17.7885 43.0012 17.6804 42.9991 17.567C42.997 17.4537 43.0389 17.3439 43.116 17.2609C43.1981 17.1787 43.3095 17.1324 43.4257 17.1323C43.5419 17.1322 43.6533 17.1783 43.7355 17.2604C43.8178 17.3425 43.864 17.4538 43.8641 17.57C43.8642 17.6862 43.8181 17.7977 43.736 17.8799" fill="#FFFFFE"/>
<path d="M32.9231 22.1588C34.0041 22.1588 34.8851 21.8448 34.8851 21.4588C34.8851 21.0728 34.0041 20.7588 32.9231 20.7588C31.8421 20.7588 30.9611 21.0728 30.9611 21.4588C30.9611 21.8448 31.8421 22.1588 32.9231 22.1588Z" fill="#D76051"/>
<path d="M43.977 22.1588C45.058 22.1588 45.94 21.8448 45.94 21.4588C45.94 21.0728 45.059 20.7588 43.977 20.7588C42.895 20.7588 42.015 21.0728 42.015 21.4588C42.015 21.8448 42.897 22.1588 43.977 22.1588Z" fill="#D76051"/>
<path d="M32.493 13.7207L28.148 11.5957L27.476 17.4867H28.723C28.7264 16.4883 29.1248 15.5318 29.8312 14.8261C30.5376 14.1205 31.4945 13.7231 32.493 13.7207Z" fill="#562B20"/>
<path d="M35.741 23.334C35.741 23.334 40.854 23.094 41.781 23.455C42.708 23.816 41.286 26.775 38.167 26.555C35.048 26.335 34.066 23.416 35.741 23.334Z" fill="#FFFFFE"/>
<path d="M36.343 30.5018C36.343 30.5018 36.76 32.5818 38.46 32.4508C39.0154 32.3636 39.5385 32.1333 39.9778 31.7827C40.4172 31.432 40.7578 30.973 40.966 30.4508C41.216 30.0998 42.457 30.9158 42.498 31.3978C42.539 31.8798 41.283 35.0348 40.367 35.0128C39.451 34.9908 39.034 34.2028 38.617 34.0488C38.2 33.8948 37.703 34.7068 36.972 35.0588C36.241 35.4108 34.749 31.7748 34.916 31.3808C35.083 30.9868 35.988 29.7368 36.343 30.5018Z" fill="#DBD2C9"/>
<path d="M28.099 13.1359L31.805 13.7249H38.731C40.088 13.7249 45.231 13.6819 45.231 8.0919V4.2319L36.683 1.0249C35.1999 1.97632 33.7666 3.00334 32.389 4.1019C32.215 4.4489 27.878 7.7419 27.704 8.5649C27.53 9.3879 26.904 10.8219 27.184 11.2089C27.527 11.8323 27.8322 12.4758 28.098 13.1359" fill="#562B20"/>
<path d="M51.301 14.0288C49.014 13.8718 44.838 12.9508 44.838 7.52079V3.04379L45.811 2.88379C46.785 3.82279 48.664 5.67579 48.664 6.01179C48.664 6.46479 51.089 11.9168 50.98 12.9538C50.9889 13.3339 51.0993 13.7048 51.3 14.0278" fill="#562B20"/>
<path d="M33.601 58.5021C34.2848 57.1677 35.3366 56.0572 36.632 55.3021C38.09 54.7021 39.99 54.3881 40.912 55.0601C41.887 55.9407 42.4845 57.1637 42.58 58.4741C42.523 59.3601 41.78 58.9021 41.636 58.3891C41.492 57.8761 40.882 55.9541 40.059 55.6571C39.236 55.3601 36.597 55.6421 36.118 56.4241C35.7325 57.179 35.27 57.8921 34.738 58.5521C34.423 58.7661 33.479 59.0231 33.601 58.5021Z" fill="#8F2429"/>
<path d="M47.426 35.6289C47.444 35.6419 48.439 38.7909 49.226 42.0559C49.896 44.8249 50.349 44.6859 49.255 46.6389C47.446 49.8709 44.125 54.2759 43.461 54.5389C42.797 54.8019 42.132 54.6619 42.439 53.9549C42.746 53.2479 46.069 48.6819 47.407 45.2429C47.347 45.0176 47.2804 44.8042 47.207 44.6029C46.486 42.6249 45.307 40.0029 44.407 38.0659C44.5001 37.6265 44.5193 37.1746 44.464 36.7289C45.089 35.9119 47.426 35.6289 47.426 35.6289Z" fill="#FFDDB8"/>
<path d="M35.548 55.1278L35.542 55.1188L35.533 55.1098L35.519 55.0948C35.6038 55.3561 35.6463 55.6292 35.645 55.9038C36.2242 56.0856 36.7837 56.3252 37.315 56.6188C37.45 56.8088 37.328 56.9668 37.041 56.9738C36.754 56.9808 36.524 56.9738 36.524 56.9738C36.4509 57.0681 36.3549 57.1421 36.2451 57.1888C36.1354 57.2355 36.0156 57.2534 35.897 57.2408C34.897 57.2128 34.836 57.6798 33.977 57.0608H33.995C33.8058 56.9322 33.6636 56.7454 33.59 56.5288C33.3082 55.5667 32.9638 54.624 32.559 53.7068L34.127 53.3188L34.51 53.9258C34.979 53.9947 35.423 54.1808 35.801 54.4668C35.9989 54.7273 36.2147 54.9735 36.447 55.2038C36.647 55.3868 36.861 55.7688 36.372 55.6928C36.0463 55.5925 35.7589 55.3955 35.548 55.1278Z" fill="#FFDDB8"/>
<path d="M29.476 35.6289C29.458 35.6419 28.463 38.7909 27.673 42.0559C27.004 44.8289 26.551 44.6859 27.645 46.6389C29.454 49.8709 32.774 54.2759 33.439 54.5389C34.104 54.8019 34.767 54.6619 34.461 53.9549C34.155 53.2479 30.831 48.6819 29.493 45.2429C29.5537 45.0176 29.6203 44.8042 29.693 44.6029C30.415 42.6249 31.593 40.0029 32.493 38.0659C32.3988 37.6267 32.3786 37.1748 32.433 36.7289C31.812 35.9119 29.476 35.6289 29.476 35.6289Z" fill="#FFDDB8"/>
<path d="M41.354 55.1278L41.36 55.1188L41.369 55.1098L41.384 55.0938C41.2992 55.3551 41.2566 55.6282 41.258 55.9028C40.6784 56.0848 40.1186 56.3247 39.587 56.6188C39.452 56.8088 39.573 56.9668 39.86 56.9738C40.147 56.9808 40.377 56.9738 40.377 56.9738C40.4501 57.0681 40.5461 57.1421 40.6558 57.1888C40.7656 57.2355 40.8854 57.2534 41.004 57.2408C42.004 57.2128 42.066 57.6798 42.926 57.0608H42.908C43.095 56.931 43.2352 56.7445 43.308 56.5288C43.5914 55.5667 43.9371 54.624 44.343 53.7068L42.776 53.3188L42.392 53.9258C41.9227 53.9946 41.4783 54.1807 41.1 54.4668C40.9027 54.7274 40.6871 54.9737 40.455 55.2038C40.255 55.3868 40.04 55.7688 40.53 55.6928C40.8554 55.5925 41.1425 55.3955 41.353 55.1278" fill="#FFDDB8"/>
<path d="M35.895 55.7358V55.8598H36.903V55.1958C36.812 55.2308 36.72 55.2658 36.632 55.3028C36.3693 55.4159 36.1217 55.5614 35.895 55.7358" fill="#8F2429"/>
<path d="M41.2501 55.3611V55.7751H40.2781C40.2109 55.7258 40.1372 55.6861 40.0591 55.6571C39.9999 55.6359 39.9394 55.6185 39.8781 55.6051V54.7051C40.2475 54.7324 40.6037 54.8547 40.9121 55.0601C41.0338 55.1494 41.1469 55.2498 41.2501 55.3601" fill="#8F2429"/>
<path d="M30.993 67.774C30.179 67.358 30.478 65.88 30.483 65.011C30.4113 62.9105 30.449 60.8077 30.596 58.711C31.285 57.823 33.148 58.168 34.348 58.146C35.848 58.119 45.648 57.873 46.23 58.197C47.052 58.653 46.708 60.76 46.73 61.703C46.752 62.646 47.125 67.131 46.405 67.61C45.747 68.043 39.714 67.9 38.675 67.91C36.1139 68.0196 33.5486 67.9741 30.993 67.774Z" fill="#BF3733"/>
<path d="M64.367 115.506C70.074 115.506 74.73 114.437 74.73 113.128C74.73 111.819 70.074 110.751 64.367 110.751C58.66 110.751 54.004 111.818 54.004 113.129C54.004 114.44 58.659 115.506 64.367 115.506Z" fill="#A8ACA9"/>
<path d="M59.641 72.9127L58.369 71.4707C56.0833 74.0308 54.4404 77.0987 53.5766 80.4203C52.7129 83.7418 52.653 87.2214 53.402 90.5707C53.4423 90.7823 53.5375 90.9795 53.678 91.1427C53.7625 91.2374 53.8762 91.3011 54.0011 91.3235C54.126 91.3459 54.2548 91.3257 54.3669 91.2663C54.479 91.2069 54.5679 91.1115 54.6194 90.9956C54.6709 90.8796 54.6821 90.7497 54.651 90.6267C54.043 86.1547 53.68 81.3197 59.317 76.6067L59.641 72.9127Z" fill="#FFFFFE"/>
<path d="M54.855 91.0029C54.855 91.0029 55.232 91.5659 55.367 91.7869C55.367 92.0509 55.484 92.5759 55.377 92.5149C55.326 92.4849 55.104 92.4689 55.014 91.9619C54.9664 92.1444 54.8898 92.3179 54.787 92.4759C55.0604 92.7933 55.3012 93.1374 55.506 93.5029C55.514 93.6609 55.384 93.7089 55.212 93.6079C55.04 93.5069 54.905 93.4209 54.905 93.4209C54.8261 93.4493 54.7413 93.4574 54.6585 93.4445C54.5757 93.4316 54.4974 93.398 54.431 93.3469C54.012 93.0129 53.256 93.0339 53.337 92.0909C53.362 91.8139 53.603 91.4469 53.597 91.3089L54.855 91.0029Z" fill="#FFDDB8"/>
<path d="M54.8539 91.0029C55.1136 91.1674 55.311 91.4137 55.4149 91.7029C55.4348 91.9261 55.4702 92.1477 55.5209 92.3659C55.5689 92.5429 55.5559 92.8439 55.2939 92.6209C55.1337 92.4358 55.0357 92.2049 55.0139 91.9609C54.9664 92.1434 54.8898 92.3169 54.7869 92.4749C55.0604 92.7927 55.3013 93.1371 55.5059 93.5029C55.5139 93.6609 55.3839 93.7089 55.2119 93.6079C55.0399 93.5069 54.9049 93.4209 54.9049 93.4209C54.8257 93.4429 54.7427 93.4477 54.6614 93.435C54.5802 93.4222 54.5026 93.3922 54.4339 93.3469C53.8539 92.9659 53.6429 93.2139 53.3669 92.5409C53.4569 92.5789 53.6469 92.7809 53.9189 92.5649C54.053 92.5627 54.1867 92.5506 54.3189 92.5289C54.6579 92.4289 54.7849 91.8079 54.7909 91.5429C54.7722 91.3636 54.6882 91.1974 54.5549 91.0759L54.8539 91.0029Z" fill="#FFDDB8"/>
<path d="M55.014 91.0476C54.5002 91.1445 53.9929 91.2731 53.495 91.4326C53.495 91.4326 53.353 91.5006 53.253 91.3186C53.153 91.1366 52.97 90.7506 53.094 90.6396C53.6607 90.4014 54.2544 90.2335 54.862 90.1396C55.014 90.1746 55.145 90.7156 55.153 90.8236C55.1604 90.8711 55.1506 90.9196 55.1253 90.9603C55.0999 91.0011 55.0608 91.0314 55.015 91.0456" fill="#BF3733"/>
<path d="M68.054 72.9127L69.327 71.4707C71.6126 74.0309 73.2552 77.0988 74.1188 80.4204C74.9824 83.742 75.0421 87.2215 74.293 90.5707C74.2523 90.7821 74.1571 90.9793 74.017 91.1427C73.9325 91.2374 73.8188 91.3011 73.6939 91.3235C73.569 91.3459 73.4402 91.3257 73.3281 91.2663C73.216 91.2069 73.1271 91.1115 73.0756 90.9956C73.0241 90.8796 73.0129 90.7497 73.044 90.6267C73.654 86.1547 74.016 81.3197 68.379 76.6067L68.054 72.9127Z" fill="#FFFFFE"/>
<path d="M66.499 110.508L65.941 109.346C65.941 109.346 65.972 107.191 65.83 105.801C65.688 104.411 65.241 99.3266 65.241 98.4126C65.241 97.4986 68.081 97.9316 68.081 97.9316L68.561 99.1316C68.561 99.1316 67.131 107.973 67.261 109.349C67.391 110.725 66.499 110.507 66.499 110.507" fill="#FFDDB8"/>
<path d="M67.261 109.349C67.3424 109.647 67.5321 109.905 67.793 110.071C68.6494 110.482 69.5285 110.844 70.426 111.155C71.066 111.455 71.658 112.29 71.017 112.727C69.4558 113.203 67.7739 113.087 66.293 112.401C65.1 111.644 65.764 110.272 65.893 109.491C66.022 108.71 67.233 108.891 67.257 109.349" fill="#FFDDB8"/>
<path d="M70.019 110.992C70.175 111.052 70.314 111.109 70.426 111.161C71.066 111.461 71.658 112.296 71.017 112.734C69.4551 113.208 67.7731 113.09 66.293 112.402C65.979 112.185 65.7476 111.868 65.6367 111.503C65.5257 111.138 65.5417 110.746 65.682 110.392C65.759 111.092 67.793 111.928 69.219 111.775C70.645 111.622 70.019 110.994 70.019 110.992Z" fill="#BF3733"/>
<path d="M61.469 110.508L62.03 109.347C62.03 109.347 61.996 107.192 62.138 105.802C62.28 104.412 62.726 99.3276 62.726 98.4136C62.726 97.4996 59.886 97.9316 59.886 97.9316L59.408 99.1316C59.408 99.1316 60.837 107.969 60.708 109.346C60.579 110.723 61.47 110.504 61.47 110.504" fill="#FFDDB8"/>
<path d="M66.8019 71.183L67.5449 70.647C67.5449 70.647 69.0079 70.906 69.4539 71.641C69.8999 72.376 70.4889 81.59 70.8949 84.291C71.3009 86.992 72.2749 96.208 71.6259 97.557C70.4109 100.085 57.6959 100.494 55.9369 97.265C54.9629 95.477 56.3839 86.992 56.7899 84.291C57.1959 81.59 57.7489 72.728 58.3019 71.82C58.8549 70.912 60.5679 70.787 60.5679 70.787L60.8869 71.187L63.8419 72.831L66.8019 71.183Z" fill="#BF3733"/>
<path d="M75.684 56.292V63.949C75.6632 65.4995 75.0296 66.9787 73.9217 68.0635C72.8138 69.1484 71.3216 69.7507 69.771 69.739H57.914C53.291 69.739 52 66.15 52 62.388V59.866C52 52.509 52.108 45.304 61.62 43.74C68.18 42.659 75.684 46.41 75.684 54.987V56.287" fill="#562B20"/>
<path d="M61.5411 67.9271L61.5581 68.5141C61.5681 69.4314 61.4741 70.3469 61.2781 71.2431C60.9781 72.3751 62.5551 72.8321 63.7521 72.8321C64.7043 72.8785 65.6476 72.6287 66.4521 72.1171C66.5331 71.8591 66.7971 70.7671 66.7971 70.7671C66.4938 69.7119 66.3096 68.6262 66.2481 67.5301C66.3091 66.4971 61.5411 67.9271 61.5411 67.9271Z" fill="#FFDDB8"/>
<path d="M63.842 46.343C66.2465 46.3246 68.5607 47.2586 70.2787 48.9411C71.9968 50.6235 72.9791 52.9176 73.011 55.322V59.822C72.9788 62.2263 71.9964 64.5201 70.2784 66.2023C68.5604 67.8846 66.2464 68.8185 63.842 68.8C61.4371 68.8185 59.1226 67.8842 57.4045 66.2013C55.6864 64.5184 54.7044 62.2238 54.673 59.819V55.319C54.7057 52.9151 55.6883 50.6218 57.4063 48.94C59.1242 47.2582 61.4379 46.3246 63.842 46.343Z" fill="#FFDDB8"/>
<path d="M58.454 56.5151C58.5187 56.5482 58.5893 56.5681 58.6617 56.5738C58.7341 56.5794 58.807 56.5707 58.876 56.5481C59.1594 56.4522 59.4582 56.4101 59.757 56.4241C59.8958 56.4361 60.0327 56.4643 60.165 56.5081C60.303 56.5373 60.4347 56.5908 60.554 56.6661C60.662 56.7741 60.954 56.6971 60.92 56.5521C60.9147 56.4793 60.9037 56.4071 60.887 56.3361C60.8483 56.2488 60.7889 56.1722 60.714 56.1131C60.5101 55.9571 60.2686 55.8578 60.014 55.8251C59.4962 55.7204 58.9584 55.7908 58.485 56.0251C58.331 56.1251 58.265 56.2551 58.329 56.3911C58.359 56.4427 58.4021 56.4855 58.454 56.5151Z" fill="#41231B"/>
<path d="M66.6151 56.6399C66.815 56.5258 67.0253 56.4307 67.2431 56.3559C67.443 56.2928 67.6481 56.2476 67.8561 56.2209C68.0488 56.1969 68.2436 56.1935 68.4371 56.2109C68.5188 56.2199 68.5995 56.2366 68.6781 56.2609C68.8051 56.3009 68.7661 56.3129 68.9011 56.3869C69.2291 56.5649 69.7531 56.3679 69.5421 56.0529C69.2231 55.5839 68.3531 55.5369 67.7831 55.6149C67.4905 55.651 67.2075 55.7423 66.9491 55.8839C66.6771 56.0369 66.3791 56.2299 66.3231 56.5009C66.3001 56.6169 66.4921 56.7009 66.6131 56.6399" fill="#41231B"/>
<path d="M63.222 61.5441C63.2291 61.5563 63.2399 61.566 63.2529 61.5716C63.266 61.5772 63.2804 61.5785 63.2942 61.5752C63.308 61.572 63.3204 61.5644 63.3296 61.5535C63.3387 61.5427 63.3441 61.5292 63.345 61.5151C63.345 61.4511 63.368 61.3771 63.375 61.3091C63.3705 61.2679 63.376 61.2263 63.3912 61.1878C63.4063 61.1493 63.4306 61.1151 63.462 61.0881C63.643 60.9641 63.887 60.9491 64.057 60.8131C64.227 60.6771 64.049 60.4651 63.877 60.4881C63.7442 60.5218 63.6174 60.5757 63.501 60.6481C63.3809 60.7124 63.278 60.8046 63.201 60.9171C63.1362 61.0124 63.1014 61.1248 63.101 61.2401C63.1004 61.3032 63.1127 61.3658 63.137 61.4241C63.1591 61.4679 63.1874 61.5083 63.221 61.5441" fill="#41231B"/>
<path d="M58.129 58.5366C58.178 58.5176 58.188 58.5276 58.235 58.5276C58.2917 58.5295 58.3481 58.5352 58.404 58.5446C58.4856 58.5602 58.5681 58.5705 58.651 58.5756C58.676 58.4756 58.713 58.3789 58.761 58.2876L58.697 58.2656C58.5958 58.2241 58.5029 58.1645 58.423 58.0896C58.363 58.0276 58.261 57.9116 58.292 57.8206C58.366 57.6026 58.569 57.8276 58.662 57.9056C58.7484 57.9796 58.855 58.026 58.968 58.0386H58.973C59.1088 57.9292 59.2669 57.8509 59.4363 57.8094C59.6057 57.7679 59.7821 57.7643 59.953 57.7986C59.974 57.8036 59.996 57.8096 60.017 57.8166C60.658 57.6836 60.945 58.5886 60.957 59.0656C61.0107 59.3705 60.9611 59.6845 60.8162 59.958C60.6713 60.2315 60.4394 60.4488 60.157 60.5756C59.8369 60.6388 59.5047 60.5792 59.2265 60.4088C58.9482 60.2383 58.7442 59.9695 58.655 59.6556C58.5805 59.4172 58.5583 59.1654 58.59 58.9176C58.5016 58.9254 58.4124 58.9214 58.325 58.9056C58.2641 58.9005 58.206 58.8776 58.158 58.8396C58.158 58.8396 58.078 58.7656 58.077 58.7646C58.0596 58.7485 58.0468 58.7281 58.0398 58.7055C58.0328 58.6828 58.0319 58.6587 58.0372 58.6356C58.0425 58.6125 58.0537 58.5912 58.0698 58.5738C58.086 58.5564 58.1064 58.5436 58.129 58.5366Z" fill="#41231B"/>
<path d="M59.849 58.9156C59.9219 58.9865 60.0197 59.0262 60.1215 59.0262C60.2232 59.0262 60.321 58.9865 60.394 58.9156C60.4297 58.8809 60.4581 58.8394 60.4775 58.7936C60.4969 58.7477 60.5069 58.6984 60.5069 58.6486C60.5069 58.5988 60.4969 58.5495 60.4775 58.5036C60.4581 58.4578 60.4297 58.4163 60.394 58.3816C60.321 58.3107 60.2232 58.271 60.1215 58.271C60.0197 58.271 59.9219 58.3107 59.849 58.3816C59.813 58.4161 59.7843 58.4576 59.7648 58.5035C59.7452 58.5493 59.7351 58.5987 59.7351 58.6486C59.7351 58.6985 59.7452 58.7478 59.7648 58.7937C59.7843 58.8396 59.813 58.8811 59.849 58.9156Z" fill="#FFFFFE"/>
<path d="M69.555 58.5366C69.507 58.5176 69.497 58.5276 69.449 58.5276C69.3927 58.5292 69.3366 58.5345 69.281 58.5436C69.1994 58.5592 69.1169 58.5695 69.034 58.5746C69.0099 58.475 68.9739 58.3787 68.927 58.2876L68.988 58.2656C69.0894 58.2243 69.1822 58.1646 69.262 58.0896C69.327 58.0276 69.427 57.9116 69.393 57.8206C69.319 57.6026 69.115 57.8276 69.027 57.9056C68.9393 57.98 68.8313 58.0263 68.717 58.0386H68.712C68.576 57.9278 68.4171 57.8485 68.2468 57.8063C68.0765 57.7641 67.899 57.7601 67.727 57.7946C67.71 57.7996 67.689 57.8056 67.668 57.8126C67.027 57.6796 66.739 58.5846 66.727 59.0616C66.6733 59.3665 66.7229 59.6805 66.8678 59.954C67.0127 60.2275 67.2447 60.4448 67.527 60.5716C67.8463 60.6344 68.1775 60.5751 68.4552 60.4055C68.733 60.2359 68.937 59.9683 69.027 59.6556C69.1018 59.4172 69.124 59.1654 69.092 58.9176C69.1808 58.9255 69.2703 58.9215 69.358 58.9056C69.4196 58.9009 69.4785 58.8779 69.527 58.8396L69.608 58.7656C69.6256 58.7495 69.6386 58.7289 69.6457 58.7061C69.6528 58.6833 69.6537 58.659 69.6483 58.6357C69.6429 58.6124 69.6314 58.5909 69.615 58.5735C69.5986 58.5561 69.5779 58.5434 69.555 58.5366Z" fill="#41231B"/>
<path d="M68.4951 58.9857C68.422 59.0564 68.3242 59.0959 68.2226 59.0959C68.1209 59.0959 68.0232 59.0564 67.9501 58.9857C67.9143 58.9511 67.8859 58.9097 67.8665 58.8639C67.8472 58.8181 67.8372 58.7689 67.8372 58.7192C67.8372 58.6695 67.8472 58.6203 67.8665 58.5745C67.8859 58.5287 67.9143 58.4873 67.9501 58.4527C68.0228 58.3813 68.1206 58.3413 68.2226 58.3413C68.3245 58.3413 68.4223 58.3813 68.4951 58.4527C68.5306 58.4874 68.5589 58.5288 68.5782 58.5746C68.5976 58.6203 68.6075 58.6695 68.6075 58.7192C68.6075 58.7689 68.5976 58.8181 68.5782 58.8638C68.5589 58.9096 68.5306 58.951 68.4951 58.9857Z" fill="#FFFFFE"/>
<path d="M58.975 62.6758C59.926 62.6758 60.703 62.4047 60.703 62.0757C60.703 61.7467 59.927 61.4688 58.975 61.4688C58.023 61.4688 57.248 61.7398 57.248 62.0688C57.248 62.3978 58.024 62.6688 58.975 62.6688" fill="#D76051"/>
<path d="M68.708 62.6758C69.66 62.6758 70.436 62.4047 70.436 62.0757C70.436 61.7467 69.66 61.4688 68.708 61.4688C67.756 61.4688 66.981 61.7398 66.981 62.0688C66.981 62.3978 67.757 62.6688 68.708 62.6688" fill="#D76051"/>
<path d="M57.992 54.8399L54.166 53.0059L53.575 58.0889H54.675C54.6866 57.2187 55.042 56.3885 55.6637 55.7796C56.2854 55.1706 57.1228 54.8324 57.993 54.8389" fill="#562B20"/>
<path d="M69.693 54.8399L73.518 53.0059L74.11 58.0889H73.01C72.9984 57.219 72.643 56.389 72.0216 55.7803C71.4001 55.1715 70.5629 54.8334 69.693 54.8399" fill="#562B20"/>
<path d="M61.2011 63.381C61.2011 63.381 66.1771 63.151 67.0791 63.492C67.9811 63.833 66.5991 66.659 63.5621 66.449C60.5251 66.239 59.5701 63.458 61.2011 63.381Z" fill="#FFFFFE"/>
<path d="M53.876 54.8388H73.81L72.693 48.6668L63.843 45.1968L56.176 47.9598L53.876 54.8388Z" fill="#562B20"/>
<path d="M61.417 70.7258C61.6812 71.1284 62.0442 71.4567 62.4714 71.6792C62.8985 71.9017 63.3756 72.011 63.857 71.9968C64.4193 71.9155 64.9585 71.7182 65.4405 71.4175C65.9225 71.1167 66.3368 70.7191 66.657 70.2498C66.889 69.9318 67.505 70.2098 67.544 70.6498C67.583 71.0898 66.466 74.3408 65.619 74.3208C64.772 74.3008 64.385 73.5858 64 73.4468C63.615 73.3078 63.152 74.0468 62.477 74.3598C61.802 74.6728 60.415 71.1428 60.569 70.7858C60.723 70.4288 61.089 70.0308 61.417 70.7258Z" fill="#FFFFFE"/>
<path d="M60.707 109.349C60.6256 109.647 60.4364 109.905 60.176 110.071C59.3191 110.482 58.4397 110.844 57.542 111.155C56.902 111.455 56.31 112.294 56.951 112.732C58.5127 113.207 60.1947 113.089 61.675 112.401C62.875 111.644 62.207 110.272 62.075 109.491C61.943 108.71 60.731 108.889 60.707 109.349Z" fill="#FFDDB8"/>
<path d="M57.95 110.992C57.794 111.052 57.655 111.108 57.542 111.16C56.902 111.456 56.31 112.292 56.951 112.733C58.5127 113.207 60.1947 113.09 61.675 112.402C61.9891 112.185 62.2206 111.868 62.3315 111.503C62.4425 111.138 62.4264 110.746 62.286 110.392C62.21 111.092 60.175 111.928 58.751 111.775C57.327 111.622 57.947 110.992 57.95 110.992Z" fill="#BF3733"/>
<path d="M71.8881 44.2869C71.8881 44.2869 75.1881 44.8049 75.3541 45.3869C75.5201 45.9689 74.1131 46.6049 73.8661 47.0739C73.6191 47.5429 73.5171 48.9179 72.6921 48.6809C71.8671 48.4439 70.6951 46.3259 70.4541 45.9679C70.2131 45.6099 70.9261 44.1809 71.8881 44.2869Z" fill="#BF3733"/>
<path d="M70.449 43.5578C70.449 43.5578 68.849 41.0608 67.993 40.9998C67.137 40.9388 67.495 42.4558 66.843 42.9788C66.191 43.5018 65.463 44.1768 66.876 44.5998C68.289 45.0228 69.504 45.1998 69.695 44.9848C69.886 44.7698 70.775 44.0638 70.449 43.5608" fill="#BF3733"/>
<path d="M70.806 43.2319C70.806 43.2319 70.079 42.9139 69.715 43.4199C69.351 43.9259 68.722 45.0939 69.15 45.4829C69.578 45.8719 70.322 46.2649 70.794 45.8719C71.266 45.4789 72.812 44.0059 70.806 43.2319Z" fill="#BF3733"/>
<path d="M72.842 91.0029C72.842 91.0029 72.465 91.5659 72.329 91.7869C72.329 92.0509 72.212 92.5759 72.319 92.5149C72.37 92.4849 72.59 92.4679 72.682 91.9609C72.7297 92.1433 72.8063 92.3169 72.909 92.4749C72.6349 92.7921 72.3939 93.1366 72.19 93.5029C72.18 93.6609 72.312 93.7089 72.483 93.6079C72.654 93.5069 72.79 93.4209 72.79 93.4209C72.8683 93.4486 72.9523 93.4563 73.0344 93.4434C73.1164 93.4305 73.194 93.3973 73.26 93.3469C73.683 93.0129 74.439 93.0339 74.36 92.0909C74.334 91.8139 74.09 91.4469 74.099 91.3089L72.842 91.0029Z" fill="#FFDDB8"/>
<path d="M72.841 91.0029C72.5812 91.1672 72.3838 91.4136 72.28 91.7029C72.2607 91.9262 72.2253 92.1478 72.174 92.3659C72.125 92.5429 72.139 92.8439 72.401 92.6209C72.5612 92.4356 72.6595 92.2049 72.682 91.9609C72.7297 92.1433 72.8063 92.3169 72.909 92.4749C72.6349 92.7921 72.394 93.1366 72.19 93.5029C72.18 93.6609 72.312 93.7089 72.483 93.6079C72.654 93.5069 72.791 93.4209 72.791 93.4209C72.8701 93.443 72.953 93.4478 73.0341 93.435C73.1152 93.4223 73.1925 93.3922 73.261 93.3469C73.842 92.9659 74.051 93.2129 74.329 92.5409C74.239 92.5789 74.048 92.7809 73.776 92.5649C73.642 92.5626 73.5083 92.5506 73.376 92.5289C73.033 92.4259 72.906 91.8079 72.899 91.5429C72.9196 91.3628 73.0057 91.1966 73.141 91.0759L72.841 91.0029Z" fill="#FFDDB8"/>
<path d="M72.682 91.0476C73.1958 91.1445 73.7031 91.2731 74.201 91.4326C74.201 91.4326 74.347 91.5006 74.443 91.3176C74.539 91.1346 74.726 90.7506 74.601 90.6396C74.0346 90.4014 73.4412 90.2335 72.834 90.1396C72.682 90.1756 72.551 90.7166 72.543 90.8256C72.5366 90.8731 72.547 90.9212 72.5724 90.9617C72.5978 91.0023 72.6365 91.0327 72.682 91.0476Z" fill="#BF3733"/>
<path d="M12.325 115.791C19.114 115.791 24.65 115.019 24.65 114.073C24.65 113.127 19.113 112.354 12.325 112.354C5.537 112.354 0 113.127 0 114.073C0 115.019 5.536 115.791 12.325 115.791Z" fill="#848988"/>
<path d="M9.76704 111.168C9.76704 111.168 9.73304 108.998 9.87204 107.599C10.011 106.2 10.372 99.7989 10.372 98.8799C10.372 97.9609 8.10504 98.1199 8.10504 98.1199L7.31704 99.0089C7.31704 99.0089 8.59904 109.785 8.47104 111.172C8.39134 111.469 8.20611 111.727 7.95004 111.897C7.11272 112.313 6.25194 112.68 5.37204 112.997C4.74504 113.297 4.16604 114.139 4.79204 114.58C6.32039 115.057 7.97286 114.938 9.41704 114.247C10.587 113.485 9.93704 112.104 9.80704 111.317C9.79896 111.267 9.78555 111.218 9.76704 111.171" fill="#FFDDB8"/>
<path d="M8.38804 111.398C8.28268 111.596 8.13315 111.767 7.95104 111.898C7.11331 112.313 6.25219 112.679 5.37204 112.994C4.74504 113.294 4.16604 114.136 4.79204 114.577C6.32039 115.054 7.97286 114.935 9.41704 114.244C10.587 113.482 9.93704 112.101 9.80704 111.314C9.61727 111.491 9.37148 111.597 9.11219 111.612C8.8529 111.627 8.5964 111.552 8.38704 111.398" fill="#196597"/>
<path d="M4.56905 113.836C4.51289 113.966 4.50457 114.112 4.54557 114.248C4.58656 114.383 4.67423 114.5 4.79305 114.577C6.32097 115.055 7.97302 114.936 9.41705 114.245C9.66436 114.089 9.8605 113.863 9.98133 113.597C10.1022 113.33 10.1424 113.034 10.0971 112.745C10.0971 112.745 8.65005 115.391 4.56905 113.836Z" fill="#FFFFFE"/>
<path d="M8.52703 72.8469L9.01003 71.8589C2.81003 73.9189 0.419031 82.0649 2.41603 90.6279C2.45551 90.84 2.54843 91.0386 2.68603 91.2049C3.12303 91.6449 3.71803 91.2799 3.63903 90.6839C3.03903 86.1839 2.45003 80.5519 8.20703 76.5659L8.52703 72.8469Z" fill="#FFDDB8"/>
<path d="M14.567 111.168C14.567 111.168 14.603 108.997 14.467 107.599C14.331 106.201 13.967 99.8 13.967 98.88C13.967 97.96 16.231 98.12 16.231 98.12L17.019 99.009C17.019 99.009 15.737 109.785 15.867 111.172C15.9458 111.469 16.1308 111.727 16.387 111.897C17.2252 112.312 18.0866 112.678 18.967 112.994C19.594 113.294 20.174 114.136 19.547 114.577C18.019 115.055 16.3669 114.936 14.923 114.244C13.752 113.482 14.403 112.101 14.532 111.314C14.5404 111.264 14.5538 111.215 14.572 111.168" fill="#FFDDB8"/>
<path d="M15.948 111.398C16.0535 111.596 16.2026 111.767 16.384 111.898C17.2218 112.314 18.0829 112.681 18.963 112.998C19.59 113.298 20.17 114.14 19.543 114.581C18.0145 115.057 16.3623 114.937 14.919 114.244C13.747 113.481 14.398 112.1 14.531 111.314C14.7209 111.491 14.9667 111.596 15.2259 111.612C15.4851 111.627 15.7416 111.552 15.951 111.398" fill="#196597"/>
<path d="M19.7661 113.836C19.8223 113.966 19.8308 114.112 19.79 114.247C19.7492 114.383 19.6617 114.5 19.5431 114.577C18.0152 115.055 16.363 114.936 14.9191 114.245C14.6717 114.089 14.4756 113.863 14.3548 113.597C14.234 113.33 14.1937 113.034 14.2391 112.745C14.2391 112.745 15.6871 115.391 19.7661 113.836Z" fill="#FFFFFE"/>
<path d="M12.119 89.124L18.226 89.438C18.4239 90.0321 18.5011 90.6597 18.453 91.284C18.372 92.324 17.896 98.324 17.777 98.924C17.658 99.524 17.377 99.534 17.032 99.634C15.9042 99.8156 14.762 99.8926 13.62 99.864C12.841 99.784 12.742 96.924 12.584 96.344C12.426 95.764 12.118 95.824 12.118 95.824C12.118 95.824 11.812 95.764 11.653 96.344C11.494 96.924 11.395 99.784 10.616 99.864C9.47438 99.8925 8.33253 99.8156 7.20504 99.634C6.85804 99.534 6.57904 99.523 6.46004 98.924C6.34104 98.325 5.86404 92.324 5.78504 91.284C5.7373 90.6596 5.81482 90.032 6.01304 89.438L12.119 89.124Z" fill="#562A1F"/>
<path d="M15.712 72.8469L15.226 71.8589C21.426 73.9189 23.817 82.0649 21.821 90.6279C21.7815 90.8401 21.6886 91.0387 21.551 91.2049C21.114 91.6449 20.519 91.2799 20.597 90.6839C21.197 86.1839 21.787 80.5519 16.029 76.5659L15.712 72.8469Z" fill="#FFDDB8"/>
<path d="M10.345 69.4329L10.358 69.9089C10.3658 70.6481 10.2921 71.3859 10.138 72.1089C9.89903 73.0239 11.138 73.3939 12.083 73.3939C12.8343 73.4326 13.5784 73.2316 14.208 72.8199C14.272 72.6109 14.479 71.7279 14.479 71.7279C14.2388 70.8734 14.093 69.9952 14.044 69.1089C14.091 68.2739 10.344 69.4309 10.344 69.4309" fill="#FFDDB8"/>
<path d="M12.119 49.0098C14.5061 49.0251 16.7902 49.9844 18.4724 51.6782C20.1545 53.372 21.0981 55.6626 21.097 58.0498V61.2988C21.0981 63.6859 20.1545 65.9766 18.4724 67.6703C16.7902 69.3641 14.5061 70.3234 12.119 70.3388C9.73187 70.3234 7.44779 69.3641 5.76563 67.6703C4.08346 65.9766 3.13989 63.6859 3.14099 61.2988V58.0498C3.13989 55.6626 4.08346 53.372 5.76563 51.6782C7.44779 49.9844 9.73187 49.0251 12.119 49.0098" fill="#FFDDB8"/>
<path d="M6.84298 57.9719C6.90607 58.0053 6.97536 58.0255 7.04656 58.0312C7.11777 58.0369 7.18938 58.0279 7.25698 58.0049C7.53411 57.9089 7.82704 57.8668 8.11998 57.8809C8.25624 57.8931 8.39053 57.9216 8.51998 57.9659C8.65455 57.9956 8.78263 58.0494 8.89798 58.1249C9.00298 58.2329 9.29098 58.1559 9.25598 58.0099C9.25162 57.9365 9.24159 57.8636 9.22598 57.7919C9.18814 57.7049 9.13023 57.6281 9.05698 57.5679C8.85782 57.4112 8.62018 57.311 8.36898 57.2779C7.86078 57.1721 7.33173 57.2427 6.86898 57.4779C6.71898 57.5779 6.65398 57.7099 6.71598 57.8479C6.74623 57.9 6.79015 57.9429 6.84298 57.9719Z" fill="#41231B"/>
<path d="M14.835 58.0991C15.0302 57.9844 15.2358 57.8887 15.449 57.8131C15.6445 57.7494 15.8453 57.7036 16.049 57.6761C16.2381 57.6521 16.4292 57.6487 16.619 57.6661C16.6991 57.6751 16.7782 57.6919 16.855 57.7161C16.979 57.7571 16.941 57.7691 17.073 57.8431C17.394 58.0221 17.908 57.8241 17.701 57.5071C17.39 57.0351 16.537 56.9881 15.978 57.0661C15.6915 57.102 15.4147 57.1934 15.163 57.3351C14.896 57.4911 14.604 57.6861 14.549 57.9591C14.526 58.0761 14.714 58.1591 14.833 58.0991" fill="#41231B"/>
<path d="M11.511 63.0351C11.5177 63.0473 11.5284 63.0571 11.5412 63.0627C11.554 63.0684 11.5684 63.0696 11.582 63.0663C11.5956 63.063 11.6078 63.0554 11.6167 63.0445C11.6255 63.0336 11.6305 63.0201 11.631 63.0061C11.634 62.9411 11.655 62.8721 11.66 62.8001C11.667 62.7121 11.67 62.6331 11.747 62.5781C11.924 62.4511 12.163 62.4371 12.33 62.3001C12.497 62.1631 12.322 61.9481 12.152 61.9721C12.0208 62.0051 11.8959 62.0592 11.782 62.1321C11.6614 62.1966 11.5584 62.2897 11.482 62.4031C11.421 62.5006 11.3904 62.6141 11.394 62.7291C11.3931 62.7928 11.405 62.856 11.429 62.9151C11.4504 62.9591 11.478 62.9998 11.511 63.0361" fill="#41231B"/>
<path d="M7.57299 59.3591C7.80052 59.2441 8.06006 59.2089 8.30999 59.2591L8.37399 59.2791C9.00199 59.1451 9.28199 60.0571 9.29399 60.5361C9.34857 60.8396 9.30201 61.1528 9.16147 61.4273C9.02093 61.7019 8.79417 61.9228 8.51599 62.0561C8.19918 62.1183 7.87057 62.0579 7.59658 61.8871C7.32258 61.7163 7.12365 61.4479 7.03999 61.1361C6.98846 60.9765 6.9628 60.8097 6.96399 60.6421C6.92709 60.3919 6.96527 60.1365 7.07368 59.9081C7.1821 59.6797 7.35588 59.4886 7.57299 59.3591Z" fill="#41231B"/>
<path d="M8.20901 60.3892C8.24388 60.4245 8.28539 60.4524 8.33113 60.4715C8.37687 60.4906 8.42595 60.5004 8.47551 60.5004C8.52508 60.5004 8.57415 60.4906 8.61989 60.4715C8.66563 60.4524 8.70714 60.4245 8.74201 60.3892C8.7951 60.3363 8.83133 60.2688 8.84614 60.1953C8.86094 60.1218 8.85367 60.0455 8.82523 59.9761C8.79679 59.9067 8.74846 59.8473 8.68631 59.8053C8.62417 59.7634 8.551 59.7407 8.47601 59.7402C8.37584 59.7405 8.27985 59.7804 8.20901 59.8512C8.17364 59.8865 8.14557 59.9285 8.12642 59.9746C8.10727 60.0208 8.09741 60.0703 8.09741 60.1202C8.09741 60.1702 8.10727 60.2197 8.12642 60.2658C8.14557 60.312 8.17364 60.3539 8.20901 60.3892Z" fill="#FFFFFE"/>
<path d="M16.7191 59.3879C16.4802 59.2483 16.1977 59.203 15.9271 59.2609C15.9061 59.2659 15.8851 59.2719 15.8651 59.2789C15.2371 59.1449 14.9561 60.0569 14.9431 60.5349C14.8889 60.8386 14.9358 61.1517 15.0764 61.4262C15.2171 61.7007 15.4439 61.9216 15.7221 62.0549C16.0389 62.1172 16.3675 62.0568 16.6415 61.886C16.9155 61.7152 17.1144 61.4468 17.1981 61.1349C17.2497 60.9641 17.2753 60.7864 17.2741 60.6079C17.2951 59.7749 17.0031 59.5489 16.7191 59.3879Z" fill="#41231B"/>
<path d="M16.676 60.46C16.6228 60.5131 16.5551 60.5492 16.4814 60.5638C16.4077 60.5784 16.3314 60.5708 16.262 60.542C16.1926 60.5132 16.1333 60.4645 16.0916 60.4021C16.0499 60.3396 16.0276 60.2662 16.0276 60.191C16.0276 60.1159 16.0499 60.0425 16.0916 59.98C16.1333 59.9175 16.1926 59.8688 16.262 59.84C16.3314 59.8113 16.4077 59.8037 16.4814 59.8183C16.5551 59.8329 16.6228 59.869 16.676 59.922C16.7465 59.9938 16.786 60.0904 16.786 60.191C16.786 60.2916 16.7465 60.3882 16.676 60.46Z" fill="#FFFFFE"/>
<path d="M7.35399 64.1759C8.28599 64.1759 9.04599 63.9029 9.04599 63.5679C9.04599 63.2329 8.28599 62.9609 7.35399 62.9609C6.42199 62.9609 5.66199 63.2339 5.66199 63.5679C5.66199 63.9019 6.42199 64.1759 7.35399 64.1759Z" fill="#D66051"/>
<path d="M16.885 64.1759C17.817 64.1759 18.577 63.9029 18.577 63.5679C18.577 63.2329 17.817 62.9609 16.885 62.9609C15.953 62.9609 15.193 63.2339 15.193 63.5679C15.193 63.9019 15.954 64.1759 16.885 64.1759Z" fill="#D66051"/>
<path d="M9.53303 64.8852C9.53303 64.8852 14.407 64.6542 15.289 64.9972C16.171 65.3402 14.819 68.1862 11.845 67.9742C8.87103 67.7622 7.93603 64.9632 9.53303 64.8852Z" fill="#FFFFFE"/>
<path d="M20.399 91.061C20.399 91.061 20.03 91.627 19.898 91.85C19.898 92.115 19.782 92.644 19.888 92.583C19.939 92.553 20.155 92.536 20.243 92.026C20.2879 92.2091 20.3615 92.3839 20.461 92.544C20.1936 92.864 19.9591 93.2101 19.761 93.577C19.753 93.737 19.88 93.784 20.049 93.683C20.218 93.582 20.349 93.495 20.349 93.495C20.4259 93.5232 20.5087 93.5312 20.5896 93.5183C20.6705 93.5053 20.7467 93.4718 20.811 93.421C21.225 93.084 21.961 93.106 21.885 92.161C21.861 91.877 21.625 91.507 21.63 91.369L20.399 91.061Z" fill="#FFDDB8"/>
<path d="M20.399 91.061C20.1434 91.2272 19.95 91.4734 19.849 91.761C19.8314 91.9858 19.7979 92.209 19.749 92.429C19.701 92.608 19.716 92.911 19.971 92.687C20.1271 92.4997 20.2221 92.269 20.243 92.026C20.2892 92.2097 20.3641 92.3848 20.465 92.545C20.1977 92.865 19.9632 93.2111 19.765 93.578C19.757 93.738 19.884 93.785 20.053 93.684C20.222 93.583 20.353 93.496 20.353 93.496C20.4307 93.5183 20.5122 93.5231 20.5919 93.5101C20.6716 93.4971 20.7475 93.4667 20.814 93.421C21.383 93.037 21.589 93.287 21.859 92.61C21.77 92.647 21.584 92.851 21.318 92.634C21.184 92.6318 21.0503 92.6197 20.918 92.598C20.587 92.493 20.462 91.872 20.455 91.605C20.4745 91.4246 20.5587 91.2572 20.692 91.134L20.399 91.061Z" fill="#FFDDB8"/>
<path d="M20.3791 91.138C20.7884 91.217 21.1922 91.3222 21.5881 91.453C21.5881 91.453 21.7041 91.508 21.7811 91.359C21.8581 91.21 22.0061 90.895 21.9071 90.8C21.4574 90.6061 20.985 90.47 20.5011 90.395C20.3791 90.424 20.2761 90.867 20.2701 90.955C20.2641 90.9934 20.2717 91.0327 20.2916 91.0662C20.3115 91.0996 20.3424 91.125 20.3791 91.138Z" fill="#BF3634"/>
<path d="M21.118 58.951C21.118 58.951 22.633 58.442 23.192 59.46C23.751 60.478 22.474 63.688 20.932 62.243C19.39 60.798 21.118 58.951 21.118 58.951Z" fill="#FFDDB8"/>
<path d="M3.65698 58.8199C3.34198 58.6419 1.49498 58.1859 1.35898 59.3069C1.22298 60.4279 1.48598 62.0139 2.22398 62.3309C2.96198 62.6479 5.12398 61.6929 3.66098 58.8189" fill="#FFDDB8"/>
<path d="M12.088 53.8412C9.21904 53.9002 6.35604 53.3122 5.17704 55.3182C4.0312 57.1305 3.48311 59.2568 3.61004 61.3972C3.61004 61.3972 3.38304 61.4522 3.29804 61.1272C3.21304 60.8022 2.79404 58.6462 2.34504 58.5792C2.02604 50.9202 3.93104 48.7152 6.95204 47.9872C9.97304 47.2592 8.02904 47.7452 8.53104 47.6532C10.0258 49.5221 11.2254 51.609 12.088 53.8412Z" fill="#41231B"/>
<path d="M7.55595 43C7.55595 43 2.43195 49.839 8.90695 53.2C12.463 55.045 17.607 52.48 19.275 55.32C20.4215 57.1324 20.9699 59.2591 20.843 61.4C20.843 61.4 21.071 61.455 21.156 61.13C21.241 60.805 21.656 58.9 22.106 58.83C22.106 58.83 23.266 48.47 17.777 47.148C12.288 45.826 9.04195 45.875 7.55595 43Z" fill="#562A1F"/>
<path d="M14.3061 71.728C14.0691 72.0941 13.7452 72.3957 13.3632 72.606C12.9812 72.8163 12.5531 72.9287 12.1171 72.933C11.6819 72.9277 11.2548 72.815 10.8738 72.6047C10.4927 72.3945 10.1696 72.0933 9.93306 71.728C5.92706 71.764 6.12906 77.915 6.12906 77.915C6.12906 77.915 5.81706 85.976 5.55906 87.498C5.46965 87.9102 5.4946 88.339 5.63119 88.738C5.76778 89.137 6.01083 89.4911 6.33406 89.762C8.06306 91.352 16.1761 91.352 17.9061 89.762C18.2291 89.491 18.472 89.1369 18.6086 88.7379C18.7452 88.3389 18.7702 87.9102 18.6811 87.498C18.4221 85.976 18.1101 77.916 18.1101 77.916C18.1101 77.916 18.3121 71.764 14.3061 71.728Z" fill="#196597"/>
<path d="M13.868 72.588C14.8263 72.846 15.6975 73.3572 16.39 74.068C18.09 75.484 18.152 78.963 18.152 78.963C18.7152 79.574 19.1883 80.2623 19.557 81.007C19.5916 81.0369 19.6358 81.0534 19.6815 81.0534C19.7273 81.0534 19.7715 81.0369 19.806 81.007C20.232 80.437 21.937 79.973 22.006 79.787C22.0495 79.6753 22.053 79.552 22.016 79.438C21.337 75.995 18.08 71.901 14.458 71.668C14.2776 71.9847 14.0806 72.2918 13.868 72.588" fill="#FFFFFE"/>
<path d="M14.365 71.5491C14.1145 71.9201 13.7812 72.2278 13.3914 72.448C13.0017 72.6682 12.5661 72.7949 12.119 72.8181C11.6965 72.811 11.2831 72.694 10.9196 72.4785C10.5561 72.2629 10.255 71.9564 10.046 71.5891C9.79983 71.564 9.55121 71.5983 9.32101 71.6891C9.12101 71.8291 9.95601 73.1591 11.267 73.4091C11.9964 73.5853 12.7633 73.518 13.4509 73.2176C14.1384 72.9172 14.7088 72.4 15.075 71.7451C15.075 71.7451 14.492 71.3141 14.365 71.5491Z" fill="#FFFFFE"/>
<path d="M3.83694 91.061C3.83694 91.061 4.20694 91.627 4.33694 91.85C4.33694 92.115 4.45294 92.644 4.34694 92.583C4.29594 92.553 4.07894 92.536 3.99094 92.026C3.94482 92.2097 3.8699 92.3848 3.76894 92.545C4.03632 92.865 4.27083 93.2111 4.46894 93.578C4.47694 93.738 4.34994 93.785 4.18094 93.684C4.01194 93.583 3.88094 93.496 3.88094 93.496C3.80492 93.5228 3.72336 93.53 3.64382 93.5169C3.56429 93.5038 3.48935 93.4708 3.42594 93.421C3.01194 93.084 2.27194 93.106 2.35194 92.161C2.37494 91.877 2.61194 91.507 2.60594 91.369L3.83694 91.061Z" fill="#FFDDB8"/>
<path d="M3.83798 91.061C4.09361 91.2272 4.28701 91.4734 4.38798 91.761C4.40594 91.9857 4.43935 92.2089 4.48798 92.429C4.53498 92.608 4.52198 92.911 4.26598 92.687C4.10989 92.4997 4.01496 92.269 3.99398 92.026C3.94787 92.2097 3.87294 92.3848 3.77198 92.545C4.03936 92.865 4.27387 93.2111 4.47198 93.578C4.47998 93.738 4.35298 93.785 4.18398 93.684C4.01498 93.583 3.88398 93.496 3.88398 93.496C3.80636 93.5183 3.72479 93.5231 3.64509 93.5101C3.5654 93.4971 3.48955 93.4667 3.42298 93.421C2.85798 93.037 2.65198 93.286 2.38098 92.61C2.46998 92.647 2.65598 92.851 2.92198 92.634C3.05601 92.6317 3.1897 92.6197 3.32198 92.598C3.65398 92.493 3.77998 91.872 3.78598 91.605C3.76536 91.4238 3.67931 91.2563 3.54398 91.134L3.83798 91.061Z" fill="#FFDDB8"/>
<path d="M3.85702 91.138C3.44804 91.2171 3.04454 91.3223 2.64902 91.453C2.64902 91.453 2.53202 91.508 2.45502 91.359C2.37802 91.21 2.23002 90.895 2.32902 90.8C2.77868 90.6061 3.25112 90.47 3.73502 90.395C3.85702 90.423 3.96002 90.865 3.96502 90.953C3.971 90.9914 3.96338 91.0307 3.94348 91.0642C3.92359 91.0976 3.89265 91.123 3.85602 91.136" fill="#BF3634"/>
<path d="M10.368 72.588C9.40974 72.846 8.5386 73.3572 7.84602 74.068C6.14602 75.484 6.08502 78.963 6.08502 78.963C5.52122 79.5739 5.04745 80.2622 4.67802 81.007C4.64346 81.0369 4.59926 81.0534 4.55352 81.0534C4.50778 81.0534 4.46357 81.0369 4.42902 81.007C4.00302 80.437 2.29802 79.968 2.22502 79.787C2.18156 79.6753 2.17768 79.5521 2.21402 79.438C2.89902 75.995 6.15602 71.901 9.77802 71.668C9.95847 71.9847 10.1554 72.2918 10.368 72.588Z" fill="#FFFFFE"/>
</g>
<defs>
<clipPath id="clip0">
<rect width="75.684" height="115.791" fill="white"/>
</clipPath>
</defs>
</svg>
