<svg width="66" height="122" viewBox="0 0 66 122" fill="none" xmlns="http://www.w3.org/2000/svg">
<g clip-path="url(#clip0)">
<path d="M52.116 121.657C59.216 121.657 64.999 120.696 64.999 119.519C64.999 118.342 59.212 117.381 52.116 117.381C45.02 117.381 39.234 118.341 39.234 119.519C39.234 120.697 45.021 121.657 52.116 121.657Z" fill="#A8ACA9"/>
<path d="M65.676 20.7579V33.6059C65.6699 35.3849 64.9601 37.0893 63.7016 38.3467C62.443 39.6041 60.738 40.3124 58.959 40.3169H45.492C40.242 40.3169 38.776 36.1569 38.776 31.7999V24.8999C38.776 16.3729 38.898 8.02188 49.702 6.20988C57.153 4.95888 65.676 9.29988 65.676 19.2459V20.7579Z" fill="#562B20"/>
<path d="M55.246 115.273L54.407 113.385C54.407 113.385 54.546 109.925 54.376 107.685C54.206 105.445 53.585 80.7021 53.619 79.2341C53.653 77.7661 59.441 77.3101 59.441 77.3101L58.747 78.5601C58.747 78.5601 56.339 111.225 56.491 113.441C56.643 115.657 55.246 115.272 55.246 115.272" fill="#FFDDB8"/>
<path d="M56.494 113.441C56.6067 113.919 56.8915 114.339 57.294 114.621C58.624 115.315 59.9929 115.932 61.394 116.469C62.394 116.969 63.289 118.34 62.264 119.018C61.239 119.696 56.695 119.567 54.843 118.306C52.991 117.045 54.094 114.866 54.336 113.617C54.578 112.368 56.47 112.7 56.494 113.441Z" fill="#FFDDB8"/>
<path d="M60.767 116.183C61.01 116.283 61.226 116.383 61.402 116.469C62.402 116.969 63.297 118.34 62.272 119.018C61.247 119.696 56.703 119.567 54.851 118.306C53.594 117.454 53.694 116.176 53.964 115.054C54.056 116.179 57.226 117.603 59.476 117.411C61.726 117.219 60.77 116.187 60.767 116.183Z" fill="#BF3733"/>
<path d="M49.059 115.273L49.898 113.386C49.898 113.386 49.76 109.926 49.929 107.686C50.098 105.446 50.721 80.7021 50.685 79.2341C50.649 77.7661 44.864 77.3101 44.864 77.3101L45.558 78.5601C45.558 78.5601 47.964 111.225 47.815 113.441C47.666 115.657 49.059 115.272 49.059 115.272" fill="#FFDDB8"/>
<path d="M47.814 113.441C47.6988 113.92 47.4107 114.34 47.005 114.62C45.6751 115.314 44.3061 115.931 42.905 116.468C41.905 116.968 41.01 118.339 42.035 119.017C43.06 119.695 47.603 119.566 49.456 118.305C51.309 117.044 50.21 114.865 49.97 113.616C49.73 112.367 47.833 112.7 47.814 113.441Z" fill="#FFDDB8"/>
<path d="M43.537 116.183C43.294 116.283 43.077 116.383 42.902 116.469C41.902 116.969 41.007 118.34 42.032 119.018C43.057 119.696 47.6 119.567 49.453 118.306C50.709 117.454 50.609 116.176 50.34 115.054C50.248 116.179 47.08 117.603 44.828 117.411C42.576 117.219 43.534 116.187 43.537 116.183Z" fill="#BF3733"/>
<path d="M49.025 36.834C49.025 36.834 44.389 36.824 43.686 38.004C43.1347 39.1282 42.9813 40.4063 43.251 41.629C43.251 41.629 45.587 41.912 46.208 42.729C46.116 43.3771 46.2168 44.0379 46.498 44.629C46.498 44.629 44.947 55.479 44.12 57.009C42.0564 61.3009 41.1112 66.0449 41.372 70.8C41.894 77.044 42.259 84.542 42.589 85.606C42.919 86.67 51.771 86.537 52.227 86.537C52.683 86.537 61.533 86.671 61.864 85.606C62.195 84.541 61.926 79.351 62.764 72.006C63.3369 66.8782 62.4977 61.6914 60.337 57.006C59.509 55.476 57.959 44.619 57.959 44.619C58.2395 44.0277 58.34 43.367 58.248 42.719C58.869 41.904 61.205 41.619 61.205 41.619C61.4744 40.3963 61.3214 39.1185 60.771 37.994C60.064 36.824 55.887 36.957 55.887 36.957L52.227 38.957L49.025 36.834Z" fill="#FFFFFE"/>
<path d="M44.12 57.0088C42.0564 61.3007 41.1112 66.0447 41.372 70.7998C41.894 77.0438 42.259 84.5418 42.589 85.6088C42.919 86.6758 51.771 86.5398 52.227 86.5398C52.683 86.5398 61.533 86.6738 61.864 85.6088C62.195 84.5438 61.926 79.3538 62.764 72.0088C63.336 66.8808 62.4957 61.694 60.334 57.0088H44.12Z" fill="#562B20"/>
<path d="M46.208 42.7261C46.116 43.3741 46.2169 44.035 46.498 44.6261H57.956C58.2365 44.0347 58.337 43.374 58.245 42.7261H46.208Z" fill="#EFE7E0"/>
<path d="M49.6139 34.2428L49.6339 34.9228C49.6451 35.9857 49.5377 37.0466 49.3139 38.0858C48.9709 39.3988 50.7659 39.9278 52.1249 39.9278C53.4839 39.9278 55.0969 39.3978 55.1889 39.0988C55.2809 38.7998 55.5809 37.5328 55.5809 37.5328C55.2365 36.309 55.0276 35.0512 54.9579 33.7818C55.0269 32.5848 49.6139 34.2428 49.6139 34.2428Z" fill="#FFDDB8"/>
<path d="M52.227 9.22607C54.8035 9.2324 57.2727 10.2581 59.0952 12.0792C60.9178 13.9003 61.9456 16.3686 61.954 18.9451V25.5331C61.954 28.113 60.9292 30.5872 59.1049 32.4115C57.2806 34.2357 54.8064 35.2606 52.2265 35.2606C49.6466 35.2606 47.1724 34.2357 45.3481 32.4115C43.5239 30.5872 42.499 28.113 42.499 25.5331V18.9451C42.5077 16.3686 43.5357 13.9002 45.3585 12.0791C47.1812 10.2581 49.6505 9.2324 52.227 9.22607" fill="#FFDDB8"/>
<path d="M46.106 21.0158C46.1791 21.0543 46.2592 21.0776 46.3415 21.0843C46.4239 21.091 46.5067 21.081 46.585 21.0548C46.9063 20.9441 47.2456 20.8956 47.585 20.9118C47.7425 20.9266 47.8976 20.9601 48.047 21.0118C48.204 21.0454 48.3534 21.1075 48.488 21.1948C48.611 21.3198 48.944 21.2308 48.903 21.0618C48.8978 20.9776 48.8854 20.894 48.866 20.8118C48.8211 20.711 48.7525 20.6225 48.666 20.5538C48.4341 20.3728 48.1578 20.2575 47.866 20.2198C47.2803 20.0996 46.6712 20.1803 46.137 20.4488C45.967 20.5628 45.892 20.7158 45.964 20.8698C45.9974 20.9304 46.0464 20.9808 46.106 21.0158Z" fill="#41231B"/>
<path d="M55.376 21.1611C55.6034 21.0296 55.8424 20.9195 56.09 20.8321C56.3181 20.7588 56.5524 20.7063 56.79 20.6751C57.0073 20.648 57.2269 20.6444 57.445 20.6641C57.5376 20.6747 57.6291 20.6941 57.718 20.7221C57.862 20.7701 57.818 20.7831 57.971 20.8691C58.344 21.0751 58.939 20.8471 58.699 20.4821C58.339 19.9331 57.349 19.8821 56.699 19.9731C56.3682 20.0138 56.0483 20.1181 55.757 20.2801C55.445 20.4621 55.109 20.6861 55.045 21.0001C55.018 21.1351 55.237 21.2311 55.374 21.1611" fill="#41231B"/>
<path d="M51.521 26.8437C51.5292 26.8573 51.5416 26.868 51.5562 26.8741C51.5709 26.8803 51.5871 26.8816 51.6026 26.8779C51.618 26.8743 51.6319 26.8658 51.6423 26.8537C51.6526 26.8416 51.6588 26.8266 51.66 26.8107C51.66 26.7357 51.688 26.6507 51.694 26.5727C51.702 26.4727 51.706 26.3807 51.795 26.3207C52.001 26.1717 52.277 26.1557 52.471 25.9977C52.665 25.8397 52.462 25.5937 52.265 25.6207C52.1133 25.6594 51.9688 25.7222 51.837 25.8067C51.6985 25.8818 51.5804 25.9896 51.493 26.1207C51.4221 26.2314 51.3846 26.3602 51.385 26.4917C51.3845 26.565 51.3985 26.6377 51.426 26.7057C51.4528 26.7561 51.4865 26.8025 51.526 26.8437" fill="#41231B"/>
<path d="M45.737 23.36C45.792 23.338 45.804 23.351 45.858 23.35C45.922 23.3519 45.9859 23.3582 46.049 23.369C46.1418 23.3871 46.2357 23.3991 46.33 23.405C46.3584 23.2895 46.4004 23.1777 46.455 23.072C46.43 23.064 46.406 23.055 46.381 23.045C46.2662 22.9981 46.161 22.9303 46.071 22.845C46.002 22.775 45.887 22.635 45.922 22.53C46.006 22.277 46.238 22.537 46.342 22.63C46.4396 22.715 46.5605 22.7687 46.689 22.784H46.695C46.8475 22.6562 47.0268 22.5643 47.2197 22.5151C47.4125 22.466 47.6139 22.4608 47.809 22.5C47.833 22.505 47.858 22.513 47.882 22.52C48.61 22.366 48.936 23.42 48.949 23.968C49.0121 24.3181 48.9581 24.6791 48.7954 24.9954C48.6327 25.3118 48.3704 25.5657 48.049 25.718C47.6812 25.792 47.299 25.7235 46.9799 25.5263C46.6607 25.3291 46.4284 25.018 46.33 24.656C46.2473 24.3794 46.2238 24.0884 46.261 23.802C46.1608 23.8105 46.06 23.8058 45.961 23.788C45.8909 23.782 45.8243 23.7548 45.77 23.71L45.678 23.622C45.6588 23.6032 45.6448 23.5797 45.6372 23.5539C45.6296 23.5281 45.6287 23.5008 45.6346 23.4746C45.6405 23.4484 45.653 23.4241 45.6709 23.404C45.6889 23.384 45.7116 23.3688 45.737 23.36Z" fill="#41231B"/>
<path d="M47.689 23.7978C47.7605 23.8693 47.8546 23.9137 47.9552 23.9237C48.0558 23.9336 48.1568 23.9083 48.2408 23.8521C48.3249 23.7959 48.3869 23.7124 48.4162 23.6156C48.4456 23.5189 48.4405 23.4149 48.4018 23.3215C48.3631 23.2281 48.2932 23.151 48.204 23.1034C48.1149 23.0557 48.0119 23.0404 47.9128 23.0602C47.8136 23.0799 47.7244 23.1334 47.6602 23.2115C47.5961 23.2897 47.561 23.3877 47.561 23.4888C47.5614 23.6046 47.6074 23.7156 47.689 23.7978Z" fill="#FFFFFE"/>
<path d="M58.716 23.3599C58.66 23.3379 58.649 23.3509 58.595 23.3499C58.5303 23.3516 58.4658 23.358 58.402 23.3689C58.3092 23.3869 58.2154 23.399 58.121 23.4049C58.0947 23.2896 58.0548 23.1778 58.002 23.0719C58.027 23.0639 58.051 23.0549 58.075 23.0449C58.19 22.9983 58.2951 22.9305 58.385 22.8449C58.455 22.7779 58.569 22.6389 58.534 22.5329C58.45 22.2799 58.219 22.5399 58.114 22.6329C58.0162 22.7182 57.8949 22.7718 57.766 22.7869H57.761C57.6083 22.6579 57.4285 22.5651 57.2349 22.5154C57.0413 22.4657 56.839 22.4604 56.643 22.4999C56.619 22.5049 56.595 22.5129 56.571 22.5199C55.842 22.3659 55.517 23.4159 55.502 23.9679C55.4384 24.3186 55.492 24.6804 55.6547 24.9975C55.8174 25.3145 56.0801 25.5692 56.402 25.7219C56.7699 25.7952 57.1519 25.7258 57.4706 25.5279C57.7892 25.3299 58.0207 25.0182 58.118 24.6559C58.2027 24.3793 58.2276 24.0879 58.191 23.8009C58.2912 23.8097 58.3921 23.805 58.491 23.7869C58.5603 23.7809 58.6262 23.7541 58.68 23.7099L58.775 23.6219C58.7945 23.6032 58.8088 23.5798 58.8165 23.5539C58.8243 23.5281 58.8253 23.5007 58.8193 23.4743C58.8134 23.448 58.8008 23.4236 58.7827 23.4036C58.7646 23.3835 58.7416 23.3685 58.716 23.3599Z" fill="#41231B"/>
<path d="M57.511 23.8799C57.428 23.957 57.3182 23.9989 57.2049 23.9968C57.0916 23.9947 56.9835 23.9488 56.9033 23.8686C56.8232 23.7885 56.7772 23.6804 56.7751 23.567C56.773 23.4537 56.8149 23.3439 56.892 23.2609C56.9741 23.1787 57.0855 23.1324 57.2017 23.1323C57.3179 23.1322 57.4293 23.1783 57.5115 23.2604C57.5938 23.3425 57.64 23.4538 57.6401 23.57C57.6402 23.6862 57.5941 23.7977 57.512 23.8799" fill="#FFFFFE"/>
<path d="M46.6991 28.1588C47.7801 28.1588 48.6611 27.8448 48.6611 27.4588C48.6611 27.0728 47.7801 26.7588 46.6991 26.7588C45.6181 26.7588 44.7371 27.0728 44.7371 27.4588C44.7371 27.8448 45.6181 28.1588 46.6991 28.1588Z" fill="#D76051"/>
<path d="M57.753 28.1588C58.834 28.1588 59.716 27.8448 59.716 27.4588C59.716 27.0728 58.835 26.7588 57.753 26.7588C56.671 26.7588 55.791 27.0728 55.791 27.4588C55.791 27.8448 56.673 28.1588 57.753 28.1588Z" fill="#D76051"/>
<path d="M46.269 19.7207L41.924 17.5957L41.252 23.4867H42.499C42.5024 22.4883 42.9008 21.5318 43.6072 20.8261C44.3136 20.1205 45.2705 19.7231 46.269 19.7207Z" fill="#562B20"/>
<path d="M49.517 29.334C49.517 29.334 54.63 29.094 55.557 29.455C56.484 29.816 55.062 32.775 51.943 32.555C48.824 32.335 47.842 29.416 49.517 29.334Z" fill="#FFFFFE"/>
<path d="M50.119 36.5018C50.119 36.5018 50.536 38.5818 52.236 38.4508C52.7914 38.3636 53.3145 38.1333 53.7538 37.7827C54.1932 37.432 54.5338 36.973 54.742 36.4508C54.992 36.0998 56.233 36.9158 56.274 37.3978C56.315 37.8798 55.059 41.0348 54.143 41.0128C53.227 40.9908 52.81 40.2028 52.393 40.0488C51.976 39.8948 51.479 40.7068 50.748 41.0588C50.017 41.4108 48.525 37.7748 48.692 37.3808C48.859 36.9868 49.764 35.7368 50.119 36.5018Z" fill="#DBD2C9"/>
<path d="M41.875 19.1359L45.581 19.7249H52.507C53.864 19.7249 59.007 19.6819 59.007 14.0919V10.2319L50.459 7.0249C48.9759 7.97632 47.5426 9.00334 46.165 10.1019C45.991 10.4489 41.654 13.7419 41.48 14.5649C41.306 15.3879 40.68 16.8219 40.96 17.2089C41.303 17.8323 41.6082 18.4758 41.874 19.1359" fill="#562B20"/>
<path d="M65.077 20.0288C62.79 19.8718 58.614 18.9508 58.614 13.5208V9.04379L59.587 8.88379C60.561 9.82279 62.44 11.6758 62.44 12.0118C62.44 12.4648 64.865 17.9168 64.756 18.9538C64.7649 19.3339 64.8753 19.7048 65.076 20.0278" fill="#562B20"/>
<path d="M47.377 64.5021C48.0608 63.1677 49.1126 62.0572 50.408 61.3021C51.866 60.7021 53.766 60.3881 54.688 61.0601C55.663 61.9407 56.2605 63.1637 56.356 64.4741C56.299 65.3601 55.556 64.9021 55.412 64.3891C55.268 63.8761 54.658 61.9541 53.835 61.6571C53.012 61.3601 50.373 61.6421 49.894 62.4241C49.5085 63.179 49.046 63.8921 48.514 64.5521C48.199 64.7661 47.255 65.0231 47.377 64.5021Z" fill="#8F2429"/>
<path d="M61.202 41.6289C61.22 41.6419 62.215 44.7909 63.002 48.0559C63.672 50.8249 64.125 50.6859 63.031 52.6389C61.222 55.8709 57.901 60.2759 57.237 60.5389C56.573 60.8019 55.908 60.6619 56.215 59.9549C56.522 59.2479 59.845 54.6819 61.183 51.2429C61.123 51.0176 61.0564 50.8042 60.983 50.6029C60.262 48.6249 59.083 46.0029 58.183 44.0659C58.2761 43.6265 58.2953 43.1746 58.24 42.7289C58.865 41.9119 61.202 41.6289 61.202 41.6289Z" fill="#FFDDB8"/>
<path d="M49.324 61.1278L49.318 61.1188L49.309 61.1098L49.295 61.0948C49.3798 61.3561 49.4223 61.6292 49.421 61.9038C50.0002 62.0856 50.5597 62.3252 51.091 62.6188C51.226 62.8088 51.104 62.9668 50.817 62.9738C50.53 62.9808 50.3 62.9738 50.3 62.9738C50.2269 63.0681 50.1309 63.1421 50.0211 63.1888C49.9114 63.2355 49.7916 63.2534 49.673 63.2408C48.673 63.2128 48.612 63.6798 47.753 63.0608H47.771C47.5818 62.9322 47.4396 62.7454 47.366 62.5288C47.0842 61.5667 46.7398 60.624 46.335 59.7068L47.903 59.3188L48.286 59.9258C48.755 59.9947 49.199 60.1808 49.577 60.4668C49.7749 60.7273 49.9907 60.9735 50.223 61.2038C50.423 61.3868 50.637 61.7688 50.148 61.6928C49.8223 61.5925 49.5349 61.3955 49.324 61.1278Z" fill="#FFDDB8"/>
<path d="M43.252 41.6289C43.234 41.6419 42.239 44.7909 41.449 48.0559C40.78 50.8289 40.327 50.6859 41.421 52.6389C43.23 55.8709 46.55 60.2759 47.215 60.5389C47.88 60.8019 48.543 60.6619 48.237 59.9549C47.931 59.2479 44.607 54.6819 43.269 51.2429C43.3297 51.0176 43.3963 50.8042 43.469 50.6029C44.191 48.6249 45.369 46.0029 46.269 44.0659C46.1748 43.6267 46.1546 43.1748 46.209 42.7289C45.588 41.9119 43.252 41.6289 43.252 41.6289Z" fill="#FFDDB8"/>
<path d="M55.13 61.1278L55.136 61.1188L55.145 61.1098L55.16 61.0938C55.0752 61.3551 55.0326 61.6282 55.034 61.9028C54.4544 62.0848 53.8946 62.3247 53.363 62.6188C53.228 62.8088 53.349 62.9668 53.636 62.9738C53.923 62.9808 54.153 62.9738 54.153 62.9738C54.2261 63.0681 54.3221 63.1421 54.4318 63.1888C54.5416 63.2355 54.6614 63.2534 54.78 63.2408C55.78 63.2128 55.842 63.6798 56.702 63.0608H56.684C56.871 62.931 57.0112 62.7445 57.084 62.5288C57.3674 61.5667 57.7131 60.624 58.119 59.7068L56.552 59.3188L56.168 59.9258C55.6987 59.9946 55.2543 60.1807 54.876 60.4668C54.6787 60.7274 54.4631 60.9737 54.231 61.2038C54.031 61.3868 53.816 61.7688 54.306 61.6928C54.6314 61.5925 54.9185 61.3955 55.129 61.1278" fill="#FFDDB8"/>
<path d="M49.671 61.7358V61.8598H50.679V61.1958C50.588 61.2308 50.496 61.2658 50.408 61.3028C50.1453 61.4159 49.8977 61.5614 49.671 61.7358" fill="#8F2429"/>
<path d="M55.0261 61.3611V61.7751H54.0541C53.9869 61.7258 53.9132 61.6861 53.8351 61.6571C53.7759 61.6359 53.7154 61.6185 53.6541 61.6051V60.7051C54.0235 60.7324 54.3797 60.8547 54.6881 61.0601C54.8098 61.1494 54.9229 61.2498 55.0261 61.3601" fill="#8F2429"/>
<path d="M44.769 73.774C43.955 73.358 44.254 71.88 44.259 71.011C44.1873 68.9105 44.225 66.8077 44.372 64.711C45.061 63.823 46.924 64.168 48.124 64.146C49.624 64.119 59.424 63.873 60.006 64.197C60.828 64.653 60.484 66.76 60.506 67.703C60.528 68.646 60.901 73.131 60.181 73.61C59.523 74.043 53.49 73.9 52.451 73.91C49.8899 74.0196 47.3246 73.9741 44.769 73.774Z" fill="#BF3733"/>
<path d="M19.3231 121.869C28.2291 121.869 35.4931 121.103 35.4931 120.163C35.4931 119.223 28.2291 118.456 19.3231 118.456C10.4171 118.456 3.15308 119.223 3.15308 120.163C3.15308 121.103 10.4171 121.869 19.3231 121.869Z" fill="#848988"/>
<path d="M15.011 33.0927C10.04 33.7057 3.73602 45.7417 1.68702 49.2227C-0.0489787 52.1747 -0.129979 52.2927 0.0850212 54.9927C0.441021 59.4657 1.18502 66.7567 1.69502 67.3267C2.20502 67.8967 3.94302 67.4937 3.48202 66.1987C3.02102 64.9037 2.72402 58.4087 2.88202 53.8797C3.02802 53.6417 1.93902 55.1197 3.32602 53.2157C4.71302 51.3117 10.233 44.3957 10.233 44.3957C9.56302 42.4567 16.728 32.8847 15.011 33.0927Z" fill="#16334A"/>
<path d="M24.06 33.27C28.566 34.341 31.44 44.154 34.294 52.182C35.439 55.402 35.859 55.134 35.132 57.751C33.932 62.079 31.945 68.723 31.341 69.188C31.1711 69.2908 30.9756 69.3434 30.777 69.3398C30.5785 69.3361 30.385 69.2763 30.219 69.1674C30.053 69.0584 29.9212 68.9046 29.8389 68.7239C29.7567 68.5431 29.7272 68.3428 29.754 68.146C29.929 67.218 32.376 60.935 33.078 56.457C32.978 56.196 32.878 55.95 32.767 55.722C30.874 51.694 27.176 45.462 27.176 45.462C27.176 45.462 21.96 33.318 24.06 33.27Z" fill="#16334A"/>
<path d="M24.874 114.561C25.0603 114.901 25.322 115.194 25.639 115.417C27.1059 116.13 28.6123 116.758 30.151 117.299C31.251 117.809 32.262 119.261 31.166 120.017C30.07 120.773 25.122 120.754 23.069 119.446C21.016 118.138 22.162 115.766 22.389 114.417C22.7242 114.722 23.1538 114.902 23.6061 114.929C24.0583 114.955 24.5059 114.825 24.874 114.561Z" fill="#562A1F"/>
<path d="M31.557 118.745C31.6563 118.968 31.6717 119.22 31.6004 119.453C31.5291 119.687 31.376 119.887 31.1691 120.017C30.069 120.772 25.122 120.754 23.069 119.445C22.6398 119.181 22.2981 118.796 22.0869 118.338C21.8757 117.88 21.8045 117.37 21.882 116.872C21.882 116.872 24.416 121.414 31.557 118.745Z" fill="#FFFFFE"/>
<path d="M14.05 114.666C13.8646 115.006 13.6035 115.299 13.287 115.522C11.8199 116.234 10.313 116.862 8.77401 117.402C7.67601 117.915 6.66201 119.367 7.75901 120.122C8.85601 120.877 13.803 120.858 15.852 119.55C17.901 118.242 16.764 115.871 16.536 114.522C16.2008 114.827 15.771 115.008 15.3185 115.034C14.866 115.06 14.4182 114.93 14.05 114.666Z" fill="#562A1F"/>
<path d="M7.36797 118.85C7.26902 119.074 7.2541 119.325 7.32593 119.559C7.39776 119.793 7.55153 119.993 7.75897 120.122C8.85897 120.879 13.803 120.859 15.852 119.55C16.2818 119.286 16.6241 118.901 16.836 118.443C17.0479 117.986 17.1199 117.476 17.043 116.977C17.043 116.977 14.509 121.519 7.36797 118.85Z" fill="#FFFFFE"/>
<path d="M19.617 66.0591L9.90798 66.8851C8.12998 67.0361 11.563 87.2401 11.915 89.2471C12.073 90.1531 13.415 114.299 14.022 114.847C14.629 115.395 15.722 115.959 16.472 115.075C17.222 114.191 16.766 83.2251 17.354 80.8221C18.27 77.0781 20.628 77.0781 21.544 80.8221C22.131 83.2221 21.672 114.189 22.427 115.075C23.182 115.961 24.268 115.392 24.877 114.847C25.486 114.302 26.825 90.1561 26.984 89.2471C27.335 87.2411 29.791 67.3801 28.019 67.1471L19.617 66.0591Z" fill="#16334A"/>
<path d="M15.988 30.2581L16.009 31.1351C16.0209 32.4994 15.9091 33.862 15.675 35.2061C15.313 36.8961 17.195 37.5781 18.618 37.5781C20.041 37.5781 21.73 36.8961 21.83 36.5061C21.93 36.1161 22.239 34.4901 22.239 34.4901C21.8765 32.9047 21.658 31.2898 21.586 29.6651C21.658 28.1241 15.986 30.2571 15.986 30.2571" fill="#FFDDB8"/>
<path d="M21.96 32.7861C20.835 36.2121 17.587 35.9061 16.093 32.9711C9.42401 33.0401 9.75901 44.8501 9.75901 44.8501C9.75901 44.8501 9.36501 62.2651 8.93401 65.1861C8.50301 68.1071 9.41201 68.4861 10.224 68.9411C13.747 70.2201 25.345 72.2961 28.224 69.2411C28.7827 68.6804 29.193 67.9895 29.418 67.2306C29.643 66.4717 29.6757 65.6688 29.513 64.8941C29.083 61.9711 28.291 44.6601 28.291 44.6601C28.291 44.6601 28.631 32.8541 21.96 32.7861Z" fill="#1A4A6F"/>
<path d="M21.96 32.7861C20.834 36.2121 17.586 35.9061 16.092 32.9711C15.3617 32.9709 14.6411 33.1386 13.986 33.4611H13.986C13.986 33.4611 18.596 52.4731 18.742 52.6061C18.888 52.7391 18.951 52.6161 18.951 52.6161C20.092 50.3171 24.039 33.3481 24.056 33.2721C23.4036 32.952 22.6866 32.7858 21.96 32.7861Z" fill="#F0E8E2"/>
<path d="M18.949 3.06012C22.1089 3.04995 25.1445 4.29054 27.3929 6.51097C29.6412 8.73141 30.9197 11.7513 30.949 14.9111V19.1711C30.949 22.3537 29.6847 25.406 27.4343 27.6564C25.1838 29.9068 22.1316 31.1711 18.949 31.1711C15.7664 31.1711 12.7141 29.9068 10.4637 27.6564C8.21326 25.406 6.94897 22.3537 6.94897 19.1711L6.94897 14.9111C6.97828 11.7513 8.2567 8.73141 10.5051 6.51097C12.7534 4.29054 15.789 3.04995 18.949 3.06012Z" fill="#FFDDB8"/>
<path d="M11.897 14.8101C11.9814 14.854 12.0738 14.8804 12.1686 14.888C12.2634 14.8956 12.3587 14.884 12.449 14.8541C12.82 14.7276 13.2115 14.672 13.603 14.6901C13.784 14.7064 13.9626 14.7437 14.135 14.8011C14.3158 14.8398 14.4882 14.9106 14.644 15.0101C14.786 15.1521 15.169 15.0511 15.123 14.8591C15.1176 14.7628 15.1039 14.6671 15.082 14.5731C15.031 14.4589 14.9535 14.3585 14.856 14.2801C14.589 14.0739 14.2717 13.9427 13.937 13.9001C13.2596 13.7621 12.5554 13.8551 11.937 14.1641C11.737 14.2941 11.65 14.4641 11.737 14.6481C11.7752 14.7152 11.8304 14.7711 11.897 14.8101Z" fill="#41231B"/>
<path d="M22.58 14.9738C22.8405 14.8237 23.1143 14.6982 23.398 14.5988C23.6588 14.5154 23.9265 14.4554 24.198 14.4198C24.4525 14.3879 24.7097 14.3839 24.965 14.4078C25.0716 14.4191 25.1767 14.4409 25.279 14.4728C25.445 14.5258 25.394 14.5428 25.571 14.6398C26.001 14.8748 26.687 14.6148 26.411 14.1998C25.998 13.5798 24.855 13.5178 24.108 13.6208C23.7257 13.6664 23.3557 13.7849 23.018 13.9698C22.661 14.1798 22.272 14.4328 22.198 14.7898C22.168 14.9438 22.419 15.0528 22.577 14.9738" fill="#41231B"/>
<path d="M18.1391 21.448C18.1484 21.4639 18.1625 21.4763 18.1795 21.4836C18.1964 21.4908 18.2152 21.4924 18.2331 21.4881C18.251 21.4839 18.2671 21.474 18.279 21.4599C18.2908 21.4459 18.2979 21.4283 18.2991 21.41C18.2991 21.324 18.3311 21.229 18.3371 21.139C18.3461 21.024 18.3511 20.92 18.4531 20.848C18.6901 20.683 19.0091 20.663 19.2331 20.484C19.4571 20.305 19.2221 20.024 18.9961 20.054C18.821 20.0974 18.6541 20.169 18.5021 20.266C18.3417 20.3498 18.2043 20.4717 18.1021 20.621C18.0207 20.7476 17.9786 20.8955 17.9811 21.046C17.9802 21.1293 17.9962 21.212 18.0281 21.289C18.0577 21.3464 18.095 21.3996 18.1391 21.447" fill="#41231B"/>
<path d="M12.874 16.6291C13.1794 16.4781 13.5261 16.4328 13.86 16.5001C13.889 16.5071 13.916 16.5141 13.944 16.5231C14.783 16.3471 15.16 17.5431 15.174 18.1671C15.2472 18.5686 15.1847 18.983 14.9964 19.3451C14.8081 19.7072 14.5047 19.9964 14.134 20.1671C13.7127 20.252 13.2749 20.1742 12.9086 19.9493C12.5424 19.7244 12.2749 19.3692 12.16 18.9551C12.0923 18.7472 12.0586 18.5297 12.06 18.3111C12.0116 17.9814 12.0633 17.6448 12.2084 17.3449C12.3536 17.045 12.5855 16.7956 12.874 16.6291Z" fill="#41231B"/>
<path d="M13.7221 17.9781C13.8175 18.0714 13.9456 18.1235 14.0791 18.1235C14.2125 18.1235 14.3406 18.0714 14.4361 17.9781C14.4829 17.9322 14.5201 17.8773 14.5455 17.8168C14.5709 17.7563 14.584 17.6913 14.584 17.6256C14.584 17.56 14.5709 17.495 14.5455 17.4345C14.5201 17.374 14.4829 17.3191 14.4361 17.2731C14.3408 17.1795 14.2126 17.127 14.0791 17.127C13.9455 17.127 13.8173 17.1795 13.7221 17.2731C13.6289 17.3668 13.5767 17.4935 13.5767 17.6256C13.5767 17.7577 13.6289 17.8845 13.7221 17.9781Z" fill="#FFFFFE"/>
<path d="M25.099 16.6661C24.7787 16.4824 24.402 16.4233 24.041 16.5001C24.013 16.5071 23.985 16.5141 23.957 16.5231C23.118 16.3471 22.742 17.5431 22.726 18.1721C22.6543 18.5728 22.7177 18.9859 22.9061 19.3468C23.0944 19.7076 23.3972 19.9958 23.767 20.1661C24.1877 20.2505 24.6248 20.1727 24.9906 19.9483C25.3563 19.7238 25.6237 19.3694 25.739 18.9561C25.8074 18.7322 25.8411 18.4991 25.839 18.2651C25.869 17.1731 25.479 16.8771 25.099 16.6661Z" fill="#41231B"/>
<path d="M25.04 18.0708C24.9449 18.1642 24.8168 18.2165 24.6835 18.2165C24.5502 18.2165 24.4222 18.1642 24.327 18.0708C24.2809 18.0249 24.2444 17.9704 24.2194 17.9103C24.1945 17.8502 24.1816 17.7858 24.1816 17.7208C24.1816 17.6558 24.1945 17.5914 24.2194 17.5313C24.2444 17.4712 24.2809 17.4167 24.327 17.3708C24.4222 17.2774 24.5502 17.2251 24.6835 17.2251C24.8168 17.2251 24.9449 17.2774 25.04 17.3708C25.0865 17.4165 25.1233 17.471 25.1485 17.5311C25.1737 17.5911 25.1867 17.6556 25.1867 17.7208C25.1867 17.7859 25.1737 17.8504 25.1485 17.9105C25.1233 17.9706 25.0865 18.0251 25.04 18.0708Z" fill="#FFFFFE"/>
<path d="M12.581 22.9431C13.826 22.9431 14.843 22.5851 14.843 22.1431C14.843 21.7011 13.826 21.3491 12.581 21.3491C11.336 21.3491 10.319 21.7071 10.319 22.1491C10.319 22.5911 11.335 22.9491 12.581 22.9491" fill="#D66051"/>
<path d="M25.3211 22.9431C26.5661 22.9431 27.5831 22.5851 27.5831 22.1431C27.5831 21.7011 26.5661 21.3491 25.3211 21.3491C24.0761 21.3491 23.0591 21.7071 23.0591 22.1491C23.0591 22.5911 24.0751 22.9491 25.3211 22.9491" fill="#D66051"/>
<path d="M15.495 23.8721C15.495 23.8721 22.008 23.5721 23.188 24.0181C24.368 24.4641 22.559 28.1991 18.588 27.9181C14.617 27.6371 13.363 23.9721 15.495 23.8721Z" fill="#FFFFFE"/>
<path d="M30.9751 16.0331C30.9751 16.0331 33.0051 15.3661 33.7511 16.6991C34.4971 18.0321 32.7911 22.2431 30.7311 20.3491C28.6711 18.4551 30.9751 16.0331 30.9751 16.0331Z" fill="#FFDDB8"/>
<path d="M7.63908 15.8607C7.22108 15.6267 4.75008 15.0297 4.56708 16.4987C4.38408 17.9677 4.73808 20.0477 5.72108 20.4647C6.70408 20.8817 9.59008 19.6267 7.63908 15.8607Z" fill="#FFDDB8"/>
<path d="M18.908 9.33415C15.074 9.41215 11.246 8.64015 9.67097 11.2711C8.13955 13.6358 7.40377 16.4279 7.57097 19.2401C7.57097 19.2401 7.27097 19.3121 7.15297 18.8861C7.03497 18.4601 6.48497 15.6331 5.88397 15.5451C5.45997 5.50515 8.00597 2.61415 12.038 1.66115C16.07 0.708147 13.482 1.34315 14.154 1.22515C15.718 2.71715 18.231 7.43615 18.908 9.33415Z" fill="#41231B"/>
<path d="M14.657 8.49093C19.41 10.9109 26.285 7.54693 28.515 11.2709C30.047 13.6353 30.7828 16.4276 30.615 19.2399C30.615 19.2399 30.92 19.3119 31.033 18.8859C31.146 18.4599 31.703 15.9619 32.304 15.8739C32.304 15.8739 33.855 2.29293 26.517 0.559926C20.727 -0.807074 -0.893018 -0.100074 13.053 7.64193C13.5483 7.91726 14.0816 8.20026 14.653 8.49093" fill="#562A1F"/>
<path d="M29.954 68.0881C29.642 68.4231 29.345 68.6421 28.985 68.9981C28.4565 69.4784 28.0013 70.0337 27.634 70.6461C27.6989 71.8546 28.0049 73.0378 28.534 74.1261C29.0787 73.6254 29.4597 72.9719 29.627 72.2511C29.927 71.3451 30.455 70.0021 30.817 69.0991C31.326 67.8321 30.265 67.7541 29.954 68.0881Z" fill="#FFDDB8"/>
<path d="M30.9801 16.0327L30.613 17.3157C30.251 23.9147 26.151 29.3697 18.951 29.3697V32.4697C18.951 32.4697 25.8151 32.7087 28.2681 31.0007C30.7211 29.2927 31.245 24.9237 31.205 22.3817C31.1868 20.7459 31.2553 19.1103 31.41 17.4817L30.9801 16.0327Z" fill="#562A1F"/>
<path d="M6.92007 16.0327L7.29207 17.3157C7.66007 23.9157 11.7521 29.3697 18.9541 29.3697V32.4697C18.9541 32.4697 12.0901 32.7087 9.63707 31.0007C7.18407 29.2927 6.65707 24.9217 6.69207 22.3787C6.71178 20.743 6.64502 19.1074 6.49207 17.4787L6.92007 16.0327Z" fill="#562A1F"/>
<path d="M18.9511 35.252C18.9511 35.252 19.8931 35.774 19.9511 36.142C20.0091 36.51 19.6591 37.214 19.4381 37.242C19.2171 37.27 18.5561 37.552 18.3541 37.104C18.1521 36.656 17.5911 35.952 17.7711 35.652C17.9511 35.352 18.9511 35.252 18.9511 35.252Z" fill="#BF3634"/>
<path d="M16.0251 32.6128C16.0251 32.6128 16.8461 34.8708 18.9511 34.9308C21.0561 34.8708 21.8771 32.6128 21.8771 32.6128C21.8771 32.6128 22.4321 32.8128 22.3981 33.1628C22.3641 33.5128 21.2511 36.6778 20.7081 36.6628C20.1651 36.6478 18.9511 35.6258 18.9511 35.6258C18.9511 35.6258 17.7381 36.6578 17.1951 36.6678C16.6521 36.6778 15.5411 33.5128 15.5031 33.1628C15.4651 32.8128 16.0251 32.6128 16.0251 32.6128Z" fill="#FFFFFE"/>
<path d="M25.071 33.9511C25.371 35.0671 26.286 38.7021 26.029 40.1391C25.723 41.8471 23.655 41.4891 23.535 42.3241C23.415 43.1591 24.299 43.2371 24.58 44.1111C24.861 44.9851 18.955 54.1621 18.955 54.1621C18.9094 54.1893 18.8586 54.2068 18.8059 54.2135C18.7533 54.2202 18.6998 54.2159 18.6488 54.201C18.5978 54.1861 18.5505 54.1608 18.5097 54.1267C18.469 54.0927 18.4357 54.0506 18.412 54.0031C18.212 53.6451 13.786 45.2841 13.586 44.6091C13.386 43.9341 15.19 43.0201 15.19 42.1461C15.19 41.2721 12.855 42.0271 12.616 41.6671C12.4 41.3491 12.821 35.4151 12.91 34.2011C13.2351 33.9053 13.5991 33.6553 13.992 33.4581H13.986C13.986 33.4581 18.597 52.4721 18.743 52.6071C18.889 52.7421 18.952 52.6171 18.952 52.6171C20.093 50.3181 24.039 33.3471 24.055 33.2671H24.048C24.4164 33.45 24.7596 33.6799 25.069 33.9511" fill="#196597"/>
<path d="M19.41 36.8569C19.41 36.8569 19.784 42.9049 20.239 48.5939C19.8991 49.9617 19.4685 51.3054 18.95 52.6159C18.95 52.6159 18.887 52.7409 18.741 52.6069C18.696 52.5649 18.212 50.6679 17.569 48.0829C17.979 42.8069 18.606 37.0259 18.606 37.0259L19.41 36.8569Z" fill="#BF3634"/>
<path d="M3.96497 67.3008C4.24997 67.7178 4.73697 68.4358 4.91397 68.7858C5.27597 69.5008 5.74197 69.9348 4.98697 70.7028C4.98697 70.7028 2.49597 71.7228 2.29497 70.1798C2.15797 69.1408 2.27797 67.7328 2.09397 66.7938C2.05597 66.5938 3.03997 65.6028 3.36397 66.2938C3.51417 66.6569 3.71664 66.9962 3.96497 67.3008Z" fill="#FFDDB8"/>
</g>
<defs>
<clipPath id="clip0">
<rect width="65.678" height="121.869" fill="white"/>
</clipPath>
</defs>
</svg>
