<svg width="141" height="129" viewBox="0 0 141 129" fill="none" xmlns="http://www.w3.org/2000/svg">
<g clip-path="url(#clip0)">
<path opacity="0.14" d="M70.5 120.415C30.3352 120.415 0.5 124.899 0.5 124.899C0.5 124.899 21.489 129.055 70.5 129.055C117.973 129.055 140.5 124.899 140.5 124.899C140.5 124.899 110.665 120.415 70.5 120.415Z" fill="#260F00"/>
<path d="M32.5335 80.1671C32.4785 80.0578 30.6104 77.9798 30.995 74.7534C31.3247 71.6364 33.5225 68.5741 37.4785 65.6211C47.6983 58.1294 46.5444 52.6063 46.5444 52.5516L47.1488 52.3876C47.2038 52.6063 48.4126 58.2935 37.8631 66.1133C34.017 68.9022 31.9291 71.8551 31.6543 74.8081C31.3247 77.8157 33.028 79.7297 33.028 79.7297L32.5335 80.1671Z" fill="#393E41"/>
<path d="M59.4561 42.9818L59.4011 42.8178L49.2913 40.3023L49.1814 40.521C49.0715 40.7944 46.1594 46.755 46.544 52.2781C44.7308 51.95 43.4671 49.6533 43.4671 49.5986L43.0825 48.8877L42.8627 49.6533C42.3682 51.5672 41.5989 52.7156 40.6649 52.9343C39.2913 53.2078 37.8077 51.4579 37.8077 51.4579L37.3132 51.8406C37.3682 51.95 39.0165 53.9186 40.7748 53.5359C41.8187 53.3171 42.6429 52.2781 43.2473 50.5282C43.7967 51.3485 45.0055 52.7156 46.5989 52.9343C46.5989 53.0437 46.5989 53.0984 46.6539 53.2078C46.8187 53.2078 47.2583 53.0984 47.2583 52.989C48.8517 52.8796 50.4451 51.4579 51.9286 48.8877C52.2583 49.5986 52.8627 50.5829 53.8517 50.8563C54.7858 51.0751 55.7748 50.6376 56.8187 49.5986C60.2253 45.9894 59.4561 43.0912 59.4561 42.9818ZM56.3242 49.0518C55.4451 49.9814 54.6209 50.3642 53.9616 50.1454C52.8077 49.8173 52.2583 47.9581 52.2583 47.9581L52.0385 47.1925L51.6539 47.9034C50.1704 50.6923 48.6869 52.1688 47.1484 52.2781C46.8187 47.4659 49.0715 42.1615 49.6209 41.0132L58.8517 43.3099C58.9616 43.9661 59.0715 46.2629 56.3242 49.0518Z" fill="#393E41"/>
<path d="M45.5 37.7321L44.4561 39.5367C44.4561 39.5367 44.8407 39.9741 45.3901 39.7554C45.9945 39.5367 46.3242 40.0835 46.9286 39.8101L45.9945 37.7321H45.5Z" fill="#8359A0"/>
<path d="M55.7751 26.7406C53.5773 33.0293 45.7201 37.9509 45.7201 37.9509C45.7201 37.9509 38.4674 31.7715 37.7531 25.2094C36.9289 17.2802 41.2146 11.429 47.9729 11.9759C55.0059 12.5774 58.1377 19.741 55.7751 26.7406Z" fill="#7A344A"/>
<path d="M55.3352 26.6312L53.522 28.053C53.522 28.053 53.6868 28.6545 54.4011 28.7092C55.0604 28.7092 55.1703 29.4201 55.9396 29.3654L55.8846 26.7953L55.3352 26.6312Z" fill="#80B9BD"/>
<path d="M70.4446 19.5223C65.6094 25.1001 55.4446 26.9047 55.4446 26.9047C55.4446 26.9047 50.5545 17.6083 52.5875 10.4994C55.005 2.02335 61.9281 -2.24201 68.5765 1.14841C75.6094 4.70288 75.8292 13.343 70.4446 19.5223Z" fill="#68A2A2"/>
<path d="M79.5113 70.5427L75.1706 67.9179C74.786 67.6991 74.731 67.207 74.9508 66.8789C83.5772 55.7233 82.8629 39.0446 85.9398 37.8963L88.0277 38.115C88.1376 38.8806 90.775 57.1998 80.4453 70.324C80.2255 70.6521 79.786 70.7068 79.5113 70.5427Z" fill="#E6E6E6"/>
<path d="M51.2148 114.071L52.6983 115.165L51.2697 117.462L49.5115 115.438L51.2148 114.071Z" fill="#3A3C41"/>
<path d="M35.6652 115.766L34.4015 117.899L36.4894 119.376L38.0828 116.969L35.6652 115.766Z" fill="#3A3C41"/>
<path d="M52.0949 114.728C51.9851 116.697 50.7213 116.806 50.7213 116.806C51.051 117.681 52.3697 120.197 51.1609 122.603C50.8861 123.15 50.3916 124.353 51.4905 125.009L51.985 125.282C52.1499 125.392 52.3147 125.446 52.4246 125.446C53.5785 124.189 54.6774 122.876 55.8862 121.673C56.1609 120.798 56.4905 120.361 56.7103 120.142C56.8202 120.033 56.9301 119.869 57.04 119.759L58.029 117.736C58.1389 117.572 58.029 117.353 57.8092 117.189C56.6554 116.423 53.029 114.4 52.0949 114.728Z" fill="#392F2B"/>
<path d="M52.2587 116.97C52.8631 116.368 53.0279 115.602 52.8631 114.782C52.8082 114.563 52.1488 114.509 52.0939 114.782C51.984 116.751 50.7202 116.86 50.7202 116.86C50.5005 117.024 50.7752 117.735 51.0499 117.626C51.4345 117.516 51.8741 117.352 52.2587 116.97Z" fill="#7F7571"/>
<path d="M52.4236 118.009C52.2038 117.954 51.4346 118.009 51.1598 118.063C51.1049 119.048 51.2697 120.305 51.4346 121.891C52.3686 122.055 53.4675 122.219 53.6873 121.399C53.8521 120.798 53.7422 120.087 53.5225 119.321C53.3576 118.884 53.0829 118.173 52.4236 118.009Z" fill="#7F7571"/>
<path d="M52.6433 125.719C55.1708 124.024 57.918 119.157 58.0279 117.516C58.0279 117.407 57.8081 117.188 57.7532 117.134C57.5884 117.024 57.3686 116.86 57.1488 116.806C57.0938 116.915 57.0389 117.079 56.984 117.188C56.7642 118.173 56.3796 119.102 55.9949 120.032C55.5004 121.344 53.1378 124.407 51.7092 125.227L51.8741 125.336C52.2037 125.5 52.4235 125.61 52.6433 125.719Z" fill="#7F7571"/>
<path d="M45.6652 107.126C45.6652 107.126 50.7201 112.485 51.5992 114.126C51.5992 114.126 51.0498 115.876 49.6762 116.477L42.6432 113.306L45.6652 107.126Z" fill="#202326"/>
<path d="M40.6099 98.3769C40.7747 99.4159 41.1593 100.4 41.5439 101.385C41.5439 101.439 41.5989 101.439 41.5989 101.494C41.6538 101.603 41.7088 101.713 41.7088 101.822C41.9835 102.588 42.2582 103.298 42.4231 104.119C45.445 105.376 49.511 106.689 50.7198 105.814C53.6868 103.517 53.5769 101.33 53.5769 101.33L40.6099 98.3769Z" fill="#272C31"/>
<path d="M39.9502 98.3223C39.9502 98.3223 39.4008 101.494 39.2359 102.697C39.0162 104.447 39.2909 110.954 41.2689 112.376C43.2469 113.798 43.6865 113.743 43.6865 113.743C43.6865 113.743 46.7634 105.541 44.4557 104.173C42.3678 102.916 39.9502 98.3223 39.9502 98.3223Z" fill="#202326"/>
<path d="M36.9278 118.555C34.9498 118.501 34.785 117.243 34.785 117.243C33.9608 117.571 31.4333 118.938 28.9608 117.844C28.4113 117.626 27.2025 117.134 26.5432 118.227L26.2685 118.719C26.1586 118.883 26.1036 119.048 26.1036 119.157C27.3674 120.305 28.741 121.344 30.0047 122.493C30.8839 122.766 31.3784 123.094 31.5432 123.258C31.6531 123.368 31.8179 123.477 31.9828 123.532L34.0157 124.461C34.1806 124.516 34.4003 124.461 34.5652 124.243C35.3894 123.149 37.3124 119.54 36.9278 118.555Z" fill="#392F2B"/>
<path d="M34.7301 118.774C35.3895 119.376 36.1587 119.485 36.9279 119.321C37.1477 119.266 37.1477 118.61 36.9279 118.555C34.9499 118.501 34.7851 117.243 34.7851 117.243C34.6202 117.024 33.9059 117.352 34.0158 117.571C34.1257 118.008 34.3455 118.446 34.7301 118.774Z" fill="#7F7571"/>
<path d="M33.6864 118.993C33.7414 118.774 33.6315 118.008 33.6315 117.735C32.6425 117.735 31.3787 117.899 29.7853 118.118C29.6205 119.047 29.5106 120.141 30.3348 120.305C30.9941 120.469 31.6535 120.36 32.3678 120.086C32.8073 119.977 33.5216 119.649 33.6864 118.993Z" fill="#7F7571"/>
<path d="M25.9392 119.43C27.6975 121.891 32.6425 124.516 34.2909 124.571C34.4007 124.571 34.6205 124.352 34.6755 124.297C34.7854 124.133 34.9502 123.914 35.0051 123.696C34.8953 123.641 34.7304 123.586 34.6205 123.586C33.6315 123.368 32.6975 123.039 31.7084 122.711C30.3898 122.274 27.2029 119.977 26.3788 118.61L26.2689 118.774C26.159 118.938 25.9942 119.212 25.9392 119.43Z" fill="#7F7571"/>
<path d="M50.7744 105.814C50.7744 105.814 46.9282 108.548 42.7524 111.665C42.7524 111.665 40.17 115.876 38.137 118.337C37.4777 117.954 35.9392 117.298 35.0051 116.313C35.0051 116.313 36.9282 111.392 38.137 108.986C39.3458 106.579 45.0601 102.642 47.093 101.986C49.0161 101.275 50.7744 105.814 50.7744 105.814Z" fill="#272C31"/>
<path d="M40.7745 88.5885L44.0712 86.3464C36.6536 77.1595 37.4778 68.7381 36.8734 68.6287L34.6207 68.246C35.0602 68.8475 32.313 77.6516 40.7745 88.5885Z" fill="#E7A387"/>
<path d="M41.4339 80.878C41.9285 81.9716 42.6977 84.4871 44.8405 85.7995L40.6098 89.8462C38.9065 87.4948 37.3131 84.9793 36.9834 82.6279C38.3021 81.8076 39.346 81.2061 41.4339 80.878Z" fill="#7A344A"/>
<path d="M45.9943 94.8224C45.9393 95.2052 46.1042 95.5333 46.324 95.5333C46.5437 95.5333 46.7635 95.2599 46.8185 94.8771C46.8734 94.4943 46.7086 94.1662 46.4888 94.1662C46.2141 94.1662 45.9943 94.4396 45.9943 94.8224Z" fill="#582C1A"/>
<path d="M47.4779 93.4006C47.368 94.4943 48.0273 95.4786 49.0163 95.588C50.0054 95.6973 50.9394 94.9317 51.0493 93.8381C51.1592 92.7444 50.4999 91.76 49.5108 91.6507C48.5218 91.5413 47.5878 92.3069 47.4779 93.4006Z" fill="#E5A928"/>
<path d="M47.6424 93.4006C47.5325 94.3849 48.1369 95.2599 49.016 95.3693C49.8952 95.4786 50.7193 94.7677 50.8292 93.7834C50.9391 92.7991 50.3347 91.9242 49.4556 91.8148C48.5765 91.7601 47.7523 92.471 47.6424 93.4006Z" fill="#EEC140"/>
<path opacity="0.22" d="M49.7861 94.549C49.4564 94.3849 49.4015 93.3459 49.1817 92.9631C48.9619 92.5803 48.7421 92.3069 48.4125 92.0882C48.6872 91.8694 49.0718 91.7601 49.4564 91.8147C50.3356 91.9241 50.9949 92.7991 50.8301 93.7834C50.7751 94.3849 50.3356 94.8771 49.7861 94.549Z" fill="white"/>
<path d="M50.2249 86.6198L44.126 85.6902C42.3128 85.6355 41.5985 87.7682 41.5985 89.5728C41.5985 89.5728 41.9282 89.9555 41.9282 90.393C44.4557 90.229 51.5436 89.9009 53.082 89.7368C53.2469 89.6821 53.4666 89.6821 53.6315 89.6274C53.6315 87.9869 51.8732 86.6745 50.2249 86.6198Z" fill="#E5A185"/>
<path d="M48.687 82.8466L48.4123 82.7919C47.8079 82.6278 47.1486 82.9559 46.9837 83.6121L46.2145 86.3464C46.0497 86.9479 46.3793 87.6041 47.0387 87.7682L47.3134 87.8228C47.9178 87.9869 48.5771 87.6588 48.742 87.0026L49.5112 84.2684C49.676 83.6668 49.2914 83.0106 48.687 82.8466Z" fill="#E5A185"/>
<path d="M40.3348 90.1196C40.3898 89.7915 40.4447 89.4634 40.4997 89.0806C40.7195 88.3697 40.6645 87.44 41.9283 86.237C42.9722 85.2527 44.8403 85.7448 44.8403 85.7448C45.4447 87.9322 48.7414 88.479 49.5107 86.5104C50.6096 86.6198 51.7085 86.6198 52.8074 87.1119C54.3458 87.8228 54.5656 91.1586 54.5107 91.1039C54.5107 95.3693 54.6206 103.627 54.6206 103.627C50.7195 105.759 41.1041 104.392 37.8074 101.767C37.8623 101.822 39.9502 94.0021 40.3348 90.1196Z" fill="#7A344A"/>
<path d="M40.9399 75.2455C40.7201 76.3392 41.2146 77.3235 41.9839 77.4875C42.808 77.6516 43.6322 76.886 43.852 75.847C44.0718 74.7533 43.5773 73.769 42.808 73.605C41.9839 73.4409 41.1597 74.2065 40.9399 75.2455Z" fill="#E09178"/>
<path d="M46.2145 84.8152L47.5881 85.3621C51.2695 86.8386 55.5002 85.034 56.9838 81.3701L57.9728 78.964C59.4563 75.3002 57.6431 71.0895 53.9618 69.613L52.5881 69.0662C50.4453 68.1912 48.0826 68.4647 46.2145 69.5583C44.8958 70.3239 43.7969 71.527 43.1925 73.0581L42.2035 75.4642C40.72 79.1281 42.4782 83.3388 46.2145 84.8152Z" fill="#E7A387"/>
<path d="M51.1595 80.4952C51.4342 80.6046 51.4891 81.042 51.2694 81.3155C50.1704 82.5732 48.632 83.12 47.4232 82.6279C46.1595 82.1357 45.5001 80.7139 45.5551 79.0187C45.5551 78.6359 45.8847 78.4172 46.2144 78.5266L51.1595 80.4952Z" fill="white"/>
<path d="M56.2147 80.6592C55.6103 81.5889 55.6103 82.6825 56.3246 83.12C56.9839 83.5575 58.0279 83.2294 58.6872 82.2998C59.2916 81.3701 59.2916 80.2764 58.5774 79.839C57.918 79.4015 56.8741 79.7843 56.2147 80.6592Z" fill="#E7A387"/>
<path d="M54.1814 77.1047C54.6759 77.2687 54.8957 77.9796 54.566 78.7452C54.2913 79.5108 53.6319 80.0029 53.1374 79.8389C52.6429 79.6748 52.4232 78.9639 52.7528 78.1984C53.0275 77.4328 53.6869 76.9406 54.1814 77.1047Z" fill="#422115"/>
<path d="M46.4891 74.4798C46.9836 74.6439 47.2034 75.3548 46.8738 76.1204C46.599 76.8859 45.9397 77.3781 45.4452 77.214C44.9507 77.05 44.7309 76.3391 45.0606 75.5735C45.3353 74.8079 45.9946 74.3158 46.4891 74.4798Z" fill="#422115"/>
<path d="M43.5767 71.6363C42.5328 69.2302 45.6647 65.1289 47.2581 63.7071C47.4229 63.9258 47.7526 64.0899 47.6427 64.3633C47.7526 64.0352 47.8075 63.1056 48.0273 62.8868C48.1372 62.7774 48.4669 63.2696 48.5218 63.4337C48.4119 62.6681 48.5218 62.1759 48.7416 61.2463C54.6207 62.34 58.9064 67.2069 60.0053 69.6677C60.0603 69.3396 60.1701 69.0114 60.3899 68.7927C62.2581 70.9254 61.4888 73.769 61.3789 74.2064C61.3789 74.2064 62.368 72.9487 62.5877 73.2768C62.8075 73.6049 61.7086 74.5346 61.7086 74.5346C61.7086 74.5346 62.5328 74.3705 62.6427 74.808C62.7526 75.2454 61.4888 75.2454 61.4888 75.2454C61.4888 75.2454 60.3899 76.9407 58.9614 77.6516C58.9614 77.6516 58.0822 79.1827 57.5328 79.8936C56.324 81.5888 57.2031 79.0187 57.4229 77.7062C58.4119 72.0191 49.9504 66.6053 46.0493 69.9411C43.6317 72.0191 42.8075 73.933 42.7526 73.933L43.5767 71.6363Z" fill="#4C2518"/>
<path opacity="0.24" d="M60.8298 75.5189C59.0716 75.3001 58.0276 73.2768 56.9837 72.1831C55.1705 70.2692 52.4782 68.574 49.8408 68.2459C48.4672 68.0818 47.1485 68.3552 45.9397 69.1208C44.7859 69.8864 44.1815 70.7067 43.5221 71.8003L42.8628 73.9877C42.8628 73.933 43.7419 72.0738 46.1595 69.9958C50.0606 66.66 58.5221 72.0738 57.5331 77.7609C57.3133 79.0186 56.3793 81.6435 57.643 79.9483C58.1925 79.1827 59.0716 77.7062 59.0716 77.7062C60.0606 77.1594 60.9397 76.1751 61.3243 75.6282C61.1595 75.5189 60.9947 75.5189 60.8298 75.5189Z" fill="#422115"/>
<path opacity="0.1" d="M59.0712 76.0658C59.0162 76.1205 58.9613 76.1752 58.9613 76.2845C59.0163 76.2298 59.0712 76.1205 59.0712 76.0658Z" fill="#3D2405"/>
<path d="M78.1371 71.691L75.2799 69.2849L67.0382 75.0267L66.6536 79.8389C67.4777 79.8936 68.4118 78.2531 68.4667 78.6359C68.4667 78.964 68.247 79.3468 68.3019 79.6202C68.4118 80.0577 68.7964 79.6749 68.9063 79.6202C69.1261 79.5655 69.4558 79.4562 69.7305 79.3468C70.225 79.2374 70.4997 78.9093 70.8294 78.6906C70.9942 78.5812 71.1591 78.5265 71.3788 78.4172C71.2689 79.0734 71.2689 79.7296 71.7635 79.6749C72.3129 79.6202 72.5327 78.7453 72.5876 78.0891C72.6426 78.0891 72.6975 78.089 72.6975 78.0344C72.8074 78.6906 73.0821 79.6749 73.6865 79.7843C74.2909 79.8936 73.9613 78.5812 73.6865 77.7063C73.7415 77.7063 73.7415 77.6516 73.7964 77.6516C74.181 78.2531 74.7305 78.964 75.1151 78.7453C75.4448 78.5812 75.0602 77.8156 74.5107 76.9954C74.8953 76.5032 75.5547 76.2298 76.1591 75.3548C77.5327 73.7143 78.192 71.4723 78.1371 71.691Z" fill="#E5A185"/>
<path d="M69.7305 76.4485L69.5657 75.5735L68.3019 75.6829C67.5877 75.7376 67.7525 76.2844 67.5877 76.9953C67.1481 78.9093 65.3349 83.1747 61.7635 85.6354C59.1261 87.4947 55.5547 87.6588 51.5437 87.1119C51.7085 88.2603 51.8184 89.4087 51.9833 90.557C51.9833 90.6117 51.9833 90.6664 52.0382 90.7211C56.6536 91.3226 60.6096 90.7211 63.9063 88.4243C70.225 83.9949 70.5547 76.2844 70.6096 75.9563L69.7305 76.4485Z" fill="#E5A185"/>
<path d="M59.0716 86.0729C59.4013 87.1119 59.5112 89.5181 59.4562 90.9398C57.0386 91.3226 52.5881 91.8148 49.731 91.2679L50.7749 86.6198C54.4013 86.2917 57.3134 86.237 59.0716 86.0729Z" fill="#7A344A"/>
<path d="M74.9506 69.8864L75.8846 68.0818L79.1264 69.777L78.0275 72.0191L74.9506 69.8864Z" fill="#E5A185"/>
<path d="M75.9941 67.0429L75.115 68.8475L78.9062 71.0348L79.6754 69.3396L75.9941 67.0429Z" fill="#E6E6E6"/>
<path d="M42.8635 49.5439L41.9294 51.6219C41.9294 51.6219 42.369 52.1141 42.9734 51.786C43.5778 51.5126 44.0174 52.0594 44.6767 51.6766L43.4679 49.4346L42.8635 49.5439Z" fill="#F2293A"/>
<path d="M53.1377 36.4197C51.3795 43.5287 43.1377 49.7627 43.1377 49.7627C43.1377 49.7627 34.5663 43.6381 33.1378 36.4197C31.4345 27.725 35.6652 20.8347 43.1377 20.8347C50.9949 20.8347 55.1707 28.4905 53.1377 36.4197Z" fill="#F2293A"/>
<path d="M37.2582 51.5673L37.0385 53.5906C37.0385 53.5906 37.533 53.864 37.9725 53.4265C38.4121 52.9891 38.9615 53.3719 39.4011 52.8797L37.7527 51.2939L37.2582 51.5673Z" fill="#FFD880"/>
<path d="M42.4232 37.4041C42.8628 44.0208 37.5331 51.6219 37.5331 51.6219C37.5331 51.6219 28.4672 48.7784 25.2254 42.9272C21.3793 35.9823 23.0276 28.8733 29.5111 26.7953C36.2144 24.6626 41.9287 30.0764 42.4232 37.4041Z" fill="#FFD880"/>
<path d="M51.8186 47.794L50.1703 49.0518C50.1703 49.0518 50.3351 49.5986 50.9395 49.6533C51.5439 49.6533 51.6538 50.3095 52.3131 50.2548V47.9581L51.8186 47.794Z" fill="#F27B35"/>
<path d="M65.5548 41.56C61.1043 46.5363 51.9285 48.0675 51.9285 48.0675C51.9285 48.0675 47.6977 39.5367 49.5658 33.248C51.7636 25.5923 58.1373 21.8737 64.1263 24.9907C70.3351 28.2171 70.4999 36.0369 65.5548 41.56Z" fill="#F27B35"/>
<path d="M37.038 70.1598C37.038 70.1598 38.7413 68.2459 38.8512 66.9882C38.9061 65.7304 39.4006 65.457 39.1809 64.9649C38.9611 64.4727 38.2468 65.1289 38.2468 65.293C38.2468 65.457 38.3567 64.0899 37.4226 64.3086C36.4885 64.5274 36.1589 64.1446 35.6094 64.3086C35.1149 64.4727 34.8951 63.8712 34.4006 64.254C33.9061 64.6367 32.7523 65.6211 32.7523 66.496C32.6973 68.574 33.4116 68.2459 33.4116 68.2459C33.5765 70.2145 34.8402 70.5426 34.8402 70.5426L37.038 70.1598Z" fill="#E5A185"/>
<path d="M37.0385 51.5125L37.9176 51.1297L38.0275 51.5672L37.2582 51.8953L37.0385 51.5125Z" fill="#393E41"/>
<path d="M42.533 49.2705H43.7417L43.6319 49.8174L42.7527 49.8721L42.533 49.2705Z" fill="#393E41"/>
<path d="M51.5437 47.9581L51.6536 47.466L52.5877 47.9035L52.3129 48.3409L51.5437 47.9581Z" fill="#393E41"/>
<path d="M47.1484 52.4422L46.544 52.6062C46.544 52.6609 47.6978 58.184 37.4781 65.6758C37.4231 65.7304 37.3682 65.7304 37.3132 65.7851C37.3132 66.1132 37.4781 66.2773 37.6978 66.2773C37.7528 66.2226 37.8077 66.2226 37.8627 66.1679C48.4121 58.3481 47.2033 52.6609 47.1484 52.4422Z" fill="#393E41"/>
<path d="M115.94 57.9106C115.94 57.9106 117.369 60.8636 116.215 63.7071C114.951 66.8241 109.347 65.7851 109.511 65.6758C112.698 63.5978 115.94 57.9106 115.94 57.9106Z" fill="#E6E6E6"/>
<path d="M118.027 17.9911C118.027 17.9911 109.621 15.0929 104.401 29.5842C99.1813 44.0755 102.973 51.5126 111.654 52.825C126.159 54.9577 131.929 50.3642 131.929 50.3642C124.511 42.6537 132.478 20.8894 118.027 17.9911Z" fill="#582C1A"/>
<path d="M109.84 37.6774C109.84 37.6774 106.049 37.0212 99.9501 36.529C93.8512 36.0369 89.126 38.0602 89.126 38.0602L106.708 41.2319L109.84 37.6774Z" fill="#E09178"/>
<path d="M103.248 36.8026C103.028 38.0056 102.698 39.154 102.533 40.357C102.533 40.4117 102.533 40.4117 102.533 40.4664L106.709 41.232L109.841 37.6775C109.841 37.6775 107.424 37.24 103.248 36.8026Z" fill="#F2293A"/>
<path d="M104.016 40.6304C104.346 39.482 104.566 38.1696 104.95 37.0212C104.675 36.5838 103.631 36.5291 103.302 36.8572C103.082 38.0602 102.752 39.2086 102.588 40.4117C102.588 40.4664 102.588 40.4664 102.588 40.521L103.631 40.7398C103.631 40.5757 104.016 40.6851 104.016 40.6304Z" fill="#FF6C7E"/>
<path d="M94.7855 30.5139H94.291C93.247 30.5139 92.3679 31.3341 92.3679 32.3731L91.9283 37.8416C91.9283 38.8806 93.1371 39.7555 94.1811 39.7555H94.6756C95.7195 39.7555 96.9283 38.6071 96.9283 37.5681L96.6536 32.4825C96.6536 31.3888 95.8294 30.5139 94.7855 30.5139Z" fill="#E79D84"/>
<path d="M96.8183 35.2167L96.6534 32.4278C96.6534 31.3888 95.8293 30.5139 94.7853 30.5139H94.2908C93.2468 30.5139 92.3677 31.3341 92.3677 32.3731L92.1479 35.4355C92.9172 35.7089 93.7414 35.8182 94.6205 35.8729" fill="#E09178"/>
<path d="M86.3793 22.9675C85.5002 23.0221 84.8408 24.0065 84.8958 25.2095C84.9507 26.4126 85.7749 27.2875 86.654 27.2328C87.5331 27.1781 88.1925 26.1938 88.1375 24.9908C88.0826 23.8424 87.2584 22.9128 86.3793 22.9675Z" fill="#E09178"/>
<path d="M97.3686 14.2179L94.4565 13.9444C90.6104 13.5617 87.0389 17.5536 86.6543 21.3815L86.1598 26.6859C85.7752 30.5138 88.6324 33.9589 92.5334 34.3416L95.4455 34.6151C99.2917 34.9979 102.753 32.1543 103.138 28.2717L103.632 22.9673C104.017 19.1941 101.27 14.6007 97.3686 14.2179Z" fill="#E7A387"/>
<path d="M106.27 14.1633C105.885 13.9992 105.555 14.1086 105.336 14.218C105.665 13.6164 105.995 12.9602 105.94 12.1946C105.391 12.14 104.841 12.5774 104.731 13.1243C104.896 12.6868 104.841 12.14 104.566 11.7572C104.511 11.7025 104.511 11.6478 104.457 11.6478C104.347 11.5931 104.237 11.7025 104.182 11.7572C104.017 11.9759 103.852 12.6868 103.797 12.7962C103.852 12.8509 103.852 12.8509 103.797 12.8509C103.797 12.8509 103.797 12.8509 103.797 12.7962C103.522 12.5774 102.204 11.5384 100.94 10.8822C98.6324 9.62449 95.8851 9.46044 95.8851 9.56981C95.94 10.1713 96.1598 10.7182 96.3796 11.265C95.006 9.78855 93.028 8.85891 90.995 8.80423C90.995 9.29639 90.995 9.78854 91.1049 10.2807C91.2148 10.7729 91.4345 11.1556 91.8741 11.4291C90.3906 10.4448 88.8521 9.56981 87.0389 9.56981C86.929 9.56981 86.8741 9.56981 86.8192 9.62449C86.7642 9.67918 86.7642 9.73386 86.7642 9.84323C86.5994 10.9369 86.7642 12.0306 87.2587 13.0149C87.0939 12.7962 86.8741 12.6321 86.6543 12.5774C86.2148 13.343 86.0499 14.218 86.0499 15.0929C86.0499 17.2803 86.3247 18.7568 86.5444 19.6864C86.2697 21.5456 86.4345 23.0221 86.4345 23.0768C86.4345 23.0768 86.4345 22.9674 86.4895 22.7487L86.4345 23.0768C86.4895 23.0768 87.8082 18.3193 89.7312 17.2803C92.1488 16.0225 91.7093 18.1005 94.7862 17.9365C96.8192 17.8271 99.8411 16.5694 101.215 19.9598C101.599 20.9988 101.16 22.8581 101.489 23.8424C101.709 24.6626 102.479 25.1001 103.358 25.3735L103.468 24.2252C103.468 24.2252 103.687 23.4596 103.852 22.3659C105.226 20.452 105.995 16.6241 105.72 14.8742C105.72 14.7648 105.72 14.7648 105.72 14.7648C105.72 14.7648 106.325 14.382 106.27 14.1633Z" fill="#582C1A"/>
<path d="M104.565 24.3345C103.741 24.0064 102.752 24.6626 102.313 25.7563C101.873 26.85 102.203 27.9983 103.027 28.3264C103.851 28.6545 104.84 27.9983 105.28 26.9046C105.664 25.811 105.39 24.6626 104.565 24.3345Z" fill="#E79D84"/>
<path d="M96.9287 28.3811L91.1046 27.8343C90.7749 27.7796 90.5002 28.1624 90.6101 28.5452C91.1046 30.2404 92.3134 31.4981 93.7419 31.6622C95.1705 31.7715 96.5441 30.7872 97.3134 29.2014C97.4782 28.8186 97.2584 28.3811 96.9287 28.3811Z" fill="white"/>
<path d="M90.225 22.3111C89.6755 22.2018 89.1261 22.8033 89.0162 23.7329C88.9063 24.6079 89.236 25.4828 89.7854 25.5922C90.3349 25.7016 90.8843 25.1 90.9942 24.1704C91.1041 23.2955 90.7744 22.4752 90.225 22.3111Z" fill="#4C2518"/>
<path d="M98.7421 23.0221C98.1927 22.9128 97.6432 23.5143 97.4784 24.4439C97.3135 25.3735 97.6432 26.1938 98.1927 26.3579C98.7421 26.4672 99.2916 25.8657 99.4564 24.9361C99.6212 24.0064 99.2916 23.1315 98.7421 23.0221Z" fill="#4C2518"/>
<path d="M101.16 107.564L105.281 111.61L102.588 114.126L97.863 109.642L101.16 107.564Z" fill="#474950"/>
<path opacity="0.09" d="M100.94 112.595L97.8079 109.642L101.16 107.619L103.632 110.025" fill="black"/>
<path d="M81.434 73.2222L88.5768 75.0267C87.9175 78.4719 87.5329 80.5499 88.4669 92.3616C88.4669 92.3616 96.8735 101.111 103.467 107.509C103.852 107.892 103.852 108.493 103.467 108.822C102.093 110.079 101.049 111.118 99.7856 112.321C99.2362 112.814 98.412 112.814 97.9175 112.267C95.8845 110.243 92.8625 106.853 89.6208 103.627C81.434 95.424 81.5439 93.6194 81.3241 91.6507C80.1153 80.4405 81.2691 73.605 81.434 73.2222Z" fill="#2E2C2C"/>
<path d="M101.379 70.0505C101.104 73.9878 100.719 76.2298 100.719 76.2298L81.2139 77.3235L81.1589 70.1052L101.379 70.0505Z" fill="#2E2C2C"/>
<path d="M79.0165 113.524L77.4231 117.954L80.8297 119.868L82.7528 114.946L79.0165 113.524Z" fill="#474950"/>
<path d="M92.1485 76.3938C91.8189 77.214 89.1815 80.0029 77.5881 113.743C77.4782 114.126 77.698 114.563 78.0826 114.727L83.6321 116.313C84.0716 116.532 84.5112 116.204 84.676 115.766C94.3463 92.4709 95.3903 86.0729 100.775 76.2297C98.5222 75.0814 95.2255 75.0267 92.1485 76.3938Z" fill="#393636"/>
<path d="M68.907 117.735C70.6103 119.102 76.929 116.587 78.0828 116.149C78.0828 116.149 78.7971 117.243 81.874 117.243C83.3575 118.883 81.2147 123.532 80.5004 125.008C80.3356 125.336 80.0059 125.446 79.6762 125.336L76.2147 124.188C75.94 124.078 75.8301 123.86 75.885 123.586L75.9949 123.204C75.9949 123.204 75.9949 123.204 72.0938 122.985C68.1927 122.766 64.896 119.54 64.896 119.54C64.896 119.54 64.896 119.54 65.4454 118.173C65.885 116.915 67.2037 116.368 68.907 117.735Z" fill="#412724"/>
<path d="M97.8623 121.836C99.8953 121.235 101.324 114.345 101.544 113.142C101.544 113.142 103.082 113.579 104.785 111.118C106.928 110.845 109.346 115.11 110.115 116.477C110.28 116.751 110.225 117.134 109.95 117.352L107.093 119.54C106.873 119.704 106.599 119.649 106.434 119.43L106.214 119.102C106.214 119.102 106.214 119.102 103.906 122.164C101.599 125.227 97.148 126.102 97.148 126.102C97.148 126.102 97.148 126.102 96.3238 124.953C95.4997 123.805 95.7744 122.438 97.8623 121.836Z" fill="#412724"/>
<path d="M99.0163 38.3336C98.8515 39.0445 98.7416 39.5913 98.2471 40.1382C97.8625 40.5757 97.368 40.9585 96.8185 41.2319C95.7746 41.724 94.5108 41.8334 93.4119 41.4506C92.0932 41.0131 91.2691 40.0288 90.6097 38.8258C90.4449 38.3336 90.4998 37.8415 90.4998 37.3493C85.7746 37.0759 85.6097 38.2789 85.6097 38.2789C85.6097 38.2789 84.7306 40.7397 83.6866 45.6066C85.2801 47.0831 86.9284 48.5049 88.5218 49.9267C90.2251 51.4578 91.8735 52.989 93.5768 54.5201H105.115C105.994 48.6689 106.654 43.6927 106.654 43.6927C107.588 39.482 103.137 38.9898 99.0163 38.3336Z" fill="#E6E6E6"/>
<path d="M101.819 47.1925C101.435 44.4583 101.599 41.5053 102.918 39.0445C101.709 38.7164 100.336 38.5524 99.017 38.3336C98.8521 39.0445 98.7423 39.5914 98.2477 40.1382C97.8631 40.5757 97.3686 40.9585 96.8192 41.2319C95.7752 41.724 94.5115 41.8334 93.4126 41.4506C92.0939 41.0132 91.2697 40.0288 90.6104 38.8258C90.4455 38.3336 90.5005 37.8415 90.5005 37.3493C89.1269 37.2946 88.1379 37.3493 87.4236 37.404C86.8741 40.3569 85.5554 43.8567 83.5774 46.2081C83.028 48.8877 82.4785 51.95 81.984 56.0513C81.3796 61.0276 79.5115 70.816 81.6543 71.1441C88.028 72.1831 94.5664 72.5659 100.94 73.2221C102.039 73.3315 103.962 62.34 105.226 53.6999C103.303 51.95 102.204 49.9814 101.819 47.1925Z" fill="#78392D"/>
<path d="M98.2476 40.1383C97.863 40.5757 97.3685 40.9585 96.819 41.232C95.7751 41.7241 94.5113 41.8335 93.4124 41.4507C92.0937 41.0132 91.2696 40.0289 90.6102 38.8258C90.4454 38.3337 90.5003 37.8415 90.5003 37.3494C89.6212 37.2947 88.9619 37.2947 88.3575 37.3494C88.1377 39.154 88.4674 41.0679 89.6212 42.3256C90.9399 43.8021 92.7531 44.5677 94.7311 44.6224C96.819 44.6224 98.5223 43.8021 99.8959 42.2163C100.61 41.396 101.105 40.5757 101.489 39.5914C101.599 39.318 101.709 39.0993 101.764 38.8258C101.764 38.8258 101.764 38.8259 101.764 38.7712C100.885 38.6071 99.9509 38.4431 99.0168 38.279C98.797 39.0446 98.7421 39.5367 98.2476 40.1383Z" fill="#8B4439"/>
<path d="M80.6651 69.0662C80.3903 70.1599 80.2804 70.6521 81.709 71.1989C84.731 72.3473 97.4782 74.0425 100.995 73.3863C101.269 73.3316 102.094 72.8394 101.929 71.527C98.4123 71.9098 86.8738 71.3083 80.6651 69.0662Z" fill="#8B4439"/>
<path d="M99.3457 50.4189L96.4336 54.0281L93.2468 46.8097L87.2029 53.7546L85.3347 49.3799L82.4776 52.6063C82.3128 53.6999 82.1479 54.8483 81.9831 56.1061C81.9282 56.7623 81.8183 57.5278 81.7084 58.2934L82.9721 61.8479L86.7084 58.2387L90.1699 64.5821L95.7194 59.5512L97.8073 63.9259L103.082 57.5825L99.3457 50.4189Z" fill="#8B4439"/>
<path d="M98.2471 40.1382C97.8624 40.5756 97.3679 40.9584 96.8185 41.2319C95.7745 41.724 95.4998 39.0992 94.4009 38.7164C93.0822 38.2789 91.1592 40.1382 90.4998 38.9351C90.335 38.443 90.1701 37.8414 90.1152 37.3493C89.9504 37.2399 89.8954 37.2946 89.7855 37.3493C89.4559 40.1929 91.2141 42.4896 93.357 42.8177C95.7745 43.2005 98.7965 41.724 99.6756 38.4976C99.5108 38.3883 99.2361 38.3883 98.8515 38.3883C98.7965 39.0445 98.7416 39.5366 98.2471 40.1382Z" fill="#E6E6E6"/>
<path d="M94.4563 37.8962C92.4782 37.7868 92.0936 36.201 92.0936 36.201L90.1156 37.3493C90.1156 37.3493 90.1705 39.6461 91.709 41.1772C91.9837 41.4506 92.4233 41.3413 92.5332 40.9585C92.8629 39.9195 93.3574 39.0445 94.5662 39.2633C95.0607 39.482 95.0057 40.3023 94.9508 41.2319C94.9508 41.6694 95.2804 41.9975 95.72 41.9428C98.5771 41.5053 99.0716 38.3336 99.0716 38.3336L96.9288 36.2556C96.9288 36.2556 96.4343 38.0055 94.4563 37.8962Z" fill="white"/>
<path d="M114.456 34.6698V39.3726L111.489 39.0992L112.258 34.451L114.456 34.6698Z" fill="#E09178"/>
<path d="M105.884 27.1781C105.774 28.2718 106.324 29.2014 107.093 29.3108C107.917 29.4201 108.631 28.5999 108.796 27.5609C108.906 26.4672 108.357 25.5375 107.587 25.4282C106.763 25.3188 105.994 26.0844 105.884 27.1781Z" fill="#E09178"/>
<path d="M111.983 36.1463L113.357 36.5838C117.093 37.7321 121.104 35.6541 122.258 31.9356L123.027 29.4748C124.181 25.7563 122.093 21.7643 118.357 20.616L116.983 20.1785C114.785 19.5223 112.533 19.9598 110.774 21.1628C109.566 22.0378 108.577 23.2955 108.082 24.8267L107.313 27.2874C106.159 31.0607 108.247 34.9979 111.983 36.1463Z" fill="#E7A387"/>
<path d="M116.27 31.9356C116.544 32.045 116.599 32.4277 116.434 32.7012C115.445 34.0136 114.127 34.7245 112.973 34.3417C111.819 33.9589 111.105 32.6465 111.05 31.0606C111.05 30.7325 111.325 30.4044 111.599 30.5138L116.27 31.9356Z" fill="white"/>
<path d="M121.489 31.2794C120.939 32.209 121.049 33.3027 121.763 33.6855C122.478 34.0683 123.467 33.6308 124.016 32.7012C124.566 31.7715 124.456 30.6779 123.741 30.2951C123.027 29.9123 122.038 30.3498 121.489 31.2794Z" fill="#E7A387"/>
<path d="M119.072 28.6546C119.677 28.764 119.896 29.5842 119.677 30.4045C119.402 31.2794 118.743 31.8263 118.193 31.7169C117.589 31.6075 117.369 30.7873 117.589 29.967C117.863 29.0921 118.523 28.5452 119.072 28.6546Z" fill="#422115"/>
<path d="M110.886 26.6313C111.435 26.7407 111.71 27.5063 111.435 28.3265C111.215 29.1468 110.556 29.6936 110.006 29.5843C109.457 29.4749 109.182 28.7093 109.457 27.889C109.732 27.1235 110.336 26.5219 110.886 26.6313Z" fill="#422115"/>
<path opacity="0.1" d="M118.192 31.717C117.808 31.6076 117.533 31.2248 117.533 30.7327C118.247 30.1858 118.962 29.639 119.676 29.0921C119.841 29.4203 119.896 29.9124 119.731 30.4046" fill="white"/>
<path opacity="0.1" d="M110.006 29.6389C109.621 29.5842 109.401 29.2014 109.346 28.7093C110.061 28.2171 110.72 27.6703 111.379 27.1234C111.544 27.4515 111.544 27.889 111.434 28.3265" fill="white"/>
<path d="M98.6318 65.9491C98.6318 65.9491 94.4559 63.2696 97.3131 59.1136C100.225 54.9576 103.577 57.4184 103.577 57.4184L102.258 61.5197C102.258 61.5197 100.5 62.3946 101.104 63.2696C101.709 64.1445 98.6318 65.9491 98.6318 65.9491Z" fill="#E09178"/>
<path d="M101.324 63.2696L104.511 68.1365L103.082 69.7223L98.1922 66.0038C98.0823 65.9491 98.0823 65.785 98.1922 65.7304C98.1922 65.7304 99.1812 65.5116 100.005 64.8007C100.884 64.0898 101.049 63.2149 101.049 63.2149C101.159 63.1602 101.269 63.2149 101.324 63.2696Z" fill="#FF6C7E"/>
<path d="M104.182 67.6443C104.072 67.9178 103.907 68.1365 103.687 68.3006C103.577 68.3552 103.522 68.4099 103.412 68.4646C103.138 68.738 102.753 68.8474 102.423 68.8474C102.204 68.8474 102.039 68.7927 101.819 68.6833C96.3244 73.1128 98.9068 74.8627 98.9068 74.8627L106.214 69.2849C106.214 69.2849 105.555 67.7537 104.182 67.6443Z" fill="#F2293A"/>
<path d="M99.6752 72.4017C99.4005 72.5658 99.1258 72.1283 98.9609 71.6908C99.1258 71.4721 99.2906 71.1987 99.5104 70.9253C99.6752 71.3081 100.005 72.183 99.6752 72.4017Z" fill="#FFD4DB"/>
<path d="M102.423 69.941C102.038 70.3785 101.159 69.941 100.72 69.6676C100.884 69.5035 101.049 69.3942 101.214 69.2301C101.709 69.3395 102.808 69.5582 102.423 69.941Z" fill="#FFD4DB"/>
<path d="M100.554 71.691C100.225 71.9644 99.7302 71.2535 99.5104 70.8707C99.6752 70.7066 99.84 70.4879 100.06 70.2692C100.335 70.652 100.884 71.4175 100.554 71.691Z" fill="#FFD4DB"/>
<path d="M101.378 71.0347C101.049 71.3082 100.335 70.652 100.06 70.3238C100.225 70.1598 100.444 69.941 100.664 69.7223C100.994 70.0504 101.708 70.7613 101.378 71.0347Z" fill="#FFD4DB"/>
<path d="M106.16 68.7926L106.544 69.3942C106.599 69.5035 106.599 69.6129 106.489 69.6676L98.9069 75.2454L98.3574 74.6438L105.885 68.6833C105.995 68.6833 106.105 68.6833 106.16 68.7926Z" fill="#FFD4DB"/>
<path d="M104.126 67.535L104.73 67.699C104.785 67.699 104.84 67.8084 104.84 67.8631C104.675 68.1912 104.236 68.8474 103.302 69.1755C102.093 69.5583 101.489 68.9568 101.489 68.9568L101.544 68.574C101.544 68.574 102.642 68.9021 103.247 68.574C103.851 68.2459 104.126 67.535 104.126 67.535Z" fill="#FFD4DB"/>
<path opacity="0.1" d="M123.906 26.5766C123.851 26.6313 123.851 26.686 123.797 26.7953C123.851 26.7407 123.906 26.6313 123.906 26.5766Z" fill="#3D2405"/>
<path d="M102.807 67.9178C102.807 67.9178 98.192 64.9648 101.434 60.426C104.621 55.8872 108.302 58.5668 108.302 58.5668L106.818 63.0509C106.818 63.0509 104.895 64.0352 105.555 64.9648C106.159 65.8945 102.807 67.9178 102.807 67.9178Z" fill="#E7A387"/>
<path d="M105.775 64.9648L109.291 70.3239L107.753 72.0191L102.368 67.9178C102.258 67.8631 102.258 67.699 102.368 67.5897C102.368 67.5897 103.412 67.3709 104.346 66.6054C105.28 65.8398 105.5 64.9102 105.5 64.9102C105.61 64.8555 105.72 64.8555 105.775 64.9648Z" fill="#FF6C7E"/>
<path d="M108.797 69.7223C108.687 69.9957 108.522 70.2145 108.302 70.3785C108.192 70.4332 108.137 70.4879 108.027 70.5426C107.753 70.816 107.368 70.9254 106.983 70.9254C106.764 70.9254 106.599 70.8707 106.379 70.7613C100.775 75.2454 103.412 77.05 103.412 77.05L110.83 71.3629C110.885 71.4175 110.17 69.8864 108.797 69.7223Z" fill="#F2293A"/>
<path d="M104.236 74.5345C103.962 74.6986 103.687 74.2611 103.522 73.8236C103.687 73.5502 103.852 73.3315 104.071 73.058C104.236 73.4955 104.566 74.3158 104.236 74.5345Z" fill="#FFD4DB"/>
<path d="M106.984 72.0737C106.599 72.5112 105.665 72.0737 105.225 71.8003C105.39 71.6363 105.555 71.5269 105.72 71.3629C106.324 71.4722 107.423 71.6363 106.984 72.0737Z" fill="#FFD4DB"/>
<path d="M105.115 73.8783C104.786 74.1517 104.291 73.4409 104.071 73.0581C104.236 72.8393 104.401 72.6753 104.621 72.4565C104.896 72.7846 105.445 73.5502 105.115 73.8783Z" fill="#FFD4DB"/>
<path d="M105.94 73.1674C105.61 73.4408 104.896 72.7299 104.621 72.4018C104.786 72.1831 105.005 72.0191 105.225 71.8003C105.61 72.1831 106.269 72.894 105.94 73.1674Z" fill="#FFD4DB"/>
<path d="M110.83 70.9254L111.214 71.527C111.269 71.6363 111.269 71.7457 111.159 71.8004L103.522 77.4875L102.973 76.886L110.555 70.8708C110.61 70.8161 110.775 70.8161 110.83 70.9254Z" fill="#FFD4DB"/>
<path d="M108.742 69.4489L109.456 69.7223C109.511 69.7223 109.566 69.8864 109.566 69.9411C109.401 70.2692 108.962 70.9801 108.027 71.2535C106.819 71.6363 105.995 71.2535 105.995 71.2535L106.049 70.652C106.049 70.652 107.203 70.816 107.863 70.5426C108.412 70.2145 108.742 69.4489 108.742 69.4489Z" fill="#FFD4DB"/>
<path d="M118.027 26.5219C120.775 27.5062 123.412 28.764 125.939 30.2405C125.994 24.772 124.676 19.0302 118.632 18.1006C118.632 18.1006 110.665 15.8585 105.665 23.733C109.401 24.0611 114.566 25.2642 118.027 26.5219Z" fill="#582C1A"/>
<path d="M109.126 37.7321C108.796 38.2243 108.412 38.6071 108.082 39.0446C107.807 39.3727 107.533 39.7555 107.258 40.0836C106.599 43.2552 105.994 46.4269 105.005 49.5439C104.84 50.1454 104.456 50.5282 104.071 50.747C103.796 52.3328 103.577 53.9733 103.467 55.6139L116.324 56.7075C116.324 56.7075 118.192 43.8021 119.621 38.9352C119.621 38.9352 114.346 37.0212 109.126 37.7321Z" fill="#E09178"/>
<path d="M115.335 37.6774C114.73 38.5524 113.522 39.0992 112.423 38.9352C111.434 38.8258 110.664 38.2789 110.17 37.5681C109.95 37.5681 109.73 37.6227 109.511 37.6227L109.456 37.5681C108.686 37.6227 107.917 37.8415 107.258 38.1696C107.258 38.1696 104.016 46.755 103.412 55.7232L116.269 56.8169C116.269 56.8169 118.302 43.6927 119.73 38.8805C119.73 38.9898 117.752 38.1696 115.335 37.6774Z" fill="#F2293A"/>
<path d="M118.302 47.466C118.302 47.466 122.313 54.903 111.929 64.09C111.929 64.09 102.643 66.7148 92.0387 55.6686C92.0387 55.6686 95.6101 48.3409 104.731 46.0989C104.731 46.1536 108.467 48.1222 118.302 47.466Z" fill="#F2293A"/>
<path d="M105.445 44.1849L104.346 46.2629C104.346 46.2629 105.555 47.9581 110.5 48.6144C115.445 49.2706 118.522 48.0675 118.522 48.0675L118.192 45.7708C118.192 45.7708 115.115 46.591 111.104 46.0989C107.038 45.552 105.445 44.1849 105.445 44.1849Z" fill="#FF6C7E"/>
<path d="M110.555 37.4587C110.61 37.4587 110.72 37.5134 110.72 37.568C110.884 37.8962 111.434 38.7164 112.643 38.8258C113.742 38.8805 114.676 38.1696 115.06 37.7868C115.17 37.6774 115.39 37.6227 115.555 37.6774L116.599 37.9508C116.654 37.9508 116.709 38.0602 116.654 38.1149C116.379 38.607 115.17 40.4116 112.368 40.1382C109.181 39.8101 109.511 37.5134 109.511 37.5134L110.555 37.4587Z" fill="#FF6C7E"/>
<path d="M106.16 62.8869C106.929 63.9258 108.028 64.3086 108.028 64.3086C108.028 64.3086 106.489 62.7775 105.885 61.9025C105.336 61.0823 106.215 60.4261 106.709 61.0823C107.863 62.6134 109.292 63.7618 109.292 63.7618C109.292 63.7618 107.369 61.3557 106.984 60.4807C106.709 59.8245 107.753 59.0043 108.413 60.4807C109.017 61.7385 110.226 63.0509 110.226 63.0509C110.226 63.0509 109.127 61.5197 108.687 59.8245C108.413 58.8402 109.786 59.059 110.006 59.6605C110.995 62.0666 111.984 62.8322 111.984 62.8322C111.984 62.8322 113.193 62.2306 113.193 61.8479C113.248 61.5744 112.039 61.4651 111.489 60.8635C111.05 60.3714 111.27 59.6058 111.544 59.7152C112.094 59.8792 112.478 60.098 113.193 60.1526C114.457 60.2073 114.731 60.3167 115.116 60.3167C115.72 60.3167 116.16 60.8635 115.995 61.4104C115.61 62.6681 115.061 63.9805 114.456 64.6367C113.138 66.1132 111.16 66.1679 109.127 66.0038C107.533 65.8945 105.116 63.8165 104.786 63.1603C104.566 62.5041 105.555 62.0666 106.16 62.8869Z" fill="#E7A387"/>
<path d="M125.06 56.2154C120.555 52.6609 119.236 44.0208 119.126 43.638L121.763 43.2005C121.763 43.2552 123.192 51.5672 126.873 54.5201L125.06 56.2154Z" fill="#E7A387"/>
<path d="M123.741 54.1373C123.741 54.1373 124.071 52.7156 127.038 53.2077C128.741 53.4811 131.049 52.8796 131.104 53.3718C131.104 53.8639 128.302 54.1373 128.302 54.1373C128.302 54.1373 131.708 53.9733 131.763 54.192C131.873 54.6295 130.609 55.2857 128.467 55.0123C128.467 55.0123 132.038 55.2857 131.983 55.6138C131.763 56.7075 128.027 55.8872 128.027 55.8872C128.027 55.8872 131.104 57.0903 131.104 57.309C131.104 58.184 128.412 57.0356 127.533 56.7622C125.445 56.106 127.917 57.6918 127.313 58.8402C127.038 59.3323 126.763 59.0589 126.489 58.4574C126.104 57.5278 124.511 57.0903 124.016 55.9966C123.741 55.4498 123.741 54.1373 123.741 54.1373Z" fill="#E7A387"/>
<path d="M122.533 45.2239C122.148 45.4426 119.95 46.591 119.566 46.8097C118.247 44.6224 117.752 42.3256 117.972 41.7788L119.675 38.8805C119.621 38.9352 121.379 39.2086 122.533 45.2239Z" fill="#F2293A"/>
<path d="M122.148 43.8568C121.873 43.9661 121.544 44.0755 121.269 44.1849C120.445 44.5676 119.62 44.9504 118.796 45.3332C119.016 45.8254 119.236 46.3175 119.565 46.8097C119.95 46.591 122.148 45.4426 122.533 45.2239C122.478 44.7317 122.368 44.2942 122.148 43.8568Z" fill="#FF6C7E"/>
</g>
<defs>
<clipPath id="clip0">
<rect width="140" height="129" fill="white" transform="translate(0.5)"/>
</clipPath>
</defs>
</svg>
