<svg width="22" height="22" viewBox="0 0 22 22" fill="none" xmlns="http://www.w3.org/2000/svg">
<path d="M10.56 8.49316C9.12916 8.49316 7.92004 9.67495 7.92004 11.0735C7.92004 12.472 9.12916 13.6538 10.56 13.6538C11.9909 13.6538 13.2 12.472 13.2 11.0735C13.2 9.67495 11.9909 8.49316 10.56 8.49316Z" fill="#9E9E9E"/>
<path d="M17.6 5.05276H15.3243L12.9422 2.72465C12.8606 2.64463 12.7636 2.58117 12.6568 2.53792C12.5501 2.49467 12.4356 2.47249 12.32 2.47266H8.80001C8.68443 2.47249 8.56995 2.49467 8.46318 2.53792C8.3564 2.58117 8.25943 2.64463 8.17785 2.72465L5.79569 5.05276H3.52001C2.54937 5.05276 1.76001 5.82422 1.76001 6.77284V16.2332C1.76001 17.1818 2.54937 17.9533 3.52001 17.9533H17.6C18.5707 17.9533 19.36 17.1818 19.36 16.2332V6.77284C19.36 5.82422 18.5707 5.05276 17.6 5.05276ZM10.56 15.3732C8.17521 15.3732 6.16001 13.4037 6.16001 11.073C6.16001 8.74232 8.17521 6.77284 10.56 6.77284C12.9448 6.77284 14.96 8.74232 14.96 11.073C14.96 13.4037 12.9448 15.3732 10.56 15.3732Z" fill="#9E9E9E"/>
</svg>
