<svg width="104" height="37" viewBox="0 0 104 37" fill="none" xmlns="http://www.w3.org/2000/svg">
<path d="M6.51276 6.87143V16.65H19.5383V23.5214H6.51276V37H0V0H21.267V6.87143H6.51276Z" fill="#120136"/>
<path d="M43.6062 37L38.1789 26.6929H32.1888V37H25.676V0H37.8573C40.3498 0 42.5074 0.546191 44.3299 1.63857C46.1792 2.73095 47.5996 4.28143 48.5913 6.29C49.5829 8.29857 50.0788 10.6771 50.0788 13.4257C50.0788 16.1743 49.5695 18.5529 48.5511 20.5614C47.5594 22.5348 46.139 24.05 44.2897 25.1071L50.6014 37H43.6062ZM43.4856 13.4257C43.4856 11.3467 42.9764 9.76095 41.9579 8.66857C40.9395 7.54095 39.452 6.97714 37.4955 6.97714H32.1888V19.8743H37.4955C39.452 19.8743 40.9395 19.3105 41.9579 18.1829C42.9764 17.0552 43.4856 15.4695 43.4856 13.4257Z" fill="#120136"/>
<path d="M77.0284 30.1286V37H55.2388V0H76.5058V6.87143H61.7113V14.9057H74.7771V21.5657H61.7113V30.1286H77.0284Z" fill="#120136"/>
<path d="M104 30.1286V37H82.2104V0H103.477V6.87143H88.683V14.9057H101.749V21.5657H88.683V30.1286H104Z" fill="#120136"/>
</svg>
