<svg width="24" height="24" viewBox="0 0 24 24" fill="none" xmlns="http://www.w3.org/2000/svg">
<path fill-rule="evenodd" clip-rule="evenodd" d="M11.9871 2C6.47143 2 2 6.47071 2 11.985C2 17.5021 6.47143 21.9736 11.9871 21.9736C17.5029 21.9736 21.9729 17.5014 21.9729 11.985C21.9729 6.47071 17.5029 2 11.9871 2ZM11.9871 20.9507C7.035 20.9507 3.02286 16.9364 3.02286 11.9843C3.02286 7.03429 7.035 3.02143 11.9871 3.02143C16.9379 3.02143 20.9507 7.03429 20.9507 11.9843C20.95 16.9364 16.9371 20.9507 11.9871 20.9507ZM12.1741 7.3C11.7076 7.3 11.3993 7.68945 11.3993 8.07485V12.732C11.3993 13.1986 11.7076 13.5069 12.1741 13.5069C12.6407 13.5069 12.949 13.1174 12.949 12.732V8.07485C12.949 7.60832 12.6407 7.3 12.1741 7.3ZM12.1741 16.6103C12.6021 16.6103 12.949 16.2634 12.949 15.8355C12.949 15.4076 12.6021 15.0606 12.1741 15.0606C11.7462 15.0606 11.3993 15.4076 11.3993 15.8355C11.3993 16.2634 11.7462 16.6103 12.1741 16.6103Z" fill="#25282B"/>
</svg>
