<svg width="164" height="25" viewBox="0 0 164 25" fill="none" xmlns="http://www.w3.org/2000/svg">
<path d="M55.5359 1.28235L59.1511 8.49352L66.3814 9.39492L61.4166 14.9475L62.7662 22.9159L55.5359 19.3103L48.3056 22.9159L49.6673 14.9475L44.6905 9.39492L51.9208 8.49352L55.5359 1.28235Z" fill="#EF6F2E"/>
<path d="M79.6375 1.28247L83.2526 8.49365L90.4829 9.39504L85.5181 14.9476L86.8678 22.916L79.6375 19.3104L72.4072 22.916L73.7689 14.9476L68.792 9.39504L76.0223 8.49365L79.6375 1.28247Z" fill="#EF6F2E"/>
<path d="M103.738 1.28247L107.354 8.49365L114.584 9.39504L109.619 14.9476L110.969 22.916L103.738 19.3104L96.5081 22.916L97.8698 14.9476L92.893 9.39504L100.123 8.49365L103.738 1.28247Z" fill="#EF6F2E"/>
<path d="M127.839 1.28247L131.455 8.49365L138.685 9.39504L133.72 14.9476L135.07 22.916L127.839 19.3104L120.609 22.916L121.971 14.9476L116.994 9.39504L124.224 8.49365L127.839 1.28247Z" fill="#EF6F2E"/>
<path d="M151.94 1.28247L155.555 8.49365L162.786 9.39504L157.821 14.9476L159.171 22.916L151.94 19.3104L144.71 22.916L146.072 14.9476L141.095 9.39504L148.325 8.49365L151.94 1.28247Z" fill="#EF6F2E"/>
<path d="M7.87759 20.802V17.46H0V14.5158L8.56721 2.10267H11.9092V14.2241H14.4555V17.46H11.9092V20.802H7.87759ZM7.87759 14.2241V8.12359L3.73986 14.2241H7.87759Z" fill="#1D2C4C"/>
<path d="M16.2488 20.802V16.5582H20.5456V20.802H16.2488Z" fill="#1D2C4C"/>
<path d="M29.7962 21.0938C27.5682 21.0938 25.8265 20.6252 24.571 19.688C23.3156 18.7331 22.6878 17.4069 22.6878 15.7094C22.6878 14.6131 22.9619 13.6671 23.5101 12.8714C24.0759 12.0756 24.8186 11.5098 25.7381 11.1738C24.9601 10.7848 24.3323 10.219 23.8549 9.47631C23.3952 8.71596 23.1653 7.85835 23.1653 6.90349C23.1653 5.31206 23.7576 4.06544 24.9424 3.16363C26.1448 2.26182 27.7627 1.81091 29.7962 1.81091C31.8297 1.81091 33.4477 2.26182 34.6501 3.16363C35.8525 4.06544 36.4537 5.31206 36.4537 6.90349C36.4537 7.87604 36.215 8.74248 35.7376 9.50283C35.2778 10.2632 34.659 10.8202 33.8809 11.1738C34.8004 11.5275 35.5342 12.1022 36.0824 12.8979C36.6306 13.6936 36.9046 14.6308 36.9046 15.7094C36.9046 17.4069 36.2769 18.7331 35.0214 19.688C33.766 20.6252 32.0243 21.0938 29.7962 21.0938ZM29.7962 9.76807C30.6981 9.76807 31.3965 9.55588 31.8916 9.1315C32.4044 8.68943 32.6608 8.09707 32.6608 7.3544C32.6608 6.61173 32.4044 6.02821 31.8916 5.60383C31.3965 5.17944 30.6981 4.96725 29.7962 4.96725C28.8944 4.96725 28.196 5.17944 27.7009 5.60383C27.2057 6.02821 26.9582 6.61173 26.9582 7.3544C26.9582 8.09707 27.2057 8.68943 27.7009 9.1315C28.196 9.55588 28.8944 9.76807 29.7962 9.76807ZM29.7962 17.9374C32.0243 17.9374 33.1383 17.0975 33.1383 15.4177C33.1383 13.7555 32.0243 12.9244 29.7962 12.9244C28.7176 12.9244 27.8865 13.1366 27.303 13.561C26.7372 13.9677 26.4542 14.5866 26.4542 15.4177C26.4542 16.2487 26.7372 16.8765 27.303 17.3008C27.8865 17.7252 28.7176 17.9374 29.7962 17.9374Z" fill="#1D2C4C"/>
</svg>
