<svg width="182" height="32" viewBox="0 0 182 32" fill="none" xmlns="http://www.w3.org/2000/svg">
<path d="M15.2941 2.26892L19.8823 11.4454L29.0588 12.5924L22.7576 19.6583L24.4705 29.7983L15.2941 25.2101L6.11761 29.7983L7.84584 19.6583L1.52937 12.5924L10.7058 11.4454L15.2941 2.26892Z" fill="#FFD000"/>
<path d="M53.5296 2.26892L58.1178 11.4454L67.2943 12.5924L60.9931 19.6583L62.7061 29.7983L53.5296 25.2101L44.3531 29.7983L46.0814 19.6583L39.7649 12.5924L48.9414 11.4454L53.5296 2.26892Z" fill="#FFD000"/>
<path d="M91.7646 2.26892L96.3528 11.4454L105.529 12.5924L99.2281 19.6583L100.941 29.7983L91.7646 25.2101L82.5881 29.7983L84.3164 19.6583L77.9999 12.5924L87.1764 11.4454L91.7646 2.26892Z" fill="#FFD000"/>
<path d="M130 2.26892L134.588 11.4454L143.764 12.5924L137.463 19.6583L139.176 29.7983L130 25.2101L120.823 29.7983L122.551 19.6583L116.235 12.5924L125.411 11.4454L130 2.26892Z" fill="#FFD000"/>
<path d="M166.706 2.26892L171.294 11.4454L180.47 12.5924L174.169 19.6583L175.882 29.7983L166.706 25.2101L157.529 29.7983L159.258 19.6583L152.941 12.5924L162.118 11.4454L166.706 2.26892Z" fill="#FFD000"/>
</svg>
