<svg width="45" height="45" viewBox="0 0 45 45" fill="none" xmlns="http://www.w3.org/2000/svg">
<path d="M27.1875 40.3125V36L29.625 36.4688C32.3437 37.0312 34.875 35.0625 35.0625 32.3438L35.625 26.25L38.3438 25.125C39.2812 24.75 39.6562 23.625 39.0938 22.6875L35.625 16.875C35.0625 9.75 31.0312 2.8125 20.625 2.8125C9.9375 2.8125 4.6875 10.6875 4.6875 18.75C4.6875 22.2188 5.90625 25.2188 7.78125 27.75C9.46875 30.0938 10.3125 32.9062 10.3125 35.7188V40.2188H27.1875V40.3125Z" fill="#F9E7C0"/>
<path d="M27.1875 40.3125V36L20.625 34.6875V40.3125H27.1875Z" fill="#EAC083"/>
<path d="M31.4062 21.5625C32.1829 21.5625 32.8125 20.9329 32.8125 20.1562C32.8125 19.3796 32.1829 18.75 31.4062 18.75C30.6296 18.75 30 19.3796 30 20.1562C30 20.9329 30.6296 21.5625 31.4062 21.5625Z" fill="#564E66"/>
<path d="M20.0625 2.8125C11.5312 2.8125 4.6875 9.65625 4.6875 18.1875C4.6875 28.5938 10.3125 28.875 10.3125 35.625L12.75 34.7812C14.7188 34.125 16.4062 32.625 17.1562 30.6562L19.7812 24.2812L25.3125 21.5625V15.9375C25.3125 15.9375 31.875 12.375 31.875 6.28125C29.0625 3.9375 24.0938 2.8125 20.0625 2.8125Z" fill="#564E66"/>
<path d="M19.6875 1.96875C19.125 1.96875 18.75 2.34375 18.75 2.90625V15.9375C18.75 16.5 19.125 16.875 19.6875 16.875C20.25 16.875 20.625 16.5 20.625 15.9375V2.90625C20.625 2.34375 20.25 1.96875 19.6875 1.96875Z" fill="#546E7A"/>
<path d="M34.5938 29.9063C27.1876 29.9063 24.9376 25.3125 24.8438 25.125C24.6563 24.6563 24.0938 24.4688 23.6251 24.6563C23.1563 24.8438 22.9688 25.4063 23.1563 25.875C23.2501 26.1563 25.9688 31.7813 34.5938 31.7813C35.1563 31.7813 35.5313 31.4063 35.5313 30.8438C35.5313 30.2813 35.0626 29.9063 34.5938 29.9063Z" fill="#546E7A"/>
<path d="M34.6875 32.8125C35.723 32.8125 36.5625 31.973 36.5625 30.9375C36.5625 29.902 35.723 29.0625 34.6875 29.0625C33.652 29.0625 32.8125 29.902 32.8125 30.9375C32.8125 31.973 33.652 32.8125 34.6875 32.8125Z" fill="#37474F"/>
<path d="M19.6875 28.125C23.3119 28.125 26.25 25.1869 26.25 21.5625C26.25 17.9381 23.3119 15 19.6875 15C16.0631 15 13.125 17.9381 13.125 21.5625C13.125 25.1869 16.0631 28.125 19.6875 28.125Z" fill="#37474F"/>
<path d="M19.6875 25.3125C21.7586 25.3125 23.4375 23.6336 23.4375 21.5625C23.4375 19.4914 21.7586 17.8125 19.6875 17.8125C17.6164 17.8125 15.9375 19.4914 15.9375 21.5625C15.9375 23.6336 17.6164 25.3125 19.6875 25.3125Z" fill="#546E7A"/>
</svg>
