<svg width="45" height="45" viewBox="0 0 45 45" fill="none" xmlns="http://www.w3.org/2000/svg">
<path d="M33.3515 43H5.64843C5.47645 43 5.31152 42.931 5.18992 42.8081C5.06832 42.6852 5 42.5186 5 42.3448V2.6552C5 2.48143 5.06832 2.31478 5.18992 2.1919C5.31152 2.06903 5.47645 2 5.64843 2H21.5608L34 14.5691V42.3448C34 42.5186 33.9316 42.6852 33.81 42.8081C33.6884 42.931 33.5235 43 33.3515 43Z" fill="#F9E7C0"/>
<path d="M21.0001 2L34 15H23.7632C22.2371 15 21 13.7629 21 12.2368V2H21.0001Z" fill="#EAC083"/>
<path d="M17.5835 9.72769H8.89069C8.39877 9.72769 8 9.34094 8 8.86385C8 8.38675 8.39877 8 8.89069 8H17.5835C18.0754 8 18.4742 8.38675 18.4742 8.86385C18.4742 9.34094 18.0754 9.72769 17.5835 9.72769ZM18.4742 14.5183C18.4742 14.0412 18.0754 13.6544 17.5835 13.6544H8.89069C8.39877 13.6544 8 14.0412 8 14.5183C8 14.9954 8.39877 15.3821 8.89069 15.3821H17.5835C18.0754 15.3821 18.4742 14.9954 18.4742 14.5183ZM18.4742 20.1728C18.4742 19.6957 18.0754 19.3089 17.5835 19.3089H8.89069C8.39877 19.3089 8 19.6957 8 20.1728C8 20.6499 8.39877 21.0366 8.89069 21.0366H17.5835C18.0754 21.0366 18.4742 20.6499 18.4742 20.1728ZM25.9996 25.8272C25.9996 25.3502 25.6008 24.9634 25.1089 24.9634H8.89069C8.39877 24.9634 8 25.3501 8 25.8272C8 26.3043 8.39877 26.6911 8.89069 26.6911H25.1089C25.6008 26.6911 25.9996 26.3043 25.9996 25.8272ZM29 20.1728C29 19.6957 28.6012 19.3089 28.1093 19.3089H22.1086C21.6168 19.3089 21.2179 19.6957 21.2179 20.1728C21.2179 20.6499 21.6167 21.0366 22.1086 21.0366H28.1093C28.6012 21.0366 29 20.6499 29 20.1728ZM22.7725 31.4817C22.7725 31.0047 22.3737 30.6179 21.8818 30.6179H8.89069C8.39877 30.6179 8 31.0046 8 31.4817C8 31.9588 8.39877 32.3456 8.89069 32.3456H21.8818C22.3737 32.3455 22.7725 31.9587 22.7725 31.4817ZM28.071 37.1362C28.071 36.6591 27.6722 36.2723 27.1803 36.2723H8.89069C8.39877 36.2723 8 36.6591 8 37.1362C8 37.6132 8.39877 38 8.89069 38H27.1803C27.6721 38 28.071 37.6132 28.071 37.1362Z" fill="#564E66"/>
<circle cx="33.5" cy="30.5" r="5.5" fill="white"/>
<path d="M33.5 24C29.8786 24 27 26.8786 27 30.5C27 34.1214 29.8786 37 33.5 37C37.1214 37 40 34.1214 40 30.5C40 26.8786 37.1214 24 33.5 24ZM36.3786 33.3786C36.1734 33.5837 35.8408 33.5837 35.6357 33.3786L33.5 31.2429L31.3643 33.3786C31.1592 33.5837 30.8266 33.5837 30.6214 33.3786C30.4163 33.1734 30.4163 32.8408 30.6214 32.6357L32.7571 30.5L30.6214 28.3643C30.4163 28.1592 30.4163 27.8266 30.6214 27.6214C30.8266 27.4163 31.1592 27.4163 31.3643 27.6214L33.5 29.7571L35.6357 27.6214C35.8408 27.4163 36.1734 27.4163 36.3786 27.6214C36.5837 27.8266 36.5837 28.1592 36.3786 28.3643L34.2429 30.5L36.3786 32.6357C36.5837 32.8408 36.5837 33.1734 36.3786 33.3786Z" fill="#FD4B4B"/>
</svg>
