<svg width="40" height="40" viewBox="0 0 40 40" fill="none" xmlns="http://www.w3.org/2000/svg">
<path fill-rule="evenodd" clip-rule="evenodd" d="M8.75 2.5C9.08152 2.5 9.39946 2.6317 9.63388 2.86612C9.8683 3.10054 10 3.41848 10 3.75V36.25C10 36.5815 9.8683 36.8995 9.63388 37.1339C9.39946 37.3683 9.08152 37.5 8.75 37.5C8.41848 37.5 8.10054 37.3683 7.86612 37.1339C7.6317 36.8995 7.5 36.5815 7.5 36.25V3.75C7.5 3.41848 7.6317 3.10054 7.86612 2.86612C8.10054 2.6317 8.41848 2.5 8.75 2.5Z" fill="#564E66"/>
<path fill-rule="evenodd" clip-rule="evenodd" d="M9.405 6.395C11.8375 4.7725 13.37 3.75 16.25 3.75C17.8825 3.75 19.0975 4.5625 19.9875 5.155L20.0675 5.21C21.045 5.86 21.6825 6.25 22.5 6.25C22.92 6.25 23.39 6.145 23.9675 5.935C24.469 5.74463 24.9635 5.53616 25.45 5.31C25.595 5.2425 25.7425 5.1775 25.9 5.11C27.325 4.4725 29.095 3.75 31.25 3.75C31.5815 3.75 31.8995 3.8817 32.1339 4.11612C32.3683 4.35054 32.5 4.66848 32.5 5V20C32.5 20.3315 32.3683 20.6495 32.1339 20.8839C31.8995 21.1183 31.5815 21.25 31.25 21.25C29.655 21.25 28.3 21.775 26.915 22.3925L26.5175 22.5675C25.9675 22.8175 25.385 23.08 24.8225 23.285C24.0815 23.5747 23.2954 23.7321 22.5 23.75C20.8675 23.75 19.6525 22.9375 18.7625 22.345L18.6825 22.29C17.705 21.64 17.0675 21.25 16.25 21.25C14.1675 21.25 13.205 21.865 10.6925 23.54C10.5043 23.6653 10.2856 23.7371 10.0597 23.7479C9.83388 23.7587 9.60933 23.7081 9.41 23.6014C9.21066 23.4946 9.04401 23.3358 8.92779 23.1419C8.81156 22.9479 8.75012 22.7261 8.75 22.5V7.5C8.75011 7.29415 8.80105 7.0915 8.89831 6.91007C8.99556 6.72865 9.13612 6.57404 9.3075 6.46L9.4075 6.395H9.405Z" fill="#F09020"/>
</svg>
