<svg width="70" height="70" viewBox="0 0 70 70" fill="none" xmlns="http://www.w3.org/2000/svg">
<g clip-path="url(#clip0)">
<path d="M20.7112 46.7196C13.4703 62.4494 6.30188 80.7046 3.40554 81.1375C3.26072 81.7147 3.0435 82.292 2.89868 82.8692C3.26072 83.4464 3.9124 84.6009 4.05722 84.6009C6.88115 84.6009 11.8049 82.7249 18.8286 67.2116C22.7386 58.4808 25.2005 52.7806 25.635 49.9665L20.7112 46.7196Z" fill="#E5A185"/>
<path d="M10.8635 80.7046C13.1082 78.1792 15.7873 73.9942 18.8284 67.2838C22.7385 58.553 25.2004 52.8528 25.6348 50.0387L20.7111 46.431C18.1768 47.5854 9.77738 71.2523 6.37418 77.0247C7.74994 78.107 9.56015 79.5501 10.8635 80.7046Z" fill="#4C2518"/>
<path d="M52.7881 47.2968C52.7881 47.2968 61.9116 65.1913 60.7531 72.6232L51.7744 72.9118C51.7744 72.9118 48.4436 61.5835 49.5297 58.4809C50.5435 55.306 52.7881 47.2968 52.7881 47.2968Z" fill="#401F16"/>
<path d="M29.7623 42.3181C29.7623 42.3181 33.0207 40.875 37.148 41.0193C41.2753 41.1636 43.6648 42.3181 44.0992 43.1118C44.4613 43.9777 43.882 48.6678 43.882 48.6678L29.0382 50.3995L29.7623 42.3181Z" fill="#5D3E34"/>
<path d="M32.7308 139.799C33.8169 118.73 30.7033 120.823 30.9206 118.009C31.0654 115.195 32.3687 102.351 32.8756 99.537C33.1652 98.0939 34.0341 97.8053 34.3962 98.9598C34.903 100.547 36.5684 111.876 39.6096 120.39C40.044 121.689 40.4061 122.987 40.9129 124.286C42.1439 127.389 44.2437 134.388 45.8367 139.799H53.2948C53.2224 137.418 53.0776 134.893 52.9327 133.378C51.9914 125.296 48.8779 119.307 48.0814 116.854C47.5745 115.483 47.9366 105.382 47.7917 99.3206C47.7193 94.1976 47.5021 89.0024 46.6332 83.9515C45.9091 79.9109 52.8603 47.2968 52.8603 47.2968C51.6294 46.431 50.326 45.7094 48.8055 45.2765C46.4884 44.6271 31.2826 43.4726 23.6797 45.2765C22.666 45.493 22.4488 45.7816 21.5075 46.2867C21.5075 46.2867 21.435 78.9007 21.6523 82.5806C21.8695 85.6111 21.9419 88.6416 21.6523 91.6721C21.435 94.1975 20.6385 96.5787 20.4213 99.1041C19.3352 112.958 23.1004 126.379 25.3451 139.872H32.7308V139.799Z" fill="#E79D84"/>
<path d="M32.7311 139.367C33.7448 118.802 30.7036 120.823 30.8485 118.081C30.9933 115.267 32.2966 102.423 32.8035 99.6092C33.0931 98.1661 33.962 97.8774 34.3241 99.0319C34.8309 100.619 36.4963 111.948 39.5375 120.462C39.9719 121.761 40.334 123.06 40.8408 124.358C41.9994 127.389 44.0992 134.099 45.6198 139.439H53.1503C53.0779 137.202 52.9331 134.893 52.7883 133.45C51.8469 125.368 48.7334 119.38 47.9369 116.926C47.43 115.555 47.7921 105.454 47.6473 99.3927C47.5748 94.2697 47.3576 89.0745 46.4887 84.0237C45.7646 79.983 52.7158 47.369 52.7158 47.369C51.4849 46.5031 50.1816 45.7815 48.661 45.3486C47.7921 45.1322 45.0405 44.7714 41.5649 44.5549C40.696 46.4309 39.2479 47.874 36.9308 48.2348C35.193 48.4513 33.0931 48.0905 31.645 47.0082C30.7761 46.3588 30.2692 45.4929 29.8347 44.5549C27.5177 44.6992 25.273 44.9878 23.5352 45.3486C22.5215 45.5651 21.5802 45.998 20.6389 46.4309C20.6389 46.4309 21.2905 78.9728 21.5078 82.6527C21.725 85.6832 21.7974 88.7138 21.5078 91.7443C21.2905 94.2697 20.494 96.6508 20.2768 99.1762C19.2631 112.886 22.8111 126.09 25.1282 139.439H32.7311V139.367Z" fill="#EFEBE3"/>
<path d="M25.7074 142.902H32.5138C34.1068 118.586 30.7036 121.039 30.8484 118.081C30.9933 115.267 32.2966 102.423 32.8035 99.6092C33.0931 98.1661 33.962 97.8775 34.3241 99.0319C34.8309 100.619 36.4963 111.948 39.5375 120.462C39.9719 121.761 40.334 123.06 40.8408 124.358C42.289 128.11 45.1129 137.491 46.6335 142.902H53.2951C53.2227 139.799 53.0779 135.687 52.8606 133.378C51.9193 125.296 48.8058 119.307 48.0093 116.854C47.5024 115.483 47.8645 105.382 47.7196 99.3206C47.6472 94.1976 47.43 89.0024 46.5611 83.9516C45.837 79.9109 52.7882 47.2968 52.7882 47.2968C51.5573 46.431 50.2539 45.7094 48.7334 45.2765C47.8645 45.06 45.1129 44.6993 41.6373 44.4828C40.7684 46.3588 39.3202 47.8019 37.0032 48.1627C35.2654 48.3792 33.1655 48.0184 31.7173 46.9361C30.8484 46.2867 30.3416 45.4208 29.9071 44.4828C28.2417 44.5549 26.6488 44.7714 25.2006 44.9879C25.1282 44.9879 25.1282 45.06 25.0558 45.06C23.8972 45.8537 22.9559 46.9361 21.9422 47.9462C21.8698 48.8121 21.6526 49.7501 21.5802 50.616C21.4353 52.0591 21.4353 53.5743 21.3629 55.0174C21.3629 55.4503 21.1457 55.8111 20.9285 56.0997C21.1457 65.985 21.4353 80.1995 21.5802 82.5085C21.7974 85.539 21.8698 88.5695 21.5802 91.6C21.3629 94.1254 20.5664 96.5065 20.3492 99.0319C19.2631 113.174 23.1731 126.812 25.4178 140.593C25.5626 141.17 25.635 141.964 25.7074 142.902Z" fill="#EFEBE3"/>
<path d="M32.2966 53.5021C32.1517 53.2857 32.0793 53.1414 31.9345 52.9249C31.8621 52.7806 31.7897 52.6363 31.7897 52.4198C30.8484 50.9046 29.8347 49.5336 28.3865 48.1627C27.59 47.369 27.952 46.3588 28.6761 45.8537C28.5313 45.4208 28.4589 44.9878 28.3865 44.5549C26.6487 44.6992 24.9833 44.9157 23.6075 45.2765C22.5938 45.4929 21.6525 45.9259 20.7112 46.3588C20.7112 46.3588 21.0008 73.5612 20.1319 81.7869C19.9147 84.0958 19.3354 86.1162 19.1906 89.7239C20.7836 91.7443 28.7485 91.6 30.2691 91.2392C30.3415 80.5602 31.138 69.0876 32.5138 58.4808C32.6586 57.2542 32.8034 56.3162 33.0206 55.0895C33.0206 55.0174 32.5138 53.8629 32.2966 53.5021Z" fill="#8E6651"/>
<path d="M48.2988 79.8387C49.6021 71.3244 52.7881 47.2968 52.7881 47.2968C51.5572 46.431 50.2538 45.7094 48.7332 45.2765C48.0816 45.06 46.3438 44.8435 44.0267 44.6992C44.0991 45.2765 44.0267 45.8537 43.8095 46.3588C43.6646 46.6474 43.5198 47.0082 43.375 47.2968C43.3026 47.369 43.0854 47.9462 43.2302 47.6576C43.1578 47.8741 43.013 48.0905 42.8682 48.2348C42.7957 48.3791 42.7233 48.4513 42.6509 48.5956C42.5061 48.8121 42.3613 48.9564 42.2165 49.0285C41.6372 49.7501 41.0579 50.3995 40.4063 51.0489C39.3201 52.1312 37.7271 53.1414 36.8582 54.4402C36.7134 54.7288 36.4962 54.9452 36.2066 55.0896C36.1342 55.5225 36.0617 55.9554 35.9893 56.3883C34.3963 67.7167 33.5999 80.0552 33.5999 91.5278C41.6372 92.7545 45.7645 92.3937 49.5297 90.8063C49.3849 88.4973 48.0092 82.0755 48.2988 79.8387Z" fill="#8E6651"/>
<path d="M33.093 55.0174C33.093 55.0174 30.3415 51.121 25.997 52.7085C25.997 52.7085 23.8972 45.06 29.8347 42.246C29.7622 42.3181 29.3278 47.2968 33.093 55.0174Z" fill="#6C493B"/>
<path d="M36.2066 55.0174C38.9582 50.3995 44.1716 47.9462 44.0268 43.0397C44.0268 43.0397 46.9231 48.307 43.7371 54.2237C43.8095 54.2959 42.7234 51.7704 36.2066 55.0174Z" fill="#6C493B"/>
<path d="M21.5075 56.9656V58.1922L30.1965 58.4087V57.3985L21.5075 56.9656Z" fill="#BF9C8C"/>
<path d="M46.9232 57.7593L46.7783 58.9859L38.4514 58.4808L38.5238 57.4707L46.9232 57.7593Z" fill="#BF9C8C"/>
<path d="M37.148 36.185L36.4963 36.1128C35.1929 35.9685 33.962 36.9787 33.8172 38.2775L32.6586 45.2043C32.5138 46.5031 33.962 47.7298 35.3377 47.8741L35.9894 47.9462C37.2928 48.0905 38.9582 46.7196 39.103 45.3487L39.3202 38.7826C39.465 37.5559 38.4513 36.3293 37.148 36.185Z" fill="#E79D84"/>
<path d="M37.1479 36.185L36.4962 36.1128C35.1928 35.9685 33.9619 36.9787 33.8171 38.2775L33.2378 42.246C34.2515 42.6789 35.1928 42.9675 36.3514 43.0397C37.5099 43.1119 38.3788 42.8954 39.2477 42.4625L39.3201 38.8547C39.4649 37.5559 38.4512 36.3293 37.1479 36.185Z" fill="#E09178"/>
<path d="M24.4765 27.3099C23.3903 27.5264 22.6663 28.8973 22.9559 30.4126C23.2455 31.9278 24.3317 32.938 25.4902 32.7215C26.5763 32.5051 27.3004 31.1341 27.0108 29.6189C26.7211 28.1036 25.5626 27.0934 24.4765 27.3099Z" fill="#E09178"/>
<path d="M37.148 14.8992L33.3827 14.9714C28.3866 15.1157 24.4765 20.7438 24.5489 25.6503L24.6937 32.4329C24.8385 37.4116 29.0382 41.3801 33.962 41.308L37.7273 41.2358C42.7234 41.0915 46.7059 36.9787 46.5611 32L46.4163 25.2174C46.3439 20.2387 42.1442 14.8271 37.148 14.8992Z" fill="#E79D84"/>
<path d="M47.8645 14.4663C47.8645 14.4663 48.5886 13.7448 48.4438 13.5283C47.9369 13.384 47.5749 13.6005 47.2852 13.7448C47.6473 12.9511 47.8645 12.013 47.7197 11.1472C46.9956 11.1472 46.3439 11.7966 46.2715 12.5181C46.4163 11.9409 46.2715 11.2915 45.9095 10.7864C45.8371 10.7143 45.8371 10.6421 45.7647 10.6421C45.6198 10.6421 45.5474 10.7143 45.4026 10.8586C45.1854 11.1472 45.113 12.0852 45.113 12.2295C45.1854 12.3017 45.1854 12.3017 45.113 12.3017C45.113 12.3017 45.113 12.3017 45.113 12.2295C44.7509 11.9409 42.9407 10.8586 41.2029 10.2092C38.0169 8.98254 34.5413 9.199 34.6137 9.27116C34.831 9.99271 35.1206 10.7143 35.4826 11.3637C33.5276 9.63193 30.8485 8.76607 28.2418 9.05469C28.3142 9.70409 28.3866 10.3535 28.6762 10.9307C28.8935 11.508 29.2555 12.013 29.8348 12.3017C27.8073 11.2193 25.6351 10.3535 23.3904 10.6421C23.2456 10.6421 23.1732 10.7143 23.1008 10.7864C23.0284 10.8586 23.0284 10.9307 23.0284 11.075C23.0284 12.446 23.3904 13.8891 24.1869 15.0436C23.8249 14.6828 23.5352 14.5385 23.2456 14.4663C22.7387 15.4765 22.7387 16.631 22.8835 17.7854C23.2456 20.5273 23.7525 22.4034 24.2593 23.5578C24.1869 25.939 24.6214 27.815 24.6214 27.8871C24.6214 27.8871 24.6214 27.7428 24.6214 27.4542V27.8871C24.6938 27.8871 25.7075 21.6097 27.9521 20.0222C30.8485 18.0019 30.6313 20.7438 34.5413 20.0944C37.148 19.6615 40.7685 17.569 43.0131 21.754C43.6648 22.9806 43.4476 25.506 43.9544 26.6605C44.3889 27.6707 45.475 28.1036 46.706 28.3201L46.5611 26.8048C46.5611 26.8048 46.5611 25.5782 46.5611 24.1351C48.4438 21.5375 48.4438 16.7753 47.7921 14.5385C47.6473 14.4663 47.8645 14.4663 47.8645 14.4663Z" fill="#4C2518"/>
<path d="M47.7919 26.7327C46.7057 26.444 45.4748 27.3821 45.1128 28.8252C44.7507 30.2683 45.2576 31.7114 46.3437 32C47.4298 32.2886 48.6608 31.3506 49.0228 29.9075C49.4573 28.4644 48.878 27.0213 47.7919 26.7327Z" fill="#E79D84"/>
<path d="M47.8642 62.4494C47.8642 62.4494 55.1775 62.6658 58.4358 67.7888C61.477 72.5511 60.6081 72.984 60.6081 72.984C60.6081 72.984 50.6881 79.4058 45.2575 66.8508C42.4336 60.2847 47.8642 62.4494 47.8642 62.4494Z" fill="#4C2518"/>
<path d="M46.9232 71.2523C46.9232 71.2523 49.3127 70.8915 50.3264 69.1598C51.4125 67.3559 51.1229 63.8924 49.8195 62.0886C49.023 61.9443 46.9232 61.6556 46.9232 61.6556C46.9232 61.6556 42.5063 60.2847 45.3302 66.8508C45.9819 68.4382 46.0543 70.2421 46.9232 71.2523Z" fill="#BF9C8C"/>
<path d="M47.8642 62.4494C47.8642 62.4494 48.2263 60.0683 46.416 59.9239C44.6782 59.8518 43.3749 59.0581 42.0715 58.8416C40.7682 58.6252 41.1302 59.7796 39.682 59.7796C38.2339 59.7075 37.6546 59.7075 37.6546 59.7075C37.6546 59.7075 36.7857 61.1506 38.0166 61.8721C39.2476 62.5937 39.682 62.2329 39.682 62.2329C39.682 62.2329 39.32 62.8823 39.8993 63.1709C40.4785 63.4595 40.4785 63.4595 40.4785 63.4595C40.4785 63.4595 39.8993 63.5317 40.1165 64.5419C40.3337 65.552 40.9854 65.8407 40.9854 65.8407C40.9854 65.8407 40.6958 66.49 40.8406 66.9951C41.0578 67.5002 41.4199 67.6445 41.4199 67.6445C41.4199 67.6445 41.275 68.1496 41.3474 68.4382C41.4923 68.6547 42.6508 69.5206 42.6508 69.5206H46.9953C46.9953 69.5206 47.7194 68.5825 47.5022 68.0053C47.5022 68.0053 48.7331 66.2736 48.7331 66.0571C48.7331 65.9128 48.5159 65.9128 48.4435 65.4799C48.3711 65.0469 49.24 64.4697 49.0952 64.0368C48.9503 63.6038 47.8642 62.4494 47.8642 62.4494Z" fill="#D78C74"/>
<path d="M47.8642 62.4494C47.8642 62.4494 48.2263 60.0683 46.416 59.9239C44.6782 59.8518 43.3749 59.0581 42.0715 58.8416C40.7682 58.6252 41.1302 59.7796 39.682 59.7796C38.2339 59.7075 37.6546 59.7075 37.6546 59.7075C37.6546 59.7075 36.7857 61.1506 38.0166 61.8721C39.2476 62.5937 39.682 62.2329 39.682 62.2329C39.682 62.2329 39.32 62.8823 39.8993 63.1709C40.4785 63.4595 40.4785 63.4595 40.4785 63.4595C40.4785 63.4595 39.8993 63.5317 40.1165 64.5419C40.3337 65.552 40.9854 65.8406 40.9854 65.8406C40.9854 65.8406 40.6958 66.49 40.8406 66.9951C41.0578 67.5002 41.4199 67.6445 41.4199 67.6445C41.4199 67.6445 40.8406 68.5825 40.913 68.8711C40.9854 69.1598 42.1439 69.6649 42.1439 69.6649L47.5746 69.3762C47.5746 69.3762 48.3711 68.4382 48.1539 67.861C48.1539 67.861 48.6607 66.2736 48.6607 66.0571C48.6607 65.9128 48.4435 65.9128 48.3711 65.4799C48.2987 65.0469 49.1676 64.4697 49.0228 64.0368C48.9503 63.5317 47.8642 62.4494 47.8642 62.4494Z" fill="#E5A185"/>
<path d="M37.5824 33.3709H30.1968C29.7623 33.3709 29.4727 33.876 29.6175 34.3089C30.4864 36.4014 32.0794 37.8445 33.962 37.8445C35.7722 37.8445 37.3652 36.4014 38.1617 34.3089C38.3065 33.876 38.0169 33.3709 37.5824 33.3709Z" fill="white"/>
<path d="M28.4589 26.5162C27.7348 26.444 27.1555 27.3099 27.0831 28.4644C27.0107 29.6188 27.5176 30.629 28.2416 30.7012C28.9657 30.7733 29.545 29.9075 29.6174 28.753C29.6898 27.5985 29.183 26.5883 28.4589 26.5162Z" fill="#4C2518"/>
<path d="M39.2476 26.3719C38.5236 26.2997 37.9443 27.1656 37.7995 28.3201C37.6547 29.4745 38.2339 30.5569 38.958 30.629C39.6821 30.7012 40.2614 29.8353 40.4062 28.6808C40.4786 27.5263 39.9717 26.5162 39.2476 26.3719Z" fill="#4C2518"/>
</g>
<defs>
<clipPath id="clip0">
<path d="M0 4C0 1.79086 1.79086 0 4 0H66C68.2091 0 70 1.79086 70 4V66C70 68.2091 68.2091 70 66 70H4C1.79086 70 0 68.2091 0 66V4Z" fill="white"/>
</clipPath>
</defs>
</svg>
