<svg width="70" height="70" viewBox="0 0 70 70" fill="none" xmlns="http://www.w3.org/2000/svg">
<g clip-path="url(#clip0)">
<path d="M35.7112 46.7196C28.4703 62.4494 21.3019 80.7046 18.4056 81.1375C18.2607 81.7147 18.0435 82.292 17.8987 82.8692C18.2607 83.4464 18.9124 84.6009 19.0572 84.6009C21.8812 84.6009 26.8049 82.7249 33.8286 67.2116C37.7386 58.4808 40.2005 52.7806 40.635 49.9665L35.7112 46.7196Z" fill="#E5A185"/>
<path d="M25.8635 80.7046C28.1082 78.1792 30.7873 73.9942 33.8284 67.2838C37.7385 58.553 40.2004 52.8528 40.6348 50.0387L35.7111 46.431C33.1768 47.5854 24.7774 71.2523 21.3742 77.0247C22.7499 78.107 24.5601 79.5501 25.8635 80.7046Z" fill="#4C2518"/>
<path d="M67.7881 47.2968C67.7881 47.2968 76.9116 65.1913 75.7531 72.6232L66.7744 72.9118C66.7744 72.9118 63.4436 61.5835 64.5297 58.4809C65.5435 55.306 67.7881 47.2968 67.7881 47.2968Z" fill="#401F16"/>
<path d="M44.7623 42.3181C44.7623 42.3181 48.0207 40.875 52.148 41.0193C56.2753 41.1636 58.6648 42.3181 59.0992 43.1118C59.4613 43.9777 58.882 48.6678 58.882 48.6678L44.0383 50.3995L44.7623 42.3181Z" fill="#5D3E34"/>
<path d="M47.7308 139.799C48.8169 118.73 45.7033 120.823 45.9206 118.009C46.0654 115.195 47.3687 102.351 47.8756 99.537C48.1652 98.0939 49.0341 97.8053 49.3962 98.9598C49.903 100.547 51.5684 111.876 54.6096 120.39C55.044 121.689 55.4061 122.987 55.9129 124.286C57.1439 127.389 59.2437 134.388 60.8367 139.799H68.2948C68.2224 137.418 68.0776 134.893 67.9327 133.378C66.9914 125.296 63.8779 119.307 63.0814 116.854C62.5745 115.483 62.9366 105.382 62.7917 99.3206C62.7193 94.1976 62.5021 89.0024 61.6332 83.9515C60.9091 79.9109 67.8603 47.2968 67.8603 47.2968C66.6294 46.431 65.326 45.7094 63.8055 45.2765C61.4884 44.6271 46.2826 43.4726 38.6797 45.2765C37.666 45.493 37.4488 45.7816 36.5075 46.2867C36.5075 46.2867 36.435 78.9007 36.6523 82.5806C36.8695 85.6111 36.9419 88.6416 36.6523 91.6721C36.435 94.1975 35.6385 96.5787 35.4213 99.1041C34.3352 112.958 38.1004 126.379 40.3451 139.872H47.7308V139.799Z" fill="#E09178"/>
<path d="M47.7311 139.367C48.7448 118.802 45.7036 120.823 45.8485 118.081C45.9933 115.267 47.2966 102.423 47.8035 99.6092C48.0931 98.1661 48.962 97.8774 49.3241 99.0319C49.8309 100.619 51.4963 111.948 54.5375 120.462C54.9719 121.761 55.334 123.06 55.8408 124.358C56.9994 127.389 59.0992 134.099 60.6198 139.439H68.1503C68.0779 137.202 67.9331 134.893 67.7883 133.45C66.8469 125.368 63.7334 119.38 62.9369 116.926C62.43 115.555 62.7921 105.454 62.6473 99.3927C62.5748 94.2697 62.3576 89.0745 61.4887 84.0237C60.7646 79.983 67.7158 47.369 67.7158 47.369C66.4849 46.5031 65.1816 45.7815 63.661 45.3486C62.7921 45.1322 60.0405 44.7714 56.5649 44.5549C55.696 46.4309 54.2479 47.874 51.9308 48.2348C50.193 48.4513 48.0931 48.0905 46.645 47.0082C45.7761 46.3588 45.2692 45.4929 44.8347 44.5549C42.5177 44.6992 40.273 44.9878 38.5352 45.3486C37.5215 45.5651 36.5802 45.998 35.6389 46.4309C35.6389 46.4309 36.2905 78.9728 36.5078 82.6527C36.725 85.6832 36.7974 88.7138 36.5078 91.7443C36.2905 94.2697 35.494 96.6508 35.2768 99.1762C34.2631 112.886 37.8111 126.09 40.1282 139.439H47.7311V139.367Z" fill="#EFEBE3"/>
<path d="M40.7074 142.902H47.5138C49.1068 118.586 45.7036 121.039 45.8484 118.081C45.9933 115.267 47.2966 102.423 47.8035 99.6092C48.0931 98.1661 48.962 97.8775 49.3241 99.0319C49.8309 100.619 51.4963 111.948 54.5375 120.462C54.9719 121.761 55.334 123.06 55.8408 124.358C57.289 128.11 60.1129 137.491 61.6335 142.902H68.2951C68.2227 139.799 68.0779 135.687 67.8606 133.378C66.9193 125.296 63.8058 119.307 63.0093 116.854C62.5024 115.483 62.8645 105.382 62.7196 99.3206C62.6472 94.1976 62.43 89.0024 61.5611 83.9516C60.837 79.9109 67.7882 47.2968 67.7882 47.2968C66.5573 46.431 65.2539 45.7094 63.7334 45.2765C62.8645 45.06 60.1129 44.6993 56.6373 44.4828C55.7684 46.3588 54.3202 47.8019 52.0032 48.1627C50.2654 48.3792 48.1655 48.0184 46.7173 46.9361C45.8484 46.2867 45.3416 45.4208 44.9071 44.4828C43.2417 44.5549 41.6488 44.7714 40.2006 44.9879C40.1282 44.9879 40.1282 45.06 40.0558 45.06C38.8972 45.8537 37.9559 46.9361 36.9422 47.9462C36.8698 48.8121 36.6526 49.7501 36.5802 50.616C36.4353 52.0591 36.4353 53.5743 36.3629 55.0174C36.3629 55.4503 36.1457 55.8111 35.9285 56.0997C36.1457 65.985 36.4353 80.1995 36.5802 82.5085C36.7974 85.539 36.8698 88.5695 36.5802 91.6C36.3629 94.1254 35.5664 96.5065 35.3492 99.0319C34.2631 113.174 38.1731 126.812 40.4178 140.593C40.5626 141.17 40.635 141.964 40.7074 142.902Z" fill="#EFEBE3"/>
<path d="M47.2966 53.5021C47.1517 53.2857 47.0793 53.1414 46.9345 52.9249C46.8621 52.7806 46.7897 52.6363 46.7897 52.4198C45.8484 50.9046 44.8347 49.5336 43.3865 48.1627C42.59 47.369 42.952 46.3588 43.6761 45.8537C43.5313 45.4208 43.4589 44.9878 43.3865 44.5549C41.6487 44.6992 39.9833 44.9157 38.6075 45.2765C37.5938 45.4929 36.6525 45.9259 35.7112 46.3588C35.7112 46.3588 36.0008 73.5612 35.1319 81.7869C34.9147 84.0958 34.3354 86.1162 34.1906 89.7239C35.7836 91.7443 43.7485 91.6 45.2691 91.2392C45.3415 80.5602 46.138 69.0876 47.5138 58.4808C47.6586 57.2542 47.8034 56.3162 48.0206 55.0895C48.0206 55.0174 47.5138 53.8629 47.2966 53.5021Z" fill="#8E6651"/>
<path d="M63.2988 79.8387C64.6021 71.3244 67.7881 47.2968 67.7881 47.2968C66.5572 46.431 65.2538 45.7094 63.7332 45.2765C63.0816 45.06 61.3438 44.8435 59.0267 44.6992C59.0991 45.2765 59.0267 45.8537 58.8095 46.3588C58.6646 46.6474 58.5198 47.0082 58.375 47.2968C58.3026 47.369 58.0854 47.9462 58.2302 47.6576C58.1578 47.8741 58.013 48.0905 57.8682 48.2348C57.7957 48.3791 57.7233 48.4513 57.6509 48.5956C57.5061 48.8121 57.3613 48.9564 57.2165 49.0285C56.6372 49.7501 56.0579 50.3995 55.4063 51.0489C54.3201 52.1312 52.7271 53.1414 51.8582 54.4402C51.7134 54.7288 51.4962 54.9452 51.2066 55.0896C51.1342 55.5225 51.0617 55.9554 50.9893 56.3883C49.3963 67.7167 48.5999 80.0552 48.5999 91.5278C56.6372 92.7545 60.7645 92.3937 64.5297 90.8063C64.3849 88.4973 63.0092 82.0755 63.2988 79.8387Z" fill="#8E6651"/>
<path d="M48.0931 55.0174C48.0931 55.0174 45.3415 51.121 40.997 52.7085C40.997 52.7085 38.8972 45.06 44.8347 42.246C44.7623 42.3181 44.3278 47.2968 48.0931 55.0174Z" fill="#6C493B"/>
<path d="M51.2066 55.0174C53.9582 50.3995 59.1716 47.9462 59.0268 43.0397C59.0268 43.0397 61.9231 48.307 58.7371 54.2237C58.8095 54.2959 57.7234 51.7704 51.2066 55.0174Z" fill="#6C493B"/>
<path d="M36.5075 56.9656V58.1922L45.1965 58.4087V57.3985L36.5075 56.9656Z" fill="#BF9C8C"/>
<path d="M61.9232 57.7593L61.7783 58.9859L53.4514 58.4808L53.5238 57.4707L61.9232 57.7593Z" fill="#BF9C8C"/>
<path d="M52.148 36.185L51.4963 36.1128C50.1929 35.9685 48.962 36.9787 48.8172 38.2775L47.6586 45.2043C47.5138 46.5031 48.962 47.7298 50.3377 47.8741L50.9894 47.9462C52.2928 48.0905 53.9582 46.7196 54.103 45.3487L54.3202 38.7826C54.465 37.5559 53.4513 36.3293 52.148 36.185Z" fill="#E09178"/>
<path d="M39.4765 27.3099C38.3903 27.5264 37.6663 28.8973 37.9559 30.4126C38.2455 31.9278 39.3317 32.938 40.4902 32.7215C41.5763 32.5051 42.3004 31.1341 42.0108 29.6189C41.7211 28.1036 40.5626 27.0934 39.4765 27.3099Z" fill="#E09178"/>
<path d="M52.148 14.8992L48.3827 14.9714C43.3866 15.1157 39.4765 20.7438 39.5489 25.6503L39.6937 32.4329C39.8385 37.4116 44.0382 41.3801 48.962 41.308L52.7273 41.2358C57.7234 41.0915 61.7059 36.9787 61.5611 32L61.4163 25.2174C61.3439 20.2387 57.1442 14.8271 52.148 14.8992Z" fill="#E09178"/>
<path d="M62.8645 14.4663C62.8645 14.4663 63.5886 13.7448 63.4438 13.5283C62.9369 13.384 62.5749 13.6005 62.2852 13.7448C62.6473 12.9511 62.8645 12.013 62.7197 11.1472C61.9956 11.1472 61.3439 11.7966 61.2715 12.5181C61.4163 11.9409 61.2715 11.2915 60.9095 10.7864C60.8371 10.7143 60.8371 10.6421 60.7647 10.6421C60.6198 10.6421 60.5474 10.7143 60.4026 10.8586C60.1854 11.1472 60.113 12.0852 60.113 12.2295C60.1854 12.3017 60.1854 12.3017 60.113 12.3017C60.113 12.3017 60.113 12.3017 60.113 12.2295C59.7509 11.9409 57.9407 10.8586 56.2029 10.2092C53.0169 8.98254 49.5413 9.199 49.6137 9.27116C49.831 9.99271 50.1206 10.7143 50.4826 11.3637C48.5276 9.63193 45.8485 8.76607 43.2418 9.05469C43.3142 9.70409 43.3866 10.3535 43.6762 10.9307C43.8935 11.508 44.2555 12.013 44.8348 12.3017C42.8073 11.2193 40.6351 10.3535 38.3904 10.6421C38.2456 10.6421 38.1732 10.7143 38.1008 10.7864C38.0284 10.8586 38.0284 10.9307 38.0284 11.075C38.0284 12.446 38.3904 13.8891 39.1869 15.0436C38.8249 14.6828 38.5352 14.5385 38.2456 14.4663C37.7387 15.4765 37.7387 16.631 37.8835 17.7854C38.2456 20.5273 38.7525 22.4034 39.2593 23.5578C39.1869 25.939 39.6214 27.815 39.6214 27.8871C39.6214 27.8871 39.6214 27.7428 39.6214 27.4542V27.8871C39.6938 27.8871 40.7075 21.6097 42.9521 20.0222C45.8485 18.0019 45.6313 20.7438 49.5413 20.0944C52.148 19.6615 55.7685 17.569 58.0131 21.754C58.6648 22.9806 58.4476 25.506 58.9544 26.6605C59.3889 27.6707 60.475 28.1036 61.706 28.3201L61.5611 26.8048C61.5611 26.8048 61.5611 25.5782 61.5611 24.1351C63.4438 21.5375 63.4438 16.7753 62.7921 14.5385C62.6473 14.4663 62.8645 14.4663 62.8645 14.4663Z" fill="#4C2518"/>
<path d="M62.7919 26.7327C61.7057 26.444 60.4748 27.3821 60.1127 28.8252C59.7507 30.2683 60.2576 31.7114 61.3437 32C62.4298 32.2886 63.6608 31.3506 64.0228 29.9075C64.4573 28.4644 63.878 27.0213 62.7919 26.7327Z" fill="#E09178"/>
<path d="M62.8642 62.4494C62.8642 62.4494 70.1775 62.6658 73.4358 67.7888C76.477 72.5511 75.6081 72.984 75.6081 72.984C75.6081 72.984 65.6881 79.4058 60.2575 66.8508C57.4336 60.2847 62.8642 62.4494 62.8642 62.4494Z" fill="#4C2518"/>
<path d="M61.9232 71.2523C61.9232 71.2523 64.3127 70.8915 65.3264 69.1598C66.4125 67.3559 66.1229 63.8924 64.8195 62.0886C64.023 61.9443 61.9232 61.6556 61.9232 61.6556C61.9232 61.6556 57.5063 60.2847 60.3302 66.8508C60.9819 68.4382 61.0543 70.2421 61.9232 71.2523Z" fill="#BF9C8C"/>
<path d="M62.8642 62.4494C62.8642 62.4494 63.2263 60.0683 61.416 59.9239C59.6782 59.8518 58.3749 59.0581 57.0715 58.8416C55.7682 58.6252 56.1302 59.7796 54.682 59.7796C53.2339 59.7075 52.6546 59.7075 52.6546 59.7075C52.6546 59.7075 51.7857 61.1506 53.0166 61.8721C54.2476 62.5937 54.682 62.2329 54.682 62.2329C54.682 62.2329 54.32 62.8823 54.8993 63.1709C55.4785 63.4595 55.4785 63.4595 55.4785 63.4595C55.4785 63.4595 54.8993 63.5317 55.1165 64.5419C55.3337 65.552 55.9854 65.8407 55.9854 65.8407C55.9854 65.8407 55.6958 66.49 55.8406 66.9951C56.0578 67.5002 56.4199 67.6445 56.4199 67.6445C56.4199 67.6445 56.275 68.1496 56.3474 68.4382C56.4923 68.6547 57.6508 69.5206 57.6508 69.5206H61.9953C61.9953 69.5206 62.7194 68.5825 62.5022 68.0053C62.5022 68.0053 63.7331 66.2736 63.7331 66.0571C63.7331 65.9128 63.5159 65.9128 63.4435 65.4799C63.3711 65.0469 64.24 64.4697 64.0952 64.0368C63.9503 63.6038 62.8642 62.4494 62.8642 62.4494Z" fill="#D78C74"/>
<path d="M62.8642 62.4494C62.8642 62.4494 63.2263 60.0683 61.416 59.9239C59.6782 59.8518 58.3749 59.0581 57.0715 58.8416C55.7682 58.6252 56.1302 59.7796 54.682 59.7796C53.2339 59.7075 52.6546 59.7075 52.6546 59.7075C52.6546 59.7075 51.7857 61.1506 53.0166 61.8721C54.2476 62.5937 54.682 62.2329 54.682 62.2329C54.682 62.2329 54.32 62.8823 54.8993 63.1709C55.4785 63.4595 55.4785 63.4595 55.4785 63.4595C55.4785 63.4595 54.8993 63.5317 55.1165 64.5419C55.3337 65.552 55.9854 65.8406 55.9854 65.8406C55.9854 65.8406 55.6958 66.49 55.8406 66.9951C56.0578 67.5002 56.4199 67.6445 56.4199 67.6445C56.4199 67.6445 55.8406 68.5825 55.913 68.8711C55.9854 69.1598 57.1439 69.6649 57.1439 69.6649L62.5746 69.3762C62.5746 69.3762 63.3711 68.4382 63.1539 67.861C63.1539 67.861 63.6607 66.2736 63.6607 66.0571C63.6607 65.9128 63.4435 65.9128 63.3711 65.4799C63.2987 65.0469 64.1676 64.4697 64.0228 64.0368C63.9503 63.5317 62.8642 62.4494 62.8642 62.4494Z" fill="#E5A185"/>
<path d="M52.5824 33.3709H45.1968C44.7623 33.3709 44.4727 33.876 44.6175 34.3089C45.4864 36.4014 47.0794 37.8445 48.962 37.8445C50.7722 37.8445 52.3652 36.4014 53.1617 34.3089C53.3065 33.876 53.0169 33.3709 52.5824 33.3709Z" fill="white"/>
<path d="M43.4589 26.5162C42.7348 26.444 42.1555 27.3099 42.0831 28.4644C42.0107 29.6188 42.5176 30.629 43.2417 30.7012C43.9657 30.7733 44.545 29.9075 44.6174 28.753C44.6898 27.5985 44.183 26.5883 43.4589 26.5162Z" fill="#4C2518"/>
<path d="M54.2476 26.3719C53.5236 26.2997 52.9443 27.1656 52.7995 28.3201C52.6547 29.4745 53.2339 30.5569 53.958 30.629C54.6821 30.7012 55.2614 29.8353 55.4062 28.6808C55.4786 27.5263 54.9717 26.5162 54.2476 26.3719Z" fill="#4C2518"/>
<path d="M9.78879 19.0489C10.007 19.1219 16.9186 11.9601 23.3937 19.3412C31.542 28.6223 30.5963 41.8498 30.2325 49.5232C29.796 49.0116 11.5349 52.3733 5.42359 43.4576C-0.76045 34.3956 3.89577 17.2219 9.78879 19.0489Z" fill="#2B150F"/>
<path d="M13.4998 48.7194L13.2088 43.0922C13.136 41.7037 14.0818 40.5344 15.3186 40.5344C16.5554 40.4613 17.574 41.5575 17.6467 42.873L17.9378 48.6463V48.7194H13.4998Z" fill="#E09178"/>
<path d="M15.9001 44.3345C17.2824 44.4076 18.8102 44.1153 20.2653 43.4576C26.5948 40.5344 28.0499 31.5455 25.4308 25.6991C25.4308 25.6991 25.4308 25.6261 25.358 25.6261C25.067 24.9683 24.7032 24.3106 24.2667 23.726C22.8116 21.6067 20.8473 19.9258 18.4464 19.122C17.3551 18.7566 16.1911 18.5373 15.027 18.6104C8.11545 18.6104 4.33227 26.0645 4.62328 32.2763C4.98705 38.1227 10.007 44.1153 15.9001 44.3345Z" fill="#E09178"/>
<path d="M13.5693 35.7174L20.6991 35.7905C21.1356 35.7905 21.4267 36.229 21.2084 36.6675C20.4081 38.5676 18.8803 39.8099 17.0615 39.8099C15.3154 39.8099 13.7876 38.4945 12.9873 36.5944C12.9145 36.1559 13.2055 35.7174 13.5693 35.7174Z" fill="white"/>
<path d="M9.78879 19.0489C10.007 19.1219 16.9186 11.9601 23.3937 19.3412C31.542 28.6223 30.5963 41.8498 30.2325 49.5232C30.2325 49.5232 28.1226 33.2995 19.6105 26.6492C17.1369 24.7491 12.5534 22.4105 12.5534 22.4105C12.5534 22.4105 12.1169 24.4568 10.5163 26.5761C8.11546 30.5955 4.11402 33.0071 3.31374 37.8304C3.31374 38.1958 3.24098 38.4881 3.24098 38.8535C0.694615 29.5724 4.84156 17.5142 9.78879 19.0489Z" fill="#3F1B14"/>
<path d="M3.24075 34.9803C3.75002 36.515 4.98683 37.465 6.07813 37.0996C7.16943 36.7342 7.60595 35.1995 7.09668 33.7379C6.5874 32.2033 5.3506 31.2532 4.2593 31.6186C3.168 31.984 2.73147 33.5187 3.24075 34.9803Z" fill="#E09178"/>
<path d="M21.7931 47.5501C21.7931 47.5501 28.0499 61.0698 31.6876 65.82C36.1255 71.6664 41 83.2862 41 83.2862L39.6177 84.09C39.6177 84.09 30.4508 73.128 28.9229 70.1318C27.3951 67.1355 21.5021 50.9117 21.5021 50.9117L21.7931 47.5501Z" fill="#E09178"/>
<path d="M24.7033 61.5083C20.9929 61.8737 17.2097 62.3122 13.5721 62.8968C13.1355 61.3621 12.4808 59.9005 12.0442 58.3659C11.3895 56.3196 10.8074 54.2003 10.2254 52.1541C9.78889 50.6925 9.13411 49.0847 8.8431 47.55C14.2269 46.9654 19.4651 47.3308 21.2112 47.55C21.7205 50.9117 23.1028 54.2734 24.6306 57.4889C24.5578 58.8043 24.5578 60.1929 24.7033 61.5083Z" fill="#E09178"/>
<path d="M23.0301 56.6851C20.9202 51.6426 19.1014 47.1847 19.1014 47.1847H21.0657C21.7205 47.1847 22.3753 47.477 22.6663 48.0617C23.5393 49.5233 25.3582 52.4464 26.886 55.662C25.9402 55.9543 24.0486 56.3928 23.0301 56.6851Z" fill="#F2293A"/>
<path d="M2.22255 82.7745C5.78746 72.6895 10.5892 69.8394 10.953 66.9893C11.3167 64.1392 7.02427 47.6962 7.02427 47.6962C8.18832 47.55 9.42513 47.4039 10.5892 47.3308C11.7532 48.9385 14.9544 49.8886 16.9915 49.8886C18.8103 49.8886 18.6648 48.1347 18.4465 47.1846C18.9558 47.1115 19.4651 47.1115 19.4651 47.1115C19.4651 47.1115 27.2497 55.2965 26.9587 57.4889C26.6677 59.6082 24.8488 60.9236 24.8488 60.9236C24.8488 60.9236 31.5422 79.3398 31.3239 85.7708C31.1056 92.2019 -0.396573 90.2287 2.22255 82.7745Z" fill="#F2293A"/>
<path d="M-8.03562 86.0632C-8.6904 85.4786 -9.34518 86.1363 -9.99996 85.5516C-7.45359 82.7746 -0.323756 68.0125 -0.323756 68.0125C-0.323756 68.0125 4.04145 56.1004 6.2968 51.4964L9.4252 49.9617C8.98868 51.0579 3.89594 69.9125 3.89594 69.9125C3.82319 70.2049 -5.48925 84.7478 -8.03562 86.0632Z" fill="#E09178"/>
<path d="M2.51376 57.8543C3.60506 54.785 5.27839 47.7693 7.02447 47.7693L11.3897 49.9617C11.0987 50.6925 9.27983 54.4926 7.31548 59.6813C6.15143 59.1698 3.67781 58.2928 2.51376 57.8543Z" fill="#F2293A"/>
<path d="M22.2297 30.3032C23.03 30.3032 23.6848 31.107 23.7576 32.1302C23.8303 33.1533 23.1755 34.0303 22.3752 34.1033C21.575 34.1033 20.9202 33.2995 20.8474 32.2763C20.8474 31.2532 21.4295 30.3762 22.2297 30.3032Z" fill="#381911"/>
<path d="M11.0989 30.4494C11.8992 30.4494 12.5539 31.2533 12.6267 32.2764C12.6995 33.2995 12.0447 34.1764 11.2444 34.2495C10.4441 34.2495 9.78932 33.4456 9.71656 32.4225C9.64381 31.3263 10.2986 30.4494 11.0989 30.4494Z" fill="#381911"/>
<path d="M41.929 67.4082L39.1368 64.1429C49.4137 56.5824 50.922 47.532 51.58 47.5855L54.0255 47.811C53.4574 48.3341 53.853 58.2631 41.929 67.4082Z" fill="#E7A387"/>
<path d="M43.481 59.1062C42.6608 60.1143 41.1564 62.5353 38.5641 63.3141L41.8192 68.7295C44.247 66.74 46.6067 64.5482 47.6089 62.1768C46.4705 60.9509 45.5405 60.0878 43.481 59.1062Z" fill="#7A344A"/>
<path d="M33.6781 70.6C33.4852 71.7762 32.5246 72.6239 31.4674 72.4634C30.4103 72.303 29.6557 71.2412 29.8487 70.0651C30.0416 68.8889 31.0022 68.0412 32.0593 68.2017C33.1165 68.3621 33.871 69.4238 33.6781 70.6Z" fill="#E5A928"/>
<path d="M33.5072 70.5542C33.345 71.6158 32.4721 72.3642 31.529 72.2343C30.5859 72.1044 29.9301 71.1306 30.0923 70.0689C30.2545 69.0073 31.1274 68.2589 32.0705 68.3888C33.0136 68.5187 33.6694 69.4926 33.5072 70.5542Z" fill="#EEC140"/>
<path opacity="0.22" d="M30.9611 71.1612C31.3493 71.081 31.6979 70.008 32.0335 69.6681C32.369 69.3283 32.6738 69.103 33.0774 68.9656C32.8536 68.66 32.4852 68.4385 32.0706 68.3888C31.1275 68.2589 30.1977 68.9921 30.0925 70.069C29.9236 70.699 30.2987 71.3521 30.9611 71.1612Z" fill="white"/>
<path d="M32.7304 62.7332L39.3211 63.4555C41.2183 63.9025 41.361 66.3351 40.8545 68.2254C40.8545 68.2254 40.4049 68.5346 40.2821 68.9929C37.705 68.1182 30.4408 65.8034 28.8902 65.2037C28.7345 65.1006 28.5064 65.0395 28.3506 64.9364C28.8111 63.2179 30.9472 62.3168 32.7304 62.7332Z" fill="#E5A185"/>
<path d="M35.3862 59.2087L35.6867 59.2278C36.36 59.2241 36.9522 59.7511 36.9391 60.4843L36.97 63.5623C36.9723 64.2382 36.446 64.8339 35.7156 64.8224L35.4151 64.8033C34.7418 64.8071 34.1496 64.28 34.1627 63.5468L34.1318 60.4688C34.1295 59.7929 34.6559 59.1972 35.3862 59.2087Z" fill="#E5A185"/>
<path d="M41.9553 69.1342C41.9904 68.7753 42.0255 68.4163 42.0759 68.0001C42.0473 67.1943 42.3653 66.2358 41.3913 64.6242C40.5841 63.3028 38.5071 63.2988 38.5071 63.2988C37.2659 65.422 33.6909 65.078 33.4451 62.8019C32.2739 62.6109 31.1334 62.3053 29.8548 62.5153C28.0586 62.8321 26.9512 66.2804 26.9666 66.2231C25.7694 70.691 23.3377 79.3099 23.3377 79.3099C26.7879 82.6287 37.151 83.8707 41.3093 82.038C41.2369 82.08 41.3218 73.3234 41.9553 69.1342Z" fill="#7A344A"/>
<path d="M45.503 53.3858C45.4242 54.5925 44.6347 55.4861 43.7903 55.444C42.9459 55.4019 42.2483 54.3555 42.3119 53.206C42.3907 51.9993 43.1802 51.1058 44.0246 51.1478C44.926 51.2052 45.5819 52.179 45.503 53.3858Z" fill="#E09178"/>
<path d="M37.3995 61.9583L35.8204 62.1492C31.5853 62.672 27.7009 59.6052 27.1896 55.3548L26.8384 52.5594C26.3271 48.309 29.3908 44.4026 33.6259 43.8797L35.205 43.6889C37.6745 43.3683 40.0499 44.3118 41.6818 45.9769C42.8355 47.1456 43.6383 48.7114 43.8358 50.4833L44.187 53.2787C44.6983 57.5291 41.6346 61.4355 37.3995 61.9583Z" fill="#E7A387"/>
<path d="M33.4797 56.0579C33.1639 56.0961 32.9841 56.5391 33.1355 56.8866C33.9229 58.5097 35.3662 59.5103 36.7588 59.3309C38.2086 59.1668 39.2919 57.8609 39.7107 56.0699C39.8181 55.6689 39.5374 55.3481 39.1645 55.371L33.4797 56.0579Z" fill="white"/>
<path d="M28.1305 54.8088C28.4969 55.9507 28.1899 57.0963 27.3258 57.3559C26.5187 57.6308 25.5273 56.9968 25.1039 55.8397C24.7376 54.6978 25.0445 53.5522 25.9086 53.2926C26.7728 53.033 27.7641 53.667 28.1305 54.8088Z" fill="#E7A387"/>
<path d="M31.2954 51.6662C30.7361 51.7006 30.3085 52.3841 30.4358 53.2777C30.506 54.156 31.0522 54.8549 31.6115 54.8206C32.1707 54.7863 32.5984 54.1027 32.4711 53.2091C32.4009 52.3308 31.8547 51.6319 31.2954 51.6662Z" fill="#422115"/>
<path d="M40.0155 51.0559C39.4563 51.0902 39.0286 51.7738 39.1559 52.6674C39.2262 53.5457 39.7723 54.2446 40.3316 54.2103C40.8909 54.176 41.3185 53.4924 41.1912 52.5988C41.121 51.7205 40.5748 51.0216 40.0155 51.0559Z" fill="#422115"/>
<path d="M43.8511 48.8298C45.61 46.5997 43.5107 41.4327 42.256 39.5003C42.0235 39.6835 41.6353 39.7637 41.6726 40.0807C41.6507 39.7064 41.8546 38.7174 41.6879 38.4271C41.6045 38.282 41.1242 38.7059 41.0212 38.8624C41.3501 38.091 41.3742 37.545 41.407 36.5101C34.9983 36.0207 29.1844 39.9269 27.3532 42.199C27.3882 41.84 27.3663 41.4658 27.1996 41.1755C24.6621 42.89 24.6624 46.0825 24.6536 46.5713C24.6536 46.5713 23.9802 44.9788 23.66 45.2614C23.3398 45.5439 24.2194 46.8233 24.2194 46.8233C24.2194 46.8233 23.4101 46.4223 23.1732 46.85C22.9364 47.2777 24.248 47.6291 24.248 47.6291C24.248 47.6291 24.9127 49.7104 26.1958 50.8523C26.1958 50.8523 26.6784 52.7007 27.0492 53.5981C27.8279 55.71 27.6369 52.7733 27.7771 51.3375C28.3469 45.1052 38.6483 41.7874 41.7608 46.3665C43.6867 49.2155 44.0049 51.4495 44.0619 51.4648L43.8511 48.8298Z" fill="#4C2518"/>
<path opacity="0.24" d="M24.7985 48.0836C26.6847 48.3434 28.3361 46.5143 29.7265 45.659C32.1456 44.1584 35.4156 43.1314 38.2449 43.5212C39.7166 43.7313 41.0084 44.3845 42.0481 45.5225C43.0308 46.6454 43.4278 47.6727 43.8051 49.0016L43.8755 51.4762C43.8909 51.419 43.5003 49.2269 41.5744 46.3779C38.4619 41.7989 28.1605 45.1166 27.5908 51.3489C27.4658 52.7275 27.6985 55.7368 26.8628 53.6096C26.5074 52.6549 26.0094 50.8638 26.0094 50.8638C25.1364 50.016 24.5003 48.7404 24.2546 48.0606C24.4981 48.0645 24.6691 48.1103 24.7985 48.0836Z" fill="#422115"/>
<path opacity="0.47" d="M41.6308 40.0081C41.6155 40.0653 41.6155 40.0653 41.6001 40.1226C41.6725 40.0806 41.6308 40.0081 41.6308 40.0081Z" fill="white"/>
<path opacity="0.1" d="M26.5114 49.2179C26.5531 49.2905 26.5948 49.363 26.5641 49.4776C26.5377 49.3477 26.4961 49.2752 26.5114 49.2179Z" fill="#3D2405"/>
<path opacity="0.1" d="M41.6308 40.0081C41.6155 40.0653 41.6155 40.0653 41.6001 40.1226C41.6725 40.0806 41.6308 40.0081 41.6308 40.0081Z" fill="#3D2405"/>
<path d="M11.4575 58.6469L11.2956 57.6953L12.6107 57.3371C13.3514 57.1274 13.3902 57.7451 13.823 58.4072C14.9838 60.1915 18.4112 63.8581 22.9346 65.0353C26.2907 65.9474 28.1612 66.5466 32.0001 64.5C32.2645 65.7298 32.2356 64.7703 32.5 66C29.3597 65.5902 33.0349 66.424 33 66.5C28.5723 68.8267 26.0048 69.7815 21.8198 68.6692C13.7885 66.5095 10.5651 58.7861 10.3866 58.4727L11.4575 58.6469Z" fill="#E5A185"/>
<path d="M23.6979 64.5226C23.8046 65.684 24.6125 68.1671 25.1927 69.5965C27.4108 69.2216 31.4143 68.3151 33.661 66.8553L31.0223 62.4556C27.767 63.2127 25.2682 64.1335 23.6979 64.5226Z" fill="#7A344A"/>
<path d="M51.0514 49.1015C51.0514 49.1015 49.8208 46.623 50.0598 45.2749C50.3558 43.9422 49.9193 43.5183 50.2855 43.0639C50.6518 42.6094 51.2089 43.4955 51.1629 43.6673C51.1168 43.8391 51.3865 42.3766 52.2945 42.8654C53.2026 43.3543 53.6522 43.045 54.1764 43.3697C54.6435 43.679 55.0405 43.1101 55.4463 43.6485C55.852 44.187 56.7733 45.539 56.5277 46.4555C56.0015 48.6474 55.3523 48.1051 55.3523 48.1051C54.6287 50.1214 53.225 50.1136 53.225 50.1136L51.0514 49.1015Z" fill="#E5A185"/>
<path d="M13.587 58.6205C13.587 58.6205 14.5867 56.0402 14.2259 54.7195C13.8097 53.4193 14.2057 52.9574 13.7996 52.5382C13.3935 52.1191 12.9194 53.0522 12.9809 53.2191C13.0424 53.386 12.6406 51.9541 11.7809 52.5237C10.9212 53.0933 10.4453 52.8262 9.95282 53.1973C9.51577 53.5479 9.06864 53.0175 8.71361 53.5907C8.35858 54.1639 7.56434 55.5942 7.89241 56.4845C8.61617 58.6194 9.21329 58.0202 9.21329 58.0202C10.1176 59.9621 11.5147 59.8265 11.5147 59.8265L13.587 58.6205Z" fill="#E5A185"/>
</g>
<defs>
<clipPath id="clip0">
<path d="M0 4C0 1.79086 1.79086 0 4 0H66C68.2091 0 70 1.79086 70 4V66C70 68.2091 68.2091 70 66 70H4C1.79086 70 0 68.2091 0 66V4Z" fill="white"/>
</clipPath>
</defs>
</svg>
