<svg width="70" height="70" viewBox="0 0 70 70" fill="none" xmlns="http://www.w3.org/2000/svg">
<g clip-path="url(#clip0)">
<path d="M28.5049 13.4362C28.7531 13.5185 36.6133 5.44689 43.9771 13.7656C53.2439 24.2258 52.1683 39.1337 51.7546 47.7819C51.2582 47.2054 30.4906 50.9941 23.5405 40.9457C16.5077 30.7326 21.803 11.3771 28.5049 13.4362Z" fill="#2B150F"/>
<path d="M32.7253 46.876L32.3943 40.5339C32.3116 38.969 33.3872 37.6512 34.7937 37.6512C36.2003 37.5688 37.3587 38.8043 37.4414 40.2869L37.7724 46.7936V46.876H32.7253Z" fill="#E5A185"/>
<path d="M35.455 41.9342C37.027 42.0166 38.7645 41.6871 40.4193 40.9459C47.6176 37.6513 49.2724 27.5205 46.2938 20.9314C46.2938 20.9314 46.2938 20.8491 46.2111 20.8491C45.8801 20.1078 45.4664 19.3665 44.97 18.7076C43.3152 16.3191 41.0812 14.4247 38.3508 13.5187C37.1097 13.1069 35.7859 12.8598 34.4621 12.9421C26.6019 12.9421 22.2994 21.3432 22.6304 28.3442C23.0441 34.9333 28.7531 41.6871 35.455 41.9342Z" fill="#E5A185"/>
<path d="M32.8043 32.2224L40.9127 32.3047C41.4092 32.3047 41.7401 32.7989 41.4919 33.2931C40.5818 35.4346 38.8442 36.8347 36.7758 36.8347C34.79 36.8347 33.0525 35.3522 32.1424 33.2107C32.0596 32.7166 32.3906 32.2224 32.8043 32.2224Z" fill="white"/>
<path d="M28.5049 13.4362C28.7531 13.5185 36.6133 5.44688 43.9771 13.7656C53.2439 24.2259 52.1683 39.1337 51.7546 47.7819C51.7546 47.7819 49.3552 29.4971 39.6747 22.002C36.8615 19.8606 31.649 17.2249 31.649 17.2249C31.649 17.2249 31.1525 19.5311 29.3323 21.9197C26.6019 26.4497 22.0512 29.1677 21.1411 34.6037C21.1411 35.0155 21.0584 35.345 21.0584 35.7568C18.1625 25.2966 22.8786 11.7065 28.5049 13.4362Z" fill="#3F1B14"/>
<path d="M21.0581 31.3917C21.6373 33.1213 23.0438 34.1921 24.2849 33.7802C25.526 33.3684 26.0224 31.6388 25.4433 29.9915C24.8641 28.2619 23.4575 27.1911 22.2164 27.6029C20.9754 28.0148 20.4789 29.7444 21.0581 31.3917Z" fill="#E5A185"/>
<path d="M42.1569 45.558C42.1569 45.558 49.2724 60.7953 53.4094 66.149C58.4565 72.7381 64 85.834 64 85.834L62.428 86.74C62.428 86.74 52.0028 74.3854 50.2653 71.0085C48.5278 67.6315 41.8259 49.3468 41.8259 49.3468L42.1569 45.558Z" fill="#D78C74"/>
<path d="M45.4665 61.2897C41.2468 61.7015 36.9444 62.1957 32.8074 62.8546C32.311 61.1249 31.5664 59.4777 31.0699 57.748C30.3253 55.4418 29.6634 53.0533 29.0014 50.7471C28.505 49.0998 27.7604 47.2878 27.4294 45.5582C33.5521 44.8993 39.5093 45.3111 41.4951 45.5582C42.0742 49.3469 43.6463 53.1357 45.3838 56.7597C45.3011 58.2422 45.3011 59.8071 45.4665 61.2897Z" fill="#E5A185"/>
<path d="M43.5636 55.8538C41.1642 50.1707 39.0957 45.1465 39.0957 45.1465H41.3297C42.0743 45.1465 42.819 45.4759 43.1499 46.1348C44.1428 47.7821 46.2113 51.0767 47.9488 54.7007C46.8732 55.0301 44.722 55.5243 43.5636 55.8538Z" fill="#F2293A"/>
<path d="M19.9001 85.2575C23.9544 73.8913 29.4151 70.6791 29.8288 67.4669C30.2425 64.2547 25.3609 45.7229 25.3609 45.7229C26.6848 45.5581 28.0913 45.3934 29.4151 45.3111C30.739 47.1231 34.3795 48.1938 36.6962 48.1938C38.7647 48.1938 38.5992 46.2171 38.351 45.1463C38.9301 45.064 39.5093 45.064 39.5093 45.064C39.5093 45.064 48.3624 54.2887 48.0314 56.7596C47.7005 59.1482 45.632 60.6307 45.632 60.6307C45.632 60.6307 53.244 81.3864 52.9958 88.6345C52.7476 95.8825 16.9215 93.6586 19.9001 85.2575Z" fill="#F2293A"/>
<path d="M8.23401 88.9638C7.48936 88.3049 6.74471 89.0462 6.00006 88.3873C8.89593 85.2574 17.0044 68.6199 17.0044 68.6199C17.0044 68.6199 21.9687 55.1946 24.5336 50.0057L28.0914 48.2761C27.595 49.5115 21.8032 70.7614 21.8032 70.7614C21.7205 71.0908 11.1299 87.4813 8.23401 88.9638Z" fill="#E5A185"/>
<path d="M20.2313 57.1715C21.4724 53.7122 23.3754 45.8053 25.3611 45.8053L30.3255 48.2762C29.9945 49.0998 27.9261 53.3828 25.6921 59.2306C24.3683 58.654 21.5551 57.6657 20.2313 57.1715Z" fill="#F2293A"/>
<path d="M42.6534 26.1202C43.5636 26.1202 44.3082 27.0262 44.391 28.1793C44.4737 29.3324 43.729 30.3208 42.8189 30.4032C41.9088 30.4032 41.1641 29.4971 41.0814 28.3441C41.0814 27.191 41.7433 26.2026 42.6534 26.1202Z" fill="#381911"/>
<path d="M29.9948 26.2851C30.9049 26.2851 31.6496 27.1911 31.7323 28.3442C31.8151 29.4973 31.0704 30.4856 30.1603 30.568C29.2501 30.568 28.5055 29.662 28.4228 28.5089C28.34 27.2735 29.0847 26.2851 29.9948 26.2851Z" fill="#381911"/>
</g>
<defs>
<clipPath id="clip0">
<path d="M0 4C0 1.79086 1.79086 0 4 0H66C68.2091 0 70 1.79086 70 4V66C70 68.2091 68.2091 70 66 70H4C1.79086 70 0 68.2091 0 66V4Z" fill="white"/>
</clipPath>
</defs>
</svg>
