<svg width="101" height="100" viewBox="0 0 101 100" fill="none" xmlns="http://www.w3.org/2000/svg">
<g clip-path="url(#clip0)">
<path d="M51.516 66.7422C41.1719 89.2133 30.9313 115.292 26.7936 115.911C26.5868 116.735 26.2764 117.56 26.0696 118.385C26.5868 119.209 27.5177 120.858 27.7246 120.858C31.7588 120.858 38.7928 118.178 48.8265 96.0165C54.4123 83.544 57.9293 75.4008 58.55 71.3807L51.516 66.7422Z" fill="#E5A185"/>
<path d="M37.4478 115.292C40.6545 111.684 44.4818 105.706 48.8263 96.1193C54.4121 83.6468 57.9291 75.5036 58.5498 71.4835L51.5158 66.3296C47.8954 67.9788 35.8962 101.789 31.0345 110.035C32.9999 111.581 35.5859 113.643 37.4478 115.292Z" fill="#4C2518"/>
<path d="M97.3402 67.5669C97.3402 67.5669 110.374 93.1304 108.719 103.747L95.892 104.16C95.892 104.16 91.1337 87.9764 92.6854 83.5441C94.1335 79.0086 97.3402 67.5669 97.3402 67.5669Z" fill="#401F16"/>
<path d="M68.6868 199.713C70.2384 169.614 65.7905 172.603 66.1008 168.583C66.3077 164.563 68.1696 146.215 68.8937 142.195C69.3075 140.134 70.5488 139.721 71.066 141.371C71.79 143.638 74.1692 159.822 78.5137 171.985C79.1343 173.84 79.6515 175.696 80.3756 177.551C82.1341 181.984 85.1339 191.982 87.4096 199.713H98.064C97.9605 196.312 97.7537 192.704 97.5468 190.539C96.2021 178.994 91.7541 170.439 90.6163 166.934C89.8922 164.976 90.4094 150.545 90.2025 141.886C90.099 134.568 89.7887 127.146 88.5474 119.93C87.513 114.158 97.4433 67.5665 97.4433 67.5665C95.6848 66.3295 93.8229 65.2988 91.6507 64.6803C88.3406 63.7526 66.618 62.1033 55.7567 64.6803C54.3086 64.9895 53.9982 65.4018 52.6535 66.1234C52.6535 66.1234 52.5501 112.715 52.8604 117.972C53.1707 122.301 53.2742 126.63 52.8604 130.96C52.5501 134.568 51.4122 137.969 51.1019 141.577C49.5503 161.368 54.9292 180.541 58.1359 199.816H68.6868V199.713Z" fill="#F4BE97"/>
<path d="M68.6873 199.095C70.1355 169.718 65.7909 172.604 65.9978 168.687C66.2047 164.667 68.0666 146.319 68.7907 142.299C69.2045 140.237 70.4458 139.825 70.963 141.474C71.6871 143.742 74.0662 159.925 78.4107 172.089C79.0314 173.944 79.5486 175.799 80.2727 177.655C81.9277 181.984 84.9275 191.57 87.0997 199.198H97.8576C97.7541 196.003 97.5473 192.704 97.3404 190.643C95.9957 179.098 91.5477 170.542 90.4099 167.038C89.6858 165.079 90.203 150.648 89.9961 141.99C89.8926 134.671 89.5823 127.249 88.341 120.034C87.3066 114.261 97.2369 67.67 97.2369 67.67C95.4784 66.433 93.6165 65.4022 91.4443 64.7838C90.203 64.4745 86.2722 63.9591 81.3071 63.6499C80.0658 66.3299 77.997 68.3915 74.6868 68.9069C72.2043 69.2161 69.2045 68.7007 67.1357 67.1546C65.8944 66.2269 65.1703 64.9899 64.5497 63.6499C61.2396 63.8561 58.0329 64.2684 55.5503 64.7838C54.1021 65.093 52.7574 65.7115 51.4127 66.3299C51.4127 66.3299 52.3436 112.818 52.654 118.075C52.9643 122.405 53.0677 126.734 52.654 131.063C52.3436 134.671 51.2058 138.073 50.8955 141.68C49.4473 161.265 54.5159 180.129 57.826 199.198H68.6873V199.095Z" fill="#EFEBE3"/>
<path d="M58.6535 204.145H68.3769C70.6526 169.408 65.7909 172.913 65.9978 168.686C66.2047 164.666 68.0666 146.318 68.7907 142.298C69.2044 140.237 70.4457 139.825 70.9629 141.474C71.687 143.741 74.0661 159.925 78.4107 172.088C79.0313 173.943 79.5485 175.799 80.2726 177.654C82.3414 183.014 86.3756 196.415 88.5479 204.145H98.0644C97.961 199.713 97.7541 193.838 97.4438 190.539C96.099 178.994 91.6511 170.439 90.5132 166.934C89.7892 164.976 90.3064 150.545 90.0995 141.886C89.996 134.567 89.6857 127.146 88.4444 119.93C87.41 114.158 97.3403 67.5665 97.3403 67.5665C95.5818 66.3295 93.7199 65.2987 91.5476 64.6803C90.3064 64.371 86.3756 63.8556 81.4104 63.5464C80.1692 66.2264 78.1003 68.288 74.7902 68.8034C72.3077 69.1126 69.3079 68.5972 67.2391 67.0511C65.9978 66.1234 65.2737 64.8864 64.653 63.5464C62.2739 63.6495 59.9982 63.9587 57.9294 64.2679C57.826 64.2679 57.826 64.371 57.7225 64.371C56.0675 65.5049 54.7227 67.0511 53.2746 68.4942C53.1711 69.7311 52.8608 71.0711 52.7574 72.3081C52.5505 74.3696 52.5505 76.5343 52.447 78.5959C52.447 79.2143 52.1367 79.7297 51.8264 80.142C52.1367 94.2638 52.5505 114.57 52.7574 117.869C53.0677 122.198 53.1711 126.527 52.7574 130.857C52.447 134.464 51.3092 137.866 50.9989 141.474C49.4473 161.677 55.0331 181.159 58.2397 200.847C58.4466 201.672 58.55 202.805 58.6535 204.145Z" fill="#8E6651"/>
<path d="M68.0665 76.4316C67.8596 76.1224 67.7562 75.9162 67.5493 75.607C67.4459 75.4009 67.3424 75.1947 67.3424 74.8855C65.9977 72.7208 64.5495 70.7623 62.4807 68.8038C61.3429 67.67 61.8601 66.2269 62.8945 65.5053C62.6876 64.8868 62.5842 64.2684 62.4807 63.6499C59.9981 63.8561 57.619 64.1653 55.6536 64.6807C54.2055 64.9899 52.8607 65.6084 51.516 66.2269C51.516 66.2269 51.9298 105.087 50.6885 116.838C50.3782 120.137 49.5506 123.023 49.3438 128.177C51.6194 131.063 62.9979 130.857 65.1702 130.342C65.2736 115.086 66.4115 98.6966 68.3769 83.5441C68.5837 81.7917 68.7906 80.4517 69.1009 78.6994C69.1009 78.5963 68.3768 76.947 68.0665 76.4316Z" fill="#8E6651"/>
<path d="M90.9268 114.055C92.7888 101.892 97.3402 67.5668 97.3402 67.5668C95.5817 66.3298 93.7197 65.2991 91.5475 64.6806C90.6165 64.3714 88.1339 64.0621 84.8238 63.856C84.9273 64.6806 84.8238 65.5052 84.5135 66.2268C84.3066 66.6391 84.0997 67.1545 83.8929 67.5668C83.7894 67.6699 83.4791 68.4945 83.686 68.0822C83.5825 68.3914 83.3757 68.7007 83.1688 68.9068C83.0653 69.113 82.9619 69.216 82.8584 69.4222C82.6516 69.7314 82.4447 69.9376 82.2378 70.0407C81.4103 71.0715 80.5828 71.9992 79.6518 72.9269C78.1002 74.4731 75.8245 75.9161 74.5832 77.7716C74.3763 78.1839 74.066 78.4931 73.6522 78.6993C73.5488 79.3177 73.4453 79.9362 73.3419 80.5547C71.0662 96.738 69.9283 114.364 69.9283 130.754C81.4103 132.506 87.3064 131.991 92.6853 129.723C92.4784 126.425 90.5131 117.251 90.9268 114.055Z" fill="#8E6651"/>
<path d="M52.6535 81.3794V83.1317L65.0664 83.441V81.9979L52.6535 81.3794Z" fill="#BF9C8C"/>
<path d="M88.9616 82.5129L88.7548 84.2652L76.8591 83.5437L76.9625 82.1006L88.9616 82.5129Z" fill="#BF9C8C"/>
<path d="M74.9971 51.6925L74.0661 51.5895C72.2042 51.3833 70.4457 52.8264 70.2388 54.6818L68.5838 64.5774C68.3769 66.4328 70.4457 68.1851 72.4111 68.3913L73.342 68.4943C75.204 68.7005 77.5831 66.742 77.79 64.7835L78.1003 55.4034C78.3072 53.651 76.859 51.8987 74.9971 51.6925Z" fill="#F4BE97"/>
<path d="M56.895 39.0138C55.3433 39.3231 54.3089 41.2816 54.7227 43.4462C55.1365 45.6109 56.6881 47.054 58.3431 46.7447C59.8947 46.4355 60.9291 44.477 60.5154 42.3123C60.1016 40.1477 58.4466 38.7046 56.895 39.0138Z" fill="#F4BE97"/>
<path d="M74.9971 21.2842L69.6182 21.3873C62.4808 21.5935 56.895 29.6336 56.9984 36.6429L57.2053 46.3323C57.4122 53.4447 63.4118 59.114 70.4457 59.011L75.8246 58.9079C82.9621 58.7017 88.6513 52.8263 88.4444 45.7138L88.2375 36.0245C88.1341 28.912 82.1345 21.1811 74.9971 21.2842Z" fill="#F4BE97"/>
<path d="M56.5847 33.6539C55.8606 32.0046 55.1365 29.3246 54.6193 25.4076C54.0796 23.105 54.3 18.6998 59.5 19.4998C61.8602 15.9998 71.5 8.99983 82.5 16.4998C91.3 22.4998 91.8333 33.5282 91 38.2924V38.9998L88.5 38.4998L88.6514 40.4571C86.8929 40.1478 85.3413 39.5294 84.7206 38.0863C83.9965 36.437 84.3069 32.8293 83.3759 31.0769C80.1692 25.0984 74.9972 28.0877 71.2733 28.7061C65.6875 29.6338 65.9978 25.7168 61.8602 28.603C58.6535 30.8708 57.2054 39.8386 57.1019 39.8386C57.1019 39.7355 56.4813 37.0555 56.5847 33.6539Z" fill="#87560C"/>
<path fill-rule="evenodd" clip-rule="evenodd" d="M56.6687 36.6969C56.6081 35.9659 56.5678 35.1396 56.5737 34.2537C57.5943 33.7418 58.5386 33.1785 59.1886 32.6099C58.7522 33.6705 58.3883 34.7932 58.093 35.8295L56.6687 36.6969ZM84.1896 35.2794C84.1777 35.1591 84.1661 35.038 84.1544 34.9165C84.0714 34.0516 83.9863 33.166 83.8197 32.3931C85.9555 33.3815 89.4472 34.738 91.2801 34.5333C91.2868 35.3985 91.2493 36.203 91.1809 36.9245L84.1896 35.2794Z" fill="#967D56"/>
<path d="M90.2027 38.1893C88.651 37.777 86.8926 39.117 86.3754 41.1786C85.8582 43.2401 86.5822 45.3017 88.1338 45.714C89.6855 46.1263 91.4439 44.7863 91.9612 42.7247C92.5818 40.6632 91.7543 38.6016 90.2027 38.1893Z" fill="#F4BE97"/>
<path d="M90.306 89.2133C90.306 89.2133 100.754 89.5226 105.408 96.8412C109.753 103.644 108.512 104.263 108.512 104.263C108.512 104.263 94.3402 113.437 86.5821 95.5011C82.5479 86.121 90.306 89.2133 90.306 89.2133Z" fill="#4C2518"/>
<path d="M88.9617 101.789C88.9617 101.789 92.3752 101.273 93.8234 98.7993C95.375 96.2223 94.9613 91.2746 93.0993 88.6976C91.9615 88.4914 88.9617 88.0791 88.9617 88.0791C88.9617 88.0791 82.6518 86.1206 86.686 95.5008C87.617 97.7685 87.7204 100.345 88.9617 101.789Z" fill="#BF9C8C"/>
<path d="M90.306 89.2131C90.306 89.2131 90.8232 85.8115 88.2372 85.6053C85.7546 85.5022 83.8927 84.3684 82.0308 84.0591C80.1688 83.7499 80.686 85.3992 78.6172 85.3992C76.5484 85.2961 75.7209 85.2961 75.7209 85.2961C75.7209 85.2961 74.4796 87.3576 76.2381 88.3884C77.9966 89.4192 78.6172 88.9038 78.6172 88.9038C78.6172 88.9038 78.1 89.8315 78.9275 90.2438C79.7551 90.6562 79.7551 90.6562 79.7551 90.6562C79.7551 90.6562 78.9275 90.7592 79.2379 92.2023C79.5482 93.6454 80.4791 94.0577 80.4791 94.0577C80.4791 94.0577 80.0654 94.9855 80.2723 95.707C80.5826 96.4286 81.0998 96.6347 81.0998 96.6347C81.0998 96.6347 80.8929 97.3563 80.9963 97.7686C81.2032 98.0778 82.8583 99.3148 82.8583 99.3148H89.0647C89.0647 99.3148 90.0991 97.9747 89.7888 97.1501C89.7888 97.1501 91.5473 94.6762 91.5473 94.367C91.5473 94.1608 91.237 94.1608 91.1336 93.5424C91.0301 92.9239 92.2714 92.0993 92.0645 91.4808C91.8576 90.8623 90.306 89.2131 90.306 89.2131Z" fill="#D78C74"/>
<path d="M90.306 89.2131C90.306 89.2131 90.8232 85.8115 88.2372 85.6053C85.7546 85.5022 83.8927 84.3684 82.0308 84.0591C80.1688 83.7499 80.686 85.3992 78.6172 85.3992C76.5484 85.2961 75.7209 85.2961 75.7209 85.2961C75.7209 85.2961 74.4796 87.3576 76.2381 88.3884C77.9966 89.4192 78.6172 88.9038 78.6172 88.9038C78.6172 88.9038 78.1 89.8315 78.9275 90.2438C79.7551 90.6562 79.7551 90.6562 79.7551 90.6562C79.7551 90.6562 78.9275 90.7592 79.2379 92.2023C79.5482 93.6454 80.4791 94.0577 80.4791 94.0577C80.4791 94.0577 80.0654 94.9854 80.2723 95.707C80.5826 96.4285 81.0998 96.6347 81.0998 96.6347C81.0998 96.6347 80.2723 97.9747 80.3757 98.387C80.4791 98.7993 82.1342 99.5209 82.1342 99.5209L89.8923 99.1086C89.8923 99.1086 91.0301 97.7686 90.7198 96.9439C90.7198 96.9439 91.4439 94.6762 91.4439 94.367C91.4439 94.1608 91.1335 94.1608 91.0301 93.5424C90.9267 92.9239 92.168 92.0993 91.9611 91.4808C91.8576 90.7592 90.306 89.2131 90.306 89.2131Z" fill="#F4BE97"/>
<path d="M75.6178 47.6724H65.0668C64.4462 47.6724 64.0324 48.3939 64.2393 49.0124C65.4806 52.0017 67.7563 54.0632 70.4457 54.0632C73.0318 54.0632 75.3075 52.0017 76.4453 49.0124C76.6522 48.3939 76.2384 47.6724 75.6178 47.6724Z" fill="white"/>
<path d="M62.5841 37.88C61.5497 37.7769 60.7222 39.0139 60.6187 40.6631C60.5153 42.3124 61.2394 43.7555 62.2738 43.8586C63.3082 43.9617 64.1357 42.7247 64.2392 41.0755C64.3426 39.4262 63.6185 37.9831 62.5841 37.88Z" fill="#253F4D"/>
<path d="M77.9966 37.674C76.9622 37.5709 76.1347 38.8078 75.9278 40.4571C75.7209 42.1063 76.5485 43.6525 77.5829 43.7556C78.6173 43.8587 79.4448 42.6217 79.6517 40.9725C79.7551 39.3232 79.031 37.8801 77.9966 37.674Z" fill="#253F4D"/>
<path d="M14.484 27.2124C14.7958 27.3168 24.6695 17.0857 33.9195 27.63C45.5601 40.8888 36.0197 51.12 35.5 62.082C34.8764 61.3512 16.9784 74.8188 8.248 62.082C-0.586342 49.1364 6.06539 24.6025 14.484 27.2124Z" fill="#87560C"/>
<path d="M19.7854 69.5991L19.3697 61.5603C19.2658 59.5767 20.6169 57.9063 22.3838 57.9063C24.1506 57.8019 25.6057 59.3679 25.7096 61.2471L26.1254 69.4947V69.5991H19.7854Z" fill="#F4BE97"/>
<path d="M23.2144 63.3347C25.1891 63.4391 27.3717 63.0215 29.4504 62.0819C38.4926 57.9059 40.5713 45.0647 36.8297 36.7127C36.8297 36.7127 36.8297 36.6083 36.7257 36.6083C36.31 35.6687 35.7903 34.7291 35.1667 33.8939C33.0881 30.8663 30.2818 28.4651 26.852 27.3167C25.293 26.7947 23.6301 26.4815 21.9672 26.5859C12.0935 26.5859 6.68896 37.2347 7.10469 46.1087C7.62436 54.4607 14.7958 63.0215 23.2144 63.3347Z" fill="#F4BE97"/>
<path d="M19.8847 51.0249L30.0702 51.1293C30.6938 51.1293 31.1095 51.7557 30.7977 52.3821C29.6544 55.0965 27.4718 56.8713 24.8735 56.8713C22.3791 56.8713 20.1965 54.9921 19.0532 52.2777C18.9493 51.6513 19.365 51.0249 19.8847 51.0249Z" fill="white"/>
<path d="M14.484 27.2124C14.7958 27.3168 24.6695 17.0857 33.9195 27.63C38.5 32.0148 44 41.4998 38 50.9998C38 50.9998 38.5 45.7399 28.515 38.07C24.9813 35.3556 18.4335 32.0148 18.4335 32.0148C18.4335 32.0148 17.8099 34.938 15.5233 37.9656C12.0935 43.7076 6.37719 47.1528 5.23392 54.0432C5.23392 54.5652 5.12999 54.9828 5.12999 55.5048C1.49232 42.246 7.41652 25.0201 14.484 27.2124Z" fill="#87560C"/>
<path d="M22 27C27.3333 30.5 38 39.2 38 46C39 41 33.5 28.5 22 27Z" fill="#967D56"/>
<path d="M7 43C10.3094 40.7895 16.9283 35.2947 16.9283 31C17.5488 34.1579 14.1359 42.0526 7 43Z" fill="#967D56"/>
<path d="M5.12964 49.9717C5.85717 52.1641 7.62404 53.5213 9.18304 52.9993C10.742 52.4773 11.3656 50.2849 10.6381 48.1969C9.91057 46.0045 8.14371 44.6473 6.58471 45.1693C5.0257 45.6913 4.4021 47.8837 5.12964 49.9717Z" fill="#F4BE97"/>
<path d="M31.633 67.9282C31.633 67.9282 40.5713 87.2422 45.768 94.0282C52.1079 102.38 59.0714 118.98 59.0714 118.98L57.0967 120.128C57.0967 120.128 44.0011 104.468 41.8185 100.188C39.6359 95.9074 31.2173 72.7306 31.2173 72.7306L31.633 67.9282Z" fill="#F4BE97"/>
<path d="M35.7905 87.8689C30.4899 88.3909 25.0853 89.0173 19.8887 89.8525C19.2651 87.6601 18.3297 85.5721 17.7061 83.3797C16.7707 80.4565 15.9392 77.4289 15.1077 74.5057C14.4841 72.4177 13.5487 70.1209 13.133 67.9285C20.8241 67.0933 28.3073 67.6153 30.8017 67.9285C31.5292 72.7309 33.5039 77.5333 35.6865 82.1269C35.5826 84.0061 35.5826 85.9897 35.7905 87.8689Z" fill="#F4BE97"/>
<path d="M33.4001 80.9787C30.386 73.7751 27.7877 67.4067 27.7877 67.4067H30.5939C31.5293 67.4067 32.4647 67.8243 32.8804 68.6595C34.1276 70.7475 36.726 74.9235 38.9086 79.5171C37.5574 79.9347 34.8552 80.5611 33.4001 80.9787Z" fill="#2985F2"/>
<path d="M3.67507 118.249C8.76781 103.842 15.6274 99.7701 16.1471 95.6985C16.6667 91.6269 10.5347 68.137 10.5347 68.137C12.1976 67.9282 13.9645 67.7194 15.6274 67.615C17.2903 69.9118 21.8634 71.269 24.7736 71.269C27.3719 71.269 27.164 68.7634 26.8522 67.4062C27.5798 67.3018 28.3073 67.3018 28.3073 67.3018C28.3073 67.3018 39.4282 78.9945 39.0124 82.1265C38.5967 85.1541 35.9984 87.0333 35.9984 87.0333C35.9984 87.0333 45.5602 113.342 45.2484 122.529C44.9366 131.716 -0.0665283 128.898 3.67507 118.249Z" fill="#2985F2"/>
<path d="M-10.9794 122.947C-11.9148 122.112 -12.8502 123.051 -13.7856 122.216C-10.148 118.249 0.0375166 97.1603 0.0375166 97.1603C0.0375166 97.1603 6.27352 80.1431 9.49546 73.5659L13.9646 71.3735C13.341 72.9395 6.06566 99.8747 6.06566 99.8747C5.96173 100.292 -7.34176 121.068 -10.9794 122.947Z" fill="#F4BE97"/>
<path d="M4.09107 82.6489C5.65007 78.2641 8.04054 68.2417 10.5349 68.2417L16.771 71.3737C16.3552 72.4177 13.7569 77.8465 10.9507 85.2589C9.28774 84.5281 5.754 83.2753 4.09107 82.6489Z" fill="#2985F2"/>
<path d="M32.2568 43.29C33.4 43.29 34.3354 44.4384 34.4394 45.9C34.5433 47.3616 33.6079 48.6144 32.4646 48.7188C31.3214 48.7188 30.386 47.5704 30.282 46.1088C30.282 44.6472 31.1135 43.3944 32.2568 43.29Z" fill="#253F4D"/>
<path d="M16.3555 43.499C17.4988 43.499 18.4342 44.6474 18.5381 46.109C18.6421 47.5706 17.7066 48.8234 16.5634 48.9278C15.4201 48.9278 14.4847 47.7794 14.3808 46.3178C14.2768 44.7518 15.2122 43.499 16.3555 43.499Z" fill="#253F4D"/>
<path d="M60.3986 96.2972L56.4097 91.6324C71.0911 80.8318 73.2457 67.9025 74.1857 67.979L77.6792 68.3011C76.8678 69.0485 77.4328 83.2327 60.3986 96.2972Z" fill="#FFCEAB"/>
<path d="M62.6157 84.437C61.444 85.8771 59.2949 89.3357 55.5915 90.4483L60.2417 98.1845C63.71 95.3425 67.081 92.2114 68.5127 88.8236C66.8864 87.0723 65.5579 85.8393 62.6157 84.437Z" fill="#34377A"/>
<path d="M48.6115 100.857C48.3359 102.537 46.9637 103.748 45.4535 103.519C43.9433 103.29 42.8653 101.773 43.1409 100.093C43.4165 98.4125 44.7888 97.2014 46.299 97.4307C47.8092 97.6599 48.8871 99.1767 48.6115 100.857Z" fill="#E5A928"/>
<path d="M48.3674 100.791C48.1357 102.308 46.8887 103.377 45.5414 103.192C44.1942 103.006 43.2572 101.615 43.489 100.098C43.7207 98.5815 44.9677 97.5123 46.3149 97.6979C47.6622 97.8835 48.5991 99.2747 48.3674 100.791Z" fill="#EEC140"/>
<path opacity="0.22" d="M44.7301 101.659C45.2847 101.544 45.7827 100.011 46.2621 99.526C46.7414 99.0405 47.1769 98.7186 47.7534 98.5223C47.4338 98.0858 46.9074 97.7694 46.3152 97.6984C44.9679 97.5128 43.6395 98.5601 43.4892 100.099C43.248 100.999 43.7839 101.932 44.7301 101.659Z" fill="white"/>
<path d="M47.2576 89.6189L56.6729 90.6508C59.3832 91.2893 59.5871 94.7644 58.8635 97.4648C58.8635 97.4648 58.2213 97.9067 58.0458 98.5613C54.3643 97.3117 43.9869 94.0048 41.7717 93.1482C41.5492 93.0009 41.2234 92.9135 41.0009 92.7662C41.6587 90.3113 44.7103 89.0241 47.2576 89.6189Z" fill="#E5A185"/>
<path d="M51.0517 84.5839L51.481 84.6112C52.4429 84.6058 53.2889 85.3588 53.2702 86.4062L53.3143 90.8033C53.3176 91.7689 52.5656 92.6199 51.5223 92.6035L51.093 92.5762C50.1312 92.5815 49.2851 91.8286 49.3039 90.7812L49.2597 86.3841C49.2565 85.4184 50.0084 84.5675 51.0517 84.5839Z" fill="#E5A185"/>
<path d="M60.4362 98.763C60.4863 98.2502 60.5364 97.7374 60.6084 97.1428C60.5676 95.9917 61.0218 94.6224 59.6305 92.3201C58.4773 90.4324 55.5102 90.4267 55.5102 90.4267C53.737 93.4598 48.6299 92.9684 48.2787 89.7169C46.6056 89.444 44.9763 89.0075 43.1497 89.3074C40.5836 89.76 39.0017 94.6861 39.0237 94.6043C37.3134 100.987 33.8396 113.3 33.8396 113.3C38.7685 118.041 53.5729 119.815 59.5132 117.197C59.4098 117.257 59.5311 104.748 60.4362 98.763Z" fill="#34377A"/>
<path d="M65.5043 76.2651C65.3916 77.989 64.2638 79.2655 63.0575 79.2054C61.8512 79.1453 60.8548 77.6504 60.9455 76.0083C61.0582 74.2844 62.186 73.0079 63.3923 73.0681C64.6801 73.15 65.617 74.5412 65.5043 76.2651Z" fill="#FFCEAB"/>
<path d="M53.9279 88.5118L51.6721 88.7844C45.6219 89.5313 40.0727 85.1502 39.3422 79.0782L38.8406 75.0847C38.1102 69.0127 42.4868 63.4322 48.5369 62.6852L50.7928 62.4126C54.3208 61.9547 57.7141 63.3024 60.0454 65.6812C61.6936 67.3507 62.8405 69.5875 63.1226 72.1189L63.6242 76.1123C64.3547 82.1843 59.9781 87.7649 53.9279 88.5118Z" fill="#FFCEAB"/>
<path d="M48.3282 80.0825C47.877 80.1371 47.6201 80.7699 47.8363 81.2663C48.9613 83.585 51.0231 85.0145 53.0126 84.7582C55.0836 84.5238 56.6313 82.6582 57.2296 80.0996C57.383 79.5268 56.982 79.0685 56.4493 79.1012L48.3282 80.0825Z" fill="white"/>
<path d="M40.6864 78.298C41.2098 79.9293 40.7713 81.5659 39.5368 81.9367C38.3838 82.3294 36.9676 81.4237 36.3627 79.7707C35.8394 78.1394 36.2779 76.5028 37.5124 76.132C38.7468 75.7611 40.1631 76.6668 40.6864 78.298Z" fill="#FFCEAB"/>
<path d="M45.2077 73.809C44.4088 73.858 43.7979 74.8345 43.9797 76.1111C44.08 77.3659 44.8603 78.3643 45.6592 78.3152C46.4582 78.2662 47.0691 77.2897 46.8873 76.0131C46.7869 74.7584 46.0067 73.76 45.2077 73.809Z" fill="#253F4D"/>
<path d="M57.665 72.9369C56.8661 72.986 56.2552 73.9624 56.437 75.239C56.5373 76.4938 57.3176 77.4922 58.1165 77.4432C58.9155 77.3941 59.5264 76.4177 59.3446 75.1411C59.2442 73.8863 58.464 72.8879 57.665 72.9369Z" fill="#253F4D"/>
<path d="M63.1445 69.7564C65.6571 66.5707 62.6581 59.1892 60.8657 56.4286C60.5336 56.6904 59.979 56.8049 60.0323 57.2577C60.001 56.7231 60.2922 55.3102 60.0541 54.8955C59.935 54.6882 59.5 54.9996 59.1016 55.5174C58.2319 56.6478 58.5 58.8218 55.5 58.8218C46.3448 58.1228 42.1919 57.0381 39.576 60.2839C39.6261 59.7711 39.5947 59.2364 39.3565 58.8218C35.7316 61.271 35.732 65.8318 35.7195 66.5301C35.7195 66.5301 34.7574 64.2551 34.3 64.6587C33.8426 65.0624 35.0991 66.8901 35.0991 66.8901C35.0991 66.8901 33.9429 66.3172 33.6046 66.9282C33.2663 67.5391 35.1399 68.0412 35.1399 68.0412C35.1399 68.0412 36.0895 71.0145 37.9226 72.6458C37.9226 72.6458 38.612 75.2863 39.1416 76.5684C40.2542 79.5854 39.9813 75.3901 40.1816 73.3388C40.9956 64.4356 55.7118 59.696 60.1583 66.2374C62.9096 70.3074 63.3641 73.4989 63.4456 73.5207L63.1445 69.7564Z" fill="#87560C"/>
<path d="M63 71.5001C60.6 71.5001 56.6667 67.1667 55 65.0001L59 62C60.1667 63.3334 62.6 67.1001 63 71.5001Z" fill="#87560C"/>
<path d="M39.8834 75.1497C45.0834 75.1497 54.7168 67.1497 58.8834 63.1496C56.0834 60.3496 45.0501 63.3163 39.8834 65.1496C39.2168 66.983 38.2835 71.5496 39.8834 75.1497Z" fill="#87560C"/>
<path opacity="0.47" d="M59.9726 57.1544C59.9507 57.2362 59.9507 57.2362 59.9288 57.318C60.0322 57.258 59.9726 57.1544 59.9726 57.1544Z" fill="white"/>
<path opacity="0.1" d="M38.3734 70.3108C38.433 70.4145 38.4925 70.5182 38.4486 70.6818C38.411 70.4963 38.3515 70.3927 38.3734 70.3108Z" fill="#3D2405"/>
<path opacity="0.1" d="M59.9726 57.1544C59.9507 57.2362 59.9507 57.2362 59.9288 57.318C60.0322 57.258 59.9726 57.1544 59.9726 57.1544Z" fill="#3D2405"/>
<path d="M16.8679 83.7812L16.6366 82.4219L18.5153 81.9102C19.5734 81.6106 19.6289 82.493 20.2471 83.4389C21.9054 85.9878 26.8016 91.2259 33.2636 92.9075C38.0581 94.2105 40.7303 95.0665 46.2144 92.1429C46.5921 93.8997 46.5509 92.529 46.9286 94.2858C42.4424 93.7003 47.6927 94.8914 47.6428 95C41.3176 98.3239 37.6496 99.6879 31.6712 98.0989C20.1979 95.0135 15.5929 83.9802 15.3381 83.5324L16.8679 83.7812Z" fill="#FFCEAB"/>
<path d="M34.3541 92.1748C34.5066 93.8341 35.6607 97.3814 36.4896 99.4233C39.6583 98.8877 45.3776 97.5928 48.5871 95.5073L44.8176 89.222C40.1671 90.3037 36.5974 91.6191 34.3541 92.1748Z" fill="#34377A"/>
<path d="M73.4306 70.1446C73.4306 70.1446 71.6726 66.6039 72.014 64.6781C72.4368 62.7742 71.8133 62.1686 72.3365 61.5194C72.8597 60.8703 73.6556 62.136 73.5898 62.3815C73.524 62.627 73.9093 60.5376 75.2064 61.236C76.5036 61.9344 77.1459 61.4925 77.8948 61.9563C78.5622 62.3983 79.1292 61.5854 79.7089 62.3547C80.2886 63.124 81.6047 65.0553 81.2539 66.3646C80.5021 69.496 79.5747 68.7212 79.5747 68.7212C78.5409 71.6016 76.5357 71.5905 76.5357 71.5905L73.4306 70.1446Z" fill="#FFCEAB"/>
<path d="M19.9101 83.7436C19.9101 83.7436 21.3381 80.0574 20.8227 78.1708C20.2281 76.3133 20.7939 75.6534 20.2137 75.0546C19.6335 74.4559 18.9562 75.7888 19.0441 76.0273C19.132 76.2658 18.558 74.2202 17.3298 75.0339C16.1017 75.8476 15.4218 75.4661 14.7183 75.9962C14.094 76.4971 13.4552 75.7393 12.948 76.5582C12.4408 77.3771 11.3062 79.4203 11.7749 80.6922C12.8088 83.742 13.6618 82.886 13.6618 82.886C14.9537 85.6602 16.9496 85.4665 16.9496 85.4665L19.9101 83.7436Z" fill="#FFCEAB"/>
</g>
<defs>
<clipPath id="clip0">
<rect x="0.5" width="100" height="100" rx="4" fill="white"/>
</clipPath>
</defs>
</svg>
