<svg width="70" height="70" viewBox="0 0 70 70" fill="none" xmlns="http://www.w3.org/2000/svg">
<g clip-path="url(#clip0)">
<path d="M18.7888 19.0489C19.007 19.1219 25.9186 11.9601 32.3937 19.3412C40.542 28.6223 39.5963 41.8498 39.2325 49.5232C38.796 49.0116 20.5349 52.3733 14.4236 43.4576C8.23955 34.3956 12.8958 17.2219 18.7888 19.0489Z" fill="#2B150F"/>
<path d="M22.4998 48.7194L22.2088 43.0922C22.136 41.7037 23.0818 40.5344 24.3186 40.5344C25.5554 40.4613 26.574 41.5575 26.6467 42.873L26.9378 48.6463V48.7194H22.4998Z" fill="#E09178"/>
<path d="M24.9001 44.3345C26.2824 44.4076 27.8102 44.1153 29.2653 43.4576C35.5948 40.5344 37.0499 31.5455 34.4308 25.6991C34.4308 25.6991 34.4308 25.6261 34.358 25.6261C34.067 24.9683 33.7032 24.3106 33.2667 23.726C31.8116 21.6067 29.8473 19.9258 27.4464 19.122C26.3551 18.7566 25.1911 18.5373 24.027 18.6104C17.1154 18.6104 13.3323 26.0645 13.6233 32.2763C13.987 38.1227 19.007 44.1153 24.9001 44.3345Z" fill="#E09178"/>
<path d="M22.5693 35.7174L29.6991 35.7905C30.1356 35.7905 30.4267 36.229 30.2084 36.6675C29.4081 38.5676 27.8803 39.8099 26.0615 39.8099C24.3154 39.8099 22.7876 38.4945 21.9873 36.5944C21.9145 36.1559 22.2055 35.7174 22.5693 35.7174Z" fill="white"/>
<path d="M18.7888 19.0489C19.007 19.1219 25.9186 11.9601 32.3937 19.3412C40.542 28.6223 39.5963 41.8498 39.2325 49.5232C39.2325 49.5232 37.1226 33.2995 28.6105 26.6492C26.1369 24.7491 21.5534 22.4105 21.5534 22.4105C21.5534 22.4105 21.1169 24.4568 19.5163 26.5761C17.1155 30.5955 13.114 33.0071 12.3137 37.8304C12.3137 38.1958 12.241 38.4881 12.241 38.8535C9.69461 29.5724 13.8416 17.5142 18.7888 19.0489Z" fill="#3F1B14"/>
<path d="M12.2407 34.9803C12.75 36.515 13.9868 37.465 15.0781 37.0996C16.1694 36.7342 16.606 35.1995 16.0967 33.7379C15.5874 32.2033 14.3506 31.2532 13.2593 31.6186C12.168 31.984 11.7315 33.5187 12.2407 34.9803Z" fill="#E09178"/>
<path d="M30.7931 47.5501C30.7931 47.5501 37.0499 61.0698 40.6876 65.82C45.1255 71.6664 50 83.2862 50 83.2862L48.6177 84.09C48.6177 84.09 39.4508 73.128 37.9229 70.1318C36.3951 67.1355 30.5021 50.9117 30.5021 50.9117L30.7931 47.5501Z" fill="#E09178"/>
<path d="M33.7033 61.5083C29.9929 61.8737 26.2097 62.3122 22.5721 62.8968C22.1355 61.3621 21.4808 59.9005 21.0442 58.3659C20.3895 56.3196 19.8074 54.2003 19.2254 52.1541C18.7889 50.6925 18.1341 49.0847 17.8431 47.55C23.2269 46.9654 28.4651 47.3308 30.2112 47.55C30.7205 50.9117 32.1028 54.2734 33.6306 57.4889C33.5578 58.8043 33.5578 60.1929 33.7033 61.5083Z" fill="#E09178"/>
<path d="M32.0301 56.6851C29.9202 51.6426 28.1014 47.1847 28.1014 47.1847H30.0657C30.7205 47.1847 31.3753 47.477 31.6663 48.0617C32.5393 49.5233 34.3582 52.4464 35.886 55.662C34.9402 55.9543 33.0486 56.3928 32.0301 56.6851Z" fill="#F2293A"/>
<path d="M11.2225 82.7745C14.7875 72.6895 19.5892 69.8394 19.953 66.9893C20.3167 64.1392 16.0243 47.6962 16.0243 47.6962C17.1883 47.55 18.4251 47.4039 19.5892 47.3308C20.7532 48.9385 23.9544 49.8886 25.9915 49.8886C27.8103 49.8886 27.6648 48.1347 27.4465 47.1846C27.9558 47.1115 28.4651 47.1115 28.4651 47.1115C28.4651 47.1115 36.2497 55.2965 35.9587 57.4889C35.6677 59.6082 33.8488 60.9236 33.8488 60.9236C33.8488 60.9236 40.5422 79.3398 40.3239 85.7708C40.1056 92.2019 8.60343 90.2287 11.2225 82.7745Z" fill="#F2293A"/>
<path d="M0.964399 86.0632C0.309619 85.4786 -0.34516 86.1363 -0.99994 85.5516C1.54643 82.7746 8.67626 68.0125 8.67626 68.0125C8.67626 68.0125 13.0415 56.1004 15.2968 51.4964L18.4252 49.9617C17.9887 51.0579 12.896 69.9125 12.896 69.9125C12.8232 70.2049 3.51077 84.7478 0.964399 86.0632Z" fill="#E09178"/>
<path d="M11.5137 57.8543C12.605 54.785 14.2784 47.7693 16.0245 47.7693L20.3897 49.9617C20.0986 50.6925 18.2798 54.4926 16.3155 59.6813C15.1514 59.1698 12.6778 58.2928 11.5137 57.8543Z" fill="#F2293A"/>
<path d="M31.2297 30.3032C32.03 30.3032 32.6848 31.107 32.7576 32.1302C32.8303 33.1533 32.1755 34.0303 31.3752 34.1033C30.575 34.1033 29.9202 33.2995 29.8474 32.2763C29.8474 31.2532 30.4295 30.3762 31.2297 30.3032Z" fill="#381911"/>
<path d="M20.0989 30.4494C20.8992 30.4494 21.5539 31.2533 21.6267 32.2764C21.6995 33.2995 21.0447 34.1764 20.2444 34.2495C19.4441 34.2495 18.7893 33.4456 18.7166 32.4225C18.6438 31.3263 19.2986 30.4494 20.0989 30.4494Z" fill="#381911"/>
<path d="M50.929 67.4082L48.1368 64.1429C58.4137 56.5824 59.922 47.5319 60.58 47.5855L63.0255 47.811C62.4575 48.3341 62.853 58.2631 50.929 67.4082Z" fill="#E7A387"/>
<path d="M52.481 59.1061C51.6608 60.1142 50.1564 62.5353 47.5641 63.3141L50.8192 68.7294C53.247 66.74 55.6067 64.5482 56.6089 62.1768C55.4705 60.9509 54.5405 60.0877 52.481 59.1061Z" fill="#7A344A"/>
<path d="M42.6781 70.6C42.4852 71.7762 41.5246 72.6239 40.4674 72.4634C39.4103 72.3029 38.6557 71.2412 38.8487 70.0651C39.0416 68.8889 40.0022 68.0412 41.0593 68.2016C42.1165 68.3621 42.871 69.4238 42.6781 70.6Z" fill="#E5A928"/>
<path d="M42.5072 70.5542C42.345 71.6158 41.4721 72.3642 40.529 72.2343C39.5859 72.1044 38.9301 71.1305 39.0923 70.0689C39.2545 69.0073 40.1274 68.2589 41.0705 68.3888C42.0136 68.5187 42.6694 69.4926 42.5072 70.5542Z" fill="#EEC140"/>
<path opacity="0.22" d="M39.9611 71.1612C40.3493 71.081 40.6979 70.008 41.0335 69.6681C41.369 69.3283 41.6738 69.103 42.0774 68.9655C41.8536 68.66 41.4852 68.4385 41.0706 68.3888C40.1275 68.2589 39.1977 68.992 39.0925 70.0689C38.9236 70.699 39.2987 71.3521 39.9611 71.1612Z" fill="white"/>
<path d="M41.7304 62.7332L48.3211 63.4555C50.2183 63.9025 50.361 66.3351 49.8545 68.2253C49.8545 68.2253 49.4049 68.5346 49.2821 68.9929C46.705 68.1182 39.4408 65.8034 37.8902 65.2037C37.7345 65.1006 37.5064 65.0395 37.3506 64.9363C37.8111 63.2179 39.9472 62.3168 41.7304 62.7332Z" fill="#E5A185"/>
<path d="M44.3862 59.2087L44.6867 59.2278C45.36 59.224 45.9522 59.7511 45.9391 60.4843L45.97 63.5623C45.9723 64.2382 45.446 64.8339 44.7156 64.8224L44.4151 64.8033C43.7418 64.807 43.1496 64.28 43.1627 63.5468L43.1318 60.4688C43.1295 59.7929 43.6559 59.1972 44.3862 59.2087Z" fill="#E5A185"/>
<path d="M50.9553 69.1342C50.9904 68.7753 51.0255 68.4163 51.0759 68C51.0473 67.1943 51.3653 66.2358 50.3913 64.6241C49.5841 63.3028 47.5071 63.2988 47.5071 63.2988C46.2659 65.422 42.6909 65.078 42.4451 62.8019C41.2739 62.6109 40.1334 62.3053 38.8548 62.5152C37.0586 62.8321 35.9512 66.2804 35.9666 66.2231C34.7694 70.691 32.3377 79.3099 32.3377 79.3099C35.7879 82.6287 46.151 83.8707 50.3093 82.038C50.2369 82.08 50.3218 73.3234 50.9553 69.1342Z" fill="#7A344A"/>
<path d="M54.503 53.3858C54.4242 54.5925 53.6347 55.486 52.7903 55.444C51.9459 55.4019 51.2483 54.3555 51.3119 53.206C51.3907 51.9993 52.1802 51.1057 53.0246 51.1478C53.926 51.2052 54.5819 52.179 54.503 53.3858Z" fill="#E09178"/>
<path d="M46.3996 61.9583L44.8204 62.1491C40.5853 62.672 36.7009 59.6052 36.1896 55.3548L35.8385 52.5594C35.3271 48.309 38.3908 44.4026 42.6259 43.8797L44.205 43.6889C46.6745 43.3683 49.0499 44.3118 50.6818 45.9769C51.8355 47.1456 52.6383 48.7113 52.8359 50.4833L53.187 53.2787C53.6983 57.5291 50.6346 61.4355 46.3996 61.9583Z" fill="#E7A387"/>
<path d="M42.4797 56.0579C42.1639 56.0961 41.9841 56.5391 42.1355 56.8866C42.9229 58.5097 44.3662 59.5103 45.7588 59.3309C47.2086 59.1668 48.2919 57.8609 48.7107 56.0699C48.8181 55.6689 48.5374 55.3481 48.1645 55.371L42.4797 56.0579Z" fill="white"/>
<path d="M37.1305 54.8088C37.4969 55.9507 37.1899 57.0963 36.3258 57.3559C35.5187 57.6308 34.5273 56.9968 34.1039 55.8396C33.7376 54.6978 34.0445 53.5522 34.9086 53.2926C35.7728 53.0329 36.7641 53.6669 37.1305 54.8088Z" fill="#E7A387"/>
<path d="M40.2954 51.6662C39.7361 51.7005 39.3085 52.3841 39.4358 53.2777C39.506 54.156 40.0522 54.8549 40.6115 54.8206C41.1707 54.7863 41.5984 54.1027 41.4711 53.2091C41.4009 52.3308 40.8547 51.6319 40.2954 51.6662Z" fill="#422115"/>
<path d="M49.0155 51.0559C48.4563 51.0902 48.0286 51.7737 48.1559 52.6674C48.2262 53.5457 48.7723 54.2446 49.3316 54.2103C49.8909 54.1759 50.3185 53.4924 50.1912 52.5988C50.121 51.7204 49.5748 51.0216 49.0155 51.0559Z" fill="#422115"/>
<path d="M52.8512 48.8298C54.61 46.5997 52.5107 41.4327 51.256 39.5002C51.0235 39.6835 50.6353 39.7637 50.6726 40.0807C50.6507 39.7064 50.8546 38.7174 50.6879 38.4271C50.6045 38.282 50.1242 38.7058 50.0212 38.8624C50.3501 38.091 50.3742 37.5449 50.407 36.51C43.9983 36.0207 38.1844 39.9269 36.3532 42.199C36.3882 41.84 36.3663 41.4658 36.1996 41.1755C33.6621 42.89 33.6624 46.0825 33.6536 46.5713C33.6536 46.5713 32.9802 44.9788 32.66 45.2614C32.3398 45.5439 33.2194 46.8233 33.2194 46.8233C33.2194 46.8233 32.4101 46.4223 32.1732 46.85C31.9364 47.2776 33.248 47.6291 33.248 47.6291C33.248 47.6291 33.9127 49.7104 35.1958 50.8523C35.1958 50.8523 35.6784 52.7007 36.0492 53.5981C36.8279 55.71 36.6369 52.7733 36.7771 51.3374C37.3469 45.1052 47.6483 41.7874 50.7608 46.3664C52.6867 49.2154 53.0049 51.4495 53.0619 51.4648L52.8512 48.8298Z" fill="#4C2518"/>
<path opacity="0.24" d="M33.7985 48.0836C35.6847 48.3434 37.3361 46.5143 38.7265 45.659C41.1456 44.1584 44.4156 43.1314 47.2449 43.5212C48.7166 43.7313 50.0084 44.3844 51.0481 45.5225C52.0308 46.6453 52.4278 47.6726 52.8051 49.0016L52.8755 51.4762C52.8909 51.4189 52.5003 49.2269 50.5744 46.3779C47.4619 41.7989 37.1605 45.1166 36.5908 51.3489C36.4658 52.7275 36.6985 55.7367 35.8628 53.6096C35.5074 52.6549 35.0094 50.8638 35.0094 50.8638C34.1364 50.0159 33.5003 48.7404 33.2546 48.0606C33.4981 48.0645 33.6691 48.1103 33.7985 48.0836Z" fill="#422115"/>
<path opacity="0.47" d="M50.6308 40.0081C50.6155 40.0653 50.6155 40.0653 50.6001 40.1226C50.6725 40.0806 50.6308 40.0081 50.6308 40.0081Z" fill="white"/>
<path opacity="0.1" d="M35.5114 49.2179C35.5531 49.2904 35.5948 49.363 35.5641 49.4776C35.5377 49.3477 35.4961 49.2752 35.5114 49.2179Z" fill="#3D2405"/>
<path opacity="0.1" d="M50.6308 40.0081C50.6155 40.0653 50.6155 40.0653 50.6001 40.1226C50.6725 40.0806 50.6308 40.0081 50.6308 40.0081Z" fill="#3D2405"/>
<path d="M20.4575 58.6468L20.2956 57.6953L21.6107 57.3371C22.3514 57.1274 22.3902 57.7451 22.823 58.4072C23.9838 60.1914 27.4112 63.8581 31.9346 65.0353C35.2907 65.9474 37.1612 66.5465 41.0001 64.5C41.2645 65.7298 41.2356 64.7702 41.5 66C38.3597 65.5902 42.0349 66.4239 42 66.5C37.5723 68.8267 35.0048 69.7815 30.8198 68.6692C22.7885 66.5094 19.5651 58.7861 19.3866 58.4726L20.4575 58.6468Z" fill="#E5A185"/>
<path d="M32.6979 64.5225C32.8046 65.684 33.6125 68.1671 34.1927 69.5965C36.4108 69.2216 40.4143 68.3151 42.661 66.8553L40.0223 62.4556C36.767 63.2127 34.2682 64.1335 32.6979 64.5225Z" fill="#7A344A"/>
<path d="M60.0514 49.1015C60.0514 49.1015 58.8208 46.6229 59.0598 45.2749C59.3558 43.9422 58.9193 43.5182 59.2855 43.0638C59.6518 42.6094 60.2089 43.4954 60.1629 43.6673C60.1168 43.8391 60.3865 42.3765 61.2945 42.8654C62.2026 43.3543 62.6521 43.045 63.1763 43.3697C63.6435 43.679 64.0405 43.11 64.4463 43.6485C64.852 44.187 65.7733 45.539 65.5277 46.4555C65.0015 48.6474 64.3523 48.1051 64.3523 48.1051C63.6286 50.1214 62.225 50.1136 62.225 50.1136L60.0514 49.1015Z" fill="#E5A185"/>
<path d="M22.587 58.6205C22.587 58.6205 23.5867 56.0401 23.2259 54.7195C22.8097 53.4193 23.2057 52.9573 22.7996 52.5382C22.3935 52.119 21.9194 53.0521 21.9809 53.2191C22.0424 53.386 21.6406 51.9541 20.7809 52.5237C19.9212 53.0932 19.4453 52.8262 18.9528 53.1973C18.5158 53.5479 18.0686 53.0175 17.7136 53.5907C17.3586 54.1639 16.5643 55.5942 16.8924 56.4845C17.6162 58.6194 18.2133 58.0202 18.2133 58.0202C19.1176 59.9621 20.5147 59.8265 20.5147 59.8265L22.587 58.6205Z" fill="#E5A185"/>
</g>
<defs>
<clipPath id="clip0">
<path d="M0 4C0 1.79086 1.79086 0 4 0H66C68.2091 0 70 1.79086 70 4V66C70 68.2091 68.2091 70 66 70H4C1.79086 70 0 68.2091 0 66V4Z" fill="white"/>
</clipPath>
</defs>
</svg>
