<svg width="11" height="15" viewBox="0 0 11 15" fill="none" xmlns="http://www.w3.org/2000/svg">
<path d="M0.312966 7.85031C0.216532 7.7874 0.137683 7.70322 0.0832112 7.60502C0.0287402 7.50682 0.000278768 7.39754 0.000278773 7.28661C0.000278777 7.17567 0.0287402 7.0664 0.0832113 6.9682C0.137683 6.87 0.216532 6.78582 0.312966 6.72291L9.72184 0.550996C9.83037 0.479556 9.95748 0.437662 10.0894 0.429866C10.2213 0.42207 10.3529 0.448668 10.4699 0.506774C10.587 0.564879 10.685 0.652267 10.7533 0.759445C10.8216 0.866623 10.8576 0.98949 10.8574 1.1147L10.8574 13.4585C10.8569 13.5834 10.8204 13.7059 10.7519 13.8126C10.6834 13.9193 10.5855 14.0064 10.4688 14.0643C10.352 14.1223 10.2207 14.149 10.0891 14.1416C9.95752 14.1342 9.83054 14.0929 9.72184 14.0222L0.312966 7.85031Z" fill="white"/>
</svg>
