<svg width="110" height="50" viewBox="0 0 110 50" fill="none" xmlns="http://www.w3.org/2000/svg">
<path d="M50.65 25.6198V30.2479H53.3214V24.5868C53.3214 23.1405 52.4733 22.1074 50.6076 22.1074C49.5051 22.0661 48.4875 22.5207 47.7666 23.3058V19.2975H45.1801V30.2479H47.7666V25.124C48.0635 24.7521 48.6147 24.3802 49.3355 24.3802C50.1836 24.3802 50.6924 24.6694 50.65 25.6198ZM40.0918 22.1074C38.8197 22.1074 37.4204 22.5207 36.3604 23.3471L37.3356 25.124C38.0141 24.5868 38.8197 24.2975 39.6254 24.2975C40.6854 24.2975 41.2791 24.7107 41.2791 25.4132V26.2397C40.7702 25.6198 39.8374 25.2893 38.7349 25.2893C37.4628 25.2893 35.9363 25.9091 35.9363 27.8512C35.9363 29.6281 37.5052 30.4545 38.7349 30.4545C39.2064 30.4708 39.6762 30.3909 40.1143 30.2202C40.5524 30.0494 40.9491 29.7915 41.2791 29.4628V30.2893H43.8656V25.2893C43.8656 22.8099 42.0423 22.0661 40.0494 22.0661L40.0918 22.1074ZM41.2791 28.2231C41.0246 28.595 40.431 28.8017 39.8374 28.8017C39.1589 28.8017 38.5229 28.5124 38.5229 27.8926C38.5229 27.2314 39.1589 26.9421 39.795 26.9421C40.3886 26.9421 41.0246 27.1488 41.2791 27.5207V28.2231ZM65.0245 22.1074C63.7524 22.1074 62.6923 22.8512 62.1835 23.5537C61.8443 22.6033 61.081 22.1074 59.8938 22.1074C58.6217 22.1074 57.5616 22.8512 57.2224 23.3058V22.314H54.5934V30.2479H57.2224V25.124C57.4768 24.7934 57.9432 24.3802 58.6641 24.3802C59.4697 24.3802 59.7241 24.7934 59.7241 25.4132V30.2479H62.3531V25.124C62.6075 24.7934 63.1163 24.3802 63.7948 24.3802C64.6004 24.3802 64.8972 24.7934 64.8972 25.4132V30.2479H67.4414V24.5041C67.4414 22.8512 66.5085 22.1074 65.0245 22.1074ZM78.9749 37.9752C78.5932 38.5537 77.7876 38.6777 77.194 38.3058L77.1516 38.2645C76.5579 37.8512 76.4307 37.0661 76.8123 36.4876C77.194 35.9091 78.042 35.7851 78.6357 36.157C78.7793 36.2451 78.9034 36.3604 79.0006 36.4959C79.0979 36.6315 79.1663 36.7847 79.2018 36.9464C79.2374 37.1081 79.2394 37.2752 79.2077 37.4377C79.176 37.6002 79.1113 37.7548 79.0173 37.8926L78.9749 37.9752ZM79.1445 35.5372C78.7308 35.2499 78.225 35.1169 77.7192 35.1624C77.2133 35.2079 76.741 35.4289 76.3883 35.7851C76.2611 35.9091 76.0491 35.9504 75.9643 35.7851C75.6251 34.7934 75.1162 33.719 73.8442 32.3554L78.1692 26.5702C78.6781 25.8678 78.8477 24.4215 78.0844 23.9256L72.6569 31.1983V33.5124C74.141 34.2562 75.201 35.4132 75.8795 37.7273C75.9574 37.9877 76.0873 38.2307 76.2616 38.4423C76.4359 38.6539 76.6513 38.8299 76.8954 38.9604C77.1395 39.0908 77.4076 39.1731 77.6844 39.2026C77.9611 39.2321 78.2412 39.2082 78.5084 39.1322C78.9325 39.0083 79.3565 38.7603 79.6109 38.3884C79.9306 37.9479 80.0607 37.403 79.9736 36.8702C79.8864 36.3374 79.5888 35.859 79.1445 35.5372ZM72.0633 36.8595V38.7603H70.1128V40H73.3353V36.9008L72.0633 36.8595ZM63.0739 40H68.3742V38.7603H63.0739V40ZM56.0775 40H61.3354V38.7603H56.0775V40ZM49.0387 40H54.2966V38.7603H49.0811L49.0387 40ZM41.9999 40H47.2578V38.7603H41.9999V40ZM34.9611 40H40.219V38.7603H34.9611V40ZM30 36.8595V40H33.2226V38.7603H31.2721V36.9008L30 36.8595ZM30 20.4545H31.2721V14.9587H30V20.4545ZM30 27.7686H31.2721V22.2727H30V27.7686ZM30 35.0826H31.2721V29.5868H30V35.0826ZM30 10V13.1405H31.2721V11.2397H33.2226V10H30ZM63.0739 11.2397H68.3742V10H63.0739V11.2397ZM56.0775 11.2397H61.3354V10H56.0775V11.2397ZM49.0387 11.2397H54.2966V10H49.0811L49.0387 11.2397ZM41.9999 11.2397H47.2578V10H41.9999V11.2397ZM34.9611 11.2397H40.219V10H34.9611V11.2397ZM70.1128 10V11.2397H72.0633V13.1405H73.3353V10H70.1128Z" fill="white"/>
<path d="M73.3353 35.0826H72.0632V29.5867H73.3353V35.0826ZM73.3353 27.7685H72.0632V22.2726H73.3353V27.7685ZM73.3353 20.4545H72.0632V14.9586H73.3353V20.4545Z" fill="white"/>
</svg>
