<svg width="110" height="50" viewBox="0 0 110 50" fill="none" xmlns="http://www.w3.org/2000/svg">
<g clip-path="url(#clip0)">
<path d="M19.9999 25.3571C19.9999 29.556 23.0791 32.915 26.8114 32.915C29.7972 32.915 32.2232 31.1422 32.8764 28.8095C32.8764 28.7162 32.8764 28.7162 32.7831 28.7162C32.3165 28.9028 31.7567 28.9961 31.1035 28.9961C28.0244 28.9961 26.0649 26.3835 26.0649 23.211C26.0649 21.2516 26.5315 19.7587 27.0913 18.2657C27.0913 18.1724 27.0913 18.1724 26.998 18.1724C26.7181 18.1724 26.3448 18.0791 25.9716 18.0791C22.6125 18.0791 19.9999 21.3449 19.9999 25.3571Z" fill="white"/>
<path d="M27.1846 22.278C27.1846 22.3713 27.1846 22.3713 27.2779 22.3713C27.9311 22.0914 28.5842 21.9048 29.3307 21.9048C32.0366 21.9048 34.1827 24.2375 34.1827 27.0367C34.1827 31.0489 31.0102 33.9414 26.998 33.9414C26.8114 33.9414 26.6248 33.9414 26.5314 33.9414C26.4381 33.9414 26.3448 33.9414 26.3448 33.9414C26.3448 33.9414 26.3448 34.0347 26.4381 34.0347C27.7444 34.5013 29.0508 34.7812 30.5437 34.7812C36.5154 34.7812 40.9941 29.9292 40.9941 23.9575C40.9941 19.0122 37.7284 15 33.7161 15C30.3571 15 27.5578 17.7992 27.1846 22.278Z" fill="white"/>
<path d="M70.6659 20.2252C72.1588 20.2252 73.4651 21.1583 73.7451 22.4646H75.5179V19.1989C74.3049 18.639 72.6254 18.1725 70.7592 18.1725C64.8808 18.1725 62.0816 21.3449 62.0816 25.4505C62.0816 29.7426 65.1608 32.8218 70.2927 32.8218C73.0919 32.8218 74.7714 31.8887 76.2644 30.3958L75.1447 28.9962C74.1183 29.8359 72.812 30.4891 71.2258 30.4891C68.7998 30.4891 66.4671 28.7162 66.4671 24.9839C66.3738 21.8115 68.0533 20.2252 70.6659 20.2252Z" fill="white"/>
<path d="M46.6859 22.2781V32.4486H50.7914V26.4769H56.3898V32.4486H60.4021V18.4525H55.4568V19.8521C56.1099 20.3186 56.3898 20.9718 56.3898 22.2781V24.3308H50.7914V18.4525H45.7528V19.8521C46.4059 20.3186 46.6859 20.9718 46.6859 22.2781Z" fill="white"/>
<path d="M88.301 21.9048H89.9806V18.4525H77.1974V19.8521C77.8506 20.4119 78.2238 21.0651 78.2238 22.2781V32.4486H82.2361V26.3836H87.368V24.4242H82.2361V20.4119H86.0617C87.1814 20.4119 88.0211 21.0651 88.301 21.9048Z" fill="white"/>
</g>
<defs>
<clipPath id="clip0">
<rect width="69.8874" height="19.8745" fill="white" transform="translate(19.9999 15)"/>
</clipPath>
</defs>
</svg>
