<svg width="110" height="50" viewBox="0 0 110 50" fill="none" xmlns="http://www.w3.org/2000/svg">
<path d="M30.6197 19.4589H36.8446V22.169C38.3767 20.0999 40.0619 18.9721 42.6422 18.9721C47.1658 18.9721 49.2945 21.6416 49.2945 26.3883V36.7419H42.4809V27.6054C42.4809 25.8934 42.0133 24.3679 40.0861 24.3679C37.9896 24.3679 37.4332 25.723 37.4332 27.93V36.7338H30.6197V19.4589ZM51.0684 36.7338H57.8901V19.4589H51.0684V36.7338ZM51.0684 17.8442H57.8901V13.0001H51.0684V17.8442ZM69.3239 32.2954C67.0984 32.2954 66.4453 29.9585 66.4453 28.1166C66.4453 26.3315 67.2678 24.2949 69.3239 24.2949C71.5172 24.2949 72.2026 26.4046 72.2026 28.2465C72.2026 30.1127 71.5494 32.2954 69.3239 32.2954ZM66.5985 13.0001H59.785V36.7338H65.9051V34.2915H65.9615C66.8162 35.9467 68.3886 37.2288 71.235 37.2288C76.8471 37.2288 79 33.1068 79 27.9868C79 22.7776 75.9198 18.9558 71.5333 18.9558C69.4933 18.9558 67.929 19.6131 66.5824 21.1953V13.0001H66.5985Z" fill="white"/>
</svg>
