<svg width="110" height="50" viewBox="0 0 110 50" fill="none" xmlns="http://www.w3.org/2000/svg">
<path fill-rule="evenodd" clip-rule="evenodd" d="M37 7.00002H73.061V43.0611H37V7.00002ZM57.2096 15.9719C56.9282 16.4191 56.4736 16.8085 55.615 16.8085C54.7059 16.8085 53.8113 15.9719 53.9628 14.5439C54.1071 13.2962 54.9224 12.1278 56.3005 12.1278C57.0797 12.1278 57.5631 12.5533 57.7363 12.9067L57.8661 12.2216H58.8113L58.0465 16.7148H57.7723C57.4549 16.7148 57.1158 16.4551 57.1951 16.0368L57.2096 15.9719ZM56.4376 12.8635C58.0249 12.9572 57.5126 16.0873 55.8964 15.9935C54.4318 15.907 54.8863 12.7769 56.4376 12.8635ZM41.6178 10.4329C42.7361 10.4329 43.3638 10.9017 43.3638 11.9187C43.3638 12.8707 42.5774 13.3395 42.1372 13.4404C42.7289 13.5775 43.2411 14.1328 43.1185 14.9766C43.0247 15.5825 42.5774 16.4119 41.4735 16.6499C41.2354 16.7003 40.8024 16.7148 40.3551 16.7148H38.3854L39.4677 10.4329H41.6178ZM40.3263 15.9935C40.7375 15.9935 40.9323 15.9719 41.055 15.9431C42.3032 15.6257 42.4331 13.8876 41.0261 13.8876H39.9655L39.6047 15.9935H40.3263ZM40.8313 13.1375C41.156 13.1375 41.3364 13.1231 41.4735 13.0798C42.4619 12.7408 42.5485 11.1253 41.4013 11.1253H40.4417L40.0954 13.1375H40.8313ZM47.26 12.2288H47.5486C47.8444 12.2288 48.2268 12.4163 48.1546 12.9067C48.133 13.0726 47.8444 14.7026 47.7867 15.0199C47.6063 15.9935 47.0291 16.8157 45.5067 16.8157C44.6264 16.8157 43.9122 16.3037 43.8184 15.4671C43.8039 15.3012 43.8184 15.0488 43.8616 14.8035C43.9109 14.5011 44.003 13.9706 44.0912 13.4629C44.1839 12.9293 44.2722 12.4209 44.3018 12.2288H44.5543C44.8862 12.2288 45.2902 12.4235 45.2037 12.9067C45.1866 12.9919 45.0766 13.6499 44.9804 14.2252C44.9136 14.6247 44.8534 14.9843 44.8357 15.0848C44.7347 15.7123 45.1748 15.9935 45.6221 15.9935C46.4158 15.9935 46.6972 15.5825 46.7982 14.9766C46.8415 14.6954 47.26 12.2288 47.26 12.2288ZM49.5616 16.008L49.1214 18.489V18.4745H48.8761C48.703 18.4745 48.1691 18.3159 48.2989 17.6307C48.4072 17.0465 49.2297 12.2144 49.2297 12.2144H49.5327C49.8357 12.2144 50.1965 12.4596 50.1099 12.8923L50.0955 12.95C50.3769 12.5317 50.9252 12.1278 51.7333 12.1278C52.6641 12.1278 53.4649 12.9428 53.3711 14.3492C53.2846 15.6762 52.4115 16.8085 51.0046 16.8085C50.2254 16.8085 49.7347 16.3614 49.5616 16.008ZM51.4158 12.9428C52.8733 13.0221 52.4187 16.1666 50.8675 16.0801C49.2802 15.9863 49.7925 12.849 51.4158 12.9428ZM69.569 18.9433C69.9009 19.0587 70.4493 19.0804 70.8605 19.0804C71.0914 19.0804 71.3367 19.0732 71.4233 19.066L71.2501 20.0324C71.1708 20.0396 70.911 20.0468 70.6657 20.0468C70.2833 20.0468 69.7422 20.0252 69.3237 19.9026C68.6888 19.7223 68.126 19.3761 67.7869 19.1236C67.756 19.0996 67.7267 19.0788 67.6998 19.0598C67.6702 19.0388 67.6436 19.0199 67.6209 19.001C67.3035 18.7775 67.0798 18.7847 66.885 18.9938C66.8073 19.0802 66.7424 19.1846 66.6193 19.383C66.5368 19.516 66.4281 19.6912 66.2717 19.9314C66.113 20.1766 65.9615 20.4074 65.846 20.5805C65.6151 20.9339 65.2905 21.1575 65.0163 21.1575C64.7782 21.1575 64.5906 20.9988 64.468 20.6887C64.2443 20.1334 64.0928 14.717 64.0423 11.6302V11.6157C64.0423 11.5436 63.999 11.5148 63.9629 11.5148C63.9196 11.5148 63.8907 11.5508 63.8763 11.6013C63.8763 11.6085 63.8619 11.6807 63.833 11.8033C63.7991 11.9542 63.7629 12.1155 63.7246 12.2858C62.9896 15.5585 61.5034 22.175 61.2428 23.0182C61.0408 23.689 60.68 24.1145 60.3265 24.1145C60.0956 24.1145 59.8936 23.9198 59.7565 23.5664C59.4842 22.8518 59.2633 21.797 59.1119 21.0743C59.1029 21.0311 59.094 20.989 59.0855 20.9483C59.08 20.9208 59.0746 20.8937 59.0693 20.8672C59.033 20.6851 59.0015 20.527 58.97 20.4074C58.9051 20.1334 58.8257 19.9458 58.6454 19.9458C58.5227 19.9458 58.3568 20.0396 58.1259 20.2127C57.6713 20.5517 56.9065 21.0421 56.084 21.0421H48.6597L48.8473 19.9963H55.8748C56.6467 19.9963 57.1127 19.5864 57.5254 19.2234C57.5332 19.2166 57.5409 19.2098 57.5487 19.203C57.693 19.0659 57.8301 18.9506 57.9744 18.8496C58.6237 18.4024 59.1649 18.4385 59.5256 18.965C59.8413 19.4312 60 20.2611 60.1863 21.235L60.1894 21.2512C60.2076 21.349 60.2258 21.4525 60.2444 21.5586C60.2849 21.789 60.3276 22.0315 60.377 22.2537C60.3914 22.3403 60.4924 22.3403 60.5069 22.2537C61.1274 19.0876 62.5848 12.849 63.263 10.0435C63.53 8.94001 63.9557 8.55055 64.2443 8.55055C64.5978 8.55055 64.8503 9.07704 64.9081 9.92087C65.0379 11.8321 65.2111 18.2221 65.2255 19.3977C65.2255 19.4193 65.2327 19.5131 65.2977 19.5131C65.3338 19.5131 65.3626 19.477 65.3771 19.4554C65.4035 19.4139 65.4306 19.3711 65.4584 19.3273C65.7108 18.9294 66.0181 18.4446 66.4016 18.0418C66.7118 17.7101 66.9716 17.5586 67.2385 17.5586C67.4406 17.5586 67.6426 17.6379 67.8951 17.811C68.0971 17.9481 68.2919 18.0995 68.4723 18.2438C68.8331 18.5322 69.1794 18.8063 69.569 18.9433Z" fill="white"/>
</svg>
