<svg width="110" height="50" viewBox="0 0 110 50" fill="none" xmlns="http://www.w3.org/2000/svg">
<path d="M79.1621 28.428C76.9036 31.0737 78.7182 31.1901 77.8148 32.2453C77.0827 33.0832 74.6139 33.1608 74.6139 33.1608C74.0454 33.1608 74.5672 32.8582 74.5672 32.8582C75.6575 32.0823 76.0547 31.2056 75.4161 31.5625C73.3756 32.6099 72.9551 32.6021 72.9551 32.6021C72.3788 32.7496 72.8461 32.447 72.8461 32.447C74.802 31.2063 76.6146 29.7544 78.2509 28.1177C77.6167 28.1873 76.9789 28.0216 76.4597 27.6522C76.3507 27.5668 76.3662 27.4582 76.4597 27.466C76.8516 27.4183 77.2106 27.2242 77.4643 26.9228C77.5578 26.8065 77.3865 26.8297 77.3865 26.8297C76.1326 27.3263 75.1435 26.4728 74.5283 25.8754C74.3803 25.7358 74.5283 25.7125 74.5906 25.7203C77.1061 25.8522 78.1808 24.9444 78.321 24.8203C78.4612 24.6961 78.3911 24.6651 78.2509 24.7349C77.867 24.8496 77.477 24.9428 77.0827 25.0142C75.7276 25.3013 73.8429 24.8125 73.3834 23.9979C73.2822 23.8194 73.3834 23.7573 73.4925 23.7651C74.489 23.9264 75.5087 23.8735 76.4831 23.6099C76.6544 23.5634 76.6388 23.4237 76.4831 23.447C73.7183 23.6332 72.4644 23.0513 71.8959 21.3211C71.8414 21.166 71.8025 20.9565 71.966 21.0651C72.5436 21.4097 73.2262 21.5363 73.8896 21.422C74.0143 21.422 74.0143 21.3522 73.8896 21.3211C71.1249 20.6151 70.9925 17.4418 70.9847 17.0384C70.9769 16.6349 71.1015 16.8755 71.1015 16.8755C71.8258 18.1013 73.4379 19.0323 74.6529 19.622C74.8787 19.7306 74.98 19.5677 74.7385 19.4591C74.3917 19.2892 74.0561 19.0975 73.7339 18.8849C73.1542 18.54 72.6591 18.0705 72.2846 17.5109C71.91 16.9512 71.6655 16.3153 71.5688 15.6496C71.5022 14.866 71.5814 14.0769 71.8025 13.322C71.9427 12.872 72.075 12.9341 72.1763 13.2599C73.2822 16.1539 76.4441 18.6367 78.8662 19.591C81.2882 20.5453 82.8614 21.5306 83.025 23.1599C83.1885 24.7892 81.3973 25.7203 79.131 28.3659L79.1621 28.428ZM87.2071 18.466C87.3158 18.5021 87.4333 18.5021 87.542 18.466C87.6187 18.4226 87.6809 18.3579 87.7211 18.2798C87.746 18.2208 87.7588 18.1575 87.7588 18.0936C87.7588 18.0296 87.746 17.9663 87.7211 17.9073C87.6969 17.8522 87.6617 17.8025 87.6175 17.7614C87.5734 17.7203 87.5213 17.6887 87.4644 17.6683C87.4075 17.648 87.3471 17.6394 87.2868 17.6432C87.2265 17.6469 87.1676 17.6629 87.1137 17.6901C87.0567 17.7082 87.0041 17.7378 86.9591 17.7771C86.9142 17.8163 86.8778 17.8644 86.8522 17.9182C86.8266 17.972 86.8125 18.0305 86.8105 18.0901C86.8086 18.1496 86.819 18.2089 86.8411 18.2642C86.8714 18.3296 86.9182 18.3861 86.9769 18.4283C87.0355 18.4704 87.1041 18.4967 87.176 18.5048L87.2071 18.466ZM96.3346 22.997C95.522 23.5223 94.6038 23.8639 93.6445 23.998C92.6852 24.132 91.7081 24.0552 90.7818 23.7729C88.4454 23.0435 88.2273 23.7729 88.1728 23.9513C88.1183 24.1298 88.0482 24.0599 88.0482 23.9513C88.0482 23.8427 87.9859 22.8806 87.9859 22.516C87.9859 22.1513 88.2585 21.7401 88.4532 21.2513C88.6464 20.5124 88.9206 19.7968 89.2709 19.1177C89.9123 18.6133 90.5234 18.0718 91.1011 17.4961C91.392 17.1355 91.6305 16.7359 91.8098 16.3091C90.6494 16.0142 89.1074 16.9142 88.8192 17.0849C87.8384 16.6597 86.7465 16.5591 85.704 16.7979C85.1981 16.9426 84.7397 17.2186 84.3757 17.5975C84.0118 17.9764 83.7553 18.4448 83.6324 18.9548C83.391 20.072 83.0717 20.5065 82.6745 20.7237C82.2773 20.941 82.1605 20.7237 82.2851 20.8867C82.3558 21.0012 82.4508 21.099 82.5634 21.1732C82.6761 21.2474 82.8036 21.2962 82.9371 21.3162C83.0707 21.3361 83.2069 21.3268 83.3365 21.2888C83.466 21.2507 83.5856 21.185 83.6869 21.0961C84.9252 19.9711 84.6604 19.1177 85.3769 18.2099C85.5974 17.8896 85.8981 17.6323 86.2492 17.4635C86.6003 17.2948 86.9896 17.2204 87.3785 17.2479C88.1573 17.1703 88.4298 17.372 88.3831 17.5194C88.3084 17.7459 88.2008 17.9602 88.0638 18.1556C87.9758 18.2693 87.8707 18.3687 87.7523 18.4505C87.5761 18.5554 87.3878 18.6387 87.1915 18.6987C86.8774 18.7707 86.568 18.8613 86.2648 18.9703C84.9953 19.5522 84.9798 20.0254 84.9564 20.3203C85.4072 20.3521 85.8572 20.2495 86.2492 20.0254C86.7632 19.6841 86.732 19.4358 87.028 19.1642C87.4235 18.8672 87.8459 18.6075 88.2896 18.3884C88.9361 18.0005 89.9874 17.6125 91.1089 16.9841C90.7584 17.5815 88.7725 18.8461 88.4376 19.0246C88.1027 19.203 88.3753 19.3504 88.7024 19.2806C88.6119 19.3915 88.5157 19.4977 88.4143 19.5987C88.1592 20.3959 87.8469 21.1738 87.4797 21.9263C87.4797 22.0039 87.3862 22.0039 87.433 22.8185C87.433 23.1677 87.433 23.6565 87.433 23.6565C87.4875 25.666 86.4361 26.7599 84.7617 27.8849C83.0873 29.0099 81.7789 29.0565 79.606 31.7642C79.606 31.7642 78.9986 32.5401 80.4861 31.2444C81.1187 30.7076 81.805 30.237 82.5343 29.8401C84.2399 29.0099 84.0919 29.7547 84.1932 29.9487C84.2944 30.1427 84.6838 28.8004 84.972 29.1728C85.0813 29.3551 85.2306 29.5105 85.4086 29.6273C85.5865 29.7442 85.7887 29.8196 86 29.8478C86.1246 29.8478 86.1713 29.8478 86.1402 29.778C86.071 29.5636 86.071 29.333 86.1402 29.1185C86.2103 28.9168 86.2881 28.8159 86.3894 29.0487C86.4973 29.3201 86.6837 29.5535 86.925 29.7193C87.1662 29.885 87.4515 29.9757 87.7445 29.9797C87.8691 29.9797 87.8925 29.9797 87.8146 29.8556C87.6238 29.651 87.4662 29.418 87.3473 29.1651C87.2538 28.9168 87.3473 28.8547 87.4719 29.0487C88.0499 29.5363 88.7955 29.7811 89.5513 29.7315C89.6915 29.7315 89.7304 29.6461 89.6214 29.584C89.1753 29.3362 88.7619 29.0338 88.3909 28.6841C88.2741 28.5677 88.3208 28.4358 88.3909 28.5289C88.8155 28.8493 89.3199 29.0482 89.8496 29.1043C90.3793 29.1603 90.9143 29.0714 91.3971 28.847C91.6229 28.7539 91.5762 28.6685 91.3581 28.6375C90.6781 28.5627 90.0235 28.3374 89.4423 27.978C89.2787 27.8616 89.3722 27.7918 89.5202 27.8461C91.5995 28.6763 92.5497 28.0091 93.5543 26.8763C93.7646 26.6435 93.6867 26.5737 93.4375 26.6746C92.922 26.7614 92.3955 26.7614 91.8799 26.6746C91.6696 26.6746 91.693 26.5504 91.8799 26.5349C94.263 26.3642 96.2646 23.4935 96.4748 23.0823C96.5605 22.9116 96.3969 22.9116 96.2801 23.0125" fill="white"/>
<path d="M58.8588 31.6633V33.0831C58.6059 33.1561 58.3432 33.1901 58.08 33.184C57.0909 33.184 56.5691 32.6642 56.5691 31.5392V27.2797H58.3915V31.159C58.3915 31.4849 58.5005 31.6478 58.8744 31.6478L58.8588 31.6633ZM57.4725 26.5349C57.6597 26.5258 57.8401 26.4621 57.9914 26.3519C58.1427 26.2417 58.2581 26.0896 58.3235 25.9147C58.3889 25.7397 58.4013 25.5494 58.3593 25.3675C58.3172 25.1855 58.2225 25.0199 58.0868 24.891C57.9512 24.7622 57.7806 24.6758 57.5962 24.6426C57.4117 24.6094 57.2216 24.6308 57.0492 24.7042C56.8769 24.7776 56.73 24.8998 56.6266 25.0555C56.5233 25.2113 56.4681 25.3938 56.4679 25.5806C56.4699 25.7093 56.4976 25.8363 56.5494 25.9542C56.6011 26.0721 56.676 26.1786 56.7695 26.2674C56.863 26.3563 56.9733 26.4257 57.094 26.4716C57.2147 26.5175 57.3434 26.539 57.4725 26.5349ZM68.1031 30.4142C68.1137 30.5532 68.0961 30.693 68.0513 30.8252C68.0065 30.9573 67.9355 31.0791 67.8425 31.1834C67.7495 31.2876 67.6364 31.3722 67.5099 31.4319C67.3834 31.4917 67.2462 31.5256 67.1063 31.5314C66.6935 31.5314 66.4131 31.2443 66.4131 30.6159V28.9168C66.4131 27.7918 65.8991 27.2797 64.9101 27.2797H61.7559V25.4564H59.9491V27.2797H59.0924V28.715H59.9491V30.4607C59.9491 32.1831 60.6344 33.1607 62.4335 33.1607C63.0049 33.1534 63.5557 32.9476 63.9911 32.5788L63.4615 31.2599C63.2174 31.4432 62.9182 31.5389 62.6126 31.5314C62.0207 31.5314 61.7481 31.1745 61.7481 30.3754V28.715H64.0845C64.4428 28.715 64.5518 28.878 64.5518 29.2038V31.0737C64.5518 32.2685 65.0113 33.1607 66.4054 33.1607C66.739 33.1964 67.0762 33.1433 67.3826 33.0071C67.689 32.8708 67.9537 32.6561 68.1499 32.3849V33.2383C68.1522 33.4141 68.1169 33.5884 68.0461 33.7495C67.9753 33.9106 67.8708 34.0548 67.7395 34.1724C67.6082 34.2899 67.4532 34.3782 67.2849 34.4312C67.1166 34.4842 66.9389 34.5007 66.7636 34.4797C66.4968 34.4864 66.232 34.4327 65.9891 34.3225C65.7462 34.2123 65.5317 34.0485 65.3618 33.8435L64.4584 34.79C64.7419 35.213 65.1324 35.554 65.5905 35.7788C66.0485 36.0035 66.5579 36.104 67.0673 36.0702C67.4482 36.0943 67.8299 36.0371 68.1869 35.9023C68.5438 35.7675 68.8676 35.5583 69.1368 35.2887C69.406 35.0191 69.6142 34.6953 69.7475 34.339C69.8809 33.9827 69.9362 33.6021 69.91 33.2228V27.2797H68.0876L68.1031 30.4142ZM46.912 29.6926C46.912 30.6081 46.6083 31.3685 45.5491 31.3685C44.4899 31.3685 44.1473 30.5926 44.1473 29.6926V24.6495H42.1769V29.5918C42.1769 32.284 43.7345 33.1607 45.5491 33.1607C47.3637 33.1607 48.8746 32.284 48.8746 29.5918V24.6495H46.8964L46.912 29.6926ZM55.4321 31.128V29.5219C55.4321 28.2495 54.848 27.1943 53.3605 27.1943C52.3013 27.1943 51.8574 27.6676 51.6938 28.1176V28.0012C51.6145 27.7427 51.4437 27.5215 51.2131 27.3788C50.9825 27.2362 50.7078 27.1816 50.44 27.2254C50.1773 27.2209 49.9153 27.2522 49.6612 27.3185V28.7073C50.035 28.7073 50.144 28.8857 50.144 29.1883V33.0676H51.9664V29.7624C51.9633 29.6444 51.9839 29.5268 52.0272 29.4168C52.0704 29.3068 52.1353 29.2065 52.218 29.1219C52.3008 29.0373 52.3997 28.9701 52.509 28.9242C52.6183 28.8783 52.7357 28.8546 52.8542 28.8547C52.9687 28.853 53.0821 28.8765 53.1864 28.9235C53.2906 28.9704 53.3833 29.0397 53.4576 29.1264C53.532 29.213 53.5862 29.315 53.6166 29.4249C53.6469 29.5349 53.6525 29.6501 53.633 29.7624V31.5314C53.633 32.6564 54.1548 33.1762 55.1439 33.1762C55.4072 33.1823 55.6698 33.1483 55.9227 33.0754V31.6633C55.5567 31.6633 55.4399 31.5004 55.4399 31.1745L55.4321 31.128ZM19.14 15.1763L22.2552 23.6099H20.2303L19.5606 21.6159H16.7024L16.056 23.6099H13.9999L17.1151 15.1763H19.14ZM19.0699 20.1651L18.1276 17.3564L17.1852 20.1651H19.0699ZM55.362 17.0616C55.5492 17.0525 55.7296 16.9889 55.8808 16.8786C56.0321 16.7684 56.1476 16.6164 56.213 16.4414C56.2784 16.2664 56.2908 16.0762 56.2487 15.8942C56.2067 15.7123 56.1119 15.5466 55.9763 15.4178C55.8406 15.2889 55.67 15.2025 55.4856 15.1693C55.3012 15.1361 55.111 15.1576 54.9387 15.231C54.7663 15.3044 54.6194 15.4265 54.5161 15.5823C54.4127 15.738 54.3575 15.9206 54.3573 16.1073C54.3572 16.2366 54.3834 16.3647 54.4344 16.4836C54.4855 16.6025 54.5602 16.7099 54.6542 16.7991C54.7482 16.8884 54.8594 16.9577 54.981 17.0028C55.1027 17.0479 55.2323 17.0679 55.362 17.0616ZM57.418 20.7082C57.418 18.5357 58.6018 17.7211 59.8712 17.7211C60.4765 17.7091 61.0629 17.9316 61.5067 18.3418V17.8064H63.0643V21.6857C63.0643 22.0116 63.1733 22.1745 63.5472 22.1745V23.5633C63.2932 23.6304 63.031 23.6617 62.7684 23.6564C62.4893 23.688 62.2081 23.6183 61.9764 23.4601C61.7447 23.3019 61.5779 23.0659 61.5067 22.7952V22.7332C61.3502 23.0451 61.1031 23.303 60.7975 23.4732C60.492 23.6434 60.1421 23.718 59.7933 23.6875C58.6719 23.6875 57.4569 22.7719 57.4569 20.7237L57.418 20.7082ZM59.2715 20.7237C59.2715 21.709 59.8245 22.0969 60.3229 22.0969C60.5578 22.0881 60.7825 21.9993 60.9596 21.8454C61.1368 21.6915 61.2556 21.4818 61.2964 21.2513V20.2426C61.2746 19.9902 61.1551 19.7561 60.9634 19.5896C60.7716 19.4232 60.5224 19.3374 60.2684 19.3504C59.6687 19.3504 59.2326 19.7926 59.2326 20.7004L59.2715 20.7237ZM52.8153 23.6719C53.0781 23.679 53.3405 23.6477 53.5941 23.5788V22.2211C53.2359 22.2211 53.1268 22.0582 53.1268 21.7323V15.1763H51.3044V22.0349C51.3044 23.1521 51.8262 23.6719 52.8153 23.6719ZM44.3731 20.7237C44.3731 18.5513 45.5569 17.7366 46.8263 17.7366C47.4209 17.7326 47.9946 17.9546 48.4307 18.3573V17.8064H50.0583V21.6857C50.0583 22.0116 50.1674 22.1745 50.5412 22.1745V23.5633C50.2872 23.6304 50.0251 23.6617 49.7624 23.6564C49.4762 23.6953 49.1858 23.6273 48.947 23.4654C48.7083 23.3035 48.5382 23.0592 48.4696 22.7797V22.7176C48.3117 23.0398 48.058 23.3057 47.7431 23.4792C47.4282 23.6527 47.0674 23.7254 46.7095 23.6875C45.588 23.6875 44.3731 22.7719 44.3731 20.7237ZM46.1877 20.7237C46.1877 21.709 46.7407 22.0969 47.2313 22.0969C48.088 22.0969 48.197 21.2047 48.2126 21.2513V20.2426C48.1897 20.0017 48.0786 19.7776 47.9005 19.6131C47.7224 19.4485 47.4897 19.355 47.2469 19.3504C46.6394 19.3504 46.2111 19.7926 46.2111 20.7004L46.1877 20.7237ZM38.096 22.0582C37.5041 22.0582 37.2237 21.7013 37.2237 20.9021V19.2418H39.1474V17.8064H37.2237V16.0142H35.4013V17.8064H34.5447V19.2418H35.4013V20.9875C35.4013 22.7099 36.0945 23.6875 37.8935 23.6875C38.4649 23.6801 39.0158 23.4743 39.4511 23.1056L38.9215 21.7866C38.6798 21.9688 38.3835 22.0645 38.0804 22.0582H38.096ZM27.8158 21.7013V17.822H26.009V20.9875C26.009 21.1349 25.9156 22.0504 25.0199 22.0504C24.615 22.0504 24.3424 21.7633 24.3424 21.1349V17.8064H22.5122V21.6004C22.5122 22.7952 22.9717 23.6875 24.358 23.6875C24.7333 23.7263 25.1116 23.6516 25.4436 23.4731C25.7757 23.2946 26.046 23.0205 26.2193 22.6866V22.7719C26.283 23.0573 26.4522 23.3082 26.6932 23.475C26.9341 23.6417 27.2293 23.712 27.5199 23.6719C27.7826 23.6772 28.0447 23.6459 28.2987 23.5788V22.2211C27.9249 22.2211 27.8158 22.0582 27.8158 21.7323V21.7013ZM69.871 21.7323V20.0487C69.871 18.784 69.2869 17.7211 67.8072 17.7211C66.7402 17.7211 66.2963 18.1866 66.1406 18.6366V18.5435C66.0582 18.2852 65.8856 18.0649 65.6541 17.9225C65.4226 17.7802 65.1476 17.7252 64.8789 17.7676C64.6157 17.7625 64.3532 17.7965 64.1001 17.8685V19.2263C64.4739 19.2263 64.583 19.4047 64.583 19.7073V23.5866H66.4054V20.2892C66.4012 20.1715 66.4208 20.0541 66.4632 19.9441C66.5055 19.8342 66.5697 19.7338 66.6518 19.6491C66.734 19.5644 66.8324 19.497 66.9413 19.451C67.0501 19.405 67.1672 19.3814 67.2854 19.3814C67.3998 19.3798 67.5132 19.4033 67.6175 19.4502C67.7218 19.4972 67.8144 19.5664 67.8888 19.6531C67.9631 19.7398 68.0174 19.8417 68.0477 19.9517C68.078 20.0616 68.0837 20.1768 68.0642 20.2892V22.0349C68.0642 23.1521 68.5782 23.6719 69.5673 23.6719C69.83 23.6776 70.0922 23.6463 70.3461 23.5788V22.2211C69.98 22.2211 69.8632 22.0582 69.8632 21.7323H69.871ZM42.9012 19.4047C43.1769 19.3866 43.4509 19.4603 43.68 19.6142L44.4588 18.0082C44.1639 17.8222 43.8181 17.7327 43.4697 17.7521C43.1205 17.6999 42.7638 17.7674 42.4581 17.9436C42.1525 18.1198 41.916 18.3943 41.7875 18.722V18.5978C41.7087 18.329 41.5377 18.0963 41.3043 17.9403C41.0708 17.7843 40.7898 17.715 40.5103 17.7444C40.2467 17.7306 39.9828 17.7648 39.7315 17.8452V19.2263C40.1053 19.2263 40.2143 19.4047 40.2143 19.7073V23.5866H42.0367V20.2892C42.0336 20.1724 42.0538 20.0561 42.096 19.9471C42.1383 19.8381 42.2018 19.7386 42.2829 19.6542C42.364 19.5698 42.4611 19.5022 42.5685 19.4554C42.676 19.4086 42.7917 19.3834 42.909 19.3814L42.9012 19.4047ZM56.756 22.2211C56.3822 22.2211 56.2732 22.0582 56.2732 21.7323V17.853H54.4508V22.0814C54.4508 23.1987 54.9726 23.7185 55.9617 23.7185C56.2244 23.7256 56.4868 23.6942 56.7405 23.6254L56.756 22.2211ZM30.9155 19.4668C30.9155 19.2806 31.0868 19.1099 31.6397 19.1099C32.1541 19.124 32.6439 19.332 33.0104 19.6918L34.0462 18.7142C33.7219 18.3669 33.3207 18.0999 32.8745 17.9342C32.4284 17.7685 31.9496 17.7088 31.4762 17.7599C29.6927 17.8064 29.0541 18.7064 29.0541 19.5133C29.0541 21.7323 32.1693 21.1426 32.1693 21.9263C32.1693 22.1668 32.0058 22.4461 31.4684 22.4461C31.1442 22.4356 30.8263 22.3544 30.537 22.2083C30.2477 22.0622 29.9941 21.8547 29.794 21.6004L28.7893 22.5547C28.9726 22.8796 29.2421 23.148 29.5681 23.3306C30.0539 23.5836 30.5868 23.7341 31.1335 23.7728H31.5307C33.3531 23.7728 34.2098 22.9969 34.2098 21.7866C34.2098 19.7926 30.931 20.4444 30.931 19.4202" fill="white"/>
</svg>
