<svg width="110" height="50" viewBox="0 0 110 50" fill="none" xmlns="http://www.w3.org/2000/svg">
<path d="M92.7922 25.2811H91.4218C90.8601 25.2811 90.3876 25.4028 90.002 25.6461C89.6178 25.888 89.4257 26.2287 89.4257 26.6655C89.4257 26.989 89.4981 27.244 89.6414 27.4307C89.7869 27.6166 89.9672 27.7576 90.1829 27.855C90.3994 27.9518 90.6319 28.0168 90.8803 28.0493C91.1288 28.0817 91.3578 28.0976 91.5659 28.0976C91.71 28.0976 91.9188 28.0817 92.1909 28.0493C92.3931 28.0286 92.5938 27.9963 92.7922 27.9525V25.2811ZM96.52 23.1945V30.3066C95.9103 30.4849 95.1732 30.6625 94.3067 30.8402C93.4047 31.0219 92.4863 31.1115 91.5659 31.1076C90.7321 31.1076 89.9672 31.0309 89.2691 30.8768C88.5717 30.7234 87.9745 30.4759 87.4776 30.1373C86.9785 29.7953 86.5769 29.331 86.3118 28.7895C86.0313 28.231 85.8907 27.5475 85.8907 26.7381C85.8907 25.9454 86.0584 25.2901 86.396 24.7725C86.7236 24.263 87.1688 23.8384 87.6947 23.5339C88.2237 23.2277 88.8083 23.0121 89.45 22.8911C90.0679 22.7719 90.6957 22.7108 91.3251 22.7086H92.7922C92.7762 22.4184 92.6962 22.1751 92.5521 21.9808C92.4089 21.7873 92.2188 21.6328 91.9995 21.5316C91.7628 21.4232 91.5115 21.3496 91.2534 21.3132C90.9745 21.2725 90.6931 21.2522 90.4112 21.2524C90.027 21.2524 89.5781 21.2973 89.0652 21.3864C88.5515 21.4749 88.0225 21.6166 87.4783 21.8108C87.3472 21.5631 87.2227 21.3119 87.1052 21.0575C87.0023 20.8356 86.9218 20.604 86.8651 20.3663C86.8079 20.1268 86.7674 19.8836 86.744 19.6385C86.719 19.3519 86.7074 19.0643 86.7092 18.7766C87.4581 18.5233 88.2258 18.3288 89.0053 18.1947C89.766 18.0647 90.4509 17.9998 91.0606 17.9998C91.8944 17.9998 92.6475 18.1007 93.3212 18.3039C93.9949 18.5057 94.567 18.8174 95.041 19.2376C95.5136 19.6592 95.879 20.1963 96.1351 20.8522C96.3913 21.5074 96.52 22.2884 96.52 23.1945ZM80.7208 26.9081C80.7208 26.7464 80.693 26.5888 80.6366 26.4347C80.5763 26.2757 80.4718 26.1369 80.3352 26.0345C80.1918 25.9212 79.9907 25.8272 79.7346 25.7553C79.4778 25.6827 79.1409 25.6461 78.7247 25.6461H77.618V28.146C77.6668 28.146 77.7948 28.1543 78.0036 28.1702C78.211 28.1868 78.4915 28.1944 78.8451 28.1944C79.5181 28.1944 79.9991 28.0817 80.2872 27.8557C80.576 27.6283 80.7208 27.3132 80.7208 26.9081ZM77.6187 23.0971H78.7964C79.4061 23.0971 79.8146 22.9644 80.0234 22.6962C80.2322 22.4301 80.3352 22.1502 80.3352 21.8599C80.3352 21.5848 80.2273 21.3298 80.0116 21.0948C79.7944 20.8598 79.3977 20.7423 78.8214 20.7423C78.6439 20.7423 78.44 20.7471 78.2076 20.7547C77.9751 20.7637 77.7788 20.7755 77.6187 20.7914V23.0971ZM84.3999 25.2576C84.8328 25.7104 85.0485 26.3497 85.0485 27.1749C85.0485 28.6644 84.5043 29.6956 83.4136 30.2706C82.3237 30.8443 80.7125 31.1318 78.5806 31.1318C78.0189 31.1318 77.286 31.1111 76.3799 31.071C75.4507 31.0285 74.5241 30.9436 73.6028 30.8167V18.3384C73.923 18.29 74.2919 18.2458 74.7088 18.2057C75.1257 18.1649 75.5509 18.129 75.9824 18.0951C76.4031 18.0643 76.8242 18.0404 77.2457 18.0233C77.6542 18.008 78.0113 17.9998 78.3161 17.9998C80.3199 17.9998 81.8191 18.2873 82.8123 18.8616C83.8069 19.4353 84.3031 20.3297 84.3031 21.5433C84.3031 22.1585 84.1625 22.681 83.8827 23.1095C83.6016 23.538 83.2215 23.9064 82.7406 24.2133C83.4136 24.4566 83.9663 24.8049 84.3999 25.2576ZM69.6099 18.073C69.2897 18.073 68.957 18.0889 68.6125 18.1214C68.2605 18.1549 67.911 18.2113 67.5664 18.29V22.5621H64.0071V18.2914C63.6671 18.2104 63.3217 18.1535 62.9735 18.1214C62.6199 18.0889 62.2914 18.073 61.9873 18.073C61.6664 18.073 61.3337 18.0889 60.9892 18.1214C60.6372 18.1552 60.2877 18.2118 59.9431 18.2907V30.8167C60.344 30.8802 60.7129 30.9293 61.0498 30.9618C61.3866 30.9943 61.6901 31.0102 61.9629 31.0102C62.2357 31.0102 62.5406 30.9943 62.8775 30.9618C63.2553 30.924 63.632 30.8756 64.0071 30.8167V26.2038H67.5664V30.816C67.9666 30.8796 68.3355 30.9286 68.6724 30.9611C69.0092 30.9936 69.3134 31.0095 69.5869 31.0095C69.8583 31.0095 70.1632 30.9936 70.5 30.9611C70.8781 30.9233 71.255 30.8749 71.6304 30.816V18.29C71.2935 18.2099 70.9483 18.1532 70.5961 18.1207C70.2685 18.0897 69.9396 18.0735 69.6106 18.0723L69.6099 18.073ZM56.3253 18.995C55.7901 18.6076 55.1732 18.3462 54.5213 18.2306C53.883 18.1115 53.2351 18.0505 52.5857 18.0481C51.88 18.0481 51.2466 18.129 50.6856 18.2907C50.124 18.4532 49.6347 18.6391 49.2185 18.8499C48.6714 18.5251 48.0673 18.3065 47.4381 18.2057C46.7946 18.1004 46.1435 18.0477 45.4914 18.0481C44.2887 18.0481 43.2948 18.1414 42.509 18.3274C41.7232 18.514 41.0502 18.7034 40.4892 18.8976V30.8167C40.9061 30.8968 41.2827 30.9494 41.6195 30.9742C41.9564 30.9984 42.2598 31.0109 42.5334 31.0109C42.7895 31.0109 43.086 30.9984 43.4229 30.9742C43.8024 30.9435 44.1798 30.8909 44.5532 30.8167V21.7383C44.6019 21.7058 44.7258 21.6733 44.9262 21.6408C45.113 21.6097 45.302 21.5935 45.4914 21.5924C46.1484 21.5924 46.6133 21.779 46.8862 22.1502C47.1583 22.5234 47.2947 23.1385 47.2947 23.9956V30.8167C47.7109 30.8968 48.0882 30.9494 48.425 30.9742C48.7612 30.9984 49.066 31.0109 49.3389 31.0109C49.595 31.0109 49.8922 30.9984 50.2283 30.9742C50.6079 30.9435 50.9853 30.8908 51.3587 30.8167V23.7281C51.3587 23.0003 51.2863 22.3527 51.1422 21.7859C51.2222 21.7541 51.3705 21.7141 51.5876 21.665C51.8034 21.6166 52.024 21.5924 52.2488 21.5924C52.9059 21.5924 53.3784 21.779 53.6673 22.1502C53.9561 22.5234 54.1002 23.1385 54.1002 23.9956V30.8167C54.5171 30.8968 54.8936 30.9494 55.2305 30.9742C55.5674 30.9984 55.8708 31.0109 56.1443 31.0109C56.3998 31.0109 56.6977 30.9984 57.0338 30.9742C57.4134 30.9434 57.7908 30.8908 58.1641 30.8167V23.5588C58.1641 22.361 57.9922 21.3982 57.647 20.6697C57.3025 19.9419 56.8612 19.3835 56.3246 18.995H56.3253ZM36.8589 23.8498C37.4199 23.8498 38.0852 23.9223 38.8543 24.0682V30.2333C38.3894 30.4123 37.74 30.6066 36.9069 30.8167C36.0731 31.0268 35.1036 31.1318 33.9976 31.1318C32.8423 31.1318 31.8609 30.9577 31.0515 30.61C30.2413 30.2624 29.5801 29.7889 29.0679 29.1904C28.5542 28.5918 28.1812 27.8875 27.9487 27.0782C27.7115 26.2327 27.5944 25.3584 27.6007 24.4808C27.6007 23.5913 27.7406 22.7501 28.0211 21.956C28.2866 21.1883 28.7129 20.4851 29.2718 19.8928C29.8251 19.3102 30.5107 18.8492 31.3278 18.5098C32.1449 18.1698 33.0907 17.9998 34.1647 17.9998C34.7256 17.9998 35.343 18.0647 36.016 18.1947C36.6898 18.3239 37.4268 18.5506 38.2293 18.8741C38.2126 19.1492 38.1806 19.4077 38.1326 19.6503C38.0845 19.8928 38.0247 20.1403 37.9516 20.3905C37.8799 20.6421 37.7915 20.9089 37.6878 21.1922C37.5834 21.4756 37.4588 21.7942 37.3148 22.1502C36.8251 21.942 36.3184 21.7755 35.8003 21.6525C35.3346 21.5475 34.9344 21.495 34.5976 21.495C34.0686 21.495 33.6197 21.5765 33.2508 21.7383C32.8819 21.9 32.5854 22.1184 32.3613 22.3935C32.1365 22.6686 31.9723 22.9879 31.8686 23.3521C31.7637 23.7193 31.711 24.0992 31.712 24.4808C31.712 25.5659 31.9437 26.3621 32.4094 26.8722C32.8736 27.3816 33.555 27.6366 34.4535 27.6366H34.8857V24.0682C35.2399 23.9949 35.5973 23.9382 35.9569 23.8981C36.2563 23.8667 36.5571 23.8505 36.8582 23.8498H36.8589ZM23.969 24.5216C23.969 24.2465 23.9536 23.9389 23.9216 23.5995C23.8838 23.2182 23.8356 22.8379 23.7769 22.4591H21.4787V20.1652C21.1425 20.0843 20.7973 20.0269 20.4451 19.9944C20.0922 19.9627 19.763 19.9461 19.4589 19.9461C19.1387 19.9461 18.8053 19.9627 18.4615 19.9944C18.1163 20.0269 17.7676 20.0843 17.4154 20.1652V22.4578H15.1409C15.0616 22.7978 15.0052 23.1455 14.9725 23.5014C14.9411 23.858 14.9244 24.1891 14.9244 24.4967C14.9244 24.8208 14.9411 25.156 14.9725 25.5037C15.0052 25.8527 15.0616 26.2038 15.1409 26.5598H17.4147V28.878C17.8149 28.9422 18.1838 28.9913 18.5207 29.0231C18.8575 29.0563 19.161 29.0722 19.4345 29.0722C19.7067 29.0722 20.0122 29.0563 20.3484 29.0238C20.7262 28.9859 21.1029 28.9375 21.478 28.8786V26.5598H23.7762C23.8358 26.1893 23.8841 25.817 23.9209 25.4436C23.953 25.1035 23.9683 24.796 23.9683 24.5209L23.969 24.5216ZM25.663 18.2348C25.7479 18.6128 25.8927 22.5483 25.8927 24.5091C25.8927 26.4734 25.7479 30.422 25.663 30.7842C25.2886 30.8699 21.3896 31.0164 19.447 31.0164C17.5003 31.0164 13.5888 30.8699 13.2304 30.7842C13.1455 30.4061 13 26.4706 13 24.5105C13 22.5455 13.1455 18.5962 13.2304 18.2348C13.6055 18.149 17.5038 18.0032 19.4464 18.0032C21.3931 18.0032 25.3046 18.149 25.663 18.2354V18.2348Z" fill="white"/>
</svg>
