<svg width="110" height="50" viewBox="0 0 110 50" fill="none" xmlns="http://www.w3.org/2000/svg">
<path d="M11.5002 19.2274C9.17427 24.294 11.8395 30.701 17.4614 29.7269C20.5624 29.1406 25.2143 22.3211 22.1133 19.5941C19.3994 17.0593 19.7947 23.4903 17.2673 23.4903C13.4143 23.4903 14.03 13.742 11.5106 19.1991" fill="white"/>
<path d="M17.9161 16.4217C15.5075 16.6914 13.9018 20.7293 16.5782 21.536C20.056 22.6122 20.7264 16.015 17.9616 16.424" fill="white"/>
<path d="M58.7905 15.9715L62.1691 15.7911L61.9745 29.6335H58.8604L58.7905 15.9715Z" fill="white"/>
<path d="M69.9085 25.2212C69.5677 22.0002 72.1206 18.9414 76.1962 19.6908L73.8263 24.4532L76.3838 29.6921C72.595 30.1675 70.2026 28.1243 69.9085 25.2212Z" fill="white"/>
<path d="M83.0486 29.6672L83.0236 19.5681H85.2218C88.1113 19.5413 88.2957 21.9132 88.1877 23.0914L85.4599 23.0592L86.0964 29.6788L83.0486 29.6672Z" fill="white"/>
<path d="M27.4743 29.6839L27.6044 16.4454L32.4377 16.7655C34.7185 17.0228 36.1219 20.1277 35.1898 22.0879C34.8306 22.8711 34.2467 23.5285 33.5129 23.9753C32.7792 24.4222 31.9293 24.6382 31.0725 24.5956L31.0493 29.6839H27.4743ZM31.0254 19.6977L31.0497 21.6121C31.0497 21.6121 32.0382 21.5178 32.0614 20.6664C32.0818 19.8759 31.025 19.6962 31.025 19.6962L31.0254 19.6977Z" fill="white"/>
<path d="M54.608 29.9008L54.6377 33.9907L51.6703 34L51.6317 19.78L54.7732 19.7498C57.0119 19.7498 58.3409 21.874 58.657 24.1431C58.9943 26.5607 57.2173 29.5593 54.608 29.9008ZM54.6215 23.776L54.6269 25.8676C54.876 25.863 55.1131 25.759 55.2859 25.5786C55.4588 25.3981 55.5533 25.1561 55.5486 24.9056C55.5486 24.8781 55.5463 24.8505 55.5436 24.8234C55.5481 24.5647 55.4561 24.3138 55.2858 24.1199C55.1155 23.926 54.8793 23.8032 54.6234 23.7756L54.6215 23.776Z" fill="white"/>
<path d="M69.9193 29.4511C66.929 30.845 62.772 28.8127 62.2088 25.5448C61.7325 22.779 63.3135 19.2069 66.1092 19.4463C66.6513 19.5114 67.1752 19.6832 67.6512 19.952C68.1272 20.2207 68.5459 20.5811 68.8834 21.0125C69.2208 21.4439 69.4705 21.938 69.618 22.4664C69.7655 22.9948 69.8081 23.5473 69.7433 24.0922C69.729 24.2145 69.7089 24.3359 69.6838 24.4562L65.9919 26.4106C67.121 26.882 68.3707 26.9772 69.5576 26.6822C69.79 28.5197 69.9193 29.4511 69.9193 29.4511ZM65.2944 24.1733L66.7774 23.4279C66.7774 23.4279 66.2972 22.6832 65.7232 22.909C65.0288 23.1811 65.2944 24.1733 65.2944 24.1733Z" fill="white"/>
<path d="M95.99 29.4511C92.9997 30.845 88.8438 28.8127 88.2807 25.5448C87.8036 22.779 89.3858 19.2069 92.1791 19.4463C92.7212 19.5114 93.2452 19.6832 93.7212 19.952C94.1972 20.2207 94.6159 20.5811 94.9534 21.0125C95.2909 21.4439 95.5406 21.9379 95.6882 22.4663C95.8358 22.9948 95.8784 23.5473 95.8136 24.0922C95.7993 24.2141 95.7792 24.3359 95.7542 24.4562L92.0641 26.4117C93.1933 26.8832 94.443 26.9784 95.6299 26.6834C95.8611 28.5197 95.99 29.4511 95.99 29.4511ZM91.3655 24.1733L92.8481 23.4279C92.8481 23.4279 92.3683 22.6832 91.7943 22.909C91.0991 23.1811 91.3655 24.1733 91.3655 24.1733Z" fill="white"/>
<path d="M75.9191 20.607C76.6266 20.0121 77.5039 19.6588 78.4243 19.5982C79.3446 19.5376 80.2603 19.773 81.0388 20.2702C81.5662 20.5834 82.0034 21.0292 82.3073 21.5638C82.6113 22.0984 82.7715 22.7034 82.7723 23.3192L82.6797 29.6362H78.4388C76.5537 29.6362 75.5574 27.5018 75.7307 25.6069C75.7555 24.9558 75.9616 24.3248 76.3255 23.7857C76.6894 23.2466 77.1966 22.821 77.7892 22.5574L75.9191 20.607ZM79.6678 26.5479L79.7064 25.0092C79.5298 25.0576 79.3709 25.1565 79.249 25.2938C79.1271 25.4312 79.0475 25.6011 79.0197 25.7831C79.0042 25.8774 79.0094 25.9741 79.0349 26.0663C79.0604 26.1584 79.1055 26.2439 79.1672 26.3167C79.2289 26.3895 79.3057 26.4479 79.3921 26.4879C79.4786 26.5278 79.5727 26.5483 79.6678 26.5479Z" fill="white"/>
<path d="M42.6833 29.4511C39.6931 30.8481 35.5372 28.8139 34.974 25.5459C34.4973 22.7802 36.0787 19.208 38.8752 19.4475C39.4174 19.5127 39.9415 19.6847 40.4176 19.9536C40.8937 20.2226 41.3125 20.5831 41.65 21.0148C41.9875 21.4464 42.2371 21.9407 42.3846 22.4693C42.5321 22.9979 42.5746 23.5506 42.5096 24.0957C42.4949 24.2172 42.4753 24.3383 42.4502 24.4582L38.7594 26.4117C39.8884 26.8832 41.138 26.9784 42.3247 26.6834C42.554 28.5197 42.6833 29.4511 42.6833 29.4511ZM38.0588 24.1734L39.5418 23.4279C39.5418 23.4279 39.0616 22.6832 38.4892 22.909C37.7944 23.1811 38.0588 24.1734 38.0588 24.1734Z" fill="white"/>
<path d="M47.0326 19.4583C49.4952 19.4583 51.4911 21.7895 51.4911 24.6639C51.4911 27.5383 49.4952 29.8706 47.0326 29.8706C44.57 29.8706 42.5737 27.5398 42.5737 24.6639C42.5737 21.7879 44.5704 19.4583 47.0326 19.4583ZM46.5628 24.7089C46.5438 24.8849 46.5936 25.0615 46.7016 25.2014C46.8096 25.3413 46.9675 25.4335 47.1418 25.4586C47.4626 25.4586 47.7208 25.2995 47.7208 24.7089C47.7208 24.1182 47.4614 23.6386 47.1418 23.6386C46.8222 23.6386 46.5972 24.1186 46.5628 24.7089Z" fill="white"/>
</svg>
