<svg width="247" height="55" viewBox="0 0 247 55" fill="none" xmlns="http://www.w3.org/2000/svg">
<path d="M20.9625 29.8989C20.9625 29.8989 20.9643 29.8974 20.9678 29.8962C20.9642 29.8986 20.9625 29.8989 20.9625 29.8989Z" fill="white"/>
<path fill-rule="evenodd" clip-rule="evenodd" d="M19.5788 4.55274C19.7295 4.55274 19.8788 4.5524 20.0265 4.55206C22.5656 4.5462 24.6229 4.54145 24.9537 6.30777C25.0086 6.60074 25.2429 6.84611 25.5423 6.84611H26.4911C26.7905 6.84611 27.0239 6.59962 27.0922 6.30947C27.5322 4.44185 30.3309 4.50535 32.0107 4.54346C32.2243 4.5483 32.4199 4.55274 32.5902 4.55274C32.5902 6.30649 30.4216 7.65553 28.9307 7.65553C30.015 7.65553 30.6927 9.81398 30.6927 13.0517V36.6599C30.6475 39.8526 31.533 46.238 35.4364 46.238C39.4599 46.238 43.1147 42.6606 46.0969 39.7415C46.7312 39.1206 47.3351 38.5295 47.9057 38.0089C45.4661 44.4843 40.3157 50.9597 34.8943 50.9597C30.5571 50.9597 26.9429 48.8911 25.6779 47.8569V49.6106C25.6779 50.3557 25.0733 50.9597 24.3248 50.9597H11.8532C9.7931 50.9597 10.9948 49.7006 11.8532 49.071C13.1111 46.2988 15.4176 47.2019 17.7772 48.1259C18.9765 48.5955 20.1895 49.0704 21.2856 49.071H21.2875C21.5121 49.071 21.6941 48.8898 21.6941 48.6663V45.9682C21.6941 45.8591 21.6498 45.7545 21.5713 45.6783C20.7128 44.8457 19.6024 43.4812 19.0382 42.0993C18.7568 41.4099 18.6236 40.746 18.6986 40.1557C18.7717 39.5803 19.0452 39.0479 19.6361 38.6009C22.1555 36.6951 25.0738 37.6323 26.2213 38.3514C26.4113 38.4705 26.6623 38.4137 26.782 38.2245C26.9016 38.0354 26.8446 37.7855 26.6545 37.6664C25.3624 36.8566 22.046 35.7612 19.144 37.9565C18.3796 38.5348 17.9923 39.2626 17.8918 40.0542C17.7931 40.8309 17.9733 41.6408 18.2848 42.404C18.8788 43.8588 19.9947 45.2517 20.8809 46.1371V47.789C18.4881 47.2765 14.4284 44.5051 14.4284 36.6599C14.4284 28.3025 20.1311 23.8747 23.9837 22.4631C25.2481 21.9999 26.3556 20.8682 26.3556 19.5271C26.3556 18.186 25.2633 17.0988 23.9159 17.0988H23.1027C21.6056 17.0988 20.392 15.8908 20.392 14.4007V14.1309H20.1209C19.8215 14.1309 19.5788 13.8893 19.5788 13.5913C19.5788 13.2933 19.8215 13.0517 20.1209 13.0517H21.2052C21.804 13.0517 22.2849 12.5685 22.2607 11.9729L22.2575 11.8951C22.1923 10.2981 22.1241 8.62955 23.1027 7.65553C21.7473 7.65553 19.5788 6.4414 19.5788 4.55274ZM26.98 23.1695C27.2045 23.1695 27.3866 23.3507 27.3866 23.5742V25.8675C27.3866 26.8361 26.5977 27.6213 25.6246 27.6213H21.5585C21.2202 27.6213 20.8285 27.8886 20.6008 28.3419C20.3842 28.7731 20.3727 29.2656 20.6477 29.6496C20.8396 29.8366 20.9421 29.8806 20.975 29.8907C20.9875 29.8803 21.0097 29.8579 21.0426 29.8126C21.1037 29.7284 21.1548 29.6336 21.2208 29.5114C21.2547 29.4485 21.2926 29.3783 21.3378 29.2985C21.454 29.0934 21.6126 28.8407 21.8467 28.6543C22.2848 28.3054 22.8319 28.1927 23.3689 28.2117C23.9061 28.2308 24.4644 28.382 24.9716 28.5983C25.0744 28.6422 25.1762 28.6876 25.2771 28.7327L25.2773 28.7328L25.2779 28.7331C25.6888 28.9165 26.0875 29.0945 26.501 29.1416C26.7425 29.169 26.9691 29.1469 27.1852 29.0541C27.4013 28.9612 27.6348 28.7857 27.871 28.4625C28.0031 28.2817 28.2574 28.2417 28.439 28.3732C28.6206 28.5047 28.6607 28.7578 28.5287 28.9386C28.2227 29.3573 27.8802 29.6371 27.5075 29.7972C27.1349 29.9573 26.7601 29.9857 26.4086 29.9458C25.8554 29.8828 25.3095 29.637 24.8956 29.4506C24.8078 29.4111 24.726 29.3742 24.6513 29.3423C24.2097 29.1539 23.7514 29.0353 23.3399 29.0207C22.9281 29.006 22.5943 29.0956 22.3547 29.2864C22.25 29.3697 22.1545 29.5049 22.0462 29.6961C22.0221 29.7386 21.9956 29.7875 21.9674 29.8396C21.8885 29.9855 21.7958 30.1569 21.7018 30.2865C21.5679 30.471 21.3352 30.7124 20.9656 30.7029C20.6363 30.6943 20.3354 30.4837 20.0512 30.2008C20.0376 30.1873 20.025 30.1728 20.0134 30.1575C19.4919 29.4653 19.552 28.6196 19.8734 27.9799C20.1878 27.354 20.8126 26.8119 21.5585 26.8119H25.6246C26.1486 26.8119 26.5734 26.3891 26.5734 25.8675V23.5742C26.5734 23.3507 26.7554 23.1695 26.98 23.1695ZM15.8661 34.7712C15.6415 34.7712 15.4595 34.9524 15.4595 35.1759C15.4595 35.3994 15.6415 35.5806 15.8661 35.5806H25.6247C25.8492 35.5806 26.0313 35.3994 26.0313 35.1759C26.0313 34.9524 25.8492 34.7712 25.6247 34.7712H15.8661ZM24.6759 12.6254C25.1999 12.6254 25.6247 12.2026 25.6247 11.6811C25.6247 11.1596 25.1999 10.7368 24.6759 10.7368C24.1519 10.7368 23.7272 11.1596 23.7272 11.6811C23.7272 12.2026 24.1519 12.6254 24.6759 12.6254Z" fill="white"/>
<path d="M13.9686 20.4713C13.9686 21.1189 14.33 22.4499 14.5107 23.0345L15.7305 20.7411L15.3239 19.2572C15.098 19.4371 14.5107 19.9317 13.9686 20.4713Z" fill="white"/>
<path d="M16.6793 16.5592C16.6793 18.9434 14.7375 20.8762 12.3421 20.8762C9.94681 20.8762 8.005 18.9434 8.005 16.5592C8.005 14.1751 9.94681 12.2423 12.3421 12.2423C14.7375 12.2423 16.6793 14.1751 16.6793 16.5592Z" fill="#FCBF1E"/>
<path d="M15.595 16.5592C15.595 18.3473 14.1387 19.7969 12.3422 19.7969C10.5456 19.7969 9.08929 18.3473 9.08929 16.5592C9.08929 14.771 10.5456 13.3215 12.3422 13.3215C14.1387 13.3215 15.595 14.771 15.595 16.5592Z" fill="#E3AC1B"/>
<path fill-rule="evenodd" clip-rule="evenodd" d="M20.2082 23.5741H18.8478C17.8087 23.6191 15.7305 23.1154 15.7305 20.7411C16.2727 20.0666 16.5437 17.7733 15.1884 17.7733C14.4561 17.7733 14.5942 18.0096 14.8333 18.4183C15.0366 18.7661 15.313 19.2387 15.1884 19.7968L15.1884 20.876L14.8496 21.9553L14.5107 23.0345C14.7074 23.8569 15.6306 25.3751 17.7996 25.6821C18.5654 24.8629 19.3841 24.1621 20.2082 23.5741ZM21.683 23.5741H24.4048C24.7301 24.7613 22.6428 25.5077 21.5586 25.7326H18.8842C19.7853 24.8535 20.7447 24.1373 21.683 23.5741Z" fill="white"/>
<path d="M20.7453 31.6684C18.628 31.6684 16.865 33.1786 16.4843 35.1759H25.0064C24.6257 33.1786 22.8627 31.6684 20.7453 31.6684Z" fill="#FCBF1E"/>
<path d="M23.8957 35.1759C23.5346 33.7795 22.261 32.7476 20.7453 32.7476C19.2296 32.7476 17.9561 33.7795 17.595 35.1759H23.8957Z" fill="#E3AC1B"/>
<path d="M42.4945 35.6834C40.9388 35.6834 39.6856 35.2274 38.7349 34.3156C37.8014 33.3865 37.3347 32.1477 37.3347 30.5993V22.2376C37.3347 20.7063 37.8014 19.4848 38.7349 18.5729C39.6856 17.661 40.9388 17.2051 42.4945 17.2051C44.0675 17.2051 45.3207 17.661 46.2541 18.5729C47.2049 19.4848 47.6802 20.7063 47.6802 22.2376V22.5215C47.6802 22.6075 47.6456 22.6849 47.5765 22.7537C47.5246 22.8053 47.4555 22.8312 47.3691 22.8312L44.3354 22.9602C44.128 22.9602 44.0243 22.8656 44.0243 22.6763V22.0053C44.0243 21.5064 43.886 21.102 43.6094 20.7923C43.3329 20.4827 42.9612 20.3278 42.4945 20.3278C42.0451 20.3278 41.6821 20.4827 41.4055 20.7923C41.1289 21.102 40.9906 21.5064 40.9906 22.0053V30.909C40.9906 31.4079 41.1289 31.8122 41.4055 32.1219C41.6821 32.4144 42.0451 32.5607 42.4945 32.5607C42.9612 32.5607 43.3329 32.4144 43.6094 32.1219C43.886 31.8122 44.0243 31.4079 44.0243 30.909V30.2122C44.0243 30.1261 44.0502 30.0573 44.1021 30.0057C44.1712 29.9369 44.249 29.9025 44.3354 29.9025L47.3691 30.0315C47.4555 30.0315 47.5246 30.0659 47.5765 30.1347C47.6456 30.1863 47.6802 30.2552 47.6802 30.3412V30.5993C47.6802 32.1477 47.2049 33.3865 46.2541 34.3156C45.3034 35.2274 44.0502 35.6834 42.4945 35.6834Z" fill="white"/>
<path d="M55.6368 35.6834C54.0466 35.6834 52.7761 35.2188 51.8253 34.2898C50.8746 33.3607 50.3993 32.1219 50.3993 30.5735V22.315C50.3993 20.7665 50.8746 19.5278 51.8253 18.5987C52.7761 17.6696 54.0466 17.2051 55.6368 17.2051C57.2271 17.2051 58.4976 17.6696 59.4483 18.5987C60.4163 19.5278 60.9003 20.7665 60.9003 22.315V30.5735C60.9003 32.1219 60.4163 33.3607 59.4483 34.2898C58.4976 35.2188 57.2271 35.6834 55.6368 35.6834ZM55.6368 32.5607C56.1208 32.5607 56.5098 32.3972 56.8036 32.0703C57.0975 31.7262 57.2444 31.2789 57.2444 30.7283V22.1602C57.2444 21.6096 57.0975 21.1709 56.8036 20.844C56.5098 20.4999 56.1208 20.3278 55.6368 20.3278C55.1528 20.3278 54.7639 20.4999 54.4701 20.844C54.1935 21.1709 54.0552 21.6096 54.0552 22.1602V30.7283C54.0552 31.2789 54.1935 31.7262 54.4701 32.0703C54.7639 32.3972 55.1528 32.5607 55.6368 32.5607Z" fill="white"/>
<path d="M69.033 35.6834C67.4773 35.6834 66.2241 35.2016 65.2734 34.2382C64.3399 33.2575 63.8732 31.9585 63.8732 30.3412V17.7212C63.8732 17.6352 63.8991 17.5664 63.951 17.5148C64.0201 17.4459 64.0979 17.4115 64.1844 17.4115H67.218C67.3044 17.4115 67.3736 17.4459 67.4254 17.5148C67.4946 17.5664 67.5292 17.6352 67.5292 17.7212V30.7025C67.5292 31.2531 67.6674 31.7004 67.944 32.0445C68.2206 32.3886 68.5836 32.5607 69.033 32.5607C69.4824 32.5607 69.8368 32.3886 70.0961 32.0445C70.3727 31.7004 70.5109 31.2531 70.5109 30.7025V17.7212C70.5109 17.6352 70.5369 17.5664 70.5887 17.5148C70.6579 17.4459 70.7357 17.4115 70.8221 17.4115H73.8557C73.9422 17.4115 74.0113 17.4459 74.0632 17.5148C74.1323 17.5664 74.1669 17.6352 74.1669 17.7212V30.3412C74.1669 31.9585 73.6915 33.2575 72.7408 34.2382C71.8074 35.2016 70.5714 35.6834 69.033 35.6834Z" fill="white"/>
<path d="M84.659 17.7212C84.659 17.6352 84.685 17.5664 84.7368 17.5148C84.806 17.4459 84.8837 17.4115 84.9702 17.4115H87.9779C88.0643 17.4115 88.1335 17.4459 88.1853 17.5148C88.2545 17.5664 88.289 17.6352 88.289 17.7212V35.1672C88.289 35.2533 88.2545 35.3307 88.1853 35.3995C88.1335 35.4511 88.0643 35.4769 87.9779 35.4769H84.5553C84.3825 35.4769 84.2701 35.3909 84.2182 35.2188L81.0031 25.2313C80.9858 25.1797 80.9512 25.1624 80.8994 25.1797C80.8648 25.1797 80.8475 25.2055 80.8475 25.2571L80.8735 35.1672C80.8735 35.2533 80.8389 35.3307 80.7697 35.3995C80.7179 35.4511 80.6487 35.4769 80.5623 35.4769H77.5546C77.4682 35.4769 77.3904 35.4511 77.3212 35.3995C77.2694 35.3307 77.2435 35.2533 77.2435 35.1672V17.7212C77.2435 17.6352 77.2694 17.5664 77.3212 17.5148C77.3904 17.4459 77.4682 17.4115 77.5546 17.4115H80.9512C81.1241 17.4115 81.2365 17.4976 81.2883 17.6696L84.5294 27.6572C84.5467 27.7088 84.5726 27.7346 84.6072 27.7346C84.659 27.7174 84.685 27.683 84.685 27.6314L84.659 17.7212Z" fill="white"/>
<path d="M101.66 17.4115C101.746 17.4115 101.815 17.4459 101.867 17.5148C101.936 17.5664 101.971 17.6352 101.971 17.7212V20.2246C101.971 20.3106 101.936 20.388 101.867 20.4568C101.815 20.5085 101.746 20.5343 101.66 20.5343H98.4186C98.3322 20.5343 98.289 20.5773 98.289 20.6633V35.1672C98.289 35.2533 98.2544 35.3307 98.1852 35.3995C98.1334 35.4511 98.0642 35.4769 97.9778 35.4769H94.9442C94.8577 35.4769 94.7799 35.4511 94.7108 35.3995C94.659 35.3307 94.633 35.2533 94.633 35.1672V20.6633C94.633 20.5773 94.5898 20.5343 94.5034 20.5343H91.3919C91.3055 20.5343 91.2277 20.5085 91.1586 20.4568C91.1067 20.388 91.0808 20.3106 91.0808 20.2246V17.7212C91.0808 17.6352 91.1067 17.5664 91.1586 17.5148C91.2277 17.4459 91.3055 17.4115 91.3919 17.4115H101.66Z" fill="white"/>
<path d="M120.509 20.2246C120.509 20.3106 120.474 20.388 120.405 20.4568C120.353 20.5085 120.284 20.5343 120.198 20.5343H114.779C114.692 20.5343 114.649 20.5773 114.649 20.6633V24.7409C114.649 24.8269 114.692 24.87 114.779 24.87H117.89C117.977 24.87 118.046 24.9044 118.098 24.9732C118.167 25.0248 118.201 25.0936 118.201 25.1797V27.683C118.201 27.769 118.167 27.8464 118.098 27.9153C118.046 27.9669 117.977 27.9927 117.89 27.9927H114.779C114.692 27.9927 114.649 28.0357 114.649 28.1217V32.2252C114.649 32.3112 114.692 32.3542 114.779 32.3542H120.198C120.284 32.3542 120.353 32.3886 120.405 32.4574C120.474 32.509 120.509 32.5779 120.509 32.6639V35.1672C120.509 35.2533 120.474 35.3307 120.405 35.3995C120.353 35.4511 120.284 35.4769 120.198 35.4769H111.304C111.218 35.4769 111.14 35.4511 111.071 35.3995C111.019 35.3307 110.993 35.2533 110.993 35.1672V17.7212C110.993 17.6352 111.019 17.5664 111.071 17.5148C111.14 17.4459 111.218 17.4115 111.304 17.4115H120.198C120.284 17.4115 120.353 17.4459 120.405 17.5148C120.474 17.5664 120.509 17.6352 120.509 17.7212V20.2246Z" fill="white"/>
<path d="M126.9 35.4769C126.71 35.4769 126.597 35.3823 126.563 35.193L122.855 17.747L122.829 17.6438C122.829 17.489 122.924 17.4115 123.114 17.4115H126.459C126.666 17.4115 126.779 17.5062 126.796 17.6954L128.585 29.0508C128.602 29.1196 128.628 29.154 128.663 29.154C128.697 29.154 128.723 29.1196 128.741 29.0508L130.478 17.6954C130.495 17.5062 130.607 17.4115 130.815 17.4115H134.056C134.281 17.4115 134.367 17.5234 134.315 17.747L130.582 35.193C130.547 35.3823 130.435 35.4769 130.244 35.4769H126.9Z" fill="white"/>
<path d="M146.613 20.2246C146.613 20.3106 146.578 20.388 146.509 20.4568C146.457 20.5085 146.388 20.5343 146.302 20.5343H140.883C140.796 20.5343 140.753 20.5773 140.753 20.6633V24.7409C140.753 24.8269 140.796 24.87 140.883 24.87H143.994C144.08 24.87 144.15 24.9044 144.201 24.9732C144.271 25.0248 144.305 25.0936 144.305 25.1797V27.683C144.305 27.769 144.271 27.8464 144.201 27.9153C144.15 27.9669 144.08 27.9927 143.994 27.9927H140.883C140.796 27.9927 140.753 28.0357 140.753 28.1217V32.2252C140.753 32.3112 140.796 32.3542 140.883 32.3542H146.302C146.388 32.3542 146.457 32.3886 146.509 32.4574C146.578 32.509 146.613 32.5779 146.613 32.6639V35.1672C146.613 35.2533 146.578 35.3307 146.509 35.3995C146.457 35.4511 146.388 35.4769 146.302 35.4769H137.408C137.322 35.4769 137.244 35.4511 137.175 35.3995C137.123 35.3307 137.097 35.2533 137.097 35.1672V17.7212C137.097 17.6352 137.123 17.5664 137.175 17.5148C137.244 17.4459 137.322 17.4115 137.408 17.4115H146.302C146.388 17.4115 146.457 17.4459 146.509 17.5148C146.578 17.5664 146.613 17.6352 146.613 17.7212V20.2246Z" fill="white"/>
<path d="M156.659 35.4769C156.469 35.4769 156.348 35.3909 156.296 35.2188L154.3 28.0959C154.265 28.0271 154.222 27.9927 154.17 27.9927H153.289C153.202 27.9927 153.159 28.0357 153.159 28.1217V35.1672C153.159 35.2533 153.125 35.3307 153.055 35.3995C153.004 35.4511 152.934 35.4769 152.848 35.4769H149.814C149.728 35.4769 149.65 35.4511 149.581 35.3995C149.529 35.3307 149.503 35.2533 149.503 35.1672V17.7212C149.503 17.6352 149.529 17.5664 149.581 17.5148C149.65 17.4459 149.728 17.4115 149.814 17.4115H155.052C156.003 17.4115 156.85 17.6438 157.593 18.1083C158.336 18.5557 158.907 19.1923 159.304 20.0181C159.719 20.844 159.926 21.7902 159.926 22.857C159.926 23.8721 159.728 24.7667 159.33 25.541C158.95 26.3152 158.414 26.9174 157.723 27.3475C157.688 27.3647 157.662 27.3905 157.645 27.4249C157.627 27.4421 157.627 27.4679 157.645 27.5023L160.03 35.1156L160.056 35.2188C160.056 35.3909 159.961 35.4769 159.771 35.4769H156.659ZM153.289 20.5343C153.202 20.5343 153.159 20.5773 153.159 20.6633V25.0764C153.159 25.1624 153.202 25.2055 153.289 25.2055H154.456C154.991 25.2055 155.424 24.999 155.752 24.5861C156.098 24.1559 156.271 23.5882 156.271 22.8828C156.271 22.1602 156.098 21.5924 155.752 21.1795C155.424 20.7493 154.991 20.5343 154.456 20.5343H153.289Z" fill="white"/>
<path d="M165.485 35.4511C165.399 35.4511 165.321 35.4253 165.252 35.3737C165.2 35.3049 165.174 35.2274 165.174 35.1414V28.4314L165.148 28.2766L161.518 17.7728C161.501 17.7384 161.492 17.6954 161.492 17.6438C161.492 17.489 161.587 17.4115 161.777 17.4115H164.967C165.157 17.4115 165.278 17.4976 165.33 17.6696L166.937 23.8377C166.954 23.8893 166.98 23.9151 167.015 23.9151C167.049 23.9151 167.075 23.8893 167.093 23.8377L168.7 17.6696C168.752 17.4976 168.873 17.4115 169.063 17.4115H172.252C172.356 17.4115 172.434 17.4459 172.486 17.5148C172.538 17.5664 172.546 17.6524 172.512 17.7728L168.856 28.2766L168.83 28.4314V35.1414C168.83 35.2274 168.795 35.3049 168.726 35.3737C168.674 35.4253 168.605 35.4511 168.519 35.4511H165.485Z" fill="white"/>
<path d="M187.079 17.3857C188.03 17.3857 188.877 17.618 189.62 18.0825C190.363 18.5471 190.934 19.2009 191.331 20.0439C191.746 20.8698 191.954 21.8161 191.954 22.8828C191.954 24.4828 191.522 25.7646 190.657 26.7281C189.793 27.6916 188.661 28.1733 187.261 28.1733H185.316C185.23 28.1733 185.186 28.2164 185.186 28.3024V35.1672C185.186 35.2533 185.152 35.3307 185.083 35.3995C185.031 35.4511 184.962 35.4769 184.875 35.4769H181.842C181.755 35.4769 181.677 35.4511 181.608 35.3995C181.556 35.3307 181.53 35.2533 181.53 35.1672V17.6954C181.53 17.6094 181.556 17.5406 181.608 17.489C181.677 17.4201 181.755 17.3857 181.842 17.3857H187.079ZM186.457 25.3345C187.01 25.3345 187.451 25.128 187.779 24.7151C188.125 24.285 188.298 23.7 188.298 22.9602C188.298 22.2032 188.125 21.6096 187.779 21.1795C187.451 20.7493 187.01 20.5343 186.457 20.5343H185.316C185.23 20.5343 185.186 20.5773 185.186 20.6633V25.2055C185.186 25.2915 185.23 25.3345 185.316 25.3345H186.457Z" fill="white"/>
<path d="M204.162 20.2246C204.162 20.3106 204.127 20.388 204.058 20.4568C204.006 20.5085 203.937 20.5343 203.851 20.5343H198.432C198.345 20.5343 198.302 20.5773 198.302 20.6633V24.7409C198.302 24.8269 198.345 24.87 198.432 24.87H201.543C201.63 24.87 201.699 24.9044 201.751 24.9732C201.82 25.0248 201.854 25.0936 201.854 25.1797V27.683C201.854 27.769 201.82 27.8464 201.751 27.9153C201.699 27.9669 201.63 27.9927 201.543 27.9927H198.432C198.345 27.9927 198.302 28.0357 198.302 28.1217V32.2252C198.302 32.3112 198.345 32.3542 198.432 32.3542H203.851C203.937 32.3542 204.006 32.3886 204.058 32.4574C204.127 32.509 204.162 32.5779 204.162 32.6639V35.1672C204.162 35.2533 204.127 35.3307 204.058 35.3995C204.006 35.4511 203.937 35.4769 203.851 35.4769H194.957C194.871 35.4769 194.793 35.4511 194.724 35.3995C194.672 35.3307 194.646 35.2533 194.646 35.1672V17.7212C194.646 17.6352 194.672 17.5664 194.724 17.5148C194.793 17.4459 194.871 17.4115 194.957 17.4115H203.851C203.937 17.4115 204.006 17.4459 204.058 17.5148C204.127 17.5664 204.162 17.6352 204.162 17.7212V20.2246Z" fill="white"/>
<path d="M214.468 17.7212C214.468 17.6352 214.494 17.5664 214.546 17.5148C214.615 17.4459 214.693 17.4115 214.779 17.4115H217.787C217.873 17.4115 217.942 17.4459 217.994 17.5148C218.063 17.5664 218.098 17.6352 218.098 17.7212V35.1672C218.098 35.2533 218.063 35.3307 217.994 35.3995C217.942 35.4511 217.873 35.4769 217.787 35.4769H214.364C214.191 35.4769 214.079 35.3909 214.027 35.2188L210.812 25.2313C210.795 25.1797 210.76 25.1624 210.708 25.1797C210.674 25.1797 210.656 25.2055 210.656 25.2571L210.682 35.1672C210.682 35.2533 210.648 35.3307 210.579 35.3995C210.527 35.4511 210.458 35.4769 210.371 35.4769H207.364C207.277 35.4769 207.199 35.4511 207.13 35.3995C207.078 35.3307 207.052 35.2533 207.052 35.1672V17.7212C207.052 17.6352 207.078 17.5664 207.13 17.5148C207.199 17.4459 207.277 17.4115 207.364 17.4115H210.76C210.933 17.4115 211.045 17.4976 211.097 17.6696L214.338 27.6572C214.356 27.7088 214.382 27.7346 214.416 27.7346C214.468 27.7174 214.494 27.683 214.494 27.6314L214.468 17.7212Z" fill="white"/>
<path d="M228.824 17.7212C228.824 17.6352 228.85 17.5664 228.902 17.5148C228.971 17.4459 229.049 17.4115 229.135 17.4115H232.143C232.229 17.4115 232.298 17.4459 232.35 17.5148C232.419 17.5664 232.454 17.6352 232.454 17.7212V35.1672C232.454 35.2533 232.419 35.3307 232.35 35.3995C232.298 35.4511 232.229 35.4769 232.143 35.4769H228.72C228.547 35.4769 228.435 35.3909 228.383 35.2188L225.168 25.2313C225.151 25.1797 225.116 25.1624 225.064 25.1797C225.03 25.1797 225.012 25.2055 225.012 25.2571L225.038 35.1672C225.038 35.2533 225.004 35.3307 224.935 35.3995C224.883 35.4511 224.814 35.4769 224.727 35.4769H221.719C221.633 35.4769 221.555 35.4511 221.486 35.3995C221.434 35.3307 221.408 35.2533 221.408 35.1672V17.7212C221.408 17.6352 221.434 17.5664 221.486 17.5148C221.555 17.4459 221.633 17.4115 221.719 17.4115H225.116C225.289 17.4115 225.401 17.4976 225.453 17.6696L228.694 27.6572C228.712 27.7088 228.738 27.7346 228.772 27.7346C228.824 27.7174 228.85 27.683 228.85 27.6314L228.824 17.7212Z" fill="white"/>
<path d="M239.239 35.4511C239.152 35.4511 239.074 35.4253 239.005 35.3737C238.953 35.3049 238.928 35.2274 238.928 35.1414V28.4314L238.902 28.2766L235.272 17.7728C235.254 17.7384 235.246 17.6954 235.246 17.6438C235.246 17.489 235.341 17.4115 235.531 17.4115H238.72C238.91 17.4115 239.031 17.4976 239.083 17.6696L240.691 23.8377C240.708 23.8893 240.734 23.9151 240.769 23.9151C240.803 23.9151 240.829 23.8893 240.846 23.8377L242.454 17.6696C242.506 17.4976 242.627 17.4115 242.817 17.4115H246.006C246.11 17.4115 246.188 17.4459 246.239 17.5148C246.291 17.5664 246.3 17.6524 246.265 17.7728L242.609 28.2766L242.584 28.4314V35.1414C242.584 35.2274 242.549 35.3049 242.48 35.3737C242.428 35.4253 242.359 35.4511 242.272 35.4511H239.239Z" fill="white"/>
</svg>
