<svg width="158" height="40" viewBox="0 0 158 40" fill="none" xmlns="http://www.w3.org/2000/svg">
<path d="M55.1987 11H56.9152V20.6331H55.1987V16.4519H50.2807V20.6331H48.5506V11H50.2807V15.0309H55.1987V11Z" fill="#333333"/>
<path d="M64.6753 17.5997H60.1388C60.1933 18.2192 60.3795 18.6792 60.6974 18.9798C61.0152 19.2804 61.4693 19.4307 62.0597 19.4307C62.7953 19.4307 63.4674 19.1939 64.0759 18.7202L64.5664 19.8953C64.2576 20.1503 63.867 20.3553 63.3948 20.5102C62.9316 20.665 62.4638 20.7425 61.9916 20.7425C60.9017 20.7425 60.0389 20.4327 59.4032 19.8133C58.7765 19.1939 58.4632 18.3467 58.4632 17.2718C58.4632 16.5886 58.5994 15.9828 58.8719 15.4545C59.1443 14.9261 59.5258 14.5162 60.0162 14.2247C60.5157 13.9332 61.0788 13.7875 61.7055 13.7875C62.6228 13.7875 63.3448 14.0835 63.8716 14.6756C64.4074 15.2677 64.6753 16.083 64.6753 17.1215V17.5997ZM61.7463 14.9899C61.2922 14.9899 60.9244 15.1356 60.6429 15.4271C60.3704 15.7186 60.2024 16.1377 60.1388 16.6842H63.2177C63.1995 16.1286 63.0633 15.7095 62.809 15.4271C62.5547 15.1356 62.2005 14.9899 61.7463 14.9899Z" fill="#333333"/>
<path d="M68.9292 13.7875C69.8646 13.7875 70.5594 14.0152 71.0135 14.4707C71.4676 14.9261 71.6947 15.6276 71.6947 16.5749V20.6331H70.0735V19.6083C69.9191 19.9636 69.6739 20.2414 69.3379 20.4418C69.0109 20.6422 68.6295 20.7425 68.1935 20.7425C67.7485 20.7425 67.3443 20.6514 66.9811 20.4692C66.6178 20.287 66.3317 20.0365 66.1228 19.7177C65.9139 19.3988 65.8095 19.0436 65.8095 18.6519C65.8095 18.16 65.9321 17.7728 66.1773 17.4904C66.4316 17.208 66.8403 17.0031 67.4034 16.8755C67.9665 16.748 68.743 16.6842 69.733 16.6842H70.0735V16.37C70.0735 15.9145 69.9736 15.5866 69.7738 15.3862C69.5831 15.1857 69.2607 15.0855 68.8066 15.0855C68.4524 15.0855 68.08 15.1493 67.6895 15.2768C67.308 15.3953 66.9311 15.5638 66.5587 15.7824L66.0819 14.6073C66.4543 14.3705 66.9039 14.1746 67.4306 14.0198C67.9574 13.8649 68.4569 13.7875 68.9292 13.7875ZM68.5341 19.5127C68.9882 19.5127 69.356 19.3624 69.6376 19.0618C69.9282 18.7521 70.0735 18.3558 70.0735 17.873V17.5861H69.8283C69.2198 17.5861 68.7475 17.6134 68.4115 17.668C68.0755 17.7227 67.8348 17.8184 67.6895 17.955C67.5442 18.0916 67.4715 18.2784 67.4715 18.5152C67.4715 18.8067 67.5714 19.0481 67.7712 19.2394C67.971 19.4216 68.2253 19.5127 68.5341 19.5127Z" fill="#333333"/>
<path d="M73.4254 20.6331V11H75.1283V20.6331H73.4254Z" fill="#333333"/>
<path d="M80.2902 19.458C80.49 19.458 80.6989 19.4444 80.9169 19.417L80.8351 20.6878C80.5627 20.7151 80.3129 20.7288 80.0858 20.7288C79.1504 20.7288 78.4601 20.5147 78.0151 20.0866C77.5701 19.6493 77.3476 19.0026 77.3476 18.1463V15.2358H76.067V13.9514H77.3476V11.9565H79.0505V13.9514H80.8079V15.2358H79.0505V18.119C79.0505 19.0117 79.4637 19.458 80.2902 19.458Z" fill="#333333"/>
<path d="M85.7823 13.7875C86.5815 13.7875 87.1764 14.0152 87.5669 14.4707C87.9574 14.9261 88.1527 15.6139 88.1527 16.5339V20.6331H86.4498V16.6296C86.4498 16.1103 86.3499 15.7323 86.1501 15.4955C85.9594 15.2586 85.6551 15.1402 85.2373 15.1402C84.7469 15.1402 84.3518 15.2951 84.0521 15.6048C83.7615 15.9145 83.6162 16.329 83.6162 16.8482V20.6331H81.9133V11H83.6162V14.8806C83.8432 14.5253 84.1429 14.2566 84.5153 14.0744C84.8968 13.8831 85.3191 13.7875 85.7823 13.7875Z" fill="#333333"/>
<path d="M93.7307 20.6331V11H95.4881V20.6331H93.7307Z" fill="#333333"/>
<path d="M101.281 13.7875C102.081 13.7875 102.675 14.0152 103.066 14.4707C103.456 14.9261 103.652 15.6139 103.652 16.5339V20.6331H101.949V16.6296C101.949 16.1103 101.849 15.7323 101.649 15.4955C101.458 15.2586 101.154 15.1402 100.736 15.1402C100.246 15.1402 99.8509 15.2951 99.5512 15.6048C99.2605 15.9145 99.1152 16.329 99.1152 16.8482V20.6331H97.4123V13.9514H99.0744V14.9489C99.3014 14.5754 99.6057 14.2885 99.9871 14.0881C100.369 13.8877 100.8 13.7875 101.281 13.7875Z" fill="#333333"/>
<path d="M107.834 20.7425C107.243 20.7425 106.698 20.6696 106.199 20.5238C105.708 20.3781 105.291 20.1686 104.945 19.8953L105.422 18.7065C106.131 19.2257 106.944 19.4854 107.861 19.4854C108.251 19.4854 108.546 19.4216 108.746 19.2941C108.955 19.1665 109.06 18.9843 109.06 18.7475C109.06 18.5471 108.987 18.3922 108.842 18.2829C108.705 18.1736 108.456 18.0734 108.092 17.9823L107.003 17.7364C106.385 17.5997 105.926 17.3765 105.627 17.0668C105.327 16.7571 105.177 16.3563 105.177 15.8644C105.177 15.4545 105.291 15.0947 105.518 14.7849C105.754 14.4661 106.076 14.2202 106.485 14.0471C106.903 13.874 107.384 13.7875 107.929 13.7875C108.401 13.7875 108.855 13.8603 109.291 14.0061C109.736 14.1518 110.127 14.3568 110.463 14.621L109.986 15.7824C109.296 15.2814 108.606 15.0309 107.915 15.0309C107.543 15.0309 107.252 15.0992 107.043 15.2358C106.835 15.3725 106.73 15.5638 106.73 15.8097C106.73 15.9919 106.794 16.1422 106.921 16.2607C107.057 16.3791 107.27 16.4702 107.561 16.5339L108.692 16.7935C109.355 16.9393 109.841 17.1716 110.149 17.4904C110.458 17.8001 110.613 18.2101 110.613 18.7202C110.613 19.3396 110.363 19.8315 109.863 20.1959C109.364 20.5603 108.687 20.7425 107.834 20.7425Z" fill="#333333"/>
<path d="M118.11 13.9514V20.6331H116.448V19.6083C116.239 19.9727 115.958 20.2551 115.604 20.4555C115.249 20.6468 114.85 20.7425 114.405 20.7425C112.77 20.7425 111.953 19.8224 111.953 17.9823V13.9514H113.655V17.996C113.655 18.4697 113.751 18.8204 113.942 19.0481C114.132 19.2758 114.432 19.3897 114.841 19.3897C115.313 19.3897 115.69 19.2349 115.971 18.9251C116.262 18.6063 116.407 18.1873 116.407 17.668V13.9514H118.11Z" fill="#333333"/>
<path d="M124.269 15.2085L123.275 15.3042C122.149 15.4226 121.586 15.9965 121.586 17.0258V20.6331H119.883V13.9514H121.504V15.1265C121.849 14.3249 122.562 13.8877 123.643 13.8148L124.16 13.7738L124.269 15.2085Z" fill="#333333"/>
<path d="M127.932 13.7875C128.868 13.7875 129.562 14.0152 130.016 14.4707C130.47 14.9261 130.698 15.6276 130.698 16.5749V20.6331H129.076V19.6083C128.922 19.9636 128.677 20.2414 128.341 20.4418C128.014 20.6422 127.632 20.7425 127.196 20.7425C126.751 20.7425 126.347 20.6514 125.984 20.4692C125.621 20.287 125.335 20.0365 125.126 19.7177C124.917 19.3988 124.812 19.0436 124.812 18.6519C124.812 18.16 124.935 17.7728 125.18 17.4904C125.434 17.208 125.843 17.0031 126.406 16.8755C126.969 16.748 127.746 16.6842 128.736 16.6842H129.076V16.37C129.076 15.9145 128.976 15.5866 128.777 15.3862C128.586 15.1857 128.264 15.0855 127.809 15.0855C127.455 15.0855 127.083 15.1493 126.692 15.2768C126.311 15.3953 125.934 15.5638 125.562 15.7824L125.085 14.6073C125.457 14.3705 125.907 14.1746 126.433 14.0198C126.96 13.8649 127.46 13.7875 127.932 13.7875ZM127.537 19.5127C127.991 19.5127 128.359 19.3624 128.64 19.0618C128.931 18.7521 129.076 18.3558 129.076 17.873V17.5861H128.831C128.223 17.5861 127.75 17.6134 127.414 17.668C127.078 17.7227 126.838 17.8184 126.692 17.955C126.547 18.0916 126.474 18.2784 126.474 18.5152C126.474 18.8067 126.574 19.0481 126.774 19.2394C126.974 19.4216 127.228 19.5127 127.537 19.5127Z" fill="#333333"/>
<path d="M136.297 13.7875C137.096 13.7875 137.691 14.0152 138.082 14.4707C138.472 14.9261 138.668 15.6139 138.668 16.5339V20.6331H136.965V16.6296C136.965 16.1103 136.865 15.7323 136.665 15.4955C136.474 15.2586 136.17 15.1402 135.752 15.1402C135.262 15.1402 134.867 15.2951 134.567 15.6048C134.276 15.9145 134.131 16.329 134.131 16.8482V20.6331H132.428V13.9514H134.09V14.9489C134.317 14.5754 134.622 14.2885 135.003 14.0881C135.384 13.8877 135.816 13.7875 136.297 13.7875Z" fill="#333333"/>
<path d="M143.435 20.7425C142.736 20.7425 142.127 20.6013 141.61 20.3189C141.101 20.0365 140.711 19.6357 140.438 19.1164C140.166 18.5972 140.029 17.9914 140.029 17.2991C140.029 16.6068 140.17 15.9965 140.452 15.4681C140.742 14.9307 141.151 14.5162 141.678 14.2247C142.205 13.9332 142.813 13.7875 143.503 13.7875C143.976 13.7875 144.434 13.8649 144.879 14.0198C145.333 14.1655 145.697 14.3659 145.969 14.621L145.479 15.8234C145.197 15.5957 144.897 15.4226 144.58 15.3042C144.271 15.1857 143.962 15.1265 143.653 15.1265C143.063 15.1265 142.604 15.3133 142.277 15.6868C141.95 16.0511 141.787 16.5795 141.787 17.2718C141.787 17.955 141.95 18.4833 142.277 18.8568C142.604 19.2212 143.063 19.4034 143.653 19.4034C143.962 19.4034 144.271 19.3442 144.58 19.2257C144.897 19.1073 145.197 18.9342 145.479 18.7065L145.969 19.8953C145.679 20.1595 145.306 20.369 144.852 20.5238C144.398 20.6696 143.926 20.7425 143.435 20.7425Z" fill="#333333"/>
<path d="M152.894 17.5997H148.357C148.412 18.2192 148.598 18.6792 148.916 18.9798C149.233 19.2804 149.688 19.4307 150.278 19.4307C151.014 19.4307 151.686 19.1939 152.294 18.7202L152.785 19.8953C152.476 20.1503 152.085 20.3553 151.613 20.5102C151.15 20.665 150.682 20.7425 150.21 20.7425C149.12 20.7425 148.257 20.4327 147.621 19.8133C146.995 19.1939 146.681 18.3467 146.681 17.2718C146.681 16.5886 146.818 15.9828 147.09 15.4545C147.363 14.9261 147.744 14.5162 148.234 14.2247C148.734 13.9332 149.297 13.7875 149.924 13.7875C150.841 13.7875 151.563 14.0835 152.09 14.6756C152.626 15.2677 152.894 16.083 152.894 17.1215V17.5997ZM149.965 14.9899C149.51 14.9899 149.143 15.1356 148.861 15.4271C148.589 15.7186 148.421 16.1377 148.357 16.6842H151.436C151.418 16.1286 151.282 15.7095 151.027 15.4271C150.773 15.1356 150.419 14.9899 149.965 14.9899Z" fill="#333333"/>
<path d="M50.5986 33.2222C50.0688 33.2222 49.6079 33.108 49.2158 32.8795C48.8238 32.6457 48.5218 32.3135 48.3099 31.8831C48.1033 31.4474 48 30.9346 48 30.3448C48 29.755 48.1033 29.2448 48.3099 28.8144C48.5218 28.384 48.8238 28.0545 49.2158 27.8261C49.6079 27.5922 50.0688 27.4753 50.5986 27.4753C50.9853 27.4753 51.3403 27.5365 51.6635 27.6587C51.9866 27.7756 52.2674 27.9509 52.5058 28.1847L52.2595 28.6869C51.9893 28.4584 51.7244 28.2937 51.4648 28.1927C51.2052 28.0917 50.9191 28.0413 50.6065 28.0413C49.992 28.0413 49.5152 28.2432 49.1761 28.647C48.8423 29.0456 48.6755 29.6115 48.6755 30.3448C48.6755 31.0834 48.8423 31.6546 49.1761 32.0585C49.5152 32.457 49.992 32.6563 50.6065 32.6563C50.9191 32.6563 51.2052 32.6058 51.4648 32.5048C51.7244 32.4039 51.9893 32.2392 52.2595 32.0107L52.5058 32.5128C52.2674 32.7466 51.9866 32.9246 51.6635 33.0468C51.3403 33.1637 50.9853 33.2222 50.5986 33.2222Z" fill="#333333"/>
<path d="M56.6383 33.2222C56.1191 33.2222 55.6662 33.1053 55.2794 32.8715C54.898 32.6377 54.6039 32.3056 54.3973 31.8752C54.1907 31.4447 54.0874 30.9373 54.0874 30.3528C54.0874 29.7629 54.1881 29.2528 54.3894 28.8224C54.596 28.3867 54.89 28.0545 55.2715 27.8261C55.6582 27.5922 56.1138 27.4753 56.6383 27.4753C57.1628 27.4753 57.6158 27.5922 57.9973 27.8261C58.384 28.0545 58.678 28.3867 58.8794 28.8224C59.086 29.2528 59.1893 29.7603 59.1893 30.3448C59.1893 30.9293 59.086 31.4394 58.8794 31.8752C58.6727 32.3056 58.3761 32.6377 57.9893 32.8715C57.6079 33.1053 57.1575 33.2222 56.6383 33.2222ZM56.6383 32.6643C57.2317 32.6643 57.6926 32.465 58.0211 32.0665C58.3549 31.6626 58.5218 31.0887 58.5218 30.3448C58.5218 29.6009 58.3575 29.0296 58.029 28.6311C57.7006 28.2326 57.237 28.0333 56.6383 28.0333C56.045 28.0333 55.5814 28.2352 55.2476 28.6391C54.9192 29.0376 54.7549 29.6062 54.7549 30.3448C54.7549 31.0834 54.9192 31.6546 55.2476 32.0585C55.5814 32.4623 56.045 32.6643 56.6383 32.6643Z" fill="#333333"/>
<path d="M65.9177 27.5391H66.4501V33.1584H65.8541L65.8621 28.8064L64.0422 32.2657H63.5813L61.7535 28.8383L61.7615 33.1584H61.1575V27.5391H61.6979L63.8197 31.6121L65.9177 27.5391Z" fill="#333333"/>
<path d="M68.6341 27.5391H70.8513C71.4393 27.5391 71.8949 27.6826 72.2181 27.9695C72.5466 28.2565 72.7108 28.663 72.7108 29.189C72.7108 29.7151 72.5466 30.1243 72.2181 30.4165C71.8897 30.7088 71.434 30.8549 70.8513 30.8549H69.2857V33.1584H68.6341V27.5391ZM70.7877 30.3129C71.6406 30.3129 72.0671 29.9383 72.0671 29.189C72.0671 28.4504 71.6406 28.0811 70.7877 28.0811H69.2857V30.3129H70.7877Z" fill="#333333"/>
<path d="M78.2366 33.1584L77.6167 31.7157H74.6923L74.0724 33.1584H73.4049L75.8684 27.5391H76.4326L78.8962 33.1584H78.2366ZM74.9227 31.1737H77.3863L76.1545 28.2963L74.9227 31.1737Z" fill="#333333"/>
<path d="M84.9323 33.1584H84.2171L83.2635 31.3571C83.1469 31.1392 83.0092 30.9904 82.8502 30.9107C82.6966 30.8257 82.4847 30.7832 82.2145 30.7832H81.1655V33.1584H80.5218V27.5391H82.8264C83.4356 27.5391 83.8992 27.6746 84.2171 27.9456C84.5403 28.2166 84.7018 28.6151 84.7018 29.1412C84.7018 29.5769 84.5773 29.9303 84.3283 30.2013C84.0846 30.467 83.735 30.6344 83.2794 30.7035C83.4224 30.746 83.5469 30.8177 83.6529 30.9187C83.7641 31.0196 83.8648 31.1551 83.9548 31.3252L84.9323 33.1584ZM82.7708 30.2412C83.2052 30.2412 83.5284 30.1508 83.7403 29.9702C83.9575 29.7895 84.0661 29.5158 84.0661 29.1492C84.0661 28.7878 83.9601 28.5195 83.7482 28.3441C83.5363 28.1688 83.2105 28.0811 82.7708 28.0811H81.1655V30.2412H82.7708Z" fill="#333333"/>
<path d="M86.7644 33.1584V27.5391H87.4161V33.1584H86.7644Z" fill="#333333"/>
<path d="M91.3725 33.2222C90.4983 33.2222 89.799 32.9857 89.2745 32.5128L89.5288 32.0107C89.8043 32.2445 90.0851 32.4118 90.3712 32.5128C90.6626 32.6138 90.999 32.6643 91.3805 32.6643C91.8308 32.6643 92.1778 32.5766 92.4215 32.4012C92.6652 32.2259 92.787 31.9788 92.787 31.6599C92.787 31.474 92.7288 31.3225 92.6122 31.2056C92.4957 31.0887 92.342 30.9957 92.1513 30.9266C91.9606 30.8576 91.7036 30.7858 91.3805 30.7114C90.946 30.6105 90.5884 30.5042 90.3076 30.3926C90.0321 30.281 89.807 30.1216 89.6321 29.9144C89.4626 29.7071 89.3778 29.4361 89.3778 29.1014C89.3778 28.7825 89.46 28.5009 89.6242 28.2565C89.7937 28.0067 90.0321 27.8154 90.3394 27.6826C90.652 27.5444 91.0122 27.4753 91.4202 27.4753C91.8069 27.4753 92.1672 27.5365 92.501 27.6587C92.84 27.7809 93.1261 27.9562 93.3592 28.1847L93.1129 28.6869C92.848 28.4584 92.5778 28.2937 92.3023 28.1927C92.0321 28.0864 91.7381 28.0333 91.4202 28.0333C90.9858 28.0333 90.644 28.1263 90.395 28.3123C90.1513 28.4929 90.0295 28.748 90.0295 29.0774C90.0295 29.3591 90.1381 29.5716 90.3553 29.7151C90.5725 29.8586 90.901 29.9808 91.3407 30.0818C91.8228 30.1987 92.2016 30.3076 92.4771 30.4086C92.7526 30.5042 92.9804 30.6503 93.1605 30.8469C93.346 31.0435 93.4387 31.3066 93.4387 31.636C93.4387 31.9549 93.3539 32.2338 93.1844 32.473C93.0202 32.7121 92.7817 32.8981 92.4692 33.0309C92.1566 33.1584 91.791 33.2222 91.3725 33.2222Z" fill="#333333"/>
<path d="M97.6361 33.2222C97.1169 33.2222 96.664 33.1053 96.2772 32.8715C95.8958 32.6377 95.6017 32.3056 95.3951 31.8752C95.1885 31.4447 95.0852 30.9373 95.0852 30.3528C95.0852 29.7629 95.1858 29.2528 95.3872 28.8224C95.5938 28.3867 95.8878 28.0545 96.2693 27.8261C96.656 27.5922 97.1116 27.4753 97.6361 27.4753C98.1606 27.4753 98.6136 27.5922 98.995 27.8261C99.3818 28.0545 99.6758 28.3867 99.8771 28.8224C100.084 29.2528 100.187 29.7603 100.187 30.3448C100.187 30.9293 100.084 31.4394 99.8771 31.8752C99.6705 32.3056 99.3738 32.6377 98.9871 32.8715C98.6056 33.1053 98.1553 33.2222 97.6361 33.2222ZM97.6361 32.6643C98.2295 32.6643 98.6904 32.465 99.0189 32.0665C99.3526 31.6626 99.5195 31.0887 99.5195 30.3448C99.5195 29.6009 99.3553 29.0296 99.0268 28.6311C98.6984 28.2326 98.2348 28.0333 97.6361 28.0333C97.0428 28.0333 96.5792 28.2352 96.2454 28.6391C95.917 29.0376 95.7527 29.6062 95.7527 30.3448C95.7527 31.0834 95.917 31.6546 96.2454 32.0585C96.5792 32.4623 97.0428 32.6643 97.6361 32.6643Z" fill="#333333"/>
<path d="M106.033 27.5391H106.645V33.1584H106.145L102.767 28.6391V33.1584H102.155V27.5391H102.656L106.033 32.0585V27.5391Z" fill="#333333"/>
<path fill-rule="evenodd" clip-rule="evenodd" d="M16.25 0H23.75C25.8211 0 27.5 1.67893 27.5 3.75V8.75C27.5 10.8211 29.1789 12.5 31.25 12.5H36.25C38.3211 12.5 40 14.1789 40 16.25V23.75C40 25.8211 38.3211 27.5 36.25 27.5H31.25C29.1789 27.5 27.5 29.1789 27.5 31.25V36.25C27.5 38.3211 25.8211 40 23.75 40H16.25C14.1789 40 12.5 38.3211 12.5 36.25V31.25C12.5 29.1789 10.8211 27.5 8.75 27.5H3.75C1.67893 27.5 0 25.8211 0 23.75V16.25C0 14.1789 1.67893 12.5 3.75 12.5H8.75C10.8211 12.5 12.5 10.8211 12.5 8.75V3.75C12.5 1.67893 14.1789 0 16.25 0ZM20 28.75L13.6848 22.2344C12.2228 20.7259 11.8596 18.4644 12.7757 16.574L12.8465 16.4279C13.8479 14.3616 16.4544 13.6723 18.3463 14.9736L20 16.1111L21.6537 14.9736C23.5456 13.6723 26.1521 14.3616 27.1535 16.4279L27.2243 16.574C28.1404 18.4644 27.7772 20.7259 26.3152 22.2344L20 28.75Z" fill="#00AEBF"/>
</svg>
