<svg width="167" height="50" viewBox="0 0 167 50" fill="none" xmlns="http://www.w3.org/2000/svg">
<path d="M14.2352 11.1465L6.86423 15.2818L22.0668 41.2418L29.0923 37.1066L25.9827 31.6731L21.1455 34.3497L22.9785 26.4239L19.6916 20.6805L16.8841 19.8765L16.2731 14.7074L14.2352 11.1465Z" fill="#FCBF1E"/>
<path d="M14.8555 28.1315C19.0146 35.3162 25.0395 39.6127 28.3126 37.7279C31.1919 36.0699 30.9825 30.1809 28.0591 23.8968C26.45 24.8158 26.0979 27.5726 26.0979 28.6064C26.0979 29.6402 24.7158 32.7416 24.1399 32.9714C23.5641 33.2011 21.8365 32.7416 22.4124 31.7078C22.9882 30.674 24.831 25.2752 24.7158 24.4712C24.0589 23.3225 25.1765 23.0928 25.3727 22.7482C25.0689 22.013 26.0367 21.3098 26.5585 21.0501C26.177 20.4042 25.7806 19.7824 25.3727 19.1873C25.2689 19.2256 24.877 19.394 24.1399 19.7616C17.1145 22.4036 17.2297 17.3494 17.2297 15.7413C18.6117 19.9684 22.2021 18.4215 23.8246 17.1197C20.0947 12.5648 15.8234 10.2289 13.2514 11.71C9.97827 13.5947 10.6965 20.9469 14.8555 28.1315Z" fill="#FCBF1E"/>
<ellipse rx="6.83874" ry="15.0314" transform="matrix(0.866627 -0.498957 0.501044 0.865422 14.794 27.9126)" fill="#FCBF1E"/>
<path fill-rule="evenodd" clip-rule="evenodd" d="M38.7146 6.33925C36.1264 6.2342 33.7629 7.54725 32.1311 9.50594C30.5645 11.3862 28.7451 13.2172 26.9657 14.7124C25.1808 16.2122 23.458 17.3558 22.0847 17.884C21.5872 18.0754 21.1508 18.0677 20.7642 17.9401C20.3708 17.8103 20.0081 17.5488 19.6825 17.2019C19.0269 16.5035 18.5742 15.5146 18.3629 14.8143C18.3154 14.6568 18.1629 14.5547 17.9988 14.5706C17.8346 14.5864 17.7046 14.7157 17.6882 14.8793C17.5994 15.7667 17.6712 17.1133 18.193 18.2742C18.724 19.4556 19.7326 20.4572 21.4785 20.5449C23.165 20.6296 25.1959 19.87 27.0112 18.9309C28.7601 18.0262 30.3632 16.9259 31.3594 16.1465C31.4944 16.1745 31.6255 16.1927 31.7457 16.2035V17.6813C31.3639 17.9568 30.8401 18.2748 30.2522 18.6226C30.128 18.6961 30.0012 18.7707 29.8728 18.8463C29.3263 19.168 28.7506 19.5068 28.2229 19.8448C27.5753 20.2595 26.9725 20.6898 26.5722 21.1059C26.3726 21.3134 26.2029 21.538 26.1121 21.7751C26.0491 21.9395 26.0229 22.1151 26.0535 22.2902C26.001 22.3367 25.9467 22.3828 25.8906 22.4306C25.8586 22.4578 25.826 22.4855 25.7927 22.5141C25.6524 22.6348 25.4954 22.7755 25.3788 22.9362C25.2571 23.1039 25.1632 23.3155 25.1841 23.5708C25.2038 23.8125 25.3224 24.0398 25.5078 24.2593C25.5086 24.2626 25.5094 24.2668 25.5103 24.2722C25.5157 24.305 25.5183 24.3596 25.5115 24.4413C25.4979 24.605 25.4514 24.8286 25.3727 25.1072C25.2161 25.6619 24.9499 26.3744 24.6443 27.1456C24.5 27.5097 24.3465 27.8876 24.1927 28.2663C23.705 29.4668 23.2141 30.6752 23.0037 31.4762C22.9553 31.6603 23.0658 31.8486 23.2503 31.8968C23.4349 31.9451 23.6238 31.8349 23.6721 31.6508C23.8701 30.8971 24.334 29.7548 24.8165 28.5667C24.9742 28.1783 25.1339 27.7851 25.287 27.3989C25.5928 26.6271 25.8708 25.8858 26.0379 25.294C26.121 24.9995 26.1812 24.7267 26.2002 24.4981C26.2097 24.3837 26.21 24.2681 26.1922 24.1603C26.1747 24.0544 26.1356 23.9308 26.0459 23.8266C25.9057 23.6638 25.8769 23.5645 25.8728 23.5148C25.8694 23.4727 25.8797 23.4214 25.9386 23.3402C26.0027 23.2519 26.1028 23.1575 26.244 23.0361C26.2705 23.0133 26.2985 22.9894 26.3277 22.9647C26.4427 22.867 26.5747 22.7549 26.6949 22.6352C26.8036 22.527 26.8277 22.3603 26.754 22.226C26.7293 22.1809 26.7182 22.1239 26.7576 22.021C26.8013 21.907 26.9003 21.7604 27.0709 21.5831C27.4108 21.2296 27.9542 20.8359 28.5963 20.4247C29.1119 20.0945 29.6733 19.764 30.2191 19.4427C30.3488 19.3664 30.4776 19.2906 30.6047 19.2154C31.2586 18.8286 31.8749 18.4546 32.3017 18.1276C32.3868 18.0624 32.4367 17.9614 32.4367 17.8543V15.8705C32.4367 15.7769 32.3986 15.6874 32.331 15.6224C32.2635 15.5575 32.1724 15.5227 32.0786 15.5261C31.9198 15.5319 31.6431 15.5142 31.3658 15.44C31.0908 15.3664 30.8604 15.2492 30.7246 15.0896C30.6011 14.9445 30.383 14.9267 30.2376 15.0499C30.0921 15.173 30.0742 15.3905 30.1977 15.5356C30.3121 15.67 30.4488 15.7776 30.5942 15.8637C29.621 16.5941 28.2119 17.5334 26.693 18.3191C24.8967 19.2483 23.0054 19.9315 21.5132 19.8565C20.0805 19.7846 19.2723 18.9906 18.8236 17.9923C18.6352 17.5731 18.5123 17.1203 18.4386 16.6763C18.6483 17.0279 18.895 17.3713 19.1781 17.6729C19.5563 18.0759 20.0125 18.418 20.5471 18.5944C21.0887 18.7732 21.6898 18.7747 22.3334 18.5271C23.8126 17.958 25.6046 16.7573 27.4109 15.2394C29.2227 13.717 31.0709 11.8569 32.6626 9.9464C34.1889 8.11431 36.3591 6.93342 38.6865 7.02788C41.0044 7.12196 43.5628 8.48517 45.8632 11.913C45.9062 11.977 45.9695 12.0249 46.0429 12.0488L46.0439 12.0492C46.2 12.1001 46.5987 12.2303 47.0789 12.3217C47.5531 12.412 48.1425 12.4719 48.6691 12.3573C48.7149 12.3473 48.7582 12.3282 48.7963 12.301L49.9948 11.447C50.132 11.4729 50.2743 11.4868 50.4217 11.4877C50.4201 11.4992 50.4184 11.5108 50.4164 11.5225C50.4081 11.5719 50.3969 11.6189 50.3834 11.6759L50.3807 11.6869C50.3673 11.7435 50.3499 11.8171 50.3409 11.8923C50.3206 12.0614 50.3401 12.2629 50.4983 12.4519C50.6349 12.615 50.8482 12.7345 51.118 12.8401C51.2956 12.9097 51.4961 12.8225 51.5659 12.6453C51.6356 12.4682 51.5482 12.2682 51.3706 12.1986C51.1309 12.1048 51.0514 12.0372 51.0288 12.0102L51.028 12.0101C51.0262 12.0103 51.0226 12.0108 51.027 11.9743C51.0307 11.9435 51.0388 11.9064 51.0532 11.8458C51.0543 11.8412 51.0554 11.8364 51.0565 11.8316C51.0693 11.7781 51.0856 11.7097 51.0979 11.6365C51.1261 11.469 51.1361 11.2644 51.0666 11.0265C51.0189 10.8629 50.8584 10.7586 50.689 10.7812C50.4358 10.815 50.2104 10.7974 50.0087 10.7439C49.5009 10.6092 49.096 10.2316 48.7892 9.75527C48.5998 9.46117 48.4569 9.14287 48.3571 8.85246C48.7272 8.92452 49.1682 9.03753 49.6003 9.19855C50.2709 9.44843 50.8602 9.79205 51.1656 10.224C51.2207 10.3018 51.3055 10.3535 51.4 10.3667C51.5918 10.3935 51.8435 10.4066 52.0994 10.42L52.1192 10.421C52.3897 10.4351 52.6762 10.4503 52.9515 10.4802C53.2286 10.5104 53.4776 10.5539 53.6745 10.6191C53.8792 10.6868 53.9765 10.7614 54.0148 10.8176C54.0553 10.8771 54.1135 10.9225 54.1812 10.9474C54.4274 11.0377 54.7451 11.0848 55.0335 11.1203C55.1274 11.1319 55.2187 11.1423 55.307 11.1523C55.508 11.1752 55.6935 11.1963 55.858 11.2252C55.9176 11.2357 55.9696 11.2465 56.0145 11.2575C56.0127 11.259 56.0109 11.2606 56.0091 11.2622C55.9339 11.3276 55.8908 11.4223 55.8908 11.5218C55.8908 11.6816 55.8468 11.9714 55.7274 12.1956C55.6695 12.3042 55.6033 12.3797 55.5337 12.4243C55.4703 12.465 55.3863 12.4921 55.2596 12.4766C55.2316 12.4732 55.2034 12.4732 55.1754 12.4766C54.6606 12.5396 54.3398 12.7982 54.0989 13.0079C54.0861 13.019 54.0737 13.0299 54.0615 13.0405C53.8298 13.2425 53.7095 13.3474 53.5317 13.3764C53.0904 13.4484 52.1939 13.4066 51.7818 13.373C51.6518 13.3624 51.5269 13.4257 51.4588 13.5368C51.2624 13.8573 50.9212 14.3559 50.5428 14.8002C50.3537 15.0223 50.1602 15.2249 49.9753 15.3837C49.7857 15.5464 49.6266 15.6443 49.5068 15.6834C49.4199 15.7117 49.3478 15.7733 49.3063 15.8545C49.2485 15.9677 49.2011 16.08 49.1587 16.1839C49.148 16.2102 49.1377 16.2355 49.1277 16.2603C49.0966 16.3372 49.0678 16.4083 49.0357 16.4807C48.9538 16.6651 48.8617 16.8287 48.7146 16.9827C48.4201 17.291 47.8444 17.622 46.4961 17.8665C46.4855 17.8684 46.4749 17.8709 46.4646 17.8738C46.2442 17.9354 46.0501 18.0771 45.89 18.2286C45.7258 18.384 45.5729 18.5732 45.4373 18.7655C45.1662 19.15 44.9418 19.5794 44.816 19.8609C44.7963 19.9051 44.7861 19.9529 44.7861 20.0012C44.7861 20.1543 44.7594 20.4057 44.6816 20.6376C44.6006 20.8793 44.4886 21.0294 44.3681 21.0885C44.1917 21.1748 44.0212 21.2869 43.8708 21.3876C43.8526 21.3998 43.8346 21.4119 43.817 21.4237C43.682 21.5144 43.5637 21.5939 43.4485 21.6576C43.3176 21.7301 43.2228 21.7633 43.153 21.7704C43.0981 21.776 43.0547 21.7667 43.0018 21.7253C42.8645 21.6178 42.7397 21.4537 42.6534 21.2929C42.7448 21.3509 42.8162 21.4092 42.852 21.4442C42.9679 21.5577 43.1473 21.5753 43.2832 21.4866L43.8945 21.0876C44.0238 21.0032 44.0812 20.8433 44.035 20.6962C43.9706 20.4914 43.8834 20.1634 43.8323 19.8531C43.8067 19.6976 43.7917 19.5556 43.791 19.4402C43.7907 19.3827 43.7939 19.3375 43.7992 19.3037C43.8042 19.2725 43.8097 19.2593 43.8097 19.2593L43.8094 19.2598C43.9048 19.0729 44.0141 18.7658 44.1077 18.4794C44.2037 18.1853 44.2918 17.8861 44.3438 17.6992C44.3783 17.5756 44.341 17.4431 44.247 17.3554C44.1531 17.2677 44.018 17.2394 43.8966 17.2818C43.688 17.3548 43.3065 17.448 42.8737 17.4751C42.4388 17.5023 41.983 17.4607 41.6048 17.2923C41.5953 17.2881 41.5856 17.2843 41.5757 17.2809C41.3869 17.2166 41.0744 17.0865 40.7709 16.9119C40.5214 16.7684 40.3059 16.6105 40.1637 16.4539C40.2904 16.0019 40.3932 15.5055 40.468 14.9603C40.4938 14.7717 40.3615 14.5979 40.1725 14.5721C39.9834 14.5463 39.8092 14.6783 39.7833 14.8669C39.7033 15.4502 39.5905 15.9679 39.4519 16.4272C38.7783 18.6602 37.488 19.5479 36.2897 19.9121C35.6793 20.0976 35.081 20.1503 34.5776 20.1612C34.3456 20.1662 34.1368 20.1624 33.9538 20.159C33.9379 20.1587 33.9222 20.1584 33.9068 20.1582C33.7244 20.1549 33.5432 20.1518 33.4122 20.1681C33.2463 20.1888 33.0395 20.2648 32.8273 20.3601C32.6056 20.4596 32.3456 20.5951 32.0628 20.758C31.4967 21.0841 30.8242 21.5281 30.16 22.0345C29.4964 22.5404 28.834 23.1139 28.2919 23.6999C27.7555 24.2797 27.3117 24.8985 27.122 25.4963C27.1164 25.5141 27.1122 25.5324 27.1095 25.5508C26.621 28.9105 26.1638 30.5722 25.7839 31.4211C25.5962 31.8405 25.4356 32.0424 25.3154 32.1523C25.2234 32.2365 25.1551 32.272 25.063 32.32C25.0284 32.338 24.9905 32.3577 24.9467 32.3824C24.7806 32.4761 24.7221 32.6863 24.816 32.852C24.9099 33.0176 25.1207 33.076 25.2868 32.9823C25.302 32.9738 25.3215 32.9638 25.3444 32.952C25.4462 32.8997 25.6162 32.8124 25.7826 32.6602C25.9929 32.4678 26.202 32.1778 26.415 31.702C26.8351 30.7631 27.3009 29.028 27.7892 25.6787C27.9383 25.231 28.2966 24.7112 28.7998 24.1672C29.307 23.6189 29.937 23.072 30.5797 22.582C31.2218 22.0925 31.8696 21.6651 32.4083 21.3549C32.6779 21.1996 32.9165 21.0758 33.1108 20.9886C33.3146 20.8971 33.4414 20.8591 33.4978 20.852C33.5686 20.8432 33.6922 20.8436 33.8944 20.8473C33.91 20.8475 33.9259 20.8478 33.9421 20.8481C34.1242 20.8515 34.3462 20.8556 34.5926 20.8502C35.1299 20.8386 35.7975 20.7822 36.4911 20.5714C37.7914 20.1761 39.143 19.2487 39.928 17.1738C40.0878 17.3022 40.2611 17.4143 40.4257 17.509C40.7645 17.7039 41.1107 17.8496 41.3376 17.9281C41.8522 18.1532 42.4261 18.1936 42.917 18.1629C43.1262 18.1498 43.3259 18.1235 43.5069 18.0904C43.4886 18.1485 43.4698 18.2073 43.4506 18.2659C43.3557 18.5564 43.2612 18.8146 43.1936 18.947C43.114 19.103 43.0991 19.2909 43.1 19.4443C43.101 19.6093 43.1217 19.7902 43.1504 19.9648C43.1897 20.2037 43.247 20.4475 43.3022 20.6505L43.1155 20.7724C42.949 20.6551 42.7197 20.5274 42.4632 20.4646C42.3634 20.4402 42.2285 20.4321 42.0978 20.5017C41.9615 20.5742 41.8951 20.6961 41.8674 20.7982C41.8188 20.9776 41.8639 21.1754 41.9136 21.3215C42.0207 21.6362 42.2595 22.0202 42.575 22.2673C42.7768 22.4254 43.0008 22.4786 43.2229 22.4561C43.4301 22.4351 43.6218 22.3499 43.7838 22.2603C43.9271 22.1809 44.0722 22.0834 44.2036 21.995C44.2214 21.9831 44.2389 21.9713 44.2561 21.9597C44.4082 21.8579 44.5433 21.7704 44.6726 21.7071C45.041 21.5267 45.2347 21.1614 45.337 20.8562C45.4305 20.5773 45.4682 20.289 45.4757 20.079C45.5918 19.8293 45.7817 19.4752 46.0026 19.1619C46.1225 18.9918 46.2459 18.8418 46.3656 18.7286C46.4817 18.6187 46.5744 18.5625 46.639 18.5411C48.0289 18.2869 48.7728 17.9209 49.2149 17.4582C49.4371 17.2256 49.5679 16.984 49.6674 16.76C49.7048 16.6759 49.7395 16.59 49.7715 16.5109C49.7808 16.4879 49.7899 16.4654 49.7987 16.4438C49.822 16.3867 49.8446 16.3327 49.8679 16.2808C50.0632 16.1912 50.2524 16.0552 50.426 15.9061C50.6473 15.7161 50.8664 15.4849 51.0695 15.2464C51.4105 14.846 51.7203 14.4089 51.9358 14.075C52.4049 14.1048 53.1849 14.1314 53.6433 14.0565C54.0269 13.9939 54.296 13.7552 54.4932 13.5802C54.514 13.5617 54.534 13.544 54.5533 13.5272C54.7619 13.3456 54.944 13.2089 55.2235 13.1657C55.4845 13.1879 55.715 13.1274 55.9074 13.0041C56.1052 12.8773 56.2427 12.6971 56.3376 12.519C56.4882 12.2365 56.5549 11.9155 56.5749 11.6764C56.6562 11.5925 56.7252 11.5011 56.7678 11.4011C56.8399 11.2318 56.8328 11.0391 56.7104 10.8784C56.6122 10.7495 56.4684 10.6818 56.3606 10.6424C56.2437 10.5996 56.11 10.5697 55.9779 10.5465C55.7916 10.5137 55.5721 10.4887 55.3613 10.4647C55.278 10.4552 55.1961 10.4459 55.1181 10.4363C54.872 10.406 54.6619 10.3729 54.5054 10.3282C54.3399 10.1473 54.1105 10.0372 53.8921 9.96491C53.6272 9.87728 53.3223 9.8273 53.0264 9.7951C52.7286 9.7627 52.4229 9.7467 52.1553 9.73275C51.9516 9.72212 51.7758 9.71287 51.6335 9.69972C51.1947 9.16408 50.4995 8.79788 49.8421 8.55293C49.1228 8.28488 48.3867 8.1395 47.9212 8.08691C47.8113 8.0745 47.7021 8.11528 47.6274 8.19663C47.5528 8.27797 47.5217 8.39004 47.5437 8.49811C47.6358 8.9487 47.8482 9.56945 48.2078 10.1277C48.4584 10.5169 48.7922 10.893 49.2216 11.1509L48.4551 11.6971C48.0776 11.7642 47.6263 11.7242 47.2085 11.6447C46.8584 11.578 46.5542 11.4882 46.3702 11.43C44.0001 7.94584 41.2879 6.4437 38.7146 6.33925Z" fill="#120136"/>
<path fill-rule="evenodd" clip-rule="evenodd" d="M14.2639 11.5108C12.8729 12.3117 12.1529 14.1685 12.2125 16.748C12.2523 18.4719 12.642 20.474 13.3759 22.594C13.9589 24.2779 14.7576 26.0317 15.7659 27.7735C16.2529 28.6148 16.7668 29.4153 17.3 30.1699C18.5048 31.8748 19.8065 33.343 21.1166 34.5158C21.5036 34.8623 21.891 35.1827 22.2766 35.4757C23.2624 36.2248 24.2326 36.7919 25.1494 37.1575C26.7184 37.783 28.0897 37.8048 29.1361 37.2023C30.4098 36.4688 31.1215 34.8522 31.1861 32.5948C31.2503 30.3502 30.6675 27.5554 29.4524 24.6137C29.3797 24.4377 29.4638 24.2363 29.6403 24.1638C29.8167 24.0913 30.0186 24.1752 30.0913 24.3512C31.3318 27.3543 31.9446 30.247 31.8768 32.6145C31.8095 34.9691 31.0619 36.8891 29.4816 37.7991C28.2241 38.5232 26.6719 38.4708 25.0504 37.8585L22.2718 39.4585C22.1065 39.5537 21.8952 39.4972 21.7998 39.3324C21.7044 39.1675 21.761 38.9568 21.9263 38.8616L24.2588 37.5185C23.5306 37.1689 22.7869 36.7126 22.0422 36.1621L18.5406 38.1784C18.3754 38.2736 18.1641 38.2171 18.0687 38.0523C17.9733 37.8875 18.0299 37.6767 18.1951 37.5816L21.4519 35.7062C21.1859 35.492 20.9201 35.266 20.655 35.0287C19.369 33.8774 18.0985 32.4577 16.9184 30.8234L13.339 32.8846C13.1738 32.9797 12.9624 32.9232 12.867 32.7584C12.7716 32.5936 12.8282 32.3828 12.9935 32.2877L16.5193 30.2574C16.0511 29.5775 15.5988 28.8633 15.1675 28.1181C14.216 26.4744 13.4456 24.8175 12.8623 23.2121L9.37665 25.2192C9.21139 25.3144 9.00008 25.2579 8.90467 25.0931C8.80926 24.9283 8.86588 24.7175 9.03113 24.6224L12.631 22.5495C12.0132 20.7016 11.6473 18.9302 11.5466 17.3384L8.10046 19.3228C7.9352 19.418 7.72389 19.3615 7.62848 19.1967C7.53307 19.0319 7.58969 18.8211 7.75495 18.726L11.5185 16.5588C11.4987 13.9884 12.2382 11.8814 13.9184 10.9139C15.3144 10.1101 17.072 10.2628 18.8891 11.0775C20.7113 11.8945 22.6506 13.3992 24.4767 15.4098C24.6049 15.5509 24.5941 15.7688 24.4526 15.8966C24.3112 16.0243 24.0927 16.0136 23.9646 15.8725C22.1805 13.9082 20.3155 12.4726 18.6057 11.7061C16.8909 10.9372 15.3888 10.863 14.2639 11.5108Z" fill="#120136"/>
<path fill-rule="evenodd" clip-rule="evenodd" d="M15.4572 14.9777C15.2502 15.6499 15.184 16.51 15.2675 17.5169C15.38 18.8721 15.7614 20.4653 16.4011 22.1699C16.9092 23.5235 17.5784 24.9428 18.4006 26.363C18.7977 27.049 19.2124 27.7041 19.639 28.3239C20.603 29.7245 21.6262 30.9429 22.6405 31.9287C22.94 32.2199 23.2386 32.4905 23.5343 32.7394C24.2907 33.3759 25.0249 33.8669 25.7079 34.1964C26.8852 34.7643 27.8447 34.8249 28.5241 34.4336C29.2795 33.9987 29.7219 32.9836 29.7453 31.4427C29.7685 29.9197 29.3764 27.9812 28.5847 25.8665C28.518 25.6882 28.6088 25.4897 28.7875 25.4231C28.9663 25.3566 29.1653 25.4471 29.2321 25.6254C30.0424 27.79 30.4611 29.8168 30.4363 31.4532C30.4117 33.0716 29.9474 34.4099 28.8697 35.0305C27.8986 35.5896 26.6695 35.4259 25.407 34.8168C24.6597 34.4563 23.8773 33.9298 23.0887 33.2661C22.7795 33.0059 22.4688 32.7242 22.1582 32.4223C21.1076 31.4012 20.0558 30.1472 19.0693 28.714C18.6324 28.0792 18.2081 27.4089 17.8021 26.7076C16.9618 25.2561 16.276 23.8024 15.754 22.4115C15.0978 20.6632 14.6978 19.0069 14.5789 17.5738C14.4908 16.5126 14.5555 15.5582 14.7966 14.7754C15.0384 13.99 15.4648 13.3577 16.109 12.9868C17.0223 12.4609 18.1648 12.5751 19.3443 13.0954C20.5299 13.6185 21.816 14.5766 23.0843 15.8563C23.2185 15.9916 23.2172 16.2098 23.0815 16.3436C22.9458 16.4774 22.727 16.4762 22.5929 16.3408C21.3606 15.0975 20.1443 14.202 19.0647 13.7257C17.979 13.2467 17.0934 13.2157 16.4545 13.5836C16.0021 13.8441 15.6634 14.3079 15.4572 14.9777Z" fill="#120136"/>
<path fill-rule="evenodd" clip-rule="evenodd" d="M6.91365 20.6486C7.15755 23.6155 8.3417 27.2545 10.4231 30.85C12.175 33.8764 14.2727 36.3712 16.3588 38.0961C18.3791 39.7665 20.3479 40.6823 21.9594 40.7163H22.1439C22.7535 40.7032 23.3065 40.5591 23.7933 40.2788L29.1361 37.2023C29.3014 37.1071 29.5127 37.1636 29.6081 37.3284C29.7035 37.4932 29.6469 37.704 29.4816 37.7991L24.4155 40.7163H27.2151C27.406 40.7163 27.5606 40.8706 27.5606 41.0609C27.5606 41.2512 27.406 41.4055 27.2151 41.4055H22.1512C22.0851 41.4068 22.0187 41.4068 21.9518 41.4055H3.60501C3.41418 41.4055 3.25949 41.2512 3.25949 41.0609C3.25949 40.8706 3.41418 40.7163 3.605 40.7163L19.1775 40.7163C18.109 40.2385 17.0065 39.5268 15.9178 38.6266C13.7596 36.8422 11.6114 34.2811 9.82467 31.1947C7.70381 27.5309 6.4789 23.7943 6.22494 20.7049C5.97337 17.6447 6.67109 15.0871 8.57555 13.9905L13.9184 10.9139C14.0836 10.8188 14.2949 10.8752 14.3904 11.0401C14.4858 11.2049 14.4291 11.4156 14.2639 11.5108L8.92106 14.5873C7.38297 15.473 6.66735 17.6525 6.91365 20.6486ZM8.09669 42.172C8.09669 41.9817 8.25138 41.8274 8.4422 41.8274H31.3613C31.5521 41.8274 31.7068 41.9817 31.7068 42.172C31.7068 42.3623 31.5521 42.5166 31.3613 42.5166L8.4422 42.5166C8.25138 42.5166 8.09669 42.3623 8.09669 42.172Z" fill="#120136"/>
<path d="M40.0368 38.1952C38.9769 38.1952 38.1228 37.878 37.4744 37.2438C36.8385 36.5971 36.5205 35.7452 36.5205 34.6881V28.3269C36.5205 27.2574 36.8385 26.4118 37.4744 25.7899C38.1228 25.1557 38.9769 24.8386 40.0368 24.8386C41.1092 24.8386 41.9696 25.1557 42.618 25.7899C43.2664 26.4118 43.5906 27.2574 43.5906 28.3269V28.5508C43.5906 28.613 43.5656 28.6689 43.5157 28.7187C43.4783 28.7684 43.4285 28.7933 43.3661 28.7933L41.6267 28.8679C41.477 28.8679 41.4022 28.7933 41.4022 28.6441V28.1777C41.4022 27.7424 41.2775 27.388 41.0281 27.1144C40.7788 26.8408 40.4483 26.704 40.0368 26.704C39.6378 26.704 39.3136 26.8408 39.0642 27.1144C38.8148 27.388 38.6902 27.7424 38.6902 28.1777V34.856C38.6902 35.2913 38.8148 35.6457 39.0642 35.9193C39.3136 36.1929 39.6378 36.3297 40.0368 36.3297C40.4483 36.3297 40.7788 36.1929 41.0281 35.9193C41.2775 35.6457 41.4022 35.2913 41.4022 34.856V34.3896C41.4022 34.3275 41.4209 34.2777 41.4583 34.2404C41.5082 34.1907 41.5643 34.1658 41.6267 34.1658L43.3661 34.2404C43.4285 34.2404 43.4783 34.2653 43.5157 34.315C43.5656 34.3523 43.5906 34.4021 43.5906 34.4643V34.6881C43.5906 35.7452 43.2664 36.5971 42.618 37.2438C41.9696 37.878 41.1092 38.1952 40.0368 38.1952Z" fill="#120136"/>
<path d="M48.5694 38.1952C47.5345 38.1952 46.7178 37.9216 46.1192 37.3744C45.5332 36.8272 45.2402 36.0872 45.2402 35.1545V31.4049C45.2402 30.4846 45.5394 29.7509 46.1379 29.2037C46.7365 28.6441 47.547 28.3643 48.5694 28.3643C49.6044 28.3643 50.4211 28.6441 51.0196 29.2037C51.6182 29.7509 51.9174 30.4846 51.9174 31.4049V35.1545C51.9174 36.0872 51.6182 36.8272 51.0196 37.3744C50.4336 37.9216 49.6169 38.1952 48.5694 38.1952ZM48.5694 36.3111C48.9186 36.3111 49.1991 36.1929 49.4111 35.9566C49.6356 35.7079 49.7478 35.3846 49.7478 34.9866V31.5542C49.7478 31.1686 49.6356 30.8515 49.4111 30.6028C49.1991 30.3541 48.9186 30.2297 48.5694 30.2297C48.2203 30.2297 47.9397 30.3541 47.7278 30.6028C47.5158 30.8391 47.4098 31.1562 47.4098 31.5542V34.9866C47.4098 35.3846 47.5158 35.7079 47.7278 35.9566C47.9397 36.1929 48.2203 36.3111 48.5694 36.3111Z" fill="#120136"/>
<path d="M58.1578 28.7373C58.1578 28.6752 58.1765 28.6254 58.2139 28.5881C58.2638 28.5384 58.3199 28.5135 58.3822 28.5135H60.103C60.1653 28.5135 60.2152 28.5384 60.2526 28.5881C60.3025 28.6254 60.3274 28.6752 60.3274 28.7373V37.8221C60.3274 37.8842 60.3025 37.9402 60.2526 37.99C60.2152 38.0273 60.1653 38.0459 60.103 38.0459H58.3822C58.3199 38.0459 58.2638 38.0273 58.2139 37.99C58.1765 37.9402 58.1578 37.8842 58.1578 37.8221V37.4117C58.1578 37.3744 58.1453 37.3495 58.1204 37.3371C58.0954 37.3246 58.0705 37.3371 58.0456 37.3744C57.684 37.9091 57.1041 38.1765 56.3061 38.1765C55.5455 38.1765 54.9283 37.9526 54.4544 37.5049C53.9931 37.0448 53.7624 36.3421 53.7624 35.397V28.7373C53.7624 28.6752 53.7811 28.6254 53.8185 28.5881C53.8684 28.5384 53.9245 28.5135 53.9868 28.5135H55.7076C55.7699 28.5135 55.8198 28.5384 55.8572 28.5881C55.9071 28.6254 55.932 28.6752 55.932 28.7373V34.9306C55.932 35.8633 56.2936 36.3297 57.0169 36.3297C57.3785 36.3297 57.659 36.1991 57.8585 35.938C58.058 35.6644 58.1578 35.2975 58.1578 34.8374V28.7373Z" fill="#120136"/>
<path d="M66.5086 28.3643C67.3191 28.3643 67.9301 28.6379 68.3416 29.1851C68.7656 29.7198 68.9775 30.4846 68.9775 31.4795V37.8221C68.9775 37.8842 68.9526 37.9402 68.9027 37.99C68.8653 38.0273 68.8154 38.0459 68.7531 38.0459H67.0323C66.97 38.0459 66.9139 38.0273 66.864 37.99C66.8266 37.9402 66.8079 37.8842 66.8079 37.8221V31.6474C66.8079 31.1997 66.7144 30.8515 66.5273 30.6028C66.3403 30.3541 66.0722 30.2297 65.7231 30.2297C65.3615 30.2297 65.0809 30.3603 64.8814 30.6214C64.6819 30.8826 64.5821 31.2433 64.5821 31.7034V37.8221C64.5821 37.8842 64.5572 37.9402 64.5073 37.99C64.4699 38.0273 64.42 38.0459 64.3577 38.0459H62.6369C62.5746 38.0459 62.5185 38.0273 62.4686 37.99C62.4312 37.9402 62.4125 37.8842 62.4125 37.8221V28.7373C62.4125 28.6752 62.4312 28.6254 62.4686 28.5881C62.5185 28.5384 62.5746 28.5135 62.6369 28.5135H64.3577C64.42 28.5135 64.4699 28.5384 64.5073 28.5881C64.5572 28.6254 64.5821 28.6752 64.5821 28.7373V29.1104C64.5821 29.1477 64.5946 29.1726 64.6195 29.1851C64.6569 29.1851 64.6943 29.1602 64.7318 29.1104C65.1557 28.613 65.748 28.3643 66.5086 28.3643Z" fill="#120136"/>
<path d="M75.0086 29.8193C75.0086 29.8815 74.9837 29.9374 74.9338 29.9872C74.8964 30.0245 74.8465 30.0432 74.7842 30.0432H73.6246C73.5622 30.0432 73.531 30.0742 73.531 30.1364V35.0239C73.531 35.4592 73.6121 35.7639 73.7742 35.938C73.9363 36.0996 74.1794 36.1743 74.5036 36.1618H74.6346C74.6969 36.1618 74.7468 36.1867 74.7842 36.2364C74.8341 36.2737 74.859 36.3235 74.859 36.3857V37.8221C74.859 37.8842 74.8341 37.9402 74.7842 37.99C74.7468 38.0273 74.6969 38.0459 74.6346 38.0459H73.9986C73.1507 38.0459 72.5086 37.8905 72.0721 37.5796C71.6482 37.2687 71.4362 36.6841 71.4362 35.826V30.1364C71.4362 30.0742 71.405 30.0432 71.3427 30.0432H70.6881C70.6257 30.0432 70.5696 30.0245 70.5197 29.9872C70.4823 29.9374 70.4636 29.8815 70.4636 29.8193V28.7373C70.4636 28.6752 70.4823 28.6254 70.5197 28.5881C70.5696 28.5384 70.6257 28.5135 70.6881 28.5135H71.3427C71.405 28.5135 71.4362 28.4824 71.4362 28.4202V26.3682C71.4362 26.306 71.4549 26.2563 71.4923 26.219C71.5422 26.1692 71.5983 26.1444 71.6607 26.1444H73.3066C73.3689 26.1444 73.4188 26.1692 73.4562 26.219C73.5061 26.2563 73.531 26.306 73.531 26.3682V28.4202C73.531 28.4824 73.5622 28.5135 73.6246 28.5135H74.7842C74.8465 28.5135 74.8964 28.5384 74.9338 28.5881C74.9837 28.6254 75.0086 28.6752 75.0086 28.7373V29.8193Z" fill="#120136"/>
<path d="M87.4546 26.6294C87.4546 26.6916 87.4297 26.7475 87.3798 26.7973C87.3424 26.8346 87.2925 26.8532 87.2301 26.8532H83.1901C83.1278 26.8532 83.0966 26.8843 83.0966 26.9465V30.4722C83.0966 30.5344 83.1278 30.5655 83.1901 30.5655H85.5842C85.6466 30.5655 85.6964 30.5904 85.7338 30.6401C85.7837 30.6774 85.8086 30.7272 85.8086 30.7893V32.2257C85.8086 32.2879 85.7837 32.3439 85.7338 32.3936C85.6964 32.4309 85.6466 32.4496 85.5842 32.4496H83.1901C83.1278 32.4496 83.0966 32.4807 83.0966 32.5429V36.0872C83.0966 36.1494 83.1278 36.1805 83.1901 36.1805H87.2301C87.2925 36.1805 87.3424 36.2053 87.3798 36.2551C87.4297 36.2924 87.4546 36.3421 87.4546 36.4043V37.8221C87.4546 37.8842 87.4297 37.9402 87.3798 37.99C87.3424 38.0273 87.2925 38.0459 87.2301 38.0459H81.1514C81.089 38.0459 81.0329 38.0273 80.9831 37.99C80.9457 37.9402 80.9269 37.8842 80.9269 37.8221V25.2117C80.9269 25.1495 80.9457 25.0997 80.9831 25.0624C81.0329 25.0127 81.089 24.9878 81.1514 24.9878H87.2301C87.2925 24.9878 87.3424 25.0127 87.3798 25.0624C87.4297 25.0997 87.4546 25.1495 87.4546 25.2117V26.6294Z" fill="#120136"/>
<path d="M91.3182 38.0459C91.1811 38.0459 91.0938 37.9837 91.0564 37.8594L88.7745 28.7373V28.6627C88.7745 28.5508 88.8431 28.4948 88.9803 28.4948H90.8881C91.0377 28.4948 91.1187 28.5632 91.1312 28.7L92.2534 34.5016C92.2659 34.5389 92.2846 34.5575 92.3096 34.5575C92.3345 34.5575 92.3532 34.5389 92.3657 34.5016L93.4692 28.7C93.4817 28.5632 93.5627 28.4948 93.7123 28.4948L95.6201 28.5321C95.7947 28.5321 95.8633 28.613 95.8259 28.7747L93.5627 37.8594C93.5253 37.9837 93.438 38.0459 93.3009 38.0459H91.3182Z" fill="#120136"/>
<path d="M103.651 33.8487C103.651 33.9108 103.626 33.9668 103.576 34.0166C103.538 34.0539 103.488 34.0725 103.426 34.0725H99.2925C99.2302 34.0725 99.199 34.1036 99.199 34.1658V35.0052C99.199 35.3908 99.305 35.7079 99.517 35.9566C99.7289 36.2053 100.003 36.3297 100.34 36.3297C100.627 36.3297 100.87 36.2427 101.069 36.0685C101.281 35.882 101.419 35.6457 101.481 35.3597C101.518 35.2353 101.599 35.1731 101.724 35.1731L103.389 35.2478C103.451 35.2478 103.501 35.2726 103.538 35.3224C103.588 35.3597 103.607 35.4156 103.594 35.4903C103.507 36.3608 103.189 37.0324 102.641 37.5049C102.092 37.9651 101.325 38.1952 100.34 38.1952C99.3175 38.1952 98.507 37.9278 97.9084 37.393C97.3224 36.8458 97.0294 36.1059 97.0294 35.1731V31.3863C97.0294 30.4784 97.3224 29.7509 97.9084 29.2037C98.507 28.6441 99.3175 28.3643 100.34 28.3643C101.362 28.3643 102.167 28.6441 102.753 29.2037C103.351 29.7509 103.651 30.4784 103.651 31.3863V33.8487ZM100.34 30.2297C100.003 30.2297 99.7289 30.3541 99.517 30.6028C99.305 30.8515 99.199 31.1686 99.199 31.5542V32.3936C99.199 32.4558 99.2302 32.4869 99.2925 32.4869H101.406C101.468 32.4869 101.5 32.4558 101.5 32.3936V31.5542C101.5 31.1562 101.394 30.8391 101.182 30.6028C100.97 30.3541 100.689 30.2297 100.34 30.2297Z" fill="#120136"/>
<path d="M109.426 28.4016C109.763 28.4016 110.024 28.4637 110.211 28.5881C110.311 28.6503 110.349 28.7436 110.324 28.8679L110.024 30.6028C110.012 30.752 109.925 30.7956 109.763 30.7334C109.588 30.6836 109.426 30.6588 109.276 30.6588C109.127 30.6588 108.989 30.6774 108.865 30.7147C108.516 30.7645 108.229 30.9634 108.004 31.3117C107.792 31.6474 107.686 32.0516 107.686 32.5242V37.8034C107.686 37.8656 107.662 37.9216 107.612 37.9713C107.574 38.0086 107.524 38.0273 107.462 38.0273H105.741C105.679 38.0273 105.623 38.0086 105.573 37.9713C105.536 37.9216 105.517 37.8656 105.517 37.8034V28.7373C105.517 28.6752 105.536 28.6254 105.573 28.5881C105.623 28.5384 105.679 28.5135 105.741 28.5135H107.462C107.524 28.5135 107.574 28.5384 107.612 28.5881C107.662 28.6254 107.686 28.6752 107.686 28.7373V29.5954C107.686 29.6452 107.699 29.6763 107.724 29.6887C107.749 29.6887 107.768 29.6638 107.78 29.6141C108.117 28.8057 108.665 28.4016 109.426 28.4016Z" fill="#120136"/>
<path d="M111.788 41.7582C111.763 41.7582 111.738 41.7333 111.713 41.6835C111.688 41.6462 111.676 41.5965 111.676 41.5343V40.1912C111.676 40.129 111.694 40.073 111.732 40.0233C111.769 39.986 111.813 39.9673 111.863 39.9673C112.274 39.9549 112.599 39.8989 112.835 39.7994C113.072 39.7124 113.259 39.5321 113.397 39.2585C113.546 38.9973 113.652 38.6118 113.715 38.1019L113.696 37.99L111.339 28.7373V28.6627C111.339 28.5508 111.408 28.4948 111.545 28.4948H113.378C113.527 28.4948 113.609 28.5632 113.621 28.7L114.762 34.8747C114.774 34.912 114.793 34.9306 114.818 34.9306C114.843 34.9306 114.862 34.912 114.874 34.8747L115.978 28.7C115.99 28.5632 116.071 28.4948 116.221 28.4948L118.072 28.5321C118.247 28.5321 118.316 28.613 118.278 28.7747L115.772 38.5682C115.535 39.4512 115.286 40.1103 115.024 40.5456C114.762 40.9809 114.394 41.2918 113.92 41.4783C113.446 41.6649 112.767 41.7582 111.882 41.7582H111.788Z" fill="#120136"/>
<path d="M127.808 24.9691C128.469 24.9691 129.049 25.1308 129.548 25.4542C130.059 25.7775 130.452 26.2314 130.726 26.8159C131.013 27.4004 131.156 28.0658 131.156 28.812C131.156 29.9312 130.857 30.8329 130.258 31.5169C129.672 32.2009 128.893 32.5429 127.92 32.5429H126.331C126.268 32.5429 126.237 32.5739 126.237 32.6361V37.8221C126.237 37.8842 126.212 37.9402 126.162 37.99C126.125 38.0273 126.075 38.0459 126.013 38.0459H124.292C124.229 38.0459 124.173 38.0273 124.123 37.99C124.086 37.9402 124.067 37.8842 124.067 37.8221V25.193C124.067 25.1308 124.086 25.0811 124.123 25.0438C124.173 24.994 124.229 24.9691 124.292 24.9691H127.808ZM127.453 30.8453C127.914 30.8453 128.282 30.6712 128.556 30.323C128.843 29.9623 128.986 29.4773 128.986 28.8679C128.986 28.2461 128.843 27.7549 128.556 27.3942C128.282 27.0211 127.914 26.8346 127.453 26.8346H126.331C126.268 26.8346 126.237 26.8657 126.237 26.9279V30.752C126.237 30.8142 126.268 30.8453 126.331 30.8453H127.453Z" fill="#120136"/>
<path d="M139.33 33.8487C139.33 33.9108 139.305 33.9668 139.255 34.0166C139.218 34.0539 139.168 34.0725 139.106 34.0725H134.972C134.91 34.0725 134.879 34.1036 134.879 34.1658V35.0052C134.879 35.3908 134.985 35.7079 135.197 35.9566C135.409 36.2053 135.683 36.3297 136.02 36.3297C136.307 36.3297 136.55 36.2427 136.749 36.0685C136.961 35.882 137.098 35.6457 137.161 35.3597C137.198 35.2353 137.279 35.1731 137.404 35.1731L139.068 35.2478C139.131 35.2478 139.181 35.2726 139.218 35.3224C139.268 35.3597 139.287 35.4156 139.274 35.4903C139.187 36.3608 138.869 37.0324 138.32 37.5049C137.772 37.9651 137.005 38.1952 136.02 38.1952C134.997 38.1952 134.187 37.9278 133.588 37.393C133.002 36.8458 132.709 36.1059 132.709 35.1731V31.3863C132.709 30.4784 133.002 29.7509 133.588 29.2037C134.187 28.6441 134.997 28.3643 136.02 28.3643C137.042 28.3643 137.846 28.6441 138.433 29.2037C139.031 29.7509 139.33 30.4784 139.33 31.3863V33.8487ZM136.02 30.2297C135.683 30.2297 135.409 30.3541 135.197 30.6028C134.985 30.8515 134.879 31.1686 134.879 31.5542V32.3936C134.879 32.4558 134.91 32.4869 134.972 32.4869H137.086C137.148 32.4869 137.179 32.4558 137.179 32.3936V31.5542C137.179 31.1562 137.073 30.8391 136.861 30.6028C136.649 30.3541 136.369 30.2297 136.02 30.2297Z" fill="#120136"/>
<path d="M145.293 28.3643C146.103 28.3643 146.714 28.6379 147.126 29.1851C147.55 29.7198 147.762 30.4846 147.762 31.4795V37.8221C147.762 37.8842 147.737 37.9402 147.687 37.99C147.649 38.0273 147.6 38.0459 147.537 38.0459H145.816C145.754 38.0459 145.698 38.0273 145.648 37.99C145.611 37.9402 145.592 37.8842 145.592 37.8221V31.6474C145.592 31.1997 145.498 30.8515 145.311 30.6028C145.124 30.3541 144.856 30.2297 144.507 30.2297C144.146 30.2297 143.865 30.3603 143.665 30.6214C143.466 30.8826 143.366 31.2433 143.366 31.7034V37.8221C143.366 37.8842 143.341 37.9402 143.291 37.99C143.254 38.0273 143.204 38.0459 143.142 38.0459H141.421C141.359 38.0459 141.303 38.0273 141.253 37.99C141.215 37.9402 141.197 37.8842 141.197 37.8221V28.7373C141.197 28.6752 141.215 28.6254 141.253 28.5881C141.303 28.5384 141.359 28.5135 141.421 28.5135H143.142C143.204 28.5135 143.254 28.5384 143.291 28.5881C143.341 28.6254 143.366 28.6752 143.366 28.7373V29.1104C143.366 29.1477 143.379 29.1726 143.404 29.1851C143.441 29.1851 143.478 29.1602 143.516 29.1104C143.94 28.613 144.532 28.3643 145.293 28.3643Z" fill="#120136"/>
<path d="M153.886 28.3643C154.697 28.3643 155.308 28.6379 155.719 29.1851C156.143 29.7198 156.355 30.4846 156.355 31.4795V37.8221C156.355 37.8842 156.33 37.9402 156.28 37.99C156.243 38.0273 156.193 38.0459 156.131 38.0459H154.41C154.348 38.0459 154.292 38.0273 154.242 37.99C154.204 37.9402 154.186 37.8842 154.186 37.8221V31.6474C154.186 31.1997 154.092 30.8515 153.905 30.6028C153.718 30.3541 153.45 30.2297 153.101 30.2297C152.739 30.2297 152.459 30.3603 152.259 30.6214C152.06 30.8826 151.96 31.2433 151.96 31.7034V37.8221C151.96 37.8842 151.935 37.9402 151.885 37.99C151.848 38.0273 151.798 38.0459 151.735 38.0459H150.015C149.952 38.0459 149.896 38.0273 149.846 37.99C149.809 37.9402 149.79 37.8842 149.79 37.8221V28.7373C149.79 28.6752 149.809 28.6254 149.846 28.5881C149.896 28.5384 149.952 28.5135 150.015 28.5135H151.735C151.798 28.5135 151.848 28.5384 151.885 28.5881C151.935 28.6254 151.96 28.6752 151.96 28.7373V29.1104C151.96 29.1477 151.972 29.1726 151.997 29.1851C152.035 29.1851 152.072 29.1602 152.109 29.1104C152.533 28.613 153.126 28.3643 153.886 28.3643Z" fill="#120136"/>
<path d="M158.162 41.7582C158.137 41.7582 158.112 41.7333 158.087 41.6835C158.062 41.6462 158.05 41.5965 158.05 41.5343V40.1912C158.05 40.129 158.068 40.073 158.106 40.0233C158.143 39.986 158.187 39.9673 158.237 39.9673C158.648 39.9549 158.972 39.8989 159.209 39.7994C159.446 39.7124 159.633 39.5321 159.77 39.2585C159.92 38.9973 160.026 38.6118 160.088 38.1019L160.07 37.99L157.713 28.7373V28.6627C157.713 28.5508 157.782 28.4948 157.919 28.4948H159.752C159.901 28.4948 159.982 28.5632 159.995 28.7L161.136 34.8747C161.148 34.912 161.167 34.9306 161.192 34.9306C161.217 34.9306 161.236 34.912 161.248 34.8747L162.352 28.7C162.364 28.5632 162.445 28.4948 162.595 28.4948L164.446 28.5321C164.621 28.5321 164.689 28.613 164.652 28.7747L162.146 38.5682C161.909 39.4512 161.659 40.1103 161.398 40.5456C161.136 40.9809 160.768 41.2918 160.294 41.4783C159.82 41.6649 159.141 41.7582 158.255 41.7582H158.162Z" fill="#120136"/>
</svg>
