<svg width="150" height="30" viewBox="0 0 150 30" fill="none" xmlns="http://www.w3.org/2000/svg">
<path d="M22.2458 12.2216L17.4639 11.5266L15.3263 7.19297C15.2679 7.07432 15.1718 6.97827 15.0532 6.91989C14.7556 6.77298 14.394 6.8954 14.2452 7.19297L12.1076 11.5266L7.3257 12.2216C7.19386 12.2404 7.07332 12.3026 6.98104 12.3967C6.86947 12.5114 6.80799 12.6657 6.81011 12.8256C6.81223 12.9856 6.87777 13.1382 6.99234 13.2499L10.4521 16.623L9.63471 21.3861C9.61554 21.4969 9.6278 21.6108 9.6701 21.715C9.7124 21.8192 9.78305 21.9094 9.87403 21.9755C9.96501 22.0416 10.0727 22.0808 10.1848 22.0888C10.297 22.0968 10.4092 22.0733 10.5086 22.0208L14.7857 19.772L19.0629 22.0208C19.1796 22.0829 19.3152 22.1036 19.4452 22.081C19.7729 22.0245 19.9932 21.7138 19.9367 21.3861L19.1194 16.623L22.5791 13.2499C22.6733 13.1576 22.7354 13.0371 22.7543 12.9052C22.8051 12.5756 22.5753 12.2705 22.2458 12.2216Z" fill="#FCBF1E"/>
<path d="M52.2458 12.2216L47.4639 11.5266L45.3263 7.19297C45.2679 7.07432 45.1718 6.97827 45.0532 6.91989C44.7556 6.77298 44.394 6.8954 44.2452 7.19297L42.1076 11.5266L37.3257 12.2216C37.1939 12.2404 37.0733 12.3026 36.981 12.3967C36.8695 12.5114 36.808 12.6657 36.8101 12.8256C36.8122 12.9856 36.8778 13.1382 36.9923 13.2499L40.4521 16.623L39.6347 21.3861C39.6155 21.4969 39.6278 21.6108 39.6701 21.715C39.7124 21.8192 39.783 21.9094 39.874 21.9755C39.965 22.0416 40.0727 22.0808 40.1848 22.0888C40.297 22.0968 40.4092 22.0733 40.5086 22.0208L44.7857 19.772L49.0629 22.0208C49.1796 22.0829 49.3152 22.1036 49.4452 22.081C49.7729 22.0245 49.9932 21.7138 49.9367 21.3861L49.1194 16.623L52.5791 13.2499C52.6733 13.1576 52.7354 13.0371 52.7543 12.9052C52.8051 12.5756 52.5753 12.2705 52.2458 12.2216Z" fill="#FCBF1E"/>
<path d="M82.2458 12.2216L77.4639 11.5266L75.3263 7.19297C75.2679 7.07432 75.1718 6.97827 75.0532 6.91989C74.7556 6.77298 74.394 6.8954 74.2452 7.19297L72.1076 11.5266L67.3257 12.2216C67.1939 12.2404 67.0733 12.3026 66.981 12.3967C66.8695 12.5114 66.808 12.6657 66.8101 12.8256C66.8122 12.9856 66.8778 13.1382 66.9923 13.2499L70.4521 16.623L69.6347 21.3861C69.6155 21.4969 69.6278 21.6108 69.6701 21.715C69.7124 21.8192 69.783 21.9094 69.874 21.9755C69.965 22.0416 70.0727 22.0808 70.1848 22.0888C70.297 22.0968 70.4092 22.0733 70.5086 22.0208L74.7857 19.772L79.0629 22.0208C79.1796 22.0829 79.3152 22.1036 79.4452 22.081C79.7729 22.0245 79.9932 21.7138 79.9367 21.3861L79.1194 16.623L82.5791 13.2499C82.6733 13.1576 82.7354 13.0371 82.7543 12.9052C82.8051 12.5756 82.5753 12.2705 82.2458 12.2216Z" fill="#FCBF1E"/>
<path d="M112.246 12.2216L107.464 11.5266L105.326 7.19297C105.268 7.07432 105.172 6.97827 105.053 6.91989C104.756 6.77298 104.394 6.8954 104.245 7.19297L102.108 11.5266L97.3257 12.2216C97.1939 12.2404 97.0733 12.3026 96.981 12.3967C96.8695 12.5114 96.808 12.6657 96.8101 12.8256C96.8122 12.9856 96.8778 13.1382 96.9923 13.2499L100.452 16.623L99.6347 21.3861C99.6155 21.4969 99.6278 21.6108 99.6701 21.715C99.7124 21.8192 99.783 21.9094 99.874 21.9755C99.965 22.0416 100.073 22.0808 100.185 22.0888C100.297 22.0968 100.409 22.0733 100.509 22.0208L104.786 19.772L109.063 22.0208C109.18 22.0829 109.315 22.1036 109.445 22.081C109.773 22.0245 109.993 21.7138 109.937 21.3861L109.119 16.623L112.579 13.2499C112.673 13.1576 112.735 13.0371 112.754 12.9052C112.805 12.5756 112.575 12.2705 112.246 12.2216Z" fill="#FCBF1E"/>
<path d="M142.246 12.2216L137.464 11.5266L135.326 7.19297C135.268 7.07432 135.172 6.97827 135.053 6.91989C134.756 6.77298 134.394 6.8954 134.245 7.19297L132.108 11.5266L127.326 12.2216C127.194 12.2404 127.073 12.3026 126.981 12.3967C126.869 12.5114 126.808 12.6657 126.81 12.8256C126.812 12.9856 126.878 13.1382 126.992 13.2499L130.452 16.623L129.635 21.3861C129.616 21.4969 129.628 21.6108 129.67 21.715C129.712 21.8192 129.783 21.9094 129.874 21.9755C129.965 22.0416 130.073 22.0808 130.185 22.0888C130.297 22.0968 130.409 22.0733 130.509 22.0208L134.786 19.772L139.063 22.0208C139.18 22.0829 139.315 22.1036 139.445 22.081C139.773 22.0245 139.993 21.7138 139.937 21.3861L139.119 16.623L142.579 13.2499C142.673 13.1576 142.735 13.0371 142.754 12.9052C142.805 12.5756 142.575 12.2705 142.246 12.2216Z" fill="#FCBF1E"/>
</svg>
