<svg width="197" height="30" viewBox="0 0 197 30" fill="none" xmlns="http://www.w3.org/2000/svg">
<path d="M7.87759 24.3497V21.0077H0V18.0635L8.56721 5.65034H11.9092V17.7717H14.4555V21.0077H11.9092V24.3497H7.87759ZM7.87759 17.7717V11.6713L3.73986 17.7717H7.87759Z" fill="#1D2C4C"/>
<path d="M16.2488 24.3497V20.1058H20.5456V24.3497H16.2488Z" fill="#1D2C4C"/>
<path d="M29.7962 24.6414C27.5682 24.6414 25.8265 24.1728 24.571 23.2357C23.3156 22.2808 22.6878 20.9546 22.6878 19.2571C22.6878 18.1608 22.9619 17.2147 23.5101 16.419C24.0759 15.6233 24.8186 15.0575 25.7381 14.7215C24.9601 14.3325 24.3323 13.7666 23.8549 13.024C23.3952 12.2636 23.1653 11.406 23.1653 10.4512C23.1653 8.85973 23.7576 7.61311 24.9424 6.7113C26.1448 5.80949 27.7627 5.35858 29.7962 5.35858C31.8297 5.35858 33.4477 5.80949 34.6501 6.7113C35.8525 7.61311 36.4537 8.85973 36.4537 10.4512C36.4537 11.4237 36.215 12.2902 35.7376 13.0505C35.2778 13.8109 34.659 14.3679 33.8809 14.7215C34.8004 15.0752 35.5342 15.6498 36.0824 16.4456C36.6306 17.2413 36.9046 18.1784 36.9046 19.2571C36.9046 20.9546 36.2769 22.2808 35.0214 23.2357C33.766 24.1728 32.0243 24.6414 29.7962 24.6414ZM29.7962 13.3157C30.6981 13.3157 31.3965 13.1035 31.8916 12.6792C32.4044 12.2371 32.6608 11.6447 32.6608 10.9021C32.6608 10.1594 32.4044 9.57588 31.8916 9.15149C31.3965 8.72711 30.6981 8.51492 29.7962 8.51492C28.8944 8.51492 28.196 8.72711 27.7009 9.15149C27.2057 9.57588 26.9582 10.1594 26.9582 10.9021C26.9582 11.6447 27.2057 12.2371 27.7009 12.6792C28.196 13.1035 28.8944 13.3157 29.7962 13.3157ZM29.7962 21.4851C32.0243 21.4851 33.1383 20.6452 33.1383 18.9653C33.1383 17.3032 32.0243 16.4721 29.7962 16.4721C28.7176 16.4721 27.8865 16.6843 27.303 17.1087C26.7372 17.5154 26.4542 18.1342 26.4542 18.9653C26.4542 19.7964 26.7372 20.4241 27.303 20.8485C27.8865 21.2729 28.7176 21.4851 29.7962 21.4851Z" fill="#1D2C4C"/>
<path d="M69.1505 12.2216L64.3687 11.5266L62.231 7.19297C62.1727 7.07432 62.0766 6.97827 61.958 6.91989C61.6604 6.77298 61.2988 6.8954 61.15 7.19297L59.0124 11.5266L54.2305 12.2216C54.0986 12.2404 53.9781 12.3026 53.8858 12.3967C53.7743 12.5114 53.7128 12.6657 53.7149 12.8256C53.717 12.9856 53.7826 13.1382 53.8971 13.2499L57.3569 16.623L56.5395 21.3861C56.5203 21.4969 56.5326 21.6108 56.5749 21.715C56.6172 21.8192 56.6878 21.9094 56.7788 21.9755C56.8698 22.0416 56.9775 22.0808 57.0896 22.0888C57.2018 22.0968 57.3139 22.0733 57.4134 22.0208L61.6905 19.772L65.9676 22.0208C66.0844 22.0829 66.22 22.1036 66.35 22.081C66.6777 22.0245 66.898 21.7138 66.8415 21.3861L66.0241 16.623L69.4839 13.2499C69.5781 13.1576 69.6402 13.0371 69.6591 12.9052C69.7099 12.5756 69.4801 12.2705 69.1505 12.2216Z" fill="#EF6F2E"/>
<path d="M99.1505 12.2216L94.3687 11.5266L92.231 7.19297C92.1727 7.07432 92.0766 6.97827 91.958 6.91989C91.6604 6.77298 91.2988 6.8954 91.15 7.19297L89.0124 11.5266L84.2305 12.2216C84.0986 12.2404 83.9781 12.3026 83.8858 12.3967C83.7743 12.5114 83.7128 12.6657 83.7149 12.8256C83.717 12.9856 83.7826 13.1382 83.8971 13.2499L87.3569 16.623L86.5395 21.3861C86.5203 21.4969 86.5326 21.6108 86.5749 21.715C86.6172 21.8192 86.6878 21.9094 86.7788 21.9755C86.8698 22.0416 86.9775 22.0808 87.0896 22.0888C87.2018 22.0968 87.3139 22.0733 87.4134 22.0208L91.6905 19.772L95.9676 22.0208C96.0844 22.0829 96.22 22.1036 96.35 22.081C96.6777 22.0245 96.898 21.7138 96.8415 21.3861L96.0241 16.623L99.4839 13.2499C99.5781 13.1576 99.6402 13.0371 99.6591 12.9052C99.7099 12.5756 99.4801 12.2705 99.1505 12.2216Z" fill="#EF6F2E"/>
<path d="M129.151 12.2216L124.369 11.5266L122.231 7.19297C122.173 7.07432 122.077 6.97827 121.958 6.91989C121.66 6.77298 121.299 6.8954 121.15 7.19297L119.012 11.5266L114.23 12.2216C114.099 12.2404 113.978 12.3026 113.886 12.3967C113.774 12.5114 113.713 12.6657 113.715 12.8256C113.717 12.9856 113.783 13.1382 113.897 13.2499L117.357 16.623L116.539 21.3861C116.52 21.4969 116.533 21.6108 116.575 21.715C116.617 21.8192 116.688 21.9094 116.779 21.9755C116.87 22.0416 116.977 22.0808 117.09 22.0888C117.202 22.0968 117.314 22.0733 117.413 22.0208L121.691 19.772L125.968 22.0208C126.084 22.0829 126.22 22.1036 126.35 22.081C126.678 22.0245 126.898 21.7138 126.842 21.3861L126.024 16.623L129.484 13.2499C129.578 13.1576 129.64 13.0371 129.659 12.9052C129.71 12.5756 129.48 12.2705 129.151 12.2216Z" fill="#EF6F2E"/>
<path d="M159.151 12.2216L154.369 11.5266L152.231 7.19297C152.173 7.07432 152.077 6.97827 151.958 6.91989C151.66 6.77298 151.299 6.8954 151.15 7.19297L149.012 11.5266L144.23 12.2216C144.099 12.2404 143.978 12.3026 143.886 12.3967C143.774 12.5114 143.713 12.6657 143.715 12.8256C143.717 12.9856 143.783 13.1382 143.897 13.2499L147.357 16.623L146.539 21.3861C146.52 21.4969 146.533 21.6108 146.575 21.715C146.617 21.8192 146.688 21.9094 146.779 21.9755C146.87 22.0416 146.977 22.0808 147.09 22.0888C147.202 22.0968 147.314 22.0733 147.413 22.0208L151.691 19.772L155.968 22.0208C156.084 22.0829 156.22 22.1036 156.35 22.081C156.678 22.0245 156.898 21.7138 156.842 21.3861L156.024 16.623L159.484 13.2499C159.578 13.1576 159.64 13.0371 159.659 12.9052C159.71 12.5756 159.48 12.2705 159.151 12.2216Z" fill="#EF6F2E"/>
<path d="M189.151 12.2216L184.369 11.5266L182.231 7.19297C182.173 7.07432 182.077 6.97827 181.958 6.91989C181.66 6.77298 181.299 6.8954 181.15 7.19297L179.012 11.5266L174.23 12.2216C174.099 12.2404 173.978 12.3026 173.886 12.3967C173.774 12.5114 173.713 12.6657 173.715 12.8256C173.717 12.9856 173.783 13.1382 173.897 13.2499L177.357 16.623L176.539 21.3861C176.52 21.4969 176.533 21.6108 176.575 21.715C176.617 21.8192 176.688 21.9094 176.779 21.9755C176.87 22.0416 176.977 22.0808 177.09 22.0888C177.202 22.0968 177.314 22.0733 177.413 22.0208L181.691 19.772L185.968 22.0208C186.084 22.0829 186.22 22.1036 186.35 22.081C186.678 22.0245 186.898 21.7138 186.842 21.3861L186.024 16.623L189.484 13.2499C189.578 13.1576 189.64 13.0371 189.659 12.9052C189.71 12.5756 189.48 12.2705 189.151 12.2216Z" fill="#EF6F2E"/>
</svg>
