<svg width="67" height="30" viewBox="0 0 67 30" fill="none" xmlns="http://www.w3.org/2000/svg">
<path d="M22.2453 12.2216L17.4634 11.5266L15.3258 7.19297C15.2674 7.07432 15.1713 6.97827 15.0527 6.91989C14.7551 6.77298 14.3935 6.8954 14.2447 7.19297L12.1071 11.5266L7.32521 12.2216C7.19337 12.2404 7.07284 12.3026 6.98055 12.3967C6.86898 12.5114 6.8075 12.6657 6.80962 12.8256C6.81174 12.9856 6.87729 13.1382 6.99185 13.2499L10.4516 16.623L9.63422 21.3861C9.61505 21.4969 9.62731 21.6108 9.66961 21.715C9.71191 21.8192 9.78256 21.9094 9.87354 21.9755C9.96452 22.0416 10.0722 22.0808 10.1844 22.0888C10.2965 22.0968 10.4087 22.0733 10.5081 22.0208L14.7852 19.772L19.0624 22.0208C19.1791 22.0829 19.3147 22.1036 19.4447 22.081C19.7724 22.0245 19.9928 21.7138 19.9363 21.3861L19.1189 16.623L22.5786 13.2499C22.6728 13.1576 22.7349 13.0371 22.7538 12.9052C22.8046 12.5756 22.5749 12.2705 22.2453 12.2216Z" fill="#EF6F2E"/>
<path d="M37.8776 24.3497V21.0077H30V18.0635L38.5672 5.65034H41.9092V17.7717H44.4555V21.0077H41.9092V24.3497H37.8776ZM37.8776 17.7717V11.6713L33.7399 17.7717H37.8776Z" fill="#1D2C4C"/>
<path d="M46.2488 24.3497V20.1058H50.5456V24.3497H46.2488Z" fill="#1D2C4C"/>
<path d="M59.7962 24.6414C57.5682 24.6414 55.8265 24.1728 54.571 23.2357C53.3156 22.2808 52.6878 20.9546 52.6878 19.2571C52.6878 18.1608 52.9619 17.2147 53.5101 16.419C54.0759 15.6233 54.8186 15.0575 55.7381 14.7215C54.9601 14.3325 54.3323 13.7666 53.8549 13.024C53.3952 12.2636 53.1653 11.406 53.1653 10.4512C53.1653 8.85973 53.7576 7.61311 54.9424 6.7113C56.1448 5.80949 57.7627 5.35858 59.7962 5.35858C61.8297 5.35858 63.4477 5.80949 64.6501 6.7113C65.8525 7.61311 66.4537 8.85973 66.4537 10.4512C66.4537 11.4237 66.215 12.2902 65.7376 13.0505C65.2778 13.8109 64.659 14.3679 63.8809 14.7215C64.8004 15.0752 65.5342 15.6498 66.0824 16.4456C66.6306 17.2413 66.9046 18.1784 66.9046 19.2571C66.9046 20.9546 66.2769 22.2808 65.0214 23.2357C63.766 24.1728 62.0243 24.6414 59.7962 24.6414ZM59.7962 13.3157C60.6981 13.3157 61.3965 13.1035 61.8916 12.6792C62.4044 12.2371 62.6608 11.6447 62.6608 10.9021C62.6608 10.1594 62.4044 9.57588 61.8916 9.15149C61.3965 8.72711 60.6981 8.51492 59.7962 8.51492C58.8944 8.51492 58.196 8.72711 57.7009 9.15149C57.2057 9.57588 56.9582 10.1594 56.9582 10.9021C56.9582 11.6447 57.2057 12.2371 57.7009 12.6792C58.196 13.1035 58.8944 13.3157 59.7962 13.3157ZM59.7962 21.4851C62.0243 21.4851 63.1383 20.6452 63.1383 18.9653C63.1383 17.3032 62.0243 16.4721 59.7962 16.4721C58.7176 16.4721 57.8865 16.6843 57.303 17.1087C56.7372 17.5154 56.4542 18.1342 56.4542 18.9653C56.4542 19.7964 56.7372 20.4241 57.303 20.8485C57.8865 21.2729 58.7176 21.4851 59.7962 21.4851Z" fill="#1D2C4C"/>
</svg>
