<svg width="24" height="24" viewBox="0 0 24 24" fill="none" xmlns="http://www.w3.org/2000/svg">
<g clip-path="url(#clip0)">
<path fill-rule="evenodd" clip-rule="evenodd" d="M15.0998 1.30517C14.696 0.891982 14.2138 0.563662 13.6813 0.339505C13.1489 0.115349 12.577 -0.00012207 11.9993 -0.00012207C11.4216 -0.00012207 10.8497 0.115349 10.3173 0.339505C9.78481 0.563662 9.30254 0.891982 8.89878 1.30517L7.96578 2.26217L6.63078 2.24567C6.05291 2.23883 5.4795 2.34761 4.94427 2.5656C4.40905 2.7836 3.92282 3.10641 3.51417 3.51506C3.10552 3.92371 2.78271 4.40994 2.56471 4.94516C2.34672 5.48039 2.23794 6.0538 2.24478 6.63167L2.25978 7.96667L1.30578 8.89967C0.892592 9.30343 0.564272 9.7857 0.340116 10.3181C0.115959 10.8506 0.000488281 11.4225 0.000488281 12.0002C0.000488281 12.5779 0.115959 13.1498 0.340116 13.6822C0.564272 14.2146 0.892592 14.6969 1.30578 15.1007L2.26128 16.0337L2.24478 17.3687C2.23794 17.9466 2.34672 18.52 2.56471 19.0552C2.78271 19.5904 3.10552 20.0766 3.51417 20.4853C3.92282 20.8939 4.40905 21.2167 4.94427 21.4347C5.4795 21.6527 6.05291 21.7615 6.63078 21.7547L7.96578 21.7397L8.89878 22.6937C9.30254 23.1069 9.78481 23.4352 10.3173 23.6593C10.8497 23.8835 11.4216 23.999 11.9993 23.999C12.577 23.999 13.1489 23.8835 13.6813 23.6593C14.2138 23.4352 14.696 23.1069 15.0998 22.6937L16.0328 21.7382L17.3678 21.7547C17.9457 21.7615 18.5191 21.6527 19.0543 21.4347C19.5895 21.2167 20.0757 20.8939 20.4844 20.4853C20.893 20.0766 21.2159 19.5904 21.4339 19.0552C21.6518 18.52 21.7606 17.9466 21.7538 17.3687L21.7388 16.0337L22.6928 15.1007C23.106 14.6969 23.4343 14.2146 23.6584 13.6822C23.8826 13.1498 23.9981 12.5779 23.9981 12.0002C23.9981 11.4225 23.8826 10.8506 23.6584 10.3181C23.4343 9.7857 23.106 9.30343 22.6928 8.89967L21.7373 7.96667L21.7538 6.63167C21.7606 6.0538 21.6518 5.48039 21.4339 4.94516C21.2159 4.40994 20.893 3.92371 20.4844 3.51506C20.0757 3.10641 19.5895 2.7836 19.0543 2.5656C18.5191 2.34761 17.9457 2.23883 17.3678 2.24567L16.0328 2.26067L15.0998 1.30667V1.30517ZM15.5303 10.2812C15.6711 10.1403 15.7502 9.94934 15.7502 9.75017C15.7502 9.55101 15.6711 9.36 15.5303 9.21917C15.3895 9.07834 15.1984 8.99922 14.9993 8.99922C14.8001 8.99922 14.6091 9.07834 14.4683 9.21917L10.4993 13.1897L8.78028 11.4692C8.71055 11.3994 8.62777 11.3441 8.53666 11.3064C8.44555 11.2686 8.3479 11.2492 8.24928 11.2492C8.15067 11.2492 8.05302 11.2686 7.96191 11.3064C7.8708 11.3441 7.78801 11.3994 7.71828 11.4692C7.64855 11.5389 7.59324 11.6217 7.5555 11.7128C7.51776 11.8039 7.49833 11.9016 7.49833 12.0002C7.49833 12.0988 7.51776 12.1964 7.5555 12.2875C7.59324 12.3787 7.64855 12.4614 7.71828 12.5312L9.96828 14.7812C10.038 14.851 10.1207 14.9064 10.2118 14.9442C10.3029 14.9821 10.4006 15.0015 10.4993 15.0015C10.5979 15.0015 10.6956 14.9821 10.7867 14.9442C10.8779 14.9064 10.9606 14.851 11.0303 14.7812L15.5303 10.2812Z" fill="#F09020"/>
</g>
<defs>
<clipPath id="clip0">
<rect width="24" height="24" fill="white"/>
</clipPath>
</defs>
</svg>
