<svg width="26" height="36" viewBox="0 0 26 36" fill="none" xmlns="http://www.w3.org/2000/svg">
<path fill-rule="evenodd" clip-rule="evenodd" d="M1.75 0.5C2.08152 0.5 2.39946 0.631696 2.63388 0.866116C2.8683 1.10054 3 1.41848 3 1.75V34.25C3 34.5815 2.8683 34.8995 2.63388 35.1339C2.39946 35.3683 2.08152 35.5 1.75 35.5C1.41848 35.5 1.10054 35.3683 0.866117 35.1339C0.631696 34.8995 0.5 34.5815 0.5 34.25V1.75C0.5 1.41848 0.631696 1.10054 0.866117 0.866116C1.10054 0.631696 1.41848 0.5 1.75 0.5Z" fill="#564E66"/>
<path fill-rule="evenodd" clip-rule="evenodd" d="M2.405 4.395C4.8375 2.7725 6.37 1.75 9.25 1.75C10.8825 1.75 12.0975 2.5625 12.9875 3.155L13.0675 3.21C14.045 3.86 14.6825 4.25 15.5 4.25C15.92 4.25 16.39 4.145 16.9675 3.935C17.469 3.74463 17.9635 3.53616 18.45 3.31C18.595 3.2425 18.7425 3.1775 18.9 3.11C20.325 2.4725 22.095 1.75 24.25 1.75C24.5815 1.75 24.8995 1.8817 25.1339 2.11612C25.3683 2.35054 25.5 2.66848 25.5 3V18C25.5 18.3315 25.3683 18.6495 25.1339 18.8839C24.8995 19.1183 24.5815 19.25 24.25 19.25C22.655 19.25 21.3 19.775 19.915 20.3925L19.5175 20.5675C18.9675 20.8175 18.385 21.08 17.8225 21.285C17.0815 21.5747 16.2954 21.7321 15.5 21.75C13.8675 21.75 12.6525 20.9375 11.7625 20.345L11.6825 20.29C10.705 19.64 10.0675 19.25 9.25 19.25C7.1675 19.25 6.205 19.865 3.6925 21.54C3.50426 21.6653 3.28558 21.7371 3.05973 21.7479C2.83388 21.7587 2.60933 21.7081 2.41 21.6014C2.21066 21.4946 2.04401 21.3358 1.92779 21.1419C1.81156 20.9479 1.75012 20.7261 1.75 20.5V5.5C1.75011 5.29415 1.80105 5.0915 1.89831 4.91007C1.99556 4.72865 2.13612 4.57404 2.3075 4.46L2.4075 4.395H2.405Z" fill="#F09020"/>
</svg>
