<svg width="45" height="45" viewBox="0 0 45 45" fill="none" xmlns="http://www.w3.org/2000/svg">
<path d="M22.5 1.40625V8.4375H8.4375V22.5H1.40625C1.40625 34.1719 10.8281 43.5938 22.5 43.5938C34.1719 43.5938 43.5938 34.1719 43.5938 22.5C43.5938 10.8281 34.1719 1.40625 22.5 1.40625Z" fill="#2A5F9E"/>
<path d="M22.5 1.40625C19.1953 1.40625 16.1016 2.17969 13.2891 3.51562V7.73438H7.73438V13.2891H3.51562C2.17969 16.1016 1.40625 19.1953 1.40625 22.5H9.84375V11.9531L18.2812 22.5H22.5V17.2266L16.5938 9.84375H22.5V1.40625Z" fill="white"/>
<path d="M10.8281 9.84375L21.0938 22.5H22.5V19.0547L15.0469 9.84375H10.8281Z" fill="#ED4C5C"/>
<path d="M22.5 3.51562H13.2891C9.07031 5.55469 5.55469 9.07031 3.51562 13.2891V22.5H7.73438V7.73438H22.5V3.51562Z" fill="#ED4C5C"/>
<path d="M5.625 25.1016L7.17187 23.2031L6.67969 25.6641L9.14062 25.7344L6.96094 26.8594L8.4375 28.8281L6.25781 27.8437L5.625 30.2344L4.99219 27.8437L2.8125 28.8281L4.28906 26.8594L2.10938 25.7344L4.57031 25.6641L4.07813 23.2031L5.625 25.1016Z" fill="white"/>
<path d="M36.5625 14.2031L37.8281 12.6562L37.4063 14.625L39.375 14.6953L37.6172 15.6094L38.8125 17.1562L37.0547 16.3125L36.5625 18.2812L36.0703 16.3125L34.3125 17.1562L35.5078 15.6094L33.75 14.6953L35.7187 14.625L35.2969 12.6562L36.5625 14.2031Z" fill="white"/>
<path d="M36.5625 28.2656L37.8281 26.7188L37.4063 28.6875L39.375 28.7578L37.6172 29.6719L38.8125 31.2188L37.0547 30.375L36.5625 32.3438L36.0703 30.375L34.3125 31.2188L35.5078 29.6719L33.75 28.7578L35.7187 28.6875L35.2969 26.7188L36.5625 28.2656Z" fill="white"/>
<path d="M29.5312 18.4219L30.7969 16.875L30.375 18.8437L32.3438 18.9141L30.5859 19.8281L31.7813 21.375L30.0234 20.5313L29.5312 22.5L29.0391 20.5313L27.2812 21.375L28.4766 19.8281L26.7188 18.9141L28.6875 18.8437L28.2656 16.875L29.5312 18.4219Z" fill="white"/>
</svg>
