<svg width="49" height="46" viewBox="0 0 49 46" fill="none" xmlns="http://www.w3.org/2000/svg">
<path d="M8.33783 25.4759L23.7206 16.5947C24.3185 16.2495 24.5233 15.485 24.1781 14.8871C23.833 14.2893 23.0685 14.0844 22.4706 14.4296L7.08783 23.3108L8.77278 16.9543C8.81472 16.7955 8.82498 16.63 8.80297 16.4672C8.78096 16.3044 8.7271 16.1476 8.64448 16.0056C8.56185 15.8637 8.45208 15.7394 8.32142 15.6399C8.19077 15.5404 8.04179 15.4675 7.88299 15.4256C7.72419 15.3836 7.55869 15.3734 7.39592 15.3954C7.23316 15.4174 7.07633 15.4713 6.93438 15.5539C6.79243 15.6365 6.66814 15.7463 6.56862 15.877C6.46909 16.0076 6.39628 16.1566 6.35433 16.3154L3.89656 25.5786C3.72013 26.2435 4.11419 26.9261 4.77828 27.1058L14.0293 29.6089C14.1914 29.6673 14.3637 29.6915 14.5356 29.6801C14.7075 29.6687 14.8751 29.622 15.0281 29.5427C15.181 29.4635 15.3159 29.3535 15.4243 29.2196C15.5327 29.0858 15.6123 28.931 15.6581 28.7649C15.7038 28.5989 15.7148 28.4252 15.6902 28.2547C15.6657 28.0842 15.6062 27.9206 15.5154 27.7742C15.4246 27.6278 15.3046 27.5018 15.1628 27.404C15.0211 27.3062 14.8606 27.2387 14.6915 27.2058L8.33783 25.4759Z" fill="#035AA6"/>
<path opacity="0.5" d="M26.4298 13.5871C26.0846 12.9892 26.2895 12.2248 26.8873 11.8796L27.9699 11.2546C28.5677 10.9094 29.3322 11.1142 29.6774 11.7121C30.0226 12.31 29.8177 13.0745 29.2199 13.4196L28.1373 14.0446C27.5395 14.3898 26.775 14.185 26.4298 13.5871Z" fill="#035AA6"/>
<path opacity="0.3" d="M31.8425 10.4621C31.4973 9.86425 31.7021 9.09976 32.3 8.75458C32.8978 8.40941 33.6623 8.61425 34.0075 9.21212C34.3527 9.80998 34.1478 10.5745 33.55 10.9196C32.9521 11.2648 32.1876 11.06 31.8425 10.4621Z" fill="#035AA6"/>
<path d="M34.7934 15.7733C34.6349 15.7302 34.4695 15.7188 34.3066 15.7396C34.1436 15.7605 33.9864 15.8132 33.8439 15.8949C33.7014 15.9765 33.5763 16.0854 33.4759 16.2153C33.3754 16.3453 33.3016 16.4937 33.2585 16.6522C33.2154 16.8107 33.204 16.9762 33.2248 17.1391C33.2457 17.302 33.2985 17.4592 33.3801 17.6017C33.4617 17.7443 33.5706 17.8693 33.7005 17.9698C33.8305 18.0702 33.9789 18.1441 34.1374 18.1871L40.4849 19.9062L25.1021 28.7875C24.5042 29.1327 24.2994 29.8972 24.6446 30.495C24.9898 31.0929 25.7542 31.2977 26.3521 30.9526L41.7349 22.0713L40.0562 28.4387C40.0001 28.6016 39.9783 28.7743 39.9921 28.946C40.006 29.1176 40.0551 29.2846 40.1365 29.4364C40.2179 29.5882 40.3298 29.7215 40.4652 29.828C40.6005 29.9346 40.7565 30.0119 40.9232 30.0553C41.0898 30.0987 41.2637 30.1072 41.4338 30.0802C41.6039 30.0533 41.7666 29.9914 41.9117 29.8986C42.0568 29.8058 42.1812 29.684 42.277 29.5408C42.3728 29.3977 42.4379 29.2363 42.4684 29.0668L44.8982 19.8172C45.0724 19.1541 44.68 18.4745 44.0187 18.2938L34.7934 15.7733Z" fill="#F09020"/>
<path opacity="0.5" d="M19.2319 33.62C18.8867 33.0221 19.0916 32.2576 19.6894 31.9125L20.772 31.2875C21.3698 30.9423 22.1343 31.1471 22.4795 31.745C22.8247 32.3429 22.6198 33.1073 22.022 33.4525L20.9394 34.0775C20.3416 34.4227 19.5771 34.2179 19.2319 33.62Z" fill="#F09020"/>
<path opacity="0.3" d="M14.9018 36.12C14.5566 35.5221 14.7614 34.7576 15.3593 34.4125C15.9572 34.0673 16.7217 34.2721 17.0668 34.87C17.412 35.4679 17.2072 36.2323 16.6093 36.5775C16.0114 36.9227 15.247 36.7179 14.9018 36.12Z" fill="#F09020"/>
</svg>
