<svg width="23" height="30" viewBox="0 0 23 30" fill="none" xmlns="http://www.w3.org/2000/svg">
<path d="M8.90044 23.9287L8.89905 23.9269C7.78187 22.4762 6.54484 21.4309 5.73048 20.7427C5.61346 20.6438 5.50516 20.5523 5.40721 20.468C2.95022 18.3359 0.899902 15.3357 0.899902 11.7999C0.899902 5.95259 5.65255 1.19995 11.4999 1.19995C17.3473 1.19995 22.0999 5.95259 22.0999 11.7999C22.0999 15.3358 20.0495 18.336 17.5925 20.4681C17.4946 20.5524 17.3863 20.6439 17.2693 20.7427C16.455 21.4309 15.2179 22.4762 14.1008 23.9269L14.0994 23.9287C13.0817 25.2626 12.1051 26.7053 11.4999 27.9298C10.8947 26.7053 9.91808 25.2626 8.90044 23.9287ZM14.1266 5.45844C13.2939 5.11349 12.4013 4.93595 11.4999 4.93595C9.67946 4.93595 7.93357 5.65912 6.64632 6.94637C5.35907 8.23362 4.6359 9.9795 4.6359 11.7999C4.6359 13.6204 5.35907 15.3663 6.64632 16.6535C7.93357 17.9408 9.67946 18.6639 11.4999 18.6639C12.4013 18.6639 13.2939 18.4864 14.1266 18.1415C14.9594 17.7965 15.7161 17.2909 16.3535 16.6535C16.9909 16.0161 17.4965 15.2595 17.8414 14.4267C18.1864 13.5939 18.3639 12.7013 18.3639 11.7999C18.3639 10.8986 18.1864 10.006 17.8414 9.17321C17.4965 8.34043 16.9909 7.58375 16.3535 6.94637C15.7161 6.30899 14.9594 5.80339 14.1266 5.45844Z" fill="#E4E4E4" stroke="#A9A9A9"></path>
</svg>