<svg width="28" height="28" viewBox="0 0 28 28" fill="none" xmlns="http://www.w3.org/2000/svg">
<path fill-rule="evenodd" clip-rule="evenodd" d="M7.01745 5.6674C8.78976 3.89509 11.1935 2.89941 13.7 2.89941C16.2064 2.89941 18.6101 3.89509 20.3825 5.6674C22.1548 7.43971 23.1504 9.84347 23.1504 12.3499C23.1504 14.8563 22.1548 17.2601 20.3825 19.0324L13.7 25.7149L7.01745 19.0324C6.13983 18.1549 5.44367 17.1131 4.9687 15.9665C4.49373 14.8199 4.24927 13.591 4.24927 12.3499C4.24927 11.1088 4.49373 9.87991 4.9687 8.73332C5.44367 7.58673 6.13983 6.54492 7.01745 5.6674ZM13.7 15.0499C14.416 15.0499 15.1028 14.7654 15.6091 14.2591C16.1155 13.7527 16.4 13.066 16.4 12.3499C16.4 11.6338 16.1155 10.9471 15.6091 10.4407C15.1028 9.93436 14.416 9.6499 13.7 9.6499C12.9839 9.6499 12.2971 9.93436 11.7908 10.4407C11.2844 10.9471 11 11.6338 11 12.3499C11 13.066 11.2844 13.7527 11.7908 14.2591C12.2971 14.7654 12.9839 15.0499 13.7 15.0499Z" fill="#035AA6"/>
</svg>
