<svg width="50" height="30" viewBox="0 0 50 30" fill="none" xmlns="http://www.w3.org/2000/svg">
<path d="M20.65 15.6198V20.2479H23.3214V14.5868C23.3214 13.1405 22.4733 12.1074 20.6076 12.1074C19.5051 12.0661 18.4875 12.5207 17.7666 13.3058V9.29752H15.1801V20.2479H17.7666V15.124C18.0635 14.7521 18.6147 14.3802 19.3355 14.3802C20.1836 14.3802 20.6924 14.6694 20.65 15.6198ZM10.0918 12.1074C8.81972 12.1074 7.42043 12.5207 6.36037 13.3471L7.33563 15.124C8.01407 14.5868 8.81972 14.2975 9.62536 14.2975C10.6854 14.2975 11.2791 14.7107 11.2791 15.4132V16.2397C10.7702 15.6198 9.83738 15.2893 8.73491 15.2893C7.46284 15.2893 5.93635 15.9091 5.93635 17.8512C5.93635 19.6281 7.50524 20.4545 8.73491 20.4545C9.20644 20.4708 9.67624 20.3909 10.1143 20.2202C10.5524 20.0494 10.9491 19.7915 11.2791 19.4628V20.2893H13.8656V15.2893C13.8656 12.8099 12.0423 12.0661 10.0494 12.0661L10.0918 12.1074ZM11.2791 18.2231C11.0246 18.595 10.431 18.8017 9.83738 18.8017C9.15894 18.8017 8.5229 18.5124 8.5229 17.8926C8.5229 17.2314 9.15894 16.9421 9.79497 16.9421C10.3886 16.9421 11.0246 17.1488 11.2791 17.5207V18.2231ZM35.0245 12.1074C33.7524 12.1074 32.6923 12.8512 32.1835 13.5537C31.8443 12.6033 31.081 12.1074 29.8938 12.1074C28.6217 12.1074 27.5616 12.8512 27.2224 13.3058V12.314H24.5934V20.2479H27.2224V15.124C27.4768 14.7934 27.9432 14.3802 28.6641 14.3802C29.4697 14.3802 29.7241 14.7934 29.7241 15.4132V20.2479H32.3531V15.124C32.6075 14.7934 33.1163 14.3802 33.7948 14.3802C34.6004 14.3802 34.8972 14.7934 34.8972 15.4132V20.2479H37.4414V14.5041C37.4414 12.8512 36.5085 12.1074 35.0245 12.1074ZM48.9749 27.9752C48.5932 28.5537 47.7876 28.6777 47.194 28.3058L47.1516 28.2645C46.5579 27.8512 46.4307 27.0661 46.8123 26.4876C47.194 25.9091 48.042 25.7851 48.6357 26.157C48.7793 26.2451 48.9034 26.3604 49.0006 26.4959C49.0979 26.6315 49.1663 26.7847 49.2018 26.9464C49.2374 27.1081 49.2394 27.2752 49.2077 27.4377C49.176 27.6002 49.1113 27.7548 49.0173 27.8926L48.9749 27.9752ZM49.1445 25.5372C48.7308 25.2499 48.225 25.1169 47.7192 25.1624C47.2133 25.2079 46.741 25.4289 46.3883 25.7851C46.2611 25.9091 46.0491 25.9504 45.9643 25.7851C45.6251 24.7934 45.1162 23.719 43.8442 22.3554L48.1692 16.5702C48.6781 15.8678 48.8477 14.4215 48.0844 13.9256L42.6569 21.1983V23.5124C44.141 24.2562 45.201 25.4132 45.8795 27.7273C45.9574 27.9877 46.0873 28.2307 46.2616 28.4423C46.4359 28.6539 46.6513 28.8299 46.8954 28.9604C47.1395 29.0908 47.4076 29.1731 47.6844 29.2026C47.9611 29.2321 48.2412 29.2082 48.5084 29.1322C48.9325 29.0083 49.3565 28.7603 49.6109 28.3884C49.9306 27.9479 50.0607 27.403 49.9736 26.8702C49.8864 26.3374 49.5888 25.859 49.1445 25.5372ZM42.0633 26.8595V28.7603H40.1128V30H43.3353V26.9008L42.0633 26.8595ZM33.0739 30H38.3742V28.7603H33.0739V30ZM26.0775 30H31.3354V28.7603H26.0775V30ZM19.0387 30H24.2966V28.7603H19.0811L19.0387 30ZM11.9999 30H17.2578V28.7603H11.9999V30ZM4.96109 30H10.219V28.7603H4.96109V30ZM0 26.8595V30H3.22259V28.7603H1.27207V26.9008L0 26.8595ZM0 10.4545H1.27207V4.95868H0V10.4545ZM0 17.7686H1.27207V12.2727H0V17.7686ZM0 25.0826H1.27207V19.5868H0V25.0826ZM0 0V3.1405H1.27207V1.23967H3.22259V0H0ZM33.0739 1.23967H38.3742V0H33.0739V1.23967ZM26.0775 1.23967H31.3354V0H26.0775V1.23967ZM19.0387 1.23967H24.2966V0H19.0811L19.0387 1.23967ZM11.9999 1.23967H17.2578V0H11.9999V1.23967ZM4.96109 1.23967H10.219V0H4.96109V1.23967ZM40.1128 0V1.23967H42.0633V3.1405H43.3353V0H40.1128Z" fill="black"/>
<path d="M43.3353 25.0825H42.0632V19.5866H43.3353V25.0825ZM43.3353 17.7684H42.0632V12.2725H43.3353V17.7684ZM43.3353 10.4544H42.0632V4.9585H43.3353V10.4544Z" fill="black"/>
</svg>
