<svg width="83" height="24" viewBox="0 0 83 24" fill="none" xmlns="http://www.w3.org/2000/svg">
<path d="M65.1621 15.428C62.9036 18.0737 64.7182 18.1901 63.8148 19.2452C63.0827 20.0832 60.6139 20.1607 60.6139 20.1607C60.0454 20.1607 60.5672 19.8582 60.5672 19.8582C61.6575 19.0823 62.0547 18.2056 61.4161 18.5625C59.3756 19.6099 58.9551 19.6021 58.9551 19.6021C58.3788 19.7495 58.8461 19.4469 58.8461 19.4469C60.802 18.2063 62.6146 16.7544 64.2509 15.1176C63.6167 15.1873 62.9789 15.0215 62.4597 14.6521C62.3507 14.5668 62.3662 14.4582 62.4597 14.4659C62.8516 14.4183 63.2106 14.2241 63.4643 13.9228C63.5578 13.8064 63.3865 13.8297 63.3865 13.8297C62.1326 14.3263 61.1435 13.4728 60.5283 12.8754C60.3803 12.7358 60.5283 12.7125 60.5906 12.7202C63.1061 12.8521 64.1808 11.9444 64.321 11.8202C64.4612 11.6961 64.3911 11.6651 64.2509 11.7349C63.867 11.8495 63.477 11.9428 63.0827 12.0142C61.7276 12.3013 59.8429 11.8125 59.3834 10.9978C59.2822 10.8194 59.3834 10.7573 59.4925 10.7651C60.489 10.9264 61.5087 10.8735 62.4831 10.6099C62.6544 10.5633 62.6388 10.4237 62.4831 10.447C59.7183 10.6332 58.4644 10.0513 57.8959 8.32111C57.8414 8.16593 57.8025 7.95645 57.966 8.06507C58.5436 8.40966 59.2262 8.5363 59.8896 8.42197C60.0143 8.42197 60.0143 8.35214 59.8896 8.32111C57.1249 7.61507 56.9925 4.4418 56.9847 4.03835C56.9769 3.63491 57.1015 3.87542 57.1015 3.87542C57.8258 5.10128 59.4379 6.03232 60.6529 6.62197C60.8787 6.73059 60.98 6.56766 60.7385 6.45904C60.3917 6.28919 60.0561 6.09742 59.7339 5.8849C59.1542 5.53993 58.6591 5.07051 58.2846 4.51083C57.91 3.95114 57.6655 3.31529 57.5688 2.64956C57.5022 1.86599 57.5814 1.07689 57.8025 0.321982C57.9427 -0.128017 58.075 -0.0659481 58.1763 0.259913C59.2822 3.15387 62.4441 5.63663 64.8662 6.59094C67.2882 7.54524 68.8614 8.53059 69.025 10.1599C69.1885 11.7892 67.3973 12.7202 65.131 15.3659L65.1621 15.428ZM73.2071 5.46594C73.3158 5.50202 73.4333 5.50202 73.542 5.46594C73.6187 5.42261 73.6809 5.35788 73.7211 5.27973C73.746 5.22077 73.7588 5.15747 73.7588 5.09352C73.7588 5.02958 73.746 4.96628 73.7211 4.90732C73.6969 4.85217 73.6617 4.80252 73.6175 4.76141C73.5734 4.72031 73.5213 4.68862 73.4644 4.66828C73.4075 4.64794 73.3471 4.63939 73.2868 4.64313C73.2265 4.64688 73.1676 4.66286 73.1137 4.69008C73.0567 4.70821 73.0041 4.73782 72.9591 4.77705C72.9142 4.81629 72.8778 4.86432 72.8522 4.91816C72.8266 4.97201 72.8125 5.03051 72.8105 5.09004C72.8086 5.14957 72.819 5.20885 72.8411 5.26421C72.8714 5.32961 72.9182 5.3861 72.9769 5.42823C73.0355 5.47036 73.1041 5.49671 73.176 5.50473L73.2071 5.46594ZM82.3346 9.99696C81.522 10.5222 80.6038 10.8639 79.6445 10.9979C78.6852 11.132 77.7081 11.0551 76.7818 10.7728C74.4454 10.0435 74.2273 10.7728 74.1728 10.9513C74.1183 11.1297 74.0482 11.0599 74.0482 10.9513C74.0482 10.8427 73.9859 9.88058 73.9859 9.51593C73.9859 9.15128 74.2585 8.74007 74.4532 8.25128C74.6464 7.51233 74.9206 6.79682 75.2709 6.11766C75.9123 5.61325 76.5234 5.0718 77.1011 4.49611C77.392 4.13542 77.6305 3.73583 77.8098 3.30905C76.6494 3.01422 75.1074 3.91422 74.8192 4.08491C73.8384 3.6597 72.7465 3.55909 71.704 3.79784C71.1981 3.94261 70.7397 4.21855 70.3757 4.59748C70.0118 4.97641 69.7553 5.44476 69.6324 5.95473C69.391 7.07197 69.0717 7.50645 68.6745 7.72369C68.2773 7.94093 68.1605 7.72369 68.2851 7.88662C68.3558 8.00121 68.4508 8.09902 68.5634 8.17321C68.6761 8.2474 68.8036 8.29618 68.9371 8.31613C69.0707 8.33608 69.2069 8.32673 69.3365 8.28872C69.466 8.25072 69.5856 8.18498 69.6869 8.09611C70.9252 6.97111 70.6604 6.11766 71.3769 5.2099C71.5974 4.88958 71.8981 4.63227 72.2492 4.4635C72.6003 4.29473 72.9896 4.22039 73.3785 4.24784C74.1573 4.17025 74.4298 4.37197 74.3831 4.51939C74.3084 4.74583 74.2008 4.96017 74.0638 5.15559C73.9758 5.26923 73.8707 5.36868 73.7523 5.45042C73.5761 5.55532 73.3878 5.63868 73.1915 5.6987C72.8774 5.77064 72.568 5.86132 72.2648 5.97025C70.9953 6.55214 70.9798 7.02542 70.9564 7.32024C71.4072 7.35212 71.8572 7.24948 72.2492 7.02542C72.7632 6.68404 72.732 6.43576 73.028 6.16421C73.4235 5.8672 73.8459 5.60746 74.2896 5.38835C74.9361 5.00042 75.9874 4.61249 77.1089 3.98404C76.7584 4.58146 74.7725 5.84611 74.4376 6.02456C74.1027 6.20301 74.3753 6.35042 74.7024 6.28059C74.6119 6.39149 74.5157 6.49766 74.4143 6.59869C74.1592 7.39588 73.8469 8.17375 73.4797 8.92628C73.4797 9.00386 73.3862 9.00386 73.433 9.81852C73.433 10.1677 73.433 10.6564 73.433 10.6564C73.4875 12.6659 72.4361 13.7599 70.7617 14.8849C69.0873 16.0099 67.7789 16.0564 65.606 18.7642C65.606 18.7642 64.9986 19.54 66.4861 18.2444C67.1187 17.7075 67.805 17.237 68.5343 16.8401C70.2399 16.0099 70.0919 16.7547 70.1932 16.9487C70.2944 17.1426 70.6838 15.8004 70.972 16.1728C71.0813 16.3551 71.2306 16.5105 71.4086 16.6273C71.5865 16.7442 71.7887 16.8196 72 16.8478C72.1246 16.8478 72.1713 16.8478 72.1402 16.778C72.071 16.5636 72.071 16.3329 72.1402 16.1185C72.2103 15.9168 72.2881 15.8159 72.3894 16.0487C72.4973 16.3201 72.6837 16.5535 72.925 16.7192C73.1662 16.885 73.4515 16.9756 73.7445 16.9797C73.8691 16.9797 73.8925 16.9797 73.8146 16.8556C73.6238 16.6509 73.4662 16.418 73.3473 16.1651C73.2538 15.9168 73.3473 15.8547 73.4719 16.0487C74.0499 16.5363 74.7955 16.7811 75.5513 16.7314C75.6915 16.7314 75.7304 16.6461 75.6214 16.584C75.1753 16.3361 74.7619 16.0338 74.3909 15.684C74.2741 15.5676 74.3208 15.4357 74.3909 15.5288C74.8155 15.8493 75.3199 16.0482 75.8496 16.1042C76.3793 16.1603 76.9143 16.0713 77.3971 15.847C77.6229 15.7538 77.5762 15.6685 77.3581 15.6375C76.6781 15.5627 76.0235 15.3374 75.4423 14.978C75.2787 14.8616 75.3722 14.7918 75.5202 14.8461C77.5995 15.6763 78.5497 15.009 79.5543 13.8763C79.7646 13.6435 79.6867 13.5737 79.4375 13.6745C78.922 13.7614 78.3955 13.7614 77.8799 13.6745C77.6696 13.6745 77.693 13.5504 77.8799 13.5349C80.263 13.3642 82.2646 10.4935 82.4748 10.0823C82.5605 9.91162 82.3969 9.91162 82.2801 10.0125" fill="#FC5400"/>
<path d="M44.8588 18.6635V20.0833C44.6059 20.1562 44.3433 20.1902 44.08 20.1842C43.091 20.1842 42.5692 19.6643 42.5692 18.5393V14.2799H44.3916V18.1592C44.3916 18.485 44.5006 18.648 44.8744 18.648L44.8588 18.6635ZM43.4726 13.535C43.6598 13.5259 43.8402 13.4623 43.9914 13.3521C44.1427 13.2418 44.2582 13.0898 44.3236 12.9148C44.389 12.7398 44.4014 12.5496 44.3593 12.3676C44.3173 12.1857 44.2225 12.02 44.0869 11.8912C43.9513 11.7623 43.7806 11.676 43.5962 11.6428C43.4118 11.6096 43.2216 11.631 43.0493 11.7044C42.877 11.7778 42.73 11.8999 42.6267 12.0557C42.5234 12.2115 42.4682 12.394 42.4679 12.5807C42.4699 12.7094 42.4976 12.8364 42.5494 12.9544C42.6012 13.0723 42.676 13.1788 42.7695 13.2676C42.863 13.3564 42.9734 13.4258 43.0941 13.4717C43.2148 13.5177 43.3434 13.5392 43.4726 13.535ZM54.1032 17.4143C54.1138 17.5534 54.0961 17.6932 54.0514 17.8253C54.0066 17.9575 53.9356 18.0793 53.8426 18.1835C53.7496 18.2878 53.6364 18.3723 53.51 18.4321C53.3835 18.4919 53.2462 18.5257 53.1063 18.5316C52.6936 18.5316 52.4132 18.2445 52.4132 17.6161V15.9169C52.4132 14.7919 51.8992 14.2799 50.9101 14.2799H47.756V12.4566H45.9492V14.2799H45.0925V15.7152H45.9492V17.4609C45.9492 19.1833 46.6345 20.1609 48.4335 20.1609C49.0049 20.1536 49.5558 19.9478 49.9911 19.579L49.4616 18.26C49.2174 18.4433 48.9183 18.539 48.6127 18.5316C48.0208 18.5316 47.7482 18.1747 47.7482 17.3755V15.7152H50.0846C50.4428 15.7152 50.5519 15.8781 50.5519 16.204V18.0738C50.5519 19.2686 51.0114 20.1609 52.4054 20.1609C52.7391 20.1965 53.0762 20.1435 53.3827 20.0072C53.6891 19.871 53.9538 19.6563 54.1499 19.385V20.2385C54.1523 20.4143 54.1169 20.5886 54.0461 20.7497C53.9754 20.9108 53.8708 21.055 53.7395 21.1725C53.6083 21.2901 53.4533 21.3783 53.285 21.4313C53.1167 21.4843 52.9389 21.5009 52.7637 21.4798C52.4969 21.4866 52.232 21.4329 51.9892 21.3226C51.7463 21.2124 51.5318 21.0486 51.3618 20.8436L50.4584 21.7902C50.742 22.2132 51.1325 22.5542 51.5905 22.779C52.0485 23.0037 52.5579 23.1042 53.0674 23.0704C53.4483 23.0945 53.83 23.0372 54.1869 22.9024C54.5438 22.7677 54.8677 22.5585 55.1369 22.2888C55.406 22.0192 55.6142 21.6954 55.7476 21.3392C55.8809 20.9829 55.9363 20.6023 55.91 20.223V14.2799H54.0876L54.1032 17.4143ZM32.9121 16.6928C32.9121 17.6083 32.6083 18.3686 31.5492 18.3686C30.49 18.3686 30.1473 17.5928 30.1473 16.6928V11.6497H28.177V16.5919C28.177 19.2842 29.7346 20.1609 31.5492 20.1609C33.3638 20.1609 34.8746 19.2842 34.8746 16.5919V11.6497H32.8965L32.9121 16.6928ZM41.4321 18.1281V16.5221C41.4321 15.2497 40.848 14.1945 39.3605 14.1945C38.3014 14.1945 37.8574 14.6678 37.6939 15.1178V15.0014C37.6145 14.7428 37.4437 14.5217 37.2131 14.379C36.9826 14.2363 36.7079 14.1818 36.44 14.2256C36.1774 14.2211 35.9154 14.2524 35.6612 14.3187V15.7074C36.035 15.7074 36.1441 15.8859 36.1441 16.1885V20.0678H37.9665V16.7626C37.9634 16.6445 37.984 16.527 38.0272 16.417C38.0704 16.307 38.1353 16.2067 38.2181 16.1221C38.3009 16.0375 38.3998 15.9702 38.5091 15.9243C38.6183 15.8784 38.7357 15.8548 38.8543 15.8549C38.9687 15.8532 39.0821 15.8767 39.1864 15.9236C39.2907 15.9706 39.3833 16.0399 39.4577 16.1265C39.532 16.2132 39.5863 16.3151 39.6166 16.4251C39.6469 16.535 39.6526 16.6503 39.6331 16.7626V18.5316C39.6331 19.6566 40.1549 20.1764 41.144 20.1764C41.4072 20.1825 41.6698 20.1485 41.9228 20.0755V18.6635C41.5567 18.6635 41.4399 18.5005 41.4399 18.1747L41.4321 18.1281ZM5.14008 2.17644L8.25527 10.61H6.2304L5.56063 8.61608H2.70243L2.05603 10.61H0L3.1152 2.17644H5.14008ZM5.06998 7.16522L4.12764 4.35661L3.18529 7.16522H5.06998ZM41.362 4.06178C41.5492 4.05267 41.7296 3.98905 41.8809 3.87881C42.0322 3.76857 42.1476 3.61654 42.213 3.44156C42.2784 3.26658 42.2909 3.07634 42.2488 2.89439C42.2067 2.71244 42.112 2.54678 41.9763 2.41794C41.8407 2.28909 41.6701 2.20272 41.4857 2.16951C41.3012 2.1363 41.1111 2.15773 40.9387 2.23113C40.7664 2.30452 40.6195 2.42667 40.5161 2.58244C40.4128 2.73821 40.3576 2.92076 40.3574 3.10747C40.3572 3.23681 40.3835 3.36483 40.4345 3.48375C40.4855 3.60267 40.5603 3.71002 40.6543 3.79927C40.7482 3.88853 40.8594 3.95782 40.9811 4.00295C41.1028 4.04807 41.2324 4.06809 41.362 4.06178ZM43.4181 7.70832C43.4181 5.53591 44.6018 4.72126 45.8713 4.72126C46.4766 4.70925 47.0629 4.93177 47.5068 5.34195V4.8066H49.0644V8.68591C49.0644 9.01177 49.1734 9.1747 49.5472 9.1747V10.5635C49.2932 10.6305 49.0311 10.6619 48.7684 10.6566C48.4893 10.6881 48.2082 10.6184 47.9765 10.4603C47.7448 10.3021 47.578 10.0661 47.5068 9.79539V9.73332C47.3503 10.0453 47.1032 10.3031 46.7976 10.4733C46.492 10.6435 46.1421 10.7182 45.7934 10.6876C44.6719 10.6876 43.457 9.77211 43.457 7.72384L43.4181 7.70832ZM45.2716 7.72384C45.2716 8.70918 45.8246 9.09711 46.323 9.09711C46.5578 9.08825 46.7826 8.99948 46.9597 8.8456C47.1368 8.69172 47.2557 8.48201 47.2965 8.25142V7.24281C47.2746 6.99035 47.1552 6.75622 46.9634 6.58977C46.7716 6.42332 46.5225 6.33756 46.2685 6.35057C45.6688 6.35057 45.2327 6.79281 45.2327 7.70056L45.2716 7.72384ZM38.8154 10.6721C39.0781 10.6792 39.3405 10.6478 39.5942 10.579V9.22125C39.2359 9.22125 39.1269 9.05832 39.1269 8.73246V2.17644H37.3045V9.03504C37.3045 10.1523 37.8263 10.6721 38.8154 10.6721ZM30.3732 7.72384C30.3732 5.55143 31.557 4.73678 32.8264 4.73678C33.421 4.73276 33.9947 4.95474 34.4307 5.35747V4.8066H36.0584V8.68591C36.0584 9.01177 36.1674 9.1747 36.5413 9.1747V10.5635C36.2873 10.6305 36.0252 10.6619 35.7625 10.6566C35.4763 10.6955 35.1858 10.6275 34.9471 10.4655C34.7083 10.3036 34.5382 10.0594 34.4697 9.77987V9.7178C34.3117 10.0399 34.0581 10.3058 33.7432 10.4793C33.4283 10.6529 33.0674 10.7256 32.7096 10.6876C31.5881 10.6876 30.3732 9.77211 30.3732 7.72384ZM32.1878 7.72384C32.1878 8.70918 32.7407 9.09711 33.2314 9.09711C34.0881 9.09711 34.1971 8.20487 34.2127 8.25142V7.24281C34.1898 7.0019 34.0787 6.77781 33.9006 6.61326C33.7225 6.44871 33.4898 6.3552 33.2469 6.35057C32.6395 6.35057 32.2111 6.79281 32.2111 7.70056L32.1878 7.72384ZM24.0961 9.05832C23.5042 9.05832 23.2238 8.70142 23.2238 7.90229V6.24195H25.1474V4.8066H23.2238V3.01437H21.4014V4.8066H20.5447V6.24195H21.4014V7.98763C21.4014 9.71004 22.0945 10.6876 23.8936 10.6876C24.4649 10.6803 25.0158 10.4745 25.4512 10.1057L24.9216 8.78677C24.6799 8.96897 24.3835 9.06464 24.0805 9.05832H24.0961ZM13.8159 8.70142V4.82212H12.0091V7.98763C12.0091 8.13505 11.9156 9.05056 11.02 9.05056C10.615 9.05056 10.3425 8.76349 10.3425 8.13505V4.8066H8.51228V8.60056C8.51228 9.79539 8.97177 10.6876 10.358 10.6876C10.7333 10.7265 11.1117 10.6518 11.4437 10.4733C11.7757 10.2947 12.046 10.0206 12.2194 9.68677V9.77211C12.2831 10.0574 12.4523 10.3084 12.6932 10.4752C12.9342 10.6419 13.2293 10.7122 13.52 10.6721C13.7826 10.6774 14.0448 10.646 14.2988 10.579V9.22125C13.9249 9.22125 13.8159 9.05832 13.8159 8.73246V8.70142ZM55.8711 8.73246V7.04884C55.8711 5.78419 55.287 4.72126 53.8072 4.72126C52.7403 4.72126 52.2964 5.18678 52.1406 5.63677V5.54367C52.0583 5.28538 51.8857 5.06506 51.6542 4.9227C51.4227 4.78035 51.1477 4.72539 50.879 4.76781C50.6158 4.76268 50.3533 4.79667 50.1002 4.86867V6.22643C50.474 6.22643 50.583 6.40488 50.583 6.70746V10.5868H52.4054V7.28936C52.4012 7.17164 52.4209 7.05429 52.4632 6.94431C52.5056 6.83433 52.5698 6.73399 52.6519 6.64926C52.734 6.56453 52.8325 6.49717 52.9413 6.45118C53.0502 6.40519 53.1672 6.38153 53.2855 6.3816C53.3999 6.37994 53.5133 6.40342 53.6176 6.45038C53.7219 6.49734 53.8145 6.56662 53.8888 6.65329C53.9632 6.73996 54.0175 6.84189 54.0478 6.95182C54.0781 7.06176 54.0837 7.17701 54.0643 7.28936V9.03504C54.0643 10.1523 54.5783 10.6721 55.5673 10.6721C55.83 10.6778 56.0922 10.6464 56.3461 10.579V9.22125C55.9801 9.22125 55.8633 9.05832 55.8633 8.73246H55.8711ZM28.9012 6.40488C29.177 6.38674 29.4509 6.46043 29.68 6.61436L30.4588 5.00833C30.164 4.82239 29.8182 4.73288 29.4698 4.75229C29.1205 4.70003 28.7639 4.76754 28.4582 4.94375C28.1525 5.11997 27.9161 5.39443 27.7876 5.72212V5.59798C27.7088 5.32917 27.5378 5.09645 27.3043 4.94047C27.0709 4.78448 26.7899 4.71514 26.5103 4.74454C26.2467 4.73075 25.9828 4.76493 25.7315 4.8454V6.22643C26.1054 6.22643 26.2144 6.40488 26.2144 6.70746V10.5868H28.0368V7.28936C28.0337 7.17256 28.0538 7.0563 28.0961 6.9473C28.1383 6.83831 28.2018 6.73873 28.283 6.65433C28.3641 6.56993 28.4611 6.50237 28.5686 6.45556C28.6761 6.40875 28.7918 6.38361 28.909 6.3816L28.9012 6.40488ZM42.7561 9.22125C42.3823 9.22125 42.2732 9.05832 42.2732 8.73246V4.85316H40.4508V9.0816C40.4508 10.1988 40.9726 10.7187 41.9617 10.7187C42.2245 10.7257 42.4869 10.6944 42.7405 10.6256L42.7561 9.22125ZM16.9155 6.46695C16.9155 6.28074 17.0869 6.11005 17.6398 6.11005C18.1542 6.12419 18.644 6.33214 19.0105 6.69195L20.0463 5.71436C19.7219 5.3671 19.3207 5.10002 18.8746 4.93436C18.4284 4.76869 17.9496 4.70901 17.4763 4.76005C15.6928 4.8066 15.0542 5.7066 15.0542 6.5135C15.0542 8.73246 18.1694 8.1428 18.1694 8.92642C18.1694 9.16694 18.0058 9.44625 17.4685 9.44625C17.1443 9.43573 16.8264 9.35455 16.5371 9.20845C16.2478 9.06234 15.9942 8.85484 15.7941 8.60056L14.7894 9.55487C14.9727 9.87972 15.2421 10.1481 15.5682 10.3307C16.0539 10.5838 16.5868 10.7343 17.1336 10.773H17.5308C19.3532 10.773 20.2098 9.99711 20.2098 8.78677C20.2098 6.79281 16.9311 7.44453 16.9311 6.42039" fill="#2A2A2A"/>
</svg>
