<svg width="37" height="37" viewBox="0 0 37 37" fill="none" xmlns="http://www.w3.org/2000/svg">
<path d="M36.061 0H0V36.061H36.061V0Z" fill="#1C79BE"/>
<path d="M18.6151 9.80876C19.4737 9.80876 19.9283 9.4193 20.2097 8.97214L20.1952 9.03705C20.1159 9.45536 20.455 9.715 20.7725 9.715H21.0466L21.8114 5.2218H20.8662L20.7364 5.90695C20.5632 5.55356 20.0798 5.12804 19.3006 5.12804C17.9225 5.12804 17.1072 6.29641 16.9629 7.54413C16.8114 8.97214 17.706 9.80876 18.6151 9.80876ZM19.4377 5.86368C21.025 5.95744 20.5127 9.08754 18.8965 8.99378C17.4319 8.90723 17.8864 5.77713 19.4377 5.86368ZM6.36391 4.91888C6.36391 3.90196 5.7362 3.43317 4.61786 3.43317C3.93243 3.43317 2.85738 3.43317 2.46776 3.43317L1.3855 9.715C1.52258 9.715 2.69143 9.715 3.35522 9.715C3.80255 9.715 4.23546 9.70057 4.47356 9.65009C5.57747 9.41209 6.0248 8.58268 6.1186 7.97686C6.24126 7.13303 5.72898 6.57769 5.13735 6.44066C5.57747 6.33969 6.36391 5.87089 6.36391 4.91888ZM4.05508 8.94329C3.93243 8.97214 3.73762 8.99378 3.32636 8.99378H2.60485L2.9656 6.88781H4.02622C5.43317 6.88781 5.30329 8.62596 4.05508 8.94329ZM4.47356 6.08005C4.33647 6.12332 4.15609 6.13775 3.83141 6.13775H3.09548L3.4418 4.12554H4.40141C5.54861 4.12554 5.46203 5.74107 4.47356 6.08005ZM10.5487 5.22901H10.2601C10.2601 5.22901 9.84159 7.69558 9.7983 7.97686C9.69728 8.58268 9.4159 8.99378 8.62224 8.99378C8.1749 8.99378 7.73478 8.7125 7.83579 8.08504C7.87908 7.83983 8.1749 6.0512 8.20376 5.90695C8.29034 5.42374 7.8863 5.22901 7.5544 5.22901H7.30187C7.24415 5.60404 6.96277 7.18351 6.86175 7.80376C6.81846 8.04898 6.80403 8.30141 6.81846 8.46729C6.91226 9.3039 7.62655 9.81597 8.50679 9.81597C10.0292 9.81597 10.6064 8.99378 10.7868 8.02013C10.8445 7.70279 11.1331 6.07284 11.1547 5.90695C11.2269 5.41652 10.8445 5.22901 10.5487 5.22901ZM12.1216 11.4892L12.5617 9.0082C12.7348 9.3616 13.2255 9.80876 14.0047 9.80876C15.4116 9.80876 16.2847 8.67644 16.3712 7.3494C16.465 5.94302 15.6642 5.12804 14.7334 5.12804C13.9253 5.12804 13.377 5.53192 13.0956 5.95023L13.11 5.89253C13.1966 5.4598 12.8358 5.21458 12.5328 5.21458H12.2298C12.2298 5.21458 11.4073 10.0468 11.299 10.6309C11.1692 11.3161 11.7031 11.4748 11.8762 11.4748H12.1216V11.4892ZM14.416 5.94302C15.8734 6.02235 15.4189 9.16687 13.8676 9.08033C12.2803 8.98657 12.7926 5.84926 14.416 5.94302ZM33.8606 12.0806C33.4494 12.0806 32.901 12.059 32.5691 11.9436C32.1795 11.8065 31.8332 11.5325 31.4724 11.244C31.2921 11.0997 31.0972 10.9483 30.8952 10.8113C30.6427 10.6382 30.4407 10.5588 30.2387 10.5588C29.9717 10.5588 29.712 10.7103 29.4017 11.042C28.976 11.4892 28.6441 12.0373 28.3772 12.4556C28.3627 12.4773 28.3339 12.5133 28.2978 12.5133C28.2329 12.5133 28.2256 12.4196 28.2256 12.3979C28.2112 11.2224 28.038 4.83234 27.9082 2.9211C27.8505 2.07727 27.5979 1.55078 27.2444 1.55078C26.9558 1.55078 26.5301 1.94024 26.2631 3.04371C25.5849 5.84926 24.1275 12.0878 23.507 15.254C23.4925 15.3405 23.3915 15.3405 23.3771 15.254C23.3049 14.9294 23.2472 14.5616 23.1895 14.2515C23.0019 13.2706 22.8432 12.434 22.5257 11.9652C22.165 11.4387 21.6238 11.4027 20.9745 11.8498C20.8302 11.9508 20.6931 12.0662 20.5488 12.2032C20.1303 12.571 19.6613 12.9966 18.8749 12.9966H11.8474L11.6598 14.0423H19.0841C19.9066 14.0423 20.6714 13.5519 21.126 13.2129C21.3569 13.0398 21.5228 12.9461 21.6455 12.9461C21.8259 12.9461 21.9052 13.1336 21.9702 13.4076C22.0062 13.5447 22.0423 13.7322 22.0856 13.9486C22.2371 14.6698 22.468 15.8093 22.7566 16.5666C22.8937 16.92 23.0957 17.1147 23.3266 17.1147C23.6801 17.1147 24.0409 16.6892 24.2429 16.0185C24.5171 15.1314 26.1477 7.85425 26.8331 4.80349C26.862 4.68088 26.8764 4.60876 26.8764 4.60154C26.8908 4.55106 26.9197 4.515 26.963 4.515C26.9991 4.515 27.0424 4.54385 27.0424 4.61597V4.63039C27.0929 7.71722 27.2444 13.1336 27.4681 13.6889C27.5907 13.9991 27.7783 14.1577 28.0164 14.1577C28.2906 14.1577 28.6153 13.9341 28.8461 13.5807C28.9616 13.4076 29.1131 13.1769 29.2718 12.9316C29.6614 12.333 29.7552 12.1383 29.8851 11.9941C30.0799 11.7849 30.3036 11.7777 30.6211 12.0013C30.6643 12.0373 30.7221 12.0734 30.787 12.1239C31.1261 12.3763 31.6889 12.7225 32.3238 12.9028C32.7423 13.0254 33.2834 13.047 33.6658 13.047C33.9111 13.047 34.1709 13.0398 34.2502 13.0326L34.4234 12.0662C34.3368 12.0734 34.0915 12.0806 33.8606 12.0806Z" fill="white"/>
</svg>
