<svg width="56" height="26" viewBox="0 0 56 26" fill="none" xmlns="http://www.w3.org/2000/svg">
<path fill-rule="evenodd" clip-rule="evenodd" d="M48.2867 24.7833C48.8585 23.9035 48.0854 22.8189 48.0854 22.8189C48.0854 22.8189 41.4009 12.7248 41.3988 12.7217L33.3983 24.8004C33.1513 25.1711 33.3124 25.4421 33.7575 25.4432C33.7575 25.4432 47.0606 25.4376 47.0611 25.4376C47.5005 25.4376 48.0385 25.1495 48.2867 24.7833Z" fill="#ACD6EE"/>
<path fill-rule="evenodd" clip-rule="evenodd" d="M55.7915 12.0904C55.7902 12.0886 55.7892 12.0872 55.7881 12.0854C55.7883 12.0856 55.7883 12.0858 55.7883 12.0859L55.7915 12.0904ZM55.751 12.1471C55.9893 12.5106 55.8271 12.7753 55.3847 12.7765H55.2968L41.2549 12.7762C41.257 12.7793 47.9613 22.8152 47.9613 22.8152C47.9613 22.8152 48.7361 23.8929 48.1638 24.7674L48.1623 24.7706L48.2539 24.6305C48.2538 24.6312 55.7631 13.3906 55.7631 13.3906C55.7631 13.3906 56 13.0696 56 12.7765C56 12.5592 55.9228 12.4081 55.751 12.1471Z" fill="#74AD26"/>
<path fill-rule="evenodd" clip-rule="evenodd" d="M55.3165 12.7215C55.7582 12.7203 55.9181 12.4493 55.6729 12.0783L48.1752 0.669003C47.9335 0.296161 47.3769 0 46.9357 0H46.9333H33.7539C33.3122 0.00111853 33.1523 0.272175 33.3974 0.643028C33.3974 0.643028 39.5912 10.071 41.3365 12.7213L55.3165 12.7215Z" fill="#AEC926"/>
<path fill-rule="evenodd" clip-rule="evenodd" d="M1.13594 12.0267V16.8385H2.41425C3.80588 16.8385 4.20393 16.344 4.20393 15.0982V13.7765C4.20393 12.5306 3.80588 12.0267 2.41425 12.0267H1.13594ZM2.41425 11.0093C4.41216 11.0093 5.36842 11.6559 5.36842 13.6052V15.26C5.36842 17.2093 4.41216 17.8559 2.41425 17.8559H0.435247C0.179437 17.8559 0 17.8368 0 17.6657V11.2568C0 11.0854 0.11357 11.0093 0.302646 11.0093H2.41425ZM16.4375 14.2721C16.4375 13.8008 16.166 13.5654 15.5411 13.5654C15.0066 13.5654 14.6172 13.7223 14.6172 14.5271V15.008C16.2203 15.008 16.4375 14.8901 16.4375 14.1935V14.2721ZM15.7042 18.1282C14.2459 18.1282 13.6301 17.5989 13.6301 15.8519V14.5372C13.6301 13.281 14.228 12.7216 15.4956 12.7216H15.6135C17.0263 12.7216 17.4338 13.2908 17.4338 14.282C17.4338 15.4495 16.9176 15.8519 14.6172 15.8519C14.6172 16.3321 14.6169 16.7509 14.8901 16.9852C15.086 17.1527 15.4458 17.2061 15.9395 17.2061C16.4375 17.2061 16.999 17.0688 17.2438 17.0688C17.325 17.0688 17.3979 17.1374 17.3979 17.706C17.3979 17.844 17.3704 17.9124 17.2526 17.9516C16.8543 18.0696 16.1842 18.1282 15.7042 18.1282ZM8.83009 14.2721C8.83009 13.8008 8.55845 13.5654 7.9335 13.5654C7.39933 13.5654 7.00996 13.7223 7.00996 14.5271V15.008C8.61271 15.008 8.83009 14.8901 8.83009 14.1935V14.2721ZM8.09663 18.1282C6.63844 18.1282 6.02259 17.5989 6.02259 15.8519V14.5372C6.02259 13.281 6.62024 12.7216 7.88823 12.7216H8.00608C9.41875 12.7216 9.82633 13.2908 9.82633 14.282C9.82633 15.4495 9.31 15.8519 7.00996 15.8519C7.00996 16.3321 7.00925 16.7509 7.28278 16.9852C7.47865 17.1527 7.83823 17.2061 8.33197 17.2061C8.83009 17.2061 9.3918 17.0688 9.63613 17.0688C9.71781 17.0688 9.79027 17.1374 9.79027 17.706C9.79027 17.844 9.76297 17.9124 9.64535 17.9516C9.24665 18.0696 8.57666 18.1282 8.09663 18.1282ZM15.2026 21.4485C15.2026 20.9771 14.9308 20.7419 14.3061 20.7419C13.7719 20.7419 13.3826 20.8986 13.3826 21.7033V22.1844C14.9852 22.1844 15.2026 22.0664 15.2026 21.3697V21.4485ZM14.4692 25.3045C13.0112 25.3045 12.3953 24.7754 12.3953 23.0283V21.7133C12.3953 20.4573 12.993 19.8978 14.2609 19.8978H14.3786C15.7913 19.8978 16.1987 20.4671 16.1987 21.4582C16.1987 22.6259 15.6826 23.0283 13.3826 23.0283C13.3826 23.5085 13.382 23.9273 13.6554 24.1614C13.8511 24.3289 14.2109 24.3823 14.7044 24.3823C15.2026 24.3823 15.7642 24.2451 16.0085 24.2451C16.0901 24.2451 16.1628 24.3137 16.1628 24.8823C16.1628 25.0205 16.1354 25.0888 16.0178 25.1281C15.6192 25.2458 14.949 25.3045 14.4692 25.3045ZM29.5553 14.2722C29.5553 13.8009 29.2836 13.5654 28.6586 13.5654C28.1245 13.5654 27.735 13.7224 27.735 14.5271V15.0081C29.3379 15.0081 29.5553 14.8902 29.5553 14.1936V14.2722ZM28.8219 18.1282C27.3634 18.1282 26.7478 17.5989 26.7478 15.852V14.5371C26.7478 13.281 27.3454 12.7216 28.6135 12.7216H28.7312C30.1438 12.7216 30.5515 13.2908 30.5515 14.2821C30.5515 15.4494 30.0351 15.852 27.735 15.852C27.735 16.332 27.7348 16.7509 28.0079 16.9852C28.2038 17.1526 28.5634 17.206 29.0571 17.206C29.5553 17.206 30.1168 17.0688 30.3613 17.0688C30.4428 17.0688 30.515 17.1373 30.515 17.706C30.515 17.844 30.488 17.9124 30.3702 17.9516C29.9717 18.0696 29.3017 18.1282 28.8219 18.1282ZM25.9685 17.6181C25.9685 17.8928 25.9336 17.9615 25.7681 18.0011C25.594 18.0496 25.1325 18.1282 24.636 18.1282C23.356 18.1282 22.8335 17.5885 22.8335 16.0875V14.7627C22.8335 13.271 23.356 12.7216 24.7317 12.7216C25.1761 12.7216 25.6464 12.7803 25.8205 12.839C25.9336 12.8786 26.0033 12.908 26.0033 13.1335C26.0033 13.3788 25.9249 13.7716 25.777 13.7716C25.6811 13.7617 25.2546 13.6636 24.8627 13.6636C24.0787 13.6636 23.8176 14.0463 23.8176 14.7824V16.0575C23.8176 16.833 24.0787 17.1764 24.8364 17.1764C25.115 17.1764 25.5244 17.1276 25.7857 17.0883C25.9336 17.0883 25.9685 17.3923 25.9685 17.6181ZM19.4234 23.1162C19.3302 23.0574 18.7986 22.9298 18.4535 22.9298C17.885 22.9298 17.6518 23.077 17.6518 23.7148C17.6518 24.3035 17.885 24.49 18.5469 24.49C18.8547 24.49 19.3114 24.402 19.4234 24.3233V23.1162ZM20.4396 24.7159C20.4396 24.9415 19.6284 25.3045 18.5377 25.3045C17.1486 25.3045 16.6358 24.7844 16.6358 23.6361C16.6358 22.665 16.9527 22.1157 18.1925 22.1157C18.6307 22.1157 19.1158 22.2134 19.4234 22.3021V21.6835C19.4234 21.095 19.153 20.83 18.314 20.83C17.8944 20.83 17.3629 20.9088 17.1299 20.9479C16.9246 20.9479 16.8873 20.4867 16.8873 20.3395C16.8873 20.1335 16.9155 20.0844 16.9993 20.0551C17.1858 19.9962 17.857 19.8978 18.5469 19.8978C19.8055 19.8978 20.4396 20.2315 20.4396 21.664V24.7159ZM23.4214 24.8993C23.4214 25.2434 22.6782 25.2719 22.4309 25.2719C21.6681 25.2719 21.2025 24.9281 21.2025 23.9249V18.7747C21.2025 18.6032 21.8267 18.5931 22.0148 18.5931C22.1732 18.5931 22.3119 18.6694 22.3119 18.8227V23.7242C22.3119 24.0778 22.3713 24.269 22.718 24.269C22.8667 24.269 23.0154 24.2307 23.1839 24.2019C23.3818 24.2019 23.4214 24.9185 23.4214 24.8993ZM25.0283 21.11V23.6932C25.0283 24.124 25.2629 24.3056 25.6153 24.3056C25.8012 24.3056 25.9382 24.2766 26.0849 24.258C26.2807 24.258 26.3294 24.5832 26.3294 24.9658C26.3294 25.2336 25.6056 25.2719 25.2533 25.2719C24.5098 25.2719 23.9327 24.9658 23.9327 23.8462V21.11H23.3652C23.248 21.11 23.1597 20.9859 23.1597 20.8518C23.1597 20.6507 23.1795 20.1054 23.3849 20.1054H23.9327V18.7649C23.9327 18.6118 24.5194 18.5931 24.7445 18.5931C24.9014 18.5931 25.0283 18.6882 25.0283 18.8223V20.1054H25.962C26.089 20.1054 26.1672 20.2299 26.1672 20.3545C26.1672 20.565 26.1476 21.11 25.9423 21.11H25.0283ZM29.5432 20.1132H28.0999V18.8321C28.0999 18.6792 27.9639 18.5931 27.8184 18.5931C27.6369 18.5931 27.0743 18.6124 27.0743 18.7747C27.0743 18.7747 27.0736 25.0922 27.0743 25.0958C27.0865 25.2487 27.2343 25.2719 27.3648 25.2719H27.8349L27.8344 25.2714C27.9595 25.2692 28.0882 25.2388 28.0997 25.0931C28.1004 25.0888 28.0999 21.1163 28.0999 21.1163H29.2437C29.7336 21.1163 29.8516 21.2597 29.8516 21.8903V25.072C29.8516 25.072 29.8511 25.0893 29.8517 25.0936C29.8655 25.2448 30.0124 25.2719 30.1422 25.2719H30.5868C30.7167 25.2719 30.8639 25.2448 30.8774 25.0936C30.878 25.0893 30.8774 21.8232 30.8774 21.8232C30.8774 20.8394 30.7867 20.1132 29.5432 20.1132ZM11.2949 18.9193C11.0619 18.9193 10.4209 18.9846 10.4209 19.1437V22.3012H7.36278V19.1998C7.36278 19.0222 7.26546 18.9193 7.06181 18.9193C6.83839 18.9193 6.19767 18.9846 6.19767 19.1437V25.0847C6.19767 25.2567 6.28929 25.2787 6.47938 25.2798V25.28H7.08728L7.08703 25.2798C7.27268 25.2782 7.36278 25.2547 7.36278 25.0847V23.1058H10.4209V25.0847C10.4209 25.2563 10.5122 25.2787 10.6925 25.2798L10.692 25.28H11.3134L11.3133 25.2798C11.4947 25.2787 11.5863 25.2567 11.5863 25.0847V19.1998C11.5863 19.0222 11.4892 18.9193 11.2949 18.9193ZM20.754 12.7216C19.574 12.7216 18.3847 13.2121 18.3847 13.575V17.9232V17.9407C18.3941 18.0976 18.5236 18.1282 18.6661 18.1282H19.1449L19.1444 18.1277C19.2798 18.1261 19.4041 18.0966 19.411 17.9384L19.4106 17.9256V14.0756C19.4106 13.9679 20.1187 13.7421 20.5726 13.7421C21.0627 13.7421 21.1627 13.9382 21.1627 14.429V17.9322C21.1627 18.1089 21.3168 18.1282 21.453 18.1282C21.4673 18.1282 21.9329 18.1276 21.9329 18.1276L21.9326 18.1275C22.0589 18.1235 22.1885 18.0943 22.1885 17.9322V14.4684C22.1885 13.2908 21.9799 12.7216 20.754 12.7216ZM12.3487 11.1314C11.4291 11.1314 10.9203 11.576 10.9203 12.4367V15.1407H10.3309C10.179 15.1407 10.1433 15.5473 10.1433 15.7461C10.1433 15.8501 10.2149 15.9544 10.3218 15.9544H10.9203V17.9203C10.9203 17.9203 10.9226 17.9582 10.9258 17.967C10.9509 18.0982 11.0805 18.1256 11.1837 18.1276L11.183 18.1282H11.6523L11.652 18.1281H11.6523C11.7568 18.1281 11.8968 18.1037 11.9236 17.9677C11.927 17.9586 11.9292 17.9198 11.9292 17.9198V15.9544H12.664C12.8157 15.9544 12.8606 15.5472 12.8606 15.3962C12.8606 15.1972 12.7709 15.1407 12.6729 15.1407H11.9292V12.5786C11.9292 12.1529 12.1793 12.0868 12.5095 12.0868C12.8131 12.0868 12.9381 12.1342 13.0989 12.1909C13.2418 12.1909 13.3131 11.8977 13.3131 11.6233C13.3131 11.1883 12.9201 11.1314 12.3487 11.1314Z" fill="#7C7B7B"/>
</svg>
