<svg width="84" height="14" viewBox="0 0 84 14" fill="none" xmlns="http://www.w3.org/2000/svg">
<path d="M79.7922 7.28139H78.4218C77.8601 7.28139 77.3876 7.40304 77.002 7.64632C76.6178 7.88823 76.4257 8.22897 76.4257 8.66579C76.4257 8.98925 76.4981 9.24429 76.6414 9.4309C76.7869 9.61683 76.9672 9.75782 77.1829 9.85528C77.3994 9.95204 77.6319 10.017 77.8803 10.0495C78.1288 10.082 78.3578 10.0979 78.5659 10.0979C78.71 10.0979 78.9188 10.082 79.1909 10.0495C79.3931 10.0288 79.5938 9.99652 79.7922 9.95273V7.28139ZM83.52 5.19477V12.3068C82.9103 12.4851 82.1732 12.6628 81.3067 12.8404C80.4047 13.0221 79.4863 13.1117 78.5659 13.1079C77.7321 13.1079 76.9672 13.0312 76.2691 12.877C75.5717 12.7236 74.9745 12.4762 74.4776 12.1375C73.9785 11.7955 73.5769 11.3313 73.3118 10.7897C73.0313 10.2313 72.8907 9.54771 72.8907 8.73836C72.8907 7.9456 73.0584 7.29038 73.396 6.7727C73.7236 6.2632 74.1688 5.83861 74.6947 5.53413C75.2237 5.22795 75.8083 5.01231 76.45 4.89135C77.0679 4.77212 77.6957 4.71103 78.3251 4.70889H79.7922C79.7762 4.4186 79.6962 4.17531 79.5521 3.98109C79.4089 3.78753 79.2188 3.633 78.9995 3.53184C78.7628 3.42341 78.5115 3.34984 78.2534 3.31343C77.9745 3.27273 77.6931 3.2524 77.4112 3.25261C77.027 3.25261 76.5781 3.29753 76.0652 3.38669C75.5515 3.47516 75.0225 3.61685 74.4783 3.81107C74.3472 3.56331 74.2227 3.3121 74.1052 3.0577C74.0023 2.8358 73.9218 2.60427 73.8651 2.36654C73.8079 2.127 73.7674 1.88382 73.744 1.63874C73.719 1.35214 73.7074 1.06454 73.7092 0.776866C74.4581 0.523589 75.2258 0.329007 76.0053 0.194908C76.766 0.0649692 77.4509 0 78.0606 0C78.8944 0 79.6475 0.10091 80.3212 0.304111C80.9949 0.505931 81.567 0.817645 82.041 1.23787C82.5136 1.65948 82.879 2.19651 83.1351 2.85243C83.3913 3.50765 83.52 4.28866 83.52 5.19477ZM67.7208 8.90839C67.7208 8.74665 67.693 8.58907 67.6366 8.43494C67.5763 8.27591 67.4718 8.13714 67.3352 8.03476C67.1918 7.92141 66.9907 7.82741 66.7346 7.75553C66.4778 7.68296 66.1409 7.64632 65.7247 7.64632H64.618V10.1463C64.6668 10.1463 64.7948 10.1546 65.0036 10.1704C65.211 10.187 65.4915 10.1946 65.8451 10.1946C66.5181 10.1946 66.9991 10.082 67.2872 9.85597C67.576 9.62858 67.7208 9.31341 67.7208 8.90839ZM64.6187 5.09732H65.7964C66.4061 5.09732 66.8146 4.96462 67.0234 4.69645C67.2322 4.43035 67.3352 4.15043 67.3352 3.86014C67.3352 3.58506 67.2273 3.33002 67.0116 3.09502C66.7944 2.86003 66.3977 2.74253 65.8214 2.74253C65.6439 2.74253 65.44 2.74737 65.2076 2.75497C64.9751 2.76396 64.7788 2.77571 64.6187 2.7916V5.09732ZM71.3999 7.25789C71.8328 7.7106 72.0485 8.34993 72.0485 9.17517C72.0485 10.6646 71.5043 11.6958 70.4136 12.2709C69.3237 12.8446 67.7125 13.1321 65.5806 13.1321C65.0189 13.1321 64.286 13.1113 63.3799 13.0713C62.4507 13.0287 61.5241 12.9438 60.6028 12.8169V0.338669C60.923 0.290288 61.2919 0.246054 61.7088 0.205966C62.1257 0.165188 62.5509 0.129247 62.9824 0.0953803C63.4031 0.0645758 63.8242 0.0406123 64.2457 0.0234995C64.6542 0.00829394 65.0113 0 65.3161 0C67.3199 0 68.8191 0.287523 69.8123 0.861879C70.8069 1.43554 71.3031 2.32991 71.3031 3.54359C71.3031 4.15872 71.1625 4.68124 70.8827 5.10976C70.6016 5.53828 70.2215 5.90667 69.7406 6.21355C70.4136 6.45683 70.9663 6.80518 71.3999 7.25789ZM56.6099 0.0732632C56.2897 0.0732632 55.957 0.0891599 55.6125 0.121644C55.2605 0.155165 54.911 0.2115 54.5664 0.290288V4.56236H51.0071V0.29167C50.6671 0.210606 50.3217 0.153786 49.9735 0.121644C49.6199 0.0891599 49.2914 0.0732632 48.9873 0.0732632C48.6664 0.0732632 48.3337 0.0891599 47.9892 0.121644C47.6372 0.155432 47.2877 0.211997 46.9431 0.290979V12.8169C47.344 12.8805 47.7129 12.9296 48.0498 12.9621C48.3866 12.9945 48.6901 13.0104 48.9629 13.0104C49.2357 13.0104 49.5406 12.9945 49.8775 12.9621C50.2553 12.9242 50.632 12.8758 51.0071 12.8169V8.20409H54.5664V12.8162C54.9666 12.8798 55.3355 12.9289 55.6724 12.9614C56.0092 12.9938 56.3134 13.0097 56.5869 13.0097C56.8583 13.0097 57.1632 12.9938 57.5 12.9614C57.8781 12.9236 58.255 12.8752 58.6304 12.8162V0.290288C58.2935 0.210113 57.9483 0.153438 57.5961 0.120953C57.2685 0.0899266 56.9396 0.0737827 56.6106 0.072572L56.6099 0.0732632ZM43.3253 0.995273C42.7901 0.60787 42.1732 0.346463 41.5213 0.230848C40.883 0.11178 40.2351 0.0507056 39.5857 0.0483813C38.88 0.0483813 38.2466 0.129247 37.6856 0.290979C37.124 0.453402 36.6347 0.639325 36.2185 0.850129C35.6714 0.525387 35.0673 0.306791 34.4381 0.205966C33.7946 0.100679 33.1435 0.0479742 32.4914 0.0483813C31.2887 0.0483813 30.2948 0.141688 29.509 0.327611C28.7232 0.514224 28.0502 0.703603 27.4892 0.897819V12.8169C27.9061 12.8971 28.2827 12.9496 28.6195 12.9745C28.9564 12.9987 29.2598 13.0111 29.5334 13.0111C29.7895 13.0111 30.086 12.9987 30.4229 12.9745C30.8024 12.9437 31.1798 12.8911 31.5532 12.8169V3.73849C31.6019 3.70601 31.7258 3.67353 31.9262 3.64104C32.113 3.60991 32.302 3.59373 32.4914 3.59266C33.1484 3.59266 33.6133 3.77927 33.8862 4.15043C34.1583 4.52365 34.2947 5.13879 34.2947 5.99583V12.8169C34.7109 12.8971 35.0882 12.9496 35.425 12.9745C35.7612 12.9987 36.066 13.0111 36.3389 13.0111C36.595 13.0111 36.8922 12.9987 37.2283 12.9745C37.6079 12.9437 37.9853 12.8911 38.3587 12.8169V5.72835C38.3587 5.00056 38.2863 4.35294 38.1422 3.78619C38.2222 3.75439 38.3705 3.7143 38.5876 3.66523C38.8034 3.61685 39.024 3.59266 39.2488 3.59266C39.9059 3.59266 40.3784 3.77927 40.6673 4.15043C40.9561 4.52365 41.1002 5.13879 41.1002 5.99583V12.8169C41.5171 12.8971 41.8936 12.9496 42.2305 12.9745C42.5674 12.9987 42.8708 13.0111 43.1443 13.0111C43.3998 13.0111 43.6977 12.9987 44.0338 12.9745C44.4134 12.9437 44.7908 12.8911 45.1641 12.8169V5.55902C45.1641 4.36123 44.9922 3.39844 44.647 2.66996C44.3025 1.94217 43.8612 1.38371 43.3246 0.995273H43.3253ZM23.8589 5.84999C24.4199 5.84999 25.0852 5.92257 25.8543 6.0684V12.2336C25.3894 12.4126 24.74 12.6068 23.9069 12.8169C23.0731 13.027 22.1036 13.1321 20.9976 13.1321C19.8423 13.1321 18.8609 12.9579 18.0515 12.6103C17.2413 12.2626 16.5801 11.7891 16.0679 11.1906C15.5542 10.5921 15.1812 9.88776 14.9487 9.07841C14.7115 8.23292 14.5944 7.35869 14.6007 6.48103C14.6007 5.5915 14.7406 4.75036 15.0211 3.95621C15.2866 3.18852 15.7129 2.48538 16.2718 1.89309C16.8251 1.31044 17.5107 0.849438 18.3278 0.510077C19.1449 0.170026 20.0907 0 21.1647 0C21.7256 0 22.343 0.0649692 23.016 0.194908C23.6898 0.324155 24.4268 0.550856 25.2293 0.87432C25.2126 1.1494 25.1806 1.4079 25.1326 1.65049C25.0845 1.89309 25.0247 2.14053 24.9516 2.39073C24.8799 2.64231 24.7915 2.9091 24.6878 3.19248C24.5834 3.47585 24.4588 3.79448 24.3148 4.15043C23.8251 3.9422 23.3184 3.77573 22.8003 3.65279C22.3346 3.54773 21.9344 3.49521 21.5976 3.49521C21.0686 3.49521 20.6197 3.57676 20.2508 3.73849C19.8819 3.90023 19.5854 4.11863 19.3613 4.39372C19.1365 4.6688 18.9723 4.98812 18.8686 5.35236C18.7637 5.71951 18.711 6.0994 18.712 6.48103C18.712 7.56615 18.9437 8.36237 19.4094 8.87245C19.8736 9.38183 20.555 9.63687 21.4535 9.63687H21.8857V6.0684C22.2399 5.99516 22.5973 5.93843 22.9569 5.89838C23.2563 5.8669 23.5571 5.85075 23.8582 5.84999H23.8589ZM10.969 6.5218C10.969 6.24672 10.9536 5.93915 10.9216 5.59979C10.8838 5.21842 10.8356 4.83814 10.7769 4.45938H8.47867V2.16541C8.14251 2.08454 7.79729 2.02718 7.44511 1.99469C7.09224 1.9629 6.76303 1.94631 6.45888 1.94631C6.13872 1.94631 5.80534 1.9629 5.46151 1.99469C5.1163 2.02718 4.7676 2.08454 4.41542 2.16541V4.45799H2.1409C2.06155 4.79805 2.00518 5.1457 1.97246 5.50165C1.94114 5.85829 1.92444 6.18935 1.92444 6.49692C1.92444 6.82108 1.94114 7.15629 1.97246 7.50395C2.00518 7.85298 2.06155 8.20409 2.1409 8.56004H4.41473V10.8782C4.81493 10.9425 5.18381 10.9915 5.52067 11.0233C5.85754 11.0565 6.16099 11.0724 6.43452 11.0724C6.70666 11.0724 7.0122 11.0565 7.34837 11.024C7.7262 10.9861 8.10288 10.9377 8.47798 10.8789V8.56004H10.7762C10.8358 8.18951 10.8841 7.81726 10.9209 7.44381C10.953 7.10376 10.9683 6.7962 10.9683 6.52111L10.969 6.5218ZM12.663 0.234995C12.7479 0.613061 12.8927 4.54854 12.8927 6.50936C12.8927 8.47365 12.7479 12.4223 12.663 12.7844C12.2886 12.8701 8.38958 13.0167 6.44705 13.0167C4.50034 13.0167 0.588816 12.8701 0.230376 12.7844C0.145464 12.4064 0 8.47088 0 6.51075C0 4.54577 0.145464 0.596473 0.230376 0.234995C0.60552 0.149291 4.50382 0.00345581 6.44635 0.00345581C8.39307 0.00345581 12.3046 0.149291 12.663 0.235686V0.234995Z" fill="#00A6E2"/>
</svg>
