<svg width="55" height="20" viewBox="0 0 55 20" fill="none" xmlns="http://www.w3.org/2000/svg">
<path fill-rule="evenodd" clip-rule="evenodd" d="M0 19.3697L4.06241 1.90875C4.23672 1.01534 5.15828 0.334098 6.26652 0.334098H8.28789C7.90498 2.04285 6.86928 6.44205 6.43295 8.30187C7.7959 6.5371 12.4785 4.97659 14.6258 7.08934C16.3177 8.76188 15.3034 12.0515 14.731 14.5456C14.3334 16.2623 13.9635 17.7945 13.598 19.3697L9.77959 19.3748C10.2845 17.1789 10.8895 14.7289 11.4057 12.4159C11.8437 10.431 11.9854 8.33186 9.39163 8.64023C8.45038 8.75056 7.70818 9.25697 7.11499 9.84768C5.65589 11.2922 5.22069 13.7331 4.59601 16.2001L4.17993 17.9733C4.00956 18.7734 3.29772 19.3748 2.44813 19.3748L0 19.3697ZM43.475 10.3574C40.9825 10.0699 37.8062 8.42567 33.6145 6.99813C27.0156 4.7445 24.5225 6.58509 24.5225 6.58509C24.3173 7.45417 24.1261 8.29441 23.9007 9.25346C24.206 9.04298 24.5501 8.78949 25.0364 8.68199C26.9504 8.24235 28.0446 9.67103 28.0508 11.2513C28.071 14.2049 25.511 17.3559 22.658 17.327C19.687 17.2959 20.7491 14.2236 21.2271 12.1753C22.1672 8.19143 23.0544 4.35465 24.0075 0.333984L22.0232 0.337379C20.9184 0.337379 19.9991 1.01692 19.8191 1.91317L17.3884 12.3683C17.1034 13.5683 16.6749 15.1481 16.7913 16.5304C16.9931 18.7438 19.1281 19.5546 21.1225 19.6718C24.5641 19.8868 27.4733 18.7512 29.3687 16.8037C31.2293 14.8793 32.4545 11.6016 31.5982 8.67294C32.2987 8.74027 33.2479 8.99432 34.5237 9.39718L32.1964 19.3696L34.6502 19.3747C35.5009 19.3747 36.2048 18.7733 36.3808 17.9732L38.1391 10.3342C41.8124 11.0799 43.475 10.3574 43.475 10.3574Z" fill="#003959"/>
<path fill-rule="evenodd" clip-rule="evenodd" d="M38.699 7.94346C39.4137 5.06348 39.5323 2.14049 43.4035 2.64915L43.9669 0.127891C38.0389 -0.593521 36.1722 1.76366 35.2034 6.52667L38.699 7.94346Z" fill="#003959"/>
<path fill-rule="evenodd" clip-rule="evenodd" d="M54.3942 4.31664C54.0624 5.57841 53.6879 5.88791 52.9772 6.21099C50.5375 7.30696 46.7883 8.31694 42.8608 7.96897C47.3275 7.60119 52.7006 4.30476 54.7883 2.73633C54.7883 2.73633 54.7203 3.04583 54.3942 4.31664Z" fill="#46D9DE"/>
<path fill-rule="evenodd" clip-rule="evenodd" d="M52.7833 7.96582C49.1747 8.97127 42.9346 9.26323 39.042 8.06767C44.8238 10.409 48.2334 10.323 49.5896 10.2517C49.5896 10.2517 51.0943 10.2545 51.9248 9.14611C52.7013 8.11067 52.7833 7.96582 52.7833 7.96582Z" fill="#05B4BF"/>
</svg>
