<svg width="70" height="20" viewBox="0 0 70 20" fill="none" xmlns="http://www.w3.org/2000/svg">
<g clip-path="url(#clip0)">
<path d="M0 10.3571C0 14.5559 3.07915 17.915 6.81145 17.915C9.79729 17.915 12.2233 16.1422 12.8764 13.8095C12.8764 13.7162 12.8764 13.7162 12.7831 13.7162C12.3166 13.9028 11.7568 13.9961 11.1036 13.9961C8.02445 13.9961 6.06499 11.3835 6.06499 8.21102C6.06499 6.25156 6.53153 4.75864 7.09137 3.26572C7.09137 3.17241 7.09137 3.17241 6.99807 3.17241C6.71814 3.17241 6.34491 3.0791 5.97168 3.0791C2.61261 3.0791 0 6.34487 0 10.3571Z" fill="url(#paint0_linear)"/>
<path d="M7.18474 7.27799C7.18474 7.3713 7.18474 7.3713 7.27805 7.3713C7.9312 7.09137 8.58435 6.90476 9.33081 6.90476C12.0367 6.90476 14.1828 9.23745 14.1828 12.0367C14.1828 16.0489 11.0103 18.9414 6.99812 18.9414C6.81151 18.9414 6.62489 18.9414 6.53159 18.9414C6.43828 18.9414 6.34497 18.9414 6.34497 18.9414C6.34497 18.9414 6.34497 19.0347 6.43828 19.0347C7.74458 19.5013 9.05089 19.7812 10.5438 19.7812C16.5155 19.7812 20.9943 14.9292 20.9943 8.95752C20.9943 4.01222 17.7285 0 13.7163 0C10.3572 0 7.55797 2.79923 7.18474 7.27799Z" fill="url(#paint1_linear)"/>
<path d="M50.6661 5.22513C52.159 5.22513 53.4653 6.1582 53.7452 7.46451H55.5181V4.19875C54.3051 3.6389 52.6255 3.17236 50.7594 3.17236C44.881 3.17236 42.0818 6.34482 42.0818 10.4503C42.0818 14.7425 45.1609 17.8216 50.2929 17.8216C53.0921 17.8216 54.7716 16.8886 56.2645 15.3956L55.1448 13.996C54.1185 14.8358 52.8122 15.489 51.2259 15.489C48.7999 15.489 46.4672 13.7161 46.4672 9.98381C46.3739 6.81136 48.0535 5.22513 50.6661 5.22513Z" fill="#EE255C"/>
<path d="M26.686 7.27825V17.4488H30.7915V11.4771H36.39V17.4488H40.4022V3.45264H35.4569V4.85225C36.1101 5.31879 36.39 5.97194 36.39 7.27825V9.33101H30.7915V3.45264H25.7529V4.85225C26.4061 5.31879 26.686 5.97194 26.686 7.27825Z" fill="#EE255C"/>
<path d="M68.3011 6.90502H69.9806V3.45264H57.1975V4.85225C57.8507 5.41209 58.2239 6.06525 58.2239 7.27825V17.4488H62.2361V11.3838H67.368V9.42432H62.2361V5.4121H66.0617C67.1814 5.4121 68.0212 6.06525 68.3011 6.90502Z" fill="#EE255C"/>
</g>
<defs>
<linearGradient id="paint0_linear" x1="9.59547" y1="16.5708" x2="0.604914" y2="3.96627" gradientUnits="userSpaceOnUse">
<stop stop-color="#A21C49"/>
<stop offset="0.33" stop-color="#8F183F"/>
<stop offset="0.67" stop-color="#7F1335"/>
<stop offset="0.9182" stop-color="#6D0B2A"/>
</linearGradient>
<linearGradient id="paint1_linear" x1="7.9242" y1="5.97" x2="18.0958" y2="16.5417" gradientUnits="userSpaceOnUse">
<stop stop-color="#EE255C"/>
<stop offset="0.2447" stop-color="#D72158"/>
<stop offset="0.45" stop-color="#C81E55"/>
<stop offset="0.65" stop-color="#B31E4F"/>
<stop offset="0.8415" stop-color="#A31C49"/>
<stop offset="0.85" stop-color="#A21C49"/>
<stop offset="1" stop-color="#A21C49"/>
</linearGradient>
<clipPath id="clip0">
<rect width="69.8874" height="19.8745" fill="white"/>
</clipPath>
</defs>
</svg>
