<svg width="101" height="106" viewBox="0 0 101 106" xmlns="http://www.w3.org/2000/svg"><g fill="none" fill-rule="evenodd"><ellipse fill="#793CBD" cx="50.5" cy="50.305" rx="50.5" ry="50.305"/><path d="M15.222 80.313c-.992 10.907-3.653 19.003-7.515 22.839a1.66 1.66 0 0 0-.316 1.924 1.68 1.68 0 0 0 1.736.907c.68-.095 16.482-2.354 27.911-8.907 6.49 2.6-27.059-24.035-21.816-16.763z" fill="#793CBD"/><path d="M65.498 48.556c0-7.366-3.796-11.26-10.98-11.26-2.896 0-5.753.687-8.529 2.048V29H34v6.886h3.233v28.96H34v6.885h15.007v-6.885H45.99V47.3c2.357-1.669 4.747-2.48 7.29-2.48.911 0 2.112.13 2.661.746.28.314.748 1.161.748 3.309v15.97H53.67v6.885h15.06v-6.885h-3.232v-16.29z" fill="#FFF"/></g></svg>
