<svg width="81" height="16" viewBox="0 0 81 16" fill="none" xmlns="http://www.w3.org/2000/svg">
<path d="M22.3398 12.202L23.3886 13.8158C22.2031 14.7799 20.9591 15.2427 19.5116 15.2427C16.5531 15.2427 14.6461 13.1488 14.6461 9.90406C14.6461 8.05477 15.0286 6.8249 15.9311 5.82034C16.7759 4.87162 17.7978 4.42871 19.1688 4.42871C20.3538 4.42871 21.4796 4.8299 22.1434 5.51287C23.085 6.48084 23.508 7.87183 23.508 10.0286V10.6538H17.5583V10.7334C17.5583 12.3227 18.3382 13.2303 19.7305 13.2303C20.6574 13.2303 21.5188 12.885 22.3398 12.202ZM17.6 8.67804H20.7171V8.55608C20.7171 7.79159 20.6336 7.38784 20.3929 7.00784C20.1323 6.60473 19.751 6.40318 19.2067 6.40318C18.1842 6.40318 17.6 7.20747 17.6 8.64017V8.67804ZM71.1364 14.9391H73.8318V0.215332H71.1364V14.9391ZM76.5271 4.59047H79.7622L76.5726 9.01504L80.5248 14.9384H77.3474L73.8914 9.10105L76.5271 4.59047ZM57.4102 10.3168H57.2947C55.4223 10.3168 54.7759 10.6583 54.7759 11.8843C54.7759 12.6886 55.2798 13.2323 55.9685 13.2323C56.4666 13.2323 56.9718 12.9723 57.3691 12.5262L57.4102 10.3168ZM57.6875 14.1759C57.5309 14.3941 57.4211 14.561 56.8691 14.8344C56.5899 14.9744 56.0077 15.2022 55.3459 15.2022C53.0556 15.2022 51.8989 14.111 51.8989 12.055C51.8989 9.64024 53.5704 8.50602 56.8505 8.50602C57.052 8.50602 57.1689 8.50602 57.4545 8.53233V8.11189C57.4545 6.95841 57.2311 6.57777 56.2477 6.57777C55.3806 6.57777 54.3754 7.0027 53.2694 7.74602L52.1268 5.81071C52.7841 5.38963 53.0685 5.25034 53.7893 4.96726C54.7971 4.54426 55.6662 4.3626 56.6053 4.3626C58.3384 4.3626 59.5195 5.00578 59.9239 6.15476C60.0638 6.57777 60.1062 6.90128 60.1062 8.00919L60.0426 11.4716L60.0452 12.7746C60.0452 13.6296 60.0856 14.5128 60.3173 14.9429H57.9488C57.8031 14.7632 57.6875 14.1759 57.6875 14.1759ZM10.8704 14.9384V8.15362C10.8704 6.9276 10.7292 6.68368 10.0244 6.68368C9.52633 6.68368 8.82409 7.02645 8.24254 7.54895V14.9384H5.69423V8.24926C5.69423 6.96355 5.51578 6.65993 4.77247 6.65993C4.26858 6.65993 3.58946 6.9276 3.00727 7.44625V14.9384H0.381284V7.76848C0.381284 6.28057 0.278581 5.6374 0 5.13672L2.42443 4.47236C2.60416 4.75608 2.68439 4.99615 2.78966 5.51993C3.48997 4.83375 4.35267 4.47236 5.29304 4.47236C6.13649 4.47236 6.83808 4.75608 7.3824 5.31453C7.52105 5.45318 7.6597 5.63676 7.77845 5.82034C8.72717 4.85878 9.56933 4.47236 10.6888 4.47236C11.4912 4.47236 12.2524 4.71628 12.714 5.12068C13.293 5.61878 13.4752 6.21767 13.4752 7.62662V14.9378H10.8711L10.8704 14.9384Z" fill="#DD2C35"/>
<path d="M36.8868 6.58325C36.8868 6.18207 36.691 5.93558 36.4542 5.93558C35.8932 5.93558 35.4445 6.73923 34.7769 8.36514L33.936 8.00953C34.8783 5.5575 35.8938 4.37706 37.426 4.37706C38.8452 4.37706 39.7028 5.42656 39.7028 7.25146C39.7028 7.96203 39.5564 8.74065 39.3145 9.65727L38.824 11.5688C38.6501 12.1915 38.6084 12.6389 38.6084 12.8809C38.6084 13.3713 38.824 13.6383 39.1681 13.6383C39.7715 13.6383 40.3087 12.7698 40.8884 11.0579L41.6856 11.4578C41.0155 13.9759 39.8755 15.2218 38.2181 15.2218C36.6731 15.2218 35.7211 14.1955 35.7211 12.4373C35.7211 11.4815 36.0029 10.4397 36.3027 9.18933L36.691 7.60899C36.7995 7.16288 36.8868 6.82524 36.8868 6.58325ZM37.8201 0C38.7868 0 39.5147 0.751014 39.5147 1.71578C39.5147 2.66193 38.7663 3.43477 37.8201 3.43477C36.8901 3.40933 36.1494 2.64808 36.1494 1.7177C36.1494 0.78733 36.8901 0.0260744 37.8201 0.000641892" fill="#189BD7"/>
<path d="M61.1718 5.13688L63.5969 4.47252C63.7239 4.65867 63.9595 5.23829 63.9595 5.65809C64.586 5.21583 64.7041 5.13367 65.1483 4.89103C65.6862 4.60988 66.3923 4.45198 67.0002 4.45198C68.1453 4.45198 69.1505 5.05343 69.474 5.9386C69.6127 6.32053 69.6704 6.76664 69.6704 7.40853V14.9379H67.0207V8.23529C67.0207 7.06961 66.8166 6.72684 66.1156 6.72684C65.5687 6.72684 64.8684 7.0908 64.2439 7.65053V14.9386H61.5479V7.47144C61.5479 5.86863 61.3008 5.36731 61.1718 5.13688ZM31.1916 14.9386C31.0747 14.7094 31.0067 14.3025 31.0067 14.3025C30.4226 14.78 29.5047 15.2024 28.7222 15.2024C26.1135 15.2024 24.4587 13.1676 24.4587 9.9684C24.4587 6.74482 26.2509 4.52708 28.8621 4.52708C29.6067 4.52708 30.1883 4.71002 30.6877 5.1112V0.216128H33.2873V14.9392H31.1916V14.9386ZM30.653 7.34884C30.1536 6.90593 29.6683 6.68319 29.1856 6.68319C27.9763 6.68319 27.4545 7.69225 27.4545 9.98894C27.4545 12.2028 27.9179 12.925 29.3243 12.925C29.8275 12.925 30.3911 12.5822 30.653 12.2638V7.34884ZM45.0012 0.214844V5.19079C45.5257 4.63106 46.3145 4.36981 47.1689 4.36981C49.6851 4.36981 51.2513 6.38151 51.2513 9.60381C51.2513 11.6996 50.6101 13.3319 49.3411 14.3365C48.6414 14.8994 47.9347 15.1453 47.0887 15.1401C46.1188 15.1382 45.4043 14.866 44.8202 14.219C44.8202 14.219 44.7753 14.5676 44.6456 14.9379H42.3695L42.3669 11.1739V0.214844H45.0012ZM48.0733 7.91113C47.8775 7.02661 47.3108 6.60424 46.6066 6.60424C45.9069 6.60424 45.4204 7.04458 45.084 7.42651V12.1816C45.4396 12.5058 45.8671 12.846 46.5906 12.846C47.2536 12.846 47.6798 12.5815 47.8968 12.0411C48.1388 11.4743 48.1914 10.93 48.1914 9.66286C48.1914 8.73853 48.176 8.35468 48.0733 7.91178V7.91113Z" fill="#DD2C35"/>
</svg>
