<svg width="49" height="25" viewBox="0 0 49 25" fill="none" xmlns="http://www.w3.org/2000/svg">
<path d="M0.619629 6.45882H6.84456V9.16893C8.37661 7.09983 10.0619 5.97197 12.6421 5.97197C17.1657 5.97197 19.2944 8.64151 19.2944 13.3883V23.7418H12.4809V14.6054C12.4809 12.8933 12.0132 11.3678 10.086 11.3678C7.98956 11.3678 7.43319 12.7229 7.43319 14.9299V23.7337H0.619629V6.45882ZM21.0684 23.7337H27.89V6.45882H21.0684V23.7337ZM21.0684 4.84412H27.89V0H21.0684V4.84412ZM39.3239 19.2953C37.0984 19.2953 36.4452 16.9585 36.4452 15.1166C36.4452 13.3315 37.2677 11.2948 39.3239 11.2948C41.5171 11.2948 42.2025 13.4045 42.2025 15.2464C42.2025 17.1126 41.5494 19.2953 39.3239 19.2953ZM36.5984 0H29.7849V23.7337H35.905V21.2914H35.9614C36.8162 22.9467 38.3885 24.2287 41.2349 24.2287C46.847 24.2287 48.9999 20.1067 48.9999 14.9867C48.9999 9.77749 45.9197 5.95575 41.5332 5.95575C39.4932 5.95575 37.9289 6.61299 36.5823 8.19524V0H36.5984Z" fill="#009623"/>
</svg>
