<svg width="52" height="29" viewBox="0 0 52 29" fill="none" xmlns="http://www.w3.org/2000/svg">
<path d="M44.1801 13.0118V13.8586V14.5061C44.1801 14.7053 43.9809 14.9045 43.7816 14.9045H42.4866C42.2874 14.9045 42.0881 14.7053 42.0881 14.5061V13.8586V13.0118C42.0881 12.3145 42.5364 11.7168 43.1341 11.4678C43.7318 11.7168 44.1801 12.3145 44.1801 13.0118Z" fill="#009B4D"/>
<path d="M41.2414 18.6402L42.0383 17.5942C42.1878 17.4448 42.4368 17.395 42.5862 17.4946C42.636 17.4946 42.636 17.5444 42.6858 17.5942L40.9924 15.3528C40.7931 15.1038 40.7433 14.8049 40.7433 14.5559V13.9084C40.7433 13.6095 40.9924 13.3605 41.2912 13.3605H41.5901C41.8889 13.3605 42.1379 13.6095 42.1379 13.9084V13.0616C42.1379 12.3643 42.5862 11.7666 43.1839 11.5176C42.9847 11.418 42.7855 11.418 42.5364 11.418H40.3448C39.4483 11.418 38.7012 12.1651 38.7012 13.0616V15.1536C38.7012 15.5022 38.8008 15.8509 39.0498 16.1498L41.2912 19.1383C41.1418 18.9888 41.1418 18.7896 41.2414 18.6402Z" fill="#ADCC40"/>
<path d="M46.9194 16.0998L46.1224 15.0538C45.973 14.9044 45.724 14.8546 45.5745 14.9542C45.5247 14.9542 45.5247 15.004 45.4749 15.0538L43.0841 18.1917L42.6359 17.594C42.6359 17.5442 42.586 17.5442 42.5362 17.4944C42.3868 17.345 42.1378 17.3948 41.9883 17.594L41.1914 18.64C41.0918 18.7894 41.0918 18.9886 41.1914 19.0883L42.7853 21.1802C42.8849 21.2798 42.9845 21.3296 43.0841 21.3296C43.1837 21.3296 43.3332 21.2798 43.383 21.1802L46.8696 16.548C47.019 16.4484 47.0688 16.2492 46.9194 16.0998Z" fill="#009B4D"/>
<path d="M45.9731 11.3682H43.7815C43.5823 11.3682 43.3333 11.418 43.134 11.4678C43.7317 11.7168 44.18 12.3145 44.18 13.0118V13.8586C44.18 13.5597 44.4291 13.3107 44.7279 13.3107H45.0267C45.3256 13.3107 45.5746 13.5597 45.5746 13.8586V14.5061C45.5746 14.7551 45.5248 15.054 45.3256 15.2532L45.5248 15.0042C45.5248 14.9544 45.5746 14.9544 45.6244 14.9046C45.7739 14.7551 46.0229 14.8049 46.1723 15.0042L46.9693 16.0501C47.0689 16.1996 47.0689 16.349 46.9693 16.4984L47.3179 16.0501C47.567 15.7513 47.6666 15.4026 47.6666 15.054V12.962C47.6168 12.1153 46.8697 11.3682 45.9731 11.3682Z" fill="#00B495"/>
<path d="M3.88505 9.97381C3.88505 10.173 3.73562 10.3225 3.53639 10.3225H2.34099C2.14176 10.3225 1.99233 10.173 1.99233 9.97381V2.45276H0.348658C0.149425 2.45276 0 2.30333 0 2.1041V1.10794C0 0.908702 0.149425 0.759277 0.348658 0.759277H5.52872C5.72795 0.759277 5.87738 0.908702 5.87738 1.10794V2.1041C5.87738 2.30333 5.72795 2.45276 5.52872 2.45276H3.88505V9.97381Z" fill="#011E45"/>
<path d="M8.46743 8.57918H11.8046C12.0038 8.57918 12.1532 8.72861 12.1532 8.92784V9.97381C12.1532 10.173 12.0038 10.3225 11.8046 10.3225H6.87356C6.67433 10.3225 6.5249 10.173 6.5249 9.97381V1.10794C6.5249 0.908702 6.67433 0.759277 6.87356 0.759277H11.6552C11.8544 0.759277 12.0038 0.908702 12.0038 1.10794V2.1041C12.0038 2.30333 11.8544 2.45276 11.6552 2.45276H8.46743V4.54471H10.908C11.1073 4.54471 11.2567 4.69413 11.2567 4.89337V5.93934C11.2567 6.13857 11.1073 6.288 10.908 6.288H8.46743V8.57918Z" fill="#011E45"/>
<path d="M15.0422 8.23052L14.6935 9.924C14.6437 10.1232 14.4943 10.2727 14.1954 10.2727H12.8506C12.7012 10.2727 12.6016 10.1232 12.6514 9.924L14.8429 1.10794C14.8928 0.908702 15.0422 0.759277 15.341 0.759277H16.8353C17.0843 0.759277 17.2337 0.908702 17.3334 1.10794L19.5249 9.97381C19.5747 10.173 19.4751 10.3225 19.3257 10.3225H17.9311C17.682 10.3225 17.4828 10.173 17.433 9.97381L17.0843 8.28033H15.0422V8.23052ZM16.7357 6.53704L16.138 3.44893H15.9885L15.3908 6.53704H16.7357Z" fill="#011E45"/>
<path d="M25.8505 3.59787C25.8505 3.79711 25.7011 3.94653 25.5019 3.94653H24.2567C24.0574 3.94653 23.908 3.79711 23.908 3.59787V3.00017C23.908 2.60171 23.659 2.30286 23.2107 2.30286H22.2643C21.8659 2.30286 21.567 2.5519 21.567 3.00017V8.03081C21.567 8.42928 21.8161 8.72813 22.2643 8.72813H23.2107C23.6092 8.72813 23.908 8.47909 23.908 8.03081V7.43311C23.908 7.23388 24.0574 7.08445 24.2567 7.08445H25.5019C25.7011 7.08445 25.8505 7.23388 25.8505 7.43311V8.5787C25.8505 9.87372 25.3027 10.4216 24.0076 10.4216H21.567C20.272 10.4216 19.7241 9.87372 19.7241 8.5787V2.45228C19.7241 1.15727 20.272 0.609375 21.567 0.609375H24.0076C25.3027 0.609375 25.8505 1.15727 25.8505 2.45228V3.59787Z" fill="#011E45"/>
<path d="M28.4904 4.69413H30.7317V1.10794C30.7317 0.908702 30.8812 0.759277 31.0804 0.759277H32.3256C32.5248 0.759277 32.6743 0.908702 32.6743 1.10794V9.97381C32.6743 10.173 32.5248 10.3225 32.3256 10.3225H31.0804C30.8812 10.3225 30.7317 10.173 30.7317 9.97381V6.43742H28.4904V9.97381C28.4904 10.173 28.341 10.3225 28.1417 10.3225H26.8965C26.6973 10.3225 26.5479 10.173 26.5479 9.97381V1.10794C26.5479 0.908702 26.6973 0.759277 26.8965 0.759277H28.1417C28.341 0.759277 28.4904 0.908702 28.4904 1.10794V4.69413Z" fill="#011E45"/>
<path d="M35.3141 8.57918H38.6513C38.8505 8.57918 38.9999 8.72861 38.9999 8.92784V9.97381C38.9999 10.173 38.8505 10.3225 38.6513 10.3225H33.7202C33.521 10.3225 33.3716 10.173 33.3716 9.97381V1.10794C33.3716 0.908702 33.521 0.759277 33.7202 0.759277H38.5018C38.7011 0.759277 38.8505 0.858894 38.8505 1.10794V2.1041C38.8505 2.30333 38.7011 2.45276 38.5018 2.45276H35.3141V4.54471H37.7547C37.9539 4.54471 38.1034 4.69413 38.1034 4.89337V5.93934C38.1034 6.13857 37.9539 6.288 37.7547 6.288H35.3141V8.57918Z" fill="#011E45"/>
<path d="M44.5287 7.08493L45.6245 9.97381C45.7241 10.173 45.5747 10.3225 45.4252 10.3225H44.1302C43.8812 10.3225 43.7318 10.173 43.6321 9.97381L42.6858 7.23436H41.4406V9.97381C41.4406 10.173 41.2911 10.3225 41.0919 10.3225H39.8467C39.6475 10.3225 39.498 10.173 39.498 9.97381V1.10794C39.498 0.908702 39.6475 0.759277 39.8467 0.759277H43.6819C44.977 0.759277 45.5249 1.30717 45.5249 2.60218V5.39145C45.5249 6.93551 44.5287 7.08493 44.5287 7.08493ZM41.4406 2.45276V5.54087H42.9348C43.3333 5.54087 43.6321 5.29183 43.6321 4.84356V3.15008C43.6321 2.75161 43.3831 2.45276 42.9348 2.45276H41.4406Z" fill="#011E45"/>
<path d="M50.157 7.48292C50.157 7.23388 50.0076 7.08445 49.659 6.88522L47.567 5.73963C46.6705 5.24155 46.2222 4.79327 46.2222 3.69749V2.45228C46.2222 1.15727 46.7701 0.609375 48.0651 0.609375H50.1072C51.4022 0.609375 51.9501 1.15727 51.9501 2.45228V3.54806C51.9501 3.7473 51.8007 3.89672 51.6015 3.89672H50.3563C50.157 3.89672 50.0076 3.7473 50.0076 3.54806V3.00017C50.0076 2.60171 49.7586 2.30286 49.3103 2.30286H48.7624C48.3639 2.30286 48.0651 2.5519 48.0651 3.00017V3.54806C48.0651 3.79711 48.2145 3.99634 48.5632 4.14576L50.6551 5.29135C51.5517 5.78944 51.9999 6.23771 51.9999 7.3335V8.5787C51.9999 9.87372 51.4521 10.4216 50.157 10.4216H47.816C46.521 10.4216 45.9731 9.87372 45.9731 8.5787V7.48292C45.9731 7.28369 46.1226 7.13426 46.3218 7.13426H47.567C47.7662 7.13426 47.9157 7.28369 47.9157 7.48292V8.03081C47.9157 8.42928 48.1647 8.72813 48.613 8.72813H49.4099C49.8084 8.72813 50.1072 8.47909 50.1072 8.03081V7.48292H50.157Z" fill="#011E45"/>
<path d="M2.7394 15.6019H4.98077V11.9658C4.98077 11.7666 5.1302 11.6172 5.32943 11.6172H6.57464C6.77387 11.6172 6.9233 11.7666 6.9233 11.9658V20.8317C6.9233 21.031 6.77387 21.1804 6.57464 21.1804H5.32943C5.1302 21.1804 4.98077 21.031 4.98077 20.8317V17.2953H2.7394V20.8317C2.7394 21.031 2.58997 21.1804 2.39074 21.1804H1.14553C0.9463 21.1804 0.796875 21.031 0.796875 20.8317V11.9658C0.796875 11.7666 0.9463 11.6172 1.14553 11.6172H2.39074C2.58997 11.6172 2.7394 11.7666 2.7394 11.9658V15.6019Z" fill="#011E45"/>
<path d="M9.51332 19.4869H12.8505C13.0497 19.4869 13.1991 19.6363 13.1991 19.8356V20.8815C13.1991 21.0808 13.0497 21.2302 12.8505 21.2302H7.96926C7.77003 21.2302 7.62061 21.0808 7.62061 20.8815V11.9658C7.62061 11.7666 7.77003 11.6172 7.96926 11.6172H12.7509C12.9501 11.6172 13.0995 11.7666 13.0995 11.9658V13.0118C13.0995 13.2111 12.9501 13.3605 12.7509 13.3605H9.56313V15.4524H12.0037C12.203 15.4524 12.3524 15.6019 12.3524 15.8011V16.8471C12.3524 17.0463 12.203 17.1957 12.0037 17.1957H9.56313V19.4869H9.51332Z" fill="#011E45"/>
<path d="M16.1379 19.1382L15.7892 20.8317C15.7394 21.031 15.59 21.1804 15.2911 21.1804H13.9463C13.7969 21.1804 13.6973 21.031 13.7471 20.8317L15.9387 11.9658C15.9885 11.7666 16.1379 11.6172 16.4367 11.6172H17.931C18.18 11.6172 18.3295 11.7666 18.4291 11.9658L20.6206 20.8317C20.6704 21.031 20.5708 21.1804 20.4214 21.1804H19.0766C18.8275 21.1804 18.6283 21.031 18.5785 20.8317L18.2298 19.1382H16.1379ZM17.8314 17.4448L17.2337 14.3566H17.0842L16.4865 17.4448H17.8314Z" fill="#011E45"/>
<path d="M22.9616 19.4869H26.0995C26.2987 19.4869 26.4481 19.6363 26.4481 19.8356V20.8815C26.4481 21.0808 26.2987 21.2302 26.0995 21.2302H21.3677C21.1685 21.2302 21.019 21.0808 21.019 20.8815V11.9658C21.019 11.7666 21.1685 11.6172 21.3677 11.6172H22.6129C22.8121 11.6172 22.9616 11.7666 22.9616 11.9658V19.4869Z" fill="#011E45"/>
<path d="M29.2874 20.8317C29.2874 21.031 29.138 21.1804 28.9387 21.1804H27.6935C27.4943 21.1804 27.3449 21.031 27.3449 20.8317V13.3605H25.7012C25.502 13.3605 25.3525 13.2111 25.3525 13.0118V11.9658C25.3525 11.7666 25.502 11.6172 25.7012 11.6172H30.8813C31.0805 11.6172 31.2299 11.7666 31.2299 11.9658V13.0118C31.2299 13.2111 31.0805 13.3605 30.8813 13.3605H29.2376V20.8317H29.2874Z" fill="#011E45"/>
<path d="M33.7204 15.6019H35.9617V11.9658C35.9617 11.7666 36.1112 11.6172 36.3104 11.6172H37.5556C37.7548 11.6172 37.9043 11.7666 37.9043 11.9658V20.8317C37.9043 21.031 37.7548 21.1804 37.5556 21.1804H36.3104C36.1112 21.1804 35.9617 21.031 35.9617 20.8317V17.2953H33.7204V20.8317C33.7204 21.031 33.5709 21.1804 33.3717 21.1804H32.1265C31.9273 21.1804 31.7778 21.031 31.7778 20.8317V11.9658C31.7778 11.7666 31.9273 11.6172 32.1265 11.6172H33.3717C33.5709 11.6172 33.7204 11.7666 33.7204 11.9658V15.6019Z" fill="#011E45"/>
<path d="M2.14197 26.0118L1.54427 28.4524C1.54427 28.5022 1.49446 28.5022 1.44465 28.5022H1.29522C1.24542 28.5022 1.19561 28.5022 1.19561 28.4524L0.498291 25.4141C0.498291 25.3643 0.498291 25.3643 0.548099 25.3643H0.747333C0.797141 25.3643 0.846949 25.3643 0.846949 25.4141L1.39484 27.9045L1.94273 25.4141C1.94273 25.3643 1.99254 25.3643 2.04235 25.3643H2.19177C2.24158 25.3643 2.29139 25.3643 2.29139 25.4141L2.83928 27.9045L3.38717 25.4141C3.38717 25.3643 3.43698 25.3643 3.48679 25.3643H3.68602C3.73583 25.3643 3.73583 25.3643 3.73583 25.4141L3.03851 28.4524C3.03851 28.5022 2.98871 28.5022 2.9389 28.5022H2.78947C2.73966 28.5022 2.68986 28.5022 2.68986 28.4524L2.14197 26.0118Z" fill="#011E45"/>
<path d="M5.67834 27.9044C5.67834 28.1037 5.62853 28.2531 5.52891 28.3527C5.4293 28.4523 5.27987 28.5021 5.08064 28.5021H4.68217C4.48294 28.5021 4.33351 28.4523 4.2339 28.3527C4.13428 28.2531 4.08447 28.1037 4.08447 27.9044V26.7588C4.08447 26.5596 4.13428 26.4102 4.2339 26.3106C4.33351 26.2109 4.48294 26.1611 4.68217 26.1611H5.08064C5.27987 26.1611 5.4293 26.2109 5.52891 26.3106C5.62853 26.4102 5.67834 26.5596 5.67834 26.7588V27.3565C5.67834 27.4063 5.67834 27.4063 5.62853 27.4063H4.33351V27.8546C4.33351 28.1037 4.43313 28.2033 4.68217 28.2033H5.08064C5.32968 28.2033 5.4293 28.1037 5.4293 27.8546V27.755C5.4293 27.7052 5.4293 27.7052 5.47911 27.7052H5.62853C5.67834 27.7052 5.67834 27.7052 5.67834 27.755V27.9044ZM4.33351 27.1573H5.37949V26.7588C5.37949 26.5596 5.27987 26.4102 5.03083 26.4102H4.68217C4.43313 26.4102 4.33351 26.5098 4.33351 26.7588V27.1573Z" fill="#011E45"/>
<path d="M6.37551 25.5635C6.37551 25.6133 6.37551 25.6133 6.37551 25.6631C6.37551 25.7129 6.37551 25.7129 6.3257 25.7627L6.17628 26.0616C6.17628 26.0616 6.17628 26.0616 6.17628 26.1114C6.17628 26.1114 6.17628 26.1114 6.12647 26.1114H6.07666C6.02685 26.1114 6.02685 26.1114 6.07666 26.0616L6.2759 25.6631H6.22609C6.17628 25.6631 6.17628 25.6631 6.17628 25.6133V25.4141C6.17628 25.3643 6.17628 25.3643 6.22609 25.3643H6.37551C6.42532 25.3643 6.42532 25.3643 6.42532 25.4141V25.5635H6.37551Z" fill="#011E45"/>
<path d="M7.47124 26.4102C7.32181 26.4102 7.2222 26.46 7.17239 26.5098C7.07277 26.6094 7.07277 26.709 7.07277 26.8086V28.4025C7.07277 28.4523 7.07277 28.4523 7.02296 28.4523H6.87354C6.82373 28.4523 6.82373 28.4523 6.82373 28.4025V26.2608C6.82373 26.2109 6.82373 26.2109 6.87354 26.2109H6.97316C7.02296 26.2109 7.02296 26.2109 7.02296 26.2608V26.3604C7.02296 26.3106 7.07277 26.2608 7.12258 26.2608C7.17239 26.2109 7.2222 26.2109 7.27201 26.1611C7.32181 26.1113 7.37162 26.1113 7.47124 26.1113H7.67047C7.72028 26.1113 7.72028 26.1113 7.72028 26.1611V26.3106C7.72028 26.3604 7.72028 26.3604 7.67047 26.3604H7.47124V26.4102Z" fill="#011E45"/>
<path d="M9.71276 27.9044C9.71276 28.1037 9.66295 28.2531 9.56334 28.3527C9.46372 28.4523 9.3143 28.5021 9.11506 28.5021H8.7166C8.51736 28.5021 8.36794 28.4523 8.26832 28.3527C8.16871 28.2531 8.1189 28.1037 8.1189 27.9044V26.7588C8.1189 26.5596 8.16871 26.4102 8.26832 26.3106C8.36794 26.2109 8.51736 26.1611 8.7166 26.1611H9.11506C9.3143 26.1611 9.46372 26.2109 9.56334 26.3106C9.66295 26.4102 9.71276 26.5596 9.71276 26.7588V27.3565C9.71276 27.4063 9.71276 27.4063 9.66295 27.4063H8.41775V27.8546C8.41775 28.1037 8.51736 28.2033 8.7664 28.2033H9.16487C9.41391 28.2033 9.51353 28.1037 9.51353 27.8546V27.755C9.51353 27.7052 9.51353 27.7052 9.56334 27.7052H9.71276C9.76257 27.7052 9.76257 27.7052 9.76257 27.755V27.9044H9.71276ZM8.41775 27.1573H9.46372V26.7588C9.46372 26.5596 9.3641 26.4102 9.11506 26.4102H8.7166C8.46755 26.4102 8.36794 26.5098 8.36794 26.7588V27.1573H8.41775Z" fill="#011E45"/>
<path d="M11.6053 26.6095V28.4026C11.6053 28.4524 11.6053 28.4524 11.5555 28.4524H11.406C11.3562 28.4524 11.3562 28.4524 11.3562 28.4026V26.6095H11.0574C11.0076 26.6095 11.0076 26.6095 11.0076 26.5597V26.4102C11.0076 26.3604 11.0076 26.3604 11.0574 26.3604H11.3562V25.962C11.3562 25.7627 11.406 25.6133 11.5057 25.5137C11.6053 25.4141 11.7547 25.3643 11.9539 25.3643H12.1034C12.1532 25.3643 12.1532 25.3643 12.1532 25.4141V25.5635C12.1532 25.6133 12.1532 25.6133 12.1034 25.6133H11.9539C11.7049 25.6133 11.6053 25.7129 11.6053 25.962V26.3604H11.9539C12.0037 26.3604 12.0037 26.3604 12.0037 26.4102V26.5597C12.0037 26.6095 12.0037 26.6095 11.9539 26.6095H11.6053Z" fill="#011E45"/>
<path d="M14.0958 27.9044C14.0958 28.1037 14.046 28.2531 13.9464 28.3527C13.8468 28.4523 13.6974 28.5021 13.4981 28.5021H13.0498C12.8506 28.5021 12.7012 28.4523 12.6016 28.3527C12.502 28.2531 12.4521 28.1037 12.4521 27.9044V26.7588C12.4521 26.5596 12.502 26.4102 12.6016 26.3106C12.7012 26.2109 12.8506 26.1611 13.0498 26.1611H13.4981C13.6974 26.1611 13.8468 26.2109 13.9464 26.3106C14.046 26.4102 14.0958 26.5596 14.0958 26.7588V27.9044ZM13.8468 26.7588C13.8468 26.5596 13.7472 26.4102 13.4981 26.4102H13.0498C12.8008 26.4102 12.7012 26.5098 12.7012 26.7588V27.9044C12.7012 28.1037 12.8008 28.2531 13.0498 28.2531H13.4981C13.7472 28.2531 13.8468 28.1535 13.8468 27.9044V26.7588Z" fill="#011E45"/>
<path d="M15.3409 26.4102C15.1914 26.4102 15.0918 26.46 15.042 26.5098C14.9424 26.6094 14.9424 26.709 14.9424 26.8584V28.4523C14.9424 28.5021 14.9424 28.5021 14.8926 28.5021H14.7432C14.6934 28.5021 14.6934 28.5021 14.6934 28.4523V26.3106C14.6934 26.2607 14.6934 26.2607 14.7432 26.2607H14.8926C14.9424 26.2607 14.9424 26.2607 14.9424 26.3106V26.4102C14.9424 26.3604 14.9922 26.3106 15.042 26.3106C15.0918 26.2607 15.1416 26.2608 15.1914 26.2109C15.2413 26.1611 15.2911 26.1611 15.3907 26.1611H15.5899C15.6397 26.1611 15.6397 26.1611 15.6397 26.2109V26.3604C15.6397 26.4102 15.6397 26.4102 15.5899 26.4102H15.3409Z" fill="#011E45"/>
<path d="M17.5823 26.211C17.6322 26.211 17.6322 26.211 17.6322 26.2608V26.4102C17.6322 26.46 17.6322 26.46 17.5823 26.46H17.2337V27.8546C17.2337 28.1037 17.3333 28.2033 17.5823 28.2033H17.7318C17.7816 28.2033 17.7816 28.2033 17.7816 28.2531V28.4025C17.7816 28.4523 17.7816 28.4523 17.7318 28.4523H17.5823C17.3831 28.4523 17.2337 28.4025 17.1341 28.3029C17.0345 28.2033 16.9846 28.0539 16.9846 27.8546V26.5098H16.6858C16.636 26.5098 16.636 26.5098 16.636 26.46V26.3106C16.636 26.2608 16.636 26.2608 16.6858 26.2608H16.9846V25.8125C16.9846 25.7627 16.9846 25.7627 17.0345 25.7627H17.1839C17.2337 25.7627 17.2337 25.7627 17.2337 25.8125V26.2608H17.5823V26.211Z" fill="#011E45"/>
<path d="M19.7738 27.9044C19.7738 28.1037 19.724 28.2531 19.6244 28.3527C19.5248 28.4523 19.3753 28.5021 19.1761 28.5021H18.7776C18.5784 28.5021 18.429 28.4523 18.3294 28.3527C18.2297 28.2531 18.1799 28.1037 18.1799 27.9044V26.7588C18.1799 26.5596 18.2297 26.4102 18.3294 26.3106C18.429 26.2109 18.5784 26.1611 18.7776 26.1611H19.1761C19.3753 26.1611 19.5248 26.2109 19.6244 26.3106C19.724 26.4102 19.7738 26.5596 19.7738 26.7588V27.3565C19.7738 27.4063 19.7738 27.4063 19.724 27.4063H18.4788V27.8546C18.4788 28.1037 18.5784 28.2033 18.8274 28.2033H19.2259C19.4749 28.2033 19.5746 28.1037 19.5746 27.8546V27.755C19.5746 27.7052 19.5746 27.7052 19.6244 27.7052H19.7738C19.8236 27.7052 19.8236 27.7052 19.8236 27.755V27.9044H19.7738ZM18.4788 27.1573H19.5248V26.7588C19.5248 26.5596 19.4251 26.4102 19.1761 26.4102H18.7776C18.5784 26.4102 18.429 26.5098 18.429 26.7588V27.1573H18.4788Z" fill="#011E45"/>
<path d="M20.3218 27.8048C20.3218 27.6056 20.3716 27.4561 20.4712 27.3067C20.5708 27.2071 20.7202 27.1573 20.9195 27.1573H21.567V26.7588C21.567 26.5596 21.4674 26.4102 21.2183 26.4102H21.0191C20.8199 26.4102 20.6704 26.5098 20.6704 26.7588V26.8584C20.6704 26.9083 20.6704 26.9083 20.6206 26.9083H20.4712C20.4214 26.9083 20.4214 26.9083 20.4214 26.8584V26.7588C20.4214 26.5596 20.4712 26.4102 20.5708 26.3106C20.6704 26.2109 20.8199 26.1611 21.0191 26.1611H21.2183C21.4176 26.1611 21.567 26.2109 21.6666 26.3106C21.7662 26.4102 21.816 26.5596 21.816 26.7588V28.4523C21.816 28.5021 21.816 28.5021 21.7662 28.5021H21.6168C21.567 28.5021 21.567 28.4523 21.567 28.4025V28.2531C21.567 28.3029 21.5172 28.3527 21.4674 28.3527C21.4176 28.4025 21.3678 28.4025 21.3179 28.4523C21.2681 28.4523 21.2183 28.5021 21.1187 28.5021H20.9195C20.7202 28.5021 20.6206 28.4523 20.4712 28.3527C20.3218 28.2531 20.3218 28.1037 20.3218 27.9044V27.8048ZM20.5708 27.9044C20.5708 28.1037 20.6704 28.2033 20.8697 28.2033H21.1187C21.2681 28.2033 21.3678 28.1535 21.4176 28.1037C21.4674 28.0538 21.5172 27.9044 21.5172 27.8048V27.4063H20.8697C20.6704 27.4063 20.5708 27.506 20.5708 27.7052V27.9044Z" fill="#011E45"/>
<path d="M23.9579 27.9044C23.9579 28.1037 23.9081 28.2531 23.8085 28.3527C23.7088 28.4523 23.5594 28.5021 23.3602 28.5021H22.9617C22.7625 28.5021 22.6131 28.4523 22.5134 28.3527C22.4138 28.2531 22.364 28.1037 22.364 27.9044V26.7588C22.364 26.5596 22.4138 26.4102 22.5134 26.3106C22.6131 26.2109 22.7625 26.1611 22.9617 26.1611H23.3602C23.5594 26.1611 23.7088 26.2109 23.8085 26.3106C23.9081 26.4102 23.9579 26.5596 23.9579 26.7588V26.9083C23.9579 26.9581 23.9579 26.9581 23.9081 26.9581H23.7586C23.7088 26.9581 23.7088 26.9581 23.7088 26.9083V26.7588C23.7088 26.5596 23.6092 26.4102 23.3602 26.4102H22.9617C22.7625 26.4102 22.6131 26.5098 22.6131 26.7588V27.9044C22.6131 28.1037 22.7127 28.2531 22.9617 28.2531H23.3602C23.5594 28.2531 23.7088 28.1535 23.7088 27.9044V27.755C23.7088 27.7052 23.7088 27.7052 23.7586 27.7052H23.9081C23.9579 27.7052 23.9579 27.7052 23.9579 27.755V27.9044Z" fill="#011E45"/>
<path d="M25.5018 26.211C25.701 26.211 25.8504 26.2608 25.9501 26.3604C26.0497 26.46 26.0995 26.6095 26.0995 26.8087V28.4026C26.0995 28.4524 26.0995 28.4524 26.0497 28.4524H25.9002C25.8504 28.4524 25.8504 28.4524 25.8504 28.4026V26.8087C25.8504 26.6095 25.7508 26.46 25.5018 26.46H24.8045V28.4026C24.8045 28.4524 24.8045 28.4524 24.7547 28.4524H24.6052C24.5554 28.4524 24.5554 28.4524 24.5554 28.4026V25.3643C24.5554 25.3145 24.5554 25.3145 24.6052 25.3145H24.7547C24.8045 25.3145 24.8045 25.3145 24.8045 25.3643V26.1612H25.5018V26.211Z" fill="#011E45"/>
<path d="M28.2413 27.9044C28.2413 28.1037 28.1915 28.2531 28.0919 28.3527C27.9923 28.4523 27.8429 28.5021 27.6436 28.5021H27.2452C27.0459 28.5021 26.8965 28.4523 26.7969 28.3527C26.6973 28.2531 26.6475 28.1037 26.6475 27.9044V26.7588C26.6475 26.5596 26.6973 26.4102 26.7969 26.3106C26.8965 26.2109 27.0459 26.1611 27.2452 26.1611H27.6436C27.8429 26.1611 27.9923 26.2109 28.0919 26.3106C28.1915 26.4102 28.2413 26.5596 28.2413 26.7588V27.3565C28.2413 27.4063 28.2413 27.4063 28.1915 27.4063H26.8965V27.8546C26.8965 28.1037 26.9961 28.2033 27.2452 28.2033H27.6436C27.8927 28.2033 27.9923 28.1037 27.9923 27.8546V27.755C27.9923 27.7052 27.9923 27.7052 28.0421 27.7052H28.1915C28.2413 27.7052 28.2413 27.7052 28.2413 27.755V27.9044ZM26.8965 27.1573H27.9425V26.7588C27.9425 26.5596 27.8429 26.4102 27.5938 26.4102H27.1954C26.9961 26.4102 26.8467 26.5098 26.8467 26.7588V27.1573H26.8965Z" fill="#011E45"/>
<path d="M29.4866 26.4102C29.3372 26.4102 29.2376 26.46 29.1878 26.5098C29.0882 26.6094 29.0882 26.709 29.0882 26.8086V28.4025C29.0882 28.4523 29.0882 28.4523 29.0383 28.4523H28.8889C28.8391 28.4523 28.8391 28.4523 28.8391 28.4025V26.2608C28.8391 26.2109 28.8391 26.2109 28.8889 26.2109H29.0383C29.0882 26.2109 29.0882 26.2109 29.0882 26.2608V26.3604C29.0882 26.3106 29.138 26.2608 29.1878 26.2608C29.2376 26.2109 29.2874 26.2109 29.3372 26.1611C29.387 26.1113 29.4368 26.1113 29.5364 26.1113H29.7357C29.7855 26.1113 29.7855 26.1113 29.7855 26.1611V26.3106C29.7855 26.3604 29.7855 26.3604 29.7357 26.3604H29.4866V26.4102Z" fill="#011E45"/>
<path d="M31.6283 27.9044C31.6283 28.1037 31.5785 28.2531 31.4789 28.3527C31.3792 28.4523 31.2298 28.5021 31.0306 28.5021H30.6819C30.4827 28.5021 30.3333 28.4523 30.2337 28.3527C30.134 28.2531 30.0842 28.1037 30.0842 27.9044V27.8048C30.0842 27.755 30.0842 27.755 30.134 27.755H30.2835C30.3333 27.755 30.3333 27.755 30.3333 27.8048V27.9044C30.3333 28.1037 30.4329 28.2531 30.6819 28.2531H31.0306C31.2298 28.2531 31.3792 28.1535 31.3792 27.9044V27.8546C31.3792 27.8048 31.3792 27.755 31.3294 27.7052C31.2796 27.6554 31.2298 27.6056 31.0804 27.5558L30.5325 27.3565C30.4329 27.3067 30.3831 27.3067 30.3333 27.2569C30.2835 27.2071 30.2337 27.2071 30.1838 27.1573C30.134 27.1075 30.134 27.0577 30.134 27.0079C30.134 26.9581 30.134 26.9083 30.134 26.8086V26.7588C30.134 26.5596 30.1838 26.4102 30.2835 26.3106C30.3831 26.2109 30.5325 26.1611 30.7317 26.1611H31.0306C31.2298 26.1611 31.3792 26.2109 31.4789 26.3106C31.5785 26.4102 31.6283 26.5596 31.6283 26.7588V26.8584C31.6283 26.9083 31.6283 26.9083 31.5785 26.9083H31.4291C31.3792 26.9083 31.3792 26.9083 31.3792 26.8584V26.7588C31.3792 26.5596 31.2796 26.4102 31.0306 26.4102H30.7317C30.4827 26.4102 30.3831 26.5098 30.3831 26.7588V26.8086C30.3831 26.8584 30.3831 26.9083 30.4329 26.9581C30.4827 27.0079 30.5325 27.0577 30.6819 27.1075L31.2298 27.3067C31.3792 27.3565 31.4789 27.4561 31.5785 27.506C31.6283 27.5558 31.6781 27.6554 31.6781 27.8048V27.9044H31.6283Z" fill="#011E45"/>
</svg>
